<svg width="520" height="90" viewBox="0 0 520 90" fill="none" xmlns="http://www.w3.org/2000/svg">
<rect width="520" height="90" rx="45" fill="#315C4B"/>
<path d="M158.357 46.8V58.1333H153.557V32.5333H158.357V41.9H161.224V46.8H158.357ZM146.924 33.2C146.924 37 146.613 40.4556 145.991 43.5667L153.057 54L149.091 56.9L144.257 49.4333C143.257 51.8333 142.002 53.6778 140.491 54.9667C139.002 56.2556 137.335 56.9111 135.491 56.9333V51.7333C136.78 51.5778 137.913 50.6889 138.891 49.0667C139.868 47.4444 140.635 45.2556 141.191 42.5C141.746 39.7222 142.024 36.5667 142.024 33.0333L146.924 33.2ZM187.621 41.3H184.754V46.6333H179.954V32.5333H184.754V36.4667H187.621V41.3ZM170.587 42.2333C169.587 43.4778 168.354 44.4889 166.887 45.2667C165.443 46.0444 163.876 46.4444 162.187 46.4667V42.0333C163.676 41.9444 164.932 41.4111 165.954 40.4333C166.998 39.4556 167.643 38.3222 167.887 37.0333H162.521V32.8333H178.054V37.0333H172.754C172.732 37.3667 172.654 37.8444 172.521 38.4667L178.887 42.2L176.621 45.9333L170.587 42.2333ZM174.021 47C177.354 47 180.009 47.4556 181.987 48.3667C183.987 49.2556 184.987 50.7 184.987 52.7C184.987 54.7 183.987 56.1556 181.987 57.0667C180.009 57.9778 177.354 58.4333 174.021 58.4333C170.687 58.4333 168.021 57.9778 166.021 57.0667C164.043 56.1556 163.054 54.7 163.054 52.7C163.054 50.7 164.043 49.2556 166.021 48.3667C168.021 47.4556 170.687 47 174.021 47ZM174.021 54.4C175.754 54.4 177.143 54.2667 178.187 54C179.254 53.7111 179.787 53.2778 179.787 52.7C179.787 52.1222 179.254 51.7 178.187 51.4333C177.143 51.1667 175.754 51.0333 174.021 51.0333C172.287 51.0333 170.887 51.1667 169.821 51.4333C168.754 51.7 168.221 52.1222 168.221 52.7C168.221 53.2778 168.754 53.7111 169.821 54C170.887 54.2667 172.287 54.4 174.021 54.4ZM207.017 46.1V32.5333H211.85V46.1H207.017ZM200.25 41.0667C201.361 41.0667 202.417 40.9889 203.417 40.8333C204.439 40.6778 205.261 40.4556 205.884 40.1667V44.4C205.261 44.6889 204.439 44.9111 203.417 45.0667C202.417 45.2222 201.35 45.3 200.217 45.3H189.084V32.6667H193.95V41.0667H200.25ZM190.084 58.1333V47H211.85V58.1333H190.084ZM207.017 51.2H194.884V53.9333H207.017V51.2ZM240.139 32.5333H244.939V51.5H240.139V42.4H236.872V38H240.139V32.5333ZM230.005 43.5667C229.005 44.9667 227.794 46.0889 226.372 46.9333C224.95 47.7778 223.405 48.2111 221.739 48.2333V43.6667C223.294 43.5333 224.583 42.8444 225.605 41.6C226.627 40.3556 227.25 38.8667 227.472 37.1333H222.039V32.8333H237.572V37.1333H232.305C232.283 37.8222 232.15 38.6222 231.905 39.5333L238.605 44.4333L235.905 48.0333L230.005 43.5667ZM245.272 58.1333H223.172V49.1667H228.072V53.6H245.272V58.1333ZM272.302 47.5667H247.668V43.7H252.202V41.3333C249.98 40.4444 248.868 39.1 248.868 37.3C248.868 35.5222 249.868 34.2111 251.868 33.3667C253.891 32.5222 256.602 32.1 260.002 32.1C263.402 32.1 266.102 32.5222 268.102 33.3667C270.102 34.2111 271.102 35.5222 271.102 37.3C271.102 39.0778 270.002 40.4222 267.802 41.3333V43.7H272.302V47.5667ZM260.002 35.9C258.113 35.9 256.635 36.0222 255.568 36.2667C254.524 36.4889 254.002 36.8333 254.002 37.3C254.002 38.2333 256.002 38.7 260.002 38.7C263.98 38.7 265.968 38.2333 265.968 37.3C265.968 36.8333 265.446 36.4889 264.402 36.2667C263.357 36.0222 261.891 35.9 260.002 35.9ZM263.002 43.7V42.3667C262.202 42.4556 261.202 42.5 260.002 42.5C258.802 42.5 257.802 42.4556 257.002 42.3667V43.7H263.002ZM260.002 48.4333C267.402 48.4333 271.102 50.1 271.102 53.4333C271.102 56.7667 267.402 58.4333 260.002 58.4333C252.58 58.4333 248.868 56.7667 248.868 53.4333C248.868 50.1 252.58 48.4333 260.002 48.4333ZM260.002 54.6667C263.98 54.6667 265.968 54.2556 265.968 53.4333C265.968 52.6111 263.98 52.2 260.002 52.2C256.002 52.2 254.002 52.6111 254.002 53.4333C254.002 54.2556 256.002 54.6667 260.002 54.6667ZM293.798 51.5V32.5333H298.298V51.5H293.798ZM284.565 40.5333V35.9H287.532V32.6333H291.965V51.0667H287.532V40.5333H284.565ZM280.532 44C279.732 45.4 278.765 46.5 277.632 47.3C276.52 48.0778 275.309 48.4778 273.998 48.5V43.7667C274.843 43.6333 275.598 43.1111 276.265 42.2C276.954 41.2667 277.487 39.9889 277.865 38.3667C278.265 36.7222 278.465 34.8444 278.465 32.7333L283.032 32.9C283.032 35.3222 282.765 37.5222 282.232 39.5L287.765 45.0333L284.565 48.2667L280.532 44ZM298.598 58.1333H275.898V49.6333H280.832V53.6H298.598V58.1333ZM324.128 58.1333H319.328V46.7333H315.828V42H319.328V32.5333H324.128V58.1333ZM310.895 52.3C312.028 52.3 313.173 52.1889 314.328 51.9667C315.484 51.7444 316.439 51.4444 317.195 51.0667V55.7C316.461 56.1 315.517 56.4111 314.361 56.6333C313.228 56.8333 312.073 56.9333 310.895 56.9333H301.461V33.1333H315.461V37.7667H306.261V42.6333H314.295V47.2667H306.261V52.3H310.895ZM357.116 46.0333H352.316V40.6H349.05V36.3333H352.316V32.5333H357.116V46.0333ZM342.15 42.2C341.15 43.3778 339.939 44.3333 338.516 45.0667C337.116 45.7778 335.583 46.1556 333.916 46.2V41.8C335.383 41.7111 336.616 41.2 337.616 40.2667C338.639 39.3111 339.294 38.2222 339.583 37H334.216V32.8333H349.75V37H344.483C344.439 37.2889 344.327 37.8 344.15 38.5333L350.616 42.2L348.416 45.9333L342.15 42.2ZM357.116 46.9333V58.1333H335.35V46.9333H340.083V48.5667H352.383V46.9333H357.116ZM352.383 52.4333H340.083V54.2H352.383V52.4333ZM372.013 40.8C370.591 42.5556 368.857 43.9333 366.813 44.9333C364.791 45.9111 362.657 46.4 360.413 46.4V41.6C362.013 41.6 363.546 41.2 365.013 40.4C366.479 39.6 367.713 38.4778 368.713 37.0333C369.713 35.5889 370.335 33.9556 370.579 32.1333L375.479 32.9C375.279 34.2556 374.891 35.6111 374.313 36.9667L384.413 42.1667L382.146 46.4L372.013 40.8ZM374.646 53V58.7333H369.713V53H359.846V48.3H384.479V53H374.646Z" fill="white"/>
</svg>
