<svg width="425" height="62" viewBox="0 0 425 62" fill="none" xmlns="http://www.w3.org/2000/svg">
<rect width="6" height="62" fill="#01A69F"/>
<path d="M51.3242 46.3111H18.4798V40H31.6798V35.2C29.2798 34.9037 27.1761 34.2667 25.3687 33.2889C23.5909 32.2815 22.2131 31.0222 21.2353 29.5111C20.2576 27.9704 19.7687 26.2667 19.7687 24.4C19.7687 22.2667 20.4057 20.3704 21.6798 18.7111C22.9538 17.0222 24.7316 15.7185 27.0131 14.8C29.3242 13.8815 31.9613 13.4222 34.9242 13.4222C37.8872 13.4222 40.5094 13.8815 42.7909 14.8C45.102 15.7185 46.8946 17.0222 48.1687 18.7111C49.4427 20.3704 50.0798 22.2667 50.0798 24.4C50.0798 26.2667 49.5909 27.9704 48.6131 29.5111C47.6353 31.0222 46.2427 32.2815 44.4353 33.2889C42.6279 34.2667 40.539 34.9037 38.1687 35.2V40H51.3242V46.3111ZM26.5687 24.4C26.5687 25.8519 27.339 27.037 28.8798 27.9556C30.4501 28.8741 32.465 29.3333 34.9242 29.3333C37.3835 29.3333 39.3835 28.8741 40.9242 27.9556C42.4946 27.037 43.2798 25.8519 43.2798 24.4C43.2798 22.9481 42.4946 21.763 40.9242 20.8444C39.3835 19.9259 37.3835 19.4667 34.9242 19.4667C32.465 19.4667 30.4501 19.9259 28.8798 20.8444C27.339 21.763 26.5687 22.9481 26.5687 24.4ZM84.9195 20.0444V25.0667H55.6751V13.1556H62.0306V20.0444H84.9195ZM53.6751 31.4667V26.5333H86.5195V31.4667H53.6751ZM61.9418 41.9556V43.2444H84.964V47.5111H55.6306V38.3556H78.3418V37.1111H55.5418V32.8889H84.6529V41.9556H61.9418ZM113.937 47.5111V13.3778H120.337V47.5111H113.937ZM100.159 13.6C102.144 13.6 103.922 14.0593 105.493 14.9778C107.063 15.8963 108.278 17.2 109.137 18.8889C110.026 20.5481 110.47 22.4741 110.47 24.6667C110.47 26.8593 110.026 28.8 109.137 30.4889C108.278 32.1778 107.063 33.4815 105.493 34.4C103.922 35.3185 102.144 35.7778 100.159 35.7778C98.1445 35.7778 96.3519 35.3185 94.7815 34.4C93.2111 33.4815 91.9815 32.1778 91.0926 30.4889C90.2037 28.8 89.7593 26.8593 89.7593 24.6667C89.7593 22.4741 90.2037 20.5481 91.0926 18.8889C91.9815 17.2 93.2111 15.8963 94.7815 14.9778C96.3519 14.0593 98.1445 13.6 100.159 13.6ZM100.159 19.6444C98.8852 19.6444 97.863 20.1185 97.0926 21.0667C96.3519 22.0148 95.9815 23.2148 95.9815 24.6667C95.9815 26.1778 96.3519 27.4074 97.0926 28.3556C97.863 29.2741 98.8852 29.7333 100.159 29.7333C101.404 29.7333 102.411 29.2593 103.182 28.3111C103.952 27.363 104.337 26.1481 104.337 24.6667C104.337 23.2148 103.952 22.0148 103.182 21.0667C102.411 20.1185 101.404 19.6444 100.159 19.6444ZM112.07 44.4889C111.093 44.963 109.819 45.3185 108.248 45.5556C106.707 45.7926 105.093 45.9111 103.404 45.9111H88.8704V39.6H103.67C105.27 39.6 106.826 39.4963 108.337 39.2889C109.848 39.0519 111.093 38.7111 112.07 38.2667V44.4889ZM161.655 46H154.81V33.2444H141.388V46H134.544V14.8889H141.388V27.1556H154.81V14.8889H161.655V46ZM181.667 46.5333C178.586 46.5333 175.815 45.837 173.356 44.4444C170.897 43.0519 168.971 41.1407 167.578 38.7111C166.186 36.2519 165.489 33.4963 165.489 30.4444C165.489 27.3926 166.186 24.6519 167.578 22.2222C168.971 19.763 170.897 17.837 173.356 16.4444C175.815 15.0519 178.586 14.3556 181.667 14.3556C184.719 14.3556 187.475 15.0519 189.934 16.4444C192.393 17.837 194.319 19.763 195.712 22.2222C197.134 24.6519 197.845 27.3926 197.845 30.4444C197.845 33.4963 197.134 36.2519 195.712 38.7111C194.319 41.1407 192.393 43.0519 189.934 44.4444C187.475 45.837 184.719 46.5333 181.667 46.5333ZM181.667 40.4C183.415 40.4 184.986 39.9852 186.378 39.1556C187.801 38.2963 188.912 37.1111 189.712 35.6C190.512 34.0889 190.912 32.3704 190.912 30.4444C190.912 28.5185 190.512 26.8 189.712 25.2889C188.912 23.7778 187.801 22.6074 186.378 21.7778C184.986 20.9185 183.415 20.4889 181.667 20.4889C179.919 20.4889 178.334 20.9185 176.912 21.7778C175.519 22.6074 174.423 23.7778 173.623 25.2889C172.823 26.8 172.423 28.5185 172.423 30.4444C172.423 32.3704 172.823 34.0889 173.623 35.6C174.423 37.1111 175.519 38.2963 176.912 39.1556C178.334 39.9852 179.919 40.4 181.667 40.4ZM197.421 20.7556V14.8889H223.155V20.7556H213.732V46H206.888V20.7556H197.421Z" fill="black"/>
<path d="M242.564 46H240.875V31.8667H237.23V30.4444H242.564V46ZM254.392 46.1556C253.192 46.1556 252.118 45.837 251.17 45.2C250.222 44.5481 249.481 43.6222 248.948 42.4222C248.429 41.2222 248.17 39.8222 248.17 38.2222C248.17 36.6222 248.429 35.2222 248.948 34.0222C249.481 32.8222 250.222 31.9037 251.17 31.2667C252.118 30.6148 253.192 30.2889 254.392 30.2889C255.607 30.2889 256.681 30.6148 257.614 31.2667C258.563 31.9037 259.296 32.8222 259.814 34.0222C260.348 35.2074 260.614 36.6074 260.614 38.2222C260.614 39.837 260.348 41.2444 259.814 42.4444C259.296 43.6296 258.563 44.5481 257.614 45.2C256.681 45.837 255.607 46.1556 254.392 46.1556ZM254.392 44.6667C255.296 44.6667 256.089 44.4148 256.77 43.9111C257.452 43.4074 257.977 42.6741 258.348 41.7111C258.733 40.7481 258.926 39.5852 258.926 38.2222C258.926 36.8593 258.733 35.6963 258.348 34.7333C257.977 33.7704 257.452 33.037 256.77 32.5333C256.089 32.0296 255.296 31.7778 254.392 31.7778C253.503 31.7778 252.718 32.0296 252.037 32.5333C251.355 33.037 250.822 33.7704 250.437 34.7333C250.066 35.6963 249.881 36.8593 249.881 38.2222C249.881 39.5852 250.066 40.7481 250.437 41.7111C250.822 42.6741 251.355 43.4074 252.037 43.9111C252.718 44.4148 253.503 44.6667 254.392 44.6667ZM278.732 35.4889H276.377V42.3778H274.777V29.6889H276.377V33.8889H278.732V35.4889ZM262.399 39.2667V30.1556H271.799V39.2667H262.399ZM263.999 31.6222V37.7778H270.199V31.6222H263.999ZM276.865 44.9556V46.4889H262.932V41.0444H264.554V44.9556H276.865ZM292.952 29.6889H294.552V43.0667H292.952V41.8H287.863V40.5111H292.952V29.6889ZM285.174 36.3556C283.737 36.3556 282.582 36.0667 281.708 35.4889C280.833 34.8963 280.396 34.0815 280.396 33.0444C280.396 32.0222 280.833 31.2222 281.708 30.6444C282.596 30.0519 283.752 29.7556 285.174 29.7556C286.596 29.7556 287.745 30.0519 288.619 30.6444C289.493 31.2222 289.93 32.0222 289.93 33.0444C289.93 34.0963 289.493 34.9111 288.619 35.4889C287.759 36.0667 286.611 36.3556 285.174 36.3556ZM285.174 31.1111C284.211 31.1111 283.433 31.2815 282.841 31.6222C282.263 31.9481 281.974 32.4222 281.974 33.0444C281.974 33.6815 282.263 34.1704 282.841 34.5111C283.433 34.8519 284.211 35.0222 285.174 35.0222C286.122 35.0222 286.885 34.8519 287.463 34.5111C288.056 34.1704 288.352 33.6815 288.352 33.0444C288.352 32.4222 288.056 31.9481 287.463 31.6222C286.885 31.2815 286.122 31.1111 285.174 31.1111ZM279.396 39.0889V37.6889H285.952C288.663 37.6889 290.508 37.4593 291.485 37V38.4C290.508 38.8593 288.545 39.0889 285.596 39.0889V42.2889H283.996V39.0889H279.396ZM295.019 46.4889H280.908V41.3556H282.53V45.0222H295.019V46.4889ZM312.483 46.7556H310.95V38.2667H308.016V46.4667H306.505V29.7778H308.016V36.6889H310.95V29.6889H312.483V46.7556ZM301.439 44.1778C302.135 44.1778 302.816 44.1185 303.483 44C304.15 43.8815 304.727 43.7185 305.216 43.5111V45C304.727 45.2222 304.135 45.3926 303.439 45.5111C302.742 45.6296 302.009 45.6889 301.239 45.6889H297.527V30.3556H304.527V31.8667H299.083V44.1778H301.439ZM315.747 38.7111V30.0222H317.325V32.6H327.992V30.0222H329.57V38.7111H315.747ZM327.992 34.0889H317.325V37.2H327.992V34.0889ZM323.481 42.2V47.1556H321.836V42.2H314.57V40.6444H330.747V42.2H323.481ZM347.345 46.7556H345.745V38.3556H342.589V36.7778H345.745V29.6889H347.345V46.7556ZM339.278 44.1333C340.049 44.1333 340.819 44.0593 341.589 43.9111C342.36 43.763 342.989 43.563 343.478 43.3111V44.8667C342.989 45.1333 342.367 45.3407 341.612 45.4889C340.856 45.6222 340.078 45.6889 339.278 45.6889H333.078V30.3556H342.345V31.9111H334.678V37.1111H341.412V38.6444H334.678V44.1333H339.278ZM355.337 38.4V30.2667H369.159V38.4H355.337ZM356.937 31.8V36.8444H367.559V31.8H356.937ZM363.07 42.2V47.1556H361.426V42.2H354.159V40.6H370.337V42.2H363.07ZM387.935 45.8889H371.757V44.3556H375.913V40.7556H372.913V34.8222H385.246V31.8444H372.89V30.3556H386.846V36.2667H374.49V39.2667H387.09V40.7556H383.779V44.3556H387.935V45.8889ZM382.157 44.3556V40.7556H377.513V44.3556H382.157ZM404.044 38.3556V46.7556H402.488V29.6889H404.044V36.7556H406.31V38.3556H404.044ZM394.332 30.3556V34.1556C394.332 37.5185 393.977 40.1556 393.266 42.0667C392.555 43.9778 391.392 44.9704 389.777 45.0444V43.4667C390.873 43.3333 391.651 42.4815 392.11 40.9111C392.569 39.3259 392.799 37.1259 392.799 34.3111V31.8889H389.777V30.3556H394.332ZM399.777 30.3556V34.4444C399.777 37.9556 399.362 40.6815 398.532 42.6222C397.718 44.5481 396.458 45.5556 394.755 45.6444V44.0667C395.925 43.9481 396.792 43.0815 397.355 41.4667C397.932 39.837 398.221 37.5407 398.221 34.5778V31.8889H395.244V30.3556H399.777ZM422.019 46.7556H420.397V29.6889H422.019V46.7556ZM413.752 31.9111C413.738 33.9556 413.567 35.8444 413.241 37.5778L418.641 44.5333L417.375 45.5333L412.73 39.4444C412.197 41.2815 411.471 42.7407 410.552 43.8222C409.634 44.8889 408.567 45.5111 407.352 45.6889V44.0222C408.33 43.8148 409.175 43.1704 409.886 42.0889C410.597 40.9926 411.145 39.5704 411.53 37.8222C411.915 36.0593 412.123 34.0889 412.152 31.9111H407.708V30.3556H418.063V31.9111H413.752Z" fill="black"/>
</svg>
