<svg width="387" height="62" viewBox="0 0 387 62" fill="none" xmlns="http://www.w3.org/2000/svg">
<rect width="6" height="62" fill="#01A69F"/>
<path d="M41.3162 26.6667C39.8051 29.037 37.5385 30.8296 34.5162 32.0444C31.494 33.2593 27.9681 33.8667 23.9385 33.8667V27.9111C26.457 27.9111 28.6792 27.6 30.6051 26.9778C32.531 26.3556 34.0273 25.4815 35.094 24.3556C36.1903 23.2 36.7385 21.8667 36.7385 20.3556V19.6H23.9385V13.7778H43.3162V19.2444C43.3162 19.7778 43.3014 20.1778 43.2718 20.4444H48.3385V13.3778H54.7385V38.6667H48.3385V26.6667H41.3162ZM55.1829 47.5111H25.7162V35.5556H32.2496V41.4667H55.1829V47.5111ZM92.6893 25.6H88.8671V31.9556H82.4671V13.3778H88.8671V19.0667H92.6893V25.6ZM78.3338 18.4889C78.3338 23.0519 76.5856 26.4444 73.0893 28.6667C69.593 30.8593 64.8967 31.9556 59.0004 31.9556V26.2667C61.5486 26.237 63.7856 25.9556 65.7115 25.4222C67.6375 24.8889 69.119 24.163 70.156 23.2444C71.2227 22.2963 71.756 21.2 71.756 19.9556V19.3778H59.0004V13.7778H78.3338V18.4889ZM74.556 32.4889C79.0301 32.4889 82.5856 33.0963 85.2227 34.3111C87.8597 35.5259 89.1782 37.4963 89.1782 40.2222C89.1782 42.9481 87.8597 44.9037 85.2227 46.0889C82.5856 47.3037 79.0301 47.9111 74.556 47.9111C70.0819 47.9111 66.5264 47.3037 63.8893 46.0889C61.2523 44.9037 59.9338 42.9481 59.9338 40.2222C59.9338 37.4963 61.2523 35.5259 63.8893 34.3111C66.5264 33.0963 70.0819 32.4889 74.556 32.4889ZM74.556 42.4889C76.8967 42.4889 78.7634 42.3111 80.156 41.9556C81.5486 41.6 82.2449 41.0222 82.2449 40.2222C82.2449 39.4222 81.5338 38.8444 80.1115 38.4889C78.719 38.1037 76.8671 37.9111 74.556 37.9111C72.2152 37.9111 70.3338 38.1037 68.9115 38.4889C67.519 38.8444 66.8227 39.4222 66.8227 40.2222C66.8227 41.0222 67.519 41.6 68.9115 41.9556C70.3338 42.3111 72.2152 42.4889 74.556 42.4889ZM110.018 12.8C114.581 12.8 118.166 13.3185 120.774 14.3556C123.411 15.363 124.729 16.9926 124.729 19.2444C124.729 21.4963 123.411 23.1407 120.774 24.1778C118.166 25.1852 114.581 25.6889 110.018 25.6889C105.455 25.6889 101.855 25.1852 99.218 24.1778C96.5809 23.1407 95.2624 21.4963 95.2624 19.2444C95.2624 16.9926 96.5809 15.363 99.218 14.3556C101.855 13.3185 105.455 12.8 110.018 12.8ZM110.018 17.6444C107.529 17.6444 105.574 17.7778 104.151 18.0444C102.759 18.3111 102.062 18.7111 102.062 19.2444C102.062 20.3111 104.714 20.8444 110.018 20.8444C115.292 20.8444 117.929 20.3111 117.929 19.2444C117.929 18.7111 117.233 18.3111 115.84 18.0444C114.448 17.7778 112.507 17.6444 110.018 17.6444ZM93.5735 31.7333V26.8H126.418V31.7333H93.5735ZM101.84 41.9556V43.1111H124.862V47.5111H95.5291V38.4444H118.24V37.2889H95.4402V33.0667H124.551V41.9556H101.84ZM169.025 47.5111H162.625V13.3778H169.025V47.5111ZM148.847 31.7778C146.921 31.7778 145.202 31.3926 143.691 30.6222C142.18 29.8519 140.995 28.7852 140.136 27.4222C139.306 26.0296 138.891 24.4444 138.891 22.6667C138.891 20.9185 139.306 19.363 140.136 18C140.995 16.6074 142.18 15.5259 143.691 14.7556C145.202 13.9852 146.921 13.6 148.847 13.6C150.743 13.6 152.432 13.9852 153.913 14.7556C155.425 15.5259 156.595 16.6074 157.425 18C158.284 19.363 158.713 20.9185 158.713 22.6667C158.713 24.4444 158.284 26.0296 157.425 27.4222C156.595 28.7852 155.425 29.8519 153.913 30.6222C152.432 31.3926 150.743 31.7778 148.847 31.7778ZM148.847 19.0222C147.721 19.0222 146.802 19.3778 146.091 20.0889C145.38 20.7704 145.025 21.6296 145.025 22.6667C145.025 23.7333 145.38 24.6222 146.091 25.3333C146.802 26.0148 147.721 26.3556 148.847 26.3556C149.973 26.3556 150.876 26.0148 151.558 25.3333C152.269 24.6222 152.625 23.7333 152.625 22.6667C152.625 21.6296 152.269 20.7704 151.558 20.0889C150.876 19.3778 149.973 19.0222 148.847 19.0222ZM152.358 33.6444C156.15 33.6444 158.95 33.2296 160.758 32.4V38.4889C158.95 39.3185 156.121 39.7333 152.269 39.7333H151.958V47.5111H145.558V39.7333H137.558V33.6444H152.358ZM172.487 20.9778V15.6889H180.264V12.7556H186.842V15.6889H194.664V20.9778H172.487ZM207.064 27.8667H203.242V38.8444H196.842V13.3778H203.242V21.2889H207.064V27.8667ZM183.598 36C180.753 36 178.368 35.3926 176.442 34.1778C174.546 32.9333 173.598 31.2 173.598 28.9778C173.598 26.7259 174.546 24.9926 176.442 23.7778C178.368 22.5333 180.753 21.9111 183.598 21.9111C186.442 21.9111 188.812 22.5333 190.709 23.7778C192.605 25.0222 193.553 26.7556 193.553 28.9778C193.553 31.2 192.605 32.9333 190.709 34.1778C188.812 35.3926 186.442 36 183.598 36ZM183.598 26.8C182.442 26.8 181.509 27.0074 180.798 27.4222C180.087 27.837 179.731 28.3556 179.731 28.9778C179.731 29.6 180.087 30.1185 180.798 30.5333C181.509 30.9185 182.442 31.1111 183.598 31.1111C184.724 31.1111 185.642 30.9185 186.353 30.5333C187.064 30.1185 187.42 29.6 187.42 28.9778C187.42 28.3556 187.064 27.837 186.353 27.4222C185.642 27.0074 184.724 26.8 183.598 26.8ZM203.731 41.6444V47.5111H174.575V37.0222H181.109V41.6444H203.731ZM248.382 47.5111H241.938V45.4222H233.671V39.6889H241.938V13.3778H248.382V47.5111ZM228.249 30.6667C226.293 30.6667 224.56 30.3259 223.049 29.6444C221.538 28.9333 220.352 27.9407 219.493 26.6667C218.664 25.363 218.249 23.8815 218.249 22.2222C218.249 20.5333 218.664 19.0519 219.493 17.7778C220.352 16.5037 221.538 15.5259 223.049 14.8444C224.56 14.1333 226.293 13.7778 228.249 13.7778C230.204 13.7778 231.923 14.1333 233.404 14.8444C234.915 15.5259 236.086 16.5037 236.915 17.7778C237.775 19.0519 238.204 20.5333 238.204 22.2222C238.204 23.8815 237.775 25.363 236.915 26.6667C236.086 27.9407 234.915 28.9333 233.404 29.6444C231.893 30.3259 230.175 30.6667 228.249 30.6667ZM228.249 19.0667C227.064 19.0667 226.115 19.363 225.404 19.9556C224.693 20.5185 224.338 21.2741 224.338 22.2222C224.338 23.1704 224.693 23.9259 225.404 24.4889C226.115 25.0519 227.064 25.3333 228.249 25.3333C229.404 25.3333 230.323 25.0519 231.004 24.4889C231.715 23.9259 232.071 23.1704 232.071 22.2222C232.071 21.2741 231.715 20.5185 231.004 19.9556C230.323 19.363 229.404 19.0667 228.249 19.0667ZM240.115 36.8C238.308 37.6296 235.464 38.0444 231.582 38.0444H230.871V47.5111H224.426V38.0444H216.738V32.1778H231.715C235.508 32.1778 238.308 31.763 240.115 30.9333V36.8ZM267.177 23.6889C267.029 26.2963 266.807 28.3704 266.511 29.9111L275.755 41.5111L271 45.9111L264.288 37.0667C262.955 39.8815 261.266 42.0593 259.222 43.6C257.207 45.1111 254.97 45.8815 252.511 45.9111V39.2889C254.022 39.1407 255.37 38.4 256.555 37.0667C257.77 35.7037 258.733 33.8815 259.444 31.6C260.155 29.2889 260.585 26.6519 260.733 23.6889H253.222V17.4667H260.688V13.2444H267.266V17.4667H274.377V23.6889H267.177ZM283.355 47.5111H276.911V13.3778H283.355V47.5111Z" fill="black"/>
<path d="M295.583 37.4222V29.9333H309.428V31.1778H297.161V33.1111H309.139V34.2444H297.161V36.1778H309.561V37.4222H295.583ZM310.517 40.4889H294.339V39.1333H310.517V40.4889ZM309.339 42.2222V46.7333H307.739V43.6H295.361V42.2222H309.339ZM322.692 36.4222V34.9556H325.537V32.6222H322.692V31.1556H325.537V29.6889H327.114V38.2889H325.537V36.4222H322.692ZM312.67 37.5556V30.0222H314.226V32.2222H320.27V30.0222H321.826V37.5556H312.67ZM320.27 33.6H314.226V36.2H320.27V33.6ZM327.559 46.4889H313.514V42.2889H325.537V40.5556H313.47V39.2889H327.114V43.4667H315.114V45.2444H327.559V46.4889ZM347.373 46.7556V29.6889H348.996V46.7556H347.373ZM343.662 34.3556C343.662 36.6222 343.299 38.6074 342.573 40.3111C341.847 42 340.81 43.3111 339.462 44.2444C338.129 45.1778 336.551 45.6444 334.729 45.6444V44.0444C336.225 44.0444 337.521 43.6519 338.618 42.8667C339.714 42.0815 340.551 40.9704 341.129 39.5333C341.721 38.0815 342.018 36.3778 342.018 34.4222V31.8889H334.729V30.3556H343.662V34.3556ZM351.704 32.3778V31.0889H356.327V29.2222H357.949V31.0889H362.704V32.3778H351.704ZM366.615 41.3778H365.015V29.6889H366.615V41.3778ZM363.571 40.2889C362.578 40.7333 360.697 40.9556 357.927 40.9556H351.527V39.6444H356.349V38.3111C355.149 38.2222 354.201 37.9556 353.504 37.5111C352.823 37.0519 352.482 36.4741 352.482 35.7778C352.482 34.9926 352.904 34.3704 353.749 33.9111C354.593 33.4519 355.734 33.2222 357.171 33.2222C358.608 33.2222 359.749 33.4519 360.593 33.9111C361.452 34.3704 361.882 34.9926 361.882 35.7778C361.882 36.4741 361.527 37.0519 360.815 37.5111C360.119 37.9704 359.164 38.237 357.949 38.3111V39.6444C360.675 39.6444 362.549 39.4148 363.571 38.9556V40.2889ZM353.993 35.7778C353.993 36.1778 354.282 36.5037 354.86 36.7556C355.438 36.9926 356.208 37.1111 357.171 37.1111C358.134 37.1111 358.904 36.9926 359.482 36.7556C360.06 36.5037 360.349 36.1778 360.349 35.7778C360.349 35.3926 360.06 35.0741 359.482 34.8222C358.904 34.5704 358.134 34.4444 357.171 34.4444C356.208 34.4444 355.438 34.5704 354.86 34.8222C354.282 35.0741 353.993 35.3926 353.993 35.7778ZM366.615 42.3778V46.7111H365.015V43.7111H352.993V42.3778H366.615ZM382.702 29.6889H384.302V42.4H382.702V35.3111H379.369V33.8222H382.702V29.6889ZM374.813 35.8667C374.28 37.0074 373.554 37.9259 372.635 38.6222C371.717 39.3185 370.658 39.7407 369.458 39.8889V38.3333C370.865 38.1111 371.983 37.4074 372.813 36.2222C373.658 35.037 374.124 33.5111 374.213 31.6444H369.658V30.1778H380.035V31.6444H375.813C375.769 32.7111 375.628 33.637 375.391 34.4222L380.458 38.5111L379.546 39.7556L374.813 35.8667ZM384.68 46.4889H370.635V41.1778H372.258V44.9556H384.68V46.4889Z" fill="black"/>
</svg>
