<svg width="391" height="96" viewBox="0 0 391 96" fill="none" xmlns="http://www.w3.org/2000/svg">
<path d="M33.9004 60.8793L44.7595 47.765H32.0513C27.3379 47.765 22.7332 48.8134 19.3794 51.7099L18.4186 52.865V10.2344H5.49296C2.46549 10.2344 0 12.6511 0 15.6365V95.1935H12.9257C15.9531 95.1935 18.4186 92.7768 18.4186 89.7914V68.6271L28.8788 81.2262L37.78 91.9593C39.5747 94.1628 41.9314 95.1935 44.3606 95.1935H62.3804L50.7238 81.1729L33.9186 60.8793H33.9004ZM85.4581 75.3087V47.765H67.0213V78.7028C67.0213 88.4586 73.8921 95.1758 83.8447 95.1758H98.0212C101.067 95.1758 103.532 92.759 103.532 89.7736V80.16H90.3891C87.6698 80.16 85.4581 77.992 85.4581 75.3087ZM106.614 38.0447V26.0498L105.472 27.2404C105.436 27.276 101.973 30.7411 92.0388 30.7411H85.4581V10.2344H72.5324C69.4868 10.2344 67.0213 12.6511 67.0213 15.6187V30.7234H45.0858C37.6712 30.7234 34.1905 33.6732 31.5256 36.8718L20.7391 49.8974C20.7391 49.8974 25.8332 45.1705 33.3203 45.1705H92.0569C98.4926 45.1705 102.898 43.9266 105.164 41.4921C106.777 39.7506 106.632 38.0447 106.632 38.0269L106.614 38.0447Z" fill="black"/>
<path d="M106.614 38.0808V26.0859L105.472 27.2765C105.436 27.3121 101.973 30.7773 92.0389 30.7773H45.0859C37.6713 30.7773 34.1907 33.7271 31.5258 36.9257L20.7393 49.9513C20.7393 49.9513 25.8334 45.2244 33.3205 45.2244H92.0571C98.4927 45.2244 102.898 43.9805 105.164 41.546C106.777 39.8045 106.632 38.0986 106.632 38.0808H106.614Z" fill="#E61F19"/>
<path d="M169.137 10.4307V88.3706H122.094V10.4307H136.089V36.5528H155.124V10.4307H169.119H169.137ZM155.142 49.8449H136.107V74.9897H155.142V49.8449ZM194.898 54.2341V92.6532H180.794V8.35156H194.898V40.1957H205.086V54.2519H194.898V54.2341Z" fill="black"/>
<path d="M382.493 89.3646H207.679V76.0725H241.724V64.5397H212.501V31.3805H271.292V23.4728H212.392V10.625H285.414V43.6597H226.623V51.7807H286.32V64.5219H255.973V76.0547H382.529V89.3468L382.493 89.3646Z" fill="#FF0000"/>
<path d="M315.29 64.9867H358.527V72.3435H372.304V46.8789H358.527V53.5783H315.29V46.8789H301.186V72.3435H315.29V64.9867Z" fill="black"/>
<path d="M324.59 27.9873L346.652 42.47L353.94 32.0389L330.645 17.2186C332.367 12.1719 333.219 6.85858 333.219 1.29652L318.988 0.425781C318.988 5.7746 318.045 10.5903 316.196 14.9085C314.329 19.2266 311.7 22.7629 308.31 25.4995C304.92 28.2361 300.932 29.9065 296.382 30.4929V43.554C302.201 43.1097 307.531 41.5459 312.335 38.8271C317.157 36.126 321.236 32.5009 324.59 27.9518V27.9873Z" fill="black"/>
<path d="M382.493 18.0012V5.81084H372.304V0H358.182V43.6968H372.304V37.5484H382.493V25.358H372.304V18.0012H382.493Z" fill="black"/>
<path d="M379.103 94.2692V71.168L390.886 82.7186L379.103 94.2692Z" fill="#FF0000"/>
</svg>
