<svg width="693" height="108" viewBox="0 0 693 108" fill="none" xmlns="http://www.w3.org/2000/svg">
<path d="M651.93 0H40.14C18.06 0 0 19.3828 0 43.0799C0 66.7771 18.06 86.1599 40.14 86.1599H325.73L346.04 107.957L366.35 86.1599H651.94C674.02 86.1599 692.08 66.7771 692.08 43.0799C692.08 19.3828 674.02 0 651.94 0H651.93Z" fill="#01A69F"/>
<path d="M231.159 43.8V55.1333H226.359V29.5333H231.159V38.9H234.026V43.8H231.159ZM223.326 30.1333V53.9333H209.126V30.1333H213.892V37.6667H218.559V30.1333H223.326ZM218.559 42.2667H213.892V49.3H218.559V42.2667ZM259.322 54.2333H234.689V49.6333H244.589V46.7333H236.056V36.3H253.222V34.5667H236.022V30.1333H257.989V40.5333H240.856V42.3H258.256V46.7333H249.456V49.6333H259.322V54.2333ZM283.952 36.9667H286.819V41.1667H283.952V42.8H279.152V29.5333H283.952V31.0333H286.819V35.2333H283.952V36.9667ZM269.585 38.3667C268.541 39.7 267.285 40.7667 265.819 41.5667C264.374 42.3444 262.797 42.7778 261.085 42.8667V38.3667C263.019 38.1444 264.563 37.2444 265.719 35.6667C266.897 34.0667 267.508 32.0556 267.552 29.6333L272.385 29.9333C272.385 31.5333 272.141 33.1 271.652 34.6333L278.285 38.9L275.852 42.5333L269.585 38.3667ZM283.952 43.7V55.1333H262.452V43.7H267.219V45.3667H279.252V43.7H283.952ZM279.252 49.3H267.219V51.1333H279.252V49.3ZM313.215 39.5333H310.349V48.5H305.549V29.5333H310.349V34.6333H313.215V39.5333ZM288.015 44.4V29.8333H302.882V44.4H288.015ZM292.815 34.1V40.1H298.149V34.1H292.815ZM310.715 50.6V55.1333H288.849V46.1667H293.749V50.6H310.715ZM332.678 55.1333V29.5333H337.478V55.1333H332.678ZM322.345 29.7C323.834 29.7 325.167 30.0444 326.345 30.7333C327.523 31.4222 328.434 32.4 329.078 33.6667C329.745 34.9111 330.078 36.3556 330.078 38C330.078 39.6444 329.745 41.1 329.078 42.3667C328.434 43.6333 327.523 44.6111 326.345 45.3C325.167 45.9889 323.834 46.3333 322.345 46.3333C320.834 46.3333 319.489 45.9889 318.312 45.3C317.134 44.6111 316.212 43.6333 315.545 42.3667C314.878 41.1 314.545 39.6444 314.545 38C314.545 36.3556 314.878 34.9111 315.545 33.6667C316.212 32.4 317.134 31.4222 318.312 30.7333C319.489 30.0444 320.834 29.7 322.345 29.7ZM322.345 34.2333C321.389 34.2333 320.623 34.5889 320.045 35.3C319.489 36.0111 319.212 36.9111 319.212 38C319.212 39.1333 319.489 40.0556 320.045 40.7667C320.623 41.4556 321.389 41.8 322.345 41.8C323.278 41.8 324.034 41.4444 324.612 40.7333C325.189 40.0222 325.478 39.1111 325.478 38C325.478 36.9111 325.189 36.0111 324.612 35.3C324.034 34.5889 323.278 34.2333 322.345 34.2333ZM331.278 52.8667C330.545 53.2222 329.589 53.4889 328.412 53.6667C327.256 53.8444 326.045 53.9333 324.778 53.9333H313.878V49.2H324.978C326.178 49.2 327.345 49.1222 328.478 48.9667C329.612 48.7889 330.545 48.5333 331.278 48.2V52.8667ZM348.4 41.6V29.5333H370.033V32.9H353.133V34.1H369.6V37.1H353.133V38.3H370.3V41.6H348.4ZM371.5 46.6333H346.867V42.7667H371.5V46.6333ZM370.1 47.7667V55.4333H365.2V51.6333H348.2V47.7667H370.1ZM389.63 40.6333V36.4H392.196V34.9333H389.63V30.7H392.196V29.5333H396.93V42.3667H392.196V40.6333H389.63ZM373.963 41.8333V29.8333H378.596V31.9667H383.83V29.8333H388.463V41.8333H373.963ZM383.83 35.7667H378.596V37.9333H383.83V35.7667ZM397.196 55.1333H375.163V47.6333H392.196V46.6667H375.13V43.2667H396.93V50.7667H379.93V51.7667H397.196V55.1333ZM399.46 35.2333V31.2667H405.293V29.0667H410.226V31.2667H416.093V35.2333H399.46ZM425.393 40.4H422.526V48.6333H417.726V29.5333H422.526V35.4667H425.393V40.4ZM407.793 46.5C405.66 46.5 403.871 46.0444 402.426 45.1333C401.004 44.2 400.293 42.9 400.293 41.2333C400.293 39.5444 401.004 38.2444 402.426 37.3333C403.871 36.4 405.66 35.9333 407.793 35.9333C409.926 35.9333 411.704 36.4 413.126 37.3333C414.549 38.2667 415.26 39.5667 415.26 41.2333C415.26 42.9 414.549 44.2 413.126 45.1333C411.704 46.0444 409.926 46.5 407.793 46.5ZM407.793 39.6C406.926 39.6 406.226 39.7556 405.693 40.0667C405.16 40.3778 404.893 40.7667 404.893 41.2333C404.893 41.7 405.16 42.0889 405.693 42.4C406.226 42.6889 406.926 42.8333 407.793 42.8333C408.637 42.8333 409.326 42.6889 409.86 42.4C410.393 42.0889 410.66 41.7 410.66 41.2333C410.66 40.7667 410.393 40.3778 409.86 40.0667C409.326 39.7556 408.637 39.6 407.793 39.6ZM422.893 50.7333V55.1333H401.026V47.2667H405.926V50.7333H422.893ZM444.348 32.6667V37.2H432.015V32.6667H435.981V29.4333H440.781V32.6667H444.348ZM456.881 55.1333H452.581V29.5333H456.881V55.1333ZM450.981 29.6333V54.7H446.815V48.8H445.015V44.1H446.815V41.0333H445.015V36.3333H446.815V29.6333H450.981ZM438.448 38.2333C440.181 38.2333 441.581 38.9222 442.648 40.3C443.715 41.6778 444.248 43.6556 444.248 46.2333C444.248 48.8111 443.715 50.7889 442.648 52.1667C441.581 53.5444 440.181 54.2333 438.448 54.2333C436.715 54.2333 435.315 53.5556 434.248 52.2C433.181 50.8222 432.648 48.8333 432.648 46.2333C432.648 43.6333 433.181 41.6556 434.248 40.3C435.315 38.9222 436.715 38.2333 438.448 38.2333ZM438.448 49.9C438.915 49.9 439.292 49.5778 439.581 48.9333C439.87 48.2889 440.015 47.3889 440.015 46.2333C440.015 45.0778 439.87 44.1778 439.581 43.5333C439.292 42.8889 438.915 42.5667 438.448 42.5667C437.981 42.5667 437.603 42.8889 437.315 43.5333C437.026 44.1778 436.881 45.0778 436.881 46.2333C436.881 47.3889 437.026 48.2889 437.315 48.9333C437.603 49.5778 437.981 49.9 438.448 49.9ZM483.278 45.8333H478.778V39.5H476.744V45.5667H472.311V29.6333H476.744V34.8667H478.778V29.5333H483.278V45.8333ZM471.178 44.3C470.556 44.5889 469.711 44.8111 468.644 44.9667C467.578 45.1222 466.456 45.2 465.278 45.2H459.511V29.8333H470.344V33.8H463.978V35.6H470.044V39.3667H463.978V41.2333H465.544C466.633 41.2333 467.678 41.1556 468.678 41C469.678 40.8444 470.511 40.6444 471.178 40.4V44.3ZM483.278 46.7333V55.4333H478.544V50.9H460.778V46.7333H483.278Z" fill="white"/>
</svg>
