<svg width="677" height="334" viewBox="0 0 677 334" fill="none" xmlns="http://www.w3.org/2000/svg">
<path d="M662.443 0H13.7353C6.14951 0 0 6.14977 0 13.7359V320.264C0 327.85 6.14951 334 13.7353 334H662.443C670.029 334 676.178 327.85 676.178 320.264V13.7359C676.178 6.14977 670.029 0 662.443 0Z" fill="white"/>
<path d="M47.5127 150.113C48.2338 151.258 48.6 152.929 48.6 155.138C48.6 157.347 48.2338 159.03 47.5127 160.163C46.7916 161.308 45.8072 161.869 44.571 161.869C43.3348 161.869 42.3619 161.296 41.6294 160.163C40.9083 159.03 40.542 157.347 40.542 155.138C40.542 152.929 40.9083 151.247 41.6294 150.113C42.3505 148.98 43.3348 148.408 44.571 148.408C45.8072 148.408 46.7801 148.98 47.5127 150.113ZM46.7343 159.419C47.2723 158.458 47.547 157.027 47.547 155.138C47.547 153.25 47.2723 151.819 46.7343 150.857C46.1964 149.896 45.4753 149.415 44.571 149.415C43.6668 149.415 42.9457 149.896 42.3963 150.857C41.8469 151.819 41.5721 153.25 41.5721 155.138C41.5721 157.027 41.8469 158.458 42.3963 159.419C42.9457 160.381 43.6668 160.861 44.571 160.861C45.4753 160.861 46.1964 160.381 46.7343 159.419ZM52.8122 162.635H51.805V158.263H49.0579L49.138 157.256H51.805V152.963H49.138L49.0579 151.933H51.805V147.984H52.8122V162.635Z" fill="black"/>
<path d="M62.0728 157.015C61.4661 158.48 60.5848 159.614 59.4402 160.415C58.2956 161.216 56.9564 161.617 55.4111 161.617V160.587C56.7389 160.587 57.8835 160.232 58.8793 159.533C59.8637 158.835 60.6191 157.839 61.1456 156.535C61.6721 155.241 61.9354 153.719 61.9354 151.979V149.61H55.4111V148.614H62.9885V151.91C62.9885 153.845 62.6794 155.539 62.0728 157.004V157.015ZM66.4337 162.635V147.984H67.4639V162.635H66.4337Z" fill="black"/>
<path d="M74.4342 154.704L79.2415 160.884L78.4174 161.514L74.148 155.94C73.7131 157.588 73.1179 158.904 72.351 159.889C71.5841 160.873 70.6913 161.457 69.6611 161.663V160.598C70.531 160.392 71.275 159.797 71.8931 158.801C72.5112 157.805 72.992 156.523 73.3124 154.932C73.6329 153.353 73.8161 151.567 73.839 149.599H69.9473V148.603H78.7379V149.599H74.8691C74.8577 151.464 74.7089 153.17 74.4342 154.692V154.704ZM82.3434 162.636H81.3133V154.761H77.5589V153.753H81.3133V147.996H82.3434V162.647V162.636Z" fill="black"/>
<path d="M91.603 157.015C90.9964 158.48 90.115 159.614 88.9704 160.415C87.8258 161.216 86.4866 161.617 84.9414 161.617V160.587C86.2692 160.587 87.4138 160.232 88.4096 159.533C89.3939 158.835 90.1494 157.839 90.6759 156.535C91.2024 155.241 91.4657 153.719 91.4657 151.979V149.61H84.9414V148.614H92.5187V151.91C92.5187 153.845 92.2097 155.539 91.603 157.004V157.015ZM95.964 162.635V147.984H96.9942V162.635H95.964Z" fill="black"/>
<path d="M103.004 154.955V148.454H110.936V154.955H103.004ZM108.555 161.422V162.361H103.439V156.466H104.446V161.422H108.544H108.555ZM104.034 149.404V154.005H109.929V149.404H104.034ZM115.732 157.279V158.16H108.406V157.279H111.554V155.71H112.584V157.279H115.732ZM114.313 159.419C114.874 159.74 115.148 160.186 115.148 160.77C115.148 161.353 114.862 161.811 114.313 162.12C113.752 162.441 113.008 162.601 112.081 162.601C111.154 162.601 110.387 162.441 109.837 162.12C109.288 161.8 109.013 161.353 109.013 160.77C109.013 160.186 109.288 159.728 109.837 159.419C110.387 159.099 111.142 158.938 112.081 158.938C113.019 158.938 113.752 159.099 114.313 159.419ZM113.637 161.525C114.038 161.353 114.244 161.102 114.244 160.77C114.244 160.438 114.049 160.186 113.637 160.014C113.237 159.843 112.722 159.762 112.081 159.762C111.44 159.762 110.948 159.843 110.547 160.014C110.146 160.186 109.94 160.438 109.94 160.77C109.94 161.102 110.135 161.353 110.535 161.525C110.936 161.697 111.44 161.777 112.081 161.777C112.722 161.777 113.237 161.697 113.637 161.525ZM116.911 152.219H114.793V155.287H113.763V147.984H114.793V151.189H116.911V152.219Z" fill="black"/>
<path d="M124.156 149.152C124.774 149.644 125.255 150.4 125.61 151.407C125.965 152.414 126.136 153.662 126.136 155.15C126.136 156.638 125.965 157.885 125.61 158.893C125.255 159.9 124.774 160.644 124.156 161.147C123.538 161.651 122.829 161.891 122.004 161.891C120.757 161.891 119.761 161.319 119.006 160.186C118.25 159.053 117.884 157.37 117.884 155.161C117.884 152.952 118.262 151.269 119.006 150.136C119.761 149.003 120.757 148.431 122.004 148.431C122.817 148.431 123.538 148.683 124.156 149.175V149.152ZM119.75 150.869C119.177 151.83 118.891 153.261 118.891 155.138C118.891 157.015 119.177 158.446 119.75 159.408C120.322 160.369 121.077 160.861 122.004 160.861C122.932 160.861 123.664 160.38 124.225 159.408C124.786 158.446 125.072 157.015 125.072 155.138C125.072 153.261 124.786 151.83 124.225 150.869C123.664 149.907 122.92 149.415 122.004 149.415C121.089 149.415 120.322 149.896 119.75 150.869ZM128.929 162.635V147.984H129.982V162.635H128.929Z" fill="black"/>
<path d="M143.409 153.284C143.077 153.788 142.596 154.177 141.966 154.463C141.337 154.749 140.593 154.898 139.746 154.898C138.899 154.898 138.155 154.76 137.537 154.463C136.919 154.177 136.438 153.788 136.094 153.284C135.763 152.78 135.591 152.208 135.591 151.556C135.591 150.903 135.763 150.331 136.094 149.816C136.426 149.312 136.907 148.912 137.537 148.625C138.155 148.339 138.899 148.19 139.746 148.19C140.593 148.19 141.337 148.328 141.966 148.625C142.596 148.912 143.077 149.312 143.409 149.816C143.74 150.319 143.901 150.903 143.901 151.556C143.901 152.208 143.74 152.78 143.409 153.284ZM148.193 161.479V162.361H136.598V158.847H146.728V157.05H136.564V156.157H147.758V159.671H137.628V161.479H148.193ZM137.479 153.353C138.052 153.776 138.807 153.982 139.746 153.982C140.684 153.982 141.44 153.776 142.012 153.353C142.584 152.929 142.871 152.334 142.871 151.556C142.871 150.777 142.584 150.182 142.012 149.747C141.44 149.312 140.684 149.106 139.746 149.106C138.807 149.106 138.052 149.324 137.479 149.747C136.907 150.171 136.621 150.777 136.621 151.556C136.621 152.334 136.907 152.929 137.479 153.353ZM149.876 151.956H147.758V155.195H146.728V147.984H147.758V150.926H149.876V151.956Z" fill="black"/>
<path d="M157.705 150.114C158.437 151.258 158.803 152.929 158.803 155.138C158.803 157.348 158.437 159.03 157.705 160.163C156.972 161.308 155.988 161.869 154.74 161.869C153.939 161.869 153.229 161.617 152.623 161.125C152.016 160.633 151.535 159.877 151.192 158.87C150.848 157.863 150.677 156.615 150.677 155.127C150.677 153.639 150.848 152.391 151.192 151.384C151.535 150.377 152.016 149.633 152.623 149.129C153.229 148.637 153.939 148.385 154.74 148.385C155.988 148.385 156.972 148.958 157.705 150.091V150.114ZM156.949 159.419C157.499 158.458 157.785 157.027 157.785 155.15C157.785 153.273 157.51 151.842 156.949 150.881C156.4 149.919 155.667 149.427 154.752 149.427C153.836 149.427 153.103 149.908 152.542 150.881C151.993 151.842 151.718 153.273 151.718 155.15C151.718 157.027 151.993 158.458 152.542 159.419C153.092 160.381 153.824 160.873 154.752 160.873C155.679 160.873 156.4 160.392 156.949 159.419ZM162.523 155.241V162.647H161.493V147.996H162.523V154.234H164.641V155.241H162.523Z" fill="black"/>
<path d="M174.943 160.003V161.033C173.901 161.456 172.23 161.662 169.929 161.662H164.916V160.655H169.014V156.901H165.694V148.488H166.702V151.556H172.367V148.488H173.375V156.901H170.032V160.655C172.333 160.655 173.97 160.438 174.931 160.003H174.943ZM172.367 155.928V152.528H166.702V155.928H172.367ZM177.324 155.104V162.635H176.293V147.984H177.324V154.085H179.407V155.092H177.324V155.104Z" fill="black"/>
<path d="M193.485 161.834H179.67V160.826H186.023V156.683H180.677V148.613H192.501V149.621H181.707V155.687H192.661V156.683H187.076V160.826H193.485V161.834Z" fill="black"/>
<path d="M206.098 160.472C206.762 160.335 207.312 160.163 207.735 159.946V160.953C207.312 161.171 206.774 161.342 206.098 161.468C205.434 161.594 204.759 161.663 204.084 161.663H198.624V148.614H206.636V149.61H199.654V160.678H204.118C204.771 160.678 205.423 160.61 206.087 160.484L206.098 160.472ZM210.253 155.241V162.647H209.223V147.996H210.253V154.234H212.371V155.241H210.253Z" fill="black"/>
<path d="M212.635 157.426V156.51H226.45V157.426H212.635ZM225.706 161.432V162.371H213.688V158.823H214.741V161.432H225.706ZM214.752 151.955V153.992H225.603V154.874H213.734V151.119H224.401V149.139H213.734V148.258H225.386V151.955H214.741H214.752Z" fill="black"/>
<path d="M244.649 156.053H230.834V155.103H236.385V151.554H237.415V155.103H244.649V156.053ZM238.034 158.914L244.134 161.627L243.711 162.52L237.473 159.681C236.786 160.517 235.916 161.18 234.852 161.65C233.787 162.119 232.688 162.359 231.555 162.359V161.364C232.471 161.364 233.364 161.18 234.233 160.826C235.103 160.471 235.847 159.967 236.443 159.303C237.049 158.651 237.438 157.907 237.61 157.06L238.64 157.209C238.491 157.884 238.274 158.445 238.011 158.903L238.034 158.914ZM231.864 149.208V148.258H243.574V153.843H242.52V149.208H231.853H231.864Z" fill="black"/>
<path d="M245.6 156.786V155.836H259.415V156.786H245.6ZM255.546 148.316C256.473 148.556 257.206 148.9 257.744 149.369C258.282 149.838 258.568 150.399 258.568 151.074C258.568 151.75 258.293 152.322 257.744 152.803C257.194 153.283 256.462 153.638 255.546 153.867C254.619 154.107 253.612 154.222 252.502 154.222C251.391 154.222 250.384 154.107 249.457 153.867C248.53 153.627 247.797 153.272 247.248 152.803C246.698 152.322 246.424 151.75 246.424 151.074C246.424 150.399 246.698 149.827 247.248 149.369C247.797 148.9 248.53 148.556 249.457 148.316C250.373 148.075 251.391 147.961 252.502 147.961C253.612 147.961 254.619 148.075 255.546 148.316ZM258.671 161.399V162.372H246.653V158.285H247.706V161.399H258.671ZM250.052 149.14C249.285 149.312 248.679 149.563 248.209 149.895C247.74 150.227 247.511 150.616 247.511 151.074C247.511 151.761 248.003 152.299 248.976 152.688C249.949 153.077 251.128 153.272 252.513 153.272C253.898 153.272 255.077 153.077 256.038 152.688C257 152.299 257.492 151.761 257.492 151.074C257.492 150.616 257.263 150.227 256.805 149.895C256.347 149.563 255.741 149.312 254.974 149.14C254.207 148.968 253.394 148.888 252.513 148.888C251.632 148.888 250.819 148.968 250.052 149.14Z" fill="black"/>
<path d="M271.948 148.614V152.563C271.948 154.417 271.627 156.031 270.986 157.393C270.345 158.755 269.452 159.797 268.308 160.518C267.163 161.239 265.858 161.606 264.382 161.606V160.598C266.007 160.598 267.381 160.118 268.48 159.156C269.578 158.195 270.322 156.832 270.677 155.058H264.382V154.063H270.826C270.872 153.753 270.906 153.273 270.906 152.597V149.599H264.382V148.603H271.959L271.948 148.614ZM276.183 155.241V162.647H275.153V147.996H276.183V154.234H278.3V155.241H276.183Z" fill="black"/>
<path d="M278.563 161.834V160.826H292.379V161.834H278.563ZM280.601 149.632V156.042H291.555V157.049H279.571V148.613H291.395V149.621H280.601V149.632Z" fill="black"/>
<path d="M304.547 155.07L307.237 161.136L306.378 161.571L304.284 156.672C304.02 158.137 303.643 159.282 303.15 160.106C302.658 160.93 302.04 161.457 301.296 161.674L299.694 156.901C299.396 158.286 299.018 159.374 298.526 160.163C298.046 160.953 297.439 161.457 296.718 161.674V160.587C297.645 160.221 298.309 158.939 298.721 156.741C299.133 154.543 299.327 151.762 299.327 148.397L300.323 148.42C300.3 151.167 300.186 153.387 299.98 155.081L301.777 160.266C302.544 159.591 303.093 158.206 303.425 156.111C303.757 154.017 303.929 151.441 303.929 148.408L304.925 148.431C304.902 151.075 304.776 153.296 304.558 155.093L304.547 155.07ZM309.732 162.636H308.725V154.704H306.344V153.696H308.725V147.996H309.732V162.647V162.636Z" fill="black"/>
<path d="M319.094 150.114C319.827 151.258 320.193 152.929 320.193 155.138C320.193 157.348 319.827 159.03 319.094 160.163C318.362 161.308 317.377 161.869 316.13 161.869C315.329 161.869 314.619 161.617 314.012 161.125C313.406 160.633 312.925 159.877 312.581 158.87C312.238 157.863 312.066 156.615 312.066 155.127C312.066 153.639 312.238 152.391 312.581 151.384C312.925 150.377 313.406 149.633 314.012 149.129C314.619 148.637 315.329 148.385 316.13 148.385C317.377 148.385 318.362 148.958 319.094 150.091V150.114ZM318.327 159.419C318.877 158.458 319.163 157.027 319.163 155.15C319.163 153.273 318.888 151.842 318.327 150.881C317.778 149.919 317.045 149.427 316.13 149.427C315.214 149.427 314.482 149.908 313.921 150.881C313.371 151.842 313.097 153.273 313.097 155.15C313.097 157.027 313.371 158.458 313.921 159.419C314.47 160.381 315.203 160.873 316.13 160.873C317.057 160.873 317.778 160.392 318.327 159.419ZM323.913 156.844H326.031V157.84H323.913V162.647H322.883V147.996H323.913V151.888H326.031V152.884H323.913V156.855V156.844Z" fill="black"/>
<path d="M329.728 150.523V149.584H333.905V147.719H334.958V149.584H339.159V150.523H329.739H329.728ZM331.525 156.727C330.769 156.189 330.391 155.456 330.391 154.529C330.391 153.602 330.769 152.892 331.513 152.354C332.269 151.816 333.241 151.553 334.432 151.553C335.622 151.553 336.584 151.816 337.339 152.354C338.095 152.892 338.472 153.613 338.472 154.529C338.472 155.445 338.095 156.189 337.339 156.727C336.584 157.265 335.611 157.54 334.432 157.54C333.253 157.54 332.28 157.265 331.525 156.727ZM342.581 161.374V162.347H330.769V158.593H331.799V161.374H342.581ZM332.223 153.03C331.673 153.419 331.387 153.911 331.387 154.529C331.387 155.147 331.662 155.662 332.223 156.052C332.772 156.441 333.516 156.647 334.443 156.647C335.37 156.647 336.114 156.452 336.652 156.052C337.202 155.662 337.477 155.147 337.477 154.529C337.477 153.911 337.202 153.407 336.652 153.018C336.103 152.629 335.37 152.446 334.443 152.446C333.516 152.446 332.772 152.641 332.223 153.03ZM344.23 153.327H342.112V158.993H341.082V147.982H342.112V152.297H344.23V153.327Z" fill="black"/>
<path d="M352.723 160.472C353.387 160.335 353.937 160.163 354.349 159.946V160.953C353.925 161.171 353.387 161.342 352.723 161.468C352.059 161.594 351.384 161.663 350.709 161.663H345.249V148.614H353.261V149.61H346.279V160.678H350.743C351.396 160.678 352.048 160.61 352.723 160.484V160.472ZM356.878 155.241V162.647H355.848V147.996H356.878V154.234H358.996V155.241H356.878Z" fill="black"/>
<path d="M361.136 160.631C361.297 160.791 361.377 160.997 361.377 161.226C361.377 161.352 361.365 161.489 361.331 161.638C361.297 161.787 361.251 161.947 361.194 162.13L360.45 164.729H359.729L360.358 162.039C360.163 161.993 360.015 161.89 359.9 161.753C359.786 161.615 359.729 161.444 359.729 161.238C359.729 160.997 359.809 160.791 359.957 160.631C360.106 160.471 360.312 160.391 360.553 160.391C360.793 160.391 360.999 160.471 361.159 160.642L361.136 160.631Z" fill="black"/>
<path d="M377.584 158.158C378.603 158.548 379.118 159.177 379.118 160.024C379.118 160.94 378.557 161.604 377.436 162.004C376.314 162.405 374.872 162.6 373.109 162.6C371.346 162.6 369.916 162.405 368.794 162.004C367.672 161.604 367.1 160.951 367.1 160.024C367.1 159.177 367.615 158.548 368.634 158.158C369.652 157.769 370.98 157.552 372.594 157.506V155.755H366.207V154.816H380.022V155.755H373.636V157.506C375.249 157.54 376.566 157.758 377.596 158.158H377.584ZM370.293 152.905C369.229 153.259 368.119 153.454 366.962 153.5V152.561C367.855 152.538 368.725 152.39 369.595 152.126C370.465 151.863 371.186 151.474 371.793 150.97C372.388 150.467 372.743 149.871 372.857 149.185H367.226V148.246H378.981V149.185H373.922C373.853 149.746 373.716 150.203 373.487 150.581L379.382 152.664L379.061 153.557L372.846 151.382C372.205 152.046 371.358 152.55 370.293 152.905ZM376.6 158.788C375.661 158.536 374.494 158.41 373.109 158.41C371.724 158.41 370.557 158.536 369.607 158.788C368.656 159.04 368.187 159.44 368.187 160.013C368.187 160.585 368.668 161.02 369.629 161.283C370.591 161.546 371.747 161.672 373.109 161.672C374.471 161.672 375.627 161.546 376.577 161.283C377.527 161.02 378.008 160.596 378.008 160.013C378.008 159.429 377.539 159.028 376.6 158.788Z" fill="black"/>
<path d="M394.776 161.833H380.961V160.826H386.478V153.844H387.531V160.826H394.776V161.833ZM381.888 149.609V148.602H393.769V158.274H392.716V149.609H381.877H381.888Z" fill="black"/>
<path d="M409.29 159.476V162.99H408.26V159.476H403.853V162.99H402.823V159.476H399.16V158.503H412.976V159.476H409.29ZM399.698 150.719V149.746H405.513V147.629H406.566V149.746H412.426V150.719H399.698ZM401.999 152.608C403.04 152.162 404.391 151.944 406.074 151.944C407.756 151.944 409.118 152.162 410.16 152.608C411.201 153.054 411.728 153.718 411.728 154.588C411.728 155.458 411.201 156.122 410.16 156.568C409.118 157.015 407.756 157.232 406.074 157.232C404.391 157.232 403.04 157.015 401.999 156.568C400.957 156.122 400.442 155.458 400.442 154.588C400.442 153.718 400.957 153.054 401.999 152.608ZM409.382 153.295C408.535 152.997 407.436 152.86 406.074 152.86C404.711 152.86 403.59 153.009 402.754 153.295C401.919 153.592 401.495 154.016 401.495 154.588C401.495 155.16 401.919 155.595 402.754 155.87C403.59 156.156 404.7 156.305 406.074 156.305C407.447 156.305 408.557 156.168 409.393 155.87C410.229 155.584 410.652 155.16 410.652 154.588C410.652 154.016 410.229 153.581 409.382 153.295Z" fill="black"/>
<path d="M419.534 160.53C420.095 160.427 420.61 160.278 421.045 160.095V161.068C420.621 161.251 420.118 161.388 419.511 161.502C418.904 161.617 418.286 161.663 417.657 161.663H414.475V148.614H420.461V149.587H415.459V160.69H417.805C418.389 160.69 418.961 160.633 419.534 160.53ZM427.088 162.636H426.081V155.161H423.242V162.395H422.247V148.088H423.242V154.177H426.081V147.996H427.088V162.647V162.636Z" fill="black"/>
<path d="M431.724 155.504C430.946 156.123 430.03 156.523 428.988 156.683V155.676C430.282 155.447 431.312 154.795 432.056 153.707C432.8 152.62 433.2 151.189 433.258 149.427H429.16V148.477H438.065V149.427H434.288C434.253 150.468 434.128 151.35 433.91 152.082L438.374 155.768L437.779 156.592L433.544 153.044C433.109 154.074 432.502 154.898 431.724 155.527V155.504ZM441.957 162.349H430.053V157.92H431.083V161.353H441.957V162.349ZM440.56 147.984H441.59V158.893H440.56V152.597H437.436V151.624H440.56V147.984Z" fill="black"/>
<path d="M443.399 150.892V149.919H447.612V147.824H448.665V149.919H452.877V150.892H443.399ZM453.495 160.003V161.033C453.048 161.239 452.385 161.388 451.515 161.502C450.645 161.617 449.626 161.663 448.481 161.663H443.468V160.69H447.646V158C446.581 157.931 445.746 157.634 445.151 157.107C444.555 156.569 444.258 155.882 444.258 155.047C444.258 154.131 444.601 153.398 445.299 152.849C445.998 152.3 446.959 152.013 448.195 152.013C449.432 152.013 450.382 152.288 451.08 152.849C451.778 153.398 452.133 154.131 452.133 155.047C452.133 155.882 451.835 156.58 451.229 157.118C450.622 157.656 449.786 157.965 448.699 158.023V160.69C451.011 160.667 452.625 160.438 453.529 160.003H453.495ZM445.986 156.535C446.49 156.924 447.222 157.13 448.172 157.13C449.122 157.13 449.855 156.935 450.359 156.535C450.862 156.146 451.114 155.642 451.114 155.047C451.114 154.452 450.862 153.936 450.359 153.536C449.855 153.147 449.134 152.941 448.172 152.941C447.211 152.941 446.49 153.135 445.986 153.536C445.483 153.925 445.231 154.429 445.231 155.047C445.231 155.665 445.483 156.146 445.986 156.535ZM455.876 155.104V162.635H454.846V147.984H455.876V154.085H457.959V155.093H455.876V155.104Z" fill="black"/>
<path d="M465.605 157.015C464.998 158.48 464.117 159.614 462.972 160.415C461.828 161.216 460.488 161.617 458.943 161.617V160.587C460.271 160.587 461.415 160.232 462.4 159.533C463.384 158.835 464.14 157.839 464.666 156.535C465.193 155.241 465.456 153.719 465.456 151.979V149.61H458.932V148.614H466.509V151.91C466.509 153.845 466.2 155.539 465.593 157.004L465.605 157.015ZM469.977 162.635V147.984H471.007V162.635H469.977Z" fill="black"/>
<path d="M473.583 156.386V148.293H474.59V151.189H480.508V148.293H481.515V156.386H473.583ZM485.853 161.365V162.361H474.041V157.874H475.071V161.365H485.853ZM480.508 152.151H474.59V155.413H480.508V152.151ZM487.49 152.838H485.372V158.881H484.342V147.984H485.372V151.796H487.49V152.826V152.838Z" fill="black"/>
<path d="M495.868 154.589C494.975 154.715 493.968 154.783 492.835 154.783H488.348V148.351H489.378V153.81H492.903C494.025 153.81 495.009 153.742 495.879 153.616C496.749 153.49 497.413 153.307 497.905 153.066V154.062C497.436 154.291 496.749 154.474 495.868 154.6V154.589ZM500.137 156.157V162.361H488.805V156.157H489.836V158.24H499.107V156.157H500.137ZM499.107 159.167H489.836V161.422H499.107V159.167ZM500.137 151.819V155.447H499.107V147.984H500.137V150.789H502.255V151.819H500.137Z" fill="black"/>
<path d="M513.095 150.502V151.498H505.678V150.502H508.86V147.961H509.89V150.502H513.095ZM511.092 153.455C511.572 153.81 511.95 154.314 512.213 154.989C512.477 155.664 512.614 156.465 512.614 157.393C512.614 158.32 512.477 159.121 512.213 159.785C511.95 160.449 511.572 160.964 511.092 161.307C510.611 161.662 510.062 161.834 509.455 161.834C508.516 161.834 507.761 161.444 507.189 160.655C506.616 159.865 506.33 158.778 506.33 157.381C506.33 155.985 506.616 154.886 507.189 154.096C507.761 153.306 508.516 152.917 509.455 152.917C510.062 152.917 510.611 153.089 511.092 153.444V153.455ZM511.012 159.934C511.424 159.315 511.618 158.468 511.618 157.381C511.618 156.294 511.412 155.447 511.012 154.829C510.6 154.211 510.084 153.89 509.443 153.89C508.802 153.89 508.287 154.199 507.887 154.829C507.486 155.447 507.28 156.305 507.28 157.381C507.28 158.457 507.486 159.315 507.887 159.934C508.287 160.552 508.802 160.861 509.443 160.861C510.084 160.861 510.6 160.552 511.012 159.934ZM519.115 162.635H518.12V155.161H515.315V162.394H514.342V148.087H515.315V154.176H518.12V147.995H519.115V162.646V162.635Z" fill="black"/>
<path d="M528.284 150.114C529.016 151.258 529.383 152.929 529.383 155.138C529.383 157.348 529.016 159.03 528.284 160.163C527.551 161.308 526.567 161.869 525.319 161.869C524.518 161.869 523.808 161.617 523.202 161.125C522.595 160.633 522.114 159.877 521.771 158.87C521.428 157.863 521.256 156.615 521.256 155.127C521.256 153.639 521.428 152.391 521.771 151.384C522.114 150.377 522.595 149.633 523.202 149.129C523.808 148.637 524.518 148.385 525.319 148.385C526.567 148.385 527.551 148.958 528.284 150.091V150.114ZM527.517 159.419C528.066 158.458 528.341 157.027 528.341 155.15C528.341 153.273 528.066 151.842 527.517 150.881C526.967 149.919 526.235 149.427 525.308 149.427C524.381 149.427 523.66 149.908 523.11 150.881C522.561 151.842 522.275 153.273 522.275 155.15C522.275 157.027 522.549 158.458 523.11 159.419C523.66 160.381 524.392 160.873 525.308 160.873C526.223 160.873 526.956 160.392 527.517 159.419ZM533.103 156.844H535.22V157.84H533.103V162.647H532.072V147.996H533.103V151.888H535.22V152.884H533.103V156.855V156.844Z" fill="black"/>
<path d="M538.917 150.523V149.584H543.095V147.719H544.148V149.584H548.349V150.523H538.928H538.917ZM540.725 156.727C539.97 156.189 539.592 155.456 539.592 154.529C539.592 153.602 539.97 152.892 540.714 152.354C541.469 151.816 542.442 151.553 543.633 151.553C544.823 151.553 545.785 151.816 546.54 152.354C547.296 152.892 547.673 153.613 547.673 154.529C547.673 155.445 547.296 156.189 546.54 156.727C545.785 157.265 544.812 157.54 543.633 157.54C542.454 157.54 541.481 157.265 540.725 156.727ZM551.782 161.374V162.347H539.97V158.593H541V161.374H551.782ZM541.412 153.03C540.863 153.419 540.577 153.911 540.577 154.529C540.577 155.147 540.851 155.662 541.412 156.052C541.962 156.441 542.706 156.647 543.633 156.647C544.56 156.647 545.304 156.452 545.842 156.052C546.391 155.662 546.666 155.147 546.666 154.529C546.666 153.911 546.391 153.407 545.842 153.018C545.292 152.641 544.56 152.446 543.633 152.446C542.706 152.446 541.962 152.641 541.412 153.03ZM553.419 153.327H551.302V158.993H550.272V147.982H551.302V152.297H553.419V153.327Z" fill="black"/>
<path d="M561.912 160.472C562.576 160.335 563.125 160.163 563.537 159.946V160.953C563.114 161.171 562.576 161.342 561.912 161.468C561.248 161.594 560.573 161.663 559.897 161.663H554.438V148.614H562.45V149.61H555.468V160.678H559.932C560.584 160.678 561.236 160.61 561.912 160.484V160.472ZM566.067 155.241V162.647H565.037V147.996H566.067V154.234H568.184V155.241H566.067Z" fill="black"/>
<path d="M582.264 161.833H568.448V160.826H573.965V153.844H575.018V160.826H582.264V161.833ZM569.364 149.609V148.602H581.245V158.274H580.192V149.609H569.352H569.364Z" fill="black"/>
<path d="M595.999 150.525V151.52H586.979V150.525H590.963V147.949H592.016V150.525H595.999ZM593.412 153.523C593.996 153.89 594.442 154.416 594.774 155.092C595.106 155.767 595.266 156.545 595.266 157.415C595.266 158.285 595.106 159.063 594.774 159.739C594.442 160.403 593.985 160.929 593.412 161.295C592.84 161.662 592.187 161.845 591.478 161.845C590.768 161.845 590.127 161.662 589.555 161.295C588.983 160.929 588.536 160.403 588.204 159.739C587.872 159.075 587.712 158.296 587.712 157.415C587.712 156.534 587.872 155.767 588.204 155.092C588.536 154.416 588.983 153.901 589.555 153.523C590.127 153.146 590.768 152.974 591.478 152.974C592.187 152.974 592.84 153.157 593.412 153.523ZM592.863 160.437C593.286 160.151 593.618 159.75 593.87 159.224C594.122 158.697 594.236 158.102 594.236 157.415C594.236 156.728 594.11 156.122 593.87 155.595C593.618 155.069 593.286 154.657 592.863 154.37C592.439 154.084 591.981 153.936 591.466 153.936C590.951 153.936 590.493 154.073 590.07 154.37C589.646 154.657 589.315 155.069 589.063 155.595C588.811 156.122 588.685 156.728 588.685 157.415C588.685 158.102 588.811 158.709 589.063 159.224C589.315 159.75 589.646 160.151 590.07 160.437C590.493 160.723 590.951 160.872 591.466 160.872C591.981 160.872 592.439 160.735 592.863 160.437ZM599.032 155.24V162.646H598.002V147.995H599.032V154.233H601.15V155.24H599.032Z" fill="black"/>
<path d="M601.413 156.513V155.563H615.229V156.513H601.413ZM614.485 161.4V162.373H602.466V158.104H603.519V161.4H614.485ZM614.313 152.564V153.537H602.5V148.02H603.531V152.564H614.313Z" fill="black"/>
<path d="M621.947 160.506C622.508 160.381 623.023 160.22 623.469 160.014V160.987C623.046 161.205 622.542 161.376 621.936 161.491C621.329 161.605 620.711 161.674 620.081 161.674H616.728V148.625H622.874V149.598H617.723V160.701H620.242C620.825 160.701 621.398 160.632 621.97 160.506H621.947ZM626.045 148.087V162.395H625.037V155.161H621.066V154.154H625.037V148.087H626.045ZM629.341 162.635H628.334V147.984H629.341V162.635Z" fill="black"/>
<path d="M47.5127 177.129C48.2338 178.262 48.6 179.945 48.6 182.154C48.6 184.363 48.2338 186.045 47.5127 187.179C46.7916 188.312 45.8072 188.884 44.571 188.884C43.3348 188.884 42.3619 188.312 41.6294 187.179C40.9083 186.045 40.542 184.363 40.542 182.154C40.542 179.945 40.9083 178.262 41.6294 177.129C42.3505 175.984 43.3348 175.424 44.571 175.424C45.8072 175.424 46.7801 175.996 47.5127 177.129ZM46.7343 186.435C47.2723 185.473 47.547 184.042 47.547 182.154C47.547 180.265 47.2723 178.834 46.7343 177.873C46.1964 176.911 45.4753 176.431 44.571 176.431C43.6668 176.431 42.9457 176.911 42.3963 177.873C41.8469 178.834 41.5721 180.265 41.5721 182.154C41.5721 184.042 41.8469 185.473 42.3963 186.435C42.9457 187.396 43.6668 187.877 44.571 187.877C45.4753 187.877 46.1964 187.396 46.7343 186.435ZM52.8122 189.651H51.805V185.279H49.0579L49.138 184.271H51.805V179.979H49.138L49.0579 178.949H51.805V175H52.8122V189.651Z" fill="black"/>
<path d="M62.0728 184.031C61.4661 185.496 60.5848 186.629 59.4402 187.43C58.2956 188.232 56.9564 188.632 55.4111 188.632V187.602C56.7389 187.602 57.8835 187.247 58.8793 186.549C59.8637 185.851 60.6191 184.855 61.1456 183.55C61.6721 182.257 61.9354 180.734 61.9354 178.995V176.625H55.4111V175.63H62.9885V178.926C62.9885 180.86 62.6794 182.554 62.0728 184.02V184.031ZM66.4337 189.651V175H67.4639V189.651H66.4337Z" fill="black"/>
<path d="M69.4551 183.524V182.574H83.2705V183.524H69.4551ZM82.5151 188.412V189.385H70.4967V185.115H71.5497V188.412H82.5151ZM82.3434 179.575V180.548H70.531V175.031H71.5612V179.575H82.3434Z" fill="black"/>
<path d="M91.3404 179.266C90.9855 179.998 90.5162 180.571 89.921 180.971C89.3258 181.383 88.6505 181.589 87.918 181.601V180.651C88.4674 180.639 88.9596 180.479 89.4174 180.181C89.8638 179.884 90.2301 179.449 90.4933 178.888C90.7566 178.327 90.894 177.652 90.894 176.896V176.381H87.918V175.466H91.8669V176.759C91.8669 177.698 91.6952 178.533 91.3404 179.266ZM100.543 188.468V189.361H88.7192V185.847H99.0779V184.05H88.6849V183.157H100.131V186.683H89.7722V188.457H100.554L100.543 188.468ZM92.6109 176.37V175.454H96.8459V176.862C96.8459 177.915 96.6399 178.819 96.2278 179.586C95.8158 180.342 95.2778 180.914 94.6139 181.303C93.9501 181.692 93.2519 181.887 92.4964 181.91V180.971C93.0458 180.96 93.5723 180.811 94.076 180.525C94.5911 180.239 95.0031 179.804 95.335 179.209C95.667 178.613 95.8272 177.881 95.8272 177.011V176.381H92.5994L92.6109 176.37ZM102.145 178.934H100.12V182.219H99.0894V175.008H100.12V177.949H102.145V178.945V178.934Z" fill="black"/>
<path d="M102.42 182.198V181.248H116.235V182.198H102.42ZM107.639 180.115V176.223H103.313V175.273H108.669V180.115H107.639ZM103.439 189.386V184.007H115.205V189.386H103.439ZM114.187 184.945H104.457V188.459H114.187V184.945ZM114.164 180.115V176.223H109.585V175.273H115.171V180.115H114.164Z" fill="black"/>
<path d="M126.525 177.54V178.536H117.506V177.54H121.489V174.965H122.542V177.54H126.525ZM123.939 180.539C124.522 180.905 124.969 181.432 125.301 182.107C125.633 182.783 125.793 183.561 125.793 184.431C125.793 185.301 125.633 186.079 125.301 186.743C124.969 187.407 124.511 187.933 123.939 188.3C123.355 188.666 122.714 188.849 122.004 188.849C121.295 188.849 120.654 188.666 120.081 188.3C119.509 187.933 119.063 187.418 118.731 186.743C118.399 186.079 118.238 185.301 118.238 184.431C118.238 183.561 118.399 182.783 118.731 182.107C119.063 181.432 119.509 180.917 120.081 180.539C120.654 180.161 121.295 179.99 122.004 179.99C122.714 179.99 123.366 180.173 123.939 180.539ZM123.401 187.453C123.824 187.166 124.156 186.766 124.408 186.239C124.66 185.713 124.786 185.118 124.786 184.431C124.786 183.744 124.66 183.137 124.408 182.611C124.156 182.084 123.824 181.672 123.401 181.386C122.977 181.1 122.519 180.951 122.004 180.951C121.489 180.951 121.031 181.089 120.608 181.386C120.184 181.672 119.852 182.084 119.6 182.611C119.349 183.137 119.234 183.744 119.234 184.431C119.234 185.118 119.36 185.724 119.6 186.239C119.852 186.766 120.184 187.166 120.608 187.453C121.031 187.739 121.489 187.887 122.004 187.887C122.519 187.887 122.977 187.75 123.401 187.453ZM129.559 182.256V189.662H128.528V175.011H129.559V181.249H131.676V182.256H129.559Z" fill="black"/>
<path d="M141.692 175.103V189.411H140.684V182.2H137.766C137.434 184.157 136.793 185.725 135.854 186.881C134.904 188.049 133.737 188.632 132.352 188.632V187.625C133.279 187.614 134.091 187.259 134.79 186.561C135.488 185.862 136.026 184.889 136.403 183.665C136.781 182.429 136.964 181.021 136.964 179.43V176.648H132.352V175.652H137.983V179.372C137.983 180.094 137.949 180.712 137.891 181.204H140.696V175.114H141.703L141.692 175.103ZM145.114 189.651H144.107V175H145.114V189.651Z" fill="black"/>
<path d="M153 180.963C152.245 181.444 151.364 181.765 150.356 181.925V180.952C151.604 180.734 152.6 180.242 153.332 179.453C154.065 178.674 154.5 177.655 154.614 176.408H150.528V175.469H159.422V176.408H155.622C155.587 177.129 155.45 177.747 155.221 178.262L159.914 180.918L159.399 181.753L154.798 179.121C154.351 179.876 153.756 180.483 153 180.963ZM162.959 188.495V189.376H151.203V185.862H161.471V184.065H151.169V183.173H162.524V186.686H152.257V188.495H162.959ZM164.641 178.686H162.524V182.211H161.493V175H162.524V177.667H164.641V178.674V178.686Z" fill="black"/>
<path d="M171.073 180.998C170.307 181.536 169.425 181.902 168.418 182.108V181.112C169.334 180.906 170.123 180.517 170.799 179.945C171.474 179.372 171.966 178.663 172.321 177.839C172.664 177.015 172.848 176.133 172.859 175.183L173.866 175.24C173.866 176.271 173.706 177.232 173.374 178.125L177.838 181.124L177.289 181.948L172.905 178.995C172.458 179.807 171.852 180.483 171.096 181.021L171.073 180.998ZM181.661 189.365H169.757V185.897H180.207V184.157H169.711V183.276H181.238V186.732H170.787V188.484H181.661V189.365ZM176.43 178.48V177.484H180.207V175H181.238V182.325H180.207V178.468H176.43V178.48Z" fill="black"/>
<path d="M183.79 182.142V175.469H191.379V182.142H183.79ZM194.515 184.443C195.58 184.924 196.117 185.668 196.117 186.652C196.117 187.636 195.58 188.38 194.515 188.85C193.451 189.331 192.031 189.559 190.257 189.559C188.483 189.559 187.098 189.319 186.033 188.85C184.969 188.38 184.442 187.636 184.442 186.652C184.442 185.668 184.969 184.924 186.033 184.443C187.098 183.962 188.506 183.722 190.257 183.722C192.008 183.722 193.439 183.962 194.515 184.443ZM184.809 176.419V181.169H190.36V176.419H184.809ZM193.702 188.117C194.584 187.785 195.03 187.293 195.03 186.664C195.03 186.034 194.584 185.519 193.702 185.187C192.821 184.855 191.665 184.683 190.257 184.683C188.849 184.683 187.705 184.855 186.823 185.187C185.942 185.519 185.507 186.011 185.507 186.664C185.507 187.316 185.942 187.785 186.823 188.117C187.705 188.449 188.849 188.621 190.257 188.621C191.665 188.621 192.821 188.449 193.702 188.117ZM192.283 180.998V180.002H194.996V177.518H192.283V176.545H194.996V175H196.003V183.104H194.996V180.986H192.283V180.998Z" fill="black"/>
<path d="M205.011 177.518V178.513H197.594V177.518H200.776V174.977H201.806V177.518H205.011ZM203.008 180.471C203.488 180.814 203.866 181.329 204.129 182.004C204.393 182.68 204.53 183.481 204.53 184.408C204.53 185.335 204.393 186.137 204.129 186.8C203.866 187.464 203.488 187.979 203.008 188.323C202.527 188.666 201.978 188.849 201.371 188.849C200.432 188.849 199.677 188.46 199.105 187.67C198.532 186.892 198.246 185.805 198.246 184.397C198.246 182.989 198.532 181.901 199.105 181.112C199.677 180.322 200.432 179.933 201.371 179.933C201.978 179.933 202.527 180.104 203.008 180.459V180.471ZM202.928 186.949C203.34 186.331 203.534 185.484 203.534 184.408C203.534 183.332 203.328 182.474 202.928 181.856C202.516 181.238 202 180.917 201.36 180.917C200.719 180.917 200.203 181.226 199.803 181.856C199.402 182.474 199.208 183.332 199.208 184.408C199.208 185.484 199.402 186.343 199.803 186.949C200.203 187.567 200.719 187.876 201.36 187.876C202 187.876 202.516 187.567 202.928 186.949ZM211.031 189.65H210.036V182.176H207.231V189.41H206.258V175.102H207.231V181.192H210.036V175.011H211.031V189.662V189.65Z" fill="black"/>
<path d="M223.474 185.473V189.994H222.421V185.473H216.068V184.466H229.884V185.473H223.474ZM220.029 181.547C218.964 182.119 217.797 182.474 216.515 182.611V181.604C218.106 181.421 219.456 180.883 220.555 179.979C221.666 179.075 222.329 177.907 222.581 176.476H216.892V175.48H229.06V176.476H223.657C223.566 177.174 223.382 177.827 223.085 178.422L229.437 181.627L228.957 182.543L222.57 179.258C221.929 180.208 221.082 180.975 220.017 181.547H220.029Z" fill="black"/>
<path d="M236.213 181.57L240.929 188.014L240.105 188.644L235.904 182.829C235.435 184.569 234.794 185.954 233.993 186.973C233.192 187.991 232.242 188.564 231.154 188.69V187.636C232.139 187.453 232.963 186.801 233.65 185.656C234.336 184.512 234.851 183.047 235.206 181.261C235.55 179.475 235.733 177.53 235.744 175.412L236.797 175.435C236.774 177.758 236.58 179.807 236.202 181.582L236.213 181.57ZM243.619 189.651H242.589V175H243.619V189.651Z" fill="black"/>
<path d="M259.415 188.849H245.6V187.842H251.117V180.86H252.17V187.842H259.415V188.849ZM246.515 176.624V175.617H258.396V185.289H257.343V176.624H246.504H246.515Z" fill="black"/>
<path d="M47.9134 202.642V205.938C47.9134 207.872 47.6158 209.566 47.0321 211.032C46.4369 212.497 45.5899 213.63 44.4796 214.431C43.3693 215.232 42.0416 215.633 40.5078 215.633V214.603C41.8356 214.603 42.9687 214.248 43.9302 213.55C44.8917 212.851 45.6242 211.844 46.1278 210.551C46.6429 209.257 46.8947 207.746 46.8947 205.995V203.626H40.5078V202.63H47.9249L47.9134 202.642ZM52.2973 209.269V216.674H51.2671V202.023H52.2973V208.262H54.4148V209.269H52.2973Z" fill="black"/>
<path d="M60.9507 208.605C59.6001 209.623 57.6772 210.138 55.1934 210.138V209.131C57.3567 209.131 59.0164 208.719 60.1953 207.884C61.3628 207.048 61.9466 205.789 61.9466 204.118V203.454H55.1934V202.481H62.9767V204.003C62.9767 206.052 62.3014 207.586 60.9393 208.605H60.9507ZM67.5208 211.729V216.594H66.4678V212.702H55.8801V211.729H67.5208ZM67.578 210.768H66.5479V208.708H63.1484V207.712H66.5479V204.988H63.6864V204.015H66.5479V202.012H67.578V210.768Z" fill="black"/>
<path d="M83.2588 215.861H69.4434V214.854H75.7959V210.71H70.4506V202.641H82.2744V203.648H71.4808V209.714H82.4347V210.71H76.849V214.854H83.2588V215.861Z" fill="black"/>
<path d="M91.603 208.525L95.0711 214.992L94.2356 215.507L91.3397 210.035C90.7331 213.332 89.5655 215.221 87.8486 215.701V214.637C88.8559 214.282 89.5999 213.137 90.1035 211.203C90.5957 209.269 90.859 206.75 90.8704 203.649H88.0432V202.653H94.5904V203.649H91.8777C91.8548 205.594 91.7632 207.22 91.6144 208.536L91.603 208.525ZM97.1429 202.115V216.422H96.1471V208.788H93.7205V207.781H96.1471V202.115H97.1429ZM100.817 216.663H99.8098V202.012H100.817V216.663Z" fill="black"/>
<path d="M109.242 202.653C109.883 202.939 110.363 203.339 110.707 203.843C111.05 204.358 111.222 204.93 111.222 205.583C111.222 206.235 111.05 206.808 110.707 207.311C110.363 207.815 109.871 208.204 109.242 208.49C108.612 208.776 107.857 208.925 106.987 208.925C106.117 208.925 105.373 208.788 104.743 208.49C104.114 208.204 103.633 207.815 103.29 207.311C102.958 206.808 102.786 206.235 102.786 205.583C102.786 204.93 102.958 204.358 103.29 203.843C103.622 203.339 104.114 202.939 104.755 202.653C105.396 202.367 106.14 202.218 106.987 202.218C107.834 202.218 108.601 202.355 109.242 202.653ZM104.686 203.774C104.102 204.198 103.805 204.805 103.805 205.583C103.805 206.361 104.102 206.956 104.686 207.38C105.27 207.803 106.037 208.009 106.998 208.009C107.96 208.009 108.738 207.803 109.333 207.38C109.928 206.956 110.215 206.361 110.215 205.583C110.215 204.805 109.917 204.209 109.333 203.774C108.738 203.351 107.96 203.133 106.998 203.133C106.037 203.133 105.27 203.351 104.686 203.774ZM104.915 213.71V215.484H115.64V216.377H103.885V212.863H114.164V211.066H103.839V210.173H115.194V213.698H104.915V213.71ZM114.164 209.223V202.012H115.194V209.223H114.164Z" fill="black"/>
<path d="M125.586 208.731L130.394 214.912L129.57 215.541L125.3 209.967C124.865 211.615 124.27 212.932 123.503 213.916C122.736 214.9 121.844 215.484 120.813 215.69V214.626C121.672 214.42 122.416 213.824 123.045 212.829C123.675 211.833 124.144 210.551 124.465 208.96C124.785 207.369 124.968 205.595 124.991 203.626H121.1V202.63H129.89V203.626H126.021C126.01 205.492 125.861 207.197 125.586 208.719V208.731ZM133.507 216.663H132.477V208.788H128.723V207.781H132.477V202.023H133.507V216.674V216.663Z" fill="black"/>
<path d="M142.229 203.374H136.025V202.481H143.236V206.636H137.078V209.039H140.249C141.371 209.039 142.367 208.982 143.248 208.879C144.129 208.776 144.793 208.616 145.228 208.433V209.325C144.793 209.52 144.129 209.669 143.225 209.783C142.321 209.898 141.291 209.955 140.135 209.955H136.071V205.754H142.229V203.374ZM148.215 211.558V216.388H136.735V211.558H148.215ZM147.185 215.449V212.496H137.742V215.449H147.185ZM148.273 210.596H147.265V207.528H144.324V206.59H147.265V204.678H144.324V203.74H147.265V202H148.273V210.585V210.596Z" fill="black"/>
<path d="M157.281 204.529V205.525H149.864V204.529H153.046V201.988H154.076V204.529H157.281ZM155.278 207.482C155.759 207.837 156.137 208.341 156.4 209.016C156.663 209.692 156.801 210.493 156.801 211.42C156.801 212.347 156.663 213.148 156.4 213.812C156.137 214.476 155.759 214.991 155.278 215.334C154.798 215.678 154.248 215.861 153.641 215.861C152.703 215.861 151.947 215.472 151.375 214.693C150.803 213.915 150.517 212.816 150.517 211.42C150.517 210.023 150.803 208.925 151.375 208.135C151.947 207.345 152.703 206.956 153.641 206.956C154.248 206.956 154.798 207.128 155.278 207.482ZM155.198 213.961C155.61 213.343 155.805 212.496 155.805 211.42C155.805 210.344 155.599 209.485 155.198 208.867C154.786 208.249 154.271 207.929 153.63 207.929C152.989 207.929 152.474 208.238 152.073 208.867C151.673 209.485 151.478 210.344 151.478 211.42C151.478 212.496 151.673 213.354 152.073 213.961C152.474 214.579 152.989 214.888 153.63 214.888C154.271 214.888 154.786 214.579 155.198 213.961ZM163.302 216.662H162.306V209.188H159.502V216.422H158.529V202.114H159.502V208.204H162.306V202.023H163.302V216.674V216.662Z" fill="black"/>
<path d="M170.043 208.021L174.565 215.118L173.74 215.747L169.757 209.36C169.322 211.26 168.716 212.748 167.926 213.847C167.136 214.946 166.197 215.553 165.099 215.702V214.637C166.049 214.454 166.85 213.801 167.491 212.668C168.132 211.524 168.613 210.07 168.922 208.284C169.231 206.499 169.391 204.553 169.414 202.424L170.467 202.447C170.444 204.53 170.307 206.396 170.043 208.033V208.021ZM177.804 216.663H176.774V208.616H172.859V207.609H176.774V202.023H177.804V216.674V216.663Z" fill="black"/>
<path d="M190.452 211.477V217.005H189.399V211.477H183.104V210.412H196.919V211.477H190.452ZM184.099 203.464V202.457H195.832V209.004H194.779V203.476H184.099V203.464Z" fill="black"/>
<path d="M204.188 202.641V215.69H198.407V202.641H204.188ZM203.18 214.705V203.637H199.38V214.705H203.18ZM211.032 216.663H210.025V209.2H207.186V216.411H206.191V202.103H207.186V208.193H210.025V202.012H211.032V216.663Z" fill="black"/>
<path d="M212.429 204.529V203.613H215.668V201.805H216.698V203.613H219.811V204.529H212.429ZM213.917 210.149C213.31 209.657 213.001 209.004 213.001 208.169C213.001 207.333 213.31 206.681 213.917 206.189C214.523 205.696 215.29 205.445 216.206 205.445C217.122 205.445 217.889 205.696 218.495 206.189C219.102 206.681 219.411 207.345 219.411 208.169C219.411 208.993 219.102 209.657 218.495 210.149C217.889 210.641 217.122 210.881 216.206 210.881C215.29 210.881 214.523 210.641 213.917 210.149ZM221.586 215.677C220.99 216.055 220.361 216.295 219.697 216.387L217.007 214.327C216.572 214.899 216.057 215.368 215.473 215.723C214.878 216.089 214.272 216.307 213.631 216.387V215.414C214.169 215.334 214.695 215.117 215.21 214.739C215.725 214.361 216.16 213.892 216.504 213.331C216.847 212.77 217.053 212.175 217.099 211.545L218.095 211.683C218.014 212.335 217.82 212.953 217.499 213.548L219.926 215.38C220.441 215.265 220.922 215.013 221.391 214.636C221.86 214.258 222.238 213.789 222.559 213.251C222.868 212.713 223.062 212.141 223.119 211.545L224.115 211.683C224.035 212.289 223.863 212.862 223.6 213.4L226.828 215.597L226.279 216.433L223.108 214.201C222.696 214.807 222.204 215.311 221.597 215.689L221.586 215.677ZM214.581 206.864C214.169 207.207 213.974 207.642 213.974 208.18C213.974 208.718 214.18 209.142 214.581 209.485C214.981 209.828 215.531 210.012 216.206 210.012C216.881 210.012 217.419 209.84 217.831 209.485C218.243 209.13 218.438 208.695 218.438 208.18C218.438 207.665 218.232 207.207 217.831 206.864C217.431 206.52 216.881 206.349 216.194 206.349C215.508 206.349 214.981 206.52 214.569 206.864H214.581ZM221.071 211.019V202.114H222.021V205.719H224.802V202.022H225.798V211.213H224.802V206.727H222.021V211.019H221.071Z" fill="black"/>
<path d="M241.215 209.612H227.399V208.696H241.215V209.612ZM231.337 206.464C230.215 206.957 229.082 207.22 227.949 207.243V206.293C228.865 206.27 229.792 206.052 230.73 205.663C231.669 205.274 232.481 204.725 233.157 204.038C233.832 203.351 234.267 202.573 234.439 201.691L235.446 201.886C235.309 202.55 235.057 203.145 234.702 203.683L240.654 206.43L240.253 207.266L234.107 204.438C233.374 205.285 232.436 205.961 231.314 206.464H231.337ZM240.162 210.928V216.4H228.452V210.928H229.483V212.668H239.155V210.928H240.162ZM239.155 213.561H229.483V215.484H239.155V213.561Z" fill="black"/>
<path d="M250.727 214.477C251.379 214.339 251.929 214.167 252.364 213.95V214.957C251.94 215.186 251.402 215.369 250.75 215.495C250.097 215.621 249.433 215.69 248.758 215.69H243.069V202.55H244.122V214.683H248.758C249.422 214.683 250.074 214.614 250.727 214.488V214.477ZM253.897 216.686V202.012H254.95V216.663L253.897 216.686Z" fill="black"/>
<path d="M265.161 214.5C265.825 214.362 266.374 214.191 266.786 213.973V214.98C266.363 215.198 265.825 215.37 265.161 215.495C264.497 215.621 263.822 215.69 263.146 215.69H257.687V202.642H265.699V203.637H258.717V214.706H263.181C263.833 214.706 264.486 214.637 265.161 214.5ZM269.316 209.269V216.674H268.286V202.023H269.316V208.262H271.433V209.269H269.316Z" fill="black"/>
<path d="M277.328 210.46C277.008 210.276 276.653 210.002 276.264 209.647C275.92 209.338 275.634 209.12 275.394 208.972C275.153 208.823 274.89 208.754 274.604 208.754C274.135 208.754 273.757 208.926 273.471 209.269C273.185 209.613 273.024 210.07 273.001 210.643H272.28C272.315 209.796 272.544 209.132 272.956 208.651C273.368 208.17 273.906 207.941 274.547 207.941C274.982 207.941 275.359 208.033 275.668 208.228C275.989 208.422 276.332 208.697 276.721 209.052C277.088 209.372 277.385 209.601 277.603 209.738C277.82 209.876 278.083 209.944 278.37 209.944C278.85 209.944 279.239 209.773 279.514 209.429C279.789 209.086 279.949 208.617 279.972 208.033H280.693C280.659 208.88 280.43 209.555 280.018 210.025C279.606 210.505 279.079 210.734 278.427 210.734C278.003 210.734 277.637 210.643 277.317 210.46H277.328Z" fill="black"/>
<path d="M283.417 215.85C283.257 215.69 283.177 215.507 283.177 215.289C283.177 215.06 283.257 214.866 283.406 214.717C283.554 214.568 283.749 214.488 284.001 214.488C284.253 214.488 284.424 214.568 284.585 214.717C284.745 214.866 284.825 215.06 284.825 215.289C284.825 215.518 284.745 215.69 284.585 215.85C284.424 216.01 284.23 216.09 284.001 216.09C283.772 216.09 283.577 216.01 283.417 215.85ZM284.596 202.664L284.401 212.164H283.6L283.406 202.664H284.585H284.596Z" fill="black"/>
<path d="M290.834 210.413V202.321H291.83V205.183H297.759V202.321H298.766V205.835H302.005V202.023H303.036V212.92H302.005V206.854H298.766V210.425H290.834V210.413ZM303.402 216.377H291.498V211.89H292.528V215.381H303.402V216.377ZM297.759 206.133H291.83V209.429H297.759V206.133Z" fill="black"/>
<path d="M307.717 209.121C306.962 209.659 306.104 210.014 305.119 210.174V209.201C306.275 208.984 307.214 208.469 307.935 207.633C308.656 206.809 309.079 205.756 309.217 204.462H305.245V203.512H309.251V201.738H310.281V203.512H314.207V204.462H310.281C310.236 205.058 310.11 205.63 309.915 206.156L314.402 209.132L313.864 209.957L309.492 207.061C309.045 207.885 308.45 208.572 307.695 209.11L307.717 209.121ZM315.936 211.925C316.989 212.349 317.515 213.024 317.515 213.94C317.515 214.856 316.989 215.531 315.936 215.954C314.883 216.378 313.475 216.595 311.724 216.595C309.972 216.595 308.576 216.378 307.511 215.954C306.447 215.531 305.92 214.856 305.92 213.94C305.92 213.024 306.447 212.349 307.511 211.925C308.576 211.502 309.972 211.284 311.724 211.284C313.475 211.284 314.883 211.502 315.936 211.925ZM315.146 215.233C316.016 214.947 316.451 214.512 316.451 213.94C316.451 213.368 316.016 212.933 315.146 212.646C314.276 212.36 313.131 212.211 311.724 212.211C310.316 212.211 309.182 212.36 308.313 212.646C307.431 212.944 306.996 213.368 306.996 213.94C306.996 214.512 307.431 214.947 308.313 215.233C309.194 215.531 310.327 215.668 311.724 215.668C313.12 215.668 314.276 215.519 315.146 215.233ZM319.404 206.58H317.286V210.735H316.256V202.013H317.286V205.538H319.404V206.569V206.58Z" fill="black"/>
<path d="M329.019 204.552V205.548H319.999V204.552H323.982V201.977H325.035V204.552H329.019ZM326.443 207.551C327.027 207.917 327.473 208.444 327.805 209.119C328.137 209.794 328.297 210.573 328.297 211.442C328.297 212.312 328.137 213.091 327.805 213.755C327.473 214.418 327.015 214.945 326.443 215.311C325.871 215.678 325.218 215.861 324.509 215.861C323.799 215.861 323.158 215.678 322.586 215.311C322.014 214.945 321.567 214.418 321.235 213.755C320.903 213.091 320.743 212.312 320.743 211.442C320.743 210.573 320.903 209.794 321.235 209.119C321.567 208.444 322.014 207.929 322.586 207.551C323.158 207.173 323.799 207.001 324.509 207.001C325.218 207.001 325.871 207.185 326.443 207.551ZM325.894 214.464C326.317 214.178 326.649 213.778 326.901 213.251C327.153 212.724 327.279 212.129 327.279 211.442C327.279 210.756 327.153 210.149 326.901 209.623C326.649 209.096 326.317 208.684 325.894 208.398C325.47 208.112 325.012 207.963 324.497 207.963C323.982 207.963 323.524 208.1 323.101 208.398C322.677 208.684 322.345 209.096 322.094 209.623C321.842 210.149 321.727 210.756 321.727 211.442C321.727 212.129 321.853 212.736 322.094 213.251C322.345 213.778 322.677 214.178 323.101 214.464C323.524 214.75 323.982 214.899 324.497 214.899C325.012 214.899 325.47 214.762 325.894 214.464ZM332.052 209.268V216.673H331.022V202.022H332.052V208.26H334.169V209.268H332.052Z" fill="black"/>
<path d="M338.542 208.559L341.999 214.946L341.163 215.484L338.267 210.104C337.97 211.707 337.535 212.966 336.939 213.87C336.344 214.774 335.577 215.392 334.639 215.69V214.602C335.829 214.133 336.665 212.886 337.122 210.86C337.58 208.834 337.832 206.018 337.855 202.412L338.851 202.435C338.851 204.839 338.748 206.876 338.542 208.559ZM344.173 202.115V216.422H343.166V208.319H340.625V207.311H343.166V202.126H344.173V202.115ZM347.607 216.663H346.6V202.012H347.607V216.663Z" fill="black"/>
<path d="M363.014 215.862H349.198V214.867H352.632V210.437C351.762 210.071 351.098 209.567 350.64 208.938C350.171 208.308 349.942 207.564 349.942 206.717C349.942 205.87 350.194 205.08 350.709 204.428C351.213 203.775 351.934 203.272 352.861 202.917C353.788 202.562 354.864 202.379 356.1 202.379C357.336 202.379 358.412 202.562 359.34 202.917C360.267 203.272 360.988 203.775 361.491 204.428C361.995 205.08 362.258 205.836 362.258 206.717C362.258 207.598 362.029 208.308 361.56 208.938C361.091 209.567 360.438 210.071 359.591 210.437V214.867H363.002V215.862H363.014ZM353.445 203.798C352.678 204.073 352.094 204.462 351.671 204.977C351.247 205.481 351.041 206.076 351.041 206.728C351.041 207.381 351.247 207.999 351.671 208.503C352.094 209.006 352.678 209.407 353.445 209.67C354.212 209.945 355.093 210.082 356.112 210.082C357.13 210.082 358.023 209.945 358.779 209.67C359.546 209.395 360.129 209.006 360.553 208.503C360.976 207.999 361.182 207.404 361.182 206.728C361.182 206.053 360.976 205.481 360.553 204.977C360.129 204.462 359.546 204.073 358.779 203.798C358.012 203.524 357.13 203.386 356.112 203.386C355.093 203.386 354.2 203.524 353.445 203.798ZM358.573 214.878V210.792C357.851 210.986 357.027 211.078 356.112 211.078C355.196 211.078 354.395 210.986 353.674 210.792V214.878H358.573Z" fill="black"/>
<path d="M96.2964 28.4805H44.9492C42.3005 28.4805 40.1533 30.6278 40.1533 33.2766V84.626C40.1533 87.2748 42.3005 89.4221 44.9492 89.4221H96.2964C98.9452 89.4221 101.092 87.2748 101.092 84.626V33.2766C101.092 30.6278 98.9452 28.4805 96.2964 28.4805Z" fill="#4AB65B"/>
<path d="M75.8994 59.9921L64.9112 44.2188H55.8115V73.6823H65.3461V57.9203L76.3229 73.6823H85.4226V44.2188H75.8994V59.9921Z" fill="white"/>
<path d="M122.325 52.7329V53.7516C121.913 53.9462 121.397 54.095 120.779 54.198C120.161 54.301 119.52 54.3582 118.845 54.3582H115.411V40.9777H116.43V53.3395H119.005C120.356 53.3395 121.466 53.1335 122.325 52.7329ZM124.957 40.4627V55.0908H123.927V47.1701H119.749V46.1399H123.927V40.4627H124.957ZM128.334 55.3426H127.304V40.3711H128.334V55.3426Z" fill="black"/>
<path d="M137.445 41.55C138.075 42.0537 138.567 42.8206 138.922 43.8507C139.276 44.8809 139.459 46.1514 139.459 47.6737C139.459 49.196 139.276 50.4666 138.922 51.4967C138.567 52.5269 138.075 53.2937 137.445 53.7974C136.815 54.301 136.083 54.5528 135.247 54.5528C133.977 54.5528 132.958 53.9691 132.191 52.813C131.424 51.6455 131.035 49.94 131.035 47.6737C131.035 45.4074 131.413 43.7019 132.191 42.5344C132.958 41.3669 133.977 40.7946 135.247 40.7946C136.083 40.7946 136.815 41.0464 137.445 41.55ZM132.947 43.3127C132.363 44.2971 132.065 45.7622 132.065 47.6852C132.065 49.6081 132.351 51.0618 132.947 52.0576C133.53 53.0419 134.297 53.5341 135.247 53.5341C136.197 53.5341 136.941 53.0419 137.525 52.0576C138.097 51.0732 138.395 49.6195 138.395 47.6852C138.395 45.7508 138.109 44.3086 137.525 43.3127C136.953 42.3284 136.186 41.8362 135.247 41.8362C134.309 41.8362 133.53 42.3284 132.947 43.3127ZM142.332 55.3426V40.3711H143.408V55.3426H142.332Z" fill="black"/>
<path d="M158.94 55.3423H157.864V47.8566H154.316V54.3465H146.59V40.8516H147.643V46.4144H153.263V40.8516H154.316V46.815H157.864V40.3594H158.94V55.3309V55.3423ZM153.274 47.4216H147.654V53.3278H153.274V47.4216Z" fill="black"/>
<path d="M173.397 41.0121V45.0525C173.397 46.9526 173.065 48.6008 172.412 49.9858C171.76 51.3822 170.844 52.4467 169.677 53.1793C168.509 53.9233 167.17 54.2896 165.659 54.2896V53.2594C167.319 53.2594 168.715 52.7672 169.848 51.7829C170.982 50.7985 171.726 49.4021 172.092 47.605H165.659V46.5863H172.252C172.298 46.2773 172.332 45.7737 172.332 45.0869V42.0308H165.659V41.0121H173.397ZM177.723 47.7767V55.3426H176.67V40.3711H177.723V46.7466H179.887V47.7767H177.723Z" fill="black"/>
<path d="M188.563 52.5383V53.5684C187.613 54.095 185.908 54.3468 183.458 54.3468H180.437V53.351H181.982V41.9964H180.54V41.0006H187.911V41.9964H186.434V53.1678C187.247 53.0534 187.968 52.8359 188.575 52.5269L188.563 52.5383ZM185.45 53.2709V41.9964H182.955V53.351C184.088 53.351 184.912 53.3281 185.45 53.2709ZM190.795 40.4627V55.0908H189.777V47.7767H187.705V46.7466H189.777V40.4627H190.795ZM193.966 55.3426H192.947V40.3711H193.966V55.3426Z" fill="black"/>
<path d="M200.524 44.1372C200.353 43.977 200.272 43.771 200.272 43.5192C200.272 43.2902 200.353 43.0842 200.524 42.924C200.696 42.7637 200.891 42.6836 201.131 42.6836C201.371 42.6836 201.566 42.7637 201.738 42.924C201.909 43.0842 201.989 43.2902 201.989 43.5192C201.989 43.771 201.909 43.977 201.738 44.1372C201.566 44.2975 201.371 44.3776 201.131 44.3776C200.891 44.3776 200.696 44.2975 200.524 44.1372ZM200.524 52.7791C200.353 52.6188 200.272 52.4128 200.272 52.161C200.272 51.932 200.353 51.726 200.524 51.5658C200.696 51.4055 200.891 51.3254 201.131 51.3254C201.371 51.3254 201.566 51.4055 201.738 51.5658C201.909 51.726 201.989 51.932 201.989 52.161C201.989 52.4128 201.909 52.6188 201.738 52.7791C201.566 52.9393 201.371 53.0194 201.131 53.0194C200.891 53.0194 200.696 52.9393 200.524 52.7791Z" fill="black"/>
<path d="M215.21 51.1524H220.67V55.2616H219.617V52.1024H208.537V51.1524H214.157V49.1493H207.621V48.1993H221.734V49.1493H215.198V51.1524H215.21ZM208.731 46.5053V40.4961H209.784V42.5449H219.594V40.4961H220.647V46.5053H208.731ZM219.594 43.4492H209.784V45.6011H219.594V43.4492Z" fill="black"/>
<path d="M229.3 45.0638L228.934 45.7048L226.415 44.2626L226.438 47.1127H225.717V44.2855L223.222 45.7048L222.867 45.0638L225.34 43.6559L222.867 42.2481L223.222 41.6071L225.717 43.0493V40.1992H226.438L226.415 43.0493L228.934 41.6071L229.3 42.2481L226.805 43.6559L229.3 45.0638Z" fill="black"/>
<path d="M236.659 45.0638L236.293 45.7048L233.775 44.2626L233.798 47.1127H233.077V44.2855L230.581 45.7048L230.227 45.0638L232.699 43.6559L230.227 42.2481L230.581 41.6071L233.077 43.0493V40.1992H233.798L233.775 43.0493L236.293 41.6071L236.659 42.2481L234.164 43.6559L236.659 45.0638Z" fill="black"/>
<path d="M238.377 47.662V40.8401H246.492V47.662H238.377ZM250.43 49.4934V55.0562H238.846V49.4934H250.43ZM239.43 41.8016V46.6776H245.451V41.8016H239.43ZM249.377 54.0947V50.4663H239.899V54.0947H249.377ZM250.43 44.7661V48.509H249.377V40.3594H250.43V43.7131H252.593V44.7661H250.43Z" fill="black"/>
<path d="M261.543 41.0121V45.0525C261.543 46.9526 261.211 48.6008 260.559 49.9858C259.906 51.3822 258.991 52.4467 257.823 53.1793C256.656 53.9233 255.317 54.2896 253.806 54.2896V53.2594C255.465 53.2594 256.862 52.7672 257.995 51.7829C259.128 50.7985 259.872 49.4021 260.238 47.605H253.806V46.5863H260.399C260.456 46.2773 260.479 45.7737 260.479 45.0869V42.0308H253.806V41.0121H261.543ZM265.87 47.7767V55.3426H264.817V40.3711H265.87V46.7466H268.033V47.7767H265.87Z" fill="black"/>
<path d="M276.71 52.5383V53.5684C275.76 54.095 274.054 54.3468 271.605 54.3468H268.583V53.351H270.128V41.9964H268.686V41.0006H276.057V41.9964H274.581V53.1678C275.393 53.0534 276.115 52.8359 276.721 52.5269L276.71 52.5383ZM273.596 53.2709V41.9964H271.101V53.351C272.234 53.351 273.058 53.3281 273.596 53.2709ZM278.93 40.4627V55.0908H277.912V47.7767H275.84V46.7466H277.912V40.4627H278.93ZM282.112 55.3426H281.094V40.3711H282.112V55.3426Z" fill="black"/>
<path d="M125.564 78.5462H123.79V76.4515C123.389 77.1497 122.863 77.6877 122.21 78.0769C121.547 78.466 120.803 78.6492 119.967 78.6492C119.006 78.6492 118.136 78.4203 117.357 77.951C116.579 77.4817 115.961 76.8293 115.514 75.9822C115.068 75.1352 114.851 74.1738 114.851 73.0864C114.851 71.999 115.08 71.0375 115.514 70.1905C115.961 69.3435 116.579 68.6911 117.357 68.2218C118.136 67.7525 119.006 67.5236 119.967 67.5236C120.78 67.5236 121.512 67.7067 122.165 68.0844C122.817 68.4507 123.332 68.9887 123.721 69.664V63.2656H125.576V78.5347L125.564 78.5462ZM122.027 76.5431C122.565 76.2226 122.989 75.7648 123.298 75.1696C123.607 74.5744 123.756 73.8876 123.756 73.0978C123.756 72.308 123.607 71.6442 123.298 71.049C122.989 70.4538 122.565 69.9959 122.027 69.6754C121.489 69.3549 120.894 69.1947 120.242 69.1947C119.589 69.1947 118.971 69.3549 118.433 69.6754C117.895 69.9959 117.483 70.4538 117.174 71.049C116.865 71.6442 116.716 72.3309 116.716 73.0978C116.716 73.8647 116.865 74.5744 117.174 75.1696C117.472 75.7648 117.895 76.2226 118.433 76.5431C118.971 76.8636 119.578 77.0238 120.242 77.0238C120.906 77.0238 121.501 76.8636 122.027 76.5431Z" fill="black"/>
<path d="M130.566 63.2773V78.5464H128.712V63.2773H130.566Z" fill="black"/>
<path d="M134.298 78.2828C133.519 78.0424 132.901 77.7334 132.443 77.3442L133.119 75.9249C133.554 76.2797 134.103 76.5773 134.767 76.7948C135.431 77.0237 136.106 77.1382 136.804 77.1382C137.686 77.1382 138.327 76.9894 138.75 76.7032C139.174 76.4171 139.38 76.0164 139.38 75.5128C139.38 75.158 139.265 74.8718 139.036 74.6658C138.796 74.4598 138.51 74.311 138.166 74.208C137.823 74.1164 137.342 74.0019 136.701 73.876C135.854 73.7158 135.168 73.5441 134.652 73.3724C134.137 73.2007 133.691 72.9031 133.325 72.491C132.958 72.0675 132.764 71.4838 132.764 70.7283C132.764 69.7783 133.142 69.0114 133.886 68.4162C134.63 67.821 135.683 67.5234 137.045 67.5234C137.731 67.5234 138.418 67.615 139.094 67.7981C139.769 67.9813 140.33 68.2331 140.765 68.5536L140.089 69.9729C139.231 69.3548 138.212 69.0458 137.045 69.0458C136.209 69.0458 135.58 69.1946 135.168 69.5036C134.755 69.8127 134.549 70.2018 134.549 70.6711C134.549 71.0374 134.675 71.335 134.904 71.5525C135.145 71.7699 135.442 71.9302 135.797 72.0446C136.152 72.1591 136.644 72.2621 137.274 72.3766C138.086 72.5254 138.75 72.6971 139.265 72.8802C139.78 73.0633 140.215 73.3609 140.582 73.7616C140.948 74.1622 141.131 74.7345 141.131 75.4556C141.131 76.4171 140.742 77.1839 139.963 77.7563C139.185 78.3286 138.098 78.6147 136.701 78.6147C135.866 78.6147 135.053 78.5002 134.275 78.2599L134.298 78.2828Z" fill="black"/>
<path d="M149.383 68.4627L148.742 69.5501L146.247 68.085L146.27 70.8893H145.034L145.057 68.085L142.561 69.5501L141.943 68.4627L144.416 67.0892L141.943 65.7156L142.561 64.6283L145.057 66.0934L145.034 63.2891H146.27L146.247 66.0934L148.742 64.6283L149.383 65.7156L146.911 67.0892L149.383 68.4627Z" fill="black"/>
<path d="M157.613 68.4627L156.972 69.5501L154.477 68.085L154.499 70.8893H153.263L153.286 68.085L150.791 69.5501L150.173 68.4627L152.645 67.0892L150.173 65.7156L150.791 64.6283L153.286 66.0934L153.263 63.2891H154.499L154.477 66.0934L156.972 64.6283L157.613 65.7156L155.14 67.0892L157.613 68.4627Z" fill="black"/>
<path d="M165.843 68.4627L165.202 69.5501L162.707 68.085L162.73 70.8893H161.494L161.517 68.085L159.021 69.5501L158.403 68.4627L160.876 67.0892L158.403 65.7156L159.021 64.6283L161.517 66.0934L161.494 63.2891H162.73L162.707 66.0934L165.202 64.6283L165.843 65.7156L163.371 67.0892L165.843 68.4627Z" fill="black"/>
<path d="M177.347 78.5454H175.595V76.5881C175.229 77.252 174.725 77.7556 174.119 78.1104C173.501 78.4653 172.791 78.6484 171.978 78.6484C170.651 78.6484 169.598 78.2478 168.808 77.4466C168.018 76.6454 167.629 75.4778 167.629 73.9326V67.6602H169.483V73.6694C169.483 74.7567 169.724 75.5694 170.227 76.1303C170.731 76.6911 171.418 76.9658 172.322 76.9658C173.295 76.9658 174.073 76.6453 174.645 76.0044C175.218 75.3634 175.515 74.4591 175.515 73.2916V67.6716H177.347V78.5568V78.5454Z" fill="black"/>
<path d="M188.849 74.9379V78.5435H186.892V74.9379H178.868V73.5758L186.262 64.1328H188.403L181.329 73.2668H186.949V70.0962H188.861V73.2668H191.596V74.9379H188.861H188.849Z" fill="black"/>
<path d="M198.979 68.4627L198.338 69.5501L195.843 68.085L195.866 70.8893H194.63L194.652 68.085L192.157 69.5501L191.539 68.4627L194.011 67.0892L191.539 65.7156L192.157 64.6283L194.652 66.0934L194.63 63.2891H195.866L195.843 66.0934L198.338 64.6283L198.979 65.7156L196.507 67.0892L198.979 68.4627Z" fill="black"/>
<path d="M207.209 68.4627L206.569 69.5501L204.073 68.085L204.096 70.8893H202.86L202.883 68.085L200.388 69.5501L199.77 68.4627L202.242 67.0892L199.77 65.7156L200.388 64.6283L202.883 66.0934L202.86 63.2891H204.096L204.073 66.0934L206.569 64.6283L207.209 65.7156L204.737 67.0892L207.209 68.4627Z" fill="black"/>
<path d="M215.439 68.4627L214.798 69.5501L212.303 68.085L212.326 70.8893H211.089L211.112 68.085L208.617 69.5501L207.999 68.4627L210.471 67.0892L207.999 65.7156L208.617 64.6283L211.112 66.0934L211.089 63.2891H212.326L212.303 66.0934L214.798 64.6283L215.439 65.7156L212.967 67.0892L215.439 68.4627Z" fill="black"/>
<path d="M229.803 69.2178C230.616 69.0919 231.246 68.9202 231.715 68.7027V70.3853C231.257 70.6028 230.616 70.7745 229.792 70.9004C228.968 71.0263 228.041 71.0835 227.022 71.0835H221.219V63.7008H223.096V69.4009H227.091C228.098 69.4009 229.002 69.3437 229.803 69.2178ZM221.814 79.0614V72.7661H234.634V79.0614H221.814ZM232.768 74.4258H223.668V77.3903H232.768V74.4258ZM232.768 71.8389V63.4375H234.645V71.8389H232.768Z" fill="black"/>
<path d="M249.377 76.3819V79.6097H247.488V76.3819H240.918V74.6306H255.947V76.3819H249.377ZM241.467 66.6298V64.9472H247.454V63.0586H249.342V64.9472H255.374V66.6298H241.467ZM243.894 68.3467C245.039 67.8431 246.549 67.5912 248.427 67.5912C250.304 67.5912 251.826 67.8431 252.971 68.3467C254.127 68.8503 254.699 69.5943 254.699 70.5787C254.699 71.563 254.127 72.307 252.971 72.8107C251.815 73.3143 250.304 73.5661 248.427 73.5661C246.549 73.5661 245.039 73.3143 243.894 72.8107C242.749 72.307 242.177 71.563 242.177 70.5787C242.177 69.5943 242.749 68.8503 243.894 68.3467ZM251.597 69.5371C250.785 69.2967 249.731 69.1823 248.427 69.1823C247.122 69.1823 246.069 69.2967 245.267 69.5371C244.466 69.7775 244.066 70.1208 244.066 70.5787C244.066 71.0365 244.466 71.3914 245.256 71.6317C246.046 71.8721 247.11 71.9866 248.427 71.9866C249.743 71.9866 250.807 71.8721 251.609 71.6317C252.41 71.3914 252.81 71.048 252.81 70.5787C252.81 70.1094 252.41 69.7775 251.597 69.5371Z" fill="black"/>
<path d="M265.275 73.3498C264.6 74.9179 263.627 76.1312 262.368 76.9897C261.109 77.8481 259.621 78.2716 257.926 78.2716V76.4174C259.254 76.4174 260.41 76.074 261.383 75.3758C262.356 74.6776 263.1 73.6932 263.615 72.4112C264.13 71.1293 264.382 69.6184 264.382 67.8786V65.7611H257.915V63.9869H266.294V67.8328C266.294 69.9274 265.95 71.7703 265.275 73.3384V73.3498ZM269.441 79.2446V63.4375H271.318V79.2446H269.441Z" fill="black"/>
<path d="M48.8979 121.667V128.329H47.6388V121.667H40.0615V120.385H56.6927V121.667H48.9094H48.8979ZM41.2519 112.018V110.805H55.3764V118.68H54.1173V112.018H41.2519Z" fill="#17544F"/>
<path d="M65.8606 111.021V126.737H58.9014V111.021H65.8606ZM64.6359 125.546V112.223H60.0574V125.546H64.6359ZM74.1018 127.916H72.8885V118.93H69.4661V127.618H68.2757V110.38H69.4661V117.706H72.8885V110.266H74.1018V127.916Z" fill="#17544F"/>
<path d="M93.194 124.105V128.329H91.9578V124.105H86.6468V128.329H85.4107V124.105H81.0039V122.938H97.6351V124.105H93.2055H93.194ZM81.6449 113.552V112.385H88.6499V109.832H89.909V112.385H96.9598V113.552H81.6334H81.6449ZM84.4034 115.83C85.651 115.292 87.2878 115.029 89.3138 115.029C91.3397 115.029 92.9765 115.292 94.2356 115.83C95.4947 116.368 96.1242 117.158 96.1242 118.222C96.1242 119.287 95.4947 120.076 94.2356 120.614C92.9765 121.152 91.3397 121.415 89.3138 121.415C87.2878 121.415 85.651 121.152 84.4034 120.614C83.1558 120.076 82.5262 119.287 82.5262 118.222C82.5262 117.158 83.1558 116.368 84.4034 115.83ZM93.297 116.654C92.2783 116.299 90.9506 116.127 89.3138 116.127C87.677 116.127 86.3263 116.299 85.3191 116.654C84.3118 117.009 83.8082 117.524 83.8082 118.222C83.8082 118.92 84.3118 119.424 85.3191 119.767C86.3263 120.111 87.6655 120.282 89.3138 120.282C90.962 120.282 92.3012 120.111 93.3085 119.767C94.3157 119.424 94.8194 118.909 94.8194 118.222C94.8194 117.535 94.3043 117.009 93.297 116.654Z" fill="#17544F"/>
<path d="M105.934 125.374C106.609 125.249 107.227 125.077 107.765 124.859V126.027C107.262 126.244 106.643 126.416 105.911 126.542C105.19 126.668 104.434 126.737 103.667 126.737H99.833V111.021H107.044V112.189H101.023V125.558H103.851C104.56 125.558 105.247 125.489 105.934 125.363V125.374ZM115.045 127.916H113.832V118.907H110.409V127.618H109.219V110.38H110.409V117.706H113.832V110.266H115.045V127.916Z" fill="#17544F"/>
<path d="M134.023 121.414H117.392V120.27H125.083V117.786H118.399V116.664H121.592V111.696H118.582V110.598H132.832V111.696H129.822V116.664H132.993V117.786H126.331V120.27H134.023V121.414ZM133.13 126.462V127.584H118.651V122.959H119.91V126.451H133.119L133.13 126.462ZM128.586 116.653V111.685H122.84V116.653H128.586Z" fill="#17544F"/>
<path d="M140.97 114.717C140.776 114.523 140.673 114.282 140.673 113.996C140.673 113.721 140.776 113.492 140.97 113.298C141.165 113.103 141.405 113.012 141.68 113.012C141.955 113.012 142.195 113.103 142.39 113.298C142.584 113.492 142.687 113.721 142.687 113.996C142.687 114.282 142.584 114.534 142.39 114.717C142.195 114.9 141.955 115.003 141.68 115.003C141.405 115.003 141.165 114.912 140.97 114.717ZM140.97 124.893C140.776 124.698 140.673 124.458 140.673 124.172C140.673 123.897 140.776 123.668 140.97 123.473C141.165 123.279 141.405 123.187 141.68 123.187C141.955 123.187 142.195 123.279 142.39 123.473C142.584 123.668 142.687 123.897 142.687 124.172C142.687 124.458 142.584 124.71 142.39 124.893C142.195 125.076 141.955 125.179 141.68 125.179C141.405 125.179 141.165 125.087 140.97 124.893Z" fill="#17544F"/>
<path d="M155.93 116C155.324 116.927 154.5 117.625 153.435 118.106C152.382 118.587 151.169 118.816 149.807 118.816V117.671C151.558 117.66 152.954 117.225 154.019 116.366C155.083 115.508 155.621 114.295 155.621 112.738V111.96H149.807V110.838H156.835V112.704C156.835 113.986 156.537 115.096 155.93 116.023V116ZM165.717 127.572H150.917V123.463H163.943V121.483H150.871V120.43H165.19V124.424H152.142V126.519H165.717V127.572ZM159.227 119.113V110.38H160.417V113.825H163.954V110.266H165.167V119.297H163.954V115.027H160.417V119.113H159.227Z" fill="#17544F"/>
<path d="M175.984 111.926H168.304V110.827H177.22V116.161H169.574V119.331H173.615C174.931 119.331 176.11 119.251 177.152 119.091C178.193 118.931 179.017 118.702 179.612 118.416V119.537C179.063 119.812 178.239 120.029 177.163 120.19C176.087 120.35 174.851 120.43 173.477 120.43H168.35V115.073H175.973V111.926H175.984ZM183.058 122.467V127.824H181.822V123.624H168.979V122.479H183.069L183.058 122.467ZM183.058 121.323H181.822V115.348H178.514V114.18H181.822V110.277H183.058V121.334V121.323Z" fill="#17544F"/>
<path d="M192.204 118.175L197.881 125.947L196.896 126.702L191.837 119.697C191.276 121.792 190.51 123.463 189.537 124.688C188.575 125.912 187.431 126.599 186.114 126.759V125.5C187.293 125.283 188.3 124.493 189.125 123.108C189.949 121.723 190.578 119.96 191.002 117.809C191.425 115.657 191.643 113.31 191.654 110.769L192.913 110.792C192.879 113.596 192.65 116.057 192.204 118.186V118.175ZM201.12 127.916H199.884V110.266H201.12V127.916Z" fill="#17544F"/>
<path d="M220.716 127.136H208.377V126.267L218.85 112.154H208.491V111.055H220.464V111.902L209.991 126.038H220.716V127.136Z" fill="#17544F"/>
<path d="M238.548 119.297H221.917V118.221H238.548V119.297ZM222.924 116.332V115.279H226.118V111.651H223.107V110.598H237.358V111.651H234.347V115.279H237.518V116.332H222.924ZM237.644 126.599V127.584H223.142V123.864H236.099V122.112H223.096V121.128H237.323V124.802H224.344V126.599H237.644ZM233.1 115.279V111.651H227.354V115.279H233.1Z" fill="#17544F"/>
<path d="M249.525 111.902H240.952V110.826H250.739V115.748H242.234V118.53H246.664C247.992 118.53 249.193 118.45 250.235 118.301C251.288 118.152 252.101 117.935 252.684 117.66V118.759C252.112 119.033 251.299 119.251 250.246 119.4C249.193 119.548 247.969 119.629 246.595 119.629H240.986V114.684H249.514V111.902H249.525ZM255.5 120.979V127.572H241.639V120.979H242.875V123.12H254.253V120.979H255.489H255.5ZM254.264 124.173H242.887V126.473H254.264V124.173ZM255.5 120.144H254.264V110.266H255.5V120.144Z" fill="#17544F"/>
<path d="M267.908 118.21C268.721 118.599 269.35 119.16 269.808 119.881C270.254 120.602 270.483 121.438 270.483 122.388C270.483 123.338 270.254 124.208 269.785 124.952C269.316 125.696 268.675 126.268 267.862 126.669C267.049 127.069 266.134 127.264 265.104 127.264C263.009 127.264 261.395 126.554 260.273 125.135C259.152 123.716 258.591 121.735 258.591 119.194C258.591 117.42 258.888 115.909 259.484 114.685C260.079 113.448 260.914 112.521 262.002 111.892C263.078 111.262 264.337 110.953 265.779 110.953C267.324 110.953 268.549 111.239 269.453 111.8L268.95 112.762C268.183 112.269 267.141 112.029 265.802 112.029C264.005 112.029 262.586 112.601 261.544 113.757C260.491 114.902 259.953 116.573 259.896 118.748C259.896 119.595 259.953 120.327 260.056 120.98C260.365 119.938 260.972 119.126 261.887 118.53C262.803 117.947 263.867 117.649 265.092 117.649C266.145 117.649 267.084 117.844 267.897 118.233L267.908 118.21ZM268.08 125.169C268.858 124.471 269.236 123.555 269.236 122.422C269.236 121.289 268.847 120.35 268.08 119.664C267.301 118.977 266.248 118.633 264.921 118.633C264.062 118.633 263.295 118.805 262.631 119.137C261.967 119.469 261.452 119.938 261.075 120.511C260.708 121.094 260.525 121.747 260.525 122.468C260.525 123.109 260.697 123.716 261.052 124.299C261.407 124.872 261.922 125.341 262.608 125.684C263.284 126.039 264.108 126.211 265.058 126.211C266.294 126.211 267.301 125.867 268.08 125.169Z" fill="#17544F"/>
<path d="M434.62 288.008H39.2715V289.152H434.62V288.008Z" fill="#CBCBCB"/>
<path d="M465.971 296.386H450.198V295.23H456.494V287.263H457.695V295.23H465.971V296.386ZM451.251 282.422V281.266H464.826V292.311H463.624V282.422H451.251Z" fill="#989898"/>
<path d="M473.72 287.148C473.148 288.133 472.358 288.888 471.351 289.403C470.343 289.918 469.199 290.17 467.905 290.17V289.06C468.981 289.048 469.931 288.831 470.767 288.407C471.602 287.984 472.255 287.366 472.713 286.553C473.182 285.74 473.411 284.779 473.411 283.657V282.181H467.905V281.093H474.567V283.623C474.567 284.985 474.281 286.164 473.708 287.148H473.72ZM482.488 291.99V297.221H481.309V293.077H468.809V291.99H482.488ZM482.488 290.903H481.332V285.832H477.978V290.731H476.845V280.693H477.978V284.676H481.332V280.578H482.488V290.903Z" fill="#989898"/>
<path d="M494.426 287.171C495.411 287.022 496.189 286.828 496.761 286.564V287.698C496.223 287.961 495.445 288.167 494.426 288.304C493.408 288.442 492.252 288.522 490.958 288.522H485.556V280.99H486.735V287.389H491.05C492.309 287.389 493.442 287.32 494.426 287.171ZM486.162 296.98V290.731H499.302V296.98H486.162ZM498.123 291.841H487.341V295.893H498.123V291.841ZM498.123 289.483V280.578H499.302V289.483H498.123Z" fill="#989898"/>
<path d="M511.526 295.977C510.508 296.126 509.329 296.194 508.001 296.194H501.969V295.038H508.115C509.409 295.038 510.553 294.97 511.561 294.821C512.568 294.672 513.335 294.466 513.896 294.191V295.347C513.346 295.622 512.556 295.828 511.538 295.977H511.526ZM509.878 281.726C510.611 282.173 511.183 282.779 511.595 283.569C512.007 284.359 512.213 285.252 512.213 286.248C512.213 287.243 512.007 288.125 511.595 288.903C511.183 289.681 510.611 290.299 509.878 290.746C509.145 291.192 508.31 291.41 507.383 291.41C506.456 291.41 505.62 291.192 504.888 290.746C504.155 290.299 503.583 289.693 503.171 288.903C502.759 288.113 502.553 287.232 502.553 286.248C502.553 285.263 502.759 284.348 503.171 283.569C503.583 282.791 504.155 282.173 504.888 281.726C505.62 281.28 506.456 281.062 507.383 281.062C508.31 281.062 509.145 281.28 509.878 281.726ZM505.471 282.699C504.922 283.054 504.487 283.546 504.178 284.164C503.869 284.782 503.709 285.481 503.709 286.248C503.709 287.014 503.869 287.69 504.178 288.308C504.487 288.926 504.922 289.407 505.471 289.762C506.021 290.116 506.662 290.288 507.394 290.288C508.127 290.288 508.768 290.116 509.317 289.762C509.867 289.407 510.313 288.926 510.611 288.308C510.92 287.69 511.068 287.003 511.068 286.248C511.068 285.492 510.92 284.782 510.611 284.164C510.302 283.546 509.878 283.066 509.317 282.699C508.756 282.344 508.115 282.161 507.394 282.161C506.673 282.161 506.032 282.344 505.471 282.699ZM515.441 297.305V280.57H516.597V297.305H515.441Z" fill="#989898"/>
<path d="M526.853 287.263C525.948 287.858 524.93 288.27 523.785 288.487V287.354C524.85 287.125 525.765 286.69 526.567 286.049C527.356 285.408 527.963 284.63 528.375 283.703C528.787 282.776 529.005 281.803 529.016 280.773L530.172 280.841C530.172 282.02 529.966 283.085 529.565 284.046L534.945 287.228L534.361 288.213L529.05 285.031C528.501 285.935 527.768 286.679 526.876 287.274L526.853 287.263ZM538.619 296.98H525.01V292.974H536.925V290.925H524.964V289.907H538.116V293.913H526.177V295.985H538.619V296.992V296.98ZM536.948 288.808V280.578H538.127V288.808H536.948Z" fill="#989898"/>
<path d="M545.282 288.01L549.242 295.393L548.28 295.977L544.972 289.727C544.274 293.493 542.947 295.645 540.989 296.194V294.97C542.134 294.557 542.992 293.253 543.565 291.043C544.137 288.834 544.423 285.961 544.435 282.413H541.207V281.28H548.681V282.413H545.591C545.556 284.634 545.465 286.488 545.282 287.987V288.01ZM551.623 280.685V297.018H550.49V288.308H547.72V287.152H550.49V280.685H551.623ZM555.812 297.305H554.656V280.57H555.812V297.305Z" fill="#989898"/>
<path d="M570.818 293.755V297.692H569.616V293.755H562.336V292.621H578.109V293.755H570.806H570.818ZM562.954 283.693V282.583H569.593V280.168H570.795V282.583H577.479V283.693H562.954ZM565.575 285.857C566.754 285.342 568.311 285.078 570.222 285.078C572.134 285.078 573.69 285.342 574.881 285.857C576.071 286.372 576.666 287.139 576.666 288.157C576.666 289.176 576.071 289.92 574.881 290.435C573.69 290.95 572.134 291.202 570.222 291.202C568.311 291.202 566.754 290.95 565.575 290.435C564.396 289.92 563.801 289.165 563.801 288.157C563.801 287.15 564.396 286.372 565.575 285.857ZM574.011 286.669C573.049 286.326 571.779 286.154 570.234 286.154C568.689 286.154 567.418 286.326 566.457 286.669C565.495 287.013 565.003 287.505 565.003 288.157C565.003 288.81 565.484 289.302 566.445 289.634C567.407 289.966 568.666 290.138 570.234 290.138C571.802 290.138 573.049 289.966 574.011 289.634C574.972 289.302 575.465 288.81 575.465 288.157C575.465 287.505 574.984 287.013 574.011 286.669Z" fill="#989898"/>
<path d="M588.021 290.883C587.323 292.554 586.327 293.848 585.011 294.763C583.706 295.679 582.172 296.137 580.409 296.137V294.958C581.92 294.958 583.236 294.557 584.37 293.756C585.491 292.955 586.361 291.822 586.956 290.334C587.563 288.857 587.861 287.117 587.861 285.126V282.425H580.409V281.291H589.062V285.057C589.062 287.266 588.719 289.201 588.021 290.872V290.883ZM593.011 297.305V280.57H594.19V297.305H593.011Z" fill="#989898"/>
<path d="M607.079 288.159L612.31 295.439L611.371 296.16L606.712 289.601C606.186 291.559 605.476 293.115 604.572 294.26C603.668 295.404 602.603 296.057 601.367 296.194V294.992C602.489 294.786 603.427 294.031 604.194 292.726C604.961 291.421 605.534 289.75 605.911 287.713C606.289 285.675 606.484 283.455 606.495 281.028L607.697 281.051C607.663 283.798 607.456 286.167 607.067 288.148L607.079 288.159ZM615.297 288.857V297.305H614.118V280.57H615.297V287.69H617.712V288.846H615.297V288.857Z" fill="#989898"/>
<path d="M624.569 294.878C625.37 294.741 626.091 294.512 626.732 294.191V295.37C625.553 295.92 623.859 296.194 621.661 296.194H619.006V288.045H623.882V282.402H619.006V281.291H624.992V289.155H620.116V295.084H621.661C622.795 295.084 623.767 295.015 624.569 294.878ZM629.719 280.685V297.018H628.586V290.837H626.08V289.659H628.586V286.042H626.08V284.863H628.586V280.685H629.719ZM633.439 297.305H632.306V280.57H633.439V297.305Z" fill="#989898"/>
</svg>
