<svg width="677" height="334" viewBox="0 0 677 334" fill="none" xmlns="http://www.w3.org/2000/svg">
<path d="M663.05 0H14.3418C6.75596 0 0.606445 6.14977 0.606445 13.7359V320.264C0.606445 327.85 6.75596 334 14.3418 334H663.05C670.636 334 676.785 327.85 676.785 320.264V13.7359C676.785 6.14977 670.636 0 663.05 0Z" fill="white"/>
<path d="M48.1201 150.113C48.8412 151.247 49.2075 152.929 49.2075 155.138C49.2075 157.347 48.8412 159.03 48.1201 160.163C47.399 161.296 46.4146 161.869 45.1784 161.869C43.9423 161.869 42.9693 161.296 42.2368 160.163C41.5157 159.03 41.1494 157.347 41.1494 155.138C41.1494 152.929 41.5157 151.247 42.2368 150.113C42.9579 148.969 43.9423 148.408 45.1784 148.408C46.4146 148.408 47.3875 148.98 48.1201 150.113ZM47.3532 159.419C47.8912 158.458 48.1659 157.027 48.1659 155.138C48.1659 153.25 47.8912 151.819 47.3532 150.857C46.8152 149.896 46.0941 149.415 45.1899 149.415C44.2856 149.415 43.5645 149.896 43.0151 150.857C42.4657 151.819 42.191 153.25 42.191 155.138C42.191 157.027 42.4657 158.458 43.0151 159.419C43.5645 160.381 44.2856 160.861 45.1899 160.861C46.0941 160.861 46.8152 160.381 47.3532 159.419ZM53.4196 162.635H52.4124V158.263H49.6653L49.7454 157.256H52.4124V152.963H49.7454L49.6653 151.933H52.4124V147.984H53.4196V162.635Z" fill="black"/>
<path d="M62.6801 157.015C62.0734 158.48 61.192 159.614 60.0474 160.415C58.9028 161.216 57.5635 161.617 56.0183 161.617V160.587C57.3461 160.587 58.4907 160.232 59.4751 159.533C60.4595 158.835 61.2149 157.839 61.7415 156.535C62.268 155.241 62.5313 153.719 62.5313 151.979V149.61H56.0068V148.614H63.5843V151.91C63.5843 153.845 63.2753 155.539 62.6686 157.004L62.6801 157.015ZM67.0411 162.635V147.984H68.0713V162.635H67.0411Z" fill="black"/>
<path d="M75.0417 154.704L79.8492 160.884L79.0251 161.514L74.7555 155.94C74.3206 157.599 73.7254 158.916 72.9585 159.889C72.1915 160.873 71.2987 161.457 70.2686 161.663V160.598C71.1385 160.392 71.8825 159.797 72.5006 158.801C73.1187 157.805 73.5995 156.523 73.92 154.932C74.2405 153.353 74.4236 151.567 74.4465 149.599H70.5547V148.603H79.3456V149.599H75.4767C75.4652 151.464 75.3164 153.17 75.0417 154.692V154.704ZM82.9512 162.636H81.921V154.761H78.1666V153.753H81.921V147.996H82.9512V162.647V162.636Z" fill="black"/>
<path d="M92.2102 157.015C91.6035 158.48 90.7222 159.614 89.5776 160.415C88.433 161.216 87.0938 161.617 85.5486 161.617V160.587C86.8763 160.587 88.0209 160.232 89.0053 159.533C89.9897 158.835 90.7451 157.839 91.2716 156.535C91.7981 155.241 92.0614 153.719 92.0614 151.979V149.61H85.5371V148.614H93.1144V151.91C93.1144 153.845 92.8054 155.539 92.1987 157.004L92.2102 157.015ZM96.5712 162.635V147.984H97.6013V162.635H96.5712Z" fill="black"/>
<path d="M103.611 154.955V148.454H111.543V154.955H103.611ZM109.163 161.422V162.361H104.046V156.466H105.054V161.422H109.151H109.163ZM104.641 149.404V154.005H110.536V149.404H104.641ZM116.339 157.279V158.16H109.014V157.279H112.161V155.71H113.192V157.279H116.339ZM114.931 159.419C115.492 159.74 115.767 160.186 115.767 160.77C115.767 161.353 115.492 161.811 114.931 162.12C114.37 162.441 113.626 162.601 112.699 162.601C111.772 162.601 111.005 162.441 110.456 162.12C109.907 161.8 109.632 161.353 109.632 160.77C109.632 160.186 109.907 159.728 110.456 159.419C111.005 159.099 111.761 158.938 112.699 158.938C113.638 158.938 114.37 159.099 114.931 159.419ZM114.245 161.525C114.645 161.353 114.84 161.102 114.84 160.77C114.84 160.438 114.645 160.186 114.245 160.014C113.844 159.843 113.329 159.762 112.688 159.762C112.047 159.762 111.555 159.854 111.154 160.014C110.754 160.186 110.559 160.438 110.559 160.77C110.559 161.102 110.754 161.353 111.154 161.525C111.543 161.697 112.058 161.788 112.699 161.788C113.34 161.788 113.855 161.697 114.256 161.525H114.245ZM117.518 152.219H115.401V155.287H114.37V147.984H115.401V151.189H117.518V152.219Z" fill="black"/>
<path d="M124.764 149.152C125.382 149.644 125.863 150.4 126.217 151.407C126.572 152.414 126.744 153.662 126.744 155.15C126.744 156.638 126.572 157.885 126.217 158.893C125.863 159.9 125.382 160.644 124.764 161.147C124.146 161.64 123.436 161.891 122.612 161.891C121.364 161.891 120.368 161.319 119.613 160.186C118.857 159.053 118.491 157.37 118.491 155.161C118.491 152.952 118.869 151.269 119.613 150.136C120.368 148.992 121.364 148.431 122.612 148.431C123.424 148.431 124.146 148.683 124.764 149.175V149.152ZM120.368 150.869C119.796 151.83 119.51 153.261 119.51 155.138C119.51 157.015 119.796 158.446 120.368 159.408C120.941 160.369 121.696 160.861 122.623 160.861C123.55 160.861 124.283 160.38 124.844 159.408C125.405 158.446 125.691 157.015 125.691 155.138C125.691 153.261 125.405 151.83 124.844 150.869C124.283 149.907 123.539 149.415 122.623 149.415C121.708 149.415 120.941 149.896 120.368 150.869ZM129.537 162.635V147.984H130.59V162.635H129.537Z" fill="black"/>
<path d="M144.016 153.284C143.684 153.788 143.203 154.177 142.574 154.463C141.944 154.749 141.2 154.898 140.353 154.898C139.506 154.898 138.762 154.76 138.144 154.463C137.526 154.177 137.045 153.788 136.702 153.284C136.37 152.78 136.198 152.208 136.198 151.556C136.198 150.903 136.37 150.331 136.702 149.816C137.034 149.312 137.515 148.912 138.144 148.625C138.762 148.339 139.506 148.19 140.353 148.19C141.2 148.19 141.944 148.328 142.574 148.625C143.203 148.912 143.684 149.312 144.016 149.816C144.348 150.331 144.508 150.903 144.508 151.556C144.508 152.208 144.348 152.78 144.016 153.284ZM148.8 161.479V162.361H137.205V158.847H147.335V157.05H137.171V156.157H148.365V159.671H138.236V161.479H148.8ZM138.087 153.353C138.659 153.776 139.415 153.982 140.353 153.982C141.292 153.982 142.047 153.776 142.62 153.353C143.192 152.929 143.478 152.334 143.478 151.556C143.478 150.777 143.192 150.182 142.62 149.747C142.047 149.324 141.292 149.106 140.353 149.106C139.415 149.106 138.659 149.324 138.087 149.747C137.515 150.171 137.228 150.777 137.228 151.556C137.228 152.334 137.515 152.929 138.087 153.353ZM150.483 151.956H148.365V155.195H147.335V147.984H148.365V150.926H150.483V151.956Z" fill="black"/>
<path d="M158.312 150.114C159.045 151.247 159.411 152.929 159.411 155.138C159.411 157.348 159.045 159.03 158.312 160.163C157.58 161.296 156.595 161.869 155.348 161.869C154.546 161.869 153.837 161.617 153.23 161.125C152.623 160.633 152.143 159.877 151.799 158.87C151.456 157.863 151.284 156.615 151.284 155.127C151.284 153.639 151.456 152.391 151.799 151.384C152.143 150.377 152.623 149.633 153.23 149.129C153.837 148.637 154.546 148.385 155.348 148.385C156.595 148.385 157.58 148.958 158.312 150.091V150.114ZM157.557 159.419C158.106 158.458 158.392 157.027 158.392 155.15C158.392 153.273 158.117 151.842 157.557 150.881C156.996 149.919 156.275 149.427 155.359 149.427C154.443 149.427 153.711 149.908 153.15 150.881C152.589 151.853 152.314 153.273 152.314 155.15C152.314 157.027 152.589 158.458 153.15 159.419C153.711 160.381 154.432 160.873 155.359 160.873C156.286 160.873 157.007 160.392 157.557 159.419ZM163.131 155.241V162.647H162.101V147.996H163.131V154.234H165.248V155.241H163.131Z" fill="black"/>
<path d="M175.549 160.003V161.033C174.508 161.456 172.837 161.662 170.536 161.662H165.522V160.655H169.62V156.901H166.301V148.488H167.308V151.556H172.974V148.488H173.981V156.901H170.639V160.655C172.94 160.655 174.576 160.438 175.538 160.003H175.549ZM172.974 155.928V152.528H167.308V155.928H172.974ZM177.93 155.104V162.635H176.9V147.984H177.93V154.085H180.013V155.092H177.93V155.104Z" fill="black"/>
<path d="M194.093 161.834H180.277V160.826H186.63V156.683H181.285V148.613H193.108V149.621H182.315V155.687H193.269V156.683H187.683V160.826H194.093V161.834Z" fill="black"/>
<path d="M206.717 160.472C207.381 160.335 207.931 160.163 208.343 159.946V160.953C207.919 161.171 207.381 161.342 206.717 161.468C206.054 161.594 205.378 161.663 204.703 161.663H199.243V148.614H207.255V149.61H200.273V160.678H204.737C205.39 160.678 206.042 160.61 206.717 160.484V160.472ZM210.861 155.241V162.647H209.831V147.996H210.861V154.234H212.978V155.241H210.861Z" fill="black"/>
<path d="M213.241 157.426V156.51H227.057V157.426H213.241ZM226.313 161.432V162.371H214.294V158.823H215.347V161.432H226.313ZM215.359 151.955V153.992H226.21V154.874H214.34V151.119H225.008V149.139H214.34V148.258H225.992V151.955H215.347H215.359Z" fill="black"/>
<path d="M245.256 156.053H231.44V155.103H236.992V151.554H238.022V155.103H245.256V156.053ZM238.64 158.914L244.741 161.627L244.317 162.52L238.079 159.681C237.392 160.517 236.522 161.18 235.458 161.65C234.394 162.119 233.295 162.359 232.162 162.359V161.364C233.077 161.364 233.97 161.18 234.84 160.826C235.71 160.471 236.454 159.967 237.049 159.303C237.656 158.651 238.045 157.895 238.217 157.06L239.247 157.209C239.098 157.884 238.88 158.445 238.617 158.903L238.64 158.914ZM232.471 149.208V148.258H244.18V153.843H243.127V149.208H232.459H232.471Z" fill="black"/>
<path d="M246.207 156.786V155.836H260.022V156.786H246.207ZM256.154 148.316C257.081 148.556 257.813 148.9 258.351 149.369C258.901 149.838 259.175 150.399 259.175 151.074C259.175 151.75 258.901 152.322 258.351 152.803C257.802 153.283 257.069 153.638 256.154 153.867C255.238 154.096 254.219 154.222 253.109 154.222C251.999 154.222 250.991 154.107 250.064 153.867C249.137 153.627 248.405 153.272 247.855 152.803C247.306 152.322 247.031 151.75 247.031 151.074C247.031 150.399 247.306 149.827 247.855 149.369C248.405 148.9 249.137 148.556 250.064 148.316C250.991 148.075 251.999 147.961 253.109 147.961C254.219 147.961 255.227 148.075 256.154 148.316ZM259.278 161.399V162.372H247.26V158.285H248.313V161.399H259.278ZM250.66 149.14C249.893 149.312 249.286 149.563 248.817 149.895C248.347 150.227 248.119 150.616 248.119 151.074C248.119 151.761 248.599 152.299 249.572 152.688C250.545 153.077 251.724 153.272 253.109 153.272C254.494 153.272 255.673 153.077 256.634 152.688C257.596 152.299 258.088 151.761 258.088 151.074C258.088 150.616 257.859 150.227 257.401 149.895C256.943 149.563 256.337 149.312 255.57 149.14C254.803 148.968 253.99 148.888 253.109 148.888C252.228 148.888 251.415 148.98 250.648 149.14H250.66Z" fill="black"/>
<path d="M272.555 148.614V152.563C272.555 154.417 272.235 156.031 271.594 157.393C270.953 158.755 270.06 159.797 268.915 160.518C267.771 161.239 266.466 161.606 264.989 161.606V160.598C266.615 160.598 267.988 160.118 269.087 159.156C270.197 158.195 270.93 156.832 271.285 155.07H264.989V154.074H271.433C271.479 153.765 271.514 153.284 271.514 152.609V149.61H264.989V148.614H272.567H272.555ZM276.79 155.241V162.647H275.76V147.996H276.79V154.234H278.908V155.241H276.79Z" fill="black"/>
<path d="M279.171 161.834V160.826H292.987V161.834H279.171ZM281.208 149.632V156.042H292.163V157.049H280.178V148.613H292.002V149.621H281.208V149.632Z" fill="black"/>
<path d="M305.154 155.07L307.844 161.136L306.986 161.571L304.891 156.672C304.628 158.137 304.25 159.282 303.758 160.106C303.266 160.93 302.648 161.457 301.904 161.674L300.301 156.901C300.004 158.286 299.626 159.374 299.134 160.163C298.653 160.953 298.046 161.457 297.325 161.674V160.587C298.252 160.221 298.916 158.939 299.328 156.741C299.74 154.543 299.935 151.762 299.935 148.397L300.931 148.42C300.908 151.167 300.793 153.387 300.587 155.081L302.384 160.266C303.151 159.591 303.701 158.206 304.033 156.111C304.365 154.017 304.536 151.441 304.536 148.408L305.532 148.431C305.509 151.075 305.383 153.296 305.166 155.093L305.154 155.07ZM310.339 162.636H309.332V154.704H306.951V153.696H309.332V147.996H310.339V162.647V162.636Z" fill="black"/>
<path d="M319.702 150.114C320.434 151.247 320.801 152.929 320.801 155.138C320.801 157.348 320.434 159.03 319.702 160.163C318.969 161.296 317.985 161.869 316.737 161.869C315.936 161.869 315.226 161.617 314.62 161.125C314.013 160.633 313.532 159.877 313.189 158.87C312.845 157.863 312.674 156.615 312.674 155.127C312.674 153.639 312.845 152.391 313.189 151.384C313.532 150.377 314.013 149.633 314.62 149.129C315.226 148.637 315.936 148.385 316.737 148.385C317.985 148.385 318.969 148.958 319.702 150.091V150.114ZM318.935 159.419C319.484 158.458 319.77 157.027 319.77 155.15C319.77 153.273 319.496 151.842 318.935 150.881C318.374 149.919 317.653 149.427 316.737 149.427C315.821 149.427 315.089 149.908 314.528 150.881C313.967 151.853 313.693 153.273 313.693 155.15C313.693 157.027 313.967 158.458 314.528 159.419C315.089 160.381 315.81 160.873 316.737 160.873C317.664 160.873 318.385 160.392 318.935 159.419ZM324.521 156.844H326.638V157.84H324.521V162.647H323.49V147.996H324.521V151.888H326.638V152.884H324.521V156.855V156.844Z" fill="black"/>
<path d="M330.336 150.523V149.584H334.514V147.719H335.567V149.584H339.768V150.523H330.347H330.336ZM332.144 156.727C331.389 156.189 331.011 155.456 331.011 154.529C331.011 153.602 331.389 152.892 332.133 152.354C332.888 151.816 333.861 151.553 335.052 151.553C336.242 151.553 337.204 151.816 337.959 152.354C338.714 152.892 339.092 153.613 339.092 154.529C339.092 155.445 338.714 156.189 337.959 156.727C337.204 157.265 336.231 157.54 335.052 157.54C333.873 157.54 332.9 157.265 332.144 156.727ZM343.19 161.374V162.347H331.378V158.593H332.408V161.374H343.19ZM332.831 153.03C332.282 153.419 331.996 153.923 331.996 154.529C331.996 155.136 332.27 155.662 332.831 156.052C333.392 156.441 334.125 156.647 335.052 156.647C335.979 156.647 336.723 156.452 337.261 156.052C337.81 155.662 338.085 155.147 338.085 154.529C338.085 153.911 337.81 153.407 337.261 153.018C336.711 152.641 335.979 152.446 335.052 152.446C334.125 152.446 333.381 152.641 332.831 153.03ZM344.838 153.327H342.721V158.993H341.69V147.982H342.721V152.297H344.838V153.327Z" fill="black"/>
<path d="M353.33 160.472C353.994 160.335 354.543 160.163 354.955 159.946V160.953C354.532 161.171 353.994 161.342 353.33 161.468C352.666 161.594 351.991 161.663 351.315 161.663H345.855V148.614H353.868V149.61H346.886V160.678H351.35C352.002 160.678 352.654 160.61 353.33 160.484V160.472ZM357.485 155.241V162.647H356.455V147.996H357.485V154.234H359.602V155.241H357.485Z" fill="black"/>
<path d="M361.744 160.631C361.904 160.791 361.984 160.997 361.984 161.226C361.984 161.352 361.973 161.489 361.938 161.638C361.904 161.787 361.858 161.947 361.801 162.119L361.057 164.717H360.336L360.965 162.027C360.771 161.981 360.622 161.878 360.508 161.741C360.393 161.604 360.336 161.432 360.336 161.226C360.336 160.986 360.416 160.78 360.565 160.619C360.714 160.459 360.92 160.379 361.16 160.379C361.4 160.379 361.606 160.459 361.767 160.631H361.744Z" fill="black"/>
<path d="M378.192 158.158C379.211 158.548 379.726 159.177 379.726 160.024C379.726 160.94 379.165 161.604 378.032 161.993C376.91 162.393 375.468 162.6 373.716 162.6C371.965 162.6 370.523 162.405 369.401 161.993C368.28 161.592 367.707 160.94 367.707 160.024C367.707 159.177 368.222 158.548 369.241 158.158C370.26 157.769 371.587 157.552 373.201 157.506V155.755H366.814V154.816H380.63V155.755H374.243V157.506C375.857 157.54 377.173 157.758 378.203 158.158H378.192ZM370.901 152.905C369.836 153.259 368.726 153.454 367.57 153.5V152.561C368.463 152.538 369.333 152.39 370.202 152.126C371.072 151.863 371.794 151.474 372.4 150.97C372.995 150.467 373.35 149.871 373.465 149.185H367.833V148.246H379.588V149.185H374.529C374.46 149.746 374.323 150.203 374.094 150.581L379.989 152.664L379.668 153.557L373.453 151.382C372.812 152.046 371.965 152.55 370.901 152.905ZM377.207 158.788C376.269 158.536 375.101 158.41 373.716 158.41C372.331 158.41 371.164 158.536 370.214 158.788C369.264 159.04 368.795 159.452 368.795 160.024C368.795 160.596 369.275 161.031 370.237 161.295C371.198 161.558 372.354 161.684 373.716 161.684C375.079 161.684 376.235 161.558 377.185 161.295C378.135 161.031 378.615 160.608 378.615 160.024C378.615 159.44 378.146 159.04 377.207 158.788Z" fill="black"/>
<path d="M395.384 161.833H381.568V160.826H387.085V153.844H388.138V160.826H395.384V161.833ZM382.496 149.609V148.602H394.377V158.274H393.324V149.609H382.484H382.496Z" fill="black"/>
<path d="M409.908 159.476V162.99H408.878V159.476H404.471V162.99H403.441V159.476H399.778V158.503H413.594V159.476H409.908ZM400.305 150.719V149.746H406.119V147.629H407.173V149.746H413.033V150.719H400.305ZM402.606 152.608C403.647 152.162 404.998 151.944 406.68 151.944C408.363 151.944 409.725 152.173 410.767 152.608C411.808 153.043 412.335 153.718 412.335 154.588C412.335 155.458 411.808 156.122 410.767 156.568C409.725 157.015 408.363 157.232 406.68 157.232C404.998 157.232 403.647 157.015 402.606 156.568C401.564 156.122 401.049 155.458 401.049 154.588C401.049 153.718 401.564 153.054 402.606 152.608ZM409.988 153.295C409.141 153.009 408.042 152.86 406.68 152.86C405.318 152.86 404.197 153.009 403.361 153.295C402.525 153.592 402.102 154.016 402.102 154.588C402.102 155.16 402.525 155.595 403.361 155.87C404.197 156.156 405.307 156.305 406.68 156.305C408.054 156.305 409.164 156.168 410 155.87C410.835 155.572 411.259 155.16 411.259 154.588C411.259 154.016 410.835 153.581 409.988 153.295Z" fill="black"/>
<path d="M420.141 160.53C420.702 160.427 421.217 160.278 421.652 160.095V161.068C421.229 161.251 420.725 161.388 420.118 161.502C419.512 161.606 418.894 161.663 418.264 161.663H415.082V148.614H421.068V149.587H416.066V160.69H418.413C418.997 160.69 419.569 160.633 420.141 160.53ZM427.707 162.636H426.7V155.161H423.861V162.395H422.865V148.088H423.861V154.177H426.7V147.996H427.707V162.647V162.636Z" fill="black"/>
<path d="M432.331 155.504C431.553 156.123 430.637 156.523 429.596 156.683V155.676C430.889 155.447 431.919 154.783 432.663 153.696C433.419 152.609 433.819 151.178 433.865 149.415H429.767V148.465H438.673V149.415H434.895C434.861 150.457 434.735 151.338 434.518 152.071L438.982 155.756L438.387 156.58L434.151 153.032C433.716 154.062 433.11 154.886 432.331 155.516V155.504ZM442.564 162.349H430.66V157.92H431.69V161.353H442.564V162.349ZM441.168 147.984H442.198V158.893H441.168V152.597H438.043V151.624H441.168V147.984Z" fill="black"/>
<path d="M444.006 150.892V149.919H448.218V147.824H449.271V149.919H453.483V150.892H444.006ZM454.101 160.003V161.033C453.655 161.239 452.991 161.388 452.121 161.502C451.24 161.605 450.232 161.663 449.088 161.663H444.075V160.69H448.252V158C447.188 157.931 446.352 157.634 445.757 157.107C445.162 156.58 444.864 155.882 444.864 155.047C444.864 154.131 445.208 153.398 445.906 152.849C446.604 152.3 447.566 152.025 448.79 152.025C450.015 152.025 450.976 152.3 451.675 152.849C452.373 153.398 452.728 154.131 452.728 155.047C452.728 155.882 452.43 156.58 451.823 157.118C451.217 157.656 450.381 157.965 449.294 158.023V160.69C451.606 160.667 453.22 160.438 454.124 160.003H454.101ZM446.593 156.535C447.096 156.924 447.829 157.13 448.779 157.13C449.729 157.13 450.461 156.935 450.965 156.535C451.469 156.146 451.72 155.642 451.72 155.047C451.72 154.452 451.469 153.936 450.965 153.536C450.461 153.147 449.729 152.941 448.779 152.941C447.829 152.941 447.096 153.135 446.593 153.536C446.089 153.925 445.837 154.429 445.837 155.047C445.837 155.665 446.089 156.146 446.593 156.535ZM456.482 155.104V162.635H455.452V147.984H456.482V154.085H458.565V155.092H456.482V155.104Z" fill="black"/>
<path d="M466.212 157.015C465.605 158.48 464.724 159.614 463.58 160.415C462.435 161.216 461.096 161.617 459.55 161.617V160.587C460.878 160.587 462.023 160.232 463.007 159.533C463.992 158.835 464.747 157.839 465.274 156.535C465.8 155.241 466.063 153.719 466.063 151.979V149.61H459.539V148.614H467.116V151.91C467.116 153.845 466.807 155.539 466.201 157.004L466.212 157.015ZM470.585 162.635V147.984H471.615V162.635H470.585Z" fill="black"/>
<path d="M474.189 156.386V148.293H475.197V151.189H481.114V148.293H482.121V156.386H474.189ZM486.459 161.365V162.361H474.647V157.874H475.677V161.365H486.459ZM481.114 152.151H475.197V155.413H481.114V152.151ZM488.096 152.838H485.979V158.881H484.949V147.984H485.979V151.796H488.096V152.826V152.838Z" fill="black"/>
<path d="M496.476 154.589C495.583 154.715 494.576 154.783 493.443 154.783H488.956V148.351H489.986V153.81H493.512C494.633 153.81 495.618 153.742 496.488 153.616C497.358 153.49 498.021 153.307 498.514 153.066V154.062C498.044 154.291 497.358 154.474 496.476 154.6V154.589ZM500.746 156.157V162.361H489.414V156.157H490.444V158.24H499.715V156.157H500.746ZM499.715 159.167H490.444V161.422H499.715V159.167ZM500.746 151.819V155.447H499.715V147.984H500.746V150.789H502.863V151.819H500.746Z" fill="black"/>
<path d="M513.702 150.502V151.498H506.285V150.502H509.467V147.961H510.497V150.502H513.702ZM511.699 153.455C512.18 153.798 512.558 154.314 512.821 154.989C513.084 155.664 513.222 156.465 513.222 157.393C513.222 158.32 513.084 159.121 512.821 159.785C512.558 160.449 512.18 160.964 511.699 161.307C511.219 161.65 510.669 161.834 510.062 161.834C509.124 161.834 508.368 161.444 507.796 160.655C507.224 159.876 506.938 158.789 506.938 157.381C506.938 155.973 507.224 154.886 507.796 154.096C508.368 153.306 509.124 152.917 510.062 152.917C510.669 152.917 511.219 153.089 511.699 153.444V153.455ZM511.619 159.934C512.031 159.315 512.226 158.468 512.226 157.393C512.226 156.317 512.02 155.458 511.619 154.84C511.207 154.222 510.692 153.901 510.051 153.901C509.41 153.901 508.895 154.211 508.494 154.84C508.094 155.47 507.899 156.317 507.899 157.393C507.899 158.468 508.094 159.327 508.494 159.934C508.895 160.54 509.41 160.861 510.051 160.861C510.692 160.861 511.207 160.552 511.619 159.934ZM519.723 162.635H518.727V155.161H515.923V162.394H514.95V148.087H515.923V154.176H518.727V147.995H519.723V162.646V162.635Z" fill="black"/>
<path d="M528.891 150.114C529.624 151.247 529.99 152.929 529.99 155.138C529.99 157.348 529.624 159.03 528.891 160.163C528.159 161.296 527.174 161.869 525.927 161.869C525.125 161.869 524.416 161.617 523.809 161.125C523.202 160.633 522.722 159.877 522.378 158.87C522.035 157.863 521.863 156.615 521.863 155.127C521.863 153.639 522.035 152.391 522.378 151.384C522.722 150.377 523.202 149.633 523.809 149.129C524.416 148.637 525.125 148.385 525.927 148.385C527.174 148.385 528.159 148.958 528.891 150.091V150.114ZM528.124 159.419C528.674 158.458 528.96 157.027 528.96 155.15C528.96 153.273 528.685 151.842 528.124 150.881C527.563 149.919 526.842 149.427 525.927 149.427C525.011 149.427 524.278 149.908 523.718 150.881C523.157 151.853 522.882 153.273 522.882 155.15C522.882 157.027 523.157 158.458 523.718 159.419C524.278 160.381 525 160.873 525.927 160.873C526.854 160.873 527.575 160.392 528.124 159.419ZM533.71 156.844H535.828V157.84H533.71V162.647H532.68V147.996H533.71V151.888H535.828V152.884H533.71V156.855V156.844Z" fill="black"/>
<path d="M539.524 150.523V149.584H543.702V147.719H544.755V149.584H548.956V150.523H539.536H539.524ZM541.333 156.727C540.577 156.189 540.2 155.456 540.2 154.529C540.2 153.602 540.577 152.892 541.321 152.354C542.077 151.816 543.05 151.553 544.24 151.553C545.431 151.553 546.392 151.816 547.147 152.354C547.903 152.892 548.281 153.613 548.281 154.529C548.281 155.445 547.903 156.189 547.147 156.727C546.392 157.265 545.419 157.54 544.24 157.54C543.061 157.54 542.088 157.265 541.333 156.727ZM552.39 161.374V162.347H540.577V158.593H541.608V161.374H552.39ZM542.02 153.03C541.47 153.419 541.184 153.923 541.184 154.529C541.184 155.136 541.459 155.662 542.02 156.052C542.58 156.441 543.313 156.647 544.24 156.647C545.167 156.647 545.911 156.452 546.449 156.052C546.999 155.662 547.273 155.147 547.273 154.529C547.273 153.911 546.999 153.407 546.449 153.018C545.9 152.641 545.167 152.446 544.24 152.446C543.313 152.446 542.569 152.641 542.02 153.03ZM554.026 153.327H551.909V158.993H550.879V147.982H551.909V152.297H554.026V153.327Z" fill="black"/>
<path d="M562.519 160.472C563.183 160.335 563.732 160.163 564.145 159.946V160.953C563.721 161.171 563.183 161.342 562.519 161.468C561.855 161.594 561.18 161.663 560.505 161.663H555.045V148.614H563.057V149.61H556.075V160.678H560.539C561.191 160.678 561.844 160.61 562.519 160.484V160.472ZM566.674 155.241V162.647H565.644V147.996H566.674V154.234H568.792V155.241H566.674Z" fill="black"/>
<path d="M582.87 161.833H569.055V160.826H574.572V153.844H575.625V160.826H582.87V161.833ZM569.97 149.609V148.602H581.851V158.274H580.798V149.609H569.959H569.97Z" fill="black"/>
<path d="M596.606 150.525V151.52H587.587V150.525H591.57V147.949H592.623V150.525H596.606ZM594.02 153.523C594.603 153.89 595.05 154.416 595.382 155.092C595.714 155.767 595.874 156.545 595.874 157.415C595.874 158.285 595.714 159.063 595.382 159.727C595.05 160.391 594.592 160.918 594.02 161.284C593.436 161.65 592.795 161.833 592.085 161.833C591.376 161.833 590.735 161.65 590.162 161.284C589.59 160.918 589.144 160.403 588.812 159.727C588.48 159.063 588.319 158.285 588.319 157.415C588.319 156.545 588.48 155.767 588.812 155.092C589.144 154.416 589.59 153.901 590.162 153.523C590.735 153.146 591.376 152.974 592.085 152.974C592.795 152.974 593.447 153.157 594.02 153.523ZM593.47 160.437C593.894 160.151 594.226 159.75 594.477 159.224C594.729 158.697 594.855 158.102 594.855 157.415C594.855 156.728 594.729 156.122 594.477 155.595C594.226 155.069 593.894 154.657 593.47 154.37C593.047 154.084 592.589 153.936 592.074 153.936C591.559 153.936 591.101 154.073 590.677 154.37C590.254 154.657 589.922 155.069 589.67 155.595C589.418 156.122 589.292 156.728 589.292 157.415C589.292 158.102 589.418 158.709 589.67 159.224C589.922 159.75 590.254 160.151 590.677 160.437C591.101 160.723 591.559 160.872 592.074 160.872C592.589 160.872 593.047 160.735 593.47 160.437ZM599.64 155.24V162.646H598.61V147.995H599.64V154.233H601.757V155.24H599.64Z" fill="black"/>
<path d="M602.021 156.513V155.563H615.836V156.513H602.021ZM615.092 161.4V162.373H603.074V158.104H604.127V161.4H615.092ZM614.92 152.564V153.537H603.108V148.02H604.138V152.564H614.92Z" fill="black"/>
<path d="M622.554 160.506C623.115 160.381 623.63 160.209 624.065 160.014V160.987C623.642 161.205 623.138 161.376 622.531 161.491C621.925 161.617 621.306 161.674 620.677 161.674H617.323V148.625H623.47V149.598H618.319V160.701H620.837C621.421 160.701 621.993 160.644 622.566 160.506H622.554ZM626.652 148.087V162.395H625.645V155.161H621.673V154.154H625.645V148.087H626.652ZM629.948 162.635H628.941V147.984H629.948V162.635Z" fill="black"/>
<path d="M48.1201 177.129C48.8412 178.274 49.2075 179.945 49.2075 182.154C49.2075 184.363 48.8412 186.045 48.1201 187.179C47.399 188.312 46.4146 188.884 45.1784 188.884C43.9423 188.884 42.9693 188.312 42.2368 187.179C41.5157 186.034 41.1494 184.363 41.1494 182.154C41.1494 179.945 41.5157 178.262 42.2368 177.129C42.9579 175.996 43.9423 175.424 45.1784 175.424C46.4146 175.424 47.3875 175.996 48.1201 177.129ZM47.3532 186.435C47.8912 185.473 48.1659 184.042 48.1659 182.154C48.1659 180.265 47.8912 178.834 47.3532 177.873C46.8152 176.911 46.0941 176.431 45.1899 176.431C44.2856 176.431 43.5645 176.911 43.0151 177.873C42.4657 178.834 42.191 180.265 42.191 182.154C42.191 184.042 42.4657 185.473 43.0151 186.435C43.5645 187.396 44.2856 187.877 45.1899 187.877C46.0941 187.877 46.8152 187.396 47.3532 186.435ZM53.4196 189.651H52.4124V185.279H49.6653L49.7454 184.271H52.4124V179.979H49.7454L49.6653 178.949H52.4124V175H53.4196V189.651Z" fill="black"/>
<path d="M62.6801 184.031C62.0734 185.496 61.192 186.629 60.0474 187.43C58.9028 188.232 57.5635 188.632 56.0183 188.632V187.602C57.3461 187.602 58.4907 187.259 59.4751 186.549C60.4595 185.851 61.2149 184.855 61.7415 183.55C62.268 182.257 62.5313 180.734 62.5313 178.995V176.625H56.0068V175.63H63.5843V178.926C63.5843 180.86 63.2753 182.554 62.6686 184.02L62.6801 184.031ZM67.0411 189.651V175H68.0713V189.651H67.0411Z" fill="black"/>
<path d="M70.0625 183.524V182.574H83.8779V183.524H70.0625ZM83.1225 188.412V189.385H71.1041V185.115H72.1571V188.412H83.1225ZM82.9508 179.575V180.548H71.1384V175.031H72.1686V179.575H82.9508Z" fill="black"/>
<path d="M91.9468 179.266C91.592 179.998 91.1227 180.571 90.5275 180.971C89.9323 181.383 89.257 181.589 88.5244 181.601V180.651C89.0738 180.639 89.566 180.479 90.0239 180.181C90.4703 179.884 90.8365 179.449 91.0998 178.888C91.363 178.316 91.5004 177.652 91.5004 176.896V176.381H88.5244V175.466H92.4733V176.759C92.4733 177.698 92.3016 178.533 91.9468 179.266ZM101.149 188.468V189.361H89.3256V185.847H99.6844V184.05H89.2913V183.157H100.737V186.683H90.3787V188.457H101.161L101.149 188.468ZM93.2173 176.37V175.454H97.4524V176.862C97.4524 177.915 97.2463 178.819 96.8343 179.586C96.4222 180.342 95.8843 180.914 95.2204 181.303C94.5565 181.692 93.8583 181.887 93.1029 181.898V180.96C93.6523 180.948 94.1788 180.8 94.6824 180.513C95.1861 180.227 95.6096 179.792 95.9415 179.197C96.2734 178.602 96.4337 177.869 96.4337 176.988V176.358H93.2059L93.2173 176.37ZM102.752 178.934H100.726V182.219H99.6958V175.008H100.726V177.949H102.752V178.945V178.934Z" fill="black"/>
<path d="M103.026 182.198V181.248H116.842V182.198H103.026ZM108.246 180.115V176.223H103.919V175.273H109.276V180.115H108.246ZM104.057 189.386V184.007H115.823V189.386H104.057ZM114.793 184.945H105.064V188.459H114.793V184.945ZM114.77 180.115V176.223H110.192V175.273H115.777V180.115H114.77Z" fill="black"/>
<path d="M127.133 177.54V178.536H118.113V177.54H122.097V174.965H123.15V177.54H127.133ZM124.546 180.539C125.13 180.905 125.576 181.432 125.908 182.107C126.24 182.783 126.4 183.561 126.4 184.431C126.4 185.301 126.24 186.079 125.908 186.754C125.576 187.43 125.118 187.945 124.546 188.311C123.962 188.677 123.321 188.86 122.612 188.86C121.902 188.86 121.261 188.677 120.689 188.311C120.116 187.945 119.67 187.418 119.338 186.754C119.006 186.09 118.846 185.312 118.846 184.431C118.846 183.549 119.006 182.783 119.338 182.107C119.67 181.432 120.116 180.917 120.689 180.539C121.261 180.161 121.902 179.99 122.612 179.99C123.321 179.99 123.974 180.173 124.546 180.539ZM124.008 187.453C124.432 187.166 124.763 186.766 125.015 186.239C125.267 185.713 125.393 185.118 125.393 184.431C125.393 183.744 125.267 183.137 125.015 182.611C124.763 182.084 124.432 181.672 124.008 181.386C123.585 181.1 123.127 180.951 122.612 180.951C122.097 180.951 121.639 181.089 121.215 181.386C120.792 181.672 120.46 182.084 120.208 182.611C119.956 183.137 119.83 183.744 119.83 184.431C119.83 185.118 119.956 185.724 120.208 186.239C120.46 186.766 120.792 187.166 121.215 187.453C121.639 187.739 122.097 187.887 122.612 187.887C123.127 187.887 123.585 187.75 124.008 187.453ZM130.166 182.256V189.662H129.136V175.011H130.166V181.249H132.284V182.256H130.166Z" fill="black"/>
<path d="M142.299 175.103V189.411H141.292V182.2H138.373C138.041 184.157 137.4 185.725 136.462 186.881C135.512 188.049 134.344 188.632 132.959 188.632V187.625C133.886 187.614 134.699 187.259 135.397 186.561C136.095 185.862 136.633 184.889 137.011 183.665C137.389 182.429 137.572 181.021 137.572 179.43V176.648H132.959V175.652H138.591V179.372C138.591 180.094 138.556 180.712 138.499 181.204H141.303V175.114H142.311L142.299 175.103ZM145.722 189.651H144.714V175H145.722V189.651Z" fill="black"/>
<path d="M153.608 180.963C152.852 181.444 151.971 181.765 150.964 181.925V180.952C152.211 180.734 153.207 180.242 153.94 179.453C154.672 178.674 155.107 177.655 155.222 176.408H151.136V175.469H160.029V176.408H156.229C156.195 177.129 156.057 177.747 155.828 178.262L160.521 180.918L160.006 181.753L155.405 179.121C154.959 179.876 154.363 180.483 153.596 180.963H153.608ZM163.566 188.495V189.376H151.811V185.862H162.078V184.065H151.777V183.173H163.131V186.686H152.864V188.495H163.566ZM165.249 178.686H163.131V182.211H162.101V175H163.131V177.667H165.249V178.674V178.686Z" fill="black"/>
<path d="M171.681 180.998C170.914 181.536 170.033 181.902 169.025 182.108V181.112C169.941 180.906 170.731 180.517 171.406 179.933C172.07 179.35 172.574 178.651 172.917 177.827C173.26 177.003 173.444 176.122 173.455 175.172L174.462 175.229C174.462 176.259 174.302 177.221 173.97 178.113L178.434 181.112L177.885 181.936L173.501 178.983C173.054 179.796 172.448 180.471 171.692 181.009L171.681 180.998ZM182.269 189.365H170.365V185.897H180.815V184.157H170.319V183.276H181.845V186.732H171.395V188.484H182.269V189.365ZM177.038 178.48V177.484H180.815V175H181.845V182.325H180.815V178.468H177.038V178.48Z" fill="black"/>
<path d="M184.397 182.142V175.469H191.986V182.142H184.397ZM195.122 184.443C196.187 184.924 196.725 185.668 196.725 186.652C196.725 187.636 196.187 188.38 195.122 188.85C194.058 189.331 192.639 189.559 190.865 189.559C189.09 189.559 187.705 189.319 186.641 188.85C185.576 188.38 185.05 187.636 185.05 186.652C185.05 185.668 185.576 184.924 186.641 184.443C187.705 183.962 189.113 183.722 190.865 183.722C192.616 183.722 194.047 183.962 195.122 184.443ZM185.416 176.419V181.169H190.968V176.419H185.416ZM194.31 188.117C195.191 187.785 195.638 187.293 195.638 186.652C195.638 186.011 195.191 185.508 194.31 185.176C193.428 184.844 192.272 184.672 190.865 184.672C189.457 184.672 188.312 184.844 187.431 185.176C186.549 185.508 186.114 186 186.114 186.652C186.114 187.305 186.549 187.774 187.431 188.117C188.312 188.449 189.457 188.621 190.865 188.621C192.272 188.621 193.428 188.449 194.31 188.117ZM192.89 180.998V180.002H195.603V177.518H192.89V176.545H195.603V175H196.61V183.104H195.603V180.986H192.89V180.998Z" fill="black"/>
<path d="M205.619 177.518V178.513H198.202V177.518H201.384V174.977H202.414V177.518H205.619ZM203.616 180.471C204.097 180.826 204.475 181.329 204.738 182.004C205.001 182.68 205.139 183.481 205.139 184.408C205.139 185.335 205.001 186.137 204.738 186.8C204.475 187.464 204.097 187.979 203.616 188.323C203.136 188.666 202.586 188.849 201.979 188.849C201.041 188.849 200.285 188.46 199.713 187.67C199.141 186.892 198.855 185.793 198.855 184.397C198.855 183 199.141 181.901 199.713 181.112C200.285 180.322 201.041 179.933 201.979 179.933C202.586 179.933 203.136 180.104 203.616 180.459V180.471ZM203.536 186.949C203.948 186.331 204.143 185.484 204.143 184.408C204.143 183.332 203.937 182.474 203.536 181.856C203.124 181.238 202.609 180.917 201.968 180.917C201.327 180.917 200.812 181.226 200.411 181.856C200.011 182.474 199.816 183.332 199.816 184.408C199.816 185.484 200.011 186.343 200.411 186.949C200.812 187.567 201.327 187.876 201.968 187.876C202.609 187.876 203.124 187.567 203.536 186.949ZM211.64 189.65H210.644V182.176H207.84V189.41H206.867V175.102H207.84V181.192H210.644V175.011H211.64V189.662V189.65Z" fill="black"/>
<path d="M224.081 185.469V189.99H223.028V185.469H216.676V184.461H230.491V185.469H224.081ZM220.636 181.543C219.572 182.115 218.404 182.47 217.122 182.607V181.6C218.713 181.417 220.064 180.879 221.163 179.963C222.273 179.059 222.948 177.891 223.189 176.461H217.5V175.465H229.667V176.461H224.265C224.173 177.159 223.99 177.811 223.692 178.407L230.045 181.611L229.564 182.527L223.177 179.242C222.536 180.192 221.689 180.959 220.625 181.531L220.636 181.543Z" fill="black"/>
<path d="M236.821 181.57L241.537 188.014L240.713 188.644L236.512 182.829C236.043 184.569 235.402 185.954 234.6 186.973C233.799 187.991 232.849 188.564 231.762 188.69V187.636C232.746 187.453 233.57 186.801 234.257 185.656C234.944 184.512 235.459 183.047 235.814 181.261C236.168 179.475 236.34 177.53 236.363 175.412L237.416 175.435C237.393 177.758 237.199 179.807 236.821 181.582V181.57ZM244.227 189.651H243.196V175H244.227V189.651Z" fill="black"/>
<path d="M260.022 188.849H246.207V187.842H251.724V180.86H252.777V187.842H260.022V188.849ZM247.123 176.624V175.617H259.004V185.289H257.951V176.624H247.111H247.123Z" fill="black"/>
<path d="M48.5209 202.642V205.938C48.5209 207.872 48.2233 209.566 47.6395 211.032C47.0443 212.497 46.1973 213.63 45.087 214.431C43.9768 215.232 42.649 215.633 41.1152 215.633V214.603C42.443 214.603 43.5761 214.248 44.5376 213.55C45.4991 212.84 46.2316 211.844 46.7467 210.551C47.2503 209.257 47.5136 207.746 47.5136 206.007V203.637H41.1267V202.642H48.5438H48.5209ZM52.9047 209.269V216.674H51.8746V202.023H52.9047V208.262H55.0222V209.269H52.9047Z" fill="black"/>
<path d="M61.5575 208.605C60.2068 209.623 58.2839 210.138 55.8115 210.138V209.131C57.9748 209.131 59.6345 208.719 60.8135 207.884C61.981 207.048 62.5647 205.8 62.5647 204.118V203.454H55.8115V202.481H63.5949V204.003C63.5949 206.052 62.9196 207.586 61.5575 208.605ZM68.1275 211.729V216.594H67.0745V212.702H56.4868V211.729H68.1275ZM68.1848 210.768H67.1546V208.708H63.7551V207.712H67.1546V204.988H64.2931V204.015H67.1546V202.012H68.1848V210.768Z" fill="black"/>
<path d="M83.8662 215.861H70.0508V214.854H76.4034V210.71H71.058V202.641H82.8819V203.648H72.0882V209.714H83.0421V210.71H77.4564V214.854H83.8662V215.861Z" fill="black"/>
<path d="M92.2105 208.525L95.6787 214.992L94.8431 215.507L91.9472 210.035C91.3405 213.332 90.173 215.221 88.4561 215.701V214.637C89.4633 214.282 90.2074 213.137 90.711 211.203C91.2032 209.269 91.4665 206.75 91.4779 203.649H88.6506V202.653H95.198V203.649H92.4852C92.4623 205.594 92.3707 207.22 92.2219 208.536L92.2105 208.525ZM97.762 202.115V216.422H96.7661V208.788H94.3395V207.781H96.7661V202.115H97.762ZM101.425 216.663H100.418V202.012H101.425V216.663Z" fill="black"/>
<path d="M109.849 202.653C110.49 202.939 110.971 203.339 111.314 203.843C111.658 204.347 111.829 204.93 111.829 205.583C111.829 206.235 111.658 206.808 111.314 207.311C110.971 207.815 110.479 208.204 109.849 208.49C109.22 208.776 108.464 208.925 107.594 208.925C106.724 208.925 105.98 208.788 105.351 208.49C104.721 208.204 104.241 207.815 103.897 207.311C103.565 206.808 103.394 206.235 103.394 205.583C103.394 204.93 103.565 204.358 103.897 203.843C104.229 203.339 104.721 202.939 105.351 202.653C105.98 202.367 106.736 202.218 107.583 202.218C108.43 202.218 109.197 202.355 109.838 202.653H109.849ZM105.294 203.774C104.71 204.198 104.412 204.805 104.412 205.583C104.412 206.361 104.71 206.956 105.294 207.38C105.877 207.803 106.644 208.009 107.606 208.009C108.567 208.009 109.346 207.803 109.941 207.38C110.536 206.956 110.822 206.361 110.822 205.583C110.822 204.805 110.524 204.209 109.941 203.774C109.357 203.339 108.567 203.133 107.606 203.133C106.644 203.133 105.877 203.351 105.294 203.774ZM105.523 213.71V215.484H116.248V216.377H104.492V212.863H114.771V211.066H104.447V210.173H115.801V213.698H105.523V213.71ZM114.771 209.223V202.012H115.801V209.223H114.771Z" fill="black"/>
<path d="M126.194 208.731L131.001 214.912L130.177 215.541L125.908 209.967C125.473 211.615 124.878 212.932 124.111 213.916C123.344 214.9 122.451 215.484 121.421 215.69V214.626C122.291 214.42 123.035 213.824 123.653 212.829C124.271 211.833 124.752 210.551 125.072 208.96C125.393 207.38 125.576 205.595 125.599 203.626H121.707V202.63H130.498V203.626H126.629C126.617 205.492 126.469 207.197 126.194 208.719V208.731ZM134.115 216.663H133.084V208.788H129.33V207.781H133.084V202.023H134.115V216.674V216.663Z" fill="black"/>
<path d="M142.837 203.374H136.633V202.481H143.844V206.636H137.686V209.039H140.856C141.978 209.039 142.974 208.982 143.855 208.879C144.737 208.776 145.389 208.627 145.835 208.433V209.325C145.401 209.52 144.737 209.669 143.832 209.783C142.928 209.898 141.898 209.955 140.742 209.955H136.679V205.754H142.837V203.374ZM148.823 211.558V216.388H137.342V211.558H148.823ZM147.793 215.449V212.496H138.35V215.449H147.793ZM148.88 210.596H147.873V207.528H144.931V206.59H147.873V204.678H144.931V203.74H147.873V202H148.88V210.585V210.596Z" fill="black"/>
<path d="M157.889 204.529V205.525H150.472V204.529H153.654V201.988H154.684V204.529H157.889ZM155.886 207.482C156.366 207.837 156.744 208.341 157.007 209.016C157.271 209.692 157.408 210.493 157.408 211.42C157.408 212.347 157.271 213.148 157.007 213.812C156.744 214.476 156.366 214.991 155.886 215.334C155.405 215.678 154.856 215.861 154.249 215.861C153.31 215.861 152.555 215.472 151.983 214.682C151.41 213.904 151.124 212.805 151.124 211.408C151.124 210.012 151.41 208.913 151.983 208.123C152.555 207.334 153.31 206.944 154.249 206.944C154.856 206.944 155.405 207.116 155.886 207.471V207.482ZM155.806 213.961C156.218 213.343 156.412 212.496 156.412 211.408C156.412 210.321 156.206 209.474 155.806 208.856C155.394 208.238 154.878 207.917 154.237 207.917C153.596 207.917 153.081 208.226 152.681 208.856C152.28 209.474 152.086 210.332 152.086 211.408C152.086 212.484 152.28 213.343 152.681 213.961C153.081 214.579 153.596 214.888 154.237 214.888C154.878 214.888 155.394 214.579 155.806 213.961ZM163.909 216.662H162.914V209.188H160.109V216.422H159.136V202.114H160.109V208.204H162.914V202.023H163.909V216.674V216.662Z" fill="black"/>
<path d="M170.651 208.021L175.172 215.118L174.348 215.747L170.365 209.36C169.93 211.26 169.323 212.748 168.533 213.847C167.743 214.946 166.805 215.553 165.706 215.702V214.637C166.656 214.454 167.457 213.801 168.098 212.657C168.739 211.524 169.22 210.059 169.529 208.273C169.838 206.499 169.998 204.542 170.01 202.413L171.063 202.435C171.04 204.519 170.903 206.384 170.639 208.021H170.651ZM178.411 216.663H177.381V208.616H173.467V207.609H177.381V202.023H178.411V216.674V216.663Z" fill="black"/>
<path d="M191.059 211.477V217.005H190.006V211.477H183.711V210.412H197.526V211.477H191.059ZM184.707 203.464V202.457H196.439V209.004H195.386V203.476H184.707V203.464Z" fill="black"/>
<path d="M204.795 202.641V215.69H199.015V202.641H204.795ZM203.788 214.705V203.637H199.988V214.705H203.788ZM211.64 216.663H210.632V209.2H207.794V216.411H206.798V202.103H207.794V208.193H210.632V202.012H211.64V216.663Z" fill="black"/>
<path d="M213.036 204.529V203.613H216.275V201.805H217.306V203.613H220.419V204.529H213.036ZM214.524 210.149C213.917 209.657 213.608 209.004 213.608 208.169C213.608 207.333 213.917 206.681 214.524 206.189C215.131 205.696 215.898 205.445 216.813 205.445C217.729 205.445 218.496 205.696 219.103 206.189C219.709 206.681 220.018 207.345 220.018 208.169C220.018 208.993 219.709 209.657 219.103 210.149C218.496 210.641 217.729 210.881 216.813 210.881C215.898 210.881 215.131 210.641 214.524 210.149ZM222.193 215.677C221.598 216.055 220.968 216.295 220.304 216.387L217.615 214.327C217.18 214.899 216.665 215.368 216.081 215.735C215.497 216.101 214.879 216.318 214.238 216.398V215.426C214.776 215.345 215.302 215.128 215.818 214.75C216.333 214.373 216.768 213.903 217.111 213.342C217.466 212.782 217.66 212.186 217.706 211.557L218.702 211.694C218.622 212.347 218.427 212.965 218.107 213.56L220.533 215.391C221.037 215.277 221.529 215.025 221.998 214.647C222.468 214.269 222.845 213.8 223.166 213.262C223.475 212.724 223.67 212.152 223.727 211.557L224.723 211.694C224.642 212.301 224.471 212.873 224.208 213.411L227.435 215.609L226.886 216.444L223.715 214.212C223.303 214.819 222.811 215.323 222.204 215.7L222.193 215.677ZM215.188 206.864C214.776 207.207 214.581 207.642 214.581 208.18C214.581 208.718 214.787 209.142 215.188 209.485C215.589 209.828 216.138 210.012 216.813 210.012C217.489 210.012 218.027 209.84 218.439 209.485C218.851 209.13 219.045 208.695 219.045 208.18C219.045 207.665 218.851 207.207 218.45 206.864C218.05 206.52 217.5 206.349 216.813 206.349C216.127 206.349 215.6 206.52 215.188 206.864ZM221.678 211.019V202.114H222.628V205.719H225.409V202.022H226.405V211.213H225.409V206.727H222.628V211.019H221.678Z" fill="black"/>
<path d="M241.822 209.612H228.007V208.696H241.822V209.612ZM231.944 206.464C230.823 206.957 229.689 207.22 228.556 207.243V206.293C229.472 206.27 230.399 206.052 231.338 205.663C232.276 205.274 233.089 204.725 233.764 204.038C234.44 203.351 234.875 202.573 235.046 201.691L236.053 201.886C235.916 202.55 235.664 203.145 235.309 203.683L241.261 206.43L240.861 207.266L234.714 204.438C233.982 205.285 233.043 205.961 231.921 206.464H231.944ZM240.769 210.928V216.4H229.06V210.928H230.09V212.668H239.762V210.928H240.769ZM239.762 213.561H230.09V215.484H239.762V213.561Z" fill="black"/>
<path d="M251.334 214.477C251.987 214.339 252.536 214.167 252.971 213.95V214.957C252.547 215.186 252.01 215.369 251.357 215.495C250.705 215.621 250.041 215.69 249.365 215.69H243.677V202.55H244.73V214.683H249.365C250.029 214.683 250.682 214.614 251.334 214.488V214.477ZM254.505 216.686V202.012H255.558V216.663L254.505 216.686Z" fill="black"/>
<path d="M265.768 214.5C266.432 214.362 266.982 214.191 267.394 213.973V214.98C266.97 215.198 266.432 215.37 265.768 215.495C265.104 215.621 264.429 215.69 263.754 215.69H258.294V202.642H266.306V203.637H259.324V214.706H263.788C264.44 214.706 265.093 214.637 265.768 214.511V214.5ZM269.923 209.269V216.674H268.893V202.023H269.923V208.262H272.041V209.269H269.923Z" fill="black"/>
<path d="M277.935 210.46C277.615 210.276 277.26 210.002 276.871 209.647C276.527 209.338 276.241 209.12 276.001 208.972C275.761 208.823 275.497 208.754 275.211 208.754C274.742 208.754 274.364 208.926 274.078 209.269C273.792 209.613 273.632 210.07 273.609 210.643H272.888C272.922 209.784 273.151 209.12 273.563 208.651C273.975 208.182 274.513 207.941 275.154 207.941C275.589 207.941 275.967 208.033 276.276 208.228C276.585 208.422 276.939 208.697 277.329 209.052C277.695 209.372 277.992 209.601 278.21 209.738C278.427 209.876 278.691 209.944 278.977 209.944C279.458 209.944 279.847 209.773 280.121 209.429C280.396 209.086 280.556 208.617 280.579 208.033H281.3C281.266 208.891 281.037 209.555 280.625 210.025C280.213 210.505 279.675 210.734 279.034 210.734C278.611 210.734 278.244 210.643 277.924 210.46H277.935Z" fill="black"/>
<path d="M284.025 215.85C283.864 215.69 283.784 215.507 283.784 215.289C283.784 215.06 283.864 214.866 284.013 214.717C284.162 214.568 284.368 214.488 284.608 214.488C284.837 214.488 285.032 214.568 285.192 214.717C285.352 214.866 285.432 215.06 285.432 215.289C285.432 215.507 285.352 215.69 285.192 215.85C285.032 216.01 284.837 216.09 284.608 216.09C284.379 216.09 284.185 216.01 284.025 215.85ZM285.203 202.664L285.009 212.164H284.208L284.013 202.664H285.192H285.203Z" fill="black"/>
<path d="M291.441 210.413V202.321H292.437V205.183H298.366V202.321H299.374V205.835H302.613V202.023H303.643V212.92H302.613V206.854H299.374V210.425H291.441V210.413ZM304.009 216.377H292.105V211.89H293.135V215.381H304.009V216.377ZM298.366 206.133H292.437V209.429H298.366V206.133Z" fill="black"/>
<path d="M308.325 209.121C307.569 209.659 306.711 210.014 305.727 210.174V209.201C306.883 208.984 307.821 208.469 308.542 207.633C309.263 206.809 309.687 205.756 309.824 204.462H305.852V203.512H309.859V201.738H310.889V203.512H314.815V204.462H310.889C310.843 205.058 310.717 205.63 310.522 206.156L315.009 209.132L314.471 209.957L310.099 207.061C309.653 207.885 309.057 208.572 308.302 209.11L308.325 209.121ZM316.543 211.925C317.596 212.349 318.123 213.024 318.123 213.94C318.123 214.856 317.596 215.531 316.543 215.954C315.49 216.378 314.082 216.595 312.331 216.595C310.58 216.595 309.183 216.378 308.13 215.954C307.066 215.531 306.539 214.856 306.539 213.94C306.539 213.024 307.066 212.349 308.13 211.925C309.195 211.502 310.591 211.284 312.331 211.284C314.071 211.284 315.49 211.502 316.543 211.925ZM315.753 215.233C316.623 214.936 317.058 214.512 317.058 213.94C317.058 213.368 316.623 212.933 315.753 212.646C314.883 212.349 313.739 212.211 312.331 212.211C310.923 212.211 309.79 212.36 308.92 212.646C308.039 212.933 307.604 213.368 307.604 213.94C307.604 214.512 308.039 214.947 308.92 215.233C309.801 215.519 310.935 215.668 312.331 215.668C313.727 215.668 314.883 215.519 315.753 215.233ZM320.011 206.58H317.894V210.735H316.864V202.013H317.894V205.538H320.011V206.569V206.58Z" fill="black"/>
<path d="M329.626 204.552V205.548H320.606V204.552H324.59V201.977H325.643V204.552H329.626ZM327.051 207.551C327.634 207.917 328.081 208.444 328.413 209.119C328.745 209.794 328.905 210.573 328.905 211.442C328.905 212.312 328.745 213.091 328.413 213.755C328.081 214.418 327.623 214.945 327.051 215.311C326.467 215.678 325.826 215.861 325.116 215.861C324.407 215.861 323.766 215.678 323.193 215.311C322.621 214.945 322.175 214.418 321.843 213.755C321.511 213.091 321.35 212.312 321.35 211.442C321.35 210.573 321.511 209.783 321.843 209.119C322.175 208.455 322.621 207.929 323.193 207.551C323.766 207.173 324.407 207.001 325.116 207.001C325.826 207.001 326.478 207.185 327.051 207.551ZM326.501 214.464C326.925 214.178 327.257 213.778 327.508 213.251C327.76 212.724 327.886 212.129 327.886 211.442C327.886 210.756 327.76 210.149 327.508 209.623C327.257 209.096 326.925 208.684 326.501 208.398C326.078 208.112 325.62 207.963 325.105 207.963C324.59 207.963 324.132 208.1 323.708 208.398C323.285 208.684 322.953 209.096 322.701 209.623C322.449 210.149 322.323 210.756 322.323 211.442C322.323 212.129 322.449 212.736 322.701 213.251C322.953 213.778 323.285 214.178 323.708 214.464C324.132 214.75 324.59 214.899 325.105 214.899C325.62 214.899 326.078 214.762 326.501 214.464ZM332.659 209.268V216.673H331.629V202.022H332.659V208.26H334.777V209.268H332.659Z" fill="black"/>
<path d="M339.149 208.559L342.606 214.946L341.771 215.484L338.875 210.104C338.577 211.707 338.142 212.966 337.547 213.87C336.952 214.774 336.185 215.381 335.246 215.69V214.602C336.437 214.133 337.272 212.886 337.73 210.86C338.199 208.834 338.44 206.018 338.463 202.412L339.458 202.435C339.458 204.839 339.355 206.876 339.149 208.559ZM344.781 202.115V216.422H343.774V208.319H341.233V207.311H343.774V202.126H344.781V202.115ZM348.215 216.663H347.208V202.012H348.215V216.663Z" fill="black"/>
<path d="M363.62 215.862H349.805V214.867H353.239V210.437C352.369 210.071 351.705 209.567 351.247 208.938C350.778 208.308 350.549 207.564 350.549 206.717C350.549 205.87 350.801 205.08 351.316 204.428C351.831 203.775 352.54 203.272 353.467 202.917C354.395 202.562 355.482 202.379 356.707 202.379C357.931 202.379 359.019 202.562 359.946 202.917C360.873 203.272 361.594 203.775 362.098 204.428C362.601 205.08 362.865 205.836 362.865 206.717C362.865 207.598 362.636 208.308 362.166 208.938C361.697 209.567 361.045 210.071 360.186 210.437V214.867H363.597V215.862H363.62ZM354.051 203.798C353.284 204.073 352.701 204.462 352.277 204.977C351.854 205.492 351.648 206.076 351.648 206.728C351.648 207.381 351.854 207.999 352.277 208.503C352.701 209.006 353.284 209.407 354.051 209.682C354.818 209.956 355.699 210.094 356.718 210.094C357.737 210.094 358.63 209.956 359.385 209.682C360.152 209.407 360.736 209.018 361.159 208.503C361.583 207.987 361.789 207.404 361.789 206.728C361.789 206.053 361.583 205.481 361.159 204.977C360.736 204.474 360.152 204.073 359.385 203.798C358.618 203.524 357.737 203.386 356.718 203.386C355.699 203.386 354.807 203.524 354.051 203.798ZM359.179 214.878V210.792C358.458 210.986 357.634 211.078 356.718 211.078C355.802 211.078 355.001 210.986 354.28 210.792V214.878H359.179Z" fill="black"/>
<path d="M96.9029 28.4805H45.5557C42.907 28.4805 40.7598 30.6278 40.7598 33.2766V84.626C40.7598 87.2748 42.907 89.4221 45.5557 89.4221H96.9029C99.5516 89.4221 101.699 87.2748 101.699 84.626V33.2766C101.699 30.6278 99.5516 28.4805 96.9029 28.4805Z" fill="#4AB65B"/>
<path d="M76.5059 59.9921L65.5176 44.2188H56.418V73.6823H65.9526V57.9203L76.9294 73.6823H86.029V44.2188H76.5059V59.9921Z" fill="white"/>
<path d="M122.931 52.7326V53.7513C122.519 53.9459 122.004 54.0947 121.386 54.1977C120.779 54.3007 120.127 54.358 119.451 54.358H116.018V40.9775H117.036V53.3393H119.612C120.962 53.3393 122.073 53.1332 122.931 52.7326ZM125.564 40.4624V55.0905H124.533V47.1698H120.356V46.1397H124.533V40.4624H125.564ZM128.929 55.3423H127.899V40.3594H128.929V55.3423Z" fill="black"/>
<path d="M138.052 41.5498C138.681 42.0534 139.173 42.8203 139.528 43.8504C139.883 44.8806 140.066 46.1511 140.066 47.6734C140.066 49.1958 139.883 50.4663 139.528 51.4964C139.173 52.5266 138.681 53.2935 138.052 53.7971C137.422 54.3007 136.689 54.564 135.854 54.564C134.583 54.564 133.565 53.9802 132.798 52.8127C132.031 51.6452 131.642 49.9398 131.642 47.6734C131.642 45.4071 132.019 43.7016 132.798 42.5341C133.565 41.3666 134.583 40.7829 135.854 40.7829C136.689 40.7829 137.422 41.0347 138.052 41.5498ZM133.553 43.3125C132.969 44.2968 132.672 45.7619 132.672 47.6849C132.672 49.6078 132.969 51.0615 133.553 52.0573C134.137 53.0531 134.904 53.5338 135.854 53.5338C136.804 53.5338 137.548 53.0417 138.12 52.0573C138.693 51.0729 138.99 49.6078 138.99 47.6849C138.99 45.7619 138.704 44.3083 138.12 43.3125C137.536 42.3167 136.781 41.8359 135.854 41.8359C134.927 41.8359 134.137 42.3281 133.553 43.3125ZM142.939 55.3423V40.3594H144.015V55.3423H142.939Z" fill="black"/>
<path d="M159.548 55.3423H158.472V47.8566H154.923V54.3465H147.197V40.8516H148.25V46.4144H153.87V40.8516H154.923V46.815H158.472V40.3594H159.548V55.3423ZM153.882 47.4216H148.262V53.3278H153.882V47.4216Z" fill="black"/>
<path d="M174.004 41.0118V45.0523C174.004 46.9523 173.672 48.5891 173.02 49.9855C172.367 51.3705 171.452 52.4465 170.284 53.179C169.117 53.923 167.777 54.2893 166.267 54.2893V53.2591C167.926 53.2591 169.323 52.767 170.456 51.7826C171.589 50.7982 172.333 49.4018 172.699 47.5933H166.267V46.5746H172.86C172.917 46.2656 172.94 45.7619 172.94 45.0752V42.0191H166.267V41.0004H174.004V41.0118ZM178.331 47.7765V55.3423H177.278V40.3594H178.331V46.7349H180.494V47.765H178.331V47.7765Z" fill="black"/>
<path d="M189.17 52.5266V53.5567C188.22 54.0718 186.514 54.3351 184.065 54.3351H181.043V53.3393H182.588V41.9847H181.146V40.9889H188.517V41.9847H187.041V53.1561C187.865 53.0417 188.575 52.8242 189.181 52.5151L189.17 52.5266ZM186.056 53.2706V41.9962H183.561V53.3507C184.694 53.3507 185.518 53.3278 186.056 53.2706ZM191.402 40.4624V55.0905H190.383V47.7765H188.311V46.7463H190.383V40.4624H191.402ZM194.572 55.3423H193.554V40.3594H194.572V55.3423Z" fill="black"/>
<path d="M201.132 44.1372C200.96 43.977 200.88 43.771 200.88 43.5192C200.88 43.2902 200.96 43.0842 201.132 42.924C201.303 42.7637 201.498 42.6836 201.738 42.6836C201.979 42.6836 202.173 42.7637 202.345 42.924C202.517 43.0842 202.597 43.2902 202.597 43.5192C202.597 43.771 202.517 43.9656 202.345 44.1372C202.173 44.2975 201.979 44.3776 201.738 44.3776C201.498 44.3776 201.303 44.2975 201.132 44.1372ZM201.132 52.7791C200.96 52.6188 200.88 52.4128 200.88 52.161C200.88 51.9092 200.96 51.726 201.132 51.5658C201.303 51.4055 201.498 51.3254 201.738 51.3254C201.979 51.3254 202.173 51.4055 202.345 51.5658C202.517 51.726 202.597 51.9206 202.597 52.161C202.597 52.4128 202.517 52.6074 202.345 52.7791C202.173 52.9393 201.979 53.0194 201.738 53.0194C201.498 53.0194 201.303 52.9393 201.132 52.7791Z" fill="black"/>
<path d="M215.816 51.1524H221.276V55.273H220.223V52.1139H209.143V51.1639H214.763V49.1608H208.228V48.1993H222.352V49.1608H215.816V51.1639V51.1524ZM209.338 46.5053V40.4961H210.391V42.5449H220.2V40.4961H221.253V46.5053H209.338ZM220.2 43.4492H210.391V45.5896H220.2V43.4492Z" fill="black"/>
<path d="M229.906 45.0638L229.54 45.7048L227.022 44.2626L227.045 47.1127H226.324V44.2855L223.828 45.7048L223.474 45.0638L225.946 43.6559L223.474 42.2481L223.828 41.6071L226.324 43.0493V40.1992H227.045L227.022 43.0493L229.54 41.6071L229.906 42.2481L227.411 43.6559L229.906 45.0638Z" fill="black"/>
<path d="M237.267 45.0638L236.9 45.7048L234.382 44.2626L234.405 47.1127H233.684V44.2855L231.189 45.7048L230.834 45.0638L233.306 43.6559L230.834 42.2481L231.189 41.6071L233.684 43.0493V40.1992H234.405L234.382 43.0493L236.9 41.6071L237.267 42.2481L234.771 43.6559L237.267 45.0638Z" fill="black"/>
<path d="M238.983 47.662V40.8401H247.099V47.662H238.983ZM251.036 49.4934V55.0562H239.453V49.4934H251.036ZM240.036 41.8016V46.6776H246.057V41.8016H240.036ZM249.983 54.0947V50.4663H240.506V54.0947H249.983ZM251.036 44.7661V48.509H249.983V40.3594H251.036V43.7131H253.199V44.7661H251.036Z" fill="black"/>
<path d="M262.151 41.0118V45.0523C262.151 46.9523 261.819 48.5891 261.166 49.9855C260.514 51.3705 259.598 52.4465 258.431 53.179C257.263 53.923 255.924 54.2893 254.413 54.2893V53.2591C256.073 53.2591 257.469 52.767 258.602 51.7826C259.736 50.7982 260.48 49.4018 260.846 47.5933H254.413V46.5746H261.006C261.063 46.2656 261.086 45.7619 261.086 45.0752V42.0191H254.413V41.0004H262.151V41.0118ZM266.477 47.7765V55.3423H265.424V40.3594H266.477V46.7349H268.641V47.765H266.477V47.7765Z" fill="black"/>
<path d="M277.316 52.5266V53.5567C276.366 54.0718 274.661 54.3351 272.211 54.3351H269.189V53.3393H270.735V41.9847H269.292V40.9889H276.664V41.9847H275.187V53.1561C276.011 53.0417 276.721 52.8242 277.328 52.5151L277.316 52.5266ZM274.203 53.2706V41.9962H271.708V53.3507C272.841 53.3507 273.665 53.3278 274.203 53.2706ZM279.537 40.4624V55.0905H278.518V47.7765H276.446V46.7463H278.518V40.4624H279.537ZM282.719 55.3423H281.7V40.3594H282.719V55.3423Z" fill="black"/>
<path d="M126.171 78.5462H124.396V76.4515C123.996 77.1497 123.469 77.6992 122.817 78.0769C122.153 78.466 121.409 78.6492 120.573 78.6492C119.612 78.6492 118.742 78.4203 117.964 77.951C117.185 77.4817 116.567 76.8293 116.121 75.9822C115.675 75.1352 115.457 74.1738 115.457 73.0864C115.457 71.999 115.675 71.0375 116.121 70.1905C116.567 69.3435 117.185 68.6911 117.964 68.2218C118.742 67.7525 119.612 67.5236 120.573 67.5236C121.386 67.5236 122.119 67.7067 122.771 68.0844C123.424 68.4507 123.939 68.9887 124.328 69.664V63.2656H126.182V78.5347L126.171 78.5462ZM122.634 76.5431C123.172 76.2226 123.595 75.7648 123.904 75.1581C124.213 74.5515 124.362 73.8762 124.362 73.0864C124.362 72.2966 124.213 71.6327 123.904 71.0375C123.595 70.4423 123.172 69.9845 122.634 69.6525C122.096 69.3321 121.501 69.1718 120.848 69.1718C120.196 69.1718 119.578 69.3321 119.04 69.6525C118.502 69.973 118.09 70.4309 117.781 71.0375C117.472 71.6442 117.323 72.3195 117.323 73.0864C117.323 73.8533 117.472 74.5629 117.781 75.1581C118.09 75.7533 118.502 76.2112 119.04 76.5431C119.578 76.8636 120.173 77.0238 120.848 77.0238C121.523 77.0238 122.107 76.8636 122.634 76.5431Z" fill="black"/>
<path d="M131.172 63.2773V78.5464H129.317V63.2773H131.172Z" fill="black"/>
<path d="M134.904 78.2828C134.126 78.0424 133.508 77.7334 133.05 77.3442L133.725 75.9249C134.16 76.2797 134.709 76.5773 135.373 76.7948C136.037 77.0237 136.713 77.1382 137.411 77.1382C138.292 77.1382 138.933 77.0008 139.357 76.7032C139.78 76.4056 139.986 76.0164 139.986 75.5128C139.986 75.158 139.872 74.8718 139.631 74.6658C139.402 74.4598 139.105 74.311 138.761 74.208C138.418 74.1164 137.926 74.0019 137.296 73.876C136.449 73.7158 135.763 73.5441 135.247 73.3724C134.732 73.2007 134.286 72.9031 133.92 72.491C133.553 72.079 133.359 71.4838 133.359 70.7283C133.359 69.7783 133.737 69.0114 134.481 68.4162C135.225 67.821 136.278 67.5234 137.64 67.5234C138.326 67.5234 139.013 67.615 139.689 67.7981C140.364 67.9813 140.925 68.2331 141.371 68.5536L140.696 69.9729C139.837 69.3548 138.819 69.0458 137.651 69.0458C136.816 69.0458 136.186 69.1946 135.774 69.5036C135.362 69.8012 135.156 70.2018 135.156 70.6826C135.156 71.0488 135.27 71.3464 135.511 71.5639C135.751 71.7814 136.049 71.9531 136.404 72.0561C136.758 72.1706 137.251 72.2736 137.88 72.388C138.693 72.5368 139.357 72.7085 139.86 72.8917C140.375 73.0748 140.81 73.3724 141.177 73.773C141.543 74.1736 141.726 74.7459 141.726 75.467C141.726 76.4285 141.337 77.1954 140.558 77.7677C139.78 78.34 138.693 78.6262 137.296 78.6262C136.461 78.6262 135.648 78.5117 134.87 78.2713L134.904 78.2828Z" fill="black"/>
<path d="M149.99 68.4624L149.349 69.5498L146.854 68.0847L146.876 70.889H145.64L145.663 68.0847L143.168 69.5498L142.55 68.4624L145.022 67.0889L142.55 65.7039L143.168 64.6165L145.663 66.0816L145.64 63.2773H146.876L146.854 66.0816L149.349 64.6165L149.99 65.7039L147.517 67.0889L149.99 68.4624Z" fill="black"/>
<path d="M158.219 68.4624L157.578 69.5498L155.083 68.0847L155.106 70.889H153.87L153.893 68.0847L151.397 69.5498L150.779 68.4624L153.252 67.0889L150.779 65.7039L151.397 64.6165L153.893 66.0816L153.87 63.2773H155.106L155.083 66.0816L157.578 64.6165L158.219 65.7039L155.747 67.0889L158.219 68.4624Z" fill="black"/>
<path d="M166.449 68.4624L165.808 69.5498L163.313 68.0847L163.335 70.889H162.099L162.122 68.0847L159.627 69.5498L159.009 68.4624L161.481 67.0889L159.009 65.7039L159.627 64.6165L162.122 66.0816L162.099 63.2773H163.335L163.313 66.0816L165.808 64.6165L166.449 65.7039L163.976 67.0889L166.449 68.4624Z" fill="black"/>
<path d="M177.952 78.5454H176.201V76.5881C175.835 77.2405 175.342 77.7556 174.724 78.1104C174.106 78.4653 173.397 78.6484 172.584 78.6484C171.256 78.6484 170.192 78.2478 169.414 77.4466C168.635 76.6454 168.246 75.4778 168.246 73.9326V67.6602H170.1V73.6694C170.1 74.7567 170.352 75.5694 170.844 76.1303C171.336 76.6911 172.035 76.9658 172.939 76.9658C173.912 76.9658 174.69 76.6453 175.262 76.0044C175.835 75.3634 176.132 74.4591 176.132 73.2916V67.6716H177.963V78.5568L177.952 78.5454Z" fill="black"/>
<path d="M189.457 74.9379V78.5435H187.499V74.9379H179.476V73.5758L186.858 64.1328H188.999L181.914 73.2668H187.534V70.0962H189.445V73.2668H192.181V74.9379H189.445H189.457Z" fill="black"/>
<path d="M199.585 68.4624L198.944 69.5498L196.449 68.0847L196.472 70.889H195.236L195.259 68.0847L192.764 69.5498L192.146 68.4624L194.618 67.0889L192.146 65.7039L192.764 64.6165L195.259 66.0816L195.236 63.2773H196.472L196.449 66.0816L198.944 64.6165L199.585 65.7039L197.113 67.0889L199.585 68.4624Z" fill="black"/>
<path d="M207.815 68.4624L207.174 69.5498L204.679 68.0847L204.702 70.889H203.465L203.488 68.0847L200.993 69.5498L200.375 68.4624L202.847 67.0889L200.375 65.7039L200.993 64.6165L203.488 66.0816L203.465 63.2773H204.702L204.679 66.0816L207.174 64.6165L207.815 65.7039L205.343 67.0889L207.815 68.4624Z" fill="black"/>
<path d="M216.044 68.4624L215.403 69.5498L212.908 68.0847L212.931 70.889H211.695L211.718 68.0847L209.223 69.5498L208.604 68.4624L211.077 67.0889L208.604 65.7039L209.223 64.6165L211.718 66.0816L211.695 63.2773H212.931L212.908 66.0816L215.403 64.6165L216.044 65.7039L213.572 67.0889L216.044 68.4624Z" fill="black"/>
<path d="M230.411 69.2181C231.223 69.0921 231.853 68.9205 232.322 68.703V70.3856C231.864 70.603 231.223 70.7747 230.399 70.9006C229.575 71.0265 228.648 71.0838 227.629 71.0838H221.826V63.6896H223.703V69.3897H227.698C228.705 69.3897 229.61 69.3325 230.411 69.2066V69.2181ZM222.421 79.0617V72.7663H235.241V79.0617H222.421ZM233.375 74.426H224.276V77.3906H233.375V74.426ZM233.375 71.8392V63.4492H235.252V71.8392H233.375Z" fill="black"/>
<path d="M249.983 76.3819V79.6097H248.094V76.3819H241.524V74.6306H256.553V76.3819H249.983ZM242.074 66.6298V64.9472H248.06V63.0586H249.949V64.9472H255.98V66.6298H242.074ZM244.5 68.3467C245.645 67.8431 247.156 67.5913 249.033 67.5913C250.91 67.5913 252.432 67.8431 253.577 68.3467C254.721 68.8503 255.305 69.5943 255.305 70.5787C255.305 71.563 254.733 72.307 253.577 72.8107C252.421 73.3143 250.91 73.5661 249.033 73.5661C247.156 73.5661 245.645 73.3143 244.5 72.8107C243.356 72.307 242.783 71.563 242.783 70.5787C242.783 69.5943 243.356 68.8503 244.5 68.3467ZM252.203 69.5371C251.391 69.2967 250.338 69.1823 249.033 69.1823C247.728 69.1823 246.675 69.2967 245.874 69.5371C245.073 69.7775 244.672 70.1208 244.672 70.5787C244.672 71.0365 245.073 71.3914 245.862 71.6317C246.652 71.8607 247.717 71.9866 249.033 71.9866C250.349 71.9866 251.414 71.8721 252.215 71.6317C253.016 71.4028 253.417 71.048 253.417 70.5787C253.417 70.1094 253.016 69.7775 252.203 69.5371Z" fill="black"/>
<path d="M265.882 73.3498C265.207 74.9179 264.234 76.1312 262.975 76.9897C261.716 77.8481 260.228 78.2716 258.534 78.2716V76.4174C259.862 76.4174 261.018 76.074 261.991 75.3758C262.964 74.689 263.708 73.6932 264.223 72.4112C264.738 71.1293 264.99 69.6184 264.99 67.8786V65.7611H258.522V63.9869H266.901V67.8328C266.901 69.9274 266.558 71.7703 265.882 73.3384V73.3498ZM270.049 79.2446V63.4375H271.926V79.2446H270.049Z" fill="black"/>
<path d="M49.5044 121.667V128.329H48.2453V121.667H40.668V120.385H57.2992V121.667H49.5158H49.5044ZM41.8584 112.018V110.805H55.9943V118.691H54.7352V112.029H41.8698L41.8584 112.018Z" fill="#17544F"/>
<path d="M66.468 111.021V126.737H59.5088V111.021H66.468ZM65.2433 125.546V112.223H60.6763V125.546H65.2433ZM74.7092 127.916H73.4959V118.93H70.0735V127.618H68.8831V110.38H70.0735V117.706H73.4959V110.266H74.7092V127.916Z" fill="#17544F"/>
<path d="M93.8005 124.105V128.329H92.5643V124.105H87.2533V128.329H86.0171V124.105H81.6104V122.938H98.2415V124.105H93.8119H93.8005ZM82.2513 113.552V112.385H89.2563V109.832H90.5154V112.385H97.5662V113.552H82.2399H82.2513ZM85.0098 115.83C86.2575 115.292 87.8943 115.029 89.9202 115.029C91.9462 115.029 93.583 115.292 94.8421 115.83C96.1011 116.368 96.7307 117.158 96.7307 118.222C96.7307 119.287 96.1011 120.076 94.8421 120.614C93.583 121.152 91.9462 121.415 89.9202 121.415C87.8943 121.415 86.2575 121.152 85.0098 120.614C83.7622 120.076 83.1327 119.287 83.1327 118.222C83.1327 117.158 83.7622 116.368 85.0098 115.83ZM93.9035 116.654C92.8848 116.299 91.557 116.127 89.9202 116.127C88.2834 116.127 86.9328 116.299 85.9255 116.654C84.9183 117.009 84.4032 117.524 84.4032 118.222C84.4032 118.92 84.9068 119.424 85.9255 119.779C86.9328 120.122 88.272 120.294 89.9202 120.294C91.5685 120.294 92.9077 120.122 93.9149 119.779C94.9222 119.435 95.4372 118.92 95.4372 118.222C95.4372 117.524 94.9222 117.009 93.9149 116.654H93.9035Z" fill="#17544F"/>
<path d="M106.541 125.374C107.228 125.249 107.835 125.077 108.373 124.859V126.027C107.869 126.244 107.251 126.416 106.518 126.542C105.786 126.668 105.042 126.737 104.275 126.737H100.44V111.021H107.651V112.189H101.631V125.558H104.458C105.168 125.558 105.854 125.489 106.541 125.363V125.374ZM115.652 127.916H114.439V118.907H111.017V127.618H109.826V110.38H111.017V117.706H114.439V110.266H115.652V127.916Z" fill="#17544F"/>
<path d="M134.629 121.414H117.998V120.27H125.69V117.786H119.005V116.664H122.199V111.696H119.188V110.598H133.439V111.696H130.429V116.664H133.599V117.786H126.937V120.27H134.629V121.414ZM133.736 126.462V127.584H119.257V122.971H120.516V126.462H133.725H133.736ZM129.192 116.653V111.685H123.446V116.653H129.192Z" fill="#17544F"/>
<path d="M141.577 114.717C141.382 114.523 141.279 114.282 141.279 113.996C141.279 113.71 141.382 113.481 141.577 113.298C141.771 113.103 142.012 113.012 142.287 113.012C142.561 113.012 142.802 113.103 142.996 113.298C143.191 113.492 143.294 113.721 143.294 113.996C143.294 114.282 143.191 114.523 142.996 114.717C142.802 114.912 142.561 115.003 142.287 115.003C142.012 115.003 141.771 114.912 141.577 114.717ZM141.577 124.893C141.382 124.698 141.279 124.458 141.279 124.172C141.279 123.886 141.382 123.657 141.577 123.473C141.771 123.279 142.012 123.187 142.287 123.187C142.561 123.187 142.802 123.279 142.996 123.473C143.191 123.668 143.294 123.897 143.294 124.172C143.294 124.458 143.191 124.698 142.996 124.893C142.802 125.087 142.561 125.179 142.287 125.179C142.012 125.179 141.771 125.087 141.577 124.893Z" fill="#17544F"/>
<path d="M156.537 116C155.93 116.927 155.106 117.625 154.041 118.106C152.977 118.587 151.775 118.816 150.413 118.816V117.671C152.164 117.66 153.561 117.225 154.625 116.366C155.69 115.508 156.228 114.295 156.228 112.738V111.96H150.413V110.838H157.441V112.704C157.441 113.986 157.143 115.096 156.537 116.023V116ZM166.323 127.572H151.523V123.463H164.549V121.483H151.478V120.43H165.797V124.424H152.748V126.519H166.323V127.572ZM159.833 119.113V110.38H161.024V113.825H164.56V110.266H165.774V119.297H164.56V115.027H161.024V119.113H159.833Z" fill="#17544F"/>
<path d="M176.59 111.926H168.921V110.827H177.837V116.161H170.191V119.331H174.232C175.548 119.331 176.727 119.251 177.769 119.091C178.81 118.931 179.634 118.702 180.23 118.416V119.537C179.68 119.812 178.868 120.029 177.78 120.19C176.704 120.35 175.468 120.43 174.095 120.43H168.967V115.073H176.59V111.926ZM183.663 122.467V127.824H182.427V123.624H169.585V122.479H183.675L183.663 122.467ZM183.663 121.323H182.427V115.348H179.119V114.18H182.427V110.277H183.663V121.334V121.323Z" fill="#17544F"/>
<path d="M192.81 118.175L198.487 125.935L197.503 126.691L192.444 119.686C191.871 121.78 191.116 123.452 190.143 124.676C189.182 125.901 188.037 126.588 186.721 126.748V125.489C187.9 125.271 188.907 124.482 189.731 123.097C190.555 121.712 191.185 119.949 191.608 117.797C192.032 115.645 192.249 113.299 192.261 110.758L193.52 110.781C193.485 113.585 193.256 116.046 192.81 118.175ZM201.727 127.916H200.49V110.266H201.727V127.916Z" fill="#17544F"/>
<path d="M221.321 127.136H208.982V126.267L219.456 112.154H209.097V111.055H221.07V111.902L210.596 126.038H221.321V127.136Z" fill="#17544F"/>
<path d="M239.155 119.297H222.523V118.221H239.155V119.297ZM223.531 116.332V115.279H226.724V111.651H223.714V110.598H237.964V111.651H234.954V115.279H238.124V116.332H223.531ZM238.262 126.599V127.584H223.76V123.864H236.717V122.112H223.714V121.128H237.941V124.802H224.961V126.599H238.262ZM233.706 115.279V111.651H227.96V115.279H233.706Z" fill="#17544F"/>
<path d="M250.132 111.902H241.559V110.826H251.345V115.748H242.841V118.53H247.27C248.598 118.53 249.788 118.45 250.841 118.301C251.894 118.152 252.707 117.935 253.291 117.66V118.759C252.719 119.033 251.917 119.251 250.853 119.4C249.8 119.548 248.575 119.629 247.202 119.629H241.593V114.684H250.12V111.902H250.132ZM256.107 120.979V127.572H242.257V120.979H243.493V123.12H254.87V120.979H256.107ZM254.87 124.173H243.493V126.473H254.87V124.173ZM256.107 120.144H254.87V110.266H256.107V120.144Z" fill="#17544F"/>
<path d="M268.514 118.21C269.327 118.599 269.957 119.16 270.414 119.881C270.861 120.602 271.09 121.438 271.09 122.388C271.09 123.338 270.861 124.208 270.392 124.952C269.922 125.696 269.281 126.268 268.469 126.669C267.656 127.069 266.74 127.264 265.71 127.264C263.615 127.264 262.002 126.554 260.88 125.135C259.758 123.716 259.197 121.735 259.197 119.194C259.197 117.42 259.495 115.909 260.09 114.685C260.685 113.448 261.521 112.521 262.608 111.892C263.684 111.262 264.943 110.953 266.385 110.953C267.931 110.953 269.155 111.239 270.06 111.8L269.556 112.762C268.789 112.269 267.736 112.029 266.408 112.029C264.611 112.029 263.192 112.601 262.15 113.757C261.097 114.902 260.548 116.573 260.502 118.748C260.502 119.595 260.559 120.327 260.662 120.98C260.971 119.938 261.578 119.126 262.494 118.53C263.409 117.947 264.474 117.649 265.699 117.649C266.752 117.649 267.69 117.844 268.503 118.233L268.514 118.21ZM268.686 125.169C269.464 124.471 269.842 123.555 269.842 122.422C269.842 121.289 269.453 120.35 268.686 119.664C267.908 118.977 266.855 118.633 265.527 118.633C264.669 118.633 263.902 118.805 263.238 119.137C262.574 119.469 262.059 119.938 261.693 120.522C261.326 121.106 261.143 121.758 261.143 122.479C261.143 123.12 261.315 123.727 261.67 124.311C262.024 124.883 262.54 125.352 263.215 125.696C263.902 126.051 264.714 126.222 265.664 126.222C266.901 126.222 267.908 125.879 268.686 125.181V125.169Z" fill="#17544F"/>
<path d="M435.226 288.008H39.8779V289.152H435.226V288.008Z" fill="#CBCBCB"/>
<path d="M466.577 296.386H450.805V295.23H457.1V287.252H458.302V295.23H466.577V296.386ZM451.858 282.422V281.266H465.433V292.311H464.231V282.422H451.858Z" fill="#989898"/>
<path d="M474.326 287.148C473.754 288.133 472.964 288.888 471.957 289.403C470.95 289.918 469.805 290.181 468.512 290.181V289.071C469.588 289.06 470.538 288.842 471.373 288.419C472.209 287.995 472.861 287.377 473.319 286.564C473.777 285.752 474.017 284.79 474.017 283.669V282.192H468.512V281.105H475.173V283.634C475.173 284.996 474.887 286.175 474.315 287.16L474.326 287.148ZM483.094 291.99V297.221H481.915V293.077H469.416V291.99H483.094ZM483.094 290.903H481.938V285.832H478.584V290.731H477.451V280.693H478.584V284.676H481.938V280.578H483.094V290.903Z" fill="#989898"/>
<path d="M495.033 287.171C496.017 287.022 496.796 286.828 497.368 286.564V287.698C496.83 287.961 496.052 288.167 495.033 288.304C494.014 288.453 492.858 288.522 491.565 288.522H486.162V280.99H487.341V287.4H491.656C492.915 287.4 494.048 287.331 495.033 287.183V287.171ZM486.78 296.98V290.731H499.92V296.98H486.78ZM498.73 291.841H487.948V295.893H498.73V291.841ZM498.73 289.483V280.578H499.909V289.483H498.73Z" fill="#989898"/>
<path d="M512.133 295.977C511.114 296.126 509.935 296.194 508.607 296.194H502.575V295.038H508.722C510.015 295.038 511.16 294.97 512.167 294.821C513.174 294.672 513.941 294.466 514.502 294.191V295.347C513.953 295.622 513.163 295.839 512.144 295.977H512.133ZM510.484 281.726C511.217 282.173 511.789 282.779 512.201 283.569C512.613 284.348 512.819 285.24 512.819 286.248C512.819 287.255 512.613 288.125 512.201 288.903C511.789 289.693 511.217 290.299 510.484 290.746C509.752 291.192 508.916 291.41 507.989 291.41C507.062 291.41 506.227 291.192 505.494 290.746C504.761 290.299 504.189 289.693 503.777 288.903C503.365 288.113 503.159 287.232 503.159 286.248C503.159 285.263 503.365 284.348 503.777 283.569C504.189 282.779 504.761 282.173 505.494 281.726C506.227 281.28 507.062 281.062 507.989 281.062C508.916 281.062 509.752 281.28 510.484 281.726ZM506.078 282.699C505.528 283.054 505.093 283.546 504.784 284.164C504.475 284.782 504.315 285.469 504.315 286.248C504.315 287.026 504.475 287.69 504.784 288.308C505.093 288.926 505.528 289.407 506.078 289.762C506.627 290.105 507.268 290.288 507.989 290.288C508.71 290.288 509.363 290.116 509.912 289.762C510.462 289.407 510.908 288.926 511.206 288.308C511.503 287.69 511.663 287.003 511.663 286.248C511.663 285.492 511.515 284.782 511.206 284.164C510.897 283.546 510.473 283.066 509.912 282.699C509.351 282.333 508.71 282.161 507.989 282.161C507.268 282.161 506.627 282.344 506.078 282.699ZM516.047 297.305V280.57H517.203V297.305H516.047Z" fill="#989898"/>
<path d="M527.459 287.263C526.555 287.858 525.536 288.27 524.392 288.487V287.354C525.456 287.125 526.372 286.69 527.173 286.049C527.963 285.408 528.569 284.63 528.981 283.703C529.394 282.776 529.611 281.803 529.622 280.773L530.779 280.841C530.779 282.02 530.573 283.085 530.172 284.046L535.552 287.228L534.968 288.213L529.657 285.031C529.107 285.935 528.375 286.679 527.482 287.274L527.459 287.263ZM539.226 296.98H525.616V292.974H537.532V290.925H525.571V289.907H538.734V293.913H526.795V295.985H539.237V296.992L539.226 296.98ZM537.555 288.808V280.578H538.734V288.808H537.555Z" fill="#989898"/>
<path d="M545.887 288.01L549.847 295.393L548.886 295.977L545.578 289.727C544.88 293.493 543.552 295.645 541.595 296.194V294.97C542.739 294.569 543.598 293.253 544.17 291.043C544.742 288.834 545.029 285.961 545.04 282.413H541.812V281.28H549.286V282.413H546.196C546.162 284.634 546.07 286.499 545.887 287.987V288.01ZM552.228 280.685V297.018H551.095V288.308H548.325V287.152H551.095V280.685H552.228ZM556.417 297.305H555.261V280.57H556.417V297.305Z" fill="#989898"/>
<path d="M571.424 293.755V297.692H570.222V293.755H562.942V292.621H578.715V293.755H571.412H571.424ZM563.56 283.693V282.583H570.199V280.168H571.401V282.583H578.086V283.693H563.56ZM566.182 285.857C567.361 285.342 568.917 285.078 570.829 285.078C572.74 285.078 574.297 285.33 575.487 285.857C576.678 286.372 577.273 287.139 577.273 288.157C577.273 289.176 576.678 289.92 575.487 290.435C574.297 290.95 572.74 291.213 570.829 291.213C568.917 291.213 567.361 290.95 566.182 290.435C565.003 289.92 564.407 289.165 564.407 288.157C564.407 287.15 565.003 286.372 566.182 285.857ZM574.617 286.669C573.656 286.326 572.397 286.154 570.84 286.154C569.284 286.154 568.024 286.326 567.063 286.669C566.102 287.013 565.609 287.505 565.609 288.157C565.609 288.81 566.09 289.302 567.052 289.634C568.013 289.966 569.272 290.138 570.84 290.138C572.408 290.138 573.656 289.966 574.617 289.634C575.579 289.302 576.071 288.81 576.071 288.157C576.071 287.505 575.59 287.001 574.617 286.669Z" fill="#989898"/>
<path d="M588.627 290.883C587.929 292.554 586.933 293.848 585.617 294.763C584.312 295.679 582.778 296.137 581.015 296.137V294.958C582.526 294.958 583.843 294.557 584.964 293.756C586.086 292.955 586.956 291.822 587.551 290.334C588.158 288.857 588.455 287.117 588.455 285.126V282.425H581.004V281.291H589.657V285.057C589.657 287.266 589.314 289.201 588.616 290.872L588.627 290.883ZM593.618 297.305V280.57H594.796V297.305H593.618Z" fill="#989898"/>
<path d="M607.685 288.159L612.916 295.439L611.978 296.16L607.319 289.601C606.792 291.559 606.083 293.115 605.179 294.26C604.274 295.404 603.21 296.057 601.974 296.194V294.992C603.095 294.786 604.034 294.031 604.801 292.726C605.568 291.421 606.14 289.75 606.518 287.713C606.895 285.675 607.09 283.455 607.101 281.028L608.303 281.051C608.269 283.798 608.063 286.167 607.674 288.159H607.685ZM615.904 288.857V297.305H614.725V280.57H615.904V287.69H618.319V288.846H615.904V288.857Z" fill="#989898"/>
<path d="M625.174 294.878C625.975 294.741 626.696 294.512 627.337 294.191V295.37C626.158 295.92 624.464 296.194 622.267 296.194H619.611V288.045H624.487V282.402H619.611V281.291H625.598V289.155H620.722V295.084H622.267C623.4 295.084 624.373 295.015 625.174 294.878ZM630.325 280.685V297.018H629.192V290.826H626.685V289.647H629.192V286.03H626.685V284.851H629.192V280.673H630.325V280.685ZM634.045 297.305H632.912V280.57H634.045V297.305Z" fill="#989898"/>
</svg>
