<svg width="677" height="334" viewBox="0 0 677 334" fill="none" xmlns="http://www.w3.org/2000/svg">
<path d="M662.621 0H13.9131C6.32725 0 0.177734 6.14977 0.177734 13.7359V320.264C0.177734 327.85 6.32725 334 13.9131 334H662.621C670.207 334 676.356 327.85 676.356 320.264V13.7359C676.356 6.14977 670.207 0 662.621 0Z" fill="white"/>
<path d="M47.6558 150.11C48.3884 151.254 48.7547 152.925 48.7547 155.135C48.7547 157.344 48.3884 159.026 47.6558 160.159C46.9233 161.304 45.9389 161.865 44.6913 161.865C43.8901 161.865 43.1804 161.613 42.5738 161.121C41.9671 160.629 41.4864 159.873 41.143 158.866C40.7996 157.859 40.6279 156.611 40.6279 155.123C40.6279 153.635 40.7996 152.387 41.143 151.38C41.4864 150.373 41.9671 149.629 42.5738 149.125C43.1804 148.633 43.8901 148.381 44.6913 148.381C45.9389 148.381 46.9233 148.954 47.6558 150.087V150.11ZM46.9004 159.415C47.4498 158.454 47.7245 157.023 47.7245 155.146C47.7245 153.269 47.4498 151.838 46.9004 150.877C46.351 149.915 45.6184 149.423 44.6913 149.423C43.7642 149.423 43.0431 149.904 42.4936 150.877C41.9442 151.838 41.6581 153.269 41.6581 155.146C41.6581 157.023 41.9328 158.454 42.4936 159.415C43.0431 160.377 43.7756 160.869 44.6913 160.869C45.607 160.869 46.3395 160.388 46.9004 159.415ZM52.4746 155.238V162.643H51.4445V147.992H52.4746V154.23H54.5922V155.238H52.4746Z" fill="black"/>
<path d="M61.8379 149.148C62.456 149.64 62.9367 150.396 63.2915 151.403C63.6349 152.41 63.8181 153.658 63.8181 155.146C63.8181 156.634 63.6464 157.881 63.2915 158.889C62.9367 159.896 62.456 160.64 61.8379 161.143C61.2198 161.647 60.5101 161.887 59.686 161.887C58.4384 161.887 57.4426 161.315 56.6871 160.182C55.9317 159.049 55.5654 157.366 55.5654 155.157C55.5654 152.948 55.9432 151.266 56.6871 150.132C57.4426 148.999 58.4384 148.427 59.686 148.427C60.4987 148.427 61.2198 148.679 61.8379 149.171V149.148ZM57.4426 150.865C56.8703 151.826 56.5841 153.257 56.5841 155.134C56.5841 157.011 56.8703 158.442 57.4426 159.404C58.0149 160.365 58.7703 160.857 59.6975 160.857C60.6246 160.857 61.3572 160.377 61.918 159.404C62.4789 158.442 62.765 157.011 62.765 155.134C62.765 153.257 62.4789 151.826 61.918 150.865C61.3457 149.903 60.6132 149.411 59.6975 149.411C58.7818 149.411 58.0149 149.892 57.4426 150.865ZM66.6109 162.631V147.98H67.664V162.631H66.6109Z" fill="black"/>
<path d="M83.4365 157.243H69.6211V156.293H76.008V154.233H70.4567V153.294H73.1122V149.174H70.6169V148.258H82.4407V149.174H79.9455V153.294H82.5781V154.233H77.0496V156.293H83.4365V157.243ZM82.6925 161.432V162.371H70.6741V158.536H71.7272V161.432H82.6925ZM78.9153 153.294V149.174H74.1423V153.294H78.9153Z" fill="black"/>
<path d="M90.5555 161.991H89.5254V149.537H86.2861V148.645H90.5555V162.002V161.991Z" fill="black"/>
<path d="M103.822 155.237C104.692 155.913 105.127 156.885 105.127 158.133C105.127 158.889 104.955 159.552 104.6 160.159C104.245 160.766 103.719 161.224 103.021 161.567C102.311 161.91 101.453 162.082 100.434 162.082C99.4151 162.082 98.5567 161.922 97.7097 161.59C96.8512 161.269 96.1988 160.834 95.7295 160.308L96.2446 159.529C96.6681 160.01 97.2518 160.411 97.9844 160.708C98.7169 161.006 99.541 161.166 100.411 161.166C101.59 161.166 102.506 160.892 103.135 160.342C103.765 159.793 104.085 159.06 104.085 158.156C104.085 157.16 103.73 156.416 103.009 155.901C102.288 155.397 101.075 155.134 99.3694 155.134H96.6223L97.3319 148.633H104.429V149.526H98.2133L97.6982 154.218H99.6097C101.556 154.218 102.963 154.562 103.833 155.237H103.822Z" fill="black"/>
<path d="M117.454 157.127H122.834V160.103H112.052V161.557H123.097V162.381H111.056V159.348H121.815V157.94H111.021V157.139H116.424V155.502H110.037V154.609H123.853V155.502H117.466V157.139L117.454 157.127ZM114.02 152.892C112.933 153.213 111.811 153.396 110.621 153.43V152.537C111.971 152.503 113.219 152.251 114.375 151.782C115.52 151.312 116.229 150.649 116.504 149.767H110.918V148.886H116.447V147.375H117.477V148.886H122.971V149.767H117.592C117.557 150.03 117.443 150.351 117.248 150.717L123.28 152.549L122.971 153.407L116.584 151.438C115.966 152.068 115.108 152.549 114.032 152.881L114.02 152.892Z" fill="black"/>
<path d="M130.171 154.551L134.886 160.995L134.062 161.624L129.861 155.81C129.392 157.549 128.751 158.934 127.95 159.953C127.149 160.972 126.199 161.544 125.111 161.67V160.617C126.096 160.434 126.92 159.781 127.607 158.637C128.293 157.492 128.808 156.027 129.163 154.241C129.518 152.456 129.69 150.51 129.713 148.393L130.766 148.415C130.743 150.739 130.537 152.788 130.171 154.562V154.551ZM137.576 162.631H136.546V147.98H137.576V162.631Z" fill="black"/>
<path d="M148.908 150.521V151.516H139.889V150.521H143.872V147.945H144.925V150.521H148.908ZM146.321 153.52C146.894 153.886 147.352 154.412 147.683 155.088C148.015 155.763 148.176 156.541 148.176 157.411C148.176 158.281 148.015 159.059 147.683 159.735C147.352 160.399 146.894 160.925 146.321 161.291C145.738 161.658 145.097 161.841 144.387 161.841C143.677 161.841 143.036 161.658 142.464 161.291C141.892 160.925 141.445 160.399 141.113 159.735C140.781 159.071 140.621 158.293 140.621 157.411C140.621 156.53 140.781 155.763 141.113 155.088C141.445 154.412 141.892 153.897 142.464 153.52C143.036 153.142 143.677 152.97 144.387 152.97C145.097 152.97 145.749 153.153 146.321 153.52ZM145.783 160.433C146.207 160.147 146.539 159.746 146.791 159.22C147.042 158.693 147.168 158.098 147.168 157.411C147.168 156.724 147.042 156.118 146.791 155.591C146.539 155.065 146.207 154.653 145.783 154.367C145.36 154.08 144.902 153.932 144.387 153.932C143.872 153.932 143.414 154.069 142.991 154.367C142.567 154.653 142.235 155.065 141.983 155.591C141.731 156.118 141.606 156.724 141.606 157.411C141.606 158.098 141.731 158.705 141.983 159.22C142.235 159.746 142.567 160.147 142.991 160.433C143.414 160.719 143.872 160.868 144.387 160.868C144.902 160.868 145.36 160.731 145.783 160.433ZM151.941 155.236V162.642H150.911V147.991H151.941V154.229H154.059V155.236H151.941Z" fill="black"/>
<path d="M159.29 154.791L164.017 160.881L163.193 161.51L158.992 156.039C158.557 157.676 157.962 158.98 157.207 159.942C156.451 160.903 155.558 161.476 154.528 161.67V160.606C155.398 160.4 156.142 159.805 156.76 158.809C157.378 157.813 157.859 156.531 158.18 154.94C158.5 153.36 158.683 151.575 158.706 149.606H154.814V148.61H163.548V149.606H159.736C159.713 151.563 159.553 153.292 159.278 154.791H159.29ZM166.707 155.238V162.643H165.677V147.992H166.707V154.23H168.824V155.238H166.707Z" fill="black"/>
<path d="M177.409 148.61V161.659H169.854V148.61H177.409ZM176.379 160.652V149.629H170.885V160.652H176.379ZM181.472 155.238V162.643H180.442V147.992H181.472V154.23H183.59V155.238H181.472Z" fill="black"/>
<path d="M188.82 154.791L193.547 160.881L192.723 161.51L188.523 156.039C188.088 157.676 187.492 158.98 186.737 159.942C185.982 160.903 185.089 161.476 184.059 161.67V160.606C184.917 160.4 185.673 159.805 186.291 158.809C186.909 157.813 187.389 156.531 187.71 154.94C188.03 153.36 188.214 151.575 188.236 149.606H184.345V148.61H193.078V149.606H189.267C189.244 151.563 189.083 153.292 188.809 154.791H188.82ZM196.237 155.238V162.643H195.207V147.992H196.237V154.23H198.355V155.238H196.237Z" fill="black"/>
<path d="M207.249 154.619L211.827 160.995L211.003 161.624L206.917 155.879C206.459 157.595 205.841 158.958 205.051 159.965C204.262 160.972 203.323 161.533 202.247 161.659V160.606C203.231 160.423 204.056 159.77 204.731 158.626C205.406 157.481 205.91 156.016 206.242 154.242C206.574 152.468 206.745 150.51 206.757 148.381L207.81 148.404C207.787 150.808 207.604 152.88 207.26 154.619H207.249ZM214.437 155.238V162.643H213.407V147.992H214.437V154.23H216.555V155.238H214.437Z" fill="black"/>
<path d="M230.633 161.829H216.817V160.822H222.334V153.84H223.387V160.822H230.633V161.829ZM217.733 149.605V148.598H229.614V158.27H228.561V149.605H217.722H217.733Z" fill="black"/>
<path d="M237.959 154.207C237.169 154.768 236.265 155.146 235.246 155.329V154.322C236.173 154.116 236.986 153.715 237.673 153.131C238.359 152.547 238.897 151.815 239.264 150.945C239.63 150.075 239.813 149.148 239.813 148.164L240.82 148.221C240.82 149.343 240.637 150.338 240.282 151.22L244.941 154.367L244.426 155.169L239.847 152.101C239.367 152.948 238.726 153.658 237.936 154.219L237.959 154.207ZM248.146 162.425H236.07V161.487H238.783V157.71H236.23V156.771H247.986V157.71H245.445V161.487H248.157V162.425H248.146ZM244.392 161.487V157.71H239.79V161.487H244.392ZM246.772 155.764V147.98H247.802V155.764H246.772Z" fill="black"/>
<path d="M257.154 154.722C256.41 155.34 255.437 155.649 254.224 155.649C253.377 155.649 252.633 155.489 251.992 155.168C251.351 154.848 250.87 154.413 250.527 153.841C250.183 153.28 250.012 152.639 250.012 151.929C250.012 151.219 250.183 150.578 250.527 150.018C250.87 149.457 251.362 149.022 251.992 148.701C252.621 148.381 253.377 148.221 254.224 148.221C255.38 148.221 256.33 148.507 257.063 149.079C257.795 149.651 258.23 150.395 258.356 151.311H261.641V147.969H262.671V156.13H261.641V152.295H258.402C258.31 153.291 257.898 154.092 257.154 154.711V154.722ZM251.923 153.955C252.507 154.447 253.274 154.699 254.235 154.699C255.197 154.699 255.964 154.447 256.547 153.955C257.131 153.463 257.429 152.788 257.429 151.929C257.429 151.071 257.131 150.407 256.547 149.903C255.964 149.411 255.197 149.159 254.235 149.159C253.274 149.159 252.507 149.411 251.923 149.903C251.339 150.395 251.042 151.071 251.042 151.929C251.042 152.788 251.339 153.451 251.923 153.955ZM258.86 161.544C258.276 162.002 257.658 162.265 256.982 162.345L254.441 159.861C254.052 160.559 253.56 161.132 252.976 161.567C252.393 162.002 251.774 162.265 251.122 162.334V161.338C251.671 161.258 252.186 160.994 252.667 160.548C253.148 160.102 253.549 159.518 253.858 158.82C254.167 158.121 254.35 157.366 254.396 156.565L255.391 156.679C255.346 157.469 255.162 158.236 254.876 158.968L257.257 161.281C257.749 161.155 258.219 160.857 258.642 160.399C259.066 159.941 259.409 159.381 259.684 158.705C259.947 158.041 260.107 157.32 260.142 156.553L261.149 156.691C261.08 157.526 260.931 158.259 260.691 158.865L263.861 161.59L263.232 162.334L260.29 159.724C259.913 160.456 259.432 161.063 258.848 161.521L258.86 161.544Z" fill="black"/>
<path d="M264.548 156.509V155.559H278.363V156.509H264.548ZM277.619 161.396V162.369H265.601V158.1H266.654V161.396H277.619ZM277.448 152.56V153.533H265.635V148.016H266.665V152.56H277.448Z" fill="black"/>
<path d="M285.083 160.503C285.644 160.377 286.159 160.216 286.605 160.01V160.983C286.182 161.201 285.678 161.372 285.071 161.487C284.465 161.601 283.847 161.67 283.217 161.67H279.863V148.621H286.01V149.594H280.859V160.697H283.377C283.961 160.697 284.533 160.628 285.106 160.503H285.083ZM289.18 148.083V162.391H288.173V155.157H284.201V154.15H288.173V148.083H289.18ZM292.477 162.631H291.47V147.98H292.477V162.631Z" fill="black"/>
<path d="M295.956 160.631C296.116 160.791 296.196 160.997 296.196 161.226C296.196 161.352 296.185 161.489 296.15 161.638C296.116 161.787 296.07 161.947 296.013 162.13L295.269 164.729H294.548L295.177 162.039C294.983 161.993 294.834 161.89 294.72 161.753C294.605 161.615 294.548 161.444 294.548 161.238C294.548 160.997 294.628 160.791 294.777 160.631C294.926 160.471 295.132 160.391 295.372 160.391C295.612 160.391 295.818 160.471 295.979 160.642L295.956 160.631Z" fill="black"/>
<path d="M301.026 150.523V149.584H305.204V147.719H306.257V149.584H310.458V150.523H301.038H301.026ZM302.823 156.727C302.068 156.189 301.69 155.456 301.69 154.529C301.69 153.602 302.068 152.892 302.812 152.354C303.567 151.816 304.54 151.553 305.731 151.553C306.921 151.553 307.883 151.816 308.638 152.354C309.393 152.892 309.771 153.613 309.771 154.529C309.771 155.445 309.393 156.189 308.638 156.727C307.883 157.265 306.91 157.54 305.731 157.54C304.552 157.54 303.579 157.265 302.823 156.727ZM313.88 161.374V162.347H302.068V158.593H303.098V161.374H313.88ZM303.51 153.03C302.961 153.419 302.675 153.911 302.675 154.529C302.675 155.147 302.949 155.662 303.51 156.052C304.06 156.441 304.804 156.647 305.731 156.647C306.658 156.647 307.402 156.452 307.94 156.052C308.489 155.662 308.764 155.147 308.764 154.529C308.764 153.911 308.489 153.407 307.94 153.018C307.39 152.629 306.658 152.446 305.731 152.446C304.804 152.446 304.06 152.641 303.51 153.03ZM315.517 153.327H313.4V158.993H312.369V147.982H313.4V152.297H315.517V153.327Z" fill="black"/>
<path d="M318.585 155.045C317.841 155.582 316.982 155.926 315.998 156.098V155.125C317.154 154.907 318.093 154.381 318.814 153.545C319.535 152.71 319.958 151.668 320.096 150.432H316.124V149.482H320.13V147.73H321.16V149.482H325.086V150.432H321.16C321.114 151.016 320.989 151.576 320.794 152.114L325.281 155.09L324.743 155.926L320.359 153.007C319.913 153.831 319.317 154.518 318.573 155.045H318.585ZM328.165 157.448V162.347H316.834V157.448H328.165ZM327.135 161.42V158.387H317.864V161.42H327.135ZM328.165 152.549V156.498H327.135V147.994H328.165V151.519H330.283V152.549H328.165Z" fill="black"/>
<path d="M339.154 154.779L343.961 160.88L343.137 161.51L338.868 155.993C338.421 157.63 337.815 158.946 337.048 159.907C336.281 160.88 335.377 161.464 334.347 161.659V160.594C335.228 160.388 335.983 159.793 336.613 158.797C337.243 157.801 337.723 156.519 338.067 154.928C338.41 153.337 338.582 151.563 338.605 149.606H334.633V148.61H343.526V149.606H339.635C339.612 151.575 339.452 153.303 339.154 154.779ZM346.766 162.631H345.736V147.98H346.766V162.631Z" fill="black"/>
<path d="M357.009 160.457C357.662 160.331 358.2 160.159 358.623 159.942V160.949C358.211 161.178 357.685 161.35 357.021 161.476C356.357 161.602 355.681 161.659 354.995 161.659H349.523V148.519H350.554V160.652H355.018C355.693 160.652 356.357 160.583 357.009 160.457ZM361.13 155.238V162.643H360.1V147.992H361.13V154.23H363.247V155.238H361.13Z" fill="black"/>
<path d="M368.65 153.99L373.171 161.087L372.347 161.716L368.364 155.329C367.929 157.229 367.322 158.717 366.532 159.816C365.742 160.915 364.804 161.521 363.705 161.67V160.606C364.655 160.423 365.456 159.77 366.097 158.637C366.738 157.504 367.219 156.039 367.528 154.253C367.837 152.468 367.997 150.522 368.009 148.393L369.062 148.416C369.039 150.499 368.902 152.365 368.638 154.001L368.65 153.99ZM376.41 162.632H375.38V154.585H371.466V153.578H375.38V147.992H376.41V162.643V162.632Z" fill="black"/>
<path d="M389.711 148.61V151.907C389.711 153.841 389.414 155.535 388.83 157C388.246 158.465 387.388 159.599 386.277 160.4C385.167 161.201 383.839 161.602 382.306 161.602V160.571C383.633 160.571 384.767 160.217 385.728 159.518C386.69 158.809 387.422 157.813 387.926 156.52C388.441 155.226 388.693 153.715 388.693 151.964V149.595H382.306V148.599H389.723L389.711 148.61ZM394.095 155.238V162.643H393.065V147.992H394.095V154.23H396.213V155.238H394.095Z" fill="black"/>
<path d="M402.749 154.573C401.398 155.592 399.475 156.107 396.991 156.107V155.1C399.155 155.1 400.814 154.688 401.993 153.852C403.161 153.017 403.744 151.758 403.744 150.087V149.423H396.991V148.45H404.775V149.972C404.775 152.021 404.099 153.555 402.737 154.585L402.749 154.573ZM409.319 157.698V162.563H408.266V158.671H397.678V157.698H409.319ZM409.376 156.737H408.346V154.676H404.946V153.681H408.346V150.956H405.484V149.984H408.346V147.98H409.376V156.737Z" fill="black"/>
<path d="M420.295 160.514C420.856 160.411 421.36 160.262 421.795 160.079V161.075C421.371 161.27 420.868 161.407 420.284 161.51C419.689 161.613 419.071 161.659 418.407 161.659H415.225V148.576H416.22V160.674H418.567C419.162 160.674 419.746 160.629 420.307 160.526L420.295 160.514ZM427.85 162.632H426.842V155.157H424.004V162.391H423.008V148.084H424.004V154.173H426.842V147.992H427.85V162.643V162.632Z" fill="black"/>
<path d="M436.297 149.354H430.093V148.439H437.304V152.674H431.146V155.157H434.316C435.427 155.157 436.422 155.1 437.304 154.974C438.185 154.848 438.849 154.7 439.295 154.505V155.421C438.86 155.615 438.197 155.764 437.304 155.89C436.411 156.016 435.369 156.073 434.202 156.073H430.139V151.804H436.297V149.366V149.354ZM438.311 161.693C437.75 162.059 437.132 162.277 436.468 162.346L433.813 160.205C433.401 160.8 432.909 161.293 432.336 161.67C431.752 162.048 431.134 162.265 430.482 162.346V161.396C431.031 161.315 431.546 161.087 432.039 160.709C432.531 160.331 432.931 159.827 433.252 159.209C433.572 158.591 433.756 157.927 433.801 157.195L434.797 157.309C434.717 158.03 434.545 158.717 434.282 159.37L436.777 161.338C437.269 161.212 437.739 160.961 438.174 160.571C438.609 160.194 438.963 159.713 439.238 159.118C439.513 158.534 439.673 157.893 439.719 157.195L440.715 157.332C440.669 158.111 440.497 158.809 440.223 159.427L443.37 161.602L442.855 162.437L439.765 160.24C439.376 160.835 438.895 161.315 438.323 161.682L438.311 161.693ZM438.391 153.555V152.616H441.333V150.693H438.391V149.743H441.333V147.992H442.34V156.771H441.333V153.566H438.391V153.555Z" fill="black"/>
<path d="M444.206 155.296V154.38H458.022V155.296H444.206ZM455.435 148.657C456.545 149.08 457.106 149.733 457.106 150.626C457.106 151.518 456.545 152.171 455.423 152.594C454.302 153.018 452.871 153.224 451.108 153.224C449.345 153.224 447.892 153.018 446.77 152.594C445.648 152.171 445.087 151.518 445.087 150.626C445.087 149.733 445.648 149.08 446.77 148.657C447.892 148.233 449.345 148.027 451.108 148.027C452.871 148.027 454.313 148.233 455.423 148.657H455.435ZM446.255 159.966V161.511H457.278V162.369H445.236V159.187H455.973V157.699H445.19V156.841H457.003V159.966H446.243H446.255ZM447.571 149.321C446.633 149.595 446.163 150.03 446.163 150.614C446.163 151.198 446.633 151.633 447.56 151.896C448.498 152.171 449.677 152.308 451.12 152.308C452.562 152.308 453.718 152.171 454.656 151.896C455.595 151.621 456.053 151.198 456.053 150.614C456.053 150.03 455.583 149.595 454.656 149.321C453.718 149.046 452.539 148.897 451.12 148.897C449.7 148.897 448.51 149.035 447.571 149.321Z" fill="black"/>
<path d="M475.305 162.631H474.275V155.226H470.155C469.697 157.217 468.861 158.785 467.637 159.907C466.412 161.029 464.901 161.601 463.081 161.601V160.571C464.409 160.571 465.542 160.216 466.492 159.518C467.442 158.808 468.175 157.812 468.69 156.519C469.205 155.226 469.457 153.715 469.457 151.963V149.594H463.081V148.598H470.487V151.895C470.487 152.707 470.429 153.474 470.315 154.207H474.287V147.969H475.317V162.62L475.305 162.631Z" fill="black"/>
<path d="M486.865 153.601C485.503 154.413 483.569 154.814 481.051 154.814V153.875C483.248 153.864 484.942 153.532 486.121 152.891C487.3 152.25 487.896 151.22 487.896 149.812V149.377H481.051V148.439H488.914V149.721C488.914 151.506 488.227 152.8 486.877 153.601H486.865ZM493.138 161.453V162.346H481.669V156.142H492.978V157.023H482.699V158.797H492.794V159.633H482.699V161.441H493.138V161.453ZM495.107 151.975H492.989V155.203H491.959V147.992H492.989V150.945H495.107V151.975Z" fill="black"/>
<path d="M502.936 150.11C503.669 151.254 504.035 152.925 504.035 155.135C504.035 157.344 503.669 159.026 502.936 160.159C502.204 161.304 501.219 161.865 499.972 161.865C499.17 161.865 498.461 161.613 497.854 161.121C497.247 160.629 496.767 159.873 496.423 158.866C496.08 157.859 495.908 156.611 495.908 155.123C495.908 153.635 496.08 152.387 496.423 151.38C496.767 150.373 497.247 149.629 497.854 149.125C498.461 148.633 499.17 148.381 499.972 148.381C501.219 148.381 502.204 148.954 502.936 150.087V150.11ZM502.169 159.415C502.719 158.454 503.005 157.023 503.005 155.146C503.005 153.269 502.73 151.838 502.169 150.877C501.62 149.915 500.887 149.423 499.972 149.423C499.056 149.423 498.323 149.904 497.762 150.877C497.213 151.838 496.938 153.269 496.938 155.146C496.938 157.023 497.213 158.454 497.762 159.415C498.312 160.377 499.044 160.869 499.972 160.869C500.899 160.869 501.62 160.388 502.169 159.415ZM507.755 155.238V162.643H506.725V147.992H507.755V154.23H509.872V155.238H507.755Z" fill="black"/>
<path d="M521.17 150.109C521.891 151.254 522.257 152.925 522.257 155.134C522.257 157.343 521.891 159.026 521.17 160.159C520.449 161.304 519.464 161.865 518.228 161.865C516.992 161.865 516.019 161.292 515.287 160.159C514.566 159.026 514.199 157.343 514.199 155.134C514.199 152.925 514.566 151.243 515.287 150.109C516.008 148.976 516.992 148.404 518.228 148.404C519.464 148.404 520.437 148.976 521.17 150.109ZM520.392 159.415C520.93 158.454 521.204 157.023 521.204 155.134C521.204 153.246 520.93 151.815 520.392 150.853C519.854 149.892 519.133 149.411 518.228 149.411C517.324 149.411 516.603 149.892 516.054 150.853C515.504 151.815 515.229 153.246 515.229 155.134C515.229 157.023 515.504 158.454 516.054 159.415C516.603 160.377 517.324 160.857 518.228 160.857C519.133 160.857 519.854 160.377 520.392 159.415ZM526.469 162.631H525.462V158.259H522.715L522.795 157.252H525.462V152.96H522.795L522.715 151.929H525.462V147.98H526.469V162.631Z" fill="black"/>
<path d="M535.717 157.011C535.11 158.477 534.229 159.61 533.084 160.411C531.94 161.212 530.601 161.613 529.055 161.613V160.583C530.372 160.583 531.528 160.228 532.512 159.53C533.496 158.831 534.252 157.836 534.778 156.531C535.305 155.237 535.568 153.715 535.568 151.975V149.606H529.044V148.61H536.621V151.906C536.621 153.841 536.312 155.535 535.706 157L535.717 157.011ZM540.089 162.631V147.98H541.12V162.631H540.089Z" fill="black"/>
<path d="M548.08 154.7L552.887 160.881L552.063 161.51L547.793 155.936C547.359 157.584 546.763 158.9 545.996 159.885C545.23 160.869 544.337 161.453 543.307 161.659V160.594C544.177 160.388 544.921 159.793 545.539 158.797C546.157 157.801 546.637 156.52 546.958 154.929C547.278 153.349 547.462 151.563 547.484 149.595H543.593V148.599H552.383V149.595H548.515C548.503 151.46 548.354 153.166 548.08 154.688V154.7ZM556 162.632H554.97V154.757H551.216V153.75H554.97V147.992H556V162.643V162.632Z" fill="black"/>
<path d="M565.249 157.011C564.642 158.477 563.761 159.61 562.616 160.411C561.471 161.212 560.132 161.613 558.587 161.613V160.583C559.915 160.583 561.059 160.228 562.055 159.53C563.039 158.831 563.795 157.836 564.321 156.531C564.848 155.237 565.111 153.715 565.111 151.975V149.606H558.587V148.61H566.164V151.906C566.164 153.841 565.855 155.535 565.249 157V157.011ZM569.621 162.631V147.98H570.651V162.631H569.621Z" fill="black"/>
<path d="M53.9053 188.845H40.0898V187.838H45.6069V180.856H46.6599V187.838H53.9053V188.845ZM41.017 176.621V175.613H52.898V185.285H51.845V176.621H41.0055H41.017Z" fill="black"/>
<path d="M55.6104 183.146V175.454H63.7027V183.146H55.6104ZM68.098 188.377V189.372H56.1369V184.817H57.167V188.388H68.098V188.377ZM62.684 176.415H56.6405V182.173H62.684V176.415ZM66.6101 185.893V174.996H67.6402V185.893H66.6101Z" fill="black"/>
<path d="M78.9726 177.536V178.532H69.9531V177.536H73.9364V174.961H74.9894V177.536H78.9726ZM76.3858 180.535C76.9696 180.901 77.416 181.428 77.7479 182.103C78.0799 182.779 78.2401 183.557 78.2401 184.427C78.2401 185.297 78.0799 186.075 77.7479 186.739C77.416 187.403 76.9581 187.929 76.3858 188.296C75.8021 188.662 75.1611 188.845 74.4514 188.845C73.7418 188.845 73.1008 188.662 72.5285 188.296C71.9562 187.929 71.5098 187.414 71.1779 186.739C70.8459 186.075 70.6857 185.297 70.6857 184.427C70.6857 183.557 70.8459 182.779 71.1779 182.103C71.5098 181.428 71.9562 180.913 72.5285 180.535C73.1008 180.157 73.7418 179.986 74.4514 179.986C75.1611 179.986 75.8135 180.169 76.3858 180.535ZM75.8479 187.449C76.2714 187.162 76.6033 186.762 76.8551 186.235C77.1069 185.709 77.2214 185.114 77.2214 184.427C77.2214 183.74 77.0955 183.133 76.8551 182.607C76.6148 182.08 76.2714 181.668 75.8479 181.382C75.4244 181.096 74.9665 180.947 74.4514 180.947C73.9364 180.947 73.4785 181.085 73.055 181.382C72.6315 181.668 72.2996 182.08 72.0478 182.607C71.7959 183.133 71.67 183.74 71.67 184.427C71.67 185.114 71.7959 185.72 72.0478 186.235C72.2996 186.762 72.6315 187.162 73.055 187.449C73.4785 187.735 73.9364 187.884 74.4514 187.884C74.9665 187.884 75.4244 187.746 75.8479 187.449ZM82.0059 182.252V189.658H80.9757V175.007H82.0059V181.245H84.1234V182.252H82.0059Z" fill="black"/>
<path d="M98.2022 188.845H84.3867V187.838H89.9037V180.856H90.9568V187.838H98.2022V188.845ZM85.3139 176.621V175.613H97.1949V185.285H96.1419V176.621H85.3024H85.3139Z" fill="black"/>
<path d="M110.827 187.484C111.491 187.347 112.04 187.175 112.464 186.958V187.965C112.04 188.182 111.502 188.354 110.827 188.48C110.163 188.606 109.488 188.674 108.812 188.674H103.353V175.626H111.365V176.622H104.383V187.69H108.847C109.499 187.69 110.152 187.621 110.815 187.496L110.827 187.484ZM114.97 182.253V189.659H113.94V175.008H114.97V181.246H117.088V182.253H114.97Z" fill="black"/>
<path d="M125.478 187.496C126.142 187.37 126.68 187.198 127.103 186.98V187.976C126.68 188.205 126.142 188.377 125.489 188.503C124.837 188.629 124.161 188.686 123.475 188.686H118.187V175.546H119.217V187.702H123.486C124.15 187.702 124.814 187.633 125.466 187.507L125.478 187.496ZM130.251 189.647H129.221V183.673H123.921V182.665H129.221V179.426H123.921V178.419H129.221V175.008H130.251V189.659V189.647Z" fill="black"/>
<path d="M140.163 183.238C139.27 183.341 138.229 183.386 137.05 183.386H132.128V182.471H136.283V180.674C135.218 180.605 134.348 180.33 133.685 179.838C133.021 179.346 132.689 178.693 132.689 177.881C132.689 176.988 133.067 176.301 133.833 175.798C134.6 175.294 135.585 175.054 136.809 175.054C138.034 175.054 139.018 175.305 139.785 175.809C140.552 176.313 140.93 176.999 140.93 177.881C140.93 178.693 140.598 179.346 139.934 179.838C139.27 180.33 138.4 180.605 137.302 180.674V182.471C139.682 182.448 141.296 182.242 142.143 181.864V182.803C141.708 182.997 141.044 183.135 140.152 183.238H140.163ZM142.647 186.202L145.737 188.583L145.188 189.361L142.189 187.015C141.8 187.69 141.296 188.228 140.713 188.64C140.117 189.052 139.476 189.293 138.79 189.35L136.237 187.061C135.825 187.702 135.333 188.217 134.738 188.629C134.142 189.041 133.513 189.281 132.838 189.35V188.377C133.387 188.32 133.914 188.091 134.417 187.702C134.921 187.312 135.333 186.82 135.642 186.214C135.962 185.607 136.134 184.966 136.18 184.279L137.153 184.394C137.141 184.977 136.993 185.607 136.718 186.259L139.099 188.343C139.591 188.228 140.06 187.976 140.506 187.587C140.941 187.198 141.308 186.717 141.594 186.133C141.88 185.55 142.04 184.932 142.086 184.279L143.082 184.417C143.013 185.08 142.876 185.664 142.658 186.191L142.647 186.202ZM134.555 179.3C135.104 179.621 135.859 179.792 136.809 179.792C137.759 179.792 138.503 179.632 139.076 179.3C139.637 178.98 139.923 178.51 139.923 177.904C139.923 177.297 139.637 176.828 139.076 176.496C138.503 176.164 137.759 176.004 136.809 176.004C135.859 176.004 135.104 176.164 134.555 176.496C134.005 176.828 133.719 177.297 133.719 177.904C133.719 178.51 133.994 178.98 134.555 179.3ZM146.619 179.85H144.536V183.879H143.482V175.008H144.536V178.842H146.619V179.85Z" fill="black"/>
<path d="M146.882 183.524V182.574H160.697V183.524H146.882ZM159.953 188.412V189.385H147.935V185.115H148.988V188.412H159.953ZM159.782 179.575V180.548H147.969V175.031H148.999V179.575H159.782Z" fill="black"/>
<path d="M167.428 187.518C167.989 187.392 168.504 187.221 168.939 187.026V187.999C168.516 188.216 168.012 188.388 167.405 188.502C166.799 188.628 166.181 188.686 165.551 188.686H162.197V175.637H168.344V176.61H163.193V187.713H165.711C166.295 187.713 166.867 187.655 167.44 187.518H167.428ZM171.514 175.099V189.407H170.507V182.173H166.535V181.166H170.507V175.099H171.514ZM174.811 189.647H173.804V174.996H174.811V189.647Z" fill="black"/>
<path d="M48.0909 202.638V205.934C48.0909 207.868 47.7933 209.563 47.1981 211.028C46.6029 212.493 45.7559 213.626 44.6456 214.427C43.5354 215.228 42.2076 215.629 40.6738 215.629V214.599C41.9901 214.599 43.1347 214.244 44.0962 213.546C45.0577 212.836 45.7902 211.84 46.3053 210.547C46.8089 209.253 47.0722 207.743 47.0722 205.991V203.622H40.6853V202.626H48.1023L48.0909 202.638ZM52.4748 209.265V216.671H51.4446V202.02H52.4748V208.258H54.5923V209.265H52.4748Z" fill="black"/>
<path d="M61.1278 208.601C59.7771 209.619 57.8542 210.135 55.3818 210.135V209.127C57.5451 209.127 59.2048 208.715 60.3838 207.88C61.5513 207.044 62.135 205.785 62.135 204.114V203.45H55.3818V202.477H63.1652V203.999C63.1652 206.048 62.4899 207.582 61.1278 208.601ZM67.6978 211.726V216.59H66.6448V212.698H56.0572V211.726H67.6978ZM67.7551 210.764H66.7249V208.704H63.3254V207.708H66.7249V204.984H63.8634V204.011H66.7249V202.008H67.7551V210.764Z" fill="black"/>
<path d="M76.6025 203.175C77.2206 203.668 77.7014 204.423 78.0562 205.43C78.411 206.437 78.5827 207.685 78.5827 209.173C78.5827 210.661 78.411 211.909 78.0562 212.916C77.7128 213.923 77.2206 214.667 76.6025 215.171C75.9844 215.674 75.2748 215.915 74.4507 215.915C73.203 215.915 72.2072 215.343 71.4518 214.209C70.6964 213.076 70.3301 211.394 70.3301 209.185C70.3301 206.975 70.7078 205.293 71.4518 204.16C72.2072 203.027 73.203 202.454 74.4507 202.454C75.2633 202.454 75.9844 202.706 76.6025 203.198V203.175ZM72.2072 204.892C71.6349 205.854 71.3488 207.284 71.3488 209.162C71.3488 211.039 71.6349 212.47 72.2072 213.431C72.7795 214.393 73.535 214.885 74.4621 214.885C75.3893 214.885 76.1218 214.404 76.6827 213.431C77.2435 212.458 77.5297 211.039 77.5297 209.162C77.5297 207.284 77.2435 205.854 76.6827 204.892C76.1218 203.931 75.3778 203.439 74.4621 203.439C73.5464 203.439 72.7795 203.919 72.2072 204.892ZM81.3756 216.659V202.008H82.4286V216.659H81.3756Z" fill="black"/>
<path d="M88.415 209.15V202.477H96.3472V209.15H88.415ZM100.205 210.936V216.373H88.8729V210.936H100.205ZM89.4452 203.427V208.2H95.3399V203.427H89.4452ZM99.1744 215.446V211.897H89.903V215.446H99.1744ZM100.205 206.323V209.986H99.1744V202.008H100.205V205.293H102.322V206.323H100.205Z" fill="black"/>
<path d="M112.452 202.111V216.418H111.445V209.413H109.178C109.156 211.6 108.881 213.225 108.354 214.301C107.828 215.377 107.049 215.903 106.019 215.903C103.936 215.903 102.895 213.66 102.895 209.173C102.895 204.686 103.936 202.443 106.019 202.443C108.103 202.443 109.064 204.423 109.19 208.395H111.456V202.122H112.463L112.452 202.111ZM107.633 213.488C107.999 212.538 108.183 211.096 108.183 209.162C108.183 207.227 107.999 205.785 107.633 204.835C107.267 203.885 106.729 203.416 106.008 203.416C104.589 203.416 103.867 205.327 103.867 209.162C103.867 212.996 104.577 214.908 106.008 214.908C106.729 214.908 107.278 214.438 107.633 213.488ZM115.749 216.659H114.741V202.008H115.749V216.659Z" fill="black"/>
<path d="M120.796 215.861V214.854H134.611V215.861H120.796ZM122.833 203.659V210.069H133.787V211.076H121.803V202.641H133.627V203.648H122.833V203.659Z" fill="black"/>
<path d="M135.551 210.536V209.586H149.366V210.536H135.551ZM148.622 215.423V216.396H136.604V212.127H137.657V215.423H148.622ZM148.451 206.587V207.56H136.638V202.043H137.668V206.587H148.451Z" fill="black"/>
<path d="M167.565 210.08H153.75V209.13H159.301V205.582H160.332V209.13H167.565V210.08ZM160.95 212.941L167.05 215.654L166.627 216.547L160.389 213.708C159.702 214.544 158.832 215.208 157.768 215.677C156.703 216.146 155.604 216.387 154.471 216.387V215.391C155.387 215.391 156.28 215.208 157.149 214.853C158.019 214.498 158.763 213.995 159.359 213.331C159.954 212.667 160.354 211.934 160.538 211.087L161.568 211.236C161.419 211.911 161.201 212.472 160.938 212.93L160.95 212.941ZM154.78 203.235V202.285H166.49V207.871H165.436V203.235H154.769H154.78Z" fill="black"/>
<path d="M175.497 203.175C176.115 203.668 176.596 204.423 176.951 205.43C177.306 206.437 177.477 207.685 177.477 209.173C177.477 210.661 177.306 211.909 176.951 212.916C176.596 213.923 176.115 214.667 175.497 215.171C174.879 215.674 174.169 215.915 173.345 215.915C172.098 215.915 171.102 215.343 170.346 214.209C169.591 213.076 169.225 211.394 169.225 209.185C169.225 206.975 169.602 205.293 170.346 204.16C171.102 203.027 172.098 202.454 173.345 202.454C174.158 202.454 174.879 202.706 175.497 203.198V203.175ZM171.09 204.892C170.518 205.854 170.232 207.284 170.232 209.162C170.232 211.039 170.518 212.47 171.09 213.431C171.663 214.393 172.407 214.885 173.345 214.885C174.284 214.885 175.005 214.404 175.566 213.431C176.127 212.47 176.413 211.039 176.413 209.162C176.413 207.284 176.127 205.854 175.566 204.892C174.993 203.931 174.261 203.439 173.345 203.439C172.43 203.439 171.663 203.919 171.09 204.892ZM180.27 216.659V202.008H181.323V216.659H180.27Z" fill="black"/>
<path d="M194.063 208.464C193.331 209.047 192.358 209.334 191.167 209.334C190.309 209.334 189.576 209.185 188.935 208.876C188.294 208.567 187.814 208.155 187.47 207.617C187.127 207.079 186.955 206.472 186.955 205.785C186.955 205.099 187.127 204.503 187.47 203.977C187.814 203.439 188.306 203.027 188.935 202.718C189.576 202.409 190.32 202.26 191.167 202.26C192.323 202.26 193.273 202.535 194.006 203.073C194.738 203.611 195.173 204.332 195.299 205.224H198.584V202.02H199.614V209.654H198.584V206.22H195.322C195.219 207.147 194.796 207.903 194.063 208.475V208.464ZM188.855 207.708C189.439 208.178 190.206 208.406 191.167 208.406C192.129 208.406 192.884 208.178 193.479 207.708C194.063 207.239 194.361 206.609 194.361 205.797C194.361 204.984 194.063 204.366 193.479 203.897C192.896 203.427 192.129 203.198 191.167 203.198C190.206 203.198 189.439 203.427 188.855 203.897C188.271 204.366 187.974 204.996 187.974 205.797C187.974 206.598 188.271 207.25 188.855 207.708ZM193.662 210.352V216.384H188.134V210.352H189.084V212.332H192.69V210.352H193.662ZM192.69 213.191H189.084V215.48H192.69V213.191ZM196.204 215.595C195.62 216.052 195.002 216.316 194.326 216.373V215.423C194.853 215.343 195.334 215.102 195.791 214.69C196.238 214.278 196.616 213.695 196.913 212.939C197.211 212.184 197.405 211.291 197.474 210.272L198.47 210.352C198.401 211.279 198.252 212.092 198.012 212.79L201.08 215.675L200.427 216.396L197.646 213.706C197.268 214.507 196.787 215.137 196.204 215.595Z" fill="black"/>
<path d="M208.851 208.753C208.107 209.371 207.134 209.68 205.921 209.68C205.074 209.68 204.33 209.52 203.689 209.2C203.048 208.879 202.567 208.444 202.224 207.872C201.881 207.3 201.709 206.67 201.709 205.96C201.709 205.251 201.881 204.61 202.224 204.049C202.567 203.488 203.06 203.053 203.689 202.733C204.33 202.412 205.074 202.252 205.921 202.252C207.077 202.252 208.027 202.538 208.76 203.11C209.492 203.683 209.927 204.427 210.053 205.342H213.338V202H214.368V210.161H213.338V206.327H210.099C210.007 207.322 209.595 208.124 208.851 208.742V208.753ZM203.62 207.986C204.204 208.478 204.971 208.73 205.933 208.73C206.894 208.73 207.661 208.478 208.245 207.986C208.828 207.494 209.126 206.819 209.126 205.96C209.126 205.102 208.828 204.438 208.245 203.934C207.661 203.431 206.894 203.19 205.933 203.19C204.971 203.19 204.204 203.442 203.62 203.934C203.037 204.427 202.739 205.102 202.739 205.96C202.739 206.819 203.037 207.483 203.62 207.986ZM210.557 215.575C209.973 216.033 209.355 216.296 208.68 216.376L206.139 213.892C205.738 214.591 205.257 215.163 204.674 215.598C204.09 216.033 203.472 216.296 202.819 216.365V215.369C203.369 215.289 203.884 215.026 204.364 214.579C204.845 214.133 205.246 213.549 205.555 212.851C205.864 212.153 206.047 211.397 206.104 210.596L207.1 210.71C207.054 211.5 206.883 212.267 206.585 213L208.966 215.312C209.458 215.186 209.927 214.888 210.351 214.43C210.774 213.973 211.129 213.412 211.392 212.736C211.656 212.061 211.816 211.351 211.85 210.585L212.857 210.722C212.789 211.557 212.64 212.29 212.4 212.897L215.57 215.621L214.941 216.365L211.999 213.755C211.621 214.488 211.141 215.094 210.557 215.552V215.575Z" fill="black"/>
<path d="M216.245 210.536V209.586H230.061V210.536H216.245ZM229.317 215.423V216.396H217.298V212.127H218.351V215.423H229.317ZM229.145 206.587V207.56H217.332V202.043H218.363V206.587H229.145Z" fill="black"/>
<path d="M236.78 214.53C237.341 214.404 237.856 214.232 238.302 214.038V215.011C237.879 215.228 237.375 215.4 236.769 215.514C236.162 215.629 235.544 215.697 234.914 215.697H231.561V202.649H237.707V203.622H232.556V214.724H235.075C235.658 214.724 236.231 214.667 236.803 214.53H236.78ZM240.878 202.111V216.418H239.87V209.185H235.899V208.177H239.87V202.111H240.878ZM244.174 216.659H243.167V202.008H244.174V216.659Z" fill="black"/>
<path d="M262.11 216.662H261.08V209.394H257.967C257.955 210.813 257.772 212.015 257.417 212.988C257.074 213.961 256.593 214.694 255.975 215.174C255.357 215.655 254.67 215.896 253.88 215.896C253.091 215.896 252.381 215.644 251.774 215.152C251.168 214.659 250.698 213.904 250.355 212.897C250.012 211.889 249.84 210.642 249.84 209.154C249.84 207.666 250.012 206.418 250.355 205.411C250.698 204.404 251.168 203.66 251.774 203.156C252.381 202.664 253.079 202.412 253.88 202.412C255.036 202.412 255.986 202.916 256.719 203.923C257.452 204.93 257.864 206.407 257.955 208.353H261.08V202H262.11V216.651V216.662ZM256.089 213.446C256.639 212.485 256.914 211.054 256.914 209.165C256.914 207.277 256.639 205.846 256.089 204.884C255.54 203.923 254.807 203.442 253.88 203.442C252.953 203.442 252.255 203.923 251.694 204.896C251.145 205.857 250.87 207.288 250.87 209.165C250.87 211.042 251.145 212.473 251.694 213.435C252.244 214.396 252.976 214.888 253.88 214.888C254.785 214.888 255.529 214.408 256.089 213.446Z" fill="black"/>
<path d="M271.392 210.868H276.772V213.993H266.013V215.538H277.035V216.396H264.994V213.214H275.73V211.726H264.948V210.868H270.351V209.185H263.964V208.304H277.779V209.185H271.392V210.868ZM266.539 206.61C265.418 206.186 264.857 205.534 264.857 204.641C264.857 203.748 265.418 203.096 266.539 202.673C267.661 202.249 269.115 202.043 270.877 202.043C272.64 202.043 274.071 202.249 275.192 202.673C276.314 203.096 276.875 203.748 276.875 204.641C276.875 205.534 276.314 206.186 275.204 206.61C274.094 207.033 272.651 207.24 270.877 207.24C269.103 207.24 267.661 207.033 266.539 206.61ZM267.329 203.371C266.39 203.645 265.921 204.08 265.921 204.653C265.921 205.225 266.39 205.649 267.329 205.935C268.268 206.209 269.458 206.358 270.877 206.358C272.297 206.358 273.487 206.221 274.414 205.935C275.353 205.649 275.811 205.225 275.811 204.653C275.811 204.08 275.341 203.657 274.414 203.371C273.487 203.085 272.297 202.947 270.877 202.947C269.458 202.947 268.268 203.085 267.329 203.371Z" fill="black"/>
<path d="M280.515 206.632V209.036H284.201C285.323 209.036 286.319 208.978 287.188 208.841C288.058 208.715 288.734 208.532 289.203 208.292V209.23C288.734 209.459 288.058 209.642 287.177 209.768C286.296 209.894 285.288 209.963 284.144 209.963H279.485V205.762H286.559V203.381H279.439V202.489H287.566V206.643H280.504L280.515 206.632ZM280.023 216.373V211.542H291.527V216.373H280.023ZM290.496 212.481H281.053V215.434H290.496V212.481ZM290.496 210.592V202.008H291.527V210.592H290.496Z" fill="black"/>
<path d="M303.373 202.111V216.418H302.365V209.413H300.099C300.076 211.6 299.801 213.225 299.263 214.301C298.737 215.365 297.959 215.903 296.929 215.903C294.845 215.903 293.804 213.66 293.804 209.173C293.804 204.686 294.845 202.443 296.929 202.443C299.012 202.443 299.973 204.423 300.099 208.395H302.365V202.122H303.373V202.111ZM298.554 213.488C298.92 212.538 299.092 211.096 299.092 209.162C299.092 207.227 298.909 205.785 298.554 204.835C298.188 203.885 297.65 203.416 296.917 203.416C295.498 203.416 294.777 205.327 294.777 209.162C294.777 212.996 295.486 214.908 296.917 214.908C297.638 214.908 298.188 214.438 298.554 213.488ZM306.669 216.659H305.662V202.008H306.669V216.659Z" fill="black"/>
<path d="M313.4 208.017L317.921 215.114L317.097 215.743L313.114 209.356C312.679 211.257 312.072 212.745 311.282 213.843C310.492 214.942 309.554 215.549 308.455 215.698V214.633C309.405 214.45 310.206 213.798 310.847 212.664C311.488 211.52 311.969 210.066 312.278 208.281C312.587 206.495 312.747 204.549 312.759 202.42L313.812 202.443C313.789 204.526 313.652 206.392 313.388 208.029L313.4 208.017ZM321.172 216.659H320.142V208.612H316.227V207.605H320.142V202.02H321.172V216.671V216.659Z" fill="black"/>
<path d="M334.461 202.638V205.934C334.461 207.868 334.163 209.563 333.568 211.028C332.973 212.493 332.126 213.626 331.016 214.427C329.905 215.228 328.578 215.629 327.044 215.629V214.599C328.36 214.599 329.505 214.244 330.466 213.546C331.428 212.836 332.16 211.84 332.675 210.547C333.179 209.253 333.442 207.743 333.442 205.991V203.622H327.055V202.626H334.472L334.461 202.638ZM338.856 209.265V216.671H337.826V202.02H338.856V208.258H340.974V209.265H338.856Z" fill="black"/>
<path d="M347.498 208.601C346.147 209.619 344.224 210.135 341.752 210.135V209.127C343.915 209.127 345.575 208.715 346.754 207.88C347.921 207.044 348.505 205.785 348.505 204.114V203.45H341.752V202.477H349.535V203.999C349.535 206.048 348.86 207.582 347.498 208.601ZM354.079 211.726V216.59H353.026V212.698H342.439V211.726H354.079ZM354.137 210.764H353.106V208.704H349.707V207.708H353.106V204.984H350.245V204.011H353.106V202.008H354.137V210.764Z" fill="black"/>
<path d="M362.973 203.175C363.591 203.668 364.071 204.423 364.426 205.43C364.781 206.437 364.953 207.685 364.953 209.173C364.953 210.661 364.781 211.909 364.426 212.916C364.071 213.923 363.591 214.667 362.973 215.171C362.355 215.674 361.645 215.915 360.821 215.915C359.573 215.915 358.577 215.343 357.822 214.209C357.066 213.076 356.7 211.394 356.7 209.185C356.7 206.975 357.078 205.293 357.822 204.16C358.577 203.027 359.573 202.454 360.821 202.454C361.633 202.454 362.355 202.706 362.973 203.198V203.175ZM358.577 204.892C358.005 205.854 357.719 207.284 357.719 209.162C357.719 211.039 358.005 212.47 358.577 213.431C359.15 214.393 359.905 214.885 360.832 214.885C361.759 214.885 362.492 214.404 363.053 213.431C363.614 212.458 363.9 211.039 363.9 209.162C363.9 207.284 363.614 205.854 363.053 204.892C362.492 203.931 361.748 203.439 360.832 203.439C359.917 203.439 359.15 203.919 358.577 204.892ZM367.757 216.659V202.008H368.81V216.659H367.757Z" fill="black"/>
<path d="M374.797 209.15V202.477H382.729V209.15H374.797ZM386.586 210.936V216.373H375.255V210.936H386.586ZM375.827 203.427V208.2H381.722V203.427H375.827ZM385.556 215.446V211.897H376.285V215.446H385.556ZM386.586 206.323V209.986H385.556V202.008H386.586V205.293H388.704V206.323H386.586Z" fill="black"/>
<path d="M398.834 202.111V216.418H397.827V209.413H395.56C395.537 211.6 395.263 213.225 394.736 214.301C394.21 215.377 393.431 215.903 392.401 215.903C390.318 215.903 389.276 213.66 389.276 209.173C389.276 204.686 390.318 202.443 392.401 202.443C394.484 202.443 395.446 204.423 395.572 208.395H397.838V202.122H398.845L398.834 202.111ZM394.015 213.488C394.381 212.538 394.564 211.096 394.564 209.162C394.564 207.227 394.381 205.785 394.015 204.835C393.649 203.885 393.111 203.416 392.39 203.416C390.97 203.416 390.249 205.327 390.249 209.162C390.249 212.996 390.959 214.908 392.39 214.908C393.111 214.908 393.66 214.438 394.015 213.488ZM402.13 216.659H401.123V202.008H402.13V216.659Z" fill="black"/>
<path d="M420.981 210.526H407.166V209.576H413.553V208.008H414.583V209.576H420.97V210.526H420.981ZM409.501 206.978C408.906 207.402 408.242 207.676 407.487 207.802V206.829C408.471 206.635 409.261 206.108 409.867 205.227C410.474 204.345 410.829 203.201 410.92 201.793L411.95 201.885C411.87 202.903 411.687 203.773 411.378 204.494L413.976 206.761C414.881 206.509 415.613 205.948 416.174 205.101C416.735 204.254 417.067 203.144 417.181 201.804L418.177 201.896C418.097 202.915 417.914 203.773 417.628 204.471L420.741 207.012L420.112 207.756L417.216 205.33C416.414 206.68 415.293 207.516 413.862 207.848L410.978 205.307C410.6 205.994 410.108 206.543 409.512 206.967L409.501 206.978ZM419.928 212.312V216.581H418.898V213.239H408.059V212.3H419.928V212.312Z" fill="black"/>
<path d="M425.365 209.267V208.351H439.181V209.267H425.365ZM427.38 213.971V215.539H438.425V216.398H426.384V213.193H437.143V211.682H426.35V210.847H438.162V213.971H427.38ZM427.483 203.178V205.845H438.276V206.737H426.453V202.273H438.128V203.166H427.483V203.178Z" fill="black"/>
<path d="M453.019 216.662H451.989V209.394H448.876C448.864 210.813 448.681 212.015 448.326 212.988C447.972 213.961 447.491 214.694 446.884 215.174C446.277 215.655 445.579 215.896 444.789 215.896C444 215.896 443.29 215.644 442.683 215.152C442.077 214.659 441.607 213.904 441.264 212.897C440.921 211.889 440.749 210.642 440.749 209.154C440.749 207.666 440.921 206.418 441.264 205.411C441.607 204.404 442.077 203.66 442.683 203.156C443.29 202.664 443.988 202.412 444.789 202.412C445.946 202.412 446.896 202.916 447.628 203.923C448.361 204.93 448.773 206.407 448.853 208.353H451.978V202H453.008V216.651L453.019 216.662ZM447.01 213.446C447.559 212.485 447.834 211.054 447.834 209.165C447.834 207.277 447.559 205.846 447.01 204.884C446.461 203.923 445.728 203.442 444.812 203.442C443.897 203.442 443.187 203.923 442.626 204.896C442.065 205.869 441.791 207.288 441.791 209.165C441.791 211.042 442.065 212.473 442.626 213.435C443.187 214.396 443.908 214.888 444.812 214.888C445.717 214.888 446.461 214.408 447.01 213.446Z" fill="black"/>
<path d="M460.025 208.017L464.546 215.114L463.722 215.743L459.739 209.356C459.304 211.257 458.697 212.745 457.907 213.843C457.117 214.942 456.179 215.549 455.08 215.698V214.633C456.03 214.45 456.831 213.798 457.472 212.664C458.113 211.52 458.594 210.066 458.903 208.281C459.212 206.495 459.372 204.549 459.384 202.42L460.437 202.443C460.414 204.526 460.277 206.392 460.013 208.029L460.025 208.017ZM467.785 216.659H466.755V208.612H462.841V207.605H466.755V202.02H467.785V216.671V216.659Z" fill="black"/>
<path d="M481.406 202.489V215.686H473.852V202.489H474.859V207.926H480.387V202.489H481.395H481.406ZM480.399 208.922H474.87V214.702H480.399V208.922ZM485.469 209.265V216.671H484.439V202.02H485.469V208.258H487.587V209.265H485.469Z" fill="black"/>
<path d="M501.665 215.861H487.85V214.865H494.179V211.511H488.88V206.59H499.673V203.614H488.88V202.641H500.704V207.54H489.887V210.516H500.91V211.511H495.221V214.865H501.654V215.861H501.665Z" fill="black"/>
<path d="M513.397 211.477V217.005H512.344V211.477H506.049V210.412H519.864V211.477H513.397ZM507.045 203.464V202.457H518.777V209.004H517.724V203.476H507.045V203.464Z" fill="black"/>
<path d="M527.133 202.637V215.686H521.353V202.637H527.133ZM526.126 214.702V203.633H522.325V214.702H526.126ZM533.989 216.659H532.982V209.196H530.143V216.407H529.147V202.099H530.143V208.189H532.982V202.008H533.989V216.659Z" fill="black"/>
<path d="M535.374 204.529V203.613H538.613V201.805H539.643V203.613H542.757V204.529H535.374ZM536.862 210.149C536.255 209.657 535.946 209.004 535.946 208.169C535.946 207.333 536.255 206.681 536.862 206.189C537.469 205.696 538.236 205.445 539.151 205.445C540.067 205.445 540.834 205.696 541.44 206.189C542.047 206.681 542.356 207.345 542.356 208.169C542.356 208.993 542.047 209.657 541.44 210.149C540.834 210.641 540.067 210.881 539.151 210.881C538.236 210.881 537.469 210.641 536.862 210.149ZM544.531 215.677C543.936 216.055 543.306 216.295 542.642 216.387L539.952 214.327C539.518 214.899 539.002 215.368 538.419 215.723C537.823 216.089 537.217 216.307 536.576 216.387V215.414C537.114 215.334 537.64 215.117 538.155 214.739C538.671 214.361 539.105 213.892 539.449 213.331C539.792 212.77 539.998 212.175 540.044 211.545L541.04 211.683C540.96 212.335 540.765 212.953 540.445 213.548L542.871 215.38C543.386 215.265 543.867 215.013 544.336 214.636C544.806 214.258 545.183 213.789 545.504 213.251C545.813 212.713 546.007 212.141 546.065 211.545L547.061 211.683C546.98 212.289 546.809 212.862 546.545 213.4L549.773 215.597L549.224 216.433L546.053 214.201C545.641 214.807 545.149 215.311 544.542 215.689L544.531 215.677ZM537.537 206.864C537.125 207.207 536.931 207.642 536.931 208.18C536.931 208.718 537.137 209.142 537.537 209.485C537.938 209.828 538.487 210.012 539.163 210.012C539.838 210.012 540.376 209.84 540.788 209.485C541.2 209.13 541.395 208.695 541.395 208.18C541.395 207.665 541.189 207.207 540.788 206.864C540.387 206.52 539.838 206.349 539.151 206.349C538.464 206.349 537.938 206.52 537.526 206.864H537.537ZM544.016 211.019V202.114H544.966V205.719H547.747V202.022H548.743V211.213H547.747V206.727H544.966V211.019H544.016Z" fill="black"/>
<path d="M550.357 210.536V209.586H564.173V210.536H550.357ZM563.417 215.423V216.396H551.399V212.127H552.452V215.423H563.417ZM563.246 206.587V207.56H551.433V202.043H552.464V206.587H563.246Z" fill="black"/>
<path d="M570.891 214.53C571.452 214.404 571.967 214.232 572.414 214.038V215.011C571.99 215.228 571.487 215.4 570.88 215.514C570.273 215.64 569.655 215.697 569.026 215.697H565.672V202.649H571.818V203.622H566.668V214.724H569.186C569.77 214.724 570.342 214.667 570.914 214.53H570.891ZM574.978 202.111V216.418H573.97V209.185H569.999V208.177H573.97V202.111H574.978ZM578.274 216.659H577.267V202.008H578.274V216.659Z" fill="black"/>
<path d="M589.629 202.489V215.686H583.849V202.489H584.822V207.949H588.622V202.489H589.629ZM588.622 208.933H584.822V214.69H588.622V208.933ZM596.485 216.659H595.478V209.185H592.639V216.419H591.643V202.111H592.639V208.2H595.478V202.02H596.485V216.671V216.659Z" fill="black"/>
<path d="M611.892 209.986H598.076V209.048H604.463V206.564H605.493V209.048H611.88V209.986H611.892ZM602.037 206.598C600.892 207.125 599.759 207.399 598.626 207.434V206.484C599.541 206.449 600.468 206.22 601.396 205.808C602.323 205.396 603.147 204.824 603.822 204.114C604.509 203.393 604.944 202.592 605.116 201.699L606.123 201.894C605.985 202.569 605.734 203.176 605.379 203.725L611.354 206.621L610.93 207.479L604.829 204.504C604.097 205.385 603.158 206.083 602.014 206.61L602.037 206.598ZM609.316 212.104C610.438 212.493 610.999 213.145 610.999 214.05C610.999 214.954 610.438 215.629 609.316 216.03C608.195 216.43 606.752 216.625 604.99 216.625C603.227 216.625 601.796 216.43 600.674 216.03C599.553 215.629 598.98 214.965 598.98 214.05C598.98 213.134 599.541 212.493 600.663 212.104C601.785 211.715 603.227 211.509 604.99 211.509C606.752 211.509 608.206 211.703 609.316 212.104ZM608.469 215.32C609.431 215.057 609.911 214.633 609.911 214.05C609.911 213.466 609.442 213.065 608.492 212.813C607.542 212.562 606.375 212.436 604.99 212.436C603.605 212.436 602.437 212.562 601.476 212.813C600.526 213.065 600.045 213.477 600.045 214.05C600.045 214.622 600.526 215.045 601.487 215.309C602.449 215.572 603.616 215.709 604.99 215.709C606.363 215.709 607.508 215.583 608.469 215.32Z" fill="black"/>
<path d="M626.657 215.861H612.842V214.854H619.194V210.71H613.849V202.641H625.673V203.648H614.879V209.714H625.833V210.71H620.247V214.854H626.657V215.861Z" fill="black"/>
<path d="M52.9895 237.002H51.9593V233.316H48.6972C48.5942 234.266 48.1707 235.045 47.4381 235.64C46.7056 236.235 45.7326 236.533 44.5422 236.533C43.6952 236.533 42.9512 236.372 42.3103 236.063C41.6693 235.754 41.1885 235.319 40.8451 234.781C40.5018 234.232 40.3301 233.614 40.3301 232.916C40.3301 232.217 40.5018 231.588 40.8451 231.05C41.1885 230.501 41.6807 230.077 42.3103 229.768C42.9512 229.459 43.6952 229.299 44.5422 229.299C45.6983 229.299 46.6483 229.585 47.3923 230.134C48.1363 230.695 48.5598 231.428 48.6743 232.332H51.9593V229.047H52.9895V237.025V237.002ZM46.8429 234.85C47.4381 234.358 47.7357 233.705 47.7357 232.893C47.7357 232.08 47.4381 231.428 46.8429 230.935C46.2477 230.443 45.4808 230.203 44.5422 230.203C43.6037 230.203 42.8139 230.443 42.2301 230.924C41.6464 231.405 41.3488 232.069 41.3488 232.893C41.3488 233.717 41.6464 234.369 42.2301 234.861C42.8139 235.342 43.5808 235.583 44.5422 235.583C45.5037 235.583 46.2477 235.342 46.8429 234.85ZM52.9895 237.952V243.389H41.6235V237.952H52.9895ZM51.9593 242.439V238.913H42.6536V242.439H51.9593Z" fill="black"/>
<path d="M57.7516 236.236C56.9961 236.797 56.1262 237.163 55.1533 237.323V236.35C56.3208 236.122 57.2709 235.572 57.9805 234.714C58.7016 233.855 59.1251 232.779 59.2625 231.486H55.2792V230.536H59.3083V228.762H60.3384V230.536H64.253V231.486H60.3384C60.2468 232.218 60.1324 232.791 59.9721 233.203L64.4132 236.385L63.8981 237.186L59.5486 234.073C59.1022 234.954 58.507 235.664 57.7401 236.225L57.7516 236.236ZM66.3362 239.006C67.4121 239.429 67.9501 240.093 67.9501 240.986C67.9501 241.879 67.4121 242.554 66.3362 242.966C65.2602 243.39 63.8295 243.596 62.0553 243.596C60.2812 243.596 58.8619 243.39 57.7859 242.966C56.71 242.543 56.172 241.89 56.172 240.986C56.172 240.082 56.71 239.407 57.7745 238.995C58.839 238.582 60.2697 238.376 62.0439 238.376C63.818 238.376 65.2488 238.582 66.3247 239.006H66.3362ZM65.5349 242.268C66.4163 241.993 66.8627 241.558 66.8627 240.986C66.8627 240.414 66.4277 239.967 65.5464 239.704C64.665 239.429 63.509 239.292 62.0553 239.292C60.6017 239.292 59.4571 239.429 58.5757 239.716C57.6944 239.99 57.248 240.425 57.248 240.998C57.248 241.57 57.6944 241.993 58.5872 242.28C59.4799 242.554 60.636 242.703 62.0553 242.703C63.4746 242.703 64.6536 242.566 65.5349 242.28V242.268ZM66.7253 229.025H67.7555V237.758H66.7253V233.947H63.6349V232.974H66.7253V229.025Z" fill="black"/>
<path d="M77.8167 229.504V242.702H73.5244V229.504H74.4401V234.976H76.9353V229.504H77.8167ZM76.9353 235.937H74.4401V241.752H76.9353V235.937ZM83.0819 229.504V242.702H78.8125V229.504H79.6939V234.976H82.1891V229.504H83.0819ZM82.1777 235.937H79.6824V241.752H82.1777V235.937ZM85.7717 236.281V243.686H84.8217V229.035H85.7717V235.273H87.5688V236.281H85.7717Z" fill="black"/>
<path d="M87.832 242.873V241.877H101.647V242.873H87.832ZM89.8694 234.689V237.813H100.892V238.809H88.8507V233.716H99.6444V230.625H88.8507V229.652H100.675V234.689H89.858H89.8694Z" fill="black"/>
<path d="M110.712 241.511C111.365 241.374 111.914 241.202 112.349 240.985V241.992C111.926 242.209 111.388 242.381 110.712 242.507C110.048 242.633 109.373 242.702 108.698 242.702H103.433V229.653H111.479V230.649H104.463V241.717H108.732C109.396 241.717 110.048 241.648 110.701 241.523L110.712 241.511ZM115.485 243.674H114.455V236.269H108.87V235.262H114.455V229.023H115.485V243.674Z" fill="black"/>
<path d="M125.604 241.523C126.256 241.397 126.794 241.225 127.217 241.008V242.004C126.805 242.233 126.279 242.404 125.615 242.53C124.951 242.656 124.276 242.713 123.589 242.713H118.095V235.559H124.642V230.661H118.061V229.665H125.672V236.532H119.125V241.717H123.612C124.287 241.717 124.951 241.649 125.604 241.523ZM129.736 236.281V243.686H128.705V229.035H129.736V235.273H131.853V236.281H129.736Z" fill="black"/>
<path d="M145.932 242.872H132.116V241.865H137.633V234.883H138.686V241.865H145.932V242.872ZM133.032 230.648V229.641H144.913V239.313H143.86V230.648H133.02H133.032Z" fill="black"/>
<path d="M160.697 242.874H146.882V241.878H150.316V237.449C149.446 237.082 148.782 236.579 148.324 235.949C147.855 235.32 147.626 234.576 147.626 233.729C147.626 232.882 147.878 232.092 148.393 231.439C148.908 230.787 149.617 230.283 150.545 229.929C151.472 229.574 152.548 229.391 153.784 229.391C155.02 229.391 156.096 229.574 157.023 229.929C157.95 230.283 158.671 230.787 159.175 231.439C159.679 232.092 159.942 232.847 159.942 233.729C159.942 234.61 159.713 235.32 159.244 235.949C158.774 236.579 158.122 237.082 157.275 237.449V241.878H160.686V242.874H160.697ZM151.117 230.81C150.35 231.085 149.766 231.474 149.343 231.989C148.919 232.504 148.713 233.088 148.713 233.74C148.713 234.393 148.919 235.011 149.343 235.514C149.766 236.018 150.35 236.419 151.117 236.693C151.884 236.968 152.765 237.105 153.784 237.105C154.803 237.105 155.695 236.968 156.451 236.693C157.218 236.419 157.801 236.029 158.225 235.514C158.648 234.999 158.854 234.415 158.854 233.74C158.854 233.065 158.648 232.493 158.225 231.989C157.801 231.485 157.218 231.085 156.451 230.81C155.684 230.535 154.791 230.398 153.784 230.398C152.777 230.398 151.872 230.535 151.117 230.81ZM156.256 241.89V237.804C155.535 237.998 154.711 238.09 153.795 238.09C152.88 238.09 152.078 237.998 151.357 237.804V241.89H156.256Z" fill="black"/>
<path d="M162.334 242.864C162.174 242.704 162.082 242.509 162.082 242.269C162.082 242.029 162.162 241.822 162.334 241.662C162.494 241.502 162.7 241.422 162.929 241.422C163.158 241.422 163.353 241.502 163.524 241.662C163.684 241.822 163.776 242.017 163.776 242.269C163.776 242.521 163.696 242.715 163.524 242.864C163.364 243.024 163.158 243.104 162.929 243.104C162.7 243.104 162.506 243.024 162.334 242.864Z" fill="black"/>
<path d="M176.825 241.511C177.489 241.374 178.038 241.202 178.45 240.985V241.992C178.027 242.21 177.489 242.381 176.825 242.507C176.161 242.633 175.486 242.702 174.81 242.702H169.351V229.653H177.363V230.649H170.381V241.717H174.845C175.497 241.717 176.15 241.649 176.813 241.523L176.825 241.511ZM180.98 236.281V243.686H179.95V229.035H180.98V235.273H183.097V236.281H180.98Z" fill="black"/>
<path d="M183.36 236.887V235.948H197.176V236.887H183.36ZM194.589 229.698C195.722 230.156 196.294 230.843 196.294 231.759C196.294 232.674 195.722 233.361 194.589 233.819C193.456 234.277 192.014 234.506 190.274 234.506C188.534 234.506 187.092 234.277 185.959 233.819C184.814 233.361 184.253 232.674 184.253 231.759C184.253 230.843 184.825 230.156 185.959 229.698C187.092 229.241 188.534 229.012 190.274 229.012C192.014 229.012 193.456 229.241 194.589 229.698ZM184.413 243.411V238.684H196.123V243.411H184.413ZM186.726 230.385C185.764 230.694 185.283 231.152 185.283 231.747C185.283 232.343 185.764 232.8 186.714 233.098C187.664 233.407 188.854 233.556 190.262 233.556C191.67 233.556 192.849 233.407 193.799 233.098C194.749 232.789 195.219 232.343 195.219 231.747C195.219 231.152 194.738 230.694 193.788 230.385C192.838 230.076 191.659 229.916 190.262 229.916C188.866 229.916 187.687 230.076 186.726 230.385ZM195.116 239.599H185.444V242.495H195.116V239.599Z" fill="black"/>
<path d="M207.993 229.126V243.434H206.986V236.429H204.719C204.697 238.615 204.422 240.241 203.895 241.317C203.369 242.381 202.59 242.919 201.56 242.919C199.477 242.919 198.436 240.676 198.436 236.189C198.436 231.702 199.477 229.458 201.56 229.458C203.644 229.458 204.605 231.439 204.731 235.41H206.997V229.138H208.004L207.993 229.126ZM203.174 240.504C203.541 239.554 203.724 238.112 203.724 236.177C203.724 234.243 203.541 232.801 203.174 231.862C202.808 230.912 202.27 230.443 201.549 230.443C200.13 230.443 199.408 232.354 199.408 236.189C199.408 240.023 200.118 241.935 201.549 241.935C202.27 241.935 202.819 241.465 203.174 240.515V240.504ZM211.29 243.674H210.282V229.023H211.29V243.674Z" fill="black"/>
<path d="M226.707 242.873H212.892V241.865H219.244V237.722H213.899V229.652H225.723V230.66H214.929V236.726H225.883V237.722H220.297V241.865H226.707V242.873Z" fill="black"/>
<path d="M238.062 230.191C238.68 230.683 239.16 231.439 239.515 232.446C239.859 233.453 240.042 234.701 240.042 236.189C240.042 237.677 239.87 238.924 239.515 239.932C239.16 240.939 238.68 241.683 238.062 242.186C237.443 242.679 236.734 242.93 235.91 242.93C234.662 242.93 233.666 242.358 232.911 241.225C232.155 240.092 231.789 238.409 231.789 236.2C231.789 233.991 232.167 232.308 232.911 231.175C233.666 230.031 234.662 229.47 235.91 229.47C236.722 229.47 237.443 229.722 238.062 230.214V230.191ZM233.666 231.908C233.094 232.869 232.808 234.3 232.808 236.177C232.808 238.054 233.094 239.485 233.666 240.447C234.239 241.408 234.994 241.9 235.921 241.9C236.848 241.9 237.581 241.42 238.142 240.447C238.702 239.485 238.989 238.054 238.989 236.177C238.989 234.3 238.702 232.869 238.142 231.908C237.569 230.946 236.837 230.454 235.921 230.454C235.005 230.454 234.239 230.935 233.666 231.908ZM242.846 243.674V229.023H243.899V243.674H242.846Z" fill="black"/>
<path d="M259.672 237.058H245.856V236.119H249.141V234.002C248.386 233.796 247.802 233.51 247.379 233.121C246.955 232.743 246.738 232.274 246.738 231.724C246.738 230.808 247.299 230.122 248.432 229.675C249.565 229.229 251.007 229 252.758 229C254.51 229 255.952 229.229 257.085 229.675C258.218 230.122 258.779 230.808 258.779 231.724C258.779 232.274 258.562 232.731 258.138 233.121C257.715 233.498 257.119 233.796 256.353 234.002V236.119H259.649V237.058H259.672ZM257.097 239.13C258.218 239.519 258.779 240.16 258.779 241.064C258.779 241.968 258.218 242.644 257.097 243.033C255.975 243.434 254.533 243.64 252.77 243.64C251.007 243.64 249.576 243.434 248.443 243.033C247.322 242.632 246.761 241.98 246.761 241.064C246.761 240.149 247.322 239.519 248.443 239.13C249.565 238.741 251.007 238.546 252.77 238.546C254.533 238.546 255.975 238.741 257.097 239.13ZM249.21 230.385C248.26 230.694 247.779 231.14 247.779 231.736C247.779 232.331 248.26 232.789 249.21 233.086C250.16 233.395 251.351 233.544 252.758 233.544C254.166 233.544 255.345 233.395 256.295 233.086C257.245 232.777 257.715 232.331 257.715 231.736C257.715 231.14 257.245 230.683 256.295 230.385C255.345 230.076 254.166 229.927 252.758 229.927C251.351 229.927 250.16 230.076 249.21 230.385ZM256.238 242.335C257.188 242.071 257.669 241.648 257.669 241.064C257.669 240.48 257.2 240.08 256.261 239.828C255.322 239.576 254.155 239.45 252.77 239.45C251.385 239.45 250.217 239.576 249.267 239.828C248.317 240.08 247.848 240.492 247.848 241.064C247.848 241.637 248.329 242.071 249.29 242.335C250.252 242.598 251.408 242.724 252.77 242.724C254.132 242.724 255.288 242.598 256.238 242.335ZM255.334 236.119V234.254C254.636 234.391 253.777 234.46 252.758 234.46C251.74 234.46 250.881 234.391 250.16 234.254V236.119H255.334Z" fill="black"/>
<path d="M260.622 231.131V230.25H264.8V228.762H265.853V230.25H270.054V231.131H260.634H260.622ZM262.442 235.973C261.698 235.584 261.32 235.023 261.32 234.29C261.32 233.558 261.698 233.008 262.442 232.596C263.197 232.196 264.147 232.001 265.326 232.001C266.505 232.001 267.455 232.196 268.199 232.596C268.943 232.997 269.31 233.558 269.31 234.29C269.31 235.023 268.932 235.572 268.199 235.973C267.455 236.362 266.494 236.568 265.326 236.568C264.159 236.568 263.175 236.373 262.442 235.973ZM273.442 242.531V243.39H261.687V240.093H271.965V238.491H261.641V237.632H272.995V240.917H262.717V242.543H273.442V242.531ZM263.152 233.249C262.614 233.512 262.339 233.855 262.339 234.29C262.339 234.725 262.614 235.057 263.152 235.32C263.69 235.584 264.422 235.721 265.338 235.721C266.254 235.721 266.986 235.584 267.524 235.32C268.062 235.057 268.337 234.714 268.337 234.29C268.337 233.867 268.062 233.512 267.524 233.249C266.986 232.985 266.254 232.859 265.338 232.859C264.422 232.859 263.69 232.985 263.152 233.249ZM275.124 233.306H273.007V236.717H271.977V229.025H273.007V232.321H275.124V233.294V233.306Z" fill="black"/>
<path d="M285.14 229.126V243.434H284.132V236.223H281.214C280.882 238.18 280.241 239.748 279.291 240.904C278.341 242.072 277.173 242.656 275.788 242.656V241.648C276.715 241.637 277.528 241.282 278.226 240.584C278.924 239.886 279.462 238.913 279.84 237.688C280.218 236.452 280.401 235.044 280.401 233.453V230.672H275.788V229.676H281.42V233.396C281.42 234.117 281.385 234.735 281.328 235.227H284.132V229.138H285.14V229.126ZM288.55 243.674H287.543V229.023H288.55V243.674Z" fill="black"/>
<path d="M303.957 242.874H290.142V241.878H293.575V237.449C292.706 237.082 292.042 236.579 291.584 235.949C291.115 235.32 290.886 234.576 290.886 233.729C290.886 232.882 291.137 232.092 291.652 231.439C292.168 230.787 292.877 230.283 293.804 229.929C294.731 229.574 295.819 229.391 297.044 229.391C298.268 229.391 299.356 229.574 300.283 229.929C301.21 230.283 301.931 230.787 302.435 231.439C302.938 232.092 303.202 232.847 303.202 233.729C303.202 234.61 302.973 235.32 302.503 235.949C302.034 236.579 301.382 237.082 300.523 237.449V241.878H303.934V242.874H303.957ZM294.388 230.81C293.621 231.085 293.037 231.474 292.614 231.989C292.19 232.493 291.984 233.088 291.984 233.74C291.984 234.393 292.19 235.011 292.614 235.514C293.037 236.018 293.621 236.419 294.388 236.693C295.155 236.968 296.048 237.105 297.055 237.105C298.062 237.105 298.967 236.968 299.722 236.693C300.477 236.419 301.073 236.029 301.496 235.514C301.92 235.011 302.126 234.415 302.126 233.74C302.126 233.065 301.92 232.493 301.496 231.989C301.073 231.485 300.489 231.085 299.722 230.81C298.955 230.535 298.074 230.398 297.055 230.398C296.036 230.398 295.144 230.535 294.388 230.81ZM299.516 241.89V237.804C298.795 237.998 297.971 238.09 297.055 238.09C296.139 238.09 295.338 237.998 294.617 237.804V241.89H299.516Z" fill="black"/>
<path d="M310.538 237.471C310.217 237.288 309.863 237.013 309.473 236.659C309.13 236.35 308.844 236.132 308.604 235.983C308.363 235.834 308.1 235.766 307.814 235.766C307.345 235.766 306.967 235.937 306.681 236.281C306.394 236.624 306.234 237.082 306.211 237.654H305.49C305.525 236.796 305.753 236.132 306.166 235.663C306.578 235.194 307.116 234.953 307.757 234.953C308.192 234.953 308.569 235.045 308.878 235.239C309.187 235.434 309.542 235.709 309.931 236.063C310.298 236.384 310.595 236.613 310.824 236.75C311.042 236.888 311.305 236.956 311.591 236.956C312.072 236.956 312.461 236.785 312.736 236.441C313.01 236.098 313.171 235.628 313.193 235.045H313.915C313.88 235.903 313.651 236.567 313.239 237.036C312.827 237.517 312.289 237.746 311.648 237.746C311.225 237.746 310.858 237.654 310.538 237.471Z" fill="black"/>
<path d="M316.639 242.862C316.479 242.701 316.398 242.518 316.398 242.301C316.398 242.072 316.479 241.877 316.627 241.729C316.776 241.58 316.971 241.5 317.223 241.5C317.451 241.5 317.646 241.58 317.806 241.729C317.967 241.877 318.047 242.072 318.047 242.301C318.047 242.518 317.967 242.701 317.806 242.862C317.646 243.022 317.451 243.102 317.223 243.102C316.994 243.102 316.799 243.022 316.639 242.862ZM317.806 229.676L317.612 239.176H316.811L316.616 229.676H317.795H317.806Z" fill="black"/>
<path d="M96.4742 28.4805H45.127C42.4783 28.4805 40.3311 30.6278 40.3311 33.2766V84.626C40.3311 87.2748 42.4783 89.4221 45.127 89.4221H96.4742C99.1229 89.4221 101.27 87.2748 101.27 84.626V33.2766C101.27 30.6278 99.1229 28.4805 96.4742 28.4805Z" fill="#4AB65B"/>
<path d="M76.0772 59.9921L65.0889 44.2188H55.9893V73.6823H65.5239V57.9203L76.5007 73.6823H85.6003V44.2188H76.0772V59.9921Z" fill="white"/>
<path d="M122.502 52.7329V53.7516C122.09 53.9462 121.575 54.095 120.957 54.198C120.339 54.301 119.698 54.3582 119.023 54.3582H115.589V40.9777H116.608V53.3395H119.183C120.534 53.3395 121.644 53.1335 122.502 52.7329ZM125.135 40.4627V55.0908H124.105V47.1701H119.927V46.1399H124.105V40.4627H125.135ZM128.5 55.3426H127.47V40.3711H128.5V55.3426Z" fill="black"/>
<path d="M137.623 41.55C138.253 42.0537 138.745 42.8206 139.1 43.8507C139.454 44.8809 139.637 46.1514 139.637 47.6737C139.637 49.196 139.454 50.4666 139.1 51.4967C138.745 52.5269 138.253 53.2937 137.623 53.7974C136.993 54.301 136.261 54.5528 135.425 54.5528C134.155 54.5528 133.136 53.9691 132.369 52.813C131.602 51.6455 131.225 49.94 131.225 47.6737C131.225 45.4074 131.602 43.7019 132.369 42.5344C133.136 41.3669 134.155 40.7946 135.425 40.7946C136.261 40.7946 136.993 41.0464 137.623 41.55ZM133.125 43.3127C132.541 44.2971 132.243 45.7622 132.243 47.6852C132.243 49.6081 132.541 51.0618 133.125 52.0576C133.708 53.0419 134.475 53.5341 135.425 53.5341C136.375 53.5341 137.119 53.0419 137.692 52.0576C138.275 51.0732 138.562 49.6195 138.562 47.6852C138.562 45.7508 138.275 44.3086 137.692 43.3127C137.119 42.3284 136.352 41.8362 135.425 41.8362C134.498 41.8362 133.708 42.3284 133.125 43.3127ZM142.51 55.3426V40.3711H143.586V55.3426H142.51Z" fill="black"/>
<path d="M159.118 55.3423H158.042V47.8566H154.494V54.3465H146.768V40.8516H147.821V46.4144H153.441V40.8516H154.494V46.815H158.042V40.3594H159.118V55.3309V55.3423ZM153.441 47.4216H147.821V53.3278H153.441V47.4216Z" fill="black"/>
<path d="M173.574 41.0121V45.0525C173.574 46.9526 173.243 48.6008 172.59 49.9858C171.938 51.3822 171.022 52.4467 169.855 53.1793C168.687 53.9233 167.348 54.2896 165.837 54.2896V53.2594C167.497 53.2594 168.904 52.7672 170.026 51.7829C171.148 50.7985 171.903 49.4021 172.27 47.605H165.837V46.5863H172.43C172.476 46.2773 172.51 45.7737 172.51 45.0869V42.0308H165.837V41.0121H173.574ZM177.901 47.7767V55.3426H176.848V40.3711H177.901V46.7466H180.064V47.7767H177.901Z" fill="black"/>
<path d="M188.741 52.5383V53.5684C187.791 54.095 186.085 54.3468 183.636 54.3468H180.614V53.351H182.159V41.9964H180.717V41.0006H188.089V41.9964H186.612V53.1678C187.436 53.0534 188.146 52.8359 188.752 52.5269L188.741 52.5383ZM185.628 53.2709V41.9964H183.132V53.351C184.266 53.351 185.09 53.3281 185.628 53.2709ZM190.962 40.4627V55.0908H189.943V47.7767H187.871V46.7466H189.943V40.4627H190.962ZM194.144 55.3426H193.125V40.3711H194.144V55.3426Z" fill="black"/>
<path d="M200.702 44.1372C200.53 43.977 200.45 43.771 200.45 43.5192C200.45 43.2902 200.53 43.0842 200.702 42.924C200.874 42.7637 201.068 42.6836 201.309 42.6836C201.549 42.6836 201.744 42.7637 201.915 42.924C202.087 43.0842 202.167 43.2902 202.167 43.5192C202.167 43.771 202.087 43.977 201.915 44.1372C201.744 44.2975 201.549 44.3776 201.309 44.3776C201.068 44.3776 200.874 44.2975 200.702 44.1372ZM200.702 52.7791C200.53 52.6188 200.45 52.4128 200.45 52.161C200.45 51.932 200.53 51.726 200.702 51.5658C200.874 51.4055 201.068 51.3254 201.309 51.3254C201.549 51.3254 201.744 51.4055 201.915 51.5658C202.087 51.726 202.167 51.932 202.167 52.161C202.167 52.4128 202.087 52.6188 201.915 52.7791C201.744 52.9393 201.549 53.0194 201.309 53.0194C201.068 53.0194 200.874 52.9393 200.702 52.7791Z" fill="black"/>
<path d="M215.96 48.6807C215.056 48.7952 214.014 48.8409 212.847 48.8409H208.497V40.8287H216.944V41.7787H209.539V47.868H212.973C215.33 47.868 217.024 47.6505 218.066 47.2041V48.1771C217.574 48.3945 216.876 48.5662 215.971 48.6692L215.96 48.6807ZM220.973 50.6265V55.2622H219.92V51.5995H209.024V50.6265H220.973ZM220.973 49.6422H219.92V45.1553H214.712V44.2053H219.92V40.3594H220.973V49.6422Z" fill="black"/>
<path d="M229.478 45.0638L229.111 45.7048L226.593 44.2626L226.616 47.1127H225.895V44.2855L223.4 45.7048L223.045 45.0638L225.517 43.6559L223.045 42.2481L223.4 41.6071L225.895 43.0493V40.1992H226.616L226.593 43.0493L229.111 41.6071L229.478 42.2481L226.982 43.6559L229.478 45.0638Z" fill="black"/>
<path d="M236.837 45.0638L236.471 45.7048L233.953 44.2626L233.975 47.1127H233.254V44.2855L230.759 45.7048L230.404 45.0638L232.877 43.6559L230.404 42.2481L230.759 41.6071L233.254 43.0493V40.1992H233.975L233.953 43.0493L236.471 41.6071L236.837 42.2481L234.342 43.6559L236.837 45.0638Z" fill="black"/>
<path d="M246.269 41.0121V45.0525C246.269 46.9526 245.937 48.6008 245.284 49.9858C244.632 51.3822 243.716 52.4467 242.549 53.1793C241.381 53.9233 240.042 54.2896 238.531 54.2896V53.2594C240.191 53.2594 241.587 52.7672 242.721 51.7829C243.854 50.7985 244.598 49.4021 244.964 47.605H238.531V46.5863H245.124C245.181 46.2773 245.204 45.7737 245.204 45.0869V42.0308H238.531V41.0121H246.269ZM250.607 47.7767V55.3426H249.554V40.3711H250.607V46.7466H252.77V47.7767H250.607Z" fill="black"/>
<path d="M261.447 52.5383V53.5684C260.497 54.095 258.792 54.3468 256.342 54.3468H253.32V53.351H254.866V41.9964H253.423V41.0006H260.795V41.9964H259.318V53.1678C260.131 53.0534 260.852 52.8359 261.458 52.5269L261.447 52.5383ZM258.322 53.2709V41.9964H255.827V53.351C256.96 53.351 257.784 53.3281 258.322 53.2709ZM263.668 40.4627V55.0908H262.649V47.7767H260.577V46.7466H262.649V40.4627H263.668ZM266.85 55.3426H265.831V40.3711H266.85V55.3426Z" fill="black"/>
<path d="M125.742 78.5462H123.968V76.4515C123.567 77.1497 123.041 77.6877 122.388 78.0769C121.724 78.466 120.98 78.6492 120.145 78.6492C119.183 78.6492 118.313 78.4203 117.535 77.951C116.757 77.4817 116.139 76.8293 115.692 75.9822C115.246 75.1352 115.028 74.1738 115.028 73.0864C115.028 71.999 115.257 71.0375 115.692 70.1905C116.139 69.3435 116.757 68.6911 117.535 68.2218C118.313 67.7525 119.195 67.5236 120.145 67.5236C120.957 67.5236 121.69 67.7067 122.342 68.0844C122.995 68.4507 123.51 68.9887 123.899 69.664V63.2656H125.753V78.5347L125.742 78.5462ZM122.205 76.5431C122.743 76.2226 123.167 75.7648 123.476 75.1696C123.785 74.5744 123.933 73.8876 123.933 73.0978C123.933 72.308 123.785 71.6442 123.476 71.049C123.167 70.4538 122.743 69.9959 122.205 69.6754C121.667 69.3549 121.072 69.1947 120.419 69.1947C119.767 69.1947 119.137 69.3549 118.611 69.6754C118.073 69.9959 117.661 70.4538 117.352 71.049C117.043 71.6442 116.905 72.3309 116.905 73.0978C116.905 73.8647 117.054 74.5744 117.352 75.1696C117.649 75.7648 118.073 76.2226 118.611 76.5431C119.149 76.8636 119.744 77.0238 120.419 77.0238C121.095 77.0238 121.679 76.8636 122.205 76.5431Z" fill="black"/>
<path d="M130.744 63.2773V78.5464H128.89V63.2773H130.744Z" fill="black"/>
<path d="M140.175 68.4627L139.534 69.5501L137.039 68.085L137.062 70.8893H135.826L135.849 68.085L133.353 69.5501L132.735 68.4627L135.208 67.0892L132.735 65.7156L133.353 64.6283L135.849 66.0934L135.826 63.2891H137.062L137.039 66.0934L139.534 64.6283L140.175 65.7156L137.703 67.0892L140.175 68.4627Z" fill="black"/>
<path d="M149.001 68.6454C149.756 69.3894 150.134 70.4768 150.134 71.919V78.5463H148.405V76.7722C148.108 77.3788 147.65 77.8366 147.055 78.1571C146.46 78.4776 145.738 78.6379 144.903 78.6379C143.724 78.6379 142.797 78.3517 142.122 77.768C141.446 77.1842 141.114 76.4173 141.114 75.4788C141.114 74.5402 141.446 73.7733 142.11 73.201C142.774 72.6287 143.816 72.3425 145.223 72.3425H148.268C148.268 71.8732 148.222 71.5184 148.142 71.2551C148.062 70.5569 147.799 70.019 147.364 69.6641C146.929 69.2979 146.311 69.1147 145.51 69.1147C144.88 69.1147 144.273 69.2292 143.678 69.4467C143.083 69.6641 142.591 69.9732 142.179 70.3509L141.458 68.9888C141.996 68.5195 142.637 68.1647 143.381 67.9129C144.125 67.6611 144.903 67.5352 145.716 67.5352C147.146 67.5352 148.234 67.9014 148.989 68.6454H149.001ZM147.169 76.7607C147.673 76.4059 148.051 75.9023 148.28 75.2498V73.5672H145.395C144.537 73.5672 143.907 73.7275 143.518 74.048C143.129 74.3685 142.934 74.8149 142.934 75.3757C142.934 75.9366 143.152 76.4288 143.575 76.7722C143.999 77.1155 144.582 77.2872 145.326 77.2872C146.07 77.2872 146.666 77.1155 147.181 76.7607H147.169Z" fill="black"/>
<path d="M161.328 68.737C162.095 69.5382 162.484 70.7057 162.484 72.2281V78.5463H160.63V72.4913C160.63 71.4268 160.39 70.6142 159.897 70.0647C159.405 69.5153 158.707 69.2406 157.803 69.2406C156.784 69.2406 155.983 69.5611 155.399 70.2135C154.804 70.8545 154.518 71.7588 154.518 72.9263V78.5463H152.641V67.6611H154.426V69.6183C154.792 68.9545 155.308 68.4508 155.971 68.0846C156.635 67.7183 157.379 67.5352 158.238 67.5352C159.531 67.5352 160.561 67.9358 161.328 68.737Z" fill="black"/>
<path d="M171.698 68.4627L171.057 69.5501L168.562 68.085L168.584 70.8893H167.348L167.371 68.085L164.876 69.5501L164.258 68.4627L166.73 67.0892L164.258 65.7156L164.876 64.6283L167.371 66.0934L167.348 63.2891H168.584L168.562 66.0934L171.057 64.6283L171.698 65.7156L169.225 67.0892L171.698 68.4627Z" fill="black"/>
<path d="M179.927 68.4627L179.286 69.5501L176.791 68.085L176.814 70.8893H175.578L175.601 68.085L173.105 69.5501L172.487 68.4627L174.96 67.0892L172.487 65.7156L173.105 64.6283L175.601 66.0934L175.578 63.2891H176.814L176.791 66.0934L179.286 64.6283L179.927 65.7156L177.455 67.0892L179.927 68.4627Z" fill="black"/>
<path d="M183.762 63.2773V78.5464H181.908V63.2773H183.762Z" fill="black"/>
<path d="M193.182 68.4627L192.541 69.5501L190.046 68.085L190.069 70.8893H188.833L188.856 68.085L186.36 69.5501L185.742 68.4627L188.215 67.0892L185.742 65.7156L186.36 64.6283L188.856 66.0934L188.833 63.2891H190.069L190.046 66.0934L192.541 64.6283L193.182 65.7156L190.71 67.0892L193.182 68.4627Z" fill="black"/>
<path d="M207.547 69.2178C208.36 69.0919 208.99 68.9202 209.459 68.7027V70.3853C209.001 70.6028 208.36 70.7745 207.536 70.9004C206.712 71.0263 205.785 71.0835 204.766 71.0835H198.963V63.7008H200.84V69.4009H204.835C205.842 69.4009 206.746 69.3437 207.547 69.2178ZM199.57 79.0614V72.7661H212.389V79.0614H199.57ZM210.512 74.4258H201.412V77.3903H210.512V74.4258ZM210.512 71.8389V63.4375H212.389V71.8389H210.512Z" fill="black"/>
<path d="M227.12 76.3819V79.6097H225.231V76.3819H218.661V74.6306H233.69V76.3819H227.12ZM219.222 66.6298V64.9472H225.208V63.0586H227.097V64.9472H233.129V66.6298H219.222ZM221.637 68.3467C222.782 67.8431 224.293 67.5912 226.17 67.5912C228.047 67.5912 229.569 67.8431 230.714 68.3467C231.87 68.8503 232.442 69.5943 232.442 70.5787C232.442 71.563 231.87 72.307 230.714 72.8107C229.558 73.3143 228.047 73.5661 226.17 73.5661C224.293 73.5661 222.782 73.3143 221.637 72.8107C220.492 72.307 219.92 71.563 219.92 70.5787C219.92 69.5943 220.492 68.8503 221.637 68.3467ZM229.34 69.5371C228.528 69.2967 227.475 69.1823 226.17 69.1823C224.865 69.1823 223.812 69.2967 223.011 69.5371C222.209 69.7775 221.809 70.1208 221.809 70.5787C221.809 71.0365 222.209 71.3914 222.999 71.6317C223.789 71.8721 224.853 71.9866 226.17 71.9866C227.486 71.9866 228.551 71.8721 229.352 71.6317C230.153 71.3914 230.554 71.048 230.554 70.5787C230.554 70.1094 230.153 69.7775 229.34 69.5371Z" fill="black"/>
<path d="M243.019 73.3498C242.344 74.9179 241.371 76.1312 240.112 76.9897C238.853 77.8481 237.365 78.2716 235.671 78.2716V76.4174C236.998 76.4174 238.154 76.074 239.127 75.3758C240.1 74.6776 240.844 73.6932 241.359 72.4112C241.874 71.1293 242.126 69.6184 242.126 67.8786V65.7611H235.659V63.9869H244.038V67.8328C244.038 69.9274 243.694 71.7703 243.019 73.3384V73.3498ZM247.185 79.2446V63.4375H249.063V79.2446H247.185Z" fill="black"/>
<path d="M49.0757 121.667V128.329H47.8166V121.667H40.2393V120.385H56.8704V121.667H49.0871H49.0757ZM41.4297 112.018V110.805H55.5541V118.68H54.2951V112.018H41.4297Z" fill="#17544F"/>
<path d="M66.0383 111.021V126.737H59.0791V111.021H66.0383ZM64.8136 125.546V112.223H60.2466V125.546H64.8136ZM74.2795 127.916H73.0662V118.93H69.6439V127.618H68.4535V110.38H69.6439V117.706H73.0662V110.266H74.2795V127.916Z" fill="#17544F"/>
<path d="M93.3717 124.105V128.329H92.1356V124.105H86.8246V128.329H85.5884V124.105H81.1816V122.938H97.8128V124.105H93.3717ZM81.8226 113.552V112.385H88.8276V109.832H90.0867V112.385H97.1375V113.552H81.8112H81.8226ZM84.5811 115.83C85.8288 115.292 87.4656 115.029 89.4915 115.029C91.5175 115.029 93.1543 115.292 94.4133 115.83C95.6724 116.368 96.3019 117.158 96.3019 118.222C96.3019 119.287 95.6724 120.076 94.4133 120.614C93.1543 121.152 91.5175 121.415 89.4915 121.415C87.4656 121.415 85.8288 121.152 84.5811 120.614C83.3335 120.076 82.704 119.287 82.704 118.222C82.704 117.158 83.3335 116.368 84.5811 115.83ZM93.4748 116.654C92.4561 116.299 91.1283 116.127 89.4915 116.127C87.8547 116.127 86.5041 116.299 85.4968 116.654C84.4896 117.009 83.9745 117.524 83.9745 118.222C83.9745 118.92 84.4781 119.424 85.4968 119.767C86.5041 120.111 87.8433 120.282 89.4915 120.282C91.1398 120.282 92.4789 120.111 93.4862 119.767C94.4935 119.424 95.0085 118.909 95.0085 118.222C95.0085 117.535 94.4935 117.009 93.4862 116.654H93.4748Z" fill="#17544F"/>
<path d="M106.112 125.374C106.798 125.249 107.405 125.077 107.943 124.859V126.027C107.439 126.244 106.821 126.416 106.089 126.542C105.356 126.668 104.612 126.737 103.845 126.737H100.011V111.021H107.222V112.189H101.201V125.558H104.028C104.738 125.558 105.425 125.489 106.112 125.363V125.374ZM115.223 127.916H114.009V118.907H110.587V127.618H109.397V110.38H110.587V117.706H114.009V110.266H115.223V127.916Z" fill="#17544F"/>
<path d="M134.201 121.414H117.569V120.27H125.261V117.786H118.577V116.664H121.77V111.696H118.76V110.598H133.01V111.696H130V116.664H133.17V117.786H126.509V120.27H134.201V121.414ZM133.308 126.462V127.584H118.828V122.959H120.087V126.451H133.296L133.308 126.462ZM128.764 116.653V111.685H123.018V116.653H128.764Z" fill="#17544F"/>
<path d="M141.148 114.717C140.954 114.523 140.851 114.282 140.851 113.996C140.851 113.721 140.954 113.492 141.148 113.298C141.343 113.103 141.583 113.012 141.858 113.012C142.133 113.012 142.373 113.103 142.568 113.298C142.762 113.492 142.865 113.721 142.865 113.996C142.865 114.282 142.762 114.534 142.568 114.717C142.373 114.912 142.133 115.003 141.858 115.003C141.583 115.003 141.343 114.912 141.148 114.717ZM141.148 124.893C140.954 124.698 140.851 124.458 140.851 124.172C140.851 123.897 140.954 123.668 141.148 123.473C141.343 123.279 141.583 123.187 141.858 123.187C142.133 123.187 142.373 123.279 142.568 123.473C142.762 123.668 142.865 123.897 142.865 124.172C142.865 124.458 142.762 124.71 142.568 124.893C142.373 125.087 142.133 125.179 141.858 125.179C141.583 125.179 141.343 125.087 141.148 124.893Z" fill="#17544F"/>
<path d="M158.615 112.83C159.496 114.203 159.931 116.218 159.931 118.885C159.931 121.551 159.496 123.566 158.615 124.94C157.734 126.313 156.543 127 155.044 127C154.082 127 153.224 126.702 152.491 126.107C151.759 125.512 151.186 124.608 150.774 123.394C150.362 122.181 150.156 120.682 150.156 118.896C150.156 117.11 150.362 115.6 150.774 114.386C151.186 113.173 151.759 112.269 152.491 111.673C153.224 111.078 154.082 110.781 155.044 110.781C156.543 110.781 157.734 111.467 158.615 112.841V112.83ZM157.699 124.035C158.363 122.868 158.695 121.151 158.695 118.885C158.695 116.618 158.363 114.901 157.699 113.734C157.035 112.566 156.154 111.983 155.044 111.983C153.933 111.983 153.052 112.566 152.388 113.734C151.724 114.901 151.392 116.618 151.392 118.885C151.392 121.151 151.724 122.868 152.388 124.035C153.052 125.203 153.945 125.787 155.044 125.787C156.143 125.787 157.035 125.203 157.699 124.035ZM164.418 118.999V127.916H163.182V110.266H164.418V117.774H166.971V118.988H164.418V118.999Z" fill="#17544F"/>
<path d="M176.105 111.673C176.848 112.269 177.432 113.173 177.856 114.386C178.279 115.6 178.485 117.099 178.485 118.896C178.485 120.693 178.279 122.192 177.856 123.394C177.432 124.608 176.848 125.512 176.105 126.107C175.361 126.702 174.502 127 173.518 127C172.018 127 170.816 126.313 169.912 124.94C169.008 123.566 168.562 121.551 168.562 118.885C168.562 116.218 169.008 114.203 169.912 112.83C170.816 111.456 172.018 110.769 173.518 110.769C174.502 110.769 175.361 111.067 176.105 111.662V111.673ZM170.805 113.734C170.118 114.901 169.775 116.618 169.775 118.885C169.775 121.151 170.118 122.868 170.805 124.035C171.492 125.203 172.396 125.787 173.518 125.787C174.639 125.787 175.509 125.203 176.196 124.035C176.883 122.868 177.215 121.151 177.215 118.885C177.215 116.618 176.871 114.901 176.196 113.734C175.509 112.566 174.617 111.983 173.518 111.983C172.419 111.983 171.492 112.566 170.805 113.734ZM181.862 127.916V110.266H183.121V127.916H181.862Z" fill="#17544F"/>
<path d="M202.534 121.414H185.902V120.27H193.594V117.786H186.91V116.664H190.103V111.696H187.093V110.598H201.343V111.696H198.333V116.664H201.503V117.786H194.842V120.27H202.534V121.414ZM201.641 126.462V127.584H187.161V122.959H188.421V126.451H201.629L201.641 126.462ZM197.085 116.653V111.685H191.339V116.653H197.085Z" fill="#17544F"/>
<path d="M211.519 127.136H210.283V112.131H206.38V111.055H211.531V127.136H211.519Z" fill="#17544F"/>
<path d="M227.909 119.01C228.962 119.834 229.489 120.99 229.489 122.489C229.489 123.394 229.283 124.206 228.859 124.927C228.436 125.648 227.806 126.209 226.948 126.633C226.089 127.056 225.059 127.251 223.834 127.251C222.61 127.251 221.58 127.056 220.549 126.667C219.519 126.278 218.73 125.763 218.157 125.111L218.775 124.172C219.279 124.756 219.977 125.225 220.881 125.603C221.786 125.98 222.759 126.152 223.812 126.152C225.231 126.152 226.33 125.82 227.085 125.156C227.841 124.492 228.218 123.611 228.218 122.524C228.218 121.333 227.783 120.429 226.925 119.811C226.066 119.193 224.601 118.895 222.553 118.895H219.245L220.092 111.055H228.642V112.131H221.156L220.538 117.785H222.839C225.185 117.785 226.879 118.197 227.932 119.01H227.909Z" fill="#17544F"/>
</svg>
