<svg width="677" height="334" viewBox="0 0 677 334" fill="none" xmlns="http://www.w3.org/2000/svg">
<path d="M663.156 0H14.4482C6.8624 0 0.712891 6.14977 0.712891 13.7359V320.264C0.712891 327.85 6.8624 334 14.4482 334H663.156C670.742 334 676.891 327.85 676.891 320.264V13.7359C676.891 6.14977 670.742 0 663.156 0Z" fill="white"/>
<path d="M54.4404 155.476H40.625V154.583H54.4404V155.476ZM41.472 153.015V152.134H44.1275V149.124H41.6323V148.242H53.4561V149.124H50.9608V152.134H53.5934V153.015H41.4835H41.472ZM53.6965 161.543V162.367H41.6552V159.276H52.4145V157.823H41.6208V156.998H53.4332V160.055H42.651V161.543H53.6965ZM49.9192 152.145V149.135H45.1462V152.145H49.9192Z" fill="black"/>
<path d="M63.2191 149.343H56.0996V148.45H64.2263V152.536H57.1641V154.848H60.8497C61.96 154.848 62.9444 154.779 63.8143 154.654C64.6842 154.528 65.3595 154.345 65.8517 154.116V155.031C65.3824 155.26 64.7071 155.443 63.8257 155.569C62.9444 155.695 61.9371 155.764 60.7925 155.764H56.1339V151.666H63.2076V149.354L63.2191 149.343ZM68.1752 156.874V162.345H56.6719V156.874H57.7021V158.648H67.1451V156.874H68.1752ZM67.1451 159.53H57.7021V161.441H67.1451V159.53ZM68.1752 156.187H67.1451V147.98H68.1752V156.187Z" fill="black"/>
<path d="M78.1343 154.575C78.8096 154.896 79.3362 155.365 79.7139 155.96C80.0916 156.555 80.2747 157.253 80.2747 158.043C80.2747 158.833 80.0802 159.554 79.691 160.172C79.3018 160.79 78.7753 161.26 78.1 161.592C77.4247 161.923 76.6578 162.084 75.8108 162.084C74.071 162.084 72.7318 161.5 71.8046 160.321C70.8775 159.142 70.4082 157.505 70.4082 155.388C70.4082 153.911 70.66 152.664 71.1522 151.633C71.6444 150.615 72.3426 149.836 73.2468 149.321C74.1511 148.806 75.1927 148.543 76.3831 148.543C77.665 148.543 78.6837 148.783 79.4392 149.253L79.0157 150.054C78.3861 149.642 77.5048 149.447 76.406 149.447C74.918 149.447 73.739 149.928 72.8691 150.878C71.9992 151.828 71.5414 153.213 71.507 155.021C71.507 155.72 71.5528 156.338 71.6444 156.876C71.8962 156.017 72.3998 155.331 73.1553 154.85C73.9107 154.358 74.8035 154.117 75.8222 154.117C76.7036 154.117 77.4705 154.277 78.1458 154.598L78.1343 154.575ZM78.2831 160.355C78.9241 159.772 79.2446 159.016 79.2446 158.078C79.2446 157.139 78.9241 156.361 78.2831 155.788C77.6421 155.216 76.7608 154.93 75.662 154.93C74.9523 154.93 74.3228 155.067 73.7619 155.353C73.2011 155.64 72.7775 156.017 72.4799 156.498C72.1824 156.979 72.0221 157.517 72.0221 158.123C72.0221 158.661 72.1709 159.165 72.4571 159.646C72.7547 160.126 73.1782 160.504 73.739 160.802C74.2999 161.099 74.9866 161.237 75.7764 161.237C76.8066 161.237 77.6421 160.951 78.2831 160.367V160.355Z" fill="black"/>
<path d="M92.6937 148.61V151.907C92.6937 153.841 92.3961 155.535 91.8124 157C91.2172 158.465 90.3702 159.599 89.2599 160.4C88.1496 161.201 86.8219 161.602 85.2881 161.602V160.571C86.6158 160.571 87.749 160.217 88.7105 159.518C89.6719 158.809 90.4045 157.813 90.9081 156.52C91.4118 155.226 91.675 153.715 91.675 151.964V149.595H85.2881V148.599H92.7052L92.6937 148.61ZM97.0776 155.238V162.643H96.0474V147.992H97.0776V154.23H99.1951V155.238H97.0776Z" fill="black"/>
<path d="M105.731 154.573C104.38 155.592 102.457 156.107 99.9736 156.107V155.1C102.137 155.1 103.797 154.688 104.976 153.852C106.143 153.017 106.727 151.769 106.727 150.087V149.423H99.9736V148.45H107.757V149.972C107.757 152.021 107.082 153.555 105.72 154.585L105.731 154.573ZM112.301 157.698V162.563H111.248V158.671H100.66V157.698H112.301ZM112.358 156.737H111.328V154.676H107.929V153.681H111.328V150.956H108.467V149.984H111.328V147.98H112.358V156.737Z" fill="black"/>
<path d="M131.473 155.133H117.657V154.252H124.044V152.569H125.074V154.252H131.461V155.133H131.473ZM130.706 157.045V157.903H118.378V157.045H124.021V155.843H125.074V157.045H130.706ZM121.709 152.352C120.656 152.695 119.557 152.89 118.424 152.924V152.008C119.283 151.985 120.13 151.859 120.965 151.631C121.789 151.413 122.499 151.081 123.106 150.658C123.701 150.234 124.09 149.73 124.25 149.147H118.699V148.254H130.454V149.147H125.36C125.28 149.502 125.154 149.845 124.96 150.177L130.877 152.088L130.557 153.004L124.285 150.921C123.632 151.527 122.785 152.008 121.732 152.352H121.709ZM130.008 160.684C130.008 161.337 129.561 161.818 128.68 162.149C127.798 162.481 126.413 162.642 124.548 162.642C122.682 162.642 121.297 162.481 120.416 162.149C119.534 161.818 119.088 161.325 119.088 160.684C119.088 159.38 120.908 158.716 124.548 158.716C128.188 158.716 130.008 159.368 130.008 160.684ZM127.81 161.52C128.588 161.325 128.977 161.051 128.977 160.696C128.977 160.341 128.588 160.066 127.798 159.86C127.02 159.666 125.933 159.563 124.548 159.563C123.163 159.563 122.075 159.666 121.309 159.86C120.53 160.055 120.141 160.33 120.141 160.696C120.141 161.062 120.53 161.325 121.309 161.52C122.087 161.715 123.163 161.818 124.548 161.818C125.933 161.818 127.032 161.715 127.81 161.52Z" fill="black"/>
<path d="M132.423 156.782V155.832H146.238V156.782H132.423ZM142.381 148.312C143.308 148.552 144.041 148.896 144.59 149.365C145.139 149.834 145.414 150.395 145.414 151.07C145.414 151.746 145.139 152.318 144.59 152.799C144.041 153.279 143.308 153.634 142.381 153.863C141.465 154.104 140.447 154.218 139.336 154.218C138.226 154.218 137.219 154.104 136.292 153.863C135.364 153.623 134.632 153.268 134.094 152.799C133.545 152.318 133.27 151.746 133.27 151.07C133.27 150.395 133.545 149.823 134.094 149.365C134.643 148.896 135.376 148.552 136.292 148.312C137.207 148.072 138.226 147.957 139.336 147.957C140.447 147.957 141.454 148.072 142.381 148.312ZM145.494 161.395V162.368H133.476V158.281H134.529V161.395H145.494ZM136.875 149.136C136.108 149.308 135.502 149.559 135.033 149.891C134.563 150.223 134.334 150.613 134.334 151.07C134.334 151.757 134.815 152.295 135.788 152.684C136.761 153.073 137.94 153.268 139.325 153.268C140.71 153.268 141.889 153.073 142.85 152.684C143.812 152.295 144.304 151.757 144.304 151.07C144.304 150.613 144.075 150.223 143.617 149.891C143.159 149.559 142.553 149.308 141.786 149.136C141.019 148.964 140.206 148.873 139.325 148.873C138.443 148.873 137.631 148.964 136.864 149.136H136.875Z" fill="black"/>
<path d="M164.438 156.049H150.622V155.099H156.173V151.55H157.204V155.099H164.438V156.049ZM157.822 158.91L163.922 161.623L163.499 162.516L157.261 159.677C156.574 160.513 155.704 161.177 154.64 161.646C153.575 162.115 152.476 162.355 151.343 162.355V161.36C152.259 161.36 153.152 161.177 154.022 160.822C154.891 160.467 155.635 159.963 156.231 159.311C156.837 158.658 157.226 157.903 157.398 157.067L158.428 157.216C158.28 157.892 158.062 158.452 157.799 158.91H157.822ZM151.652 149.204V148.254H163.362V153.84H162.309V149.204H151.641H151.652Z" fill="black"/>
<path d="M171.614 155.045C170.87 155.582 170.012 155.926 169.027 156.098V155.125C170.183 154.907 171.122 154.381 171.843 153.545C172.564 152.71 172.988 151.668 173.125 150.432H169.153V149.482H173.159V147.73H174.19V149.482H178.116V150.432H174.19C174.144 151.016 174.018 151.576 173.823 152.114L178.31 155.09L177.772 155.926L173.388 153.007C172.942 153.831 172.347 154.518 171.603 155.045H171.614ZM175.941 159.474L181.755 161.649L181.412 162.565L175.311 160.218C174.67 160.893 173.858 161.42 172.839 161.798C171.82 162.175 170.767 162.359 169.657 162.359V161.409C170.527 161.409 171.339 161.283 172.118 161.042C172.896 160.79 173.56 160.436 174.121 159.978C174.682 159.509 175.071 158.971 175.288 158.364H169.851V157.448H181.469V158.364H176.41C176.319 158.742 176.158 159.119 175.929 159.486L175.941 159.474ZM183.324 152.549H181.206V156.475H180.176V147.982H181.206V151.508H183.324V152.538V152.549Z" fill="black"/>
<path d="M191.828 160.468C192.492 160.331 193.041 160.159 193.453 159.942V160.949C193.03 161.167 192.492 161.338 191.828 161.464C191.164 161.59 190.489 161.659 189.813 161.659H184.354V148.61H192.366V149.606H185.384V160.674H189.848C190.5 160.674 191.153 160.606 191.816 160.468H191.828ZM195.971 155.238V162.643H194.941V147.992H195.971V154.23H198.089V155.238H195.971Z" fill="black"/>
<path d="M204.579 155.045C203.835 155.582 202.977 155.926 201.992 156.098V155.125C203.148 154.907 204.087 154.381 204.808 153.545C205.529 152.71 205.953 151.668 206.09 150.432H202.118V149.482H206.124V147.73H207.154V149.482H211.08V150.432H207.154C207.109 151.016 206.983 151.576 206.788 152.114L211.275 155.09L210.737 155.926L206.353 153.007C205.907 153.831 205.312 154.518 204.568 155.045H204.579ZM208.906 159.474L214.72 161.649L214.377 162.565L208.276 160.218C207.635 160.893 206.811 161.42 205.804 161.798C204.796 162.175 203.732 162.359 202.622 162.359V161.409C203.492 161.409 204.304 161.283 205.083 161.042C205.861 160.79 206.525 160.436 207.086 159.978C207.647 159.509 208.036 158.971 208.253 158.364H202.816V157.448H214.434V158.364H209.375C209.283 158.742 209.123 159.119 208.894 159.486L208.906 159.474ZM216.288 152.549H214.171V156.475H213.141V147.982H214.171V151.508H216.288V152.538V152.549Z" fill="black"/>
<path d="M224.782 160.468C225.446 160.331 225.995 160.159 226.419 159.942V160.949C225.995 161.167 225.457 161.338 224.782 161.464C224.118 161.59 223.443 161.659 222.767 161.659H217.308V148.61H225.32V149.606H218.338V160.674H222.802C223.454 160.674 224.107 160.606 224.77 160.468H224.782ZM228.937 155.238V162.643H227.907V147.992H228.937V154.23H231.054V155.238H228.937Z" fill="black"/>
<path d="M241.046 153.601C239.707 154.413 237.784 154.814 235.266 154.814V153.875C237.463 153.864 239.146 153.532 240.302 152.891C241.458 152.25 242.042 151.22 242.042 149.812V149.377H235.266V148.438H243.049V149.72C243.049 151.494 242.385 152.799 241.046 153.601ZM248.074 162.345H236.17V158.831H246.62V157.034H236.124V156.142H247.65V159.667H237.234V161.441H248.074V162.334V162.345ZM243.221 153.761V152.822H246.632V150.625H243.747V149.674H246.632V147.98H247.639V155.192H246.632V153.761H243.221Z" fill="black"/>
<path d="M256.934 157.937H262.279V162.55H261.249V158.887H250.409V157.937H255.904V155.19H249.517V154.217H263.332V155.19H256.945V157.937H256.934ZM250.547 149.227V148.254H262.256V153.233H261.203V149.227H250.535H250.547Z" fill="black"/>
<path d="M280.616 162.631H279.586V155.363H276.472C276.461 156.794 276.278 157.984 275.923 158.957C275.568 159.93 275.087 160.662 274.481 161.143C273.874 161.624 273.176 161.864 272.386 161.864C271.596 161.864 270.887 161.612 270.28 161.12C269.673 160.628 269.204 159.873 268.861 158.865C268.517 157.858 268.346 156.611 268.346 155.123C268.346 153.635 268.517 152.387 268.861 151.38C269.204 150.372 269.673 149.628 270.28 149.125C270.887 148.633 271.585 148.381 272.386 148.381C273.542 148.381 274.492 148.884 275.225 149.892C275.957 150.899 276.369 152.376 276.45 154.321H279.574V147.969H280.604V162.62L280.616 162.631ZM274.595 159.415C275.145 158.453 275.419 157.023 275.419 155.134C275.419 153.245 275.145 151.815 274.595 150.853C274.046 149.892 273.313 149.411 272.398 149.411C271.482 149.411 270.772 149.892 270.211 150.865C269.662 151.826 269.376 153.257 269.376 155.134C269.376 157.011 269.651 158.442 270.211 159.403C270.761 160.365 271.493 160.857 272.398 160.857C273.302 160.857 274.046 160.376 274.595 159.415Z" fill="black"/>
<path d="M289.898 156.841H295.278V159.965H284.519V161.511H295.541V162.369H283.5V159.187H294.236V157.699H283.454V156.841H288.857V155.158H282.47V154.277H296.285V155.158H289.898V156.841ZM285.045 152.583C283.923 152.159 283.363 151.507 283.363 150.614C283.363 149.721 283.923 149.069 285.045 148.645C286.167 148.222 287.62 148.016 289.383 148.016C291.146 148.016 292.577 148.222 293.698 148.645C294.82 149.069 295.381 149.721 295.381 150.614C295.381 151.507 294.82 152.159 293.71 152.583C292.6 153.006 291.157 153.212 289.395 153.212C287.632 153.212 286.178 153.006 285.057 152.583H285.045ZM285.835 149.343C284.896 149.618 284.427 150.053 284.427 150.625C284.427 151.198 284.896 151.621 285.835 151.907C286.773 152.193 287.964 152.331 289.383 152.331C290.802 152.331 291.981 152.193 292.92 151.907C293.859 151.633 294.316 151.198 294.316 150.625C294.316 150.053 293.847 149.63 292.92 149.343C291.981 149.069 290.802 148.92 289.383 148.92C287.964 148.92 286.773 149.057 285.835 149.343Z" fill="black"/>
<path d="M299.021 152.605V155.008H302.707C303.829 155.008 304.824 154.94 305.694 154.814C306.564 154.688 307.24 154.505 307.709 154.264V155.203C307.24 155.432 306.564 155.615 305.683 155.741C304.802 155.867 303.794 155.936 302.65 155.936H297.991V151.735H305.065V149.354H297.945V148.461H306.072V152.616H299.01L299.021 152.605ZM298.529 162.345V157.515H310.032V162.345H298.529ZM309.002 158.454H299.559V161.407H309.002V158.454ZM309.002 156.565V147.98H310.032V156.565H309.002Z" fill="black"/>
<path d="M321.878 148.083V162.391H320.871V155.386H318.605C318.582 157.572 318.307 159.198 317.769 160.274C317.243 161.338 316.464 161.876 315.434 161.876C313.351 161.876 312.31 159.633 312.31 155.146C312.31 150.659 313.351 148.415 315.434 148.415C317.518 148.415 318.479 150.396 318.605 154.367H320.871V148.095H321.878V148.083ZM317.06 159.461C317.426 158.511 317.598 157.069 317.598 155.134C317.598 153.2 317.415 151.758 317.06 150.819C316.693 149.869 316.155 149.4 315.423 149.4C314.004 149.4 313.282 151.311 313.282 155.146C313.282 158.98 313.992 160.892 315.423 160.892C316.144 160.892 316.693 160.422 317.06 159.472V159.461ZM325.175 162.631H324.168V147.98H325.175V162.631Z" fill="black"/>
<path d="M331.906 153.99L336.427 161.087L335.603 161.716L331.62 155.329C331.185 157.229 330.578 158.717 329.788 159.816C328.998 160.915 328.06 161.521 326.961 161.67V160.606C327.911 160.423 328.712 159.77 329.353 158.626C329.994 157.492 330.475 156.027 330.784 154.242C331.093 152.468 331.253 150.51 331.265 148.381L332.318 148.404C332.295 150.487 332.157 152.353 331.894 153.99H331.906ZM339.678 162.632H338.647V154.585H334.733V153.578H338.647V147.992H339.678V162.643V162.632Z" fill="black"/>
<path d="M354.328 150.521V151.516H345.309V150.521H349.292V147.945H350.345V150.521H354.328ZM351.741 153.52C352.325 153.886 352.771 154.412 353.103 155.088C353.435 155.763 353.596 156.541 353.596 157.411C353.596 158.281 353.435 159.059 353.103 159.735C352.771 160.41 352.314 160.925 351.741 161.291C351.169 161.658 350.517 161.841 349.807 161.841C349.097 161.841 348.456 161.658 347.884 161.291C347.312 160.925 346.865 160.399 346.533 159.735C346.201 159.071 346.041 158.293 346.041 157.411C346.041 156.53 346.201 155.763 346.533 155.088C346.865 154.412 347.312 153.897 347.884 153.52C348.456 153.142 349.097 152.97 349.807 152.97C350.517 152.97 351.169 153.153 351.741 153.52ZM351.192 160.433C351.615 160.147 351.947 159.746 352.199 159.22C352.451 158.693 352.565 158.098 352.565 157.411C352.565 156.724 352.44 156.118 352.199 155.591C351.959 155.065 351.615 154.653 351.192 154.367C350.768 154.08 350.311 153.932 349.795 153.932C349.28 153.932 348.823 154.069 348.399 154.367C347.976 154.653 347.644 155.065 347.392 155.591C347.14 156.118 347.014 156.724 347.014 157.411C347.014 158.098 347.14 158.705 347.392 159.22C347.644 159.746 347.976 160.147 348.399 160.433C348.823 160.719 349.28 160.868 349.795 160.868C350.311 160.868 350.768 160.731 351.192 160.433ZM357.361 155.236V162.642H356.331V147.991H357.361V154.229H359.479V155.236H357.361Z" fill="black"/>
<path d="M369.494 148.083V162.391H368.487V155.18H365.568C365.236 157.137 364.595 158.705 363.657 159.862C362.707 161.029 361.539 161.613 360.154 161.613V160.606C361.081 160.594 361.894 160.239 362.592 159.541C363.291 158.843 363.829 157.87 364.206 156.645C364.584 155.409 364.767 154.001 364.767 152.41V149.629H360.154V148.633H365.786V152.353C365.786 153.074 365.751 153.692 365.694 154.184H368.499V148.095H369.506L369.494 148.083ZM372.905 162.631H371.898V147.98H372.905V162.631Z" fill="black"/>
<path d="M380.746 156.496H377.941V155.581H381.169V153.463H378.571V148.45H384.729V149.365H379.555V152.57H384.901V153.463H382.176V155.558C383.825 155.523 385.038 155.34 385.805 155.008V155.924C384.992 156.302 383.31 156.496 380.746 156.496ZM386.789 161.659C386.194 162.048 385.553 162.277 384.878 162.345L382.131 160.193C381.707 160.8 381.204 161.304 380.608 161.681C380.013 162.059 379.384 162.288 378.708 162.345V161.372C379.281 161.304 379.819 161.098 380.322 160.731C380.826 160.365 381.238 159.896 381.57 159.312C381.902 158.728 382.096 158.099 382.142 157.424L383.092 157.515C383.058 158.156 382.898 158.786 382.611 159.404L385.107 161.35C385.633 161.247 386.114 161.006 386.572 160.64C387.03 160.274 387.396 159.793 387.682 159.243C387.98 158.683 388.14 158.076 388.174 157.435L389.17 157.549C389.124 158.167 388.975 158.774 388.747 159.346L391.951 161.659L391.436 162.437L388.266 160.125C387.854 160.766 387.362 161.269 386.755 161.67L386.789 161.659ZM386.618 156.931V148.038H387.613V151.357H390.109V147.98H391.104V157.217H390.109V152.33H387.613V156.931H386.618Z" fill="black"/>
<path d="M399.998 160.079V161.075C399.586 161.269 399.094 161.407 398.487 161.51C397.892 161.613 397.263 161.659 396.599 161.659H393.245V148.576H394.241V160.674H396.759C398.087 160.674 399.163 160.48 399.998 160.079ZM402.574 148.083V162.391H401.566V154.642H397.48V153.635H401.566V148.083H402.574ZM405.87 162.631H404.863V147.98H405.87V162.631Z" fill="black"/>
<path d="M421.276 161.831H407.461V160.835H410.895V156.406C410.025 156.039 409.361 155.536 408.903 154.906C408.434 154.277 408.205 153.533 408.205 152.686C408.205 151.839 408.457 151.049 408.972 150.397C409.487 149.744 410.197 149.24 411.124 148.886C412.051 148.531 413.127 148.348 414.363 148.348C415.599 148.348 416.675 148.531 417.602 148.886C418.529 149.24 419.25 149.744 419.754 150.397C420.258 151.049 420.521 151.804 420.521 152.686C420.521 153.567 420.292 154.277 419.823 154.906C419.353 155.536 418.701 156.039 417.854 156.406V160.835H421.265V161.831H421.276ZM411.707 149.767C410.941 150.042 410.357 150.431 409.933 150.946C409.51 151.45 409.304 152.045 409.304 152.697C409.304 153.35 409.51 153.968 409.933 154.471C410.357 154.975 410.941 155.376 411.707 155.639C412.474 155.914 413.356 156.051 414.374 156.051C415.393 156.051 416.286 155.914 417.041 155.639C417.808 155.364 418.392 154.975 418.815 154.471C419.239 153.968 419.445 153.372 419.445 152.697C419.445 152.022 419.239 151.45 418.815 150.946C418.392 150.442 417.808 150.042 417.041 149.767C416.274 149.492 415.393 149.355 414.374 149.355C413.356 149.355 412.463 149.492 411.707 149.767ZM416.835 160.847V156.761C416.114 156.955 415.29 157.047 414.374 157.047C413.459 157.047 412.657 156.955 411.936 156.761V160.847H416.835Z" fill="black"/>
<path d="M430.48 152.271L427.595 159.231H426.714L430.01 151.367H430.926L434.223 159.231H433.33L430.468 152.271H430.48Z" fill="black"/>
<path d="M441.044 152.271L438.16 159.231H437.278L440.575 151.367H441.49L444.787 159.231H443.894L441.033 152.271H441.044Z" fill="black"/>
<path d="M454.986 148.461V161.659H450.693V148.461H451.609V153.933H454.104V148.461H454.986ZM454.116 154.894H451.62V160.709H454.116V154.894ZM460.251 148.461V161.659H455.981V148.461H456.863V153.933H459.358V148.461H460.251ZM459.358 154.894H456.863V160.709H459.358V154.894ZM462.941 155.238V162.643H461.991V147.992H462.941V154.23H464.738V155.238H462.941Z" fill="black"/>
<path d="M465.001 157.422V156.507H478.816V157.422H465.001ZM478.072 161.428V162.367H466.054V158.819H467.107V161.428H478.072ZM467.119 151.951V153.988H477.969V154.87H466.1V151.115H476.768V149.135H466.1V148.254H477.752V151.951H467.107H467.119Z" fill="black"/>
<path d="M489.519 148.461V161.659H483.738V148.461H484.711V153.921H488.511V148.461H489.519ZM488.511 154.906H484.711V160.663H488.511V154.906ZM496.363 162.632H495.356V155.157H492.517V162.391H491.522V148.084H492.517V154.173H495.356V147.992H496.363V162.643V162.632Z" fill="black"/>
<path d="M511.781 155.959H497.966V155.02H504.353V152.536H505.383V155.02H511.77V155.959H511.781ZM501.926 152.571C500.793 153.097 499.648 153.372 498.527 153.395V152.445C499.442 152.41 500.37 152.181 501.308 151.769C502.247 151.357 503.048 150.785 503.735 150.075C504.421 149.354 504.856 148.553 505.028 147.66L506.035 147.855C505.898 148.53 505.646 149.137 505.291 149.686L511.266 152.582L510.843 153.44L504.742 150.464C504.009 151.346 503.071 152.044 501.926 152.571ZM509.206 158.076C510.328 158.477 510.888 159.118 510.888 160.022C510.888 160.926 510.328 161.602 509.194 161.991C508.061 162.38 506.631 162.597 504.879 162.597C503.128 162.597 501.686 162.391 500.553 161.991C499.431 161.59 498.87 160.926 498.87 160.022C498.87 159.118 499.431 158.465 500.553 158.076C501.674 157.687 503.117 157.481 504.879 157.481C506.642 157.481 508.084 157.676 509.206 158.076ZM508.359 161.292C509.32 161.029 509.801 160.606 509.801 160.022C509.801 159.438 509.332 159.038 508.382 158.786C507.432 158.534 506.264 158.408 504.879 158.408C503.494 158.408 502.327 158.534 501.365 158.786C500.404 159.038 499.935 159.45 499.935 160.022C499.935 160.594 500.415 161.018 501.377 161.281C502.338 161.544 503.506 161.682 504.879 161.682C506.253 161.682 507.397 161.556 508.359 161.292Z" fill="black"/>
<path d="M522.598 148.083V162.391H521.59V155.386H519.324C519.301 157.572 519.026 159.198 518.5 160.274C517.973 161.338 517.195 161.876 516.165 161.876C514.082 161.876 513.04 159.633 513.04 155.146C513.04 150.659 514.082 148.415 516.165 148.415C518.248 148.415 519.209 150.396 519.335 154.367H521.602V148.095H522.609L522.598 148.083ZM517.779 159.461C518.145 158.511 518.328 157.069 518.328 155.134C518.328 153.2 518.145 151.758 517.779 150.819C517.412 149.869 516.874 149.4 516.153 149.4C514.734 149.4 514.013 151.311 514.013 155.146C514.013 158.98 514.723 160.892 516.153 160.892C516.874 160.892 517.424 160.422 517.779 159.472V159.461ZM525.894 162.631H524.887V147.98H525.894V162.631Z" fill="black"/>
<path d="M536.963 148.61V152.33C536.963 154.127 536.734 155.718 536.276 157.126C535.818 158.534 535.166 159.633 534.307 160.423C533.449 161.212 532.464 161.602 531.331 161.602V160.594C532.258 160.583 533.071 160.228 533.769 159.53C534.467 158.832 535.005 157.859 535.383 156.634C535.761 155.398 535.944 153.99 535.944 152.399V149.618H531.331V148.622H536.963V148.61ZM544.093 162.632H543.086V155.157H540.11V162.391H539.114V148.084H540.11V154.173H543.086V147.992H544.093V162.643V162.632Z" fill="black"/>
<path d="M559.512 156.644H545.696V155.751H552.083V154.091H546.795V148.254H558.562V149.078H547.825V150.772H558.321V151.55H547.825V153.267H558.665V154.091H553.113V155.751H559.5V156.644H559.512ZM556.891 158.51C558.024 158.887 558.596 159.471 558.596 160.261C558.596 161.051 558.035 161.646 556.902 162.024C555.769 162.401 554.338 162.584 552.61 162.584C550.881 162.584 549.451 162.401 548.317 162.024C547.184 161.646 546.623 161.062 546.623 160.261C546.623 159.46 547.196 158.887 548.329 158.51C549.462 158.132 550.893 157.937 552.61 157.937C554.327 157.937 555.757 158.132 556.891 158.51ZM556.066 161.36C557.039 161.119 557.532 160.753 557.532 160.272C557.532 159.792 557.051 159.425 556.066 159.185C555.094 158.945 553.937 158.819 552.61 158.819C551.282 158.819 550.114 158.945 549.142 159.185C548.157 159.425 547.676 159.792 547.676 160.272C547.676 160.753 548.169 161.119 549.142 161.36C550.126 161.6 551.282 161.726 552.61 161.726C553.937 161.726 555.094 161.6 556.066 161.36Z" fill="black"/>
<path d="M564.684 148.61V151.792C564.684 154.619 564.387 156.851 563.803 158.5C563.219 160.148 562.235 161.006 560.861 161.087V160.079C561.88 159.988 562.601 159.232 563.036 157.79C563.471 156.359 563.689 154.391 563.689 151.918V149.606H560.861V148.61H564.673H564.684ZM569.354 148.61V152.078C569.354 155.043 569.011 157.355 568.324 159.003C567.637 160.652 566.584 161.521 565.154 161.602V160.594C566.218 160.503 567.019 159.736 567.534 158.294C568.049 156.851 568.313 154.814 568.313 152.181V149.606H565.531V148.61H569.343H569.354ZM572.937 155.238V162.643H571.93V147.992H572.937V154.23H574.963V155.238H572.937Z" fill="black"/>
<path d="M580.4 154.779L585.207 160.88L584.383 161.51L580.114 155.993C579.668 157.63 579.061 158.946 578.294 159.919C577.527 160.892 576.623 161.475 575.593 161.659V160.594C576.474 160.388 577.218 159.793 577.848 158.797C578.477 157.801 578.958 156.519 579.301 154.928C579.633 153.337 579.816 151.563 579.851 149.606H575.879V148.61H584.773V149.606H580.881C580.858 151.575 580.698 153.303 580.4 154.779ZM588.012 162.631H586.982V147.98H588.012V162.631Z" fill="black"/>
<path d="M45.386 175.477V188.674H41.0938V175.477H42.0094V180.948H44.5047V175.477H45.386ZM44.5047 181.91H42.0094V187.724H44.5047V181.91ZM50.6512 175.477V188.674H46.3819V175.477H47.2632V180.948H49.7584V175.477H50.6512ZM49.747 181.91H47.2518V187.724H49.747V181.91ZM53.3411 182.253V189.659H52.3911V175.008H53.3411V181.246H55.1381V182.253H53.3411Z" fill="black"/>
<path d="M55.4014 188.845V187.849H69.2168V188.845H55.4014ZM57.4388 180.661V183.786H68.4614V184.782H56.4201V179.688H67.2137V176.598H56.4201V175.625H68.2439V180.661H57.4273H57.4388Z" fill="black"/>
<path d="M79.9084 175.099V189.407H78.9011V182.196H75.9824C75.6504 184.153 75.0094 185.721 74.0709 186.877C73.1323 188.033 71.9533 188.617 70.5684 188.617V187.61C71.4955 187.598 72.3082 187.243 73.0064 186.545C73.7046 185.847 74.2426 184.874 74.6203 183.649C74.998 182.413 75.1811 181.005 75.1811 179.414V176.633H70.5684V175.637H76.1998V179.357C76.1998 180.078 76.1655 180.696 76.1083 181.188H78.9126V175.099H79.9198H79.9084ZM83.3308 189.647H82.3235V174.996H83.3308V189.647Z" fill="black"/>
<path d="M91.1705 183.512H88.3662V182.596H91.594V180.479H88.9957V175.465H95.1538V176.381H89.9801V179.586H95.3254V180.479H92.6013V182.573C94.2495 182.539 95.4628 182.356 96.2297 182.024V182.94C95.417 183.317 93.7344 183.512 91.1705 183.512ZM97.214 188.674C96.6188 189.063 95.9779 189.292 95.3025 189.361L92.5555 187.209C92.132 187.816 91.6284 188.319 91.0332 188.697C90.438 189.075 89.8084 189.304 89.1331 189.361V188.388C89.7054 188.319 90.2434 188.113 90.747 187.747C91.2506 187.381 91.6627 186.911 91.9946 186.328C92.3266 185.744 92.5211 185.114 92.5669 184.439L93.517 184.531C93.4826 185.172 93.3224 185.801 93.0362 186.419L95.5315 188.365C96.058 188.262 96.5387 188.022 96.9851 187.655C97.4315 187.278 97.8092 186.808 98.1068 186.259C98.393 185.698 98.5647 185.092 98.599 184.451L99.5948 184.565C99.5491 185.183 99.4002 185.79 99.1713 186.362L102.376 188.674L101.861 189.453L98.6906 187.14C98.2785 187.781 97.7864 188.296 97.1797 188.686L97.214 188.674ZM97.0424 183.947V175.053H98.0382V178.373H100.533V174.996H101.529V184.233H100.533V179.346H98.0382V183.947H97.0424Z" fill="black"/>
<path d="M110.412 187.095V188.09C110 188.285 109.508 188.422 108.901 188.525C108.306 188.628 107.677 188.674 107.013 188.674H103.659V175.591H104.655V187.69H107.173C108.501 187.69 109.577 187.495 110.412 187.095ZM112.988 175.099V189.407H111.98V181.658H107.894V180.65H111.98V175.099H112.988ZM116.284 189.647H115.277V174.996H116.284V189.647Z" fill="black"/>
<path d="M131.701 188.843H117.886V187.847H121.32V183.417C120.45 183.051 119.786 182.548 119.328 181.918C118.859 181.288 118.63 180.544 118.63 179.697C118.63 178.85 118.882 178.061 119.397 177.408C119.912 176.756 120.621 176.264 121.548 175.897C122.476 175.543 123.563 175.359 124.788 175.359C126.012 175.359 127.1 175.543 128.027 175.897C128.954 176.252 129.675 176.756 130.179 177.408C130.682 178.061 130.946 178.816 130.946 179.697C130.946 180.579 130.717 181.288 130.248 181.918C129.778 182.548 129.126 183.051 128.267 183.417V187.847H131.678V188.843H131.701ZM122.121 176.779C121.354 177.053 120.77 177.443 120.347 177.958C119.923 178.461 119.717 179.056 119.717 179.709C119.717 180.361 119.923 180.979 120.347 181.483C120.77 181.987 121.354 182.387 122.121 182.651C122.888 182.925 123.78 183.063 124.788 183.063C125.795 183.063 126.699 182.925 127.455 182.651C128.21 182.376 128.805 181.987 129.229 181.483C129.652 180.968 129.858 180.384 129.858 179.709C129.858 179.034 129.652 178.461 129.229 177.958C128.805 177.454 128.222 177.053 127.455 176.779C126.688 176.504 125.806 176.367 124.788 176.367C123.769 176.367 122.876 176.504 122.121 176.779ZM127.26 187.859V183.772C126.539 183.967 125.715 184.058 124.799 184.058C123.884 184.058 123.082 183.967 122.361 183.772V187.859H127.26Z" fill="black"/>
<path d="M133.854 188.834C133.693 188.674 133.613 188.491 133.613 188.273C133.613 188.045 133.693 187.85 133.842 187.701C133.991 187.552 134.197 187.472 134.437 187.472C134.678 187.472 134.861 187.552 135.021 187.701C135.181 187.85 135.262 188.045 135.262 188.273C135.262 188.491 135.181 188.674 135.021 188.834C134.861 188.995 134.666 189.075 134.437 189.075C134.208 189.075 134.014 188.995 133.854 188.834ZM135.021 175.648L134.827 185.149H134.025L133.831 175.648H135.01H135.021Z" fill="black"/>
<path d="M146.822 181.085C145.46 181.99 143.514 182.436 141.019 182.436V181.463C143.205 181.463 144.887 181.097 146.078 180.364C147.257 179.632 147.852 178.499 147.852 176.965V176.415H141.019V175.465H148.882V176.862C148.882 178.785 148.195 180.193 146.833 181.097L146.822 181.085ZM152.957 183.924V189.361H141.625V183.924H152.957ZM151.927 188.411V184.886H142.655V188.411H151.927ZM152.957 179.311V182.974H151.927V174.996H152.957V178.281H155.074V179.311H152.957Z" fill="black"/>
<path d="M160.522 181.635L165.101 188.011L164.277 188.64L160.191 182.894C159.733 184.611 159.115 185.973 158.325 186.98C157.535 187.988 156.596 188.549 155.521 188.674V187.621C156.505 187.438 157.329 186.786 158.004 185.641C158.68 184.497 159.183 183.032 159.515 181.257C159.847 179.483 160.019 177.526 160.03 175.397L161.083 175.42C161.06 177.824 160.877 179.895 160.534 181.635H160.522ZM167.722 182.253V189.659H166.692V175.008H167.722V181.246H169.84V182.253H167.722Z" fill="black"/>
<path d="M170.104 177.306V176.39H174.281V174.73H175.334V176.39H179.535V177.306H170.115H170.104ZM172.736 183.052C172.129 182.846 171.649 182.537 171.305 182.159C170.962 181.781 170.79 181.323 170.79 180.82C170.79 180.316 170.962 179.858 171.305 179.481C171.649 179.103 172.129 178.794 172.736 178.576C173.343 178.359 174.041 178.256 174.819 178.256C175.598 178.256 176.273 178.359 176.88 178.576C177.486 178.794 177.967 179.091 178.31 179.481C178.654 179.87 178.825 180.316 178.825 180.82C178.825 181.323 178.654 181.781 178.31 182.159C177.967 182.548 177.486 182.846 176.88 183.052C176.273 183.258 175.586 183.361 174.819 183.361C174.052 183.361 173.354 183.258 172.736 183.052ZM182.488 184.036V189.359H171.157V184.036H172.164V185.719H181.469V184.036H182.477H182.488ZM172.633 179.607C172.084 179.927 171.798 180.339 171.798 180.82C171.798 181.301 172.072 181.713 172.633 182.033C173.194 182.354 173.915 182.514 174.819 182.514C175.724 182.514 176.445 182.354 177.006 182.033C177.555 181.713 177.83 181.301 177.83 180.82C177.83 180.339 177.555 179.927 177.006 179.607C176.456 179.286 175.724 179.126 174.819 179.126C173.915 179.126 173.194 179.286 172.633 179.607ZM181.469 186.577H172.164V188.466H181.469V186.577ZM182.488 179.366V183.372H181.458V174.994H182.488V178.347H184.606V179.355H182.488V179.366Z" fill="black"/>
<path d="M193.419 187.461C194.071 187.324 194.621 187.152 195.044 186.934V187.942C194.621 188.171 194.083 188.354 193.43 188.48C192.778 188.606 192.114 188.674 191.439 188.674H185.75V175.534H186.803V187.667H191.439C192.103 187.667 192.755 187.598 193.407 187.472L193.419 187.461ZM196.601 189.67V174.996H197.654V189.647L196.601 189.67Z" fill="black"/>
<path d="M207.864 187.484C208.528 187.347 209.077 187.175 209.501 186.958V187.965C209.077 188.182 208.539 188.354 207.864 188.48C207.2 188.606 206.525 188.674 205.849 188.674H200.39V175.626H208.402V176.622H201.42V187.69H205.884C206.536 187.69 207.189 187.621 207.853 187.496L207.864 187.484ZM212.019 182.253V189.659H210.989V175.008H212.019V181.246H214.136V182.253H212.019Z" fill="black"/>
<path d="M215.59 188.834C215.43 188.674 215.35 188.491 215.35 188.273C215.35 188.045 215.43 187.85 215.579 187.701C215.727 187.552 215.922 187.472 216.174 187.472C216.426 187.472 216.597 187.552 216.757 187.701C216.918 187.85 216.998 188.045 216.998 188.273C216.998 188.491 216.918 188.674 216.757 188.834C216.597 188.995 216.403 189.075 216.174 189.075C215.945 189.075 215.75 188.995 215.59 188.834ZM216.769 175.648L216.574 185.149H215.773L215.579 175.648H216.757H216.769Z" fill="black"/>
<path d="M97.0093 28.4805H45.6621C43.0134 28.4805 40.8662 30.6278 40.8662 33.2766V84.626C40.8662 87.2748 43.0134 89.4221 45.6621 89.4221H97.0093C99.658 89.4221 101.805 87.2748 101.805 84.626V33.2766C101.805 30.6278 99.658 28.4805 97.0093 28.4805Z" fill="#4AB65B"/>
<path d="M76.6113 59.9921L65.6231 44.2188H56.5234V73.6823H66.058V57.9203L77.0349 73.6823H86.1345V44.2188H76.6113V59.9921Z" fill="white"/>
<path d="M123.037 52.7368V53.7555C122.625 53.9501 122.11 54.0989 121.492 54.2019C120.886 54.3049 120.233 54.3621 119.558 54.3621H116.124V40.9816H117.143V53.3434H119.718C121.069 53.3434 122.179 53.1374 123.037 52.7368ZM125.67 40.4666V55.0947H124.64V47.174H120.462V46.1438H124.64V40.4666H125.67ZM129.035 55.3465H128.005V40.375H129.035V55.3465Z" fill="black"/>
<path d="M138.158 41.5539C138.788 42.0576 139.28 42.8245 139.635 43.8546C139.99 44.8848 140.173 46.1553 140.173 47.6776C140.173 49.1999 139.99 50.4705 139.635 51.5006C139.28 52.5308 138.788 53.2976 138.158 53.8013C137.529 54.3049 136.796 54.5567 135.96 54.5567C134.69 54.5567 133.671 53.973 132.904 52.8055C132.137 51.638 131.76 49.9325 131.76 47.6662C131.76 45.3998 132.137 43.6944 132.904 42.5269C133.671 41.3594 134.69 40.7871 135.96 40.7871C136.796 40.7871 137.529 41.0389 138.158 41.5425V41.5539ZM133.66 43.3166C133.076 44.301 132.778 45.7547 132.778 47.6891C132.778 49.6234 133.076 51.0657 133.66 52.0615C134.244 53.0458 135.01 53.538 135.96 53.538C136.911 53.538 137.655 53.0458 138.227 52.0615C138.811 51.0771 139.097 49.612 139.097 47.6891C139.097 45.7661 138.811 44.3125 138.227 43.3166C137.655 42.3323 136.888 41.8401 135.96 41.8401C135.033 41.8401 134.244 42.3323 133.66 43.3166ZM143.046 55.3465V40.375H144.122V55.3465H143.046Z" fill="black"/>
<path d="M159.654 55.3462H158.578V47.8605H155.03V54.3504H147.304V40.8555H148.357V46.4183H153.977V40.8555H155.03V46.8189H158.578V40.3633H159.654V55.3348V55.3462ZM153.977 47.4255H148.357V53.3317H153.977V47.4255Z" fill="black"/>
<path d="M174.11 41.016V45.0565C174.11 46.9565 173.778 48.6047 173.125 49.9897C172.473 51.3861 171.557 52.4506 170.39 53.1832C169.222 53.9272 167.883 54.2935 166.372 54.2935V53.2633C168.032 53.2633 169.44 52.7711 170.561 51.7868C171.683 50.8024 172.439 49.406 172.805 47.6089H166.372V46.5902H172.965C173.011 46.2812 173.045 45.7776 173.045 45.0908V42.0347H166.372V41.016H174.11ZM178.436 47.7806V55.3465H177.383V40.375H178.436V46.7505H180.6V47.7806H178.436Z" fill="black"/>
<path d="M189.276 52.5422V53.5724C188.326 54.0989 186.621 54.3507 184.171 54.3507H181.149V53.3549H182.695V42.0003H181.252V41.0045H188.624V42.0003H187.147V53.1717C187.971 53.0573 188.681 52.8398 189.288 52.5308L189.276 52.5422ZM186.163 53.2748V42.0003H183.668V53.3549C184.801 53.3549 185.625 53.332 186.163 53.2748ZM191.497 40.4666V55.0947H190.478V47.7806H188.406V46.7505H190.478V40.4666H191.497ZM194.679 55.3465H193.66V40.375H194.679V55.3465Z" fill="black"/>
<path d="M201.237 44.1412C201.065 43.9809 200.985 43.7749 200.985 43.5231C200.985 43.2941 201.065 43.0881 201.237 42.9279C201.409 42.7676 201.603 42.6875 201.844 42.6875C202.084 42.6875 202.279 42.7676 202.45 42.9279C202.622 43.0881 202.702 43.2941 202.702 43.5231C202.702 43.7749 202.622 43.9809 202.45 44.1412C202.279 44.3014 202.084 44.3815 201.844 44.3815C201.603 44.3815 201.409 44.3014 201.237 44.1412ZM201.237 52.783C201.065 52.6227 200.985 52.4167 200.985 52.1649C200.985 51.9359 201.065 51.7299 201.237 51.5697C201.409 51.4094 201.603 51.3293 201.844 51.3293C202.084 51.3293 202.279 51.4094 202.45 51.5697C202.622 51.7299 202.702 51.9359 202.702 52.1649C202.702 52.4167 202.622 52.6113 202.45 52.783C202.279 52.9432 202.084 53.0233 201.844 53.0233C201.603 53.0233 201.409 52.9432 201.237 52.783Z" fill="black"/>
<path d="M218.681 52.1061V55.6887H217.628V52.1061H213.118V55.6887H212.065V52.1061H208.322V51.1103H222.447V52.1061H218.681ZM208.872 43.1552V42.1594H214.824V39.9961H215.9V42.1594H221.886V43.1552H208.883H208.872ZM211.23 45.0896C212.294 44.6318 213.679 44.4028 215.396 44.4028C217.113 44.4028 218.498 44.6318 219.574 45.0896C220.65 45.5475 221.176 46.2228 221.176 47.1156C221.176 48.0084 220.65 48.6837 219.574 49.1415C218.498 49.5994 217.113 49.8283 215.396 49.8283C213.679 49.8283 212.294 49.5994 211.23 49.1415C210.165 48.6837 209.639 48.0084 209.639 47.1156C209.639 46.2228 210.165 45.536 211.23 45.0896ZM218.773 45.7878C217.903 45.4902 216.781 45.3414 215.385 45.3414C213.988 45.3414 212.855 45.4902 211.996 45.7878C211.138 46.0854 210.714 46.5318 210.714 47.1156C210.714 47.6993 211.149 48.1343 211.996 48.4319C212.855 48.7295 213.988 48.8668 215.385 48.8668C216.781 48.8668 217.914 48.718 218.773 48.4319C219.631 48.1457 220.055 47.6993 220.055 47.1156C220.055 46.5318 219.62 46.0854 218.761 45.7878H218.773Z" fill="black"/>
<path d="M229.498 53.1946C230.082 53.0802 230.597 52.9428 231.055 52.7597V53.7555C230.62 53.9386 230.104 54.0874 229.486 54.1904C228.868 54.3049 228.239 54.3507 227.586 54.3507H224.324V41.016H230.448V42.0118H225.343V53.3663H227.747C228.342 53.3663 228.937 53.3091 229.509 53.2061L229.498 53.1946ZM237.235 55.3465H236.205V47.7005H233.298V55.0947H232.279V40.4666H233.298V46.6932H236.205V40.375H237.235V55.3465Z" fill="black"/>
<path d="M245.465 45.0677L245.099 45.7087L242.581 44.2665L242.603 47.1166H241.882V44.2894L239.387 45.7087L239.032 45.0677L241.505 43.6598L239.032 42.252L239.387 41.611L241.882 43.0532V40.2031H242.603L242.581 43.0532L245.099 41.611L245.465 42.252L242.97 43.6598L245.465 45.0677Z" fill="black"/>
<path d="M252.814 45.0677L252.447 45.7087L249.929 44.2665L249.952 47.1166H249.231V44.2894L246.736 45.7087L246.381 45.0677L248.853 43.6598L246.381 42.252L246.736 41.611L249.231 43.0532V40.2031H249.952L249.929 43.0532L252.447 41.611L252.814 42.252L250.318 43.6598L252.814 45.0677Z" fill="black"/>
<path d="M260.162 45.0677L259.796 45.7087L257.278 44.2665L257.301 47.1166H256.58V44.2894L254.084 45.7087L253.729 45.0677L256.202 43.6598L253.729 42.252L254.084 41.611L256.58 43.0532V40.2031H257.301L257.278 43.0532L259.796 41.611L260.162 42.252L257.667 43.6598L260.162 45.0677Z" fill="black"/>
<path d="M269.605 41.016V45.0565C269.605 46.9565 269.273 48.6047 268.62 49.9897C267.968 51.3861 267.052 52.4506 265.885 53.1832C264.717 53.9272 263.378 54.2935 261.867 54.2935V53.2633C263.527 53.2633 264.935 52.7711 266.056 51.7868C267.178 50.8024 267.934 49.406 268.3 47.6089H261.867V46.5902H268.46C268.506 46.2812 268.54 45.7776 268.54 45.0908V42.0347H261.867V41.016H269.605ZM273.931 47.7806V55.3465H272.878V40.375H273.931V46.7505H276.095V47.7806H273.931Z" fill="black"/>
<path d="M284.771 52.5422V53.5724C283.821 54.0989 282.116 54.3507 279.666 54.3507H276.645V53.3549H278.19V42.0003H276.748V41.0045H284.119V42.0003H282.642V53.1717C283.466 53.0573 284.176 52.8398 284.783 52.5308L284.771 52.5422ZM281.658 53.2748V42.0003H279.163V53.3549C280.296 53.3549 281.12 53.332 281.658 53.2748ZM287.003 40.4666V55.0947H285.985V47.7806H283.913V46.7505H285.985V40.4666H287.003ZM290.174 55.3465H289.155V40.375H290.174V55.3465Z" fill="black"/>
<path d="M121.115 78.5454H119.226L114.693 67.6602H116.605L120.21 76.3821L123.839 67.6602H125.647L121.115 78.5454Z" fill="black"/>
<path d="M135.674 68.7369C136.441 69.5381 136.819 70.7056 136.819 72.2279V78.5462H134.965V72.4912C134.965 71.4267 134.724 70.614 134.232 70.0646C133.74 69.5152 133.053 69.2405 132.149 69.2405C131.13 69.2405 130.329 69.561 129.745 70.202C129.15 70.8429 128.864 71.7586 128.864 72.9147V78.5347H127.01V63.2656H128.864V69.5038C129.23 68.8742 129.745 68.382 130.386 68.0386C131.027 67.6953 131.771 67.5236 132.607 67.5236C133.9 67.5236 134.919 67.9242 135.686 68.7254L135.674 68.7369Z" fill="black"/>
<path d="M146.159 68.4622L145.518 69.5495L143.022 68.0844L143.045 70.8887H141.809L141.832 68.0844L139.337 69.5495L138.719 68.4622L141.191 67.0772L138.719 65.6922L139.337 64.6048L141.832 66.0699L141.809 63.2656H143.045L143.022 66.0699L145.518 64.6048L146.159 65.6922L143.686 67.0772L146.159 68.4622Z" fill="black"/>
<path d="M154.388 68.4622L153.747 69.5495L151.252 68.0844L151.275 70.8887H150.039L150.062 68.0844L147.566 69.5495L146.948 68.4622L149.421 67.0772L146.948 65.6922L147.566 64.6048L150.062 66.0699L150.039 63.2656H151.275L151.252 66.0699L153.747 64.6048L154.388 65.6922L151.916 67.0772L154.388 68.4622Z" fill="black"/>
<path d="M161.863 78.5454H159.974L155.441 67.6602H157.353L160.958 76.3821L164.587 67.6602H166.395L161.863 78.5454Z" fill="black"/>
<path d="M174.007 68.4622L173.366 69.5495L170.871 68.0844L170.894 70.8887H169.658L169.681 68.0844L167.185 69.5495L166.567 68.4622L169.04 67.0772L166.567 65.6922L167.185 64.6048L169.681 66.0699L169.658 63.2656H170.894L170.871 66.0699L173.366 64.6048L174.007 65.6922L171.535 67.0772L174.007 68.4622Z" fill="black"/>
<path d="M182.237 68.4622L181.596 69.5495L179.101 68.0844L179.124 70.8887H177.887L177.91 68.0844L175.415 69.5495L174.797 68.4622L177.269 67.0772L174.797 65.6922L175.415 64.6048L177.91 66.0699L177.887 63.2656H179.124L179.101 66.0699L181.596 64.6048L182.237 65.6922L179.764 67.0772L182.237 68.4622Z" fill="black"/>
<path d="M184.56 78.2828C183.782 78.0424 183.164 77.7334 182.706 77.3442L183.381 75.9249C183.816 76.2797 184.366 76.5773 185.03 76.7948C185.693 77.0237 186.369 77.1382 187.067 77.1382C187.948 77.1382 188.589 76.9894 189.013 76.7032C189.436 76.4171 189.642 76.0164 189.642 75.5128C189.642 75.158 189.528 74.8718 189.288 74.6658C189.047 74.4598 188.761 74.311 188.429 74.208C188.086 74.1164 187.594 74.0019 186.964 73.876C186.117 73.7158 185.43 73.5441 184.915 73.3724C184.4 73.2007 183.954 72.9031 183.587 72.491C183.221 72.0675 183.027 71.4838 183.027 70.7283C183.027 69.7783 183.404 69.0114 184.148 68.4162C184.892 67.821 185.945 67.5234 187.307 67.5234C187.994 67.5234 188.681 67.615 189.356 67.7981C190.032 67.9813 190.592 68.2331 191.039 68.5536L190.363 69.9729C189.505 69.3548 188.486 69.0458 187.319 69.0458C186.483 69.0458 185.854 69.1946 185.442 69.4922C185.03 69.7898 184.824 70.1904 184.824 70.6711C184.824 71.0374 184.938 71.335 185.178 71.5525C185.419 71.7699 185.716 71.9416 186.071 72.0446C186.426 72.1591 186.918 72.2621 187.548 72.3766C188.36 72.5254 189.024 72.6971 189.539 72.8802C190.054 73.0633 190.489 73.3609 190.856 73.7616C191.222 74.1622 191.405 74.7345 191.405 75.4556C191.405 76.4171 191.016 77.1839 190.238 77.7563C189.459 78.3286 188.372 78.6147 186.975 78.6147C186.14 78.6147 185.327 78.5002 184.549 78.2599L184.56 78.2828Z" fill="black"/>
<path d="M199.646 68.4622L199.005 69.5495L196.51 68.0844L196.533 70.8887H195.296L195.319 68.0844L192.824 69.5495L192.206 68.4622L194.678 67.0772L192.206 65.6922L192.824 64.6048L195.319 66.0699L195.296 63.2656H196.533L196.51 66.0699L199.005 64.6048L199.646 65.6922L197.174 67.0772L199.646 68.4622Z" fill="black"/>
<path d="M203.068 77.9394C202.256 77.4701 201.615 76.8062 201.145 75.9592C200.676 75.1122 200.447 74.1622 200.447 73.0862C200.447 72.0103 200.676 71.0603 201.145 70.2133C201.615 69.3663 202.256 68.7138 203.068 68.2331C203.881 67.7638 204.808 67.5234 205.838 67.5234C206.869 67.5234 207.796 67.7638 208.608 68.2331C209.421 68.7024 210.062 69.3663 210.52 70.2133C210.978 71.0603 211.207 72.0103 211.207 73.0862C211.207 74.1622 210.978 75.1122 210.52 75.9592C210.062 76.8062 209.421 77.4586 208.608 77.9394C207.796 78.4087 206.869 78.649 205.838 78.649C204.808 78.649 203.881 78.4087 203.068 77.9394ZM207.635 76.543C208.173 76.2225 208.597 75.7646 208.906 75.158C209.215 74.5513 209.375 73.876 209.375 73.0862C209.375 72.2965 209.215 71.6326 208.906 71.0374C208.597 70.4422 208.173 69.9843 207.635 69.6524C207.097 69.3319 206.502 69.1717 205.85 69.1717C205.197 69.1717 204.591 69.3319 204.064 69.6524C203.526 69.9729 203.103 70.4307 202.794 71.0374C202.485 71.644 202.324 72.3194 202.324 73.0862C202.324 73.8531 202.485 74.5628 202.794 75.158C203.103 75.7532 203.526 76.211 204.064 76.543C204.602 76.8635 205.197 77.0237 205.85 77.0237C206.502 77.0237 207.109 76.8635 207.635 76.543Z" fill="black"/>
<path d="M221.726 69.2178C222.539 69.0919 223.168 68.9202 223.638 68.7027V70.3853C223.191 70.6028 222.539 70.7745 221.715 70.9004C220.879 71.0263 219.963 71.0835 218.945 71.0835H213.142V63.6893H215.019V69.3895H219.013C220.021 69.3895 220.925 69.3322 221.726 69.2063V69.2178ZM213.748 79.0614V72.7661H226.568V79.0614H213.748ZM224.691 74.4258H215.591V77.3903H224.691V74.4258ZM224.691 71.8389V63.4375H226.568V71.8389H224.691Z" fill="black"/>
<path d="M241.299 76.3819V79.6097H239.41V76.3819H232.84V74.6306H247.857V76.3819H241.287H241.299ZM233.401 66.6298V64.9472H239.387V63.0586H241.276V64.9472H247.308V66.6298H233.401ZM235.816 68.3467C236.96 67.8431 238.471 67.5912 240.348 67.5912C242.226 67.5912 243.748 67.8431 244.893 68.3467C246.049 68.8503 246.621 69.5943 246.621 70.5787C246.621 71.563 246.049 72.307 244.893 72.8107C243.737 73.3143 242.226 73.5661 240.348 73.5661C238.471 73.5661 236.96 73.3143 235.816 72.8107C234.671 72.307 234.099 71.563 234.099 70.5787C234.099 69.5943 234.671 68.8503 235.816 68.3467ZM243.519 69.5371C242.706 69.2967 241.653 69.1823 240.348 69.1823C239.044 69.1823 237.991 69.3082 237.189 69.5371C236.388 69.7775 235.988 70.1208 235.988 70.5787C235.988 71.0365 236.388 71.3914 237.178 71.6317C237.968 71.8721 239.032 71.9866 240.348 71.9866C241.665 71.9866 242.729 71.8721 243.53 71.6317C244.332 71.3914 244.732 71.048 244.732 70.5787C244.732 70.1094 244.332 69.7775 243.519 69.5371Z" fill="black"/>
<path d="M257.198 73.3498C256.522 74.9179 255.549 76.1312 254.29 76.9897C253.031 77.8481 251.543 78.2716 249.849 78.2716V76.4174C251.177 76.4174 252.333 76.074 253.306 75.3758C254.279 74.6776 255.023 73.6932 255.538 72.4112C256.053 71.1293 256.305 69.6184 256.305 67.8786V65.7611H249.838V63.9869H258.216V67.8328C258.216 69.9274 257.873 71.7703 257.198 73.3384V73.3498ZM261.364 79.2446V63.4375H263.241V79.2446H261.364Z" fill="black"/>
<path d="M49.6108 121.667V128.329H48.3517V121.667H40.7744V120.385H57.4056V121.667H49.6223H49.6108ZM41.9648 112.018V110.805H56.0893V118.691H54.8302V112.029H41.9648V112.018Z" fill="#17544F"/>
<path d="M66.5735 111.021V126.737H59.6143V111.021H66.5735ZM65.3488 125.546V112.223H60.7818V125.546H65.3488ZM74.8147 127.916H73.6014V118.93H70.179V127.618H68.9886V110.38H70.179V117.706H73.6014V110.266H74.8147V127.916Z" fill="#17544F"/>
<path d="M93.9069 124.105V128.329H92.6707V124.105H87.3597V128.329H86.1236V124.105H81.7168V122.938H98.348V124.105H93.9069ZM82.3578 113.552V112.385H89.3628V109.832H90.6219V112.385H97.6727V113.552H82.3463H82.3578ZM85.1163 115.83C86.3639 115.292 88.0007 115.029 90.0267 115.029C92.0526 115.029 93.6894 115.292 94.9485 115.83C96.2076 116.368 96.8371 117.169 96.8371 118.222C96.8371 119.275 96.2076 120.076 94.9485 120.614C93.6894 121.152 92.0526 121.415 90.0267 121.415C88.0007 121.415 86.3639 121.152 85.1163 120.614C83.8687 120.076 83.2391 119.287 83.2391 118.222C83.2391 117.158 83.8687 116.368 85.1163 115.83ZM94.0099 116.654C92.9912 116.299 91.6635 116.127 90.0267 116.127C88.3899 116.127 87.0392 116.299 86.032 116.654C85.0247 117.009 84.5096 117.524 84.5096 118.222C84.5096 118.92 85.0133 119.424 86.032 119.779C87.0507 120.134 88.3784 120.294 90.0267 120.294C91.6749 120.294 93.0141 120.122 94.0214 119.779C95.0286 119.435 95.5437 118.92 95.5437 118.222C95.5437 117.524 95.0286 117.009 94.0214 116.654H94.0099Z" fill="#17544F"/>
<path d="M106.647 125.374C107.333 125.249 107.94 125.077 108.478 124.859V126.027C107.974 126.244 107.356 126.416 106.624 126.542C105.891 126.668 105.147 126.737 104.38 126.737H100.546V111.021H107.757V112.189H101.736V125.558H104.563C105.273 125.558 105.96 125.489 106.647 125.363V125.374ZM115.758 127.916H114.544V118.907H111.122V127.618H109.932V110.38H111.122V117.706H114.544V110.266H115.758V127.916Z" fill="#17544F"/>
<path d="M134.736 121.414H118.104V120.27H125.796V117.786H119.112V116.664H122.305V111.696H119.295V110.598H133.545V111.696H130.535V116.664H133.706V117.786H127.044V120.27H134.736V121.414ZM133.843 126.462V127.584H119.364V122.971H120.623V126.462H133.831H133.843ZM129.299 116.653V111.685H123.553V116.653H129.299Z" fill="#17544F"/>
<path d="M141.683 114.717C141.489 114.523 141.386 114.282 141.386 113.996C141.386 113.721 141.489 113.492 141.683 113.298C141.878 113.103 142.118 113.012 142.393 113.012C142.668 113.012 142.908 113.103 143.103 113.298C143.297 113.492 143.4 113.721 143.4 113.996C143.4 114.282 143.297 114.523 143.103 114.717C142.908 114.912 142.668 115.003 142.393 115.003C142.118 115.003 141.878 114.912 141.683 114.717ZM141.683 124.893C141.489 124.698 141.386 124.458 141.386 124.172C141.386 123.897 141.489 123.668 141.683 123.473C141.878 123.279 142.118 123.187 142.393 123.187C142.668 123.187 142.908 123.279 143.103 123.473C143.297 123.668 143.4 123.897 143.4 124.172C143.4 124.458 143.297 124.71 143.103 124.893C142.908 125.087 142.668 125.179 142.393 125.179C142.118 125.179 141.878 125.087 141.683 124.893Z" fill="#17544F"/>
<path d="M156.643 116C156.037 116.927 155.212 117.625 154.148 118.106C153.095 118.575 151.882 118.816 150.52 118.816V117.671C152.271 117.66 153.667 117.225 154.732 116.366C155.796 115.508 156.334 114.295 156.334 112.738V111.96H150.52V110.838H157.547V112.692C157.547 113.974 157.25 115.084 156.643 116.012V116ZM166.418 127.572H151.618V123.463H164.644V121.483H151.573V120.43H165.892V124.424H152.843V126.519H166.418V127.572ZM159.94 119.113V110.38H161.13V113.825H164.667V110.266H165.88V119.297H164.667V115.027H161.13V119.113H159.94Z" fill="#17544F"/>
<path d="M176.697 111.926H169.017V110.827H177.933V116.161H170.276V119.331H174.316C175.632 119.331 176.811 119.251 177.853 119.091C178.895 118.931 179.707 118.702 180.314 118.416V119.537C179.765 119.812 178.952 120.029 177.864 120.19C176.777 120.35 175.552 120.43 174.179 120.43H169.051V115.073H176.686V111.926H176.697ZM183.771 122.467V127.824H182.534V123.624H169.692V122.479H183.771V122.467ZM183.771 121.323H182.534V115.348H179.227V114.18H182.534V110.277H183.771V121.334V121.323Z" fill="#17544F"/>
<path d="M192.916 118.175L198.594 125.947L197.609 126.702L192.55 119.697C191.978 121.792 191.222 123.463 190.25 124.688C189.288 125.912 188.143 126.599 186.827 126.759V125.5C188.006 125.283 189.013 124.493 189.837 123.108C190.662 121.735 191.291 119.96 191.715 117.809C192.138 115.657 192.356 113.31 192.367 110.769L193.626 110.792C193.592 113.596 193.363 116.057 192.916 118.186V118.175ZM201.833 127.916H200.597V110.266H201.833V127.916Z" fill="#17544F"/>
<path d="M225.812 119.297H209.181V118.221H225.812V119.297ZM210.188 116.332V115.279H213.381V111.651H210.371V110.598H224.621V111.651H221.611V115.279H224.782V116.332H210.188ZM224.919 126.599V127.584H210.417V123.864H223.374V122.112H210.371V121.128H224.599V124.802H211.619V126.599H224.919ZM220.375 115.279V111.651H214.629V115.279H220.375Z" fill="#17544F"/>
<path d="M236.801 111.902H228.228V110.826H238.014V115.737H229.509V118.518H233.939C235.267 118.518 236.457 118.438 237.51 118.289C238.563 118.141 239.376 117.923 239.96 117.648V118.747C239.399 119.022 238.586 119.239 237.522 119.388C236.469 119.537 235.244 119.617 233.87 119.617H228.262V114.672H236.789V111.891L236.801 111.902ZM242.776 120.979V127.572H228.926V120.979H230.162V123.12H241.539V120.979H242.776ZM241.528 124.173H230.15V126.473H241.528V124.173ZM242.776 120.144H241.539V110.266H242.776V120.144Z" fill="#17544F"/>
<path d="M255.183 118.21C255.995 118.599 256.625 119.16 257.083 119.881C257.529 120.602 257.758 121.437 257.758 122.388C257.758 123.338 257.529 124.207 257.06 124.951C256.591 125.695 255.95 126.268 255.137 126.668C254.324 127.069 253.408 127.264 252.378 127.264C250.284 127.264 248.67 126.554 247.56 125.135C246.438 123.715 245.877 121.735 245.877 119.194C245.877 117.42 246.175 115.909 246.77 114.673C247.365 113.437 248.201 112.51 249.288 111.88C250.375 111.25 251.623 110.941 253.065 110.941C254.61 110.941 255.835 111.228 256.739 111.788L256.236 112.75C255.469 112.258 254.416 112.017 253.088 112.017C251.291 112.017 249.872 112.59 248.83 113.746C247.777 114.89 247.239 116.561 247.193 118.736C247.193 119.583 247.25 120.327 247.353 120.968C247.663 119.927 248.269 119.114 249.185 118.519C250.101 117.935 251.165 117.637 252.39 117.637C253.443 117.637 254.381 117.832 255.194 118.221L255.183 118.21ZM255.354 125.169C256.133 124.471 256.51 123.555 256.51 122.422C256.51 121.289 256.121 120.35 255.354 119.663C254.576 118.977 253.523 118.633 252.195 118.633C251.337 118.633 250.57 118.805 249.906 119.137C249.242 119.469 248.727 119.938 248.361 120.51C247.994 121.083 247.811 121.747 247.811 122.468C247.811 123.109 247.983 123.715 248.338 124.299C248.693 124.871 249.208 125.341 249.895 125.684C250.581 126.027 251.394 126.211 252.344 126.211C253.58 126.211 254.587 125.867 255.366 125.169H255.354Z" fill="#17544F"/>
<path d="M435.333 288.008H39.9844V289.152H435.333V288.008Z" fill="#CBCBCB"/>
<path d="M466.684 296.386H450.911V295.23H457.206V287.252H458.408V295.23H466.684V296.386ZM451.964 282.422V281.266H465.539V292.311H464.337V282.422H451.964Z" fill="#989898"/>
<path d="M474.433 287.148C473.86 288.133 473.071 288.888 472.063 289.403C471.056 289.918 469.912 290.181 468.618 290.181V289.071C469.694 289.06 470.644 288.842 471.48 288.419C472.315 287.995 472.968 287.377 473.426 286.564C473.895 285.752 474.124 284.79 474.124 283.669V282.192H468.618V281.105H475.28V283.634C475.28 284.996 474.994 286.175 474.421 287.16L474.433 287.148ZM483.2 291.99V297.221H482.022V293.077H469.522V291.99H483.2ZM483.2 290.903H482.044V285.832H478.691V290.731H477.558V280.693H478.691V284.676H482.044V280.578H483.2V290.903Z" fill="#989898"/>
<path d="M495.139 287.171C496.124 287.022 496.902 286.828 497.474 286.564V287.698C496.936 287.961 496.158 288.167 495.139 288.304C494.121 288.453 492.965 288.522 491.671 288.522H486.269V280.99H487.448V287.4H491.763C493.022 287.4 494.155 287.331 495.139 287.183V287.171ZM486.875 296.98V290.731H500.015V296.98H486.875ZM498.836 291.841H488.054V295.893H498.836V291.841ZM498.836 289.483V280.578H500.015V289.483H498.836Z" fill="#989898"/>
<path d="M512.239 295.977C511.22 296.126 510.042 296.194 508.714 296.194H502.682V295.038H508.828C510.122 295.038 511.266 294.97 512.273 294.821C513.281 294.672 514.048 294.466 514.608 294.191V295.347C514.059 295.622 513.269 295.828 512.251 295.977H512.239ZM510.591 281.726C511.323 282.173 511.896 282.779 512.308 283.569C512.72 284.359 512.926 285.24 512.926 286.248C512.926 287.255 512.72 288.125 512.308 288.903C511.896 289.693 511.323 290.299 510.591 290.746C509.858 291.192 509.023 291.41 508.096 291.41C507.169 291.41 506.333 291.192 505.6 290.746C504.868 290.299 504.296 289.693 503.884 288.903C503.471 288.125 503.265 287.232 503.265 286.248C503.265 285.263 503.471 284.348 503.884 283.569C504.296 282.779 504.868 282.173 505.6 281.726C506.333 281.28 507.169 281.062 508.096 281.062C509.023 281.062 509.858 281.28 510.591 281.726ZM506.184 282.699C505.635 283.054 505.2 283.546 504.891 284.164C504.582 284.782 504.421 285.469 504.421 286.248C504.421 287.026 504.582 287.69 504.891 288.308C505.2 288.926 505.635 289.407 506.184 289.75C506.734 290.093 507.375 290.277 508.107 290.277C508.84 290.277 509.481 290.105 510.03 289.75C510.591 289.407 511.026 288.915 511.323 288.308C511.633 287.69 511.781 287.003 511.781 286.248C511.781 285.492 511.633 284.782 511.323 284.164C511.014 283.546 510.591 283.066 510.03 282.699C509.469 282.344 508.828 282.161 508.107 282.161C507.386 282.161 506.745 282.344 506.184 282.699ZM516.154 297.305V280.57H517.31V297.305H516.154Z" fill="#989898"/>
<path d="M527.566 287.263C526.661 287.858 525.643 288.27 524.498 288.487V287.354C525.563 287.125 526.478 286.69 527.279 286.049C528.081 285.408 528.676 284.63 529.088 283.703C529.5 282.776 529.717 281.803 529.729 280.773L530.885 280.841C530.885 282.02 530.679 283.085 530.278 284.046L535.658 287.228L535.074 288.213L529.763 285.031C529.214 285.935 528.481 286.679 527.589 287.274L527.566 287.263ZM539.332 296.98H525.723V292.974H537.638V290.925H525.677V289.907H538.829V293.913H526.89V295.985H539.332V296.992V296.98ZM537.661 288.808V280.578H538.84V288.808H537.661Z" fill="#989898"/>
<path d="M545.994 288.01L549.955 295.393L548.993 295.977L545.685 289.727C544.987 293.493 543.659 295.645 541.702 296.194V294.97C542.847 294.557 543.705 293.253 544.278 291.043C544.85 288.834 545.136 285.961 545.147 282.413H541.92V281.28H549.394V282.413H546.303C546.269 284.634 546.178 286.499 545.994 287.987V288.01ZM552.336 280.685V297.018H551.202V288.308H548.432V287.152H551.202V280.685H552.336ZM556.525 297.305H555.369V280.57H556.525V297.305Z" fill="#989898"/>
<path d="M571.53 293.755V297.703H570.329V293.755H563.049V292.621H578.822V293.755H571.519H571.53ZM563.667 283.693V282.583H570.306V280.168H571.507V282.583H578.192V283.693H563.667ZM566.288 285.857C567.467 285.342 569.024 285.078 570.935 285.078C572.847 285.078 574.403 285.342 575.594 285.857C576.784 286.372 577.379 287.139 577.379 288.157C577.379 289.176 576.784 289.92 575.594 290.435C574.403 290.95 572.847 291.213 570.935 291.213C569.024 291.213 567.467 290.962 566.288 290.435C565.109 289.92 564.514 289.165 564.514 288.157C564.514 287.15 565.109 286.372 566.288 285.857ZM574.724 286.669C573.762 286.326 572.492 286.154 570.947 286.154C569.401 286.154 568.131 286.326 567.169 286.669C566.208 287.013 565.716 287.505 565.716 288.157C565.716 288.81 566.197 289.302 567.158 289.634C568.119 289.966 569.379 290.138 570.947 290.138C572.515 290.138 573.762 289.966 574.724 289.634C575.685 289.302 576.178 288.81 576.178 288.157C576.178 287.505 575.697 287.001 574.724 286.669Z" fill="#989898"/>
<path d="M588.734 290.883C588.036 292.554 587.04 293.848 585.723 294.763C584.419 295.679 582.885 296.137 581.122 296.137V294.958C582.633 294.958 583.949 294.557 585.082 293.756C586.204 292.955 587.074 291.822 587.669 290.334C588.276 288.857 588.574 287.117 588.574 285.126V282.425H581.122V281.291H589.775V285.057C589.775 287.266 589.432 289.201 588.734 290.872V290.883ZM593.724 297.305V280.57H594.903V297.305H593.724Z" fill="#989898"/>
<path d="M607.803 288.159L613.034 295.439L612.096 296.16L607.437 289.601C606.911 291.559 606.201 293.115 605.297 294.26C604.392 295.404 603.328 296.057 602.092 296.194V294.992C603.214 294.786 604.152 294.031 604.919 292.726C605.686 291.421 606.258 289.75 606.636 287.713C607.014 285.675 607.208 283.455 607.22 281.028L608.421 281.051C608.387 283.798 608.181 286.167 607.792 288.148L607.803 288.159ZM616.01 288.857V297.305H614.831V280.57H616.01V287.69H618.425V288.846H616.01V288.857Z" fill="#989898"/>
<path d="M625.282 294.878C626.083 294.741 626.804 294.512 627.445 294.191V295.37C626.266 295.92 624.572 296.194 622.374 296.194H619.719V288.045H624.595V282.402H619.719V281.291H625.705V289.155H620.829V295.084H622.374C623.507 295.084 624.48 295.015 625.282 294.878ZM630.432 280.685V297.018H629.299V290.826H626.792V289.647H629.299V286.03H626.792V284.851H629.299V280.673H630.432V280.685ZM634.152 297.305H633.019V280.57H634.152V297.305Z" fill="#989898"/>
</svg>
