<svg width="1200" height="500" viewBox="0 0 1200 500" fill="none" xmlns="http://www.w3.org/2000/svg">
<rect width="1200" height="500" rx="30" fill="#3E3E3E"/>
<path d="M561.294 258.756V241.689H562.916V258.756H561.294ZM553.472 242.133C554.953 242.133 556.131 242.8 557.005 244.133C557.894 245.467 558.339 247.43 558.339 250.022C558.339 252.615 557.894 254.578 557.005 255.911C556.131 257.244 554.953 257.911 553.472 257.911C551.991 257.911 550.805 257.244 549.916 255.911C549.042 254.578 548.605 252.615 548.605 250.022C548.605 247.43 549.042 245.467 549.916 244.133C550.805 242.8 551.991 242.133 553.472 242.133ZM553.472 243.667C552.479 243.667 551.687 244.2 551.094 245.267C550.502 246.319 550.205 247.904 550.205 250.022C550.205 252.156 550.502 253.748 551.094 254.8C551.687 255.852 552.479 256.378 553.472 256.378C554.435 256.378 555.22 255.852 555.828 254.8C556.435 253.733 556.739 252.141 556.739 250.022C556.739 247.919 556.435 246.333 555.828 245.267C555.22 244.2 554.435 243.667 553.472 243.667ZM578.892 258.756V241.689H580.514V258.756H578.892ZM566.425 257.689V242.356H575.559V257.689H566.425ZM573.936 243.933H568.025V256.111H573.936V243.933ZM598.112 258.756H596.49V241.689H598.112V258.756ZM589.845 243.911C589.83 245.956 589.66 247.844 589.334 249.578L594.734 256.533L593.467 257.533L588.823 251.444C588.29 253.281 587.564 254.741 586.645 255.822C585.727 256.889 584.66 257.511 583.445 257.689V256.022C584.423 255.815 585.267 255.17 585.978 254.089C586.69 252.993 587.238 251.57 587.623 249.822C588.008 248.059 588.215 246.089 588.245 243.911H583.801V242.356H594.156V243.911H589.845ZM621.993 247.222H619.682V251.889H618.06V241.689H619.682V245.667H621.993V247.222ZM605.86 243.444V242H614.948V247.978H613.348V243.444H605.86ZM616.615 250.089C615.637 250.533 613.771 250.756 611.015 250.756H605.037V249.356H608.415V245.644H610.015V249.356H611.082C613.734 249.356 615.578 249.133 616.615 248.689V250.089ZM613.015 252.244C615.104 252.244 616.785 252.519 618.06 253.067C619.334 253.6 619.971 254.422 619.971 255.533C619.971 256.644 619.334 257.467 618.06 258C616.8 258.533 615.119 258.8 613.015 258.8C610.911 258.8 609.215 258.533 607.926 258C606.652 257.467 606.015 256.644 606.015 255.533C606.015 254.422 606.652 253.6 607.926 253.067C609.215 252.519 610.911 252.244 613.015 252.244ZM613.015 257.444C614.585 257.444 615.86 257.289 616.837 256.978C617.815 256.667 618.304 256.185 618.304 255.533C618.304 254.867 617.815 254.378 616.837 254.067C615.86 253.756 614.585 253.6 613.015 253.6C611.43 253.6 610.148 253.756 609.171 254.067C608.193 254.378 607.704 254.867 607.704 255.533C607.704 256.185 608.193 256.667 609.171 256.978C610.148 257.289 611.43 257.444 613.015 257.444ZM623.657 243.911V242.333H637.679V253.6H636.035V243.911H623.657ZM638.813 257.889H622.635V256.311H628.835V248.489H630.479V256.311H638.813V257.889ZM647.699 258H646.01V243.867H642.366V242.444H647.699V258Z" fill="white"/>
</svg>
