<svg width="505" height="62" viewBox="0 0 505 62" fill="none" xmlns="http://www.w3.org/2000/svg">
<rect width="6" height="62" fill="#01A69F"/>
<path d="M61.2856 32.4V47.5111H54.8856V13.3778H61.2856V25.8667H65.1078V32.4H61.2856ZM50.8411 14.1778V45.9111H31.9078V14.1778H38.2633V24.2222H44.4856V14.1778H50.8411ZM44.4856 30.3556H38.2633V39.7333H44.4856V30.3556ZM98.8364 46.3111H65.992V40.1778H79.192V36.3111H67.8142V22.4H90.7031V20.0889H67.7698V14.1778H97.0586V28.0444H74.2142V30.4H97.4142V36.3111H85.6809V40.1778H98.8364V46.3111ZM131.676 23.2889H135.498V28.8889H131.676V31.0667H125.276V13.3778H131.676V15.3778H135.498V20.9778H131.676V23.2889ZM112.521 25.1556C111.128 26.9333 109.454 28.3556 107.498 29.4222C105.572 30.4593 103.469 31.037 101.187 31.1556V25.1556C103.765 24.8593 105.824 23.6593 107.365 21.5556C108.935 19.4222 109.75 16.7407 109.81 13.5111L116.254 13.9111C116.254 16.0444 115.928 18.1333 115.276 20.1778L124.121 25.8667L120.876 30.7111L112.521 25.1556ZM131.676 32.2667V47.5111H103.01V32.2667H109.365V34.4889H125.41V32.2667H131.676ZM125.41 39.7333H109.365V42.1778H125.41V39.7333ZM147.216 29.4667V13.3778H176.061V17.8667H153.527V19.4667H175.483V23.4667H153.527V25.0667H176.416V29.4667H147.216ZM178.016 36.1778H145.172V31.0222H178.016V36.1778ZM176.149 37.6889V47.9111H169.616V42.8444H146.949V37.6889H176.149ZM210.856 32.4V47.5111H204.456V13.3778H210.856V25.8667H214.678V32.4H210.856ZM199.656 14.1778V23.4222C199.656 28.0148 198.9 32 197.389 35.3778C195.908 38.7556 193.789 41.363 191.034 43.2C188.278 45.0074 185.034 45.9111 181.3 45.9111V39.5111C185.152 39.4815 188.086 38.0593 190.1 35.2444C192.115 32.4296 193.123 28.4889 193.123 23.4222V20.3111H181.3V14.1778H199.656Z" fill="black"/>
<path d="M237.787 38.3556V46.7556H236.187V29.6889H237.787V36.7556H240.142V38.3556H237.787ZM232.942 30.2222V45.6889H224.009V30.2222H225.609V36.2889H231.364V30.2222H232.942ZM231.364 37.8222H225.609V44.1333H231.364V37.8222ZM256.962 45.8889H240.784V44.3556H248.029V40.8444H241.94V34.8444H254.273V31.8667H241.918V30.3556H255.873V36.3111H243.518V39.3333H256.118V40.8444H249.629V44.3556H256.962V45.8889ZM272.982 35.3556H275.338V36.8H272.982V38.5778H271.382V29.6889H272.982V31.3778H275.338V32.8444H272.982V35.3556ZM263.782 34.7111C263.219 35.6741 262.478 36.4667 261.56 37.0889C260.656 37.7111 259.619 38.1185 258.449 38.3111V36.7778C259.486 36.5704 260.382 36.1407 261.138 35.4889C261.893 34.8222 262.471 34.0074 262.871 33.0444C263.286 32.0667 263.486 31.0074 263.471 29.8667L265.093 29.9556C265.093 31.1407 264.893 32.2963 264.493 33.4222L269.671 36.8889L268.826 38.1111L263.782 34.7111ZM272.982 39.3556V46.4889H259.538V39.3556H261.138V41.4H271.404V39.3556H272.982ZM271.404 42.7778H261.138V45.0889H271.404V42.7778ZM291.491 46.7556H289.957V29.6889H291.491V46.7556ZM287.58 29.7778V46.4667H286.046V38.5333H283.713C283.669 41.037 283.335 42.8963 282.713 44.1111C282.091 45.3111 281.18 45.9111 279.98 45.9111C278.75 45.9111 277.817 45.2741 277.18 44C276.557 42.7111 276.246 40.7185 276.246 38.0222C276.246 32.763 277.491 30.1333 279.98 30.1333C282.306 30.1333 283.543 32.3926 283.691 36.9111H286.046V29.7778H287.58ZM279.98 44.3778C280.72 44.3778 281.269 43.8593 281.624 42.8222C281.994 41.7704 282.18 40.1704 282.18 38.0222C282.18 35.8741 281.994 34.2815 281.624 33.2444C281.269 32.1926 280.72 31.6667 279.98 31.6667C279.239 31.6667 278.683 32.1926 278.313 33.2444C277.957 34.2815 277.78 35.8741 277.78 38.0222C277.78 40.1704 277.957 41.7704 278.313 42.8222C278.683 43.8593 279.239 44.3778 279.98 44.3778ZM308.755 46.7556H307.155V37.5778H302.822V36H307.155V29.6889H308.755V46.7556ZM300.244 30.1778C300.214 32.5926 300.051 34.7333 299.755 36.6L304.911 44.8L303.6 45.7333L299.266 38.7111C298.733 40.8148 298 42.4741 297.066 43.6889C296.133 44.8889 295.029 45.5556 293.755 45.6889V44C294.807 43.8074 295.696 43.0741 296.422 41.8C297.148 40.5259 297.688 38.8815 298.044 36.8667C298.414 34.837 298.607 32.5926 298.622 30.1333L300.244 30.1778ZM328.131 35.4889H325.775V42.3778H324.175V29.6889H325.775V33.8889H328.131V35.4889ZM311.797 39.2667V30.1556H321.197V39.2667H311.797ZM313.397 31.6222V37.7778H319.597V31.6222H313.397ZM326.264 44.9556V46.4889H312.331V41.0444H313.953V44.9556H326.264ZM350.123 35.4889H347.767V42.3778H346.167V29.6889H347.767V33.8889H350.123V35.4889ZM333.789 39.2667V30.1556H343.189V39.2667H333.789ZM335.389 31.6222V37.7778H341.589V31.6222H335.389ZM348.256 44.9556V46.4889H334.323V41.0444H335.945V44.9556H348.256ZM365.365 38.3556V46.7556H363.765V29.6889H365.365V36.7556H367.72V38.3556H365.365ZM358.009 44.1333C358.78 44.1333 359.55 44.0593 360.32 43.9111C361.091 43.763 361.72 43.5704 362.209 43.3333V44.8667C361.735 45.1333 361.113 45.3407 360.343 45.4889C359.572 45.6222 358.787 45.6889 357.987 45.6889H351.587V30.2444H353.209V44.1333H358.009ZM384.54 38.6667H368.362V37.3556H375.674V35.7111H369.585V29.8222H371.162V31.4667H381.74V29.8222H383.34V35.7111H377.274V37.3556H384.54V38.6667ZM381.74 34.4222V32.7111H371.162V34.4222H381.74ZM383.674 45.3333V46.5111H369.54V42.7556H381.829V41.2889H369.496V40.1111H383.385V43.8222H371.096V45.3333H383.674ZM398.221 34.3333C397.318 35.6667 396.199 36.7259 394.866 37.5111C393.532 38.2963 392.155 38.6889 390.732 38.6889V37.0889C391.888 37.1037 393.014 36.7778 394.11 36.1111C395.207 35.4296 396.14 34.5111 396.91 33.3556C397.681 32.2 398.184 30.9407 398.421 29.5778L400.066 29.8667C399.873 30.8741 399.518 31.9259 398.999 33.0222L406.044 37.2889L405.288 38.6667L398.221 34.3333ZM399.244 42.1778V47.1556H397.621V42.1778H390.355V40.6222H406.532V42.1778H399.244ZM425.791 39.2V29.6889H427.414V39.2H425.791ZM422.725 34.2889C422.725 35.163 422.517 35.9333 422.102 36.6C421.702 37.2667 421.117 37.7852 420.347 38.1556C419.591 38.5259 418.702 38.7111 417.68 38.7111C416.658 38.7111 415.762 38.5259 414.991 38.1556C414.236 37.7852 413.651 37.2667 413.236 36.6C412.836 35.9333 412.636 35.163 412.636 34.2889C412.636 33.4296 412.836 32.6667 413.236 32C413.651 31.3333 414.236 30.8148 414.991 30.4444C415.762 30.0741 416.658 29.8889 417.68 29.8889C418.702 29.8889 419.591 30.0741 420.347 30.4444C421.117 30.8148 421.702 31.3333 422.102 32C422.517 32.6667 422.725 33.4296 422.725 34.2889ZM414.236 34.2889C414.236 35.2222 414.547 35.963 415.169 36.5111C415.806 37.0444 416.643 37.3111 417.68 37.3111C418.702 37.3111 419.525 37.0444 420.147 36.5111C420.784 35.963 421.102 35.2222 421.102 34.2889C421.102 33.3556 420.784 32.6222 420.147 32.0889C419.525 31.5556 418.702 31.2889 417.68 31.2889C416.658 31.2889 415.828 31.5556 415.191 32.0889C414.554 32.6222 414.236 33.3556 414.236 34.2889ZM424.525 43.6889C424.065 44.4889 423.488 45.1407 422.791 45.6444C422.095 46.1333 421.347 46.4148 420.547 46.4889L417.68 43.7556C417.206 44.5556 416.628 45.1926 415.947 45.6667C415.265 46.1407 414.532 46.4148 413.747 46.4889V44.9556C414.354 44.8963 414.925 44.6222 415.458 44.1333C416.006 43.6444 416.451 43.0074 416.791 42.2222C417.147 41.437 417.354 40.5926 417.414 39.6889L418.947 39.9111C418.917 40.6667 418.739 41.5259 418.414 42.4889L420.969 44.8667C421.799 44.6444 422.517 44.0444 423.125 43.0667C423.732 42.0889 424.08 40.963 424.169 39.6889L425.725 39.9333C425.621 40.8963 425.451 41.7111 425.214 42.3778L428.725 45.3556L427.769 46.5556L424.525 43.6889ZM445.1 34.7778V36.2444H431.167V29.7111H432.767V34.7778H445.1ZM429.945 39.8V38.3556H446.122V39.8H429.945ZM445.256 45.0444V46.5111H431.122V41.4667H432.745V45.0444H445.256ZM453.181 37.4222V29.9333H467.026V31.1778H454.759V33.1111H466.737V34.2444H454.759V36.1778H467.159V37.4222H453.181ZM468.114 40.4889H451.937V39.1333H468.114V40.4889ZM466.937 42.2222V46.7333H465.337V43.6H452.959V42.2222H466.937ZM484.134 38.3556V46.7556H482.534V29.6889H484.134V36.7556H486.49V38.3556H484.134ZM478.912 30.3556V34.3556C478.912 36.6074 478.564 38.5852 477.868 40.2889C477.171 41.9926 476.164 43.3111 474.845 44.2444C473.527 45.1778 471.964 45.6444 470.157 45.6444V44.0444C471.653 44.0444 472.934 43.6519 474.001 42.8667C475.083 42.0815 475.905 40.963 476.468 39.5111C477.031 38.0593 477.312 36.363 477.312 34.4222V31.8889H470.157V30.3556H478.912ZM503.31 40.6222H487.132V39.2H494.421V37.0444H488.088V35.6444H491.043V31.3333H488.265V29.9333H502.176V31.3333H499.376V35.6444H502.332V37.0444H496.021V39.2H503.31V40.6222ZM497.776 35.6444V31.3333H492.665V35.6444H497.776ZM502.443 45.0667V46.5111H488.31V41.9778H489.932V45.0667H502.443Z" fill="black"/>
</svg>
