<svg width="528" height="144" viewBox="0 0 528 144" fill="none" xmlns="http://www.w3.org/2000/svg">
<path d="M121.833 19.6333H118.967V23.8333H114.167V11.5333H118.967V14.9H121.833V19.6333ZM113.033 22.4C112.411 22.6889 111.567 22.9111 110.5 23.0667C109.456 23.2222 108.356 23.3 107.2 23.3H96.6334V11.6667H101.533V19.1H107.4C108.511 19.1 109.567 19.0333 110.567 18.9C111.567 18.7444 112.389 18.5333 113.033 18.2667V22.4ZM119.233 33.6V37.1333H97.5001V29.3333H114.233V28.2667H97.4334V24.7333H118.967V32.5333H102.3V33.6H119.233ZM145.363 25.8V37.1333H140.563V11.5333H145.363V20.9H148.23V25.8H145.363ZM137.53 12.1333V35.9333H123.33V12.1333H137.53ZM132.663 31.2333V16.8333H128.13V31.2333H132.663ZM171.76 25.8V37.1333H166.96V11.5333H171.76V20.9H174.626V25.8H171.76ZM159.526 31.3667C160.704 31.3667 161.86 31.2667 162.993 31.0667C164.149 30.8444 165.093 30.5556 165.826 30.2V34.7333C165.115 35.1111 164.137 35.4111 162.893 35.6333C161.649 35.8333 160.404 35.9333 159.16 35.9333H149.726V12.1333H163.926V16.7H154.626V31.3667H159.526ZM206.515 36.2333H181.881V31.5H191.781V27.9C189.981 27.6778 188.404 27.2 187.048 26.4667C185.715 25.7111 184.681 24.7667 183.948 23.6333C183.215 22.4778 182.848 21.2 182.848 19.8C182.848 18.2 183.326 16.7778 184.281 15.5333C185.237 14.2667 186.57 13.2889 188.281 12.6C190.015 11.9111 191.992 11.5667 194.215 11.5667C196.437 11.5667 198.404 11.9111 200.115 12.6C201.848 13.2889 203.192 14.2667 204.148 15.5333C205.104 16.7778 205.581 18.2 205.581 19.8C205.581 21.2 205.215 22.4778 204.481 23.6333C203.748 24.7667 202.704 25.7111 201.348 26.4667C199.992 27.2 198.426 27.6778 196.648 27.9V31.5H206.515V36.2333ZM187.948 19.8C187.948 20.8889 188.526 21.7778 189.681 22.4667C190.859 23.1556 192.37 23.5 194.215 23.5C196.059 23.5 197.559 23.1556 198.715 22.4667C199.892 21.7778 200.481 20.8889 200.481 19.8C200.481 18.7111 199.892 17.8222 198.715 17.1333C197.559 16.4444 196.059 16.1 194.215 16.1C192.37 16.1 190.859 16.4444 189.681 17.1333C188.526 17.8222 187.948 18.7111 187.948 19.8ZM231.844 37.1333H227.011V11.5333H231.844V37.1333ZM219.744 16.7667C219.678 19.2778 219.478 21.4111 219.144 23.1667L226.211 32.8333L222.411 35.8333L217.511 28.8C216.533 31.0889 215.289 32.8444 213.778 34.0667C212.267 35.2889 210.589 35.9111 208.744 35.9333V30.8333C209.922 30.7 210.967 30.0444 211.878 28.8667C212.789 27.6667 213.511 26.0333 214.044 23.9667C214.578 21.8778 214.867 19.4778 214.911 16.7667H209.411V12.1333H224.978V16.7667H219.744ZM266.999 20.5667H264.133V24.1667H259.333V11.5333H264.133V15.6333H266.999V20.5667ZM256.666 18.1667C256.666 19.4778 256.333 20.6333 255.666 21.6333C255.022 22.6333 254.111 23.4111 252.933 23.9667C251.755 24.5 250.399 24.7667 248.866 24.7667C247.333 24.7667 245.977 24.5 244.799 23.9667C243.622 23.4111 242.699 22.6333 242.033 21.6333C241.388 20.6333 241.066 19.4778 241.066 18.1667C241.066 16.8556 241.388 15.7 242.033 14.7C242.699 13.7 243.622 12.9333 244.799 12.4C245.977 11.8444 247.333 11.5667 248.866 11.5667C250.399 11.5667 251.755 11.8444 252.933 12.4C254.111 12.9333 255.022 13.7 255.666 14.7C256.333 15.7 256.666 16.8556 256.666 18.1667ZM245.833 18.1667C245.833 18.9444 246.099 19.5556 246.633 20C247.188 20.4444 247.933 20.6667 248.866 20.6667C249.777 20.6667 250.511 20.4444 251.066 20C251.622 19.5333 251.899 18.9222 251.899 18.1667C251.899 17.4111 251.622 16.8 251.066 16.3333C250.511 15.8667 249.777 15.6333 248.866 15.6333C247.933 15.6333 247.188 15.8667 246.633 16.3333C246.099 16.7778 245.833 17.3889 245.833 18.1667ZM265.033 26.4667V29.8333H252.133V26.4667H256.266V24.9667H260.966V26.4667H265.033ZM252.133 33.2V37.1333H242.899V26.1333H247.566V33.2H252.133ZM258.599 30.4C260.355 30.4 261.755 30.7111 262.799 31.3333C263.844 31.9556 264.366 32.8556 264.366 34.0333C264.366 35.2111 263.844 36.1111 262.799 36.7333C261.755 37.3556 260.355 37.6667 258.599 37.6667C256.866 37.6667 255.477 37.3556 254.433 36.7333C253.388 36.1111 252.866 35.2111 252.866 34.0333C252.866 32.8556 253.388 31.9556 254.433 31.3333C255.477 30.7111 256.866 30.4 258.599 30.4ZM258.599 34.7C259.155 34.7 259.588 34.6444 259.899 34.5333C260.211 34.4 260.366 34.2333 260.366 34.0333C260.366 33.8111 260.211 33.6444 259.899 33.5333C259.588 33.4 259.155 33.3333 258.599 33.3333C258.066 33.3333 257.644 33.4 257.333 33.5333C257.022 33.6444 256.866 33.8111 256.866 34.0333C256.866 34.2333 257.022 34.4 257.333 34.5333C257.644 34.6444 258.066 34.7 258.599 34.7ZM291.029 17.6V21.8H269.163V11.3667H273.996V17.6H291.029ZM267.663 27.8V23.5667H292.296V27.8H267.663ZM291.163 32.9V37.1333H269.096V29.2H273.996V32.9H291.163ZM302.184 23.6V11.5333H323.818V14.9H306.918V16.1H323.384V19.1H306.918V20.3H324.084V23.6H302.184ZM325.284 28.6333H300.651V24.7667H325.284V28.6333ZM323.884 29.7667V37.4333H318.984V33.6333H301.984V29.7667H323.884ZM343.414 22.6333V18.4H345.981V16.9333H343.414V12.7H345.981V11.5333H350.714V24.3667H345.981V22.6333H343.414ZM327.747 23.8333V11.8333H332.381V13.9667H337.614V11.8333H342.247V23.8333H327.747ZM337.614 17.7667H332.381V19.9333H337.614V17.7667ZM350.981 37.1333H328.947V29.6333H345.981V28.6667H328.914V25.2667H350.714V32.7667H333.714V33.7667H350.981V37.1333ZM372.177 37.1333V11.5333H377.01V37.1333H372.177ZM368.444 19.0667C368.444 22.4889 367.866 25.4778 366.71 28.0333C365.555 30.5667 363.922 32.5222 361.81 33.9C359.699 35.2556 357.233 35.9333 354.41 35.9333V31.1333C357.322 31.1111 359.555 30.0333 361.11 27.9C362.688 25.7667 363.477 22.8222 363.477 19.0667V16.7333H354.41V12.1333H368.444V19.0667ZM379.94 15.9667V12.4667H385.674V10.7333H390.607V12.4667H396.407V15.9667H379.94ZM403.44 29.1667H398.64V11.5333H403.44V29.1667ZM397.24 28.1333C395.885 28.7556 393.763 29.0667 390.874 29.0667H379.84V25.4H385.807V24.4333C384.274 24.1889 383.074 23.7444 382.207 23.1C381.34 22.4333 380.907 21.5889 380.907 20.5667C380.907 19.2778 381.574 18.2889 382.907 17.6C384.24 16.8889 386.007 16.5333 388.207 16.5333C390.407 16.5333 392.174 16.8889 393.507 17.6C394.863 18.2889 395.54 19.2778 395.54 20.5667C395.54 21.6111 395.096 22.4667 394.207 23.1333C393.318 23.7778 392.096 24.2111 390.54 24.4333V25.4C393.585 25.4 395.818 25.0889 397.24 24.4667V28.1333ZM385.374 20.5667C385.374 21.0556 386.318 21.3 388.207 21.3C389.096 21.3 389.796 21.2444 390.307 21.1333C390.818 21 391.074 20.8111 391.074 20.5667C391.074 20.0556 390.118 19.8 388.207 19.8C386.318 19.8 385.374 20.0556 385.374 20.5667ZM403.44 30.0667V37.4333H398.607V33.8H381.707V30.0667H403.44ZM425.103 11.5333H429.903V30.5H425.103V21.4H421.837V17H425.103V11.5333ZM414.97 22.5667C413.97 23.9667 412.759 25.0889 411.337 25.9333C409.915 26.7778 408.37 27.2111 406.703 27.2333V22.6667C408.259 22.5333 409.548 21.8444 410.57 20.6C411.592 19.3556 412.215 17.8667 412.437 16.1333H407.003V11.8333H422.537V16.1333H417.27C417.248 16.8222 417.115 17.6222 416.87 18.5333L423.57 23.4333L420.87 27.0333L414.97 22.5667ZM430.237 37.1333H408.137V28.1667H413.037V32.6H430.237V37.1333Z" fill="#3E3E3E"/>
<path d="M81.6469 140.747H2.82021V125.6H34.5002V114.08C28.7402 113.369 23.6913 111.84 19.3535 109.493C15.0869 107.076 11.7802 104.053 9.43354 100.427C7.08688 96.7289 5.91354 92.64 5.91354 88.16C5.91354 83.04 7.44243 78.4889 10.5002 74.5067C13.558 70.4533 17.8247 67.3244 23.3002 65.12C28.8469 62.9156 35.1758 61.8133 42.2869 61.8133C49.398 61.8133 55.6913 62.9156 61.1669 65.12C66.7135 67.3244 71.0158 70.4533 74.0735 74.5067C77.1313 78.4889 78.6602 83.04 78.6602 88.16C78.6602 92.64 77.4869 96.7289 75.1402 100.427C72.7935 104.053 69.4513 107.076 65.1135 109.493C60.7758 111.84 55.7624 113.369 50.0735 114.08V125.6H81.6469V140.747ZM22.2335 88.16C22.2335 91.6444 24.0824 94.4889 27.7802 96.6933C31.5491 98.8978 36.3847 100 42.2869 100C48.1891 100 52.9891 98.8978 56.6869 96.6933C60.4558 94.4889 62.3402 91.6444 62.3402 88.16C62.3402 84.6756 60.4558 81.8311 56.6869 79.6267C52.9891 77.4222 48.1891 76.32 42.2869 76.32C36.3847 76.32 31.5491 77.4222 27.7802 79.6267C24.0824 81.8311 22.2335 84.6756 22.2335 88.16ZM162.276 77.7067V89.76H92.089V61.1733H107.342V77.7067H162.276ZM87.289 105.12V93.28H166.116V105.12H87.289ZM107.129 130.293V133.387H162.382V143.627H91.9823V121.653H146.489V118.667H91.769V108.533H161.636V130.293H107.129Z" fill="#01A69F"/>
<path d="M231.918 143.627V61.7067H247.278V143.627H231.918ZM198.851 62.24C203.615 62.24 207.882 63.3422 211.651 65.5467C215.42 67.7511 218.335 70.88 220.398 74.9333C222.531 78.9156 223.598 83.5378 223.598 88.8C223.598 94.0622 222.531 98.72 220.398 102.773C218.335 106.827 215.42 109.956 211.651 112.16C207.882 114.364 203.615 115.467 198.851 115.467C194.015 115.467 189.713 114.364 185.944 112.16C182.175 109.956 179.224 106.827 177.091 102.773C174.958 98.72 173.891 94.0622 173.891 88.8C173.891 83.5378 174.958 78.9156 177.091 74.9333C179.224 70.88 182.175 67.7511 185.944 65.5467C189.713 63.3422 194.015 62.24 198.851 62.24ZM198.851 76.7467C195.793 76.7467 193.34 77.8844 191.491 80.16C189.713 82.4356 188.824 85.3156 188.824 88.8C188.824 92.4267 189.713 95.3778 191.491 97.6533C193.34 99.8578 195.793 100.96 198.851 100.96C201.838 100.96 204.255 99.8222 206.104 97.5467C207.953 95.2711 208.878 92.3556 208.878 88.8C208.878 85.3156 207.953 82.4356 206.104 80.16C204.255 77.8844 201.838 76.7467 198.851 76.7467ZM227.438 136.373C225.091 137.511 222.033 138.364 218.264 138.933C214.567 139.502 210.691 139.787 206.638 139.787H171.758V124.64H207.278C211.118 124.64 214.851 124.391 218.478 123.893C222.104 123.324 225.091 122.507 227.438 121.44V136.373ZM337.267 143.627V61.7067H352.734V143.627H337.267ZM304.2 62.6667C311.809 62.6667 317.782 65.9022 322.12 72.3733C326.458 78.8444 328.627 88.6222 328.627 101.707C328.627 114.791 326.458 124.569 322.12 131.04C317.782 137.511 311.809 140.747 304.2 140.747C296.52 140.747 290.511 137.511 286.174 131.04C281.836 124.569 279.667 114.791 279.667 101.707C279.667 88.6222 281.836 78.8444 286.174 72.3733C290.511 65.9022 296.52 62.6667 304.2 62.6667ZM304.2 77.4933C298.014 77.4933 294.92 85.5644 294.92 101.707C294.92 117.849 298.014 125.92 304.2 125.92C310.387 125.92 313.48 117.849 313.48 101.707C313.48 93.1022 312.627 86.9156 310.92 83.1467C309.285 79.3778 307.045 77.4933 304.2 77.4933ZM424.936 122.4V61.7067H439.336V122.4H424.936ZM363.282 111.84V62.6667H377.042V74.4H385.149V62.6667H398.909V79.2H405.309V62.0267H419.602V121.013H405.309V94.4533H398.909V111.84H363.282ZM385.149 86.9867H377.042V98.9333H385.149V86.9867ZM440.296 143.627H367.656V117.387H383.442V129.12H440.296V143.627ZM450.631 118.347V63.6267H520.818V77.8133H465.991V84.2133H519.538V97.6533H465.991V104.16H521.671V118.347H450.631ZM525.084 140.747H446.258V125.92H525.084V140.747Z" fill="black"/>
</svg>
