<svg width="402" height="107" viewBox="0 0 402 107" fill="none" xmlns="http://www.w3.org/2000/svg">
<path d="M64.7031 29.9333V36H62.3031V12.6667H64.7031V26.7667L77.6365 12.6667H80.4365L70.8031 23.2333L81.0698 36H78.2031L69.2365 25L64.7031 29.9333ZM81.0435 14.8333V12.6667H99.0102V14.8333H91.2435V36H88.8435V14.8333H81.0435ZM121.603 24.5333V37.1333H119.203V11.5333H121.603V22.1333H125.137V24.5333H121.603ZM114.337 12.3333V35.5333H100.937V12.3333H103.337V21.4333H111.97V12.3333H114.337ZM111.97 23.7333H103.337V33.2H111.97V23.7333ZM150.367 35.8333H126.1V33.5333H136.967V28.2667H127.833V19.2667H146.333V14.8H127.8V12.5333H148.733V21.4667H130.2V26H149.1V28.2667H139.367V33.5333H150.367V35.8333ZM174.396 20.0333H177.93V22.2H174.396V24.8667H171.996V11.5333H174.396V14.0667H177.93V16.2667H174.396V20.0333ZM160.596 19.0667C159.752 20.5111 158.641 21.7 157.263 22.6333C155.907 23.5667 154.352 24.1778 152.596 24.4667V22.1667C154.152 21.8556 155.496 21.2111 156.63 20.2333C157.763 19.2333 158.63 18.0111 159.23 16.5667C159.852 15.1 160.152 13.5111 160.13 11.8L162.563 11.9333C162.563 13.7111 162.263 15.4444 161.663 17.1333L169.43 22.3333L168.163 24.1667L160.596 19.0667ZM174.396 26.0333V36.7333H154.23V26.0333H156.63V29.1H172.03V26.0333H174.396ZM172.03 31.1667H156.63V34.6333H172.03V31.1667ZM191.026 11.5C194.182 11.5 196.737 11.8778 198.693 12.6333C200.648 13.3667 201.626 14.5222 201.626 16.1C201.626 17.6778 200.648 18.8333 198.693 19.5667C196.737 20.3 194.182 20.6667 191.026 20.6667C187.871 20.6667 185.304 20.3 183.326 19.5667C181.371 18.8333 180.393 17.6778 180.393 16.1C180.393 14.5222 181.371 13.3667 183.326 12.6333C185.304 11.8778 187.871 11.5 191.026 11.5ZM191.026 13.4667C188.648 13.4667 186.693 13.6889 185.16 14.1333C183.648 14.5556 182.893 15.2111 182.893 16.1C182.893 16.9889 183.648 17.6444 185.16 18.0667C186.671 18.4889 188.626 18.7 191.026 18.7C193.404 18.7 195.348 18.4889 196.86 18.0667C198.371 17.6444 199.126 16.9889 199.126 16.1C199.126 15.2111 198.36 14.5556 196.826 14.1333C195.315 13.6889 193.382 13.4667 191.026 13.4667ZM178.893 24.5V22.5H203.16V24.5H178.893ZM182.993 32.5667V34.9H201.86V36.7667H180.66V30.9667H199.06V28.7H180.593V26.8667H201.426V32.5667H182.993ZM237.314 20.2333H233.781V30.5667H231.381V11.5333H233.781V17.8333H237.314V20.2333ZM212.814 25.9V12.2333H226.914V25.9H212.814ZM215.214 14.4333V23.6667H224.514V14.4333H215.214ZM234.514 34.4333V36.7333H213.614V28.5667H216.048V34.4333H234.514ZM249.744 18.1C248.566 19.3 247.066 20.2333 245.244 20.9C243.422 21.5667 241.533 21.9222 239.578 21.9667V19.8333C241.022 19.7889 242.455 19.5333 243.878 19.0667C245.3 18.5778 246.522 17.9 247.544 17.0333C248.589 16.1667 249.244 15.1667 249.511 14.0333H240.011V11.9H260.811V14.0333H252.044C251.933 14.8333 251.678 15.6 251.278 16.3333L261.444 19.9667L260.711 22L249.744 18.1ZM262.544 26.6H238.278V24.5H249.211V20.9667H251.611V24.5H262.544V26.6ZM260.778 29.4V37.1H258.378V31.5H239.811V29.4H260.778ZM277.141 15.7V17.9667H264.174V15.7H269.441V11.4667H271.841V15.7H277.141ZM287.941 37.1333H285.674V24.4H281.374V36.7H279.107V11.6667H281.374V22.0333H285.674V11.5333H287.941V37.1333ZM270.774 20.2C271.863 20.2 272.83 20.5111 273.674 21.1333C274.541 21.7333 275.207 22.6222 275.674 23.8C276.163 24.9556 276.407 26.3556 276.407 28C276.407 29.6444 276.163 31.0556 275.674 32.2333C275.207 33.4111 274.541 34.3111 273.674 34.9333C272.83 35.5333 271.863 35.8333 270.774 35.8333C269.107 35.8333 267.763 35.1444 266.741 33.7667C265.719 32.3889 265.207 30.4667 265.207 28C265.207 25.5333 265.719 23.6222 266.741 22.2667C267.763 20.8889 269.107 20.2 270.774 20.2ZM270.774 33.6C271.774 33.6 272.585 33.1 273.207 32.1C273.83 31.1 274.141 29.7333 274.141 28C274.141 26.2667 273.83 24.9 273.207 23.9C272.585 22.9 271.774 22.4 270.774 22.4C269.774 22.4 268.963 22.9 268.341 23.9C267.741 24.8778 267.441 26.2444 267.441 28C267.441 29.7556 267.741 31.1333 268.341 32.1333C268.963 33.1111 269.774 33.6 270.774 33.6ZM302.571 19.4333C301.415 21.0111 299.904 22.2778 298.037 23.2333C296.171 24.1889 294.126 24.7667 291.904 24.9667V22.6333C294.504 22.3889 296.737 21.5556 298.604 20.1333C300.471 18.6889 301.648 16.8333 302.137 14.5667H292.504V12.2667H313.904V14.5667H304.704C304.571 15.5889 304.282 16.5667 303.837 17.5L314.637 22.7333L313.604 24.8333L302.571 19.4333ZM304.371 30.2667V37.7333H301.937V30.2667H291.071V27.9333H315.337V30.2667H304.371ZM337.634 30.5667V11.5333H340.067V30.5667H337.634ZM325.967 20.3667C325.056 22.0556 323.912 23.4556 322.534 24.5667C321.156 25.6556 319.6 26.3333 317.867 26.6V24.2333C319.423 23.9222 320.778 23.1667 321.934 21.9667C323.112 20.7667 324.012 19.2778 324.634 17.5C325.256 15.7222 325.567 13.8222 325.567 11.8L327.967 11.9333C327.967 14.2222 327.623 16.3222 326.934 18.2333L334.9 24.5L333.434 26.3667L325.967 20.3667ZM340.767 36.7333H319.634V28.7667H322.067V34.4333H340.767V36.7333Z" fill="#333333"/>
<path d="M4.39844 68.9333V64.24H38.4251V91.28H33.4651V68.9333H4.39844ZM40.9851 101.893H2.05177V97.1467H16.3984V79.0667H21.3584V97.1467H40.9851V101.893ZM81.8861 88.08H77.2461V76.7733H71.0061V87.6533H66.4195V63.0667H71.0061V72.0267H77.2461V62.8533H81.8861V88.08ZM61.9928 70.9067C61.9928 74.1778 61.2461 77.0044 59.7528 79.3867C58.295 81.7689 56.2861 83.5822 53.7261 84.8267C51.2017 86.0711 48.3573 86.7111 45.1928 86.7467V82.32C48.855 82.2844 51.7884 81.2889 53.9928 79.3333C56.2328 77.3422 57.3528 74.6222 57.3528 71.1733V68.08H45.1928V63.8133H61.9928V70.9067ZM81.8861 90.2133V103.867H77.1395V94.5867H47.3795V90.2133H81.8861ZM118.201 84.6133V62.8533H123.054V84.6133H118.201ZM103.481 78.32C106.076 78.32 108.423 78.16 110.521 77.84C112.618 77.52 114.272 77.0756 115.481 76.5067V80.88C114.307 81.4489 112.636 81.8933 110.467 82.2133C108.334 82.5333 105.952 82.6933 103.321 82.6933H88.2805V63.5467H93.1339V78.32H103.481ZM89.8272 103.333V87.0133H123.054V103.333H89.8272ZM118.201 91.3333H94.6272V99.0133H118.201V91.3333ZM136.328 67.12V72.6133H165.395V76.4533H131.528V63.28H164.968V67.12H136.328ZM128.755 83.7067V79.8667H167.688V83.7067H128.755ZM136.115 96.6667V99.8667H165.715V103.333H131.422V93.6267H160.382V90.48H131.315V87.0667H165.075V96.6667H136.115ZM202.829 103.813V62.8533H207.576V103.813H202.829ZM184.376 63.6533C186.687 63.6533 188.749 64.2044 190.563 65.3067C192.411 66.3733 193.851 67.9022 194.883 69.8933C195.914 71.8489 196.429 74.0711 196.429 76.56C196.429 79.0844 195.914 81.3422 194.883 83.3333C193.851 85.2889 192.411 86.8178 190.563 87.92C188.749 88.9867 186.687 89.52 184.376 89.52C182.065 89.52 179.985 88.9867 178.136 87.92C176.287 86.8178 174.847 85.2889 173.816 83.3333C172.785 81.3422 172.269 79.0844 172.269 76.56C172.269 74.0711 172.785 71.8489 173.816 69.8933C174.847 67.9022 176.287 66.3733 178.136 65.3067C179.985 64.2044 182.065 63.6533 184.376 63.6533ZM184.376 68.1867C182.171 68.1867 180.376 68.9867 178.989 70.5867C177.638 72.1511 176.963 74.1422 176.963 76.56C176.963 78.9778 177.638 80.9867 178.989 82.5867C180.376 84.1511 182.171 84.9333 184.376 84.9333C186.58 84.9333 188.358 84.1511 189.709 82.5867C191.096 80.9867 191.789 78.9778 191.789 76.56C191.789 74.1422 191.096 72.1511 189.709 70.5867C188.358 68.9867 186.58 68.1867 184.376 68.1867ZM199.629 99.4933C198.314 100.098 196.536 100.578 194.296 100.933C192.056 101.253 189.567 101.413 186.829 101.413H170.989V96.6667H187.096C189.763 96.6667 192.198 96.5067 194.403 96.1867C196.607 95.8667 198.349 95.4044 199.629 94.8V99.4933ZM242.971 70.16C240.837 72.2578 238.171 73.9467 234.971 75.2267C231.771 76.4711 228.499 77.1289 225.157 77.2V73.04C227.717 72.9333 230.242 72.4 232.731 71.44C235.219 70.48 237.353 69.1644 239.131 67.4933C240.908 65.8222 242.028 63.9378 242.491 61.84L247.291 62.7467C247.006 64.0622 246.455 65.4489 245.637 66.9067L261.584 73.52L259.984 77.3067L242.971 70.16ZM262.704 84.1333H223.771V80.2933H240.837V74.6933H245.637V80.2933H262.704V84.1333ZM260.731 99.8667V103.333H226.437V93.68H255.344V90.5867H226.331V87.12H260.091V96.72H231.184V99.8667H260.731ZM302.538 87.28H297.685V62.8533H302.538V87.28ZM279.925 77.7333C278.538 80.1156 276.725 82.0356 274.485 83.4933C272.28 84.9511 269.774 85.84 266.965 86.16V81.52C270.165 81.0578 272.725 79.6356 274.645 77.2533C276.6 74.8711 277.703 71.8489 277.952 68.1867H267.445V63.8133H292.672V68.1867H282.805C282.769 69.8578 282.467 71.6889 281.898 73.68L293.898 82.0533L291.338 85.84L279.925 77.7333ZM302.538 89.4667V103.867H297.632V93.84H268.992V89.4667H302.538ZM320.226 71.12V66.7467H335.746V61.84H340.653V66.7467H356.279V71.12H320.226ZM322.039 81.36C322.039 78.8 323.515 76.88 326.466 75.6C329.453 74.2844 333.382 73.6267 338.253 73.6267C343.124 73.6267 347.053 74.2844 350.039 75.6C353.026 76.88 354.519 78.8 354.519 81.36C354.519 83.92 353.026 85.8578 350.039 87.1733C347.053 88.4533 343.124 89.0933 338.253 89.0933C333.382 89.0933 329.453 88.4533 326.466 87.1733C323.515 85.8578 322.039 83.92 322.039 81.36ZM349.613 81.36C349.613 80.1867 348.564 79.2978 346.466 78.6933C344.368 78.0533 341.631 77.7333 338.253 77.7333C334.875 77.7333 332.137 78.0533 330.039 78.6933C327.977 79.2978 326.946 80.1867 326.946 81.36C326.946 82.5689 327.977 83.4756 330.039 84.08C332.102 84.6844 334.839 84.9867 338.253 84.9867C341.666 84.9867 344.404 84.6844 346.466 84.08C348.564 83.4756 349.613 82.5689 349.613 81.36ZM340.706 96.4V104.773H335.799V96.4H318.786V91.8667H357.719V96.4H340.706ZM392.701 103.813V62.8533H397.554V103.813H392.701ZM384.541 74.2667C384.541 79.7067 383.652 84.4711 381.874 88.56C380.132 92.6133 377.625 95.76 374.354 98C371.083 100.204 367.243 101.307 362.834 101.307V96.5067C366.283 96.5067 369.269 95.6178 371.794 93.84C374.318 92.0267 376.238 89.4667 377.554 86.16C378.905 82.8178 379.581 78.8889 379.581 74.3733V68.88H362.834V64.2933H384.541V74.2667Z" fill="#333333"/>
</svg>
