<svg width="115" height="12" viewBox="0 0 115 12" fill="none" xmlns="http://www.w3.org/2000/svg">
<path d="M1.05661 3.57248V2.74243H8.91347V1.46873H1.05661V0.610056H9.94388V4.67444H8.91347V3.57248H1.05661ZM10.7167 6.0197H0.298116V5.17533H10.7167V6.0197ZM10.1585 10.5564V11.3292H1.05661V8.82469H8.9564V7.82291H1.02799V7.0501H9.9725V9.52594H2.0584V10.5564H10.1585ZM20.2894 7.37926V0.495566H21.3341V7.37926H20.2894ZM13.1767 4.24511V5.99107H15.9388C16.6925 5.99107 17.3747 5.94337 17.9853 5.84796C18.5959 5.75255 19.0682 5.62375 19.4021 5.46156V6.34885C19.0777 6.51105 18.6054 6.63985 17.9853 6.73526C17.3747 6.82112 16.6734 6.86406 15.8815 6.86406H12.1463V3.40074H17.2554V1.6834H12.1177V0.796102H18.2858V4.24511H13.1767ZM20.2894 11.3578V8.9535H12.5041V8.02327H21.3341V11.3578H20.2894ZM29.9909 2.28447V3.27194H23.2074V2.28447H26.0696V0.466944H27.1143V2.28447H29.9909ZM32.3665 6.07694V11.4866H31.3361V0.495566H32.3665V5.04653H33.8835V6.07694H32.3665ZM26.5991 4.24511C27.1429 4.24511 27.6343 4.38345 28.0732 4.66013C28.512 4.93681 28.8555 5.32799 29.1036 5.83365C29.3516 6.33931 29.4757 6.9213 29.4757 7.57962C29.4757 8.23794 29.3516 8.82469 29.1036 9.3399C28.8555 9.84556 28.512 10.2367 28.0732 10.5134C27.6343 10.7901 27.1429 10.9284 26.5991 10.9284C26.0457 10.9284 25.5496 10.7901 25.1107 10.5134C24.6719 10.2367 24.3284 9.84556 24.0803 9.3399C23.8323 8.82469 23.7082 8.23794 23.7082 7.57962C23.7082 6.9213 23.8323 6.33931 24.0803 5.83365C24.3284 5.32799 24.6719 4.93681 25.1107 4.66013C25.5496 4.38345 26.0457 4.24511 26.5991 4.24511ZM26.5991 9.96959C26.9426 9.96959 27.2527 9.87418 27.5293 9.68337C27.8156 9.48301 28.0398 9.20156 28.202 8.83901C28.3737 8.47646 28.4596 8.05666 28.4596 7.57962C28.4596 7.10258 28.3737 6.68278 28.202 6.32023C28.0398 5.95768 27.8156 5.681 27.5293 5.49018C27.2527 5.28982 26.9426 5.18965 26.5991 5.18965C26.2461 5.18965 25.9265 5.28982 25.6403 5.49018C25.3636 5.681 25.1394 5.95768 24.9676 6.32023C24.8054 6.68278 24.7243 7.10258 24.7243 7.57962C24.7243 8.05666 24.8054 8.47646 24.9676 8.83901C25.1394 9.20156 25.3636 9.48301 25.6403 9.68337C25.9265 9.87418 26.2461 9.96959 26.5991 9.96959ZM44.0716 11.4866H43.0555V8.33811H41.1664L41.238 7.32202H43.0555V4.3596H41.238L41.1664 3.32919H43.0555V0.495566H44.0716V11.4866ZM37.8033 0.781791C38.7383 0.781791 39.4777 1.21113 40.0215 2.0698C40.5749 2.91893 40.8516 4.18309 40.8516 5.86227C40.8516 7.54146 40.5749 8.81038 40.0215 9.66906C39.4777 10.5182 38.7383 10.9428 37.8033 10.9428C36.8587 10.9428 36.1098 10.5182 35.5564 9.66906C35.0031 8.81038 34.7264 7.54146 34.7264 5.86227C34.7264 4.18309 35.0031 2.91893 35.5564 2.0698C36.1098 1.21113 36.8587 0.781791 37.8033 0.781791ZM37.8033 9.95528C38.4139 9.95528 38.9005 9.61658 39.263 8.93918C39.6351 8.26179 39.8212 7.23615 39.8212 5.86227C39.8212 4.49794 39.6351 3.47707 39.263 2.79967C38.9005 2.11273 38.4139 1.76926 37.8033 1.76926C37.1831 1.76926 36.687 2.11273 36.3149 2.79967C35.9428 3.47707 35.7568 4.49794 35.7568 5.86227C35.7568 7.23615 35.9381 8.26179 36.3006 8.93918C36.6727 9.61658 37.1736 9.95528 37.8033 9.95528ZM59.3796 3.70128H57.8626V6.57783H56.8322V0.495566H57.8626V2.68518H59.3796V3.70128ZM51.9807 3.84439C51.6086 4.52179 51.1268 5.07516 50.5352 5.50449C49.9437 5.92429 49.2663 6.1962 48.503 6.32023V5.33276C49.1709 5.19919 49.7481 4.90819 50.2347 4.45977C50.7213 4.01136 51.0934 3.45322 51.351 2.78536C51.6086 2.1175 51.7374 1.3924 51.7374 0.610056L52.7821 0.667301C52.7821 1.49735 52.6533 2.26539 52.3957 2.97141L55.7159 5.2612L55.1864 6.06263L51.9807 3.84439ZM53.5978 6.97855C54.924 6.97855 55.9926 7.16459 56.8036 7.53669C57.6145 7.89924 58.02 8.46214 58.02 9.22541C58.02 9.98867 57.6145 10.5516 56.8036 10.9141C55.9926 11.2767 54.924 11.458 53.5978 11.458C52.2717 11.458 51.2031 11.2767 50.3921 10.9141C49.5812 10.5516 49.1757 9.98867 49.1757 9.22541C49.1757 8.46214 49.5812 7.89924 50.3921 7.53669C51.2031 7.16459 52.2717 6.97855 53.5978 6.97855ZM53.5978 10.5564C54.5805 10.5564 55.382 10.4419 56.0021 10.2129C56.6223 9.9839 56.9324 9.65475 56.9324 9.22541C56.9324 8.78653 56.6223 8.4526 56.0021 8.22362C55.382 7.99464 54.5805 7.88015 53.5978 7.88015C52.6151 7.88015 51.8137 7.99464 51.1936 8.22362C50.5734 8.4526 50.2633 8.78653 50.2633 9.22541C50.2633 9.65475 50.5734 9.9839 51.1936 10.2129C51.8137 10.4419 52.6151 10.5564 53.5978 10.5564ZM69.1956 3.87301V6.47766H68.1652V0.495566H69.1956V2.82829H70.7125V3.87301H69.1956ZM67.3351 5.39C67.0012 5.5522 66.5241 5.67623 65.904 5.76209C65.2838 5.84796 64.5826 5.8909 63.8002 5.8909H60.1938V0.796102H66.5623V1.72633H61.2242V4.96067H63.8575C64.6207 4.96067 65.3029 4.91773 65.904 4.83187C66.5146 4.746 66.9916 4.62197 67.3351 4.45977V5.39ZM69.1956 7.12166V11.3148H60.5373V7.12166H69.1956ZM68.1652 10.3846V8.05189H61.582V10.3846H68.1652ZM79.7843 8.66727V0.495566H80.8291V8.66727H79.7843ZM74.7754 4.28804C74.3842 5.01314 73.8929 5.61421 73.3014 6.09125C72.7098 6.55875 72.042 6.84975 71.2978 6.96424V5.94814C71.9656 5.81457 72.5476 5.49018 73.0438 4.97498C73.5494 4.45977 73.9358 3.82054 74.203 3.05727C74.4701 2.29401 74.6037 1.47827 74.6037 0.610056L75.6341 0.667301C75.6341 1.65 75.4862 2.55161 75.1904 3.37212L78.6108 6.06263L77.9811 6.86406L74.7754 4.28804ZM81.1296 11.3148H72.0563V7.89447H73.101V10.3274H81.1296V11.3148ZM85.9939 4.4884C85.6504 5.10855 85.1925 5.61898 84.62 6.0197C84.0476 6.42041 83.3988 6.66847 82.6737 6.76388V5.81934C83.4942 5.66669 84.1621 5.29459 84.6773 4.70306C85.202 4.10199 85.5169 3.36258 85.6218 2.48483H82.7882V1.56891H85.6504V0.295209H86.6952V1.56891H89.5002V2.48483H86.6808C86.6331 2.96187 86.552 3.34827 86.4376 3.64403L89.6719 5.86227L89.171 6.67801L85.9939 4.4884ZM91.2032 0.495566H92.2336V7.0501H91.2032V4.24511H89.0851V3.28625H91.2032V0.495566ZM87.8687 7.43651C89.2235 7.43651 90.3111 7.5987 91.1316 7.92309C91.9521 8.23794 92.3624 8.74837 92.3624 9.45439C92.3624 10.1509 91.9521 10.6613 91.1316 10.9857C90.3207 11.3005 89.233 11.458 87.8687 11.458C86.5139 11.458 85.4262 11.3005 84.6057 10.9857C83.7947 10.6613 83.3893 10.1509 83.3893 9.45439C83.3893 8.74837 83.7947 8.23794 84.6057 7.92309C85.4262 7.5987 86.5139 7.43651 87.8687 7.43651ZM87.8687 10.585C88.8895 10.585 89.7101 10.4943 90.3302 10.3131C90.9599 10.1222 91.2747 9.83602 91.2747 9.45439C91.2747 9.06322 90.9599 8.77699 90.3302 8.59572C89.7101 8.41444 88.8895 8.3238 87.8687 8.3238C86.8573 8.3238 86.0368 8.41921 85.4071 8.61003C84.787 8.7913 84.4769 9.07276 84.4769 9.45439C84.4769 9.83602 84.7918 10.1222 85.4215 10.3131C86.0512 10.4943 86.8669 10.585 87.8687 10.585ZM100.819 2.28447V3.27194H94.0353V2.28447H96.8975V0.466944H97.9423V2.28447H100.819ZM103.194 6.07694V11.4866H102.164V0.495566H103.194V5.04653H104.711V6.07694H103.194ZM97.4271 4.24511C97.9709 4.24511 98.4622 4.38345 98.9011 4.66013C99.34 4.93681 99.6835 5.32799 99.9315 5.83365C100.18 6.33931 100.304 6.9213 100.304 7.57962C100.304 8.23794 100.18 8.82469 99.9315 9.3399C99.6835 9.84556 99.34 10.2367 98.9011 10.5134C98.4622 10.7901 97.9709 10.9284 97.4271 10.9284C96.8737 10.9284 96.3776 10.7901 95.9387 10.5134C95.4998 10.2367 95.1563 9.84556 94.9083 9.3399C94.6602 8.82469 94.5362 8.23794 94.5362 7.57962C94.5362 6.9213 94.6602 6.33931 94.9083 5.83365C95.1563 5.32799 95.4998 4.93681 95.9387 4.66013C96.3776 4.38345 96.8737 4.24511 97.4271 4.24511ZM97.4271 9.96959C97.7705 9.96959 98.0806 9.87418 98.3573 9.68337C98.6435 9.48301 98.8677 9.20156 99.0299 8.83901C99.2017 8.47646 99.2875 8.05666 99.2875 7.57962C99.2875 7.10258 99.2017 6.68278 99.0299 6.32023C98.8677 5.95768 98.6435 5.681 98.3573 5.49018C98.0806 5.28982 97.7705 5.18965 97.4271 5.18965C97.0741 5.18965 96.7544 5.28982 96.4682 5.49018C96.1915 5.681 95.9673 5.95768 95.7956 6.32023C95.6334 6.68278 95.5523 7.10258 95.5523 7.57962C95.5523 8.05666 95.6334 8.47646 95.7956 8.83901C95.9673 9.20156 96.1915 9.48301 96.4682 9.68337C96.7544 9.87418 97.0741 9.96959 97.4271 9.96959ZM113.783 11.4866V0.495566H114.828V11.4866H113.783ZM111.393 3.50092C111.393 4.96067 111.16 6.23913 110.692 7.33633C110.225 8.42398 109.557 9.26834 108.688 9.86941C107.83 10.4705 106.814 10.771 105.64 10.771V9.74061C106.604 9.74061 107.439 9.48778 108.145 8.98212C108.851 8.47646 109.39 7.76089 109.762 6.83544C110.143 5.90044 110.334 4.80324 110.334 3.54386V1.91238H105.64V0.924902H111.393V3.50092Z" fill="black"/>
</svg>
