<svg width="633" height="62" viewBox="0 0 633 62" fill="none" xmlns="http://www.w3.org/2000/svg">
<rect width="6" height="62" fill="#FD3941"/>
<path d="M20.1311 20.7556V15.6H27.9089V12.7556H34.4866V15.6H42.3089V20.7556H20.1311ZM50.8866 27.0222V35.0667H44.4866V13.3778H50.8866V20.4444H54.7089V27.0222H50.8866ZM31.2422 35.0667C28.3977 35.0667 26.0126 34.4741 24.0866 33.2889C22.1903 32.1037 21.2422 30.4444 21.2422 28.3111C21.2422 26.2074 22.1903 24.563 24.0866 23.3778C26.0126 22.1926 28.3977 21.6 31.2422 21.6C34.0274 21.6 36.3829 22.1926 38.3089 23.3778C40.2348 24.563 41.1977 26.2074 41.1977 28.3111C41.1977 30.4444 40.2496 32.1037 38.3533 33.2889C36.457 34.4741 34.0866 35.0667 31.2422 35.0667ZM31.2422 26.4C30.057 26.4 29.1089 26.5778 28.3977 26.9333C27.7163 27.2593 27.3755 27.7185 27.3755 28.3111C27.3755 28.9037 27.7311 29.3778 28.4422 29.7333C29.1533 30.0889 30.0866 30.2667 31.2422 30.2667C32.3977 30.2667 33.3163 30.0889 33.9977 29.7333C34.7089 29.3778 35.0644 28.9037 35.0644 28.3111C35.0644 27.7185 34.7089 27.2593 33.9977 26.9333C33.3163 26.5778 32.3977 26.4 31.2422 26.4ZM50.8866 36.2667V47.9111H44.3533V41.8667H22.0866V36.2667H50.8866ZM73.0597 32.1333V13.5111H79.0153V18.7111H81.9042V13.3778H87.9042V33.2444H81.9042V24.8889H79.0153V32.1333H73.0597ZM64.6597 26.6222C63.5931 28.5185 62.2597 30 60.6597 31.0667C59.0894 32.1333 57.3708 32.6815 55.5042 32.7111V26.6667C56.6301 26.4889 57.6375 25.8667 58.5264 24.8C59.4449 23.7037 60.156 22.2074 60.6597 20.3111C61.1931 18.3852 61.4597 16.163 61.4597 13.6444L67.5486 13.8667C67.5486 16.1185 67.3264 18.3852 66.8819 20.6667L73.8597 27.5111L69.7708 31.7778L64.6597 26.6222ZM72.9708 33.2889C77.5931 33.2889 81.2819 33.8815 84.0375 35.0667C86.8227 36.2222 88.2153 38.0741 88.2153 40.6222C88.2153 43.1704 86.8227 45.0222 84.0375 46.1778C81.2819 47.3333 77.5931 47.9111 72.9708 47.9111C68.3782 47.9111 64.6894 47.3333 61.9042 46.1778C59.1486 45.0222 57.7708 43.1704 57.7708 40.6222C57.7708 38.0741 59.1486 36.2222 61.9042 35.0667C64.6597 33.8815 68.3486 33.2889 72.9708 33.2889ZM72.9708 42.6222C75.4894 42.6222 77.519 42.4741 79.0597 42.1778C80.6005 41.8519 81.3708 41.3333 81.3708 40.6222C81.3708 39.9111 80.6005 39.4074 79.0597 39.1111C77.519 38.7852 75.4894 38.6222 72.9708 38.6222C70.4523 38.6222 68.4227 38.7852 66.8819 39.1111C65.3708 39.4074 64.6153 39.9111 64.6153 40.6222C64.6153 41.3333 65.3708 41.8519 66.8819 42.1778C68.4227 42.4741 70.4523 42.6222 72.9708 42.6222ZM107.233 12.8C111.796 12.8 115.381 13.3185 117.988 14.3556C120.625 15.363 121.944 16.9926 121.944 19.2444C121.944 21.4963 120.625 23.1407 117.988 24.1778C115.381 25.1852 111.796 25.6889 107.233 25.6889C102.67 25.6889 99.0698 25.1852 96.4328 24.1778C93.7958 23.1407 92.4773 21.4963 92.4773 19.2444C92.4773 16.9926 93.7958 15.363 96.4328 14.3556C99.0698 13.3185 102.67 12.8 107.233 12.8ZM107.233 17.6444C104.744 17.6444 102.788 17.7778 101.366 18.0444C99.9736 18.3111 99.2773 18.7111 99.2773 19.2444C99.2773 20.3111 101.929 20.8444 107.233 20.8444C112.507 20.8444 115.144 20.3111 115.144 19.2444C115.144 18.7111 114.448 18.3111 113.055 18.0444C111.662 17.7778 109.722 17.6444 107.233 17.6444ZM90.7884 31.7333V26.8H123.633V31.7333H90.7884ZM99.055 41.9556V43.1111H122.077V47.5111H92.7439V38.4444H115.455V37.2889H92.655V33.0667H121.766V41.9556H99.055ZM166.239 47.5111H159.839V13.3778H166.239V47.5111ZM146.062 31.7778C144.136 31.7778 142.417 31.3926 140.906 30.6222C139.395 29.8519 138.21 28.7852 137.351 27.4222C136.521 26.0296 136.106 24.4444 136.106 22.6667C136.106 20.9185 136.521 19.363 137.351 18C138.21 16.6074 139.395 15.5259 140.906 14.7556C142.417 13.9852 144.136 13.6 146.062 13.6C147.958 13.6 149.647 13.9852 151.128 14.7556C152.639 15.5259 153.81 16.6074 154.639 18C155.499 19.363 155.928 20.9185 155.928 22.6667C155.928 24.4444 155.499 26.0296 154.639 27.4222C153.81 28.7852 152.639 29.8519 151.128 30.6222C149.647 31.3926 147.958 31.7778 146.062 31.7778ZM146.062 19.0222C144.936 19.0222 144.017 19.3778 143.306 20.0889C142.595 20.7704 142.239 21.6296 142.239 22.6667C142.239 23.7333 142.595 24.6222 143.306 25.3333C144.017 26.0148 144.936 26.3556 146.062 26.3556C147.188 26.3556 148.091 26.0148 148.773 25.3333C149.484 24.6222 149.839 23.7333 149.839 22.6667C149.839 21.6296 149.484 20.7704 148.773 20.0889C148.091 19.3778 147.188 19.0222 146.062 19.0222ZM149.573 33.6444C153.365 33.6444 156.165 33.2296 157.973 32.4V38.4889C156.165 39.3185 153.336 39.7333 149.484 39.7333H149.173V47.5111H142.773V39.7333H134.773V33.6444H149.573ZM169.701 20.9778V15.6889H177.479V12.7556H184.057V15.6889H191.879V20.9778H169.701ZM204.279 27.8667H200.457V38.8444H194.057V13.3778H200.457V21.2889H204.279V27.8667ZM180.813 36C177.968 36 175.583 35.3926 173.657 34.1778C171.761 32.9333 170.813 31.2 170.813 28.9778C170.813 26.7259 171.761 24.9926 173.657 23.7778C175.583 22.5333 177.968 21.9111 180.813 21.9111C183.657 21.9111 186.027 22.5333 187.924 23.7778C189.82 25.0222 190.768 26.7556 190.768 28.9778C190.768 31.2 189.82 32.9333 187.924 34.1778C186.027 35.3926 183.657 36 180.813 36ZM180.813 26.8C179.657 26.8 178.724 27.0074 178.013 27.4222C177.301 27.837 176.946 28.3556 176.946 28.9778C176.946 29.6 177.301 30.1185 178.013 30.5333C178.724 30.9185 179.657 31.1111 180.813 31.1111C181.938 31.1111 182.857 30.9185 183.568 30.5333C184.279 30.1185 184.635 29.6 184.635 28.9778C184.635 28.3556 184.279 27.837 183.568 27.4222C182.857 27.0074 181.938 26.8 180.813 26.8ZM200.946 41.6444V47.5111H171.79V37.0222H178.324V41.6444H200.946ZM238.93 30.4889V13.3778H245.375V30.4889H238.93ZM237.464 28.5778C236.634 28.9333 235.449 29.2296 233.908 29.4667C232.367 29.6741 230.797 29.7778 229.197 29.7778H214.352V24.6667H217.419V18.9333H214.619V13.7778H236.441V18.9333H233.552V24.4444C235.064 24.2667 236.367 23.9556 237.464 23.5111V28.5778ZM227.508 24.6667V18.9333H223.464V24.6667H225.241H227.508ZM245.73 47.5111H216.352V37.6H239.019V36.2667H216.308V31.6889H245.375V41.6H222.708V42.9333H245.73V47.5111ZM265.37 24.4C263.474 26.7407 261.163 28.5778 258.437 29.9111C255.74 31.2148 252.896 31.8667 249.903 31.8667V25.4667C252.037 25.4667 254.081 24.9333 256.037 23.8667C257.992 22.8 259.637 21.3037 260.97 19.3778C262.303 17.4519 263.133 15.2741 263.459 12.8444L269.992 13.8667C269.726 15.6741 269.207 17.4815 268.437 19.2889L281.903 26.2222L278.881 31.8667L265.37 24.4ZM268.881 40.6667V48.3111H262.303V40.6667H249.148V34.4H281.992V40.6667H268.881ZM323.621 26.0889V33.6889H317.221V13.3778H323.621V19.6H327.443V26.0889H323.621ZM303.221 33.0222C301.177 33.0222 299.354 32.6074 297.754 31.7778C296.184 30.9481 294.954 29.7926 294.065 28.3111C293.206 26.8 292.777 25.0963 292.777 23.2C292.777 21.3037 293.206 19.6148 294.065 18.1333C294.954 16.6519 296.184 15.4963 297.754 14.6667C299.354 13.837 301.177 13.4222 303.221 13.4222C305.265 13.4222 307.073 13.837 308.643 14.6667C310.243 15.4963 311.473 16.6519 312.332 18.1333C313.221 19.6148 313.665 21.3037 313.665 23.2C313.665 25.0963 313.221 26.8 312.332 28.3111C311.473 29.7926 310.243 30.9481 308.643 31.7778C307.073 32.6074 305.265 33.0222 303.221 33.0222ZM303.221 18.9778C301.977 18.9778 300.984 19.363 300.243 20.1333C299.502 20.8741 299.132 21.8963 299.132 23.2C299.132 24.5333 299.502 25.5852 300.243 26.3556C300.984 27.0963 301.977 27.4667 303.221 27.4667C304.436 27.4667 305.414 27.0815 306.154 26.3111C306.925 25.5407 307.31 24.5037 307.31 23.2C307.31 21.8963 306.925 20.8741 306.154 20.1333C305.414 19.363 304.436 18.9778 303.221 18.9778ZM323.621 34.8889V47.9111H317.088V40.6667H295.221V34.8889H323.621ZM360.639 47.5111H354.594V13.3778H360.639V47.5111ZM352.105 13.5111V46.9333H346.105V30.2667H342.55V23.8667H346.105V13.5111H352.105ZM340.15 14.2667C340.15 19.6 339.898 24.1333 339.394 27.8667L346.772 42.9333L341.483 45.6L337.439 36.9778C335.394 42.7556 332.357 45.7333 328.327 45.9111V39.0667C330.135 38.7704 331.542 36.4 332.55 31.9556C333.587 27.5111 334.105 21.5407 334.105 14.0444L340.15 14.2667ZM395.078 47.5111H388.678V30.7111H381.834V24.4H388.678V13.3778H395.078V47.5111ZM378.323 14.2667C378.323 18.7111 378.026 22.8296 377.434 26.6222L386.856 42.2667L381.301 45.8667L375.212 35.0667C373.908 38.5333 372.249 41.2 370.234 43.0667C368.219 44.9333 365.982 45.8815 363.523 45.9111V38.8889C365.152 38.6815 366.589 37.5111 367.834 35.3778C369.108 33.2444 370.086 30.3407 370.767 26.6667C371.449 22.963 371.789 18.7556 371.789 14.0444L378.323 14.2667ZM423.696 47.5111V13.3778H430.14V47.5111H423.696ZM406.585 32.9778V39.8667H413.607C415.118 39.8667 416.629 39.7185 418.14 39.4222C419.681 39.0963 420.97 38.6963 422.007 38.2222V44.2667C421.029 44.8 419.755 45.2148 418.185 45.5111C416.614 45.7778 415 45.9111 413.34 45.9111H400.185V26.9778H412.629V20.2667H400.14V14.1778H418.985V32.9778H406.585Z" fill="black"/>
<path d="M451.082 46H449.393V31.8667H445.748V30.4444H451.082V46ZM462.91 46.1556C461.71 46.1556 460.636 45.837 459.688 45.2C458.74 44.5481 457.999 43.6222 457.466 42.4222C456.947 41.2222 456.688 39.8222 456.688 38.2222C456.688 36.6222 456.947 35.2222 457.466 34.0222C457.999 32.8222 458.74 31.9037 459.688 31.2667C460.636 30.6148 461.71 30.2889 462.91 30.2889C464.125 30.2889 465.199 30.6148 466.133 31.2667C467.081 31.9037 467.814 32.8222 468.333 34.0222C468.866 35.2074 469.133 36.6074 469.133 38.2222C469.133 39.837 468.866 41.2444 468.333 42.4444C467.814 43.6296 467.081 44.5481 466.133 45.2C465.199 45.837 464.125 46.1556 462.91 46.1556ZM462.91 44.6667C463.814 44.6667 464.607 44.4148 465.288 43.9111C465.97 43.4074 466.496 42.6741 466.866 41.7111C467.251 40.7481 467.444 39.5852 467.444 38.2222C467.444 36.8593 467.251 35.6963 466.866 34.7333C466.496 33.7704 465.97 33.037 465.288 32.5333C464.607 32.0296 463.814 31.7778 462.91 31.7778C462.021 31.7778 461.236 32.0296 460.555 32.5333C459.873 33.037 459.34 33.7704 458.955 34.7333C458.584 35.6963 458.399 36.8593 458.399 38.2222C458.399 39.5852 458.584 40.7481 458.955 41.7111C459.34 42.6741 459.873 43.4074 460.555 43.9111C461.236 44.4148 462.021 44.6667 462.91 44.6667ZM487.25 35.4889H484.895V42.3778H483.295V29.6889H484.895V33.8889H487.25V35.4889ZM470.917 39.2667V30.1556H480.317V39.2667H470.917ZM472.517 31.6222V37.7778H478.717V31.6222H472.517ZM485.383 44.9556V46.4889H471.45V41.0444H473.072V44.9556H485.383ZM501.47 29.6889H503.07V43.0667H501.47V41.8H496.381V40.5111H501.47V29.6889ZM493.692 36.3556C492.255 36.3556 491.1 36.0667 490.226 35.4889C489.352 34.8963 488.914 34.0815 488.914 33.0444C488.914 32.0222 489.352 31.2222 490.226 30.6444C491.114 30.0519 492.27 29.7556 493.692 29.7556C495.114 29.7556 496.263 30.0519 497.137 30.6444C498.011 31.2222 498.448 32.0222 498.448 33.0444C498.448 34.0963 498.011 34.9111 497.137 35.4889C496.277 36.0667 495.129 36.3556 493.692 36.3556ZM493.692 31.1111C492.729 31.1111 491.952 31.2815 491.359 31.6222C490.781 31.9481 490.492 32.4222 490.492 33.0444C490.492 33.6815 490.781 34.1704 491.359 34.5111C491.952 34.8519 492.729 35.0222 493.692 35.0222C494.64 35.0222 495.403 34.8519 495.981 34.5111C496.574 34.1704 496.87 33.6815 496.87 33.0444C496.87 32.4222 496.574 31.9481 495.981 31.6222C495.403 31.2815 494.64 31.1111 493.692 31.1111ZM487.914 39.0889V37.6889H494.47C497.181 37.6889 499.026 37.4593 500.003 37V38.4C499.026 38.8593 497.063 39.0889 494.114 39.0889V42.2889H492.514V39.0889H487.914ZM503.537 46.4889H489.426V41.3556H491.048V45.0222H503.537V46.4889ZM521.001 46.7556H519.468V38.2667H516.534V46.4667H515.023V29.7778H516.534V36.6889H519.468V29.6889H521.001V46.7556ZM509.957 44.1778C510.653 44.1778 511.334 44.1185 512.001 44C512.668 43.8815 513.245 43.7185 513.734 43.5111V45C513.245 45.2222 512.653 45.3926 511.957 45.5111C511.26 45.6296 510.527 45.6889 509.757 45.6889H506.045V30.3556H513.045V31.8667H507.601V44.1778H509.957ZM524.265 38.7111V30.0222H525.843V32.6H536.51V30.0222H538.088V38.7111H524.265ZM536.51 34.0889H525.843V37.2H536.51V34.0889ZM531.999 42.2V47.1556H530.354V42.2H523.088V40.6444H539.265V42.2H531.999ZM555.863 46.7556H554.263V38.3556H551.107V36.7778H554.263V29.6889H555.863V46.7556ZM547.796 44.1333C548.567 44.1333 549.337 44.0593 550.107 43.9111C550.878 43.763 551.507 43.563 551.996 43.3111V44.8667C551.507 45.1333 550.885 45.3407 550.13 45.4889C549.374 45.6222 548.596 45.6889 547.796 45.6889H541.596V30.3556H550.863V31.9111H543.196V37.1111H549.93V38.6444H543.196V44.1333H547.796ZM563.855 38.4V30.2667H577.677V38.4H563.855ZM565.455 31.8V36.8444H576.077V31.8H565.455ZM571.589 42.2V47.1556H569.944V42.2H562.677V40.6H578.855V42.2H571.589ZM596.453 45.8889H580.275V44.3556H584.431V40.7556H581.431V34.8222H593.764V31.8444H581.408V30.3556H595.364V36.2667H583.008V39.2667H595.608V40.7556H592.297V44.3556H596.453V45.8889ZM590.675 44.3556V40.7556H586.031V44.3556H590.675ZM612.562 38.3556V46.7556H611.006V29.6889H612.562V36.7556H614.828V38.3556H612.562ZM602.851 30.3556V34.1556C602.851 37.5185 602.495 40.1556 601.784 42.0667C601.073 43.9778 599.91 44.9704 598.295 45.0444V43.4667C599.391 43.3333 600.169 42.4815 600.628 40.9111C601.088 39.3259 601.317 37.1259 601.317 34.3111V31.8889H598.295V30.3556H602.851ZM608.295 30.3556V34.4444C608.295 37.9556 607.88 40.6815 607.051 42.6222C606.236 44.5481 604.976 45.5556 603.273 45.6444V44.0667C604.443 43.9481 605.31 43.0815 605.873 41.4667C606.451 39.837 606.739 37.5407 606.739 34.5778V31.8889H603.762V30.3556H608.295ZM630.537 46.7556H628.915V29.6889H630.537V46.7556ZM622.27 31.9111C622.256 33.9556 622.085 35.8444 621.759 37.5778L627.159 44.5333L625.893 45.5333L621.248 39.4444C620.715 41.2815 619.989 42.7407 619.07 43.8222C618.152 44.8889 617.085 45.5111 615.87 45.6889V44.0222C616.848 43.8148 617.693 43.1704 618.404 42.0889C619.115 40.9926 619.663 39.5704 620.048 37.8222C620.433 36.0593 620.641 34.0889 620.67 31.9111H616.226V30.3556H626.581V31.9111H622.27Z" fill="black"/>
</svg>
