<svg width="871" height="230" viewBox="0 0 871 230" fill="none" xmlns="http://www.w3.org/2000/svg">
<path d="M3.84444 27.0667C3.08889 25.9111 2.51111 24.5778 2.11111 23.0667C1.71111 21.5556 1.51111 19.9407 1.51111 18.2222C1.51111 16.5037 1.71111 14.8815 2.11111 13.3556C2.52593 11.8296 3.1037 10.5037 3.84444 9.37778H6.28889C5.5037 10.7556 4.92593 12.1704 4.55556 13.6222C4.2 15.0593 4.02222 16.5926 4.02222 18.2222C4.02222 19.8519 4.2 21.3926 4.55556 22.8444C4.92593 24.2815 5.5037 25.6889 6.28889 27.0667H3.84444ZM15.1571 15.8444C14.283 16.7778 13.2016 17.5111 11.9127 18.0444C10.6386 18.563 9.27564 18.837 7.82378 18.8667V16.1778C9.20156 16.1185 10.4534 15.7704 11.5793 15.1333C12.7201 14.4963 13.5053 13.6593 13.9349 12.6222H8.11267V9.95555H22.6682V12.6222H17.046C16.9867 12.9185 16.8756 13.2593 16.7127 13.6444L23.2905 16.4222L22.2016 18.8667L15.1571 15.8444ZM16.8238 23.0444V27.1556H13.9793V23.0444H7.22378V20.3111H23.5793V23.0444H16.8238ZM24.5326 27.0667C25.3177 25.7037 25.8881 24.3037 26.2437 22.8667C26.614 21.4148 26.7992 19.8667 26.7992 18.2222C26.7992 16.5778 26.614 15.037 26.2437 13.6C25.8881 12.1481 25.3177 10.7407 24.5326 9.37778H26.977C27.7326 10.5037 28.3103 11.8296 28.7103 13.3556C29.1103 14.8667 29.3103 16.4889 29.3103 18.2222C29.3103 19.9556 29.1103 21.5778 28.7103 23.0889C28.3103 24.6 27.7326 25.9259 26.977 27.0667H24.5326ZM47.4203 26.7556H44.7981V9.68889H47.4203V26.7556ZM43.3759 9.75556V26.4667H40.7536V19.2H39.3092C39.2203 21.5852 38.8499 23.3333 38.1981 24.4444C37.5462 25.5407 36.6203 26.0889 35.4203 26.0889C34.1166 26.0889 33.1388 25.4519 32.487 24.1778C31.8351 22.8889 31.5092 20.837 31.5092 18.0222C31.5092 15.2222 31.8351 13.1778 32.487 11.8889C33.1388 10.6 34.1166 9.95555 35.4203 9.95555C36.5759 9.95555 37.4796 10.4741 38.1314 11.5111C38.7833 12.5333 39.1685 14.1481 39.287 16.3556H40.7536V9.75556H43.3759ZM35.4203 23.4222C35.8648 23.4222 36.1907 22.9926 36.3981 22.1333C36.6055 21.2593 36.7092 19.8889 36.7092 18.0222C36.7092 16.1556 36.6055 14.7926 36.3981 13.9333C36.1907 13.0593 35.8648 12.6222 35.4203 12.6222C34.9611 12.6222 34.6277 13.0593 34.4203 13.9333C34.2129 14.7926 34.1092 16.1556 34.1092 18.0222C34.1092 19.8889 34.2129 21.2593 34.4203 22.1333C34.6277 22.9926 34.9611 23.4222 35.4203 23.4222ZM57.0846 15.9333C56.1217 17.3556 54.9661 18.4741 53.618 19.2889C52.2698 20.1037 50.8476 20.5185 49.3513 20.5333V17.7333C50.4476 17.7333 51.4995 17.3852 52.5069 16.6889C53.5143 15.9778 54.3661 15.0148 55.0624 13.8C55.7587 12.5704 56.2106 11.1926 56.418 9.66667L59.2846 10.1333C59.1069 11.3333 58.7809 12.4963 58.3069 13.6222L65.3069 18.2222L63.818 20.6L57.0846 15.9333ZM65.3957 23.3333V26.0889H49.0402V23.3333H65.3957ZM82.6156 26.7556H79.9934V9.68889H82.6156V26.7556ZM78.5712 9.75556V26.4667H75.949V19.2H74.5045C74.4156 21.5852 74.0453 23.3333 73.3934 24.4444C72.7416 25.5407 71.8156 26.0889 70.6156 26.0889C69.3119 26.0889 68.3341 25.4519 67.6823 24.1778C67.0304 22.8889 66.7045 20.837 66.7045 18.0222C66.7045 15.2222 67.0304 13.1778 67.6823 11.8889C68.3341 10.6 69.3119 9.95555 70.6156 9.95555C71.7712 9.95555 72.6749 10.4741 73.3267 11.5111C73.9786 12.5333 74.3638 14.1481 74.4823 16.3556H75.949V9.75556H78.5712ZM70.6156 23.4222C71.0601 23.4222 71.386 22.9926 71.5934 22.1333C71.8008 21.2593 71.9045 19.8889 71.9045 18.0222C71.9045 16.1556 71.8008 14.7926 71.5934 13.9333C71.386 13.0593 71.0601 12.6222 70.6156 12.6222C70.1564 12.6222 69.823 13.0593 69.6156 13.9333C69.4082 14.7926 69.3045 16.1556 69.3045 18.0222C69.3045 19.8889 69.4082 21.2593 69.6156 22.1333C69.823 22.9926 70.1564 23.4222 70.6156 23.4222ZM96.9466 26.7556V9.68889H99.7688V26.7556H96.9466ZM89.8355 9.95555C91.3911 9.95555 92.6133 10.6296 93.5022 11.9778C94.4059 13.3111 94.8577 15.3259 94.8577 18.0222C94.8577 20.7185 94.4059 22.7407 93.5022 24.0889C92.6133 25.4222 91.3911 26.0889 89.8355 26.0889C88.2651 26.0889 87.0281 25.4222 86.1244 24.0889C85.2355 22.7407 84.7911 20.7185 84.7911 18.0222C84.7911 15.3259 85.2355 13.3111 86.1244 11.9778C87.0281 10.6296 88.2651 9.95555 89.8355 9.95555ZM89.8355 12.6444C89.1392 12.6444 88.5837 13.0741 88.1688 13.9333C87.7688 14.7778 87.5688 16.1407 87.5688 18.0222C87.5688 19.9185 87.7688 21.2889 88.1688 22.1333C88.5837 22.9778 89.1392 23.4 89.8355 23.4C90.517 23.4 91.0651 22.9778 91.4799 22.1333C91.8948 21.2741 92.1022 19.9037 92.1022 18.0222C92.1022 16.1556 91.8948 14.7926 91.4799 13.9333C91.0651 13.0741 90.517 12.6444 89.8355 12.6444ZM118.189 26.0889H101.833V23.3333H108.589V20.1556H102.766V10.1556H117.233V20.1556H111.433V23.3333H118.189V26.0889ZM114.433 17.4222V12.9111H105.589V17.4222H114.433ZM134.497 18.9778V26.7556H131.697V9.68889H134.497V16.1333H136.52V18.9778H134.497ZM129.386 10.1111V25.8889H120.053V10.1111H122.831V15.4H126.609V10.1111H129.386ZM126.609 18.0889H122.831V23.1778H126.609V18.0889ZM149.74 18.0444V9.68889H152.562V18.0444H149.74ZM142.362 9.75556C143.399 9.75556 144.303 9.92593 145.073 10.2667C145.858 10.6074 146.458 11.0889 146.873 11.7111C147.303 12.3333 147.517 13.0444 147.517 13.8444C147.517 14.6593 147.303 15.3778 146.873 16C146.458 16.6074 145.858 17.0815 145.073 17.4222C144.303 17.763 143.399 17.9333 142.362 17.9333C141.31 17.9333 140.391 17.763 139.606 17.4222C138.836 17.0815 138.243 16.6074 137.828 16C137.414 15.3778 137.206 14.6593 137.206 13.8444C137.206 13.0444 137.414 12.3333 137.828 11.7111C138.258 11.0889 138.858 10.6074 139.628 10.2667C140.414 9.92593 141.325 9.75556 142.362 9.75556ZM142.362 12.0889C141.636 12.0889 141.058 12.2444 140.628 12.5556C140.199 12.8667 139.984 13.2963 139.984 13.8444C139.984 14.3778 140.199 14.8074 140.628 15.1333C141.073 15.4444 141.651 15.6 142.362 15.6C143.073 15.6 143.643 15.4444 144.073 15.1333C144.517 14.8074 144.74 14.3778 144.74 13.8444C144.74 13.2963 144.525 12.8667 144.095 12.5556C143.666 12.2444 143.088 12.0889 142.362 12.0889ZM141.273 23.6444V24.6222H152.806V26.6889H138.473V21.8H149.784V20.8222H138.428V18.7556H152.562V23.6444H141.273Z" fill="white"/>
<path d="M11.4833 57.2667V63.5667H10.2833V50.7667H11.4833V56.0667H13.25V57.2667H11.4833ZM5.7 51.1333C5.67778 53.2222 5.51667 55.0111 5.21667 56.5L9.13333 62.0167L8.15 62.7333L4.81667 57.9833C4.40556 59.4167 3.84444 60.55 3.13333 61.3833C2.42222 62.2056 1.6 62.6667 0.666667 62.7667V61.5167C1.47778 61.3722 2.16667 60.8222 2.73333 59.8667C3.31111 58.9111 3.74444 57.6722 4.03333 56.15C4.32222 54.6278 4.47222 52.9444 4.48333 51.1L5.7 51.1333ZM23.8149 63.5667V50.7667H25.0316V63.5667H23.8149ZM17.9482 51.1C19.0594 51.1 19.9427 51.6 20.5982 52.6C21.2649 53.6 21.5982 55.0722 21.5982 57.0167C21.5982 58.9611 21.2649 60.4333 20.5982 61.4333C19.9427 62.4333 19.0594 62.9333 17.9482 62.9333C16.8371 62.9333 15.9482 62.4333 15.2816 61.4333C14.626 60.4333 14.2982 58.9611 14.2982 57.0167C14.2982 55.0722 14.626 53.6 15.2816 52.6C15.9482 51.6 16.8371 51.1 17.9482 51.1ZM17.9482 52.25C17.2038 52.25 16.6094 52.65 16.1649 53.45C15.7205 54.2389 15.4982 55.4278 15.4982 57.0167C15.4982 58.6167 15.7205 59.8111 16.1649 60.6C16.6094 61.3889 17.2038 61.7833 17.9482 61.7833C18.6705 61.7833 19.2594 61.3889 19.7149 60.6C20.1705 59.8 20.3982 58.6056 20.3982 57.0167C20.3982 55.4389 20.1705 54.25 19.7149 53.45C19.2594 52.65 18.6705 52.25 17.9482 52.25ZM27.7965 59.3667V51.2667H38.2298V52.4H28.9798V54.7667H38.0965V55.85H28.9798V58.25H38.4298V59.3667H27.7965ZM39.0632 62.9167H26.9298V61.75H39.0632V62.9167ZM48.1947 56.1333V55H50.3281V53.1H48.1947V51.9833H50.3281V50.7667H51.5114V57.85H50.3281V56.1333H48.1947ZM40.6947 57.05V51.1167H47.4447V57.05H40.6947ZM41.8614 52.2V55.9667H46.2447V52.2H41.8614ZM46.4114 58.3167C47.9892 58.3167 49.2503 58.5333 50.1947 58.9667C51.1503 59.3889 51.6281 60.0444 51.6281 60.9333C51.6281 61.8222 51.1503 62.4778 50.1947 62.9C49.2503 63.3222 47.9892 63.5333 46.4114 63.5333C44.8447 63.5333 43.5892 63.3222 42.6447 62.9C41.7003 62.4778 41.2281 61.8222 41.2281 60.9333C41.2281 60.0444 41.7003 59.3889 42.6447 58.9667C43.5892 58.5333 44.8447 58.3167 46.4114 58.3167ZM46.4114 62.4833C47.5669 62.4833 48.5114 62.35 49.2447 62.0833C49.9781 61.8167 50.3447 61.4333 50.3447 60.9333C50.3447 60.4222 49.9781 60.0333 49.2447 59.7667C48.5114 59.5 47.5669 59.3667 46.4114 59.3667C45.2558 59.3667 44.3114 59.5 43.5781 59.7667C42.8558 60.0333 42.4947 60.4222 42.4947 60.9333C42.4947 61.4333 42.8558 61.8167 43.5781 62.0833C44.3114 62.35 45.2558 62.4833 46.4114 62.4833ZM57.8722 54.5333C57.6055 54.5333 57.3833 54.4444 57.2055 54.2667C57.0278 54.0889 56.9389 53.8667 56.9389 53.6C56.9389 53.3333 57.0278 53.1167 57.2055 52.95C57.3833 52.7722 57.6055 52.6833 57.8722 52.6833C58.1389 52.6833 58.3611 52.7722 58.5389 52.95C58.7166 53.1167 58.8055 53.3333 58.8055 53.6C58.8055 53.8667 58.7166 54.0889 58.5389 54.2667C58.3611 54.4444 58.1389 54.5333 57.8722 54.5333ZM57.8722 61.65C57.6166 61.65 57.3944 61.5611 57.2055 61.3833C57.0278 61.2056 56.9389 60.9833 56.9389 60.7167C56.9389 60.45 57.0278 60.2278 57.2055 60.05C57.3944 59.8722 57.6166 59.7833 57.8722 59.7833C58.1278 59.7833 58.3444 59.8722 58.5222 60.05C58.7111 60.2278 58.8055 60.45 58.8055 60.7167C58.8055 60.9833 58.7111 61.2056 58.5222 61.3833C58.3444 61.5611 58.1278 61.65 57.8722 61.65ZM65.711 59.9667V63H64.4777V51.3333H65.711V58.3333L72.161 51.3333H73.5943L68.7777 56.6167L73.911 63H72.4443L67.961 57.5333L65.711 59.9667ZM73.8479 52.45V51.3333H82.8645V52.45H78.9645V63H77.7479V52.45H73.8479ZM94.1445 57.2667V63.5667H92.9445V50.7667H94.1445V56.0667H95.9111V57.2667H94.1445ZM90.5111 51.1667V62.7667H83.8111V51.1667H85.0111V55.7167H89.3278V51.1667H90.5111ZM89.3278 56.8667H85.0111V61.6H89.3278V56.8667ZM108.526 62.9167H96.3927V61.7667H101.826V59.1333H97.2594V54.6333H106.509V52.4H97.2427V51.2667H107.709V55.7333H98.4427V58H107.893V59.1333H103.026V61.7667H108.526V62.9167ZM120.541 55.0167H122.308V56.1H120.541V57.4333H119.341V50.7667H120.541V52.0333H122.308V53.1333H120.541V55.0167ZM113.641 54.5333C113.219 55.2556 112.663 55.85 111.974 56.3167C111.297 56.7833 110.519 57.0889 109.641 57.2333V56.0833C110.419 55.9278 111.091 55.6056 111.658 55.1167C112.224 54.6167 112.658 54.0056 112.958 53.2833C113.269 52.55 113.419 51.7556 113.408 50.9L114.624 50.9667C114.624 51.8556 114.474 52.7222 114.174 53.5667L118.058 56.1667L117.424 57.0833L113.641 54.5333ZM120.541 58.0167V63.3667H110.458V58.0167H111.658V59.55H119.358V58.0167H120.541ZM119.358 60.5833H111.658V62.3167H119.358V60.5833ZM128.602 50.6333V66.2167H127.418V50.6333H128.602ZM145.936 63.5667H144.786V57.2H142.586V63.35H141.453V50.8333H142.586V56.0167H144.786V50.7667H145.936V63.5667ZM137.653 61.6333C138.175 61.6333 138.686 61.5889 139.186 61.5C139.686 61.4111 140.12 61.2889 140.486 61.1333V62.25C140.12 62.4167 139.675 62.5444 139.153 62.6333C138.631 62.7222 138.081 62.7667 137.503 62.7667H134.72V51.2667H139.97V52.4H135.886V61.6333H137.653ZM159.634 62.9167H147.501V61.7667H150.618V58.5667H148.151V57.4167H150.368V52.5167H148.268V51.3667H158.851V52.5167H156.768V57.4167H158.984V58.5667H156.518V61.7667H159.634V62.9167ZM155.568 57.4167V52.5167H151.568V57.4167H155.568ZM155.301 61.7667V58.5667H151.818V61.7667H155.301ZM171.649 57.2667V63.5667H170.449V50.7667H171.649V56.0667H173.416V57.2667H171.649ZM165.599 52.4333C165.577 54.0444 165.455 55.4667 165.233 56.7L169.216 61.9167L168.266 62.65L164.849 58.1333C164.449 59.5 163.91 60.5833 163.233 61.3833C162.555 62.1722 161.766 62.6333 160.866 62.7667V61.5167C161.588 61.3611 162.21 60.8778 162.733 60.0667C163.255 59.2444 163.655 58.1778 163.933 56.8667C164.222 55.5556 164.377 54.0778 164.399 52.4333H161.133V51.2667H168.783V52.4333H165.599ZM178.443 54.5333C178.177 54.5333 177.955 54.4444 177.777 54.2667C177.599 54.0889 177.51 53.8667 177.51 53.6C177.51 53.3333 177.599 53.1167 177.777 52.95C177.955 52.7722 178.177 52.6833 178.443 52.6833C178.71 52.6833 178.932 52.7722 179.11 52.95C179.288 53.1167 179.377 53.3333 179.377 53.6C179.377 53.8667 179.288 54.0889 179.11 54.2667C178.932 54.4444 178.71 54.5333 178.443 54.5333ZM178.443 61.65C178.188 61.65 177.966 61.5611 177.777 61.3833C177.599 61.2056 177.51 60.9833 177.51 60.7167C177.51 60.45 177.599 60.2278 177.777 60.05C177.966 59.8722 178.188 59.7833 178.443 59.7833C178.699 59.7833 178.916 59.8722 179.093 60.05C179.282 60.2278 179.377 60.45 179.377 60.7167C179.377 60.9833 179.282 61.2056 179.093 61.3833C178.916 61.5611 178.699 61.65 178.443 61.65ZM190.116 56.1833C188.56 56.1833 187.277 55.9556 186.266 55.5C185.255 55.0333 184.749 54.35 184.749 53.45C184.749 52.5611 185.255 51.8833 186.266 51.4167C187.288 50.9389 188.571 50.7 190.116 50.7C191.649 50.7 192.921 50.9389 193.932 51.4167C194.955 51.8833 195.466 52.5611 195.466 53.45C195.466 54.35 194.96 55.0333 193.949 55.5C192.938 55.9556 191.66 56.1833 190.116 56.1833ZM190.116 51.75C188.96 51.75 187.988 51.9 187.199 52.2C186.41 52.5 186.016 52.9167 186.016 53.45C186.016 53.9944 186.41 54.4167 187.199 54.7167C187.988 55.0056 188.96 55.15 190.116 55.15C191.271 55.15 192.238 55.0056 193.016 54.7167C193.805 54.4167 194.199 53.9944 194.199 53.45C194.199 52.9167 193.805 52.5 193.016 52.2C192.227 51.9 191.26 51.75 190.116 51.75ZM196.182 58.4H193.132V60.8H191.916V58.4H189.482V60.8H188.282V58.4H184.049V57.3333H196.182V58.4ZM195.532 62.3V63.3833H184.916V59.7667H186.116V62.3H195.532ZM204.347 54.1333V53H207.431V50.7667H208.631V57.9667H207.431V54.1333H204.347ZM201.281 54.8167C200.858 55.5833 200.308 56.2167 199.631 56.7167C198.953 57.2167 198.175 57.5333 197.297 57.6667V56.5167C198.064 56.3611 198.725 56.0167 199.281 55.4833C199.847 54.9389 200.275 54.2722 200.564 53.4833C200.864 52.6833 201.019 51.8222 201.031 50.9L202.231 50.9667C202.231 51.9889 202.081 52.9278 201.781 53.7833L205.564 56.5167L204.897 57.4167L201.281 54.8167ZM203.531 58.4333C205.097 58.4333 206.353 58.6444 207.297 59.0667C208.253 59.4778 208.731 60.1167 208.731 60.9833C208.731 61.85 208.253 62.4944 207.297 62.9167C206.353 63.3278 205.097 63.5333 203.531 63.5333C201.964 63.5333 200.708 63.3278 199.764 62.9167C198.819 62.4944 198.347 61.85 198.347 60.9833C198.347 60.1167 198.819 59.4778 199.764 59.0667C200.708 58.6444 201.964 58.4333 203.531 58.4333ZM203.531 62.4833C204.697 62.4833 205.642 62.3556 206.364 62.1C207.097 61.8444 207.464 61.4722 207.464 60.9833C207.464 60.4944 207.097 60.1222 206.364 59.8667C205.631 59.6111 204.686 59.4833 203.531 59.4833C202.375 59.4833 201.431 59.6111 200.697 59.8667C199.975 60.1222 199.614 60.4944 199.614 60.9833C199.614 61.4722 199.975 61.8444 200.697 62.1C201.431 62.3556 202.375 62.4833 203.531 62.4833ZM210.945 52.6167V51.6167H215.879V50.25H217.095V51.6167H222.079V52.6167H210.945ZM211.429 55.3667C211.429 54.7111 211.884 54.2167 212.795 53.8833C213.718 53.55 214.957 53.3833 216.512 53.3833C218.057 53.3833 219.284 53.55 220.195 53.8833C221.107 54.2167 221.562 54.7111 221.562 55.3667C221.562 56.0222 221.107 56.5167 220.195 56.85C219.284 57.1833 218.057 57.35 216.512 57.35C214.957 57.35 213.718 57.1833 212.795 56.85C211.884 56.5167 211.429 56.0222 211.429 55.3667ZM220.362 55.3667C220.362 55.0222 220.007 54.7611 219.295 54.5833C218.584 54.3944 217.657 54.3 216.512 54.3C215.368 54.3 214.44 54.3944 213.729 54.5833C213.018 54.7611 212.662 55.0222 212.662 55.3667C212.662 55.7111 213.018 55.9778 213.729 56.1667C214.44 56.3444 215.368 56.4333 216.512 56.4333C217.657 56.4333 218.584 56.3444 219.295 56.1667C220.007 55.9778 220.362 55.7111 220.362 55.3667ZM222.579 59.2667H217.112V60.9833H215.912V59.2667H210.445V58.25H222.579V59.2667ZM221.929 62.3333V63.3833H211.329V60.35H212.545V62.3333H221.929ZM11.4833 86.2667V92.5667H10.2833V79.7667H11.4833V85.0667H13.25V86.2667H11.4833ZM5.7 80.1333C5.67778 82.2222 5.51667 84.0111 5.21667 85.5L9.13333 91.0167L8.15 91.7333L4.81667 86.9833C4.40556 88.4167 3.84444 89.55 3.13333 90.3833C2.42222 91.2056 1.6 91.6667 0.666667 91.7667V90.5167C1.47778 90.3722 2.16667 89.8222 2.73333 88.8667C3.31111 87.9111 3.74444 86.6722 4.03333 85.15C4.32222 83.6278 4.47222 81.9444 4.48333 80.1L5.7 80.1333ZM25.1149 86.4333H23.9149V83.6H21.2649C21.1427 84.3889 20.7594 85.0222 20.1149 85.5C19.4705 85.9778 18.6371 86.2167 17.6149 86.2167C16.8594 86.2167 16.1982 86.0833 15.6316 85.8167C15.076 85.55 14.6427 85.1778 14.3316 84.7C14.0316 84.2222 13.8816 83.6778 13.8816 83.0667C13.8816 82.4667 14.0316 81.9278 14.3316 81.45C14.6427 80.9722 15.076 80.6 15.6316 80.3333C16.1982 80.0667 16.8594 79.9333 17.6149 79.9333C18.6038 79.9333 19.4205 80.1611 20.0649 80.6167C20.7094 81.0722 21.1038 81.6778 21.2482 82.4333H23.9149V79.7667H25.1149V86.4333ZM17.6149 85.15C18.3705 85.15 18.9816 84.9667 19.4482 84.6C19.9149 84.2222 20.1482 83.7111 20.1482 83.0667C20.1482 82.4333 19.9149 81.9333 19.4482 81.5667C18.9816 81.1889 18.3705 81 17.6149 81C16.8594 81 16.2482 81.1889 15.7816 81.5667C15.3149 81.9333 15.0816 82.4333 15.0816 83.0667C15.0816 83.7111 15.3149 84.2222 15.7816 84.6C16.2482 84.9667 16.8594 85.15 17.6149 85.15ZM25.1149 87.0167V92.3667H15.0149V87.0167H16.1982V88.5333H23.9316V87.0167H25.1149ZM23.9316 89.5667H16.1982V91.3167H23.9316V89.5667ZM37.8798 86.2667V92.5667H36.6798V79.7667H37.8798V85.0667H39.6465V86.2667H37.8798ZM31.8298 81.4333C31.8076 83.0444 31.6854 84.4667 31.4632 85.7L35.4465 90.9167L34.4965 91.65L31.0798 87.1333C30.6798 88.5 30.1409 89.5833 29.4632 90.3833C28.7854 91.1722 27.9965 91.6333 27.0965 91.7667V90.5167C27.8187 90.3611 28.4409 89.8778 28.9632 89.0667C29.4854 88.2444 29.8854 87.1778 30.1632 85.8667C30.452 84.5556 30.6076 83.0778 30.6298 81.4333H27.3632V80.2667H35.0132V81.4333H31.8298ZM42.2447 80.9833V83.25H51.4947V84.2833H41.0447V79.95H51.3614V80.9833H42.2447ZM40.1281 86.7V85.6667H52.2614V86.7H40.1281ZM46.1947 87.9667C47.7725 87.9667 49.0503 88.15 50.0281 88.5167C51.0169 88.8722 51.5114 89.4556 51.5114 90.2667C51.5114 91.0778 51.0169 91.6667 50.0281 92.0333C49.0503 92.4 47.7725 92.5833 46.1947 92.5833C44.6169 92.5833 43.3336 92.4 42.3447 92.0333C41.3669 91.6667 40.8781 91.0778 40.8781 90.2667C40.8781 89.4556 41.3669 88.8722 42.3447 88.5167C43.3336 88.15 44.6169 87.9667 46.1947 87.9667ZM46.1947 88.9833C45.0503 88.9833 44.0836 89.0889 43.2947 89.3C42.5169 89.5 42.1281 89.8222 42.1281 90.2667C42.1281 90.7222 42.5169 91.0556 43.2947 91.2667C44.0725 91.4667 45.0392 91.5667 46.1947 91.5667C47.3392 91.5667 48.3003 91.4667 49.0781 91.2667C49.8558 91.0556 50.2447 90.7222 50.2447 90.2667C50.2447 89.8222 49.8558 89.5 49.0781 89.3C48.3003 89.0889 47.3392 88.9833 46.1947 88.9833ZM65.4596 87.9H53.3263V86.8667H58.793V85.5H54.2596V82.2833H63.393V80.8833H54.243V79.95H64.5596V83.15H55.4263V84.5833H64.743V85.5H59.993V86.8667H65.4596V87.9ZM64.5763 89.1833V92.55H63.3763V90.2167H54.093V89.1833H64.5763ZM67.0745 87.15V80.0167H68.2412V82.3333H72.9245V80.0167H74.1245V82.9667H76.7079V79.7667H77.9079V89.2833H76.7079V84.15H74.1245V87.15H67.0745ZM72.9245 83.4167H68.2412V86.0667H72.9245V83.4167ZM78.1912 92.3667H67.6579V88.35H68.8745V91.2167H78.1912V92.3667ZM80.1561 82.6667V81.5167H85.1561V79.6H86.3728V81.5167H91.4061V82.6667H80.1561ZM91.8561 91.9167H79.7228V90.7833H85.1895V88.6333C83.8339 88.5778 82.7506 88.35 81.9395 87.95C81.1395 87.5389 80.7395 86.9389 80.7395 86.15C80.7395 85.2944 81.2006 84.6611 82.1228 84.25C83.045 83.8389 84.2672 83.6333 85.7895 83.6333C87.3006 83.6333 88.5172 83.8389 89.4395 84.25C90.3617 84.6611 90.8228 85.2944 90.8228 86.15C90.8228 86.9389 90.4172 87.5389 89.6061 87.95C88.8061 88.35 87.7339 88.5778 86.3895 88.6333V90.7833H91.8561V91.9167ZM81.9728 86.15C81.9728 86.6389 82.3172 87 83.0061 87.2333C83.7061 87.4667 84.6339 87.5833 85.7895 87.5833C86.9339 87.5833 87.8506 87.4667 88.5395 87.2333C89.2395 87 89.5895 86.6389 89.5895 86.15C89.5895 85.65 89.2395 85.2833 88.5395 85.05C87.8506 84.8167 86.9339 84.7 85.7895 84.7C84.6339 84.7 83.7061 84.8167 83.0061 85.05C82.3172 85.2833 81.9728 85.65 81.9728 86.15ZM97.4669 83.5333C97.2003 83.5333 96.978 83.4444 96.8003 83.2667C96.6225 83.0889 96.5336 82.8667 96.5336 82.6C96.5336 82.3333 96.6225 82.1167 96.8003 81.95C96.978 81.7722 97.2003 81.6833 97.4669 81.6833C97.7336 81.6833 97.9558 81.7722 98.1336 81.95C98.3114 82.1167 98.4003 82.3333 98.4003 82.6C98.4003 82.8667 98.3114 83.0889 98.1336 83.2667C97.9558 83.4444 97.7336 83.5333 97.4669 83.5333ZM97.4669 90.65C97.2114 90.65 96.9891 90.5611 96.8003 90.3833C96.6225 90.2056 96.5336 89.9833 96.5336 89.7167C96.5336 89.45 96.6225 89.2278 96.8003 89.05C96.9891 88.8722 97.2114 88.7833 97.4669 88.7833C97.7225 88.7833 97.9391 88.8722 98.1169 89.05C98.3058 89.2278 98.4003 89.45 98.4003 89.7167C98.4003 89.9833 98.3058 90.2056 98.1169 90.3833C97.9391 90.5611 97.7225 90.65 97.4669 90.65ZM108.106 85C108.872 85 109.55 85.1444 110.139 85.4333C110.739 85.7222 111.206 86.1333 111.539 86.6667C111.872 87.1889 112.039 87.8 112.039 88.5C112.039 89.2222 111.861 89.8556 111.506 90.4C111.161 90.9444 110.684 91.3667 110.072 91.6667C109.472 91.9667 108.795 92.1167 108.039 92.1167C106.495 92.1167 105.3 91.6056 104.456 90.5833C103.622 89.5611 103.206 88.1222 103.206 86.2667C103.206 84.9667 103.428 83.8667 103.872 82.9667C104.317 82.0556 104.945 81.3722 105.756 80.9167C106.567 80.45 107.506 80.2167 108.572 80.2167C109.739 80.2167 110.678 80.4389 111.389 80.8833L110.856 81.8667C110.311 81.5111 109.561 81.3333 108.606 81.3333C107.339 81.3333 106.345 81.7389 105.622 82.55C104.9 83.35 104.539 84.5167 104.539 86.05C104.539 86.3389 104.567 86.6889 104.622 87.1C104.878 86.4333 105.317 85.9167 105.939 85.55C106.561 85.1833 107.284 85 108.106 85ZM107.972 91.0667C108.806 91.0667 109.478 90.8389 109.989 90.3833C110.511 89.9167 110.772 89.3056 110.772 88.55C110.772 87.7833 110.511 87.1722 109.989 86.7167C109.478 86.2611 108.778 86.0333 107.889 86.0333C107.322 86.0333 106.811 86.1444 106.356 86.3667C105.911 86.5889 105.561 86.8944 105.306 87.2833C105.061 87.6722 104.939 88.1 104.939 88.5667C104.939 89 105.056 89.4111 105.289 89.8C105.522 90.1778 105.867 90.4833 106.322 90.7167C106.789 90.95 107.339 91.0667 107.972 91.0667ZM118.111 85C118.877 85 119.555 85.1444 120.144 85.4333C120.744 85.7222 121.211 86.1333 121.544 86.6667C121.877 87.1889 122.044 87.8 122.044 88.5C122.044 89.2222 121.866 89.8556 121.511 90.4C121.166 90.9444 120.688 91.3667 120.077 91.6667C119.477 91.9667 118.8 92.1167 118.044 92.1167C116.5 92.1167 115.305 91.6056 114.461 90.5833C113.627 89.5611 113.211 88.1222 113.211 86.2667C113.211 84.9667 113.433 83.8667 113.877 82.9667C114.322 82.0556 114.95 81.3722 115.761 80.9167C116.572 80.45 117.511 80.2167 118.577 80.2167C119.744 80.2167 120.683 80.4389 121.394 80.8833L120.861 81.8667C120.316 81.5111 119.566 81.3333 118.611 81.3333C117.344 81.3333 116.35 81.7389 115.627 82.55C114.905 83.35 114.544 84.5167 114.544 86.05C114.544 86.3389 114.572 86.6889 114.627 87.1C114.883 86.4333 115.322 85.9167 115.944 85.55C116.566 85.1833 117.288 85 118.111 85ZM117.977 91.0667C118.811 91.0667 119.483 90.8389 119.994 90.3833C120.516 89.9167 120.777 89.3056 120.777 88.55C120.777 87.7833 120.516 87.1722 119.994 86.7167C119.483 86.2611 118.783 86.0333 117.894 86.0333C117.327 86.0333 116.816 86.1444 116.361 86.3667C115.916 86.5889 115.566 86.8944 115.311 87.2833C115.066 87.6722 114.944 88.1 114.944 88.5667C114.944 89 115.061 89.4111 115.294 89.8C115.527 90.1778 115.872 90.4833 116.327 90.7167C116.794 90.95 117.344 91.0667 117.977 91.0667ZM127.699 85.3333C128.921 85.3889 129.849 85.7167 130.482 86.3167C131.127 86.9056 131.449 87.6833 131.449 88.65C131.449 89.3167 131.288 89.9111 130.965 90.4333C130.643 90.9556 130.16 91.3667 129.515 91.6667C128.882 91.9667 128.11 92.1167 127.199 92.1167C126.343 92.1167 125.538 91.9833 124.782 91.7167C124.038 91.4389 123.443 91.0667 122.999 90.6L123.565 89.6167C123.954 90.0167 124.465 90.3444 125.099 90.6C125.743 90.8444 126.432 90.9667 127.165 90.9667C128.121 90.9667 128.854 90.7611 129.365 90.35C129.888 89.9389 130.149 89.3722 130.149 88.65C130.149 87.9167 129.893 87.35 129.382 86.95C128.871 86.55 128.088 86.35 127.032 86.35H126.182V85.45L129.382 81.4333H123.465V80.3333H130.982V81.2L127.699 85.3333ZM137.954 85.6333V86.7H133.537V85.6333H137.954ZM146.124 85.8833C146.879 86.1167 147.463 86.4833 147.874 86.9833C148.285 87.4722 148.49 88.0611 148.49 88.75C148.49 89.7944 148.079 90.6167 147.257 91.2167C146.446 91.8167 145.34 92.1167 143.94 92.1167C142.529 92.1167 141.418 91.8167 140.607 91.2167C139.807 90.6167 139.407 89.7944 139.407 88.75C139.407 88.05 139.607 87.4556 140.007 86.9667C140.418 86.4778 140.996 86.1167 141.74 85.8833C141.129 85.6722 140.657 85.3444 140.324 84.9C139.99 84.4556 139.824 83.9278 139.824 83.3167C139.824 82.3611 140.196 81.6056 140.94 81.05C141.696 80.4944 142.696 80.2167 143.94 80.2167C145.196 80.2167 146.196 80.4944 146.94 81.05C147.696 81.6056 148.074 82.3611 148.074 83.3167C148.074 83.9278 147.902 84.4556 147.557 84.9C147.224 85.3333 146.746 85.6611 146.124 85.8833ZM143.94 81.25C143.063 81.25 142.368 81.4389 141.857 81.8167C141.357 82.1944 141.107 82.7111 141.107 83.3667C141.107 84 141.357 84.5056 141.857 84.8833C142.357 85.25 143.052 85.4333 143.94 85.4333C144.829 85.4333 145.524 85.25 146.024 84.8833C146.535 84.5056 146.79 84 146.79 83.3667C146.79 82.7222 146.529 82.2111 146.007 81.8333C145.496 81.4444 144.807 81.25 143.94 81.25ZM143.94 91.0667C144.952 91.0667 145.746 90.8611 146.324 90.45C146.902 90.0278 147.19 89.4556 147.19 88.7333C147.19 88.0222 146.902 87.4611 146.324 87.05C145.746 86.6278 144.952 86.4167 143.94 86.4167C142.929 86.4167 142.135 86.6278 141.557 87.05C140.99 87.4611 140.707 88.0222 140.707 88.7333C140.707 89.4556 140.99 90.0278 141.557 90.45C142.124 90.8611 142.918 91.0667 143.94 91.0667ZM154.512 85C155.279 85 155.956 85.1444 156.545 85.4333C157.145 85.7222 157.612 86.1333 157.945 86.6667C158.279 87.1889 158.445 87.8 158.445 88.5C158.445 89.2222 158.268 89.8556 157.912 90.4C157.568 90.9444 157.09 91.3667 156.479 91.6667C155.879 91.9667 155.201 92.1167 154.445 92.1167C152.901 92.1167 151.706 91.6056 150.862 90.5833C150.029 89.5611 149.612 88.1222 149.612 86.2667C149.612 84.9667 149.834 83.8667 150.279 82.9667C150.723 82.0556 151.351 81.3722 152.162 80.9167C152.973 80.45 153.912 80.2167 154.979 80.2167C156.145 80.2167 157.084 80.4389 157.795 80.8833L157.262 81.8667C156.718 81.5111 155.968 81.3333 155.012 81.3333C153.745 81.3333 152.751 81.7389 152.029 82.55C151.306 83.35 150.945 84.5167 150.945 86.05C150.945 86.3389 150.973 86.6889 151.029 87.1C151.284 86.4333 151.723 85.9167 152.345 85.55C152.968 85.1833 153.69 85 154.512 85ZM154.379 91.0667C155.212 91.0667 155.884 90.8389 156.395 90.3833C156.918 89.9167 157.179 89.3056 157.179 88.55C157.179 87.7833 156.918 87.1722 156.395 86.7167C155.884 86.2611 155.184 86.0333 154.295 86.0333C153.729 86.0333 153.218 86.1444 152.762 86.3667C152.318 86.5889 151.968 86.8944 151.712 87.2833C151.468 87.6722 151.345 88.1 151.345 88.5667C151.345 89 151.462 89.4111 151.695 89.8C151.929 90.1778 152.273 90.4833 152.729 90.7167C153.195 90.95 153.745 91.0667 154.379 91.0667ZM164.35 85.6333V86.7H159.934V85.6333H164.35ZM170.337 92.1167C169.437 92.1167 168.631 91.8778 167.92 91.4C167.209 90.9111 166.654 90.2167 166.254 89.3167C165.854 88.4167 165.654 87.3667 165.654 86.1667C165.654 84.9667 165.854 83.9167 166.254 83.0167C166.654 82.1167 167.209 81.4278 167.92 80.95C168.631 80.4611 169.437 80.2167 170.337 80.2167C171.248 80.2167 172.054 80.4611 172.754 80.95C173.465 81.4278 174.02 82.1167 174.42 83.0167C174.82 83.9056 175.02 84.9556 175.02 86.1667C175.02 87.3778 174.82 88.4333 174.42 89.3333C174.02 90.2222 173.465 90.9111 172.754 91.4C172.054 91.8778 171.248 92.1167 170.337 92.1167ZM170.337 90.9667C171.015 90.9667 171.604 90.7833 172.104 90.4167C172.615 90.0389 173.009 89.4889 173.287 88.7667C173.576 88.0444 173.72 87.1778 173.72 86.1667C173.72 85.1556 173.576 84.2889 173.287 83.5667C173.009 82.8444 172.615 82.3 172.104 81.9333C171.604 81.5556 171.015 81.3667 170.337 81.3667C169.67 81.3667 169.081 81.5556 168.57 81.9333C168.059 82.3 167.665 82.8444 167.387 83.5667C167.109 84.2889 166.97 85.1556 166.97 86.1667C166.97 87.1778 167.109 88.0444 167.387 88.7667C167.665 89.4889 168.059 90.0389 168.57 90.4167C169.081 90.7833 169.67 90.9667 170.337 90.9667ZM184.475 92H176.242V91.1167L181.075 86.35C181.686 85.75 182.097 85.2389 182.308 84.8167C182.531 84.3944 182.642 83.9611 182.642 83.5167C182.642 82.8389 182.408 82.3111 181.942 81.9333C181.475 81.5444 180.808 81.35 179.942 81.35C178.575 81.35 177.531 81.7944 176.808 82.6833L175.875 81.9833C176.32 81.4167 176.897 80.9833 177.608 80.6833C178.32 80.3722 179.131 80.2167 180.042 80.2167C181.22 80.2167 182.158 80.5056 182.858 81.0833C183.57 81.65 183.925 82.4222 183.925 83.4C183.925 84.0111 183.792 84.5889 183.525 85.1333C183.258 85.6778 182.758 86.3111 182.025 87.0333L178.125 90.8833H184.475V92ZM193.33 88.95V92H192.063V88.95H185.497V88.05L191.647 80.3333H193.047L187.113 87.8333H192.08V85.15H193.33V87.8333H195.647V88.95H193.33ZM200.918 85C201.685 85 202.363 85.1444 202.952 85.4333C203.552 85.7222 204.018 86.1333 204.352 86.6667C204.685 87.1889 204.852 87.8 204.852 88.5C204.852 89.2222 204.674 89.8556 204.318 90.4C203.974 90.9444 203.496 91.3667 202.885 91.6667C202.285 91.9667 201.607 92.1167 200.852 92.1167C199.307 92.1167 198.113 91.6056 197.268 90.5833C196.435 89.5611 196.018 88.1222 196.018 86.2667C196.018 84.9667 196.24 83.8667 196.685 82.9667C197.129 82.0556 197.757 81.3722 198.568 80.9167C199.379 80.45 200.318 80.2167 201.385 80.2167C202.552 80.2167 203.49 80.4389 204.202 80.8833L203.668 81.8667C203.124 81.5111 202.374 81.3333 201.418 81.3333C200.152 81.3333 199.157 81.7389 198.435 82.55C197.713 83.35 197.352 84.5167 197.352 86.05C197.352 86.3389 197.379 86.6889 197.435 87.1C197.69 86.4333 198.129 85.9167 198.752 85.55C199.374 85.1833 200.096 85 200.918 85ZM200.785 91.0667C201.618 91.0667 202.29 90.8389 202.802 90.3833C203.324 89.9167 203.585 89.3056 203.585 88.55C203.585 87.7833 203.324 87.1722 202.802 86.7167C202.29 86.2611 201.59 86.0333 200.702 86.0333C200.135 86.0333 199.624 86.1444 199.168 86.3667C198.724 86.5889 198.374 86.8944 198.118 87.2833C197.874 87.6722 197.752 88.1 197.752 88.5667C197.752 89 197.868 89.4111 198.102 89.8C198.335 90.1778 198.679 90.4833 199.135 90.7167C199.602 90.95 200.152 91.0667 200.785 91.0667ZM214.49 92H206.256V91.1167L211.09 86.35C211.701 85.75 212.112 85.2389 212.323 84.8167C212.545 84.3944 212.656 83.9611 212.656 83.5167C212.656 82.8389 212.423 82.3111 211.956 81.9333C211.49 81.5444 210.823 81.35 209.956 81.35C208.59 81.35 207.545 81.7944 206.823 82.6833L205.89 81.9833C206.334 81.4167 206.912 80.9833 207.623 80.6833C208.334 80.3722 209.145 80.2167 210.056 80.2167C211.234 80.2167 212.173 80.5056 212.873 81.0833C213.584 81.65 213.94 82.4222 213.94 83.4C213.94 84.0111 213.806 84.5889 213.54 85.1333C213.273 85.6778 212.773 86.3111 212.04 87.0333L208.14 90.8833H214.49V92ZM12.1667 121.567H11.0167V115.2H8.81667V121.35H7.68333V108.833H8.81667V114.017H11.0167V108.767H12.1667V121.567ZM3.88333 119.633C4.40556 119.633 4.91667 119.589 5.41667 119.5C5.91667 119.411 6.35 119.289 6.71667 119.133V120.25C6.35 120.417 5.90556 120.544 5.38333 120.633C4.86111 120.722 4.31111 120.767 3.73333 120.767H0.95V109.267H6.2V110.4H2.11667V119.633H3.88333ZM25.8649 120.917H13.7316V119.767H16.8482V116.567H14.3816V115.417H16.5982V110.517H14.4982V109.367H25.0816V110.517H22.9982V115.417H25.2149V116.567H22.7482V119.767H25.8649V120.917ZM21.7982 115.417V110.517H17.7982V115.417H21.7982ZM21.5316 119.767V116.567H18.0482V119.767H21.5316ZM27.4798 116.15V109.017H28.6465V111.333H33.3298V109.017H34.5298V111.967H37.1132V108.767H38.3132V118.283H37.1132V113.15H34.5298V116.15H27.4798ZM33.3298 112.417H28.6465V115.067H33.3298V112.417ZM38.5965 121.367H28.0632V117.35H29.2798V120.217H38.5965V121.367ZM40.5614 111.667V110.517H45.5614V108.6H46.7781V110.517H51.8114V111.667H40.5614ZM52.2614 120.917H40.1281V119.783H45.5947V117.633C44.2392 117.578 43.1558 117.35 42.3447 116.95C41.5447 116.539 41.1447 115.939 41.1447 115.15C41.1447 114.294 41.6058 113.661 42.5281 113.25C43.4503 112.839 44.6725 112.633 46.1947 112.633C47.7058 112.633 48.9225 112.839 49.8447 113.25C50.7669 113.661 51.2281 114.294 51.2281 115.15C51.2281 115.939 50.8225 116.539 50.0114 116.95C49.2114 117.35 48.1392 117.578 46.7947 117.633V119.783H52.2614V120.917ZM42.3781 115.15C42.3781 115.639 42.7225 116 43.4114 116.233C44.1114 116.467 45.0392 116.583 46.1947 116.583C47.3392 116.583 48.2558 116.467 48.9447 116.233C49.6447 116 49.9947 115.639 49.9947 115.15C49.9947 114.65 49.6447 114.283 48.9447 114.05C48.2558 113.817 47.3392 113.7 46.1947 113.7C45.0392 113.7 44.1114 113.817 43.4114 114.05C42.7225 114.283 42.3781 114.65 42.3781 115.15ZM57.8722 112.533C57.6055 112.533 57.3833 112.444 57.2055 112.267C57.0278 112.089 56.9389 111.867 56.9389 111.6C56.9389 111.333 57.0278 111.117 57.2055 110.95C57.3833 110.772 57.6055 110.683 57.8722 110.683C58.1389 110.683 58.3611 110.772 58.5389 110.95C58.7166 111.117 58.8055 111.333 58.8055 111.6C58.8055 111.867 58.7166 112.089 58.5389 112.267C58.3611 112.444 58.1389 112.533 57.8722 112.533ZM57.8722 119.65C57.6166 119.65 57.3944 119.561 57.2055 119.383C57.0278 119.206 56.9389 118.983 56.9389 118.717C56.9389 118.45 57.0278 118.228 57.2055 118.05C57.3944 117.872 57.6166 117.783 57.8722 117.783C58.1278 117.783 58.3444 117.872 58.5222 118.05C58.7111 118.228 58.8055 118.45 58.8055 118.717C58.8055 118.983 58.7111 119.206 58.5222 119.383C58.3444 119.561 58.1278 119.65 57.8722 119.65ZM69.0943 121H67.811V110.433H65.0777V109.333H69.0943V121ZM77.1992 114.1C80.4326 114.1 82.0492 115.256 82.0492 117.567C82.0492 118.244 81.8881 118.85 81.5659 119.383C81.2548 119.917 80.777 120.339 80.1326 120.65C79.4992 120.961 78.7159 121.117 77.7826 121.117C76.9381 121.117 76.1381 120.978 75.3826 120.7C74.627 120.422 74.027 120.056 73.5826 119.6L74.1826 118.617C74.5492 119.017 75.0492 119.344 75.6826 119.6C76.327 119.844 77.0214 119.967 77.7659 119.967C78.7214 119.967 79.4548 119.75 79.9659 119.317C80.4881 118.883 80.7492 118.311 80.7492 117.6C80.7492 116.811 80.4603 116.217 79.8826 115.817C79.3048 115.417 78.3159 115.217 76.9159 115.217H74.3992L75.0159 109.333H81.4159V110.433H76.0992L75.6992 114.1H77.1992ZM87.2041 114.1C90.4374 114.1 92.0541 115.256 92.0541 117.567C92.0541 118.244 91.893 118.85 91.5708 119.383C91.2597 119.917 90.7819 120.339 90.1374 120.65C89.5041 120.961 88.7208 121.117 87.7874 121.117C86.943 121.117 86.143 120.978 85.3874 120.7C84.6319 120.422 84.0319 120.056 83.5874 119.6L84.1874 118.617C84.5541 119.017 85.0541 119.344 85.6874 119.6C86.3319 119.844 87.0263 119.967 87.7708 119.967C88.7263 119.967 89.4597 119.75 89.9708 119.317C90.493 118.883 90.7541 118.311 90.7541 117.6C90.7541 116.811 90.4652 116.217 89.8874 115.817C89.3097 115.417 88.3208 115.217 86.9208 115.217H84.4041L85.0208 109.333H91.4208V110.433H86.1041L85.7041 114.1H87.2041ZM99.109 121H97.8257V110.433H95.0923V109.333H99.109V121ZM108.364 114.633V115.7H103.947V114.633H108.364ZM115.208 121H113.924V110.433H111.191V109.333H115.208V121ZM123.312 114.1C126.546 114.1 128.163 115.256 128.163 117.567C128.163 118.244 128.001 118.85 127.679 119.383C127.368 119.917 126.89 120.339 126.246 120.65C125.613 120.961 124.829 121.117 123.896 121.117C123.051 121.117 122.251 120.978 121.496 120.7C120.74 120.422 120.14 120.056 119.696 119.6L120.296 118.617C120.663 119.017 121.163 119.344 121.796 119.6C122.44 119.844 123.135 119.967 123.879 119.967C124.835 119.967 125.568 119.75 126.079 119.317C126.601 118.883 126.863 118.311 126.863 117.6C126.863 116.811 126.574 116.217 125.996 115.817C125.418 115.417 124.429 115.217 123.029 115.217H120.513L121.129 109.333H127.529V110.433H122.213L121.813 114.1H123.312ZM134.217 114.333C135.44 114.389 136.367 114.717 137.001 115.317C137.645 115.906 137.967 116.683 137.967 117.65C137.967 118.317 137.806 118.911 137.484 119.433C137.162 119.956 136.678 120.367 136.034 120.667C135.401 120.967 134.628 121.117 133.717 121.117C132.862 121.117 132.056 120.983 131.301 120.717C130.556 120.439 129.962 120.067 129.517 119.6L130.084 118.617C130.473 119.017 130.984 119.344 131.617 119.6C132.262 119.844 132.951 119.967 133.684 119.967C134.64 119.967 135.373 119.761 135.884 119.35C136.406 118.939 136.667 118.372 136.667 117.65C136.667 116.917 136.412 116.35 135.901 115.95C135.39 115.55 134.606 115.35 133.551 115.35H132.701V114.45L135.901 110.433H129.984V109.333H137.501V110.2L134.217 114.333ZM145.222 121H143.939V110.433H141.206V109.333H145.222V121ZM155.423 108.633V124.217H154.24V108.633H155.423ZM170.17 112.717C169.592 113.506 168.837 114.139 167.903 114.617C166.97 115.094 165.948 115.383 164.837 115.483V114.317C166.137 114.194 167.253 113.778 168.187 113.067C169.12 112.344 169.709 111.417 169.953 110.283H165.137V109.133H175.837V110.283H171.237C171.17 110.794 171.026 111.283 170.803 111.75L176.203 114.367L175.687 115.417L170.17 112.717ZM171.07 118.133V121.867H169.853V118.133H164.42V116.967H176.553V118.133H171.07ZM183.518 112.817C182.818 113.972 181.968 114.889 180.968 115.567C179.968 116.244 178.929 116.583 177.852 116.583V115.383C178.729 115.383 179.574 115.094 180.385 114.517C181.196 113.928 181.891 113.133 182.468 112.133C183.057 111.133 183.463 110.033 183.685 108.833L184.918 109.083C184.741 110.028 184.452 110.933 184.052 111.8L189.418 115.633L188.768 116.617L183.518 112.817ZM189.752 119.733V120.917H177.618V119.733H183.068V115.983H184.285V119.733H189.752ZM195.362 112.533C195.096 112.533 194.874 112.444 194.696 112.267C194.518 112.089 194.429 111.867 194.429 111.6C194.429 111.333 194.518 111.117 194.696 110.95C194.874 110.772 195.096 110.683 195.362 110.683C195.629 110.683 195.851 110.772 196.029 110.95C196.207 111.117 196.296 111.333 196.296 111.6C196.296 111.867 196.207 112.089 196.029 112.267C195.851 112.444 195.629 112.533 195.362 112.533ZM195.362 119.65C195.107 119.65 194.885 119.561 194.696 119.383C194.518 119.206 194.429 118.983 194.429 118.717C194.429 118.45 194.518 118.228 194.696 118.05C194.885 117.872 195.107 117.783 195.362 117.783C195.618 117.783 195.835 117.872 196.012 118.05C196.201 118.228 196.296 118.45 196.296 118.717C196.296 118.983 196.201 119.206 196.012 119.383C195.835 119.561 195.618 119.65 195.362 119.65ZM201.851 115.533V109.017H203.035V110.95H211.035V109.017H212.218V115.533H201.851ZM211.035 112.067H203.035V114.4H211.035V112.067ZM207.651 118.15V121.867H206.418V118.15H200.968V116.983H213.101V118.15H207.651ZM226.883 112.983H225.116V118.283H223.916V108.767H225.116V111.767H226.883V112.983ZM218.199 113.2C217.766 114.044 217.211 114.739 216.533 115.283C215.855 115.828 215.083 116.167 214.216 116.3V115.117C214.983 114.961 215.649 114.583 216.216 113.983C216.794 113.383 217.233 112.639 217.533 111.75C217.833 110.861 217.983 109.911 217.983 108.9L219.199 108.967C219.199 110.111 219.033 111.161 218.699 112.117L222.616 115.267L221.883 116.183L218.199 113.2ZM225.483 120.217V121.367H215.033V117.383H216.249V120.217H225.483ZM238.664 121.567H237.448V108.767H238.664V121.567ZM232.731 109.133C232.709 111.156 232.537 112.928 232.214 114.45L236.231 120L235.264 120.733L231.831 115.917C231.398 117.372 230.82 118.522 230.098 119.367C229.387 120.2 228.559 120.667 227.614 120.767V119.517C228.437 119.372 229.137 118.822 229.714 117.867C230.292 116.9 230.731 115.656 231.031 114.133C231.331 112.611 231.487 110.933 231.498 109.1L232.731 109.133ZM254.809 115.267V121.567H253.609V108.767H254.809V114.067H256.575V115.267H254.809ZM249.025 109.133C249.003 111.222 248.842 113.011 248.542 114.5L252.459 120.017L251.475 120.733L248.142 115.983C247.731 117.417 247.17 118.55 246.459 119.383C245.747 120.206 244.925 120.667 243.992 120.767V119.517C244.803 119.372 245.492 118.822 246.059 117.867C246.636 116.911 247.07 115.672 247.359 114.15C247.647 112.628 247.797 110.944 247.809 109.1L249.025 109.133ZM265.24 110.85V112H257.34V110.85H260.673V108.733H261.89V110.85H265.24ZM268.007 115.267V121.567H266.807V108.767H268.007V114.067H269.773V115.267H268.007ZM261.29 113.133C261.923 113.133 262.496 113.294 263.007 113.617C263.518 113.939 263.918 114.394 264.207 114.983C264.496 115.572 264.64 116.25 264.64 117.017C264.64 117.783 264.496 118.467 264.207 119.067C263.918 119.656 263.518 120.111 263.007 120.433C262.496 120.756 261.923 120.917 261.29 120.917C260.646 120.917 260.068 120.756 259.557 120.433C259.046 120.111 258.646 119.656 258.357 119.067C258.068 118.467 257.923 117.783 257.923 117.017C257.923 116.25 258.068 115.572 258.357 114.983C258.646 114.394 259.046 113.939 259.557 113.617C260.068 113.294 260.646 113.133 261.29 113.133ZM261.29 119.8C261.69 119.8 262.051 119.689 262.373 119.467C262.707 119.233 262.968 118.906 263.157 118.483C263.357 118.061 263.457 117.572 263.457 117.017C263.457 116.461 263.357 115.972 263.157 115.55C262.968 115.128 262.707 114.806 262.373 114.583C262.051 114.35 261.69 114.233 261.29 114.233C260.879 114.233 260.507 114.35 260.173 114.583C259.851 114.806 259.59 115.128 259.39 115.55C259.201 115.972 259.107 116.461 259.107 117.017C259.107 117.572 259.201 118.061 259.39 118.483C259.59 118.906 259.851 119.233 260.173 119.467C260.507 119.689 260.879 119.8 261.29 119.8ZM271.088 110.283V109.1H281.488V114.883H280.238V110.283H271.088ZM276.855 117.25V121.867H275.638V117.25H270.255V116.033H282.388V117.25H276.855ZM297.699 112.783V116.267H296.499V108.767H297.699V111.567H299.466V112.783H297.699ZM295.532 114.917C295.144 115.106 294.588 115.25 293.866 115.35C293.144 115.45 292.327 115.5 291.416 115.5H287.216V109.033H288.432V114.383H291.482C292.371 114.383 293.166 114.333 293.866 114.233C294.577 114.122 295.132 113.972 295.532 113.783V114.917ZM297.699 117.017V121.533H296.482V118.133H287.499V117.017H297.699ZM312.081 115.783H299.947V114.75H305.414V113.283H300.864V108.95H311.181V109.983H302.064V112.25H311.314V113.283H306.614V114.75H312.081V115.783ZM306.014 116.967C307.592 116.967 308.87 117.15 309.847 117.517C310.836 117.872 311.331 118.456 311.331 119.267C311.331 120.078 310.836 120.667 309.847 121.033C308.87 121.4 307.592 121.583 306.014 121.583C304.436 121.583 303.153 121.4 302.164 121.033C301.186 120.667 300.697 120.078 300.697 119.267C300.697 118.456 301.186 117.872 302.164 117.517C303.153 117.15 304.436 116.967 306.014 116.967ZM306.014 120.567C307.159 120.567 308.12 120.467 308.897 120.267C309.675 120.056 310.064 119.722 310.064 119.267C310.064 118.822 309.675 118.5 308.897 118.3C308.12 118.089 307.159 117.983 306.014 117.983C304.87 117.983 303.903 118.089 303.114 118.3C302.336 118.5 301.947 118.822 301.947 119.267C301.947 119.722 302.336 120.056 303.114 120.267C303.892 120.467 304.859 120.567 306.014 120.567ZM324.779 121.567H323.629V115.2H321.429V121.35H320.296V108.833H321.429V114.017H323.629V108.767H324.779V121.567ZM316.496 119.633C317.018 119.633 317.529 119.589 318.029 119.5C318.529 119.411 318.962 119.289 319.329 119.133V120.25C318.962 120.417 318.518 120.544 317.996 120.633C317.473 120.722 316.923 120.767 316.346 120.767H313.562V109.267H318.812V110.4H314.729V119.633H316.496ZM338.477 120.917H326.344V119.767H331.777V117.133H327.211V112.633H336.461V110.4H327.194V109.267H337.661V113.733H328.394V116H337.844V117.133H332.977V119.767H338.477V120.917ZM350.288 117.95V121H349.021V117.95H342.455V117.05L348.605 109.333H350.005L344.071 116.833H349.038V114.15H350.288V116.833H352.605V117.95H350.288ZM360.293 117.95V121H359.026V117.95H352.46V117.05L358.61 109.333H360.01L354.076 116.833H359.043V114.15H360.293V116.833H362.61V117.95H360.293ZM371.448 121H363.214V120.117L368.048 115.35C368.659 114.75 369.07 114.239 369.281 113.817C369.503 113.394 369.614 112.961 369.614 112.517C369.614 111.839 369.381 111.311 368.914 110.933C368.448 110.544 367.781 110.35 366.914 110.35C365.548 110.35 364.503 110.794 363.781 111.683L362.848 110.983C363.292 110.417 363.87 109.983 364.581 109.683C365.292 109.372 366.103 109.217 367.014 109.217C368.192 109.217 369.131 109.506 369.831 110.083C370.542 110.65 370.898 111.422 370.898 112.4C370.898 113.011 370.764 113.589 370.498 114.133C370.231 114.678 369.731 115.311 368.998 116.033L365.098 119.883H371.448V121ZM12.1667 150.567H11V144.2H8.7V150.35H7.55V137.833H8.7V143.017H11V137.767H12.1667V150.567ZM5.85 138.267V141.633C5.85 143.233 5.63889 144.644 5.21667 145.867C4.80556 147.089 4.22222 148.039 3.46667 148.717C2.71111 149.394 1.83889 149.733 0.85 149.733V148.55C1.62778 148.539 2.30556 148.244 2.88333 147.667C3.46111 147.089 3.90556 146.289 4.21667 145.267C4.53889 144.233 4.7 143.044 4.7 141.7V139.417H0.85V138.267H5.85ZM23.8149 147.283V137.767H25.0316V147.283H23.8149ZM17.7149 137.917C18.4927 137.917 19.1705 138.078 19.7482 138.4C20.326 138.711 20.7649 139.15 21.0649 139.717C21.376 140.272 21.5316 140.906 21.5316 141.617C21.5316 142.328 21.376 142.967 21.0649 143.533C20.7649 144.089 20.326 144.528 19.7482 144.85C19.1705 145.161 18.4927 145.317 17.7149 145.317C16.9371 145.317 16.2594 145.161 15.6816 144.85C15.1038 144.528 14.6594 144.089 14.3482 143.533C14.0371 142.967 13.8816 142.328 13.8816 141.617C13.8816 140.906 14.0371 140.272 14.3482 139.717C14.6594 139.15 15.1038 138.711 15.6816 138.4C16.2594 138.078 16.9371 137.917 17.7149 137.917ZM17.7149 138.983C16.926 138.983 16.2927 139.222 15.8149 139.7C15.3371 140.178 15.0982 140.817 15.0982 141.617C15.0982 142.417 15.3371 143.056 15.8149 143.533C16.2927 144 16.926 144.233 17.7149 144.233C18.5038 144.233 19.1371 144 19.6149 143.533C20.0927 143.056 20.3316 142.417 20.3316 141.617C20.3316 140.817 20.0927 140.178 19.6149 139.7C19.1371 139.222 18.5038 138.983 17.7149 138.983ZM25.3816 149.217V150.367H14.9482V146.233H16.1649V149.217H25.3816ZM37.1132 137.767H38.3132V144.967H37.1132V141.367H34.6132V140.267H37.1132V137.767ZM31.1798 141.9C30.7798 142.633 30.2354 143.233 29.5465 143.7C28.8576 144.156 28.0687 144.439 27.1798 144.55V143.417C28.2243 143.25 29.052 142.8 29.6632 142.067C30.2854 141.322 30.6409 140.372 30.7298 139.217H27.3298V138.133H35.1132V139.217H31.9465C31.9132 139.828 31.8132 140.383 31.6465 140.883L35.5132 143.483L34.8965 144.433L31.1798 141.9ZM33.2132 145.433C34.7798 145.433 36.0354 145.644 36.9798 146.067C37.9354 146.478 38.4132 147.117 38.4132 147.983C38.4132 148.85 37.9354 149.494 36.9798 149.917C36.0354 150.328 34.7798 150.533 33.2132 150.533C31.6465 150.533 30.3909 150.328 29.4465 149.917C28.502 149.494 28.0298 148.85 28.0298 147.983C28.0298 147.117 28.502 146.478 29.4465 146.067C30.3909 145.644 31.6465 145.433 33.2132 145.433ZM33.2132 149.483C34.3798 149.483 35.3243 149.356 36.0465 149.1C36.7798 148.844 37.1465 148.472 37.1465 147.983C37.1465 147.494 36.7798 147.122 36.0465 146.867C35.3132 146.611 34.3687 146.483 33.2132 146.483C32.0576 146.483 31.1132 146.611 30.3798 146.867C29.6576 147.122 29.2965 147.494 29.2965 147.983C29.2965 148.472 29.6576 148.844 30.3798 149.1C31.1132 149.356 32.0576 149.483 33.2132 149.483ZM52.2614 149.917H40.1281V148.733H45.5781V145.65H40.9781V138.167H42.1614V140.6H50.2281V138.167H51.4114V145.65H46.7947V148.733H52.2614V149.917ZM50.2281 144.517V141.733H42.1614V144.517H50.2281ZM59.8555 142.867C59.2333 144.322 58.2 145.167 56.7555 145.4V144.283C57.5333 144.106 58.1333 143.678 58.5555 143C58.9889 142.311 59.2278 141.383 59.2722 140.217H56.9055V139.117H59.2722V137.55H60.4555V139.117H62.7722V140.217H60.4555C60.4444 140.694 60.3778 141.2 60.2555 141.733L63.0722 144.517L62.3389 145.35L59.8555 142.867ZM68.2555 145.817H67.1055V142.033H64.9055V145.683H63.7722V137.833H64.9055V140.85H67.1055V137.767H68.2555V145.817ZM68.2555 146.567V150.533H67.0555V147.65H57.6222V146.567H68.2555ZM79.9038 144.733V137.767H81.1204V144.733H79.9038ZM73.8204 137.917C74.5871 137.917 75.2538 138.056 75.8204 138.333C76.3982 138.6 76.8371 138.978 77.1371 139.467C77.4482 139.956 77.6038 140.517 77.6038 141.15C77.6038 141.783 77.4482 142.344 77.1371 142.833C76.8371 143.322 76.3982 143.706 75.8204 143.983C75.2538 144.25 74.5871 144.383 73.8204 144.383C73.0538 144.383 72.3816 144.25 71.8038 143.983C71.2371 143.706 70.7982 143.322 70.4871 142.833C70.1871 142.344 70.0371 141.783 70.0371 141.15C70.0371 140.517 70.1871 139.956 70.4871 139.467C70.7982 138.978 71.2371 138.6 71.8038 138.333C72.3816 138.056 73.0538 137.917 73.8204 137.917ZM73.8204 138.967C73.0427 138.967 72.4149 139.161 71.9371 139.55C71.4704 139.939 71.2371 140.472 71.2371 141.15C71.2371 141.828 71.4704 142.361 71.9371 142.75C72.4149 143.139 73.0427 143.333 73.8204 143.333C74.5871 143.333 75.2038 143.139 75.6704 142.75C76.1482 142.361 76.3871 141.828 76.3871 141.15C76.3871 140.472 76.1482 139.939 75.6704 139.55C75.2038 139.161 74.5871 138.967 73.8204 138.967ZM71.0371 150.367V145.483H81.1204V150.367H71.0371ZM79.9038 146.567H72.2371V149.283H79.9038V146.567ZM95.7354 142.55H94.002V147.5H92.7854V137.767H94.002V141.367H95.7354V142.55ZM83.6354 139.117V138H90.452V142.967H89.252V139.117H83.6354ZM91.702 144.8C90.9798 145.144 89.5798 145.317 87.502 145.317H83.0187V144.217H85.552V141.033H86.752V144.217H87.552C89.552 144.217 90.9354 144.044 91.702 143.7V144.8ZM94.3687 149.267V150.367H83.9187V146.667H85.1187V149.267H94.3687ZM106.3 150.567V137.767H107.517V150.567H106.3ZM98.1503 144.483V148.617H101.934C102.511 148.617 103.089 148.561 103.667 148.45C104.245 148.339 104.717 148.189 105.084 148V149.15C104.717 149.35 104.245 149.506 103.667 149.617C103.089 149.717 102.5 149.767 101.9 149.767H96.9503V143.35H102.584V139.417H96.9336V138.267H103.767V144.483H98.1503ZM120.365 144.267V150.567H119.165V137.767H120.365V143.067H122.132V144.267H120.365ZM114.315 139.433C114.293 141.044 114.171 142.467 113.949 143.7L117.932 148.917L116.982 149.65L113.565 145.133C113.165 146.5 112.626 147.583 111.949 148.383C111.271 149.172 110.482 149.633 109.582 149.767V148.517C110.304 148.361 110.926 147.878 111.449 147.067C111.971 146.244 112.371 145.178 112.649 143.867C112.937 142.556 113.093 141.078 113.115 139.433H109.849V138.267H117.499V139.433H114.315ZM127.159 141.533C126.893 141.533 126.67 141.444 126.493 141.267C126.315 141.089 126.226 140.867 126.226 140.6C126.226 140.333 126.315 140.117 126.493 139.95C126.67 139.772 126.893 139.683 127.159 139.683C127.426 139.683 127.648 139.772 127.826 139.95C128.004 140.117 128.093 140.333 128.093 140.6C128.093 140.867 128.004 141.089 127.826 141.267C127.648 141.444 127.426 141.533 127.159 141.533ZM127.159 148.65C126.904 148.65 126.682 148.561 126.493 148.383C126.315 148.206 126.226 147.983 126.226 147.717C126.226 147.45 126.315 147.228 126.493 147.05C126.682 146.872 126.904 146.783 127.159 146.783C127.415 146.783 127.632 146.872 127.809 147.05C127.998 147.228 128.093 147.45 128.093 147.717C128.093 147.983 127.998 148.206 127.809 148.383C127.632 148.561 127.415 148.65 127.159 148.65ZM138.831 143.183C137.276 143.183 135.993 142.956 134.981 142.5C133.97 142.033 133.465 141.35 133.465 140.45C133.465 139.561 133.97 138.883 134.981 138.417C136.004 137.939 137.287 137.7 138.831 137.7C140.365 137.7 141.637 137.939 142.648 138.417C143.67 138.883 144.181 139.561 144.181 140.45C144.181 141.35 143.676 142.033 142.665 142.5C141.654 142.956 140.376 143.183 138.831 143.183ZM138.831 138.75C137.676 138.75 136.704 138.9 135.915 139.2C135.126 139.5 134.731 139.917 134.731 140.45C134.731 140.994 135.126 141.417 135.915 141.717C136.704 142.006 137.676 142.15 138.831 142.15C139.987 142.15 140.954 142.006 141.731 141.717C142.52 141.417 142.915 140.994 142.915 140.45C142.915 139.917 142.52 139.5 141.731 139.2C140.943 138.9 139.976 138.75 138.831 138.75ZM144.898 145.4H141.848V147.8H140.631V145.4H138.198V147.8H136.998V145.4H132.765V144.333H144.898V145.4ZM144.248 149.3V150.383H133.631V146.767H134.831V149.3H144.248ZM153.063 141.133V140H156.146V137.767H157.346V144.967H156.146V141.133H153.063ZM149.996 141.817C149.574 142.583 149.024 143.217 148.346 143.717C147.669 144.217 146.891 144.533 146.013 144.667V143.517C146.78 143.361 147.441 143.017 147.996 142.483C148.563 141.939 148.991 141.272 149.28 140.483C149.58 139.683 149.735 138.822 149.746 137.9L150.946 137.967C150.946 138.989 150.796 139.928 150.496 140.783L154.28 143.517L153.613 144.417L149.996 141.817ZM152.246 145.433C153.813 145.433 155.069 145.644 156.013 146.067C156.969 146.478 157.446 147.117 157.446 147.983C157.446 148.85 156.969 149.494 156.013 149.917C155.069 150.328 153.813 150.533 152.246 150.533C150.68 150.533 149.424 150.328 148.48 149.917C147.535 149.494 147.063 148.85 147.063 147.983C147.063 147.117 147.535 146.478 148.48 146.067C149.424 145.644 150.68 145.433 152.246 145.433ZM152.246 149.483C153.413 149.483 154.357 149.356 155.08 149.1C155.813 148.844 156.18 148.472 156.18 147.983C156.18 147.494 155.813 147.122 155.08 146.867C154.346 146.611 153.402 146.483 152.246 146.483C151.091 146.483 150.146 146.611 149.413 146.867C148.691 147.122 148.33 147.494 148.33 147.983C148.33 148.472 148.691 148.844 149.413 149.1C150.146 149.356 151.091 149.483 152.246 149.483ZM159.661 139.617V138.617H164.595V137.25H165.811V138.617H170.795V139.617H159.661ZM160.145 142.367C160.145 141.711 160.6 141.217 161.511 140.883C162.433 140.55 163.672 140.383 165.228 140.383C166.772 140.383 168 140.55 168.911 140.883C169.822 141.217 170.278 141.711 170.278 142.367C170.278 143.022 169.822 143.517 168.911 143.85C168 144.183 166.772 144.35 165.228 144.35C163.672 144.35 162.433 144.183 161.511 143.85C160.6 143.517 160.145 143.022 160.145 142.367ZM169.078 142.367C169.078 142.022 168.722 141.761 168.011 141.583C167.3 141.394 166.372 141.3 165.228 141.3C164.083 141.3 163.156 141.394 162.445 141.583C161.733 141.761 161.378 142.022 161.378 142.367C161.378 142.711 161.733 142.978 162.445 143.167C163.156 143.344 164.083 143.433 165.228 143.433C166.372 143.433 167.3 143.344 168.011 143.167C168.722 142.978 169.078 142.711 169.078 142.367ZM171.295 146.267H165.828V147.983H164.628V146.267H159.161V145.25H171.295V146.267ZM170.645 149.333V150.383H160.045V147.35H161.261V149.333H170.645ZM174.926 150.817C174.393 149.95 173.982 148.95 173.693 147.817C173.404 146.683 173.26 145.467 173.26 144.167C173.26 142.867 173.404 141.644 173.693 140.5C173.982 139.356 174.393 138.361 174.926 137.517H175.993C175.426 138.461 175.01 139.483 174.743 140.583C174.476 141.672 174.343 142.867 174.343 144.167C174.343 145.467 174.476 146.667 174.743 147.767C175.01 148.856 175.426 149.872 175.993 150.817H174.926ZM182.266 141.15C183.032 141.15 183.727 141.339 184.349 141.717C184.971 142.083 185.46 142.606 185.816 143.283C186.182 143.961 186.366 144.733 186.366 145.6C186.366 146.478 186.182 147.256 185.816 147.933C185.46 148.611 184.971 149.139 184.349 149.517C183.727 149.894 183.032 150.083 182.266 150.083C181.555 150.083 180.916 149.911 180.349 149.567C179.782 149.222 179.338 148.739 179.016 148.117V150H177.866V137.633H179.066V143.05C179.377 142.45 179.81 141.983 180.366 141.65C180.932 141.317 181.566 141.15 182.266 141.15ZM182.116 148.983C182.693 148.983 183.216 148.844 183.682 148.567C184.149 148.289 184.51 147.894 184.766 147.383C185.032 146.861 185.166 146.267 185.166 145.6C185.166 144.944 185.032 144.361 184.766 143.85C184.51 143.339 184.149 142.944 183.682 142.667C183.216 142.378 182.693 142.233 182.116 142.233C181.538 142.233 181.016 142.378 180.549 142.667C180.082 142.944 179.716 143.339 179.449 143.85C179.193 144.361 179.066 144.944 179.066 145.6C179.066 146.267 179.193 146.861 179.449 147.383C179.716 147.894 180.082 148.289 180.549 148.567C181.016 148.844 181.538 148.983 182.116 148.983ZM191.247 141.15C192.347 141.15 193.186 141.439 193.764 142.017C194.353 142.583 194.647 143.433 194.647 144.567V150H193.514V148.5C193.259 149 192.881 149.389 192.381 149.667C191.892 149.944 191.309 150.083 190.631 150.083C189.686 150.083 188.942 149.85 188.397 149.383C187.853 148.917 187.581 148.3 187.581 147.533C187.581 146.789 187.842 146.189 188.364 145.733C188.886 145.278 189.703 145.05 190.814 145.05H193.447C193.447 144.717 193.425 144.433 193.381 144.2C193.281 142.867 192.525 142.2 191.114 142.2C190.581 142.2 190.07 142.294 189.581 142.483C189.092 142.672 188.681 142.928 188.347 143.25L187.831 142.367C188.264 141.978 188.781 141.678 189.381 141.467C189.981 141.256 190.603 141.15 191.247 141.15ZM190.847 149.133C192.136 149.133 193.003 148.544 193.447 147.367V145.9H190.897C189.475 145.9 188.764 146.428 188.764 147.483C188.764 147.994 188.947 148.4 189.314 148.7C189.681 148.989 190.192 149.133 190.847 149.133ZM200.938 150.117C200.038 150.117 199.232 149.878 198.521 149.4C197.81 148.911 197.254 148.217 196.854 147.317C196.454 146.417 196.254 145.367 196.254 144.167C196.254 142.967 196.454 141.917 196.854 141.017C197.254 140.117 197.81 139.428 198.521 138.95C199.232 138.461 200.038 138.217 200.938 138.217C201.849 138.217 202.654 138.461 203.354 138.95C204.065 139.428 204.621 140.117 205.021 141.017C205.421 141.906 205.621 142.956 205.621 144.167C205.621 145.378 205.421 146.433 205.021 147.333C204.621 148.222 204.065 148.911 203.354 149.4C202.654 149.878 201.849 150.117 200.938 150.117ZM200.938 148.967C201.615 148.967 202.204 148.783 202.704 148.417C203.215 148.039 203.61 147.489 203.888 146.767C204.176 146.044 204.321 145.178 204.321 144.167C204.321 143.156 204.176 142.289 203.888 141.567C203.61 140.844 203.215 140.3 202.704 139.933C202.204 139.556 201.615 139.367 200.938 139.367C200.271 139.367 199.682 139.556 199.171 139.933C198.66 140.3 198.265 140.844 197.988 141.567C197.71 142.289 197.571 143.156 197.571 144.167C197.571 145.178 197.71 146.044 197.988 146.767C198.265 147.489 198.66 148.039 199.171 148.417C199.682 148.783 200.271 148.967 200.938 148.967ZM210.942 150.117C210.042 150.117 209.237 149.878 208.526 149.4C207.815 148.911 207.259 148.217 206.859 147.317C206.459 146.417 206.259 145.367 206.259 144.167C206.259 142.967 206.459 141.917 206.859 141.017C207.259 140.117 207.815 139.428 208.526 138.95C209.237 138.461 210.042 138.217 210.942 138.217C211.853 138.217 212.659 138.461 213.359 138.95C214.07 139.428 214.626 140.117 215.026 141.017C215.426 141.906 215.626 142.956 215.626 144.167C215.626 145.378 215.426 146.433 215.026 147.333C214.626 148.222 214.07 148.911 213.359 149.4C212.659 149.878 211.853 150.117 210.942 150.117ZM210.942 148.967C211.62 148.967 212.209 148.783 212.709 148.417C213.22 148.039 213.615 147.489 213.892 146.767C214.181 146.044 214.326 145.178 214.326 144.167C214.326 143.156 214.181 142.289 213.892 141.567C213.615 140.844 213.22 140.3 212.709 139.933C212.209 139.556 211.62 139.367 210.942 139.367C210.276 139.367 209.687 139.556 209.176 139.933C208.665 140.3 208.27 140.844 207.992 141.567C207.715 142.289 207.576 143.156 207.576 144.167C207.576 145.178 207.715 146.044 207.992 146.767C208.27 147.489 208.665 148.039 209.176 148.417C209.687 148.783 210.276 148.967 210.942 148.967ZM222.097 150H220.814V139.433H218.081V138.333H222.097V150ZM230.469 138.217C232.013 138.217 233.202 138.728 234.035 139.75C234.869 140.772 235.285 142.211 235.285 144.067C235.285 145.367 235.063 146.472 234.619 147.383C234.174 148.283 233.547 148.967 232.735 149.433C231.935 149.889 230.997 150.117 229.919 150.117C228.763 150.117 227.83 149.894 227.119 149.45L227.635 148.45C228.18 148.806 228.935 148.983 229.902 148.983C231.102 148.983 232.058 148.622 232.769 147.9C233.48 147.167 233.869 146.1 233.935 144.7L233.952 144.15C233.952 143.817 233.93 143.5 233.885 143.2C233.63 143.878 233.191 144.406 232.569 144.783C231.947 145.15 231.219 145.333 230.385 145.333C229.619 145.333 228.935 145.189 228.335 144.9C227.747 144.611 227.285 144.206 226.952 143.683C226.619 143.15 226.452 142.533 226.452 141.833C226.452 141.111 226.624 140.478 226.969 139.933C227.324 139.389 227.808 138.967 228.419 138.667C229.03 138.367 229.713 138.217 230.469 138.217ZM230.619 144.3C231.185 144.3 231.691 144.189 232.135 143.967C232.591 143.744 232.941 143.439 233.185 143.05C233.43 142.661 233.552 142.233 233.552 141.767C233.552 141.333 233.435 140.928 233.202 140.55C232.969 140.161 232.619 139.85 232.152 139.617C231.697 139.383 231.152 139.267 230.519 139.267C229.685 139.267 229.013 139.494 228.502 139.95C227.991 140.406 227.735 141.011 227.735 141.767C227.735 142.544 227.991 143.161 228.502 143.617C229.024 144.072 229.73 144.3 230.619 144.3ZM240.474 138.217C242.018 138.217 243.207 138.728 244.04 139.75C244.874 140.772 245.29 142.211 245.29 144.067C245.29 145.367 245.068 146.472 244.624 147.383C244.179 148.283 243.551 148.967 242.74 149.433C241.94 149.889 241.001 150.117 239.924 150.117C238.768 150.117 237.835 149.894 237.124 149.45L237.64 148.45C238.185 148.806 238.94 148.983 239.907 148.983C241.107 148.983 242.063 148.622 242.774 147.9C243.485 147.167 243.874 146.1 243.94 144.7L243.957 144.15C243.957 143.817 243.935 143.5 243.89 143.2C243.635 143.878 243.196 144.406 242.574 144.783C241.951 145.15 241.224 145.333 240.39 145.333C239.624 145.333 238.94 145.189 238.34 144.9C237.751 144.611 237.29 144.206 236.957 143.683C236.624 143.15 236.457 142.533 236.457 141.833C236.457 141.111 236.629 140.478 236.974 139.933C237.329 139.389 237.813 138.967 238.424 138.667C239.035 138.367 239.718 138.217 240.474 138.217ZM240.624 144.3C241.19 144.3 241.696 144.189 242.14 143.967C242.596 143.744 242.946 143.439 243.19 143.05C243.435 142.661 243.557 142.233 243.557 141.767C243.557 141.333 243.44 140.928 243.207 140.55C242.974 140.161 242.624 139.85 242.157 139.617C241.701 139.383 241.157 139.267 240.524 139.267C239.69 139.267 239.018 139.494 238.507 139.95C237.996 140.406 237.74 141.011 237.74 141.767C237.74 142.544 237.996 143.161 238.507 143.617C239.029 144.072 239.735 144.3 240.624 144.3ZM254.629 138.233C256.117 138.233 257.445 138.544 258.612 139.167C259.79 139.789 260.706 140.656 261.362 141.767C262.017 142.878 262.345 144.144 262.345 145.567C262.345 146.511 262.229 147.322 261.995 148C261.762 148.678 261.434 149.194 261.012 149.55C260.601 149.894 260.123 150.067 259.579 150.067C259.079 150.067 258.662 149.933 258.329 149.667C258.006 149.4 257.812 149.033 257.745 148.567C257.745 148.444 257.734 148.261 257.712 148.017C257.401 148.661 256.945 149.167 256.345 149.533C255.745 149.889 255.062 150.067 254.295 150.067C253.54 150.067 252.851 149.883 252.229 149.517C251.606 149.15 251.117 148.639 250.762 147.983C250.406 147.328 250.229 146.583 250.229 145.75C250.229 144.928 250.406 144.194 250.762 143.55C251.117 142.894 251.606 142.383 252.229 142.017C252.851 141.65 253.54 141.467 254.295 141.467C255.04 141.467 255.701 141.639 256.279 141.983C256.856 142.317 257.306 142.789 257.629 143.4V141.55H258.745V147.883C258.745 148.306 258.834 148.617 259.012 148.817C259.201 149.006 259.451 149.1 259.762 149.1C260.273 149.1 260.679 148.794 260.979 148.183C261.29 147.572 261.445 146.706 261.445 145.583C261.445 144.306 261.156 143.178 260.579 142.2C260.001 141.211 259.195 140.45 258.162 139.917C257.129 139.372 255.951 139.1 254.629 139.1C253.284 139.1 252.09 139.383 251.045 139.95C250.012 140.506 249.206 141.289 248.629 142.3C248.051 143.311 247.762 144.461 247.762 145.75C247.762 147.05 248.045 148.211 248.612 149.233C249.19 150.244 249.99 151.033 251.012 151.6C252.045 152.167 253.229 152.45 254.562 152.45C255.095 152.45 255.645 152.389 256.212 152.267C256.779 152.144 257.29 151.961 257.745 151.717L258.079 152.55C257.59 152.806 257.029 153 256.395 153.133C255.762 153.267 255.151 153.333 254.562 153.333C253.051 153.333 251.706 153.011 250.529 152.367C249.351 151.722 248.434 150.828 247.779 149.683C247.123 148.528 246.795 147.217 246.795 145.75C246.795 144.294 247.123 143 247.779 141.867C248.445 140.722 249.373 139.833 250.562 139.2C251.751 138.556 253.106 138.233 254.629 138.233ZM254.495 149.067C255.095 149.067 255.629 148.928 256.095 148.65C256.573 148.372 256.945 147.983 257.212 147.483C257.49 146.983 257.629 146.406 257.629 145.75C257.629 145.106 257.49 144.533 257.212 144.033C256.945 143.533 256.573 143.15 256.095 142.883C255.629 142.606 255.095 142.467 254.495 142.467C253.895 142.467 253.356 142.606 252.879 142.883C252.412 143.15 252.045 143.533 251.779 144.033C251.512 144.533 251.379 145.106 251.379 145.75C251.379 146.406 251.512 146.983 251.779 147.483C252.045 147.983 252.412 148.372 252.879 148.65C253.356 148.928 253.895 149.067 254.495 149.067ZM268.707 141.15C269.752 141.15 270.579 141.472 271.19 142.117C271.802 142.75 272.107 143.678 272.107 144.9V150H270.907V145.05C270.907 144.139 270.69 143.45 270.257 142.983C269.835 142.506 269.229 142.267 268.44 142.267C267.563 142.267 266.863 142.55 266.34 143.117C265.829 143.672 265.574 144.433 265.574 145.4V150H264.374V141.233H265.524V142.933C265.824 142.378 266.246 141.944 266.79 141.633C267.335 141.311 267.974 141.15 268.707 141.15ZM277.292 141.15C278.392 141.15 279.231 141.439 279.809 142.017C280.398 142.583 280.692 143.433 280.692 144.567V150H279.559V148.5C279.303 149 278.926 149.389 278.426 149.667C277.937 149.944 277.353 150.083 276.676 150.083C275.731 150.083 274.987 149.85 274.442 149.383C273.898 148.917 273.626 148.3 273.626 147.533C273.626 146.789 273.887 146.189 274.409 145.733C274.931 145.278 275.748 145.05 276.859 145.05H279.492C279.492 144.717 279.47 144.433 279.426 144.2C279.326 142.867 278.57 142.2 277.159 142.2C276.626 142.2 276.115 142.294 275.626 142.483C275.137 142.672 274.726 142.928 274.392 143.25L273.876 142.367C274.309 141.978 274.826 141.678 275.426 141.467C276.026 141.256 276.648 141.15 277.292 141.15ZM276.892 149.133C278.181 149.133 279.048 148.544 279.492 147.367V145.9H276.942C275.52 145.9 274.809 146.428 274.809 147.483C274.809 147.994 274.992 148.4 275.359 148.7C275.726 148.989 276.237 149.133 276.892 149.133ZM286.379 150H285.179L281.462 141.233H282.712L285.812 148.583L288.912 141.233H290.096L286.379 150ZM298.605 145.933H291.655C291.711 146.856 292.033 147.6 292.622 148.167C293.222 148.722 293.977 149 294.889 149C295.411 149 295.889 148.906 296.322 148.717C296.766 148.528 297.133 148.244 297.422 147.867L298.105 148.633C297.716 149.111 297.244 149.472 296.689 149.717C296.133 149.961 295.527 150.083 294.872 150.083C294.016 150.083 293.25 149.894 292.572 149.517C291.905 149.128 291.383 148.594 291.005 147.917C290.639 147.239 290.455 146.467 290.455 145.6C290.455 144.744 290.633 143.983 290.989 143.317C291.344 142.639 291.833 142.111 292.455 141.733C293.089 141.344 293.789 141.15 294.555 141.15C295.322 141.15 296.011 141.339 296.622 141.717C297.244 142.083 297.733 142.6 298.089 143.267C298.444 143.933 298.622 144.7 298.622 145.567L298.605 145.933ZM294.572 142.167C293.772 142.167 293.1 142.439 292.555 142.983C292.022 143.517 291.722 144.217 291.655 145.083H297.489C297.411 144.228 297.1 143.528 296.555 142.983C296.022 142.439 295.361 142.167 294.572 142.167ZM301.667 142.967C301.934 142.367 302.334 141.911 302.867 141.6C303.4 141.289 304.039 141.139 304.784 141.15V142.35C304.717 142.339 304.617 142.333 304.484 142.333C303.617 142.333 302.939 142.611 302.45 143.167C301.962 143.722 301.717 144.506 301.717 145.517V150H300.517V141.233H301.667V142.967ZM306.295 150.1C306.039 150.1 305.817 150.011 305.628 149.833C305.451 149.656 305.362 149.433 305.362 149.167C305.362 148.9 305.451 148.683 305.628 148.517C305.806 148.339 306.028 148.25 306.295 148.25C306.562 148.25 306.784 148.339 306.962 148.517C307.139 148.683 307.228 148.9 307.228 149.167C307.228 149.433 307.134 149.656 306.945 149.833C306.767 150.011 306.551 150.1 306.295 150.1ZM312.938 150.083C312.116 150.083 311.371 149.894 310.705 149.517C310.049 149.128 309.532 148.594 309.155 147.917C308.788 147.239 308.605 146.467 308.605 145.6C308.605 144.744 308.788 143.978 309.155 143.3C309.532 142.622 310.049 142.094 310.705 141.717C311.371 141.339 312.116 141.15 312.938 141.15C313.66 141.15 314.31 141.3 314.888 141.6C315.466 141.9 315.921 142.339 316.255 142.917L315.321 143.517C315.044 143.094 314.694 142.778 314.271 142.567C313.86 142.344 313.41 142.233 312.921 142.233C312.332 142.233 311.799 142.372 311.321 142.65C310.855 142.928 310.488 143.322 310.221 143.833C309.955 144.344 309.821 144.933 309.821 145.6C309.821 146.278 309.955 146.872 310.221 147.383C310.488 147.894 310.855 148.289 311.321 148.567C311.799 148.844 312.332 148.983 312.921 148.983C313.421 148.983 313.877 148.878 314.288 148.667C314.699 148.456 315.044 148.133 315.321 147.7L316.255 148.317C315.91 148.883 315.449 149.322 314.871 149.633C314.305 149.933 313.66 150.083 312.938 150.083ZM321.472 150.083C320.661 150.083 319.927 149.894 319.272 149.517C318.627 149.128 318.116 148.594 317.739 147.917C317.372 147.239 317.189 146.467 317.189 145.6C317.189 144.744 317.372 143.978 317.739 143.3C318.116 142.622 318.627 142.094 319.272 141.717C319.927 141.339 320.661 141.15 321.472 141.15C322.272 141.15 322.994 141.339 323.639 141.717C324.294 142.094 324.805 142.622 325.172 143.3C325.539 143.978 325.722 144.744 325.722 145.6C325.722 146.467 325.539 147.239 325.172 147.917C324.805 148.594 324.294 149.128 323.639 149.517C322.994 149.894 322.272 150.083 321.472 150.083ZM321.472 148.983C322.05 148.983 322.566 148.844 323.022 148.567C323.489 148.289 323.855 147.894 324.122 147.383C324.389 146.861 324.522 146.267 324.522 145.6C324.522 144.944 324.389 144.361 324.122 143.85C323.855 143.339 323.489 142.944 323.022 142.667C322.566 142.378 322.05 142.233 321.472 142.233C320.883 142.233 320.355 142.378 319.889 142.667C319.433 142.944 319.072 143.339 318.805 143.85C318.539 144.361 318.405 144.944 318.405 145.6C318.405 146.267 318.533 146.861 318.789 147.383C319.055 147.894 319.422 148.289 319.889 148.567C320.355 148.844 320.883 148.983 321.472 148.983ZM337.917 141.15C338.95 141.15 339.761 141.472 340.35 142.117C340.95 142.75 341.25 143.678 341.25 144.9V150H340.067V145.05C340.067 144.139 339.861 143.45 339.45 142.983C339.039 142.506 338.456 142.267 337.7 142.267C336.856 142.267 336.183 142.544 335.683 143.1C335.183 143.656 334.933 144.417 334.933 145.383V150H333.75V145.05C333.75 144.139 333.544 143.45 333.133 142.983C332.733 142.506 332.161 142.267 331.417 142.267C330.561 142.267 329.883 142.544 329.383 143.1C328.894 143.656 328.65 144.417 328.65 145.383V150H327.45V141.233H328.6V142.917C328.889 142.361 329.294 141.928 329.817 141.617C330.35 141.306 330.967 141.15 331.667 141.15C332.389 141.15 333.006 141.322 333.517 141.667C334.039 142.011 334.417 142.511 334.65 143.167C334.928 142.544 335.35 142.056 335.917 141.7C336.494 141.333 337.161 141.15 337.917 141.15ZM342.953 150.817C343.52 149.872 343.931 148.85 344.187 147.75C344.453 146.65 344.587 145.456 344.587 144.167C344.587 142.878 344.453 141.683 344.187 140.583C343.931 139.483 343.52 138.461 342.953 137.517H344.003C344.537 138.361 344.942 139.356 345.22 140.5C345.509 141.633 345.653 142.856 345.653 144.167C345.653 145.467 345.509 146.683 345.22 147.817C344.942 148.95 344.537 149.95 344.003 150.817H342.953ZM1.3 168.433V167.25H11.8167V175.7H10.5833V168.433H1.3ZM12.6667 178.917H0.533333V177.733H5.18333V171.867H6.41667V177.733H12.6667V178.917ZM25.3649 174.667H24.1982V170.95H21.9316V174.533H20.7816V166.833H21.9316V169.767H24.1982V166.767H25.3649V174.667ZM19.2316 169.2C19.2316 170.233 19.0038 171.122 18.5482 171.867C18.1038 172.611 17.4871 173.183 16.6982 173.583C15.9205 173.972 15.0371 174.172 14.0482 174.183V173.067C14.8371 173.056 15.5316 172.9 16.1316 172.6C16.7427 172.3 17.2149 171.867 17.5482 171.3C17.8927 170.722 18.0649 170.039 18.0649 169.25V168.2H14.0482V167.117H19.2316V169.2ZM25.3649 175.417V179.533H24.1649V176.517H14.7316V175.417H25.3649ZM37.4132 176.4V166.767H38.5632V176.4H37.4132ZM32.1465 170.433V169.267H34.4132V166.833H35.5632V176.167H34.4132V170.433H32.1465ZM30.0465 171.65C29.402 173.272 28.3687 174.239 26.9465 174.55V173.367C27.9132 173.067 28.6076 172.344 29.0298 171.2C29.452 170.056 29.6632 168.628 29.6632 166.917L30.8298 166.95C30.8298 168.317 30.7076 169.483 30.4632 170.45L33.4632 173.583L32.6632 174.417L30.0465 171.65ZM38.8965 179.367H28.0298V175.45H29.2632V178.217H38.8965V179.367ZM51.5114 179.567H50.3114V173.267H47.9447V172.083H50.3114V166.767H51.5114V179.567ZM45.4614 177.6C46.0392 177.6 46.6169 177.544 47.1947 177.433C47.7725 177.322 48.2447 177.172 48.6114 176.983V178.15C48.2447 178.35 47.7781 178.506 47.2114 178.617C46.6447 178.717 46.0614 178.767 45.4614 178.767H40.8114V167.267H47.7614V168.433H42.0114V172.333H47.0614V173.483H42.0114V177.6H45.4614ZM57.8722 170.533C57.6055 170.533 57.3833 170.444 57.2055 170.267C57.0278 170.089 56.9389 169.867 56.9389 169.6C56.9389 169.333 57.0278 169.117 57.2055 168.95C57.3833 168.772 57.6055 168.683 57.8722 168.683C58.1389 168.683 58.3611 168.772 58.5389 168.95C58.7166 169.117 58.8055 169.333 58.8055 169.6C58.8055 169.867 58.7166 170.089 58.5389 170.267C58.3611 170.444 58.1389 170.533 57.8722 170.533ZM57.8722 177.65C57.6166 177.65 57.3944 177.561 57.2055 177.383C57.0278 177.206 56.9389 176.983 56.9389 176.717C56.9389 176.45 57.0278 176.228 57.2055 176.05C57.3944 175.872 57.6166 175.783 57.8722 175.783C58.1278 175.783 58.3444 175.872 58.5222 176.05C58.7111 176.228 58.8055 176.45 58.8055 176.717C58.8055 176.983 58.7111 177.206 58.5222 177.383C58.3444 177.561 58.1278 177.65 57.8722 177.65ZM69.0943 179H67.811V168.433H65.0777V167.333H69.0943V179ZM77.1992 172.1C80.4326 172.1 82.0492 173.256 82.0492 175.567C82.0492 176.244 81.8881 176.85 81.5659 177.383C81.2548 177.917 80.777 178.339 80.1326 178.65C79.4992 178.961 78.7159 179.117 77.7826 179.117C76.9381 179.117 76.1381 178.978 75.3826 178.7C74.627 178.422 74.027 178.056 73.5826 177.6L74.1826 176.617C74.5492 177.017 75.0492 177.344 75.6826 177.6C76.327 177.844 77.0214 177.967 77.7659 177.967C78.7214 177.967 79.4548 177.75 79.9659 177.317C80.4881 176.883 80.7492 176.311 80.7492 175.6C80.7492 174.811 80.4603 174.217 79.8826 173.817C79.3048 173.417 78.3159 173.217 76.9159 173.217H74.3992L75.0159 167.333H81.4159V168.433H76.0992L75.6992 172.1H77.1992ZM87.2041 172.1C90.4374 172.1 92.0541 173.256 92.0541 175.567C92.0541 176.244 91.893 176.85 91.5708 177.383C91.2597 177.917 90.7819 178.339 90.1374 178.65C89.5041 178.961 88.7208 179.117 87.7874 179.117C86.943 179.117 86.143 178.978 85.3874 178.7C84.6319 178.422 84.0319 178.056 83.5874 177.6L84.1874 176.617C84.5541 177.017 85.0541 177.344 85.6874 177.6C86.3319 177.844 87.0263 177.967 87.7708 177.967C88.7263 177.967 89.4597 177.75 89.9708 177.317C90.493 176.883 90.7541 176.311 90.7541 175.6C90.7541 174.811 90.4652 174.217 89.8874 173.817C89.3097 173.417 88.3208 173.217 86.9208 173.217H84.4041L85.0208 167.333H91.4208V168.433H86.1041L85.7041 172.1H87.2041ZM99.109 179H97.8257V168.433H95.0923V167.333H99.109V179ZM108.364 172.633V173.7H103.947V172.633H108.364ZM115.208 179H113.924V168.433H111.191V167.333H115.208V179ZM123.312 172.1C126.546 172.1 128.163 173.256 128.163 175.567C128.163 176.244 128.001 176.85 127.679 177.383C127.368 177.917 126.89 178.339 126.246 178.65C125.613 178.961 124.829 179.117 123.896 179.117C123.051 179.117 122.251 178.978 121.496 178.7C120.74 178.422 120.14 178.056 119.696 177.6L120.296 176.617C120.663 177.017 121.163 177.344 121.796 177.6C122.44 177.844 123.135 177.967 123.879 177.967C124.835 177.967 125.568 177.75 126.079 177.317C126.601 176.883 126.863 176.311 126.863 175.6C126.863 174.811 126.574 174.217 125.996 173.817C125.418 173.417 124.429 173.217 123.029 173.217H120.513L121.129 167.333H127.529V168.433H122.213L121.813 172.1H123.312ZM134.217 172.333C135.44 172.389 136.367 172.717 137.001 173.317C137.645 173.906 137.967 174.683 137.967 175.65C137.967 176.317 137.806 176.911 137.484 177.433C137.162 177.956 136.678 178.367 136.034 178.667C135.401 178.967 134.628 179.117 133.717 179.117C132.862 179.117 132.056 178.983 131.301 178.717C130.556 178.439 129.962 178.067 129.517 177.6L130.084 176.617C130.473 177.017 130.984 177.344 131.617 177.6C132.262 177.844 132.951 177.967 133.684 177.967C134.64 177.967 135.373 177.761 135.884 177.35C136.406 176.939 136.667 176.372 136.667 175.65C136.667 174.917 136.412 174.35 135.901 173.95C135.39 173.55 134.606 173.35 133.551 173.35H132.701V172.45L135.901 168.433H129.984V167.333H137.501V168.2L134.217 172.333ZM145.222 179H143.939V168.433H141.206V167.333H145.222V179Z" fill="white"/>
</svg>
