<svg width="871" height="230" viewBox="0 0 871 230" fill="none" xmlns="http://www.w3.org/2000/svg">
<path d="M11.4833 57.2667V63.5667H10.2833V50.7667H11.4833V56.0667H13.25V57.2667H11.4833ZM5.7 51.1333C5.67778 53.2222 5.51667 55.0111 5.21667 56.5L9.13333 62.0167L8.15 62.7333L4.81667 57.9833C4.40556 59.4167 3.84444 60.55 3.13333 61.3833C2.42222 62.2056 1.6 62.6667 0.666667 62.7667V61.5167C1.47778 61.3722 2.16667 60.8222 2.73333 59.8667C3.31111 58.9111 3.74444 57.6722 4.03333 56.15C4.32222 54.6278 4.47222 52.9444 4.48333 51.1L5.7 51.1333ZM23.8149 63.5667V50.7667H25.0316V63.5667H23.8149ZM17.9482 51.1C19.0594 51.1 19.9427 51.6 20.5982 52.6C21.2649 53.6 21.5982 55.0722 21.5982 57.0167C21.5982 58.9611 21.2649 60.4333 20.5982 61.4333C19.9427 62.4333 19.0594 62.9333 17.9482 62.9333C16.8371 62.9333 15.9482 62.4333 15.2816 61.4333C14.626 60.4333 14.2982 58.9611 14.2982 57.0167C14.2982 55.0722 14.626 53.6 15.2816 52.6C15.9482 51.6 16.8371 51.1 17.9482 51.1ZM17.9482 52.25C17.2038 52.25 16.6094 52.65 16.1649 53.45C15.7205 54.2389 15.4982 55.4278 15.4982 57.0167C15.4982 58.6167 15.7205 59.8111 16.1649 60.6C16.6094 61.3889 17.2038 61.7833 17.9482 61.7833C18.6705 61.7833 19.2594 61.3889 19.7149 60.6C20.1705 59.8 20.3982 58.6056 20.3982 57.0167C20.3982 55.4389 20.1705 54.25 19.7149 53.45C19.2594 52.65 18.6705 52.25 17.9482 52.25ZM27.7965 59.3667V51.2667H38.2298V52.4H28.9798V54.7667H38.0965V55.85H28.9798V58.25H38.4298V59.3667H27.7965ZM39.0632 62.9167H26.9298V61.75H39.0632V62.9167ZM48.1947 56.1333V55H50.3281V53.1H48.1947V51.9833H50.3281V50.7667H51.5114V57.85H50.3281V56.1333H48.1947ZM40.6947 57.05V51.1167H47.4447V57.05H40.6947ZM41.8614 52.2V55.9667H46.2447V52.2H41.8614ZM46.4114 58.3167C47.9892 58.3167 49.2503 58.5333 50.1947 58.9667C51.1503 59.3889 51.6281 60.0444 51.6281 60.9333C51.6281 61.8222 51.1503 62.4778 50.1947 62.9C49.2503 63.3222 47.9892 63.5333 46.4114 63.5333C44.8447 63.5333 43.5892 63.3222 42.6447 62.9C41.7003 62.4778 41.2281 61.8222 41.2281 60.9333C41.2281 60.0444 41.7003 59.3889 42.6447 58.9667C43.5892 58.5333 44.8447 58.3167 46.4114 58.3167ZM46.4114 62.4833C47.5669 62.4833 48.5114 62.35 49.2447 62.0833C49.9781 61.8167 50.3447 61.4333 50.3447 60.9333C50.3447 60.4222 49.9781 60.0333 49.2447 59.7667C48.5114 59.5 47.5669 59.3667 46.4114 59.3667C45.2558 59.3667 44.3114 59.5 43.5781 59.7667C42.8558 60.0333 42.4947 60.4222 42.4947 60.9333C42.4947 61.4333 42.8558 61.8167 43.5781 62.0833C44.3114 62.35 45.2558 62.4833 46.4114 62.4833ZM57.8722 54.5333C57.6055 54.5333 57.3833 54.4444 57.2055 54.2667C57.0278 54.0889 56.9389 53.8667 56.9389 53.6C56.9389 53.3333 57.0278 53.1167 57.2055 52.95C57.3833 52.7722 57.6055 52.6833 57.8722 52.6833C58.1389 52.6833 58.3611 52.7722 58.5389 52.95C58.7166 53.1167 58.8055 53.3333 58.8055 53.6C58.8055 53.8667 58.7166 54.0889 58.5389 54.2667C58.3611 54.4444 58.1389 54.5333 57.8722 54.5333ZM57.8722 61.65C57.6166 61.65 57.3944 61.5611 57.2055 61.3833C57.0278 61.2056 56.9389 60.9833 56.9389 60.7167C56.9389 60.45 57.0278 60.2278 57.2055 60.05C57.3944 59.8722 57.6166 59.7833 57.8722 59.7833C58.1278 59.7833 58.3444 59.8722 58.5222 60.05C58.7111 60.2278 58.8055 60.45 58.8055 60.7167C58.8055 60.9833 58.7111 61.2056 58.5222 61.3833C58.3444 61.5611 58.1278 61.65 57.8722 61.65ZM65.711 59.9667V63H64.4777V51.3333H65.711V58.3333L72.161 51.3333H73.5943L68.7777 56.6167L73.911 63H72.4443L67.961 57.5333L65.711 59.9667ZM73.8479 52.45V51.3333H82.8645V52.45H78.9645V63H77.7479V52.45H73.8479ZM94.1445 57.2667V63.5667H92.9445V50.7667H94.1445V56.0667H95.9111V57.2667H94.1445ZM90.5111 51.1667V62.7667H83.8111V51.1667H85.0111V55.7167H89.3278V51.1667H90.5111ZM89.3278 56.8667H85.0111V61.6H89.3278V56.8667ZM108.526 62.9167H96.3927V61.7667H101.826V59.1333H97.2594V54.6333H106.509V52.4H97.2427V51.2667H107.709V55.7333H98.4427V58H107.893V59.1333H103.026V61.7667H108.526V62.9167ZM120.541 55.0167H122.308V56.1H120.541V57.4333H119.341V50.7667H120.541V52.0333H122.308V53.1333H120.541V55.0167ZM113.641 54.5333C113.219 55.2556 112.663 55.85 111.974 56.3167C111.297 56.7833 110.519 57.0889 109.641 57.2333V56.0833C110.419 55.9278 111.091 55.6056 111.658 55.1167C112.224 54.6167 112.658 54.0056 112.958 53.2833C113.269 52.55 113.419 51.7556 113.408 50.9L114.624 50.9667C114.624 51.8556 114.474 52.7222 114.174 53.5667L118.058 56.1667L117.424 57.0833L113.641 54.5333ZM120.541 58.0167V63.3667H110.458V58.0167H111.658V59.55H119.358V58.0167H120.541ZM119.358 60.5833H111.658V62.3167H119.358V60.5833ZM128.602 50.6333V66.2167H127.418V50.6333H128.602ZM145.936 63.5667H144.786V57.2H142.586V63.35H141.453V50.8333H142.586V56.0167H144.786V50.7667H145.936V63.5667ZM137.653 61.6333C138.175 61.6333 138.686 61.5889 139.186 61.5C139.686 61.4111 140.12 61.2889 140.486 61.1333V62.25C140.12 62.4167 139.675 62.5444 139.153 62.6333C138.631 62.7222 138.081 62.7667 137.503 62.7667H134.72V51.2667H139.97V52.4H135.886V61.6333H137.653ZM159.634 62.9167H147.501V61.7667H150.618V58.5667H148.151V57.4167H150.368V52.5167H148.268V51.3667H158.851V52.5167H156.768V57.4167H158.984V58.5667H156.518V61.7667H159.634V62.9167ZM155.568 57.4167V52.5167H151.568V57.4167H155.568ZM155.301 61.7667V58.5667H151.818V61.7667H155.301ZM171.649 57.2667V63.5667H170.449V50.7667H171.649V56.0667H173.416V57.2667H171.649ZM165.599 52.4333C165.577 54.0444 165.455 55.4667 165.233 56.7L169.216 61.9167L168.266 62.65L164.849 58.1333C164.449 59.5 163.91 60.5833 163.233 61.3833C162.555 62.1722 161.766 62.6333 160.866 62.7667V61.5167C161.588 61.3611 162.21 60.8778 162.733 60.0667C163.255 59.2444 163.655 58.1778 163.933 56.8667C164.222 55.5556 164.377 54.0778 164.399 52.4333H161.133V51.2667H168.783V52.4333H165.599ZM178.443 54.5333C178.177 54.5333 177.955 54.4444 177.777 54.2667C177.599 54.0889 177.51 53.8667 177.51 53.6C177.51 53.3333 177.599 53.1167 177.777 52.95C177.955 52.7722 178.177 52.6833 178.443 52.6833C178.71 52.6833 178.932 52.7722 179.11 52.95C179.288 53.1167 179.377 53.3333 179.377 53.6C179.377 53.8667 179.288 54.0889 179.11 54.2667C178.932 54.4444 178.71 54.5333 178.443 54.5333ZM178.443 61.65C178.188 61.65 177.966 61.5611 177.777 61.3833C177.599 61.2056 177.51 60.9833 177.51 60.7167C177.51 60.45 177.599 60.2278 177.777 60.05C177.966 59.8722 178.188 59.7833 178.443 59.7833C178.699 59.7833 178.916 59.8722 179.093 60.05C179.282 60.2278 179.377 60.45 179.377 60.7167C179.377 60.9833 179.282 61.2056 179.093 61.3833C178.916 61.5611 178.699 61.65 178.443 61.65ZM190.116 56.1833C188.56 56.1833 187.277 55.9556 186.266 55.5C185.255 55.0333 184.749 54.35 184.749 53.45C184.749 52.5611 185.255 51.8833 186.266 51.4167C187.288 50.9389 188.571 50.7 190.116 50.7C191.649 50.7 192.921 50.9389 193.932 51.4167C194.955 51.8833 195.466 52.5611 195.466 53.45C195.466 54.35 194.96 55.0333 193.949 55.5C192.938 55.9556 191.66 56.1833 190.116 56.1833ZM190.116 51.75C188.96 51.75 187.988 51.9 187.199 52.2C186.41 52.5 186.016 52.9167 186.016 53.45C186.016 53.9944 186.41 54.4167 187.199 54.7167C187.988 55.0056 188.96 55.15 190.116 55.15C191.271 55.15 192.238 55.0056 193.016 54.7167C193.805 54.4167 194.199 53.9944 194.199 53.45C194.199 52.9167 193.805 52.5 193.016 52.2C192.227 51.9 191.26 51.75 190.116 51.75ZM196.182 58.4H193.132V60.8H191.916V58.4H189.482V60.8H188.282V58.4H184.049V57.3333H196.182V58.4ZM195.532 62.3V63.3833H184.916V59.7667H186.116V62.3H195.532ZM204.347 54.1333V53H207.431V50.7667H208.631V57.9667H207.431V54.1333H204.347ZM201.281 54.8167C200.858 55.5833 200.308 56.2167 199.631 56.7167C198.953 57.2167 198.175 57.5333 197.297 57.6667V56.5167C198.064 56.3611 198.725 56.0167 199.281 55.4833C199.847 54.9389 200.275 54.2722 200.564 53.4833C200.864 52.6833 201.019 51.8222 201.031 50.9L202.231 50.9667C202.231 51.9889 202.081 52.9278 201.781 53.7833L205.564 56.5167L204.897 57.4167L201.281 54.8167ZM203.531 58.4333C205.097 58.4333 206.353 58.6444 207.297 59.0667C208.253 59.4778 208.731 60.1167 208.731 60.9833C208.731 61.85 208.253 62.4944 207.297 62.9167C206.353 63.3278 205.097 63.5333 203.531 63.5333C201.964 63.5333 200.708 63.3278 199.764 62.9167C198.819 62.4944 198.347 61.85 198.347 60.9833C198.347 60.1167 198.819 59.4778 199.764 59.0667C200.708 58.6444 201.964 58.4333 203.531 58.4333ZM203.531 62.4833C204.697 62.4833 205.642 62.3556 206.364 62.1C207.097 61.8444 207.464 61.4722 207.464 60.9833C207.464 60.4944 207.097 60.1222 206.364 59.8667C205.631 59.6111 204.686 59.4833 203.531 59.4833C202.375 59.4833 201.431 59.6111 200.697 59.8667C199.975 60.1222 199.614 60.4944 199.614 60.9833C199.614 61.4722 199.975 61.8444 200.697 62.1C201.431 62.3556 202.375 62.4833 203.531 62.4833ZM210.945 52.6167V51.6167H215.879V50.25H217.095V51.6167H222.079V52.6167H210.945ZM211.429 55.3667C211.429 54.7111 211.884 54.2167 212.795 53.8833C213.718 53.55 214.957 53.3833 216.512 53.3833C218.057 53.3833 219.284 53.55 220.195 53.8833C221.107 54.2167 221.562 54.7111 221.562 55.3667C221.562 56.0222 221.107 56.5167 220.195 56.85C219.284 57.1833 218.057 57.35 216.512 57.35C214.957 57.35 213.718 57.1833 212.795 56.85C211.884 56.5167 211.429 56.0222 211.429 55.3667ZM220.362 55.3667C220.362 55.0222 220.007 54.7611 219.295 54.5833C218.584 54.3944 217.657 54.3 216.512 54.3C215.368 54.3 214.44 54.3944 213.729 54.5833C213.018 54.7611 212.662 55.0222 212.662 55.3667C212.662 55.7111 213.018 55.9778 213.729 56.1667C214.44 56.3444 215.368 56.4333 216.512 56.4333C217.657 56.4333 218.584 56.3444 219.295 56.1667C220.007 55.9778 220.362 55.7111 220.362 55.3667ZM222.579 59.2667H217.112V60.9833H215.912V59.2667H210.445V58.25H222.579V59.2667ZM221.929 62.3333V63.3833H211.329V60.35H212.545V62.3333H221.929ZM11.4833 86.2667V92.5667H10.2833V79.7667H11.4833V85.0667H13.25V86.2667H11.4833ZM5.7 80.1333C5.67778 82.2222 5.51667 84.0111 5.21667 85.5L9.13333 91.0167L8.15 91.7333L4.81667 86.9833C4.40556 88.4167 3.84444 89.55 3.13333 90.3833C2.42222 91.2056 1.6 91.6667 0.666667 91.7667V90.5167C1.47778 90.3722 2.16667 89.8222 2.73333 88.8667C3.31111 87.9111 3.74444 86.6722 4.03333 85.15C4.32222 83.6278 4.47222 81.9444 4.48333 80.1L5.7 80.1333ZM25.1149 86.4333H23.9149V83.6H21.2649C21.1427 84.3889 20.7594 85.0222 20.1149 85.5C19.4705 85.9778 18.6371 86.2167 17.6149 86.2167C16.8594 86.2167 16.1982 86.0833 15.6316 85.8167C15.076 85.55 14.6427 85.1778 14.3316 84.7C14.0316 84.2222 13.8816 83.6778 13.8816 83.0667C13.8816 82.4667 14.0316 81.9278 14.3316 81.45C14.6427 80.9722 15.076 80.6 15.6316 80.3333C16.1982 80.0667 16.8594 79.9333 17.6149 79.9333C18.6038 79.9333 19.4205 80.1611 20.0649 80.6167C20.7094 81.0722 21.1038 81.6778 21.2482 82.4333H23.9149V79.7667H25.1149V86.4333ZM17.6149 85.15C18.3705 85.15 18.9816 84.9667 19.4482 84.6C19.9149 84.2222 20.1482 83.7111 20.1482 83.0667C20.1482 82.4333 19.9149 81.9333 19.4482 81.5667C18.9816 81.1889 18.3705 81 17.6149 81C16.8594 81 16.2482 81.1889 15.7816 81.5667C15.3149 81.9333 15.0816 82.4333 15.0816 83.0667C15.0816 83.7111 15.3149 84.2222 15.7816 84.6C16.2482 84.9667 16.8594 85.15 17.6149 85.15ZM25.1149 87.0167V92.3667H15.0149V87.0167H16.1982V88.5333H23.9316V87.0167H25.1149ZM23.9316 89.5667H16.1982V91.3167H23.9316V89.5667ZM37.8798 86.2667V92.5667H36.6798V79.7667H37.8798V85.0667H39.6465V86.2667H37.8798ZM31.8298 81.4333C31.8076 83.0444 31.6854 84.4667 31.4632 85.7L35.4465 90.9167L34.4965 91.65L31.0798 87.1333C30.6798 88.5 30.1409 89.5833 29.4632 90.3833C28.7854 91.1722 27.9965 91.6333 27.0965 91.7667V90.5167C27.8187 90.3611 28.4409 89.8778 28.9632 89.0667C29.4854 88.2444 29.8854 87.1778 30.1632 85.8667C30.452 84.5556 30.6076 83.0778 30.6298 81.4333H27.3632V80.2667H35.0132V81.4333H31.8298ZM42.2447 80.9833V83.25H51.4947V84.2833H41.0447V79.95H51.3614V80.9833H42.2447ZM40.1281 86.7V85.6667H52.2614V86.7H40.1281ZM46.1947 87.9667C47.7725 87.9667 49.0503 88.15 50.0281 88.5167C51.0169 88.8722 51.5114 89.4556 51.5114 90.2667C51.5114 91.0778 51.0169 91.6667 50.0281 92.0333C49.0503 92.4 47.7725 92.5833 46.1947 92.5833C44.6169 92.5833 43.3336 92.4 42.3447 92.0333C41.3669 91.6667 40.8781 91.0778 40.8781 90.2667C40.8781 89.4556 41.3669 88.8722 42.3447 88.5167C43.3336 88.15 44.6169 87.9667 46.1947 87.9667ZM46.1947 88.9833C45.0503 88.9833 44.0836 89.0889 43.2947 89.3C42.5169 89.5 42.1281 89.8222 42.1281 90.2667C42.1281 90.7222 42.5169 91.0556 43.2947 91.2667C44.0725 91.4667 45.0392 91.5667 46.1947 91.5667C47.3392 91.5667 48.3003 91.4667 49.0781 91.2667C49.8558 91.0556 50.2447 90.7222 50.2447 90.2667C50.2447 89.8222 49.8558 89.5 49.0781 89.3C48.3003 89.0889 47.3392 88.9833 46.1947 88.9833ZM65.4596 87.9H53.3263V86.8667H58.793V85.5H54.2596V82.2833H63.393V80.8833H54.243V79.95H64.5596V83.15H55.4263V84.5833H64.743V85.5H59.993V86.8667H65.4596V87.9ZM64.5763 89.1833V92.55H63.3763V90.2167H54.093V89.1833H64.5763ZM67.0745 87.15V80.0167H68.2412V82.3333H72.9245V80.0167H74.1245V82.9667H76.7079V79.7667H77.9079V89.2833H76.7079V84.15H74.1245V87.15H67.0745ZM72.9245 83.4167H68.2412V86.0667H72.9245V83.4167ZM78.1912 92.3667H67.6579V88.35H68.8745V91.2167H78.1912V92.3667ZM80.1561 82.6667V81.5167H85.1561V79.6H86.3728V81.5167H91.4061V82.6667H80.1561ZM91.8561 91.9167H79.7228V90.7833H85.1895V88.6333C83.8339 88.5778 82.7506 88.35 81.9395 87.95C81.1395 87.5389 80.7395 86.9389 80.7395 86.15C80.7395 85.2944 81.2006 84.6611 82.1228 84.25C83.045 83.8389 84.2672 83.6333 85.7895 83.6333C87.3006 83.6333 88.5172 83.8389 89.4395 84.25C90.3617 84.6611 90.8228 85.2944 90.8228 86.15C90.8228 86.9389 90.4172 87.5389 89.6061 87.95C88.8061 88.35 87.7339 88.5778 86.3895 88.6333V90.7833H91.8561V91.9167ZM81.9728 86.15C81.9728 86.6389 82.3172 87 83.0061 87.2333C83.7061 87.4667 84.6339 87.5833 85.7895 87.5833C86.9339 87.5833 87.8506 87.4667 88.5395 87.2333C89.2395 87 89.5895 86.6389 89.5895 86.15C89.5895 85.65 89.2395 85.2833 88.5395 85.05C87.8506 84.8167 86.9339 84.7 85.7895 84.7C84.6339 84.7 83.7061 84.8167 83.0061 85.05C82.3172 85.2833 81.9728 85.65 81.9728 86.15ZM97.4669 83.5333C97.2003 83.5333 96.978 83.4444 96.8003 83.2667C96.6225 83.0889 96.5336 82.8667 96.5336 82.6C96.5336 82.3333 96.6225 82.1167 96.8003 81.95C96.978 81.7722 97.2003 81.6833 97.4669 81.6833C97.7336 81.6833 97.9558 81.7722 98.1336 81.95C98.3114 82.1167 98.4003 82.3333 98.4003 82.6C98.4003 82.8667 98.3114 83.0889 98.1336 83.2667C97.9558 83.4444 97.7336 83.5333 97.4669 83.5333ZM97.4669 90.65C97.2114 90.65 96.9891 90.5611 96.8003 90.3833C96.6225 90.2056 96.5336 89.9833 96.5336 89.7167C96.5336 89.45 96.6225 89.2278 96.8003 89.05C96.9891 88.8722 97.2114 88.7833 97.4669 88.7833C97.7225 88.7833 97.9391 88.8722 98.1169 89.05C98.3058 89.2278 98.4003 89.45 98.4003 89.7167C98.4003 89.9833 98.3058 90.2056 98.1169 90.3833C97.9391 90.5611 97.7225 90.65 97.4669 90.65ZM110.522 88.95V92H109.256V88.95H102.689V88.05L108.839 80.3333H110.239L104.306 87.8333H109.272V85.15H110.522V87.8333H112.839V88.95H110.522ZM118.694 92H117.411V81.4333H114.677V80.3333H118.694V92ZM131.782 81.2L126.899 92H125.482L130.282 81.45H124.349V83.6167H123.165V80.3333H131.782V81.2ZM137.119 85.6333V86.7H132.702V85.6333H137.119ZM145.289 85.8833C146.044 86.1167 146.628 86.4833 147.039 86.9833C147.45 87.4722 147.655 88.0611 147.655 88.75C147.655 89.7944 147.244 90.6167 146.422 91.2167C145.611 91.8167 144.505 92.1167 143.105 92.1167C141.694 92.1167 140.583 91.8167 139.772 91.2167C138.972 90.6167 138.572 89.7944 138.572 88.75C138.572 88.05 138.772 87.4556 139.172 86.9667C139.583 86.4778 140.161 86.1167 140.905 85.8833C140.294 85.6722 139.822 85.3444 139.489 84.9C139.155 84.4556 138.989 83.9278 138.989 83.3167C138.989 82.3611 139.361 81.6056 140.105 81.05C140.861 80.4944 141.861 80.2167 143.105 80.2167C144.361 80.2167 145.361 80.4944 146.105 81.05C146.861 81.6056 147.239 82.3611 147.239 83.3167C147.239 83.9278 147.067 84.4556 146.722 84.9C146.389 85.3333 145.911 85.6611 145.289 85.8833ZM143.105 81.25C142.228 81.25 141.533 81.4389 141.022 81.8167C140.522 82.1944 140.272 82.7111 140.272 83.3667C140.272 84 140.522 84.5056 141.022 84.8833C141.522 85.25 142.217 85.4333 143.105 85.4333C143.994 85.4333 144.689 85.25 145.189 84.8833C145.7 84.5056 145.955 84 145.955 83.3667C145.955 82.7222 145.694 82.2111 145.172 81.8333C144.661 81.4444 143.972 81.25 143.105 81.25ZM143.105 91.0667C144.117 91.0667 144.911 90.8611 145.489 90.45C146.067 90.0278 146.355 89.4556 146.355 88.7333C146.355 88.0222 146.067 87.4611 145.489 87.05C144.911 86.6278 144.117 86.4167 143.105 86.4167C142.094 86.4167 141.3 86.6278 140.722 87.05C140.155 87.4611 139.872 88.0222 139.872 88.7333C139.872 89.4556 140.155 90.0278 140.722 90.45C141.289 90.8611 142.083 91.0667 143.105 91.0667ZM157.344 81.2L152.46 92H151.044L155.844 81.45H149.91V83.6167H148.727V80.3333H157.344V81.2ZM162.68 85.6333V86.7H158.264V85.6333H162.68ZM168.667 92.1167C167.767 92.1167 166.961 91.8778 166.25 91.4C165.539 90.9111 164.984 90.2167 164.584 89.3167C164.184 88.4167 163.984 87.3667 163.984 86.1667C163.984 84.9667 164.184 83.9167 164.584 83.0167C164.984 82.1167 165.539 81.4278 166.25 80.95C166.961 80.4611 167.767 80.2167 168.667 80.2167C169.578 80.2167 170.384 80.4611 171.084 80.95C171.795 81.4278 172.35 82.1167 172.75 83.0167C173.15 83.9056 173.35 84.9556 173.35 86.1667C173.35 87.3778 173.15 88.4333 172.75 89.3333C172.35 90.2222 171.795 90.9111 171.084 91.4C170.384 91.8778 169.578 92.1167 168.667 92.1167ZM168.667 90.9667C169.345 90.9667 169.934 90.7833 170.434 90.4167C170.945 90.0389 171.339 89.4889 171.617 88.7667C171.906 88.0444 172.05 87.1778 172.05 86.1667C172.05 85.1556 171.906 84.2889 171.617 83.5667C171.339 82.8444 170.945 82.3 170.434 81.9333C169.934 81.5556 169.345 81.3667 168.667 81.3667C168 81.3667 167.411 81.5556 166.9 81.9333C166.389 82.3 165.995 82.8444 165.717 83.5667C165.439 84.2889 165.3 85.1556 165.3 86.1667C165.3 87.1778 165.439 88.0444 165.717 88.7667C165.995 89.4889 166.389 90.0389 166.9 90.4167C167.411 90.7833 168 90.9667 168.667 90.9667ZM178.672 92.1167C177.772 92.1167 176.966 91.8778 176.255 91.4C175.544 90.9111 174.989 90.2167 174.589 89.3167C174.189 88.4167 173.989 87.3667 173.989 86.1667C173.989 84.9667 174.189 83.9167 174.589 83.0167C174.989 82.1167 175.544 81.4278 176.255 80.95C176.966 80.4611 177.772 80.2167 178.672 80.2167C179.583 80.2167 180.389 80.4611 181.089 80.95C181.8 81.4278 182.355 82.1167 182.755 83.0167C183.155 83.9056 183.355 84.9556 183.355 86.1667C183.355 87.3778 183.155 88.4333 182.755 89.3333C182.355 90.2222 181.8 90.9111 181.089 91.4C180.389 91.8778 179.583 92.1167 178.672 92.1167ZM178.672 90.9667C179.35 90.9667 179.939 90.7833 180.439 90.4167C180.95 90.0389 181.344 89.4889 181.622 88.7667C181.911 88.0444 182.055 87.1778 182.055 86.1667C182.055 85.1556 181.911 84.2889 181.622 83.5667C181.344 82.8444 180.95 82.3 180.439 81.9333C179.939 81.5556 179.35 81.3667 178.672 81.3667C178.005 81.3667 177.416 81.5556 176.905 81.9333C176.394 82.3 176 82.8444 175.722 83.5667C175.444 84.2889 175.305 85.1556 175.305 86.1667C175.305 87.1778 175.444 88.0444 175.722 88.7667C176 89.4889 176.394 90.0389 176.905 90.4167C177.416 90.7833 178.005 90.9667 178.672 90.9667ZM192.81 92H184.577V91.1167L189.41 86.35C190.021 85.75 190.432 85.2389 190.643 84.8167C190.866 84.3944 190.977 83.9611 190.977 83.5167C190.977 82.8389 190.743 82.3111 190.277 81.9333C189.81 81.5444 189.143 81.35 188.277 81.35C186.91 81.35 185.866 81.7944 185.143 82.6833L184.21 81.9833C184.655 81.4167 185.232 80.9833 185.943 80.6833C186.655 80.3722 187.466 80.2167 188.377 80.2167C189.555 80.2167 190.493 80.5056 191.193 81.0833C191.905 81.65 192.26 82.4222 192.26 83.4C192.26 84.0111 192.127 84.5889 191.86 85.1333C191.593 85.6778 191.093 86.3111 190.36 87.0333L186.46 90.8833H192.81V92ZM199.248 85C200.015 85 200.693 85.1444 201.282 85.4333C201.882 85.7222 202.348 86.1333 202.682 86.6667C203.015 87.1889 203.182 87.8 203.182 88.5C203.182 89.2222 203.004 89.8556 202.648 90.4C202.304 90.9444 201.826 91.3667 201.215 91.6667C200.615 91.9667 199.937 92.1167 199.182 92.1167C197.637 92.1167 196.443 91.6056 195.598 90.5833C194.765 89.5611 194.348 88.1222 194.348 86.2667C194.348 84.9667 194.571 83.8667 195.015 82.9667C195.459 82.0556 196.087 81.3722 196.898 80.9167C197.709 80.45 198.648 80.2167 199.715 80.2167C200.882 80.2167 201.821 80.4389 202.532 80.8833L201.998 81.8667C201.454 81.5111 200.704 81.3333 199.748 81.3333C198.482 81.3333 197.487 81.7389 196.765 82.55C196.043 83.35 195.682 84.5167 195.682 86.05C195.682 86.3389 195.709 86.6889 195.765 87.1C196.021 86.4333 196.459 85.9167 197.082 85.55C197.704 85.1833 198.426 85 199.248 85ZM199.115 91.0667C199.948 91.0667 200.621 90.8389 201.132 90.3833C201.654 89.9167 201.915 89.3056 201.915 88.55C201.915 87.7833 201.654 87.1722 201.132 86.7167C200.621 86.2611 199.921 86.0333 199.032 86.0333C198.465 86.0333 197.954 86.1444 197.498 86.3667C197.054 86.5889 196.704 86.8944 196.448 87.2833C196.204 87.6722 196.082 88.1 196.082 88.5667C196.082 89 196.198 89.4111 196.432 89.8C196.665 90.1778 197.009 90.4833 197.465 90.7167C197.932 90.95 198.482 91.0667 199.115 91.0667ZM209.253 85C210.02 85 210.698 85.1444 211.287 85.4333C211.887 85.7222 212.353 86.1333 212.687 86.6667C213.02 87.1889 213.187 87.8 213.187 88.5C213.187 89.2222 213.009 89.8556 212.653 90.4C212.309 90.9444 211.831 91.3667 211.22 91.6667C210.62 91.9667 209.942 92.1167 209.187 92.1167C207.642 92.1167 206.448 91.6056 205.603 90.5833C204.77 89.5611 204.353 88.1222 204.353 86.2667C204.353 84.9667 204.575 83.8667 205.02 82.9667C205.464 82.0556 206.092 81.3722 206.903 80.9167C207.714 80.45 208.653 80.2167 209.72 80.2167C210.887 80.2167 211.825 80.4389 212.537 80.8833L212.003 81.8667C211.459 81.5111 210.709 81.3333 209.753 81.3333C208.487 81.3333 207.492 81.7389 206.77 82.55C206.048 83.35 205.687 84.5167 205.687 86.05C205.687 86.3389 205.714 86.6889 205.77 87.1C206.025 86.4333 206.464 85.9167 207.087 85.55C207.709 85.1833 208.431 85 209.253 85ZM209.12 91.0667C209.953 91.0667 210.625 90.8389 211.137 90.3833C211.659 89.9167 211.92 89.3056 211.92 88.55C211.92 87.7833 211.659 87.1722 211.137 86.7167C210.625 86.2611 209.925 86.0333 209.037 86.0333C208.47 86.0333 207.959 86.1444 207.503 86.3667C207.059 86.5889 206.709 86.8944 206.453 87.2833C206.209 87.6722 206.087 88.1 206.087 88.5667C206.087 89 206.203 89.4111 206.437 89.8C206.67 90.1778 207.014 90.4833 207.47 90.7167C207.937 90.95 208.487 91.0667 209.12 91.0667ZM12.1667 121.567H11.0167V115.2H8.81667V121.35H7.68333V108.833H8.81667V114.017H11.0167V108.767H12.1667V121.567ZM3.88333 119.633C4.40556 119.633 4.91667 119.589 5.41667 119.5C5.91667 119.411 6.35 119.289 6.71667 119.133V120.25C6.35 120.417 5.90556 120.544 5.38333 120.633C4.86111 120.722 4.31111 120.767 3.73333 120.767H0.95V109.267H6.2V110.4H2.11667V119.633H3.88333ZM25.8649 120.917H13.7316V119.767H16.8482V116.567H14.3816V115.417H16.5982V110.517H14.4982V109.367H25.0816V110.517H22.9982V115.417H25.2149V116.567H22.7482V119.767H25.8649V120.917ZM21.7982 115.417V110.517H17.7982V115.417H21.7982ZM21.5316 119.767V116.567H18.0482V119.767H21.5316ZM27.4798 116.15V109.017H28.6465V111.333H33.3298V109.017H34.5298V111.967H37.1132V108.767H38.3132V118.283H37.1132V113.15H34.5298V116.15H27.4798ZM33.3298 112.417H28.6465V115.067H33.3298V112.417ZM38.5965 121.367H28.0632V117.35H29.2798V120.217H38.5965V121.367ZM40.5614 111.667V110.517H45.5614V108.6H46.7781V110.517H51.8114V111.667H40.5614ZM52.2614 120.917H40.1281V119.783H45.5947V117.633C44.2392 117.578 43.1558 117.35 42.3447 116.95C41.5447 116.539 41.1447 115.939 41.1447 115.15C41.1447 114.294 41.6058 113.661 42.5281 113.25C43.4503 112.839 44.6725 112.633 46.1947 112.633C47.7058 112.633 48.9225 112.839 49.8447 113.25C50.7669 113.661 51.2281 114.294 51.2281 115.15C51.2281 115.939 50.8225 116.539 50.0114 116.95C49.2114 117.35 48.1392 117.578 46.7947 117.633V119.783H52.2614V120.917ZM42.3781 115.15C42.3781 115.639 42.7225 116 43.4114 116.233C44.1114 116.467 45.0392 116.583 46.1947 116.583C47.3392 116.583 48.2558 116.467 48.9447 116.233C49.6447 116 49.9947 115.639 49.9947 115.15C49.9947 114.65 49.6447 114.283 48.9447 114.05C48.2558 113.817 47.3392 113.7 46.1947 113.7C45.0392 113.7 44.1114 113.817 43.4114 114.05C42.7225 114.283 42.3781 114.65 42.3781 115.15ZM57.8722 112.533C57.6055 112.533 57.3833 112.444 57.2055 112.267C57.0278 112.089 56.9389 111.867 56.9389 111.6C56.9389 111.333 57.0278 111.117 57.2055 110.95C57.3833 110.772 57.6055 110.683 57.8722 110.683C58.1389 110.683 58.3611 110.772 58.5389 110.95C58.7166 111.117 58.8055 111.333 58.8055 111.6C58.8055 111.867 58.7166 112.089 58.5389 112.267C58.3611 112.444 58.1389 112.533 57.8722 112.533ZM57.8722 119.65C57.6166 119.65 57.3944 119.561 57.2055 119.383C57.0278 119.206 56.9389 118.983 56.9389 118.717C56.9389 118.45 57.0278 118.228 57.2055 118.05C57.3944 117.872 57.6166 117.783 57.8722 117.783C58.1278 117.783 58.3444 117.872 58.5222 118.05C58.7111 118.228 58.8055 118.45 58.8055 118.717C58.8055 118.983 58.7111 119.206 58.5222 119.383C58.3444 119.561 58.1278 119.65 57.8722 119.65ZM69.0943 121H67.811V110.433H65.0777V109.333H69.0943V121ZM77.1992 114.1C80.4326 114.1 82.0492 115.256 82.0492 117.567C82.0492 118.244 81.8881 118.85 81.5659 119.383C81.2548 119.917 80.777 120.339 80.1326 120.65C79.4992 120.961 78.7159 121.117 77.7826 121.117C76.9381 121.117 76.1381 120.978 75.3826 120.7C74.627 120.422 74.027 120.056 73.5826 119.6L74.1826 118.617C74.5492 119.017 75.0492 119.344 75.6826 119.6C76.327 119.844 77.0214 119.967 77.7659 119.967C78.7214 119.967 79.4548 119.75 79.9659 119.317C80.4881 118.883 80.7492 118.311 80.7492 117.6C80.7492 116.811 80.4603 116.217 79.8826 115.817C79.3048 115.417 78.3159 115.217 76.9159 115.217H74.3992L75.0159 109.333H81.4159V110.433H76.0992L75.6992 114.1H77.1992ZM87.2041 114.1C90.4374 114.1 92.0541 115.256 92.0541 117.567C92.0541 118.244 91.893 118.85 91.5708 119.383C91.2597 119.917 90.7819 120.339 90.1374 120.65C89.5041 120.961 88.7208 121.117 87.7874 121.117C86.943 121.117 86.143 120.978 85.3874 120.7C84.6319 120.422 84.0319 120.056 83.5874 119.6L84.1874 118.617C84.5541 119.017 85.0541 119.344 85.6874 119.6C86.3319 119.844 87.0263 119.967 87.7708 119.967C88.7263 119.967 89.4597 119.75 89.9708 119.317C90.493 118.883 90.7541 118.311 90.7541 117.6C90.7541 116.811 90.4652 116.217 89.8874 115.817C89.3097 115.417 88.3208 115.217 86.9208 115.217H84.4041L85.0208 109.333H91.4208V110.433H86.1041L85.7041 114.1H87.2041ZM99.109 121H97.8257V110.433H95.0923V109.333H99.109V121ZM108.364 114.633V115.7H103.947V114.633H108.364ZM115.208 121H113.924V110.433H111.191V109.333H115.208V121ZM123.312 114.1C126.546 114.1 128.163 115.256 128.163 117.567C128.163 118.244 128.001 118.85 127.679 119.383C127.368 119.917 126.89 120.339 126.246 120.65C125.613 120.961 124.829 121.117 123.896 121.117C123.051 121.117 122.251 120.978 121.496 120.7C120.74 120.422 120.14 120.056 119.696 119.6L120.296 118.617C120.663 119.017 121.163 119.344 121.796 119.6C122.44 119.844 123.135 119.967 123.879 119.967C124.835 119.967 125.568 119.75 126.079 119.317C126.601 118.883 126.863 118.311 126.863 117.6C126.863 116.811 126.574 116.217 125.996 115.817C125.418 115.417 124.429 115.217 123.029 115.217H120.513L121.129 109.333H127.529V110.433H122.213L121.813 114.1H123.312ZM134.217 114.333C135.44 114.389 136.367 114.717 137.001 115.317C137.645 115.906 137.967 116.683 137.967 117.65C137.967 118.317 137.806 118.911 137.484 119.433C137.162 119.956 136.678 120.367 136.034 120.667C135.401 120.967 134.628 121.117 133.717 121.117C132.862 121.117 132.056 120.983 131.301 120.717C130.556 120.439 129.962 120.067 129.517 119.6L130.084 118.617C130.473 119.017 130.984 119.344 131.617 119.6C132.262 119.844 132.951 119.967 133.684 119.967C134.64 119.967 135.373 119.761 135.884 119.35C136.406 118.939 136.667 118.372 136.667 117.65C136.667 116.917 136.412 116.35 135.901 115.95C135.39 115.55 134.606 115.35 133.551 115.35H132.701V114.45L135.901 110.433H129.984V109.333H137.501V110.2L134.217 114.333ZM145.222 121H143.939V110.433H141.206V109.333H145.222V121ZM155.423 108.633V124.217H154.24V108.633H155.423ZM170.17 112.717C169.592 113.506 168.837 114.139 167.903 114.617C166.97 115.094 165.948 115.383 164.837 115.483V114.317C166.137 114.194 167.253 113.778 168.187 113.067C169.12 112.344 169.709 111.417 169.953 110.283H165.137V109.133H175.837V110.283H171.237C171.17 110.794 171.026 111.283 170.803 111.75L176.203 114.367L175.687 115.417L170.17 112.717ZM171.07 118.133V121.867H169.853V118.133H164.42V116.967H176.553V118.133H171.07ZM183.518 112.817C182.818 113.972 181.968 114.889 180.968 115.567C179.968 116.244 178.929 116.583 177.852 116.583V115.383C178.729 115.383 179.574 115.094 180.385 114.517C181.196 113.928 181.891 113.133 182.468 112.133C183.057 111.133 183.463 110.033 183.685 108.833L184.918 109.083C184.741 110.028 184.452 110.933 184.052 111.8L189.418 115.633L188.768 116.617L183.518 112.817ZM189.752 119.733V120.917H177.618V119.733H183.068V115.983H184.285V119.733H189.752ZM195.362 112.533C195.096 112.533 194.874 112.444 194.696 112.267C194.518 112.089 194.429 111.867 194.429 111.6C194.429 111.333 194.518 111.117 194.696 110.95C194.874 110.772 195.096 110.683 195.362 110.683C195.629 110.683 195.851 110.772 196.029 110.95C196.207 111.117 196.296 111.333 196.296 111.6C196.296 111.867 196.207 112.089 196.029 112.267C195.851 112.444 195.629 112.533 195.362 112.533ZM195.362 119.65C195.107 119.65 194.885 119.561 194.696 119.383C194.518 119.206 194.429 118.983 194.429 118.717C194.429 118.45 194.518 118.228 194.696 118.05C194.885 117.872 195.107 117.783 195.362 117.783C195.618 117.783 195.835 117.872 196.012 118.05C196.201 118.228 196.296 118.45 196.296 118.717C196.296 118.983 196.201 119.206 196.012 119.383C195.835 119.561 195.618 119.65 195.362 119.65ZM201.851 115.533V109.017H203.035V110.95H211.035V109.017H212.218V115.533H201.851ZM211.035 112.067H203.035V114.4H211.035V112.067ZM207.651 118.15V121.867H206.418V118.15H200.968V116.983H213.101V118.15H207.651ZM226.883 112.983H225.116V118.283H223.916V108.767H225.116V111.767H226.883V112.983ZM218.199 113.2C217.766 114.044 217.211 114.739 216.533 115.283C215.855 115.828 215.083 116.167 214.216 116.3V115.117C214.983 114.961 215.649 114.583 216.216 113.983C216.794 113.383 217.233 112.639 217.533 111.75C217.833 110.861 217.983 109.911 217.983 108.9L219.199 108.967C219.199 110.111 219.033 111.161 218.699 112.117L222.616 115.267L221.883 116.183L218.199 113.2ZM225.483 120.217V121.367H215.033V117.383H216.249V120.217H225.483ZM240.081 112.917H238.348V116.417H237.131V108.767H238.348V111.75H240.081V112.917ZM227.981 110.083V109H234.798V113.483H233.598V110.083H227.981ZM236.048 115.067C235.314 115.4 233.914 115.567 231.848 115.567H227.364V114.517H229.898V111.733H231.098V114.517H231.898C233.887 114.517 235.27 114.35 236.048 114.017V115.067ZM233.348 116.683C234.914 116.683 236.175 116.889 237.131 117.3C238.087 117.7 238.564 118.317 238.564 119.15C238.564 119.983 238.087 120.6 237.131 121C236.187 121.4 234.925 121.6 233.348 121.6C231.77 121.6 230.498 121.4 229.531 121C228.575 120.6 228.098 119.983 228.098 119.15C228.098 118.317 228.575 117.7 229.531 117.3C230.498 116.889 231.77 116.683 233.348 116.683ZM233.348 120.583C234.525 120.583 235.481 120.467 236.214 120.233C236.948 120 237.314 119.639 237.314 119.15C237.314 118.65 236.948 118.283 236.214 118.05C235.481 117.817 234.525 117.7 233.348 117.7C232.159 117.7 231.198 117.817 230.464 118.05C229.731 118.283 229.364 118.65 229.364 119.15C229.364 119.639 229.731 120 230.464 120.233C231.198 120.467 232.159 120.583 233.348 120.583ZM251.946 116.417H250.763V114.683H248.463L248.546 113.55H250.763V111.35H248.546L248.463 110.233H250.763V108.767H251.946V116.417ZM248.129 112.45C248.129 113.128 247.979 113.733 247.679 114.267C247.379 114.8 246.946 115.222 246.379 115.533C245.824 115.833 245.168 115.983 244.413 115.983C243.668 115.983 243.013 115.833 242.446 115.533C241.89 115.222 241.457 114.8 241.146 114.267C240.846 113.722 240.696 113.117 240.696 112.45C240.696 111.783 240.846 111.183 241.146 110.65C241.457 110.106 241.89 109.683 242.446 109.383C243.013 109.072 243.668 108.917 244.413 108.917C245.168 108.917 245.824 109.072 246.379 109.383C246.946 109.683 247.379 110.1 247.679 110.633C247.979 111.167 248.129 111.772 248.129 112.45ZM241.913 112.45C241.913 113.206 242.14 113.806 242.596 114.25C243.063 114.694 243.668 114.917 244.413 114.917C245.157 114.917 245.763 114.694 246.229 114.25C246.696 113.806 246.929 113.206 246.929 112.45C246.929 111.694 246.696 111.094 246.229 110.65C245.774 110.206 245.168 109.983 244.413 109.983C243.668 109.983 243.063 110.206 242.596 110.65C242.14 111.094 241.913 111.694 241.913 112.45ZM251.946 117.167V121.533H250.729V118.283H241.729V117.167H251.946ZM265.061 121.567H263.844V108.767H265.061V121.567ZM259.128 109.133C259.105 111.156 258.933 112.928 258.611 114.45L262.628 120L261.661 120.733L258.228 115.917C257.794 117.372 257.216 118.522 256.494 119.367C255.783 120.2 254.955 120.667 254.011 120.767V119.517C254.833 119.372 255.533 118.822 256.111 117.867C256.689 116.9 257.128 115.656 257.428 114.133C257.728 112.611 257.883 110.933 257.894 109.1L259.128 109.133ZM282.388 115.783H270.255V114.75H275.722V113.283H271.172V108.95H281.488V109.983H272.372V112.25H281.622V113.283H276.922V114.75H282.388V115.783ZM276.322 116.967C277.899 116.967 279.177 117.15 280.155 117.517C281.144 117.872 281.638 118.456 281.638 119.267C281.638 120.078 281.144 120.667 280.155 121.033C279.177 121.4 277.899 121.583 276.322 121.583C274.744 121.583 273.461 121.4 272.472 121.033C271.494 120.667 271.005 120.078 271.005 119.267C271.005 118.456 271.494 117.872 272.472 117.517C273.461 117.15 274.744 116.967 276.322 116.967ZM276.322 120.567C277.466 120.567 278.427 120.467 279.205 120.267C279.983 120.056 280.372 119.722 280.372 119.267C280.372 118.822 279.983 118.5 279.205 118.3C278.427 118.089 277.466 117.983 276.322 117.983C275.177 117.983 274.211 118.089 273.422 118.3C272.644 118.5 272.255 118.822 272.255 119.267C272.255 119.722 272.644 120.056 273.422 120.267C274.199 120.467 275.166 120.567 276.322 120.567ZM284.287 110.283V109.1H294.687V114.883H293.437V110.283H284.287ZM290.053 117.25V121.867H288.837V117.25H283.453V116.033H295.587V117.25H290.053ZM305.764 111.9C305.186 112.433 304.431 112.85 303.497 113.15C302.575 113.439 301.609 113.594 300.597 113.617V112.567C301.331 112.544 302.053 112.433 302.764 112.233C303.486 112.022 304.103 111.728 304.614 111.35C305.125 110.961 305.442 110.506 305.564 109.983H300.814V108.95H311.214V109.983H306.864C306.809 110.394 306.697 110.739 306.531 111.017L311.547 112.667L311.214 113.667L305.764 111.9ZM306.614 117.017C308.014 117.05 309.147 117.25 310.014 117.617C310.881 117.972 311.314 118.522 311.314 119.267C311.314 120.078 310.825 120.661 309.847 121.017C308.87 121.383 307.592 121.567 306.014 121.567C304.436 121.567 303.153 121.383 302.164 121.017C301.186 120.661 300.697 120.078 300.697 119.267C300.697 118.522 301.131 117.972 301.997 117.617C302.875 117.25 304.014 117.05 305.414 117.017V115.667H299.947V114.633H312.081V115.667H306.614V117.017ZM310.047 119.267C310.047 118.822 309.664 118.506 308.897 118.317C308.131 118.117 307.17 118.017 306.014 118.017C304.859 118.017 303.892 118.117 303.114 118.317C302.347 118.506 301.964 118.822 301.964 119.267C301.964 119.722 302.347 120.05 303.114 120.25C303.892 120.45 304.859 120.55 306.014 120.55C307.17 120.55 308.131 120.45 308.897 120.25C309.664 120.05 310.047 119.722 310.047 119.267ZM325.862 112.7H324.096V115.85H322.896V108.767H324.096V111.483H325.862V112.7ZM316.962 115.383C316.207 115.383 315.546 115.25 314.979 114.983C314.423 114.706 313.99 114.322 313.679 113.833C313.379 113.344 313.229 112.783 313.229 112.15C313.229 111.517 313.379 110.956 313.679 110.467C313.99 109.978 314.423 109.6 314.979 109.333C315.546 109.056 316.207 108.917 316.962 108.917C317.718 108.917 318.373 109.056 318.929 109.333C319.496 109.6 319.929 109.978 320.229 110.467C320.529 110.956 320.679 111.517 320.679 112.15C320.679 112.783 320.529 113.344 320.229 113.833C319.929 114.322 319.496 114.706 318.929 114.983C318.373 115.25 317.718 115.383 316.962 115.383ZM316.962 109.967C316.196 109.967 315.579 110.161 315.112 110.55C314.657 110.939 314.429 111.472 314.429 112.15C314.429 112.828 314.657 113.361 315.112 113.75C315.579 114.139 316.196 114.333 316.962 114.333C317.718 114.333 318.323 114.139 318.779 113.75C319.246 113.361 319.479 112.828 319.479 112.15C319.479 111.472 319.246 110.939 318.779 110.55C318.323 110.161 317.718 109.967 316.962 109.967ZM319.196 116.317C320.718 116.317 321.946 116.533 322.879 116.967C323.812 117.4 324.279 118.056 324.279 118.933C324.279 119.811 323.812 120.467 322.879 120.9C321.946 121.322 320.718 121.533 319.196 121.533C317.685 121.533 316.457 121.322 315.512 120.9C314.579 120.467 314.112 119.811 314.112 118.933C314.112 118.056 314.579 117.4 315.512 116.967C316.457 116.533 317.685 116.317 319.196 116.317ZM319.196 120.483C320.318 120.483 321.235 120.35 321.946 120.083C322.657 119.817 323.012 119.433 323.012 118.933C323.012 118.422 322.657 118.033 321.946 117.767C321.235 117.5 320.318 117.367 319.196 117.367C318.073 117.367 317.157 117.5 316.446 117.767C315.735 118.033 315.379 118.422 315.379 118.933C315.379 119.433 315.735 119.817 316.446 120.083C317.157 120.35 318.073 120.483 319.196 120.483ZM337.977 121.567H336.827V115.2H334.627V121.35H333.494V108.833H334.627V114.017H336.827V108.767H337.977V121.567ZM329.694 119.633C330.216 119.633 330.727 119.589 331.227 119.5C331.727 119.411 332.161 119.289 332.527 119.133V120.25C332.161 120.417 331.716 120.544 331.194 120.633C330.672 120.722 330.122 120.767 329.544 120.767H326.761V109.267H332.011V110.4H327.927V119.633H329.694ZM351.675 120.917H339.542V119.767H344.975V117.133H340.409V112.633H349.659V110.4H340.392V109.267H350.859V113.733H341.592V116H351.042V117.133H346.175V119.767H351.675V120.917ZM363.949 114.333C365.171 114.389 366.099 114.717 366.732 115.317C367.377 115.906 367.699 116.683 367.699 117.65C367.699 118.317 367.538 118.911 367.215 119.433C366.893 119.956 366.41 120.367 365.765 120.667C365.132 120.967 364.36 121.117 363.449 121.117C362.593 121.117 361.788 120.983 361.032 120.717C360.288 120.439 359.693 120.067 359.249 119.6L359.815 118.617C360.204 119.017 360.715 119.344 361.349 119.6C361.993 119.844 362.682 119.967 363.415 119.967C364.371 119.967 365.104 119.761 365.615 119.35C366.138 118.939 366.399 118.372 366.399 117.65C366.399 116.917 366.143 116.35 365.632 115.95C365.121 115.55 364.338 115.35 363.282 115.35H362.432V114.45L365.632 110.433H359.715V109.333H367.232V110.2L363.949 114.333ZM378.037 110.2L373.154 121H371.737L376.537 110.45H370.604V112.617H369.42V109.333H378.037V110.2ZM383.959 114.333C385.181 114.389 386.109 114.717 386.742 115.317C387.386 115.906 387.709 116.683 387.709 117.65C387.709 118.317 387.547 118.911 387.225 119.433C386.903 119.956 386.42 120.367 385.775 120.667C385.142 120.967 384.37 121.117 383.459 121.117C382.603 121.117 381.797 120.983 381.042 120.717C380.297 120.439 379.703 120.067 379.259 119.6L379.825 118.617C380.214 119.017 380.725 119.344 381.359 119.6C382.003 119.844 382.692 119.967 383.425 119.967C384.381 119.967 385.114 119.761 385.625 119.35C386.147 118.939 386.409 118.372 386.409 117.65C386.409 116.917 386.153 116.35 385.642 115.95C385.131 115.55 384.347 115.35 383.292 115.35H382.442V114.45L385.642 110.433H379.725V109.333H387.242V110.2L383.959 114.333ZM394.213 114.633V115.7H389.797V114.633H394.213ZM401.057 121H399.774V110.433H397.041V109.333H401.057V121ZM408.012 121.817C407.479 120.95 407.068 119.95 406.779 118.817C406.49 117.683 406.345 116.467 406.345 115.167C406.345 113.867 406.49 112.644 406.779 111.5C407.068 110.356 407.479 109.361 408.012 108.517H409.079C408.512 109.461 408.095 110.483 407.829 111.583C407.562 112.672 407.429 113.867 407.429 115.167C407.429 116.467 407.562 117.667 407.829 118.767C408.095 119.856 408.512 120.872 409.079 121.817H408.012ZM416.018 112.25C415.341 113.25 414.502 114.044 413.502 114.633C412.502 115.222 411.468 115.517 410.402 115.517V114.317C411.268 114.328 412.113 114.083 412.935 113.583C413.757 113.072 414.457 112.383 415.035 111.517C415.613 110.65 415.991 109.706 416.168 108.683L417.402 108.9C417.257 109.656 416.991 110.444 416.602 111.267L421.885 114.467L421.318 115.5L416.018 112.25ZM416.785 118.133V121.867H415.568V118.133H410.118V116.967H422.252V118.133H416.785ZM433.5 108.767H434.7V115.967H433.5V112.367H431V111.267H433.5V108.767ZM427.567 112.9C427.167 113.633 426.622 114.233 425.933 114.7C425.244 115.156 424.455 115.439 423.567 115.55V114.417C424.611 114.25 425.439 113.8 426.05 113.067C426.672 112.322 427.028 111.372 427.117 110.217H423.717V109.133H431.5V110.217H428.333C428.3 110.828 428.2 111.383 428.033 111.883L431.9 114.483L431.283 115.433L427.567 112.9ZM429.6 116.433C431.167 116.433 432.422 116.644 433.367 117.067C434.322 117.478 434.8 118.117 434.8 118.983C434.8 119.85 434.322 120.494 433.367 120.917C432.422 121.328 431.167 121.533 429.6 121.533C428.033 121.533 426.778 121.328 425.833 120.917C424.889 120.494 424.417 119.85 424.417 118.983C424.417 118.117 424.889 117.478 425.833 117.067C426.778 116.644 428.033 116.433 429.6 116.433ZM429.6 120.483C430.767 120.483 431.711 120.356 432.433 120.1C433.167 119.844 433.533 119.472 433.533 118.983C433.533 118.494 433.167 118.122 432.433 117.867C431.7 117.611 430.755 117.483 429.6 117.483C428.444 117.483 427.5 117.611 426.767 117.867C426.044 118.122 425.683 118.494 425.683 118.983C425.683 119.472 426.044 119.844 426.767 120.1C427.5 120.356 428.444 120.483 429.6 120.483ZM448.648 115.783H436.515V114.75H441.981V113.283H437.431V108.95H447.748V109.983H438.631V112.25H447.881V113.283H443.181V114.75H448.648V115.783ZM442.581 116.967C444.159 116.967 445.437 117.15 446.415 117.517C447.404 117.872 447.898 118.456 447.898 119.267C447.898 120.078 447.404 120.667 446.415 121.033C445.437 121.4 444.159 121.583 442.581 121.583C441.004 121.583 439.72 121.4 438.731 121.033C437.754 120.667 437.265 120.078 437.265 119.267C437.265 118.456 437.754 117.872 438.731 117.517C439.72 117.15 441.004 116.967 442.581 116.967ZM442.581 120.567C443.726 120.567 444.687 120.467 445.465 120.267C446.243 120.056 446.631 119.722 446.631 119.267C446.631 118.822 446.243 118.5 445.465 118.3C444.687 118.089 443.726 117.983 442.581 117.983C441.437 117.983 440.47 118.089 439.681 118.3C438.904 118.5 438.515 118.822 438.515 119.267C438.515 119.722 438.904 120.056 439.681 120.267C440.459 120.467 441.426 120.567 442.581 120.567ZM449.696 121.817C450.263 120.872 450.674 119.85 450.93 118.75C451.196 117.65 451.33 116.456 451.33 115.167C451.33 113.878 451.196 112.683 450.93 111.583C450.674 110.483 450.263 109.461 449.696 108.517H450.746C451.28 109.361 451.685 110.356 451.963 111.5C452.252 112.633 452.396 113.856 452.396 115.167C452.396 116.467 452.252 117.683 451.963 118.817C451.685 119.95 451.28 120.95 450.746 121.817H449.696ZM12.1667 150.567H11V144.2H8.7V150.35H7.55V137.833H8.7V143.017H11V137.767H12.1667V150.567ZM5.85 138.267V141.633C5.85 143.233 5.63889 144.644 5.21667 145.867C4.80556 147.089 4.22222 148.039 3.46667 148.717C2.71111 149.394 1.83889 149.733 0.85 149.733V148.55C1.62778 148.539 2.30556 148.244 2.88333 147.667C3.46111 147.089 3.90556 146.289 4.21667 145.267C4.53889 144.233 4.7 143.044 4.7 141.7V139.417H0.85V138.267H5.85ZM23.8149 147.283V137.767H25.0316V147.283H23.8149ZM17.7149 137.917C18.4927 137.917 19.1705 138.078 19.7482 138.4C20.326 138.711 20.7649 139.15 21.0649 139.717C21.376 140.272 21.5316 140.906 21.5316 141.617C21.5316 142.328 21.376 142.967 21.0649 143.533C20.7649 144.089 20.326 144.528 19.7482 144.85C19.1705 145.161 18.4927 145.317 17.7149 145.317C16.9371 145.317 16.2594 145.161 15.6816 144.85C15.1038 144.528 14.6594 144.089 14.3482 143.533C14.0371 142.967 13.8816 142.328 13.8816 141.617C13.8816 140.906 14.0371 140.272 14.3482 139.717C14.6594 139.15 15.1038 138.711 15.6816 138.4C16.2594 138.078 16.9371 137.917 17.7149 137.917ZM17.7149 138.983C16.926 138.983 16.2927 139.222 15.8149 139.7C15.3371 140.178 15.0982 140.817 15.0982 141.617C15.0982 142.417 15.3371 143.056 15.8149 143.533C16.2927 144 16.926 144.233 17.7149 144.233C18.5038 144.233 19.1371 144 19.6149 143.533C20.0927 143.056 20.3316 142.417 20.3316 141.617C20.3316 140.817 20.0927 140.178 19.6149 139.7C19.1371 139.222 18.5038 138.983 17.7149 138.983ZM25.3816 149.217V150.367H14.9482V146.233H16.1649V149.217H25.3816ZM37.1132 137.767H38.3132V144.967H37.1132V141.367H34.6132V140.267H37.1132V137.767ZM31.1798 141.9C30.7798 142.633 30.2354 143.233 29.5465 143.7C28.8576 144.156 28.0687 144.439 27.1798 144.55V143.417C28.2243 143.25 29.052 142.8 29.6632 142.067C30.2854 141.322 30.6409 140.372 30.7298 139.217H27.3298V138.133H35.1132V139.217H31.9465C31.9132 139.828 31.8132 140.383 31.6465 140.883L35.5132 143.483L34.8965 144.433L31.1798 141.9ZM33.2132 145.433C34.7798 145.433 36.0354 145.644 36.9798 146.067C37.9354 146.478 38.4132 147.117 38.4132 147.983C38.4132 148.85 37.9354 149.494 36.9798 149.917C36.0354 150.328 34.7798 150.533 33.2132 150.533C31.6465 150.533 30.3909 150.328 29.4465 149.917C28.502 149.494 28.0298 148.85 28.0298 147.983C28.0298 147.117 28.502 146.478 29.4465 146.067C30.3909 145.644 31.6465 145.433 33.2132 145.433ZM33.2132 149.483C34.3798 149.483 35.3243 149.356 36.0465 149.1C36.7798 148.844 37.1465 148.472 37.1465 147.983C37.1465 147.494 36.7798 147.122 36.0465 146.867C35.3132 146.611 34.3687 146.483 33.2132 146.483C32.0576 146.483 31.1132 146.611 30.3798 146.867C29.6576 147.122 29.2965 147.494 29.2965 147.983C29.2965 148.472 29.6576 148.844 30.3798 149.1C31.1132 149.356 32.0576 149.483 33.2132 149.483ZM52.2614 149.917H40.1281V148.733H45.5781V145.65H40.9781V138.167H42.1614V140.6H50.2281V138.167H51.4114V145.65H46.7947V148.733H52.2614V149.917ZM50.2281 144.517V141.733H42.1614V144.517H50.2281ZM59.8555 142.867C59.2333 144.322 58.2 145.167 56.7555 145.4V144.283C57.5333 144.106 58.1333 143.678 58.5555 143C58.9889 142.311 59.2278 141.383 59.2722 140.217H56.9055V139.117H59.2722V137.55H60.4555V139.117H62.7722V140.217H60.4555C60.4444 140.694 60.3778 141.2 60.2555 141.733L63.0722 144.517L62.3389 145.35L59.8555 142.867ZM68.2555 145.817H67.1055V142.033H64.9055V145.683H63.7722V137.833H64.9055V140.85H67.1055V137.767H68.2555V145.817ZM68.2555 146.567V150.533H67.0555V147.65H57.6222V146.567H68.2555ZM79.9038 144.733V137.767H81.1204V144.733H79.9038ZM73.8204 137.917C74.5871 137.917 75.2538 138.056 75.8204 138.333C76.3982 138.6 76.8371 138.978 77.1371 139.467C77.4482 139.956 77.6038 140.517 77.6038 141.15C77.6038 141.783 77.4482 142.344 77.1371 142.833C76.8371 143.322 76.3982 143.706 75.8204 143.983C75.2538 144.25 74.5871 144.383 73.8204 144.383C73.0538 144.383 72.3816 144.25 71.8038 143.983C71.2371 143.706 70.7982 143.322 70.4871 142.833C70.1871 142.344 70.0371 141.783 70.0371 141.15C70.0371 140.517 70.1871 139.956 70.4871 139.467C70.7982 138.978 71.2371 138.6 71.8038 138.333C72.3816 138.056 73.0538 137.917 73.8204 137.917ZM73.8204 138.967C73.0427 138.967 72.4149 139.161 71.9371 139.55C71.4704 139.939 71.2371 140.472 71.2371 141.15C71.2371 141.828 71.4704 142.361 71.9371 142.75C72.4149 143.139 73.0427 143.333 73.8204 143.333C74.5871 143.333 75.2038 143.139 75.6704 142.75C76.1482 142.361 76.3871 141.828 76.3871 141.15C76.3871 140.472 76.1482 139.939 75.6704 139.55C75.2038 139.161 74.5871 138.967 73.8204 138.967ZM71.0371 150.367V145.483H81.1204V150.367H71.0371ZM79.9038 146.567H72.2371V149.283H79.9038V146.567ZM95.7354 142.55H94.002V147.5H92.7854V137.767H94.002V141.367H95.7354V142.55ZM83.6354 139.117V138H90.452V142.967H89.252V139.117H83.6354ZM91.702 144.8C90.9798 145.144 89.5798 145.317 87.502 145.317H83.0187V144.217H85.552V141.033H86.752V144.217H87.552C89.552 144.217 90.9354 144.044 91.702 143.7V144.8ZM94.3687 149.267V150.367H83.9187V146.667H85.1187V149.267H94.3687ZM106.3 150.567V137.767H107.517V150.567H106.3ZM98.1503 144.483V148.617H101.934C102.511 148.617 103.089 148.561 103.667 148.45C104.245 148.339 104.717 148.189 105.084 148V149.15C104.717 149.35 104.245 149.506 103.667 149.617C103.089 149.717 102.5 149.767 101.9 149.767H96.9503V143.35H102.584V139.417H96.9336V138.267H103.767V144.483H98.1503ZM120.365 144.267V150.567H119.165V137.767H120.365V143.067H122.132V144.267H120.365ZM114.315 139.433C114.293 141.044 114.171 142.467 113.949 143.7L117.932 148.917L116.982 149.65L113.565 145.133C113.165 146.5 112.626 147.583 111.949 148.383C111.271 149.172 110.482 149.633 109.582 149.767V148.517C110.304 148.361 110.926 147.878 111.449 147.067C111.971 146.244 112.371 145.178 112.649 143.867C112.937 142.556 113.093 141.078 113.115 139.433H109.849V138.267H117.499V139.433H114.315ZM127.159 141.533C126.893 141.533 126.67 141.444 126.493 141.267C126.315 141.089 126.226 140.867 126.226 140.6C126.226 140.333 126.315 140.117 126.493 139.95C126.67 139.772 126.893 139.683 127.159 139.683C127.426 139.683 127.648 139.772 127.826 139.95C128.004 140.117 128.093 140.333 128.093 140.6C128.093 140.867 128.004 141.089 127.826 141.267C127.648 141.444 127.426 141.533 127.159 141.533ZM127.159 148.65C126.904 148.65 126.682 148.561 126.493 148.383C126.315 148.206 126.226 147.983 126.226 147.717C126.226 147.45 126.315 147.228 126.493 147.05C126.682 146.872 126.904 146.783 127.159 146.783C127.415 146.783 127.632 146.872 127.809 147.05C127.998 147.228 128.093 147.45 128.093 147.717C128.093 147.983 127.998 148.206 127.809 148.383C127.632 148.561 127.415 148.65 127.159 148.65ZM138.831 143.183C137.276 143.183 135.993 142.956 134.981 142.5C133.97 142.033 133.465 141.35 133.465 140.45C133.465 139.561 133.97 138.883 134.981 138.417C136.004 137.939 137.287 137.7 138.831 137.7C140.365 137.7 141.637 137.939 142.648 138.417C143.67 138.883 144.181 139.561 144.181 140.45C144.181 141.35 143.676 142.033 142.665 142.5C141.654 142.956 140.376 143.183 138.831 143.183ZM138.831 138.75C137.676 138.75 136.704 138.9 135.915 139.2C135.126 139.5 134.731 139.917 134.731 140.45C134.731 140.994 135.126 141.417 135.915 141.717C136.704 142.006 137.676 142.15 138.831 142.15C139.987 142.15 140.954 142.006 141.731 141.717C142.52 141.417 142.915 140.994 142.915 140.45C142.915 139.917 142.52 139.5 141.731 139.2C140.943 138.9 139.976 138.75 138.831 138.75ZM144.898 145.4H141.848V147.8H140.631V145.4H138.198V147.8H136.998V145.4H132.765V144.333H144.898V145.4ZM144.248 149.3V150.383H133.631V146.767H134.831V149.3H144.248ZM153.063 141.133V140H156.146V137.767H157.346V144.967H156.146V141.133H153.063ZM149.996 141.817C149.574 142.583 149.024 143.217 148.346 143.717C147.669 144.217 146.891 144.533 146.013 144.667V143.517C146.78 143.361 147.441 143.017 147.996 142.483C148.563 141.939 148.991 141.272 149.28 140.483C149.58 139.683 149.735 138.822 149.746 137.9L150.946 137.967C150.946 138.989 150.796 139.928 150.496 140.783L154.28 143.517L153.613 144.417L149.996 141.817ZM152.246 145.433C153.813 145.433 155.069 145.644 156.013 146.067C156.969 146.478 157.446 147.117 157.446 147.983C157.446 148.85 156.969 149.494 156.013 149.917C155.069 150.328 153.813 150.533 152.246 150.533C150.68 150.533 149.424 150.328 148.48 149.917C147.535 149.494 147.063 148.85 147.063 147.983C147.063 147.117 147.535 146.478 148.48 146.067C149.424 145.644 150.68 145.433 152.246 145.433ZM152.246 149.483C153.413 149.483 154.357 149.356 155.08 149.1C155.813 148.844 156.18 148.472 156.18 147.983C156.18 147.494 155.813 147.122 155.08 146.867C154.346 146.611 153.402 146.483 152.246 146.483C151.091 146.483 150.146 146.611 149.413 146.867C148.691 147.122 148.33 147.494 148.33 147.983C148.33 148.472 148.691 148.844 149.413 149.1C150.146 149.356 151.091 149.483 152.246 149.483ZM159.661 139.617V138.617H164.595V137.25H165.811V138.617H170.795V139.617H159.661ZM160.145 142.367C160.145 141.711 160.6 141.217 161.511 140.883C162.433 140.55 163.672 140.383 165.228 140.383C166.772 140.383 168 140.55 168.911 140.883C169.822 141.217 170.278 141.711 170.278 142.367C170.278 143.022 169.822 143.517 168.911 143.85C168 144.183 166.772 144.35 165.228 144.35C163.672 144.35 162.433 144.183 161.511 143.85C160.6 143.517 160.145 143.022 160.145 142.367ZM169.078 142.367C169.078 142.022 168.722 141.761 168.011 141.583C167.3 141.394 166.372 141.3 165.228 141.3C164.083 141.3 163.156 141.394 162.445 141.583C161.733 141.761 161.378 142.022 161.378 142.367C161.378 142.711 161.733 142.978 162.445 143.167C163.156 143.344 164.083 143.433 165.228 143.433C166.372 143.433 167.3 143.344 168.011 143.167C168.722 142.978 169.078 142.711 169.078 142.367ZM171.295 146.267H165.828V147.983H164.628V146.267H159.161V145.25H171.295V146.267ZM170.645 149.333V150.383H160.045V147.35H161.261V149.333H170.645ZM174.926 150.817C174.393 149.95 173.982 148.95 173.693 147.817C173.404 146.683 173.26 145.467 173.26 144.167C173.26 142.867 173.404 141.644 173.693 140.5C173.982 139.356 174.393 138.361 174.926 137.517H175.993C175.426 138.461 175.01 139.483 174.743 140.583C174.476 141.672 174.343 142.867 174.343 144.167C174.343 145.467 174.476 146.667 174.743 147.767C175.01 148.856 175.426 149.872 175.993 150.817H174.926ZM182.266 141.15C183.032 141.15 183.727 141.339 184.349 141.717C184.971 142.083 185.46 142.606 185.816 143.283C186.182 143.961 186.366 144.733 186.366 145.6C186.366 146.478 186.182 147.256 185.816 147.933C185.46 148.611 184.971 149.139 184.349 149.517C183.727 149.894 183.032 150.083 182.266 150.083C181.555 150.083 180.916 149.911 180.349 149.567C179.782 149.222 179.338 148.739 179.016 148.117V150H177.866V137.633H179.066V143.05C179.377 142.45 179.81 141.983 180.366 141.65C180.932 141.317 181.566 141.15 182.266 141.15ZM182.116 148.983C182.693 148.983 183.216 148.844 183.682 148.567C184.149 148.289 184.51 147.894 184.766 147.383C185.032 146.861 185.166 146.267 185.166 145.6C185.166 144.944 185.032 144.361 184.766 143.85C184.51 143.339 184.149 142.944 183.682 142.667C183.216 142.378 182.693 142.233 182.116 142.233C181.538 142.233 181.016 142.378 180.549 142.667C180.082 142.944 179.716 143.339 179.449 143.85C179.193 144.361 179.066 144.944 179.066 145.6C179.066 146.267 179.193 146.861 179.449 147.383C179.716 147.894 180.082 148.289 180.549 148.567C181.016 148.844 181.538 148.983 182.116 148.983ZM191.247 141.15C192.347 141.15 193.186 141.439 193.764 142.017C194.353 142.583 194.647 143.433 194.647 144.567V150H193.514V148.5C193.259 149 192.881 149.389 192.381 149.667C191.892 149.944 191.309 150.083 190.631 150.083C189.686 150.083 188.942 149.85 188.397 149.383C187.853 148.917 187.581 148.3 187.581 147.533C187.581 146.789 187.842 146.189 188.364 145.733C188.886 145.278 189.703 145.05 190.814 145.05H193.447C193.447 144.717 193.425 144.433 193.381 144.2C193.281 142.867 192.525 142.2 191.114 142.2C190.581 142.2 190.07 142.294 189.581 142.483C189.092 142.672 188.681 142.928 188.347 143.25L187.831 142.367C188.264 141.978 188.781 141.678 189.381 141.467C189.981 141.256 190.603 141.15 191.247 141.15ZM190.847 149.133C192.136 149.133 193.003 148.544 193.447 147.367V145.9H190.897C189.475 145.9 188.764 146.428 188.764 147.483C188.764 147.994 188.947 148.4 189.314 148.7C189.681 148.989 190.192 149.133 190.847 149.133ZM200.938 150.117C200.038 150.117 199.232 149.878 198.521 149.4C197.81 148.911 197.254 148.217 196.854 147.317C196.454 146.417 196.254 145.367 196.254 144.167C196.254 142.967 196.454 141.917 196.854 141.017C197.254 140.117 197.81 139.428 198.521 138.95C199.232 138.461 200.038 138.217 200.938 138.217C201.849 138.217 202.654 138.461 203.354 138.95C204.065 139.428 204.621 140.117 205.021 141.017C205.421 141.906 205.621 142.956 205.621 144.167C205.621 145.378 205.421 146.433 205.021 147.333C204.621 148.222 204.065 148.911 203.354 149.4C202.654 149.878 201.849 150.117 200.938 150.117ZM200.938 148.967C201.615 148.967 202.204 148.783 202.704 148.417C203.215 148.039 203.61 147.489 203.888 146.767C204.176 146.044 204.321 145.178 204.321 144.167C204.321 143.156 204.176 142.289 203.888 141.567C203.61 140.844 203.215 140.3 202.704 139.933C202.204 139.556 201.615 139.367 200.938 139.367C200.271 139.367 199.682 139.556 199.171 139.933C198.66 140.3 198.265 140.844 197.988 141.567C197.71 142.289 197.571 143.156 197.571 144.167C197.571 145.178 197.71 146.044 197.988 146.767C198.265 147.489 198.66 148.039 199.171 148.417C199.682 148.783 200.271 148.967 200.938 148.967ZM210.942 150.117C210.042 150.117 209.237 149.878 208.526 149.4C207.815 148.911 207.259 148.217 206.859 147.317C206.459 146.417 206.259 145.367 206.259 144.167C206.259 142.967 206.459 141.917 206.859 141.017C207.259 140.117 207.815 139.428 208.526 138.95C209.237 138.461 210.042 138.217 210.942 138.217C211.853 138.217 212.659 138.461 213.359 138.95C214.07 139.428 214.626 140.117 215.026 141.017C215.426 141.906 215.626 142.956 215.626 144.167C215.626 145.378 215.426 146.433 215.026 147.333C214.626 148.222 214.07 148.911 213.359 149.4C212.659 149.878 211.853 150.117 210.942 150.117ZM210.942 148.967C211.62 148.967 212.209 148.783 212.709 148.417C213.22 148.039 213.615 147.489 213.892 146.767C214.181 146.044 214.326 145.178 214.326 144.167C214.326 143.156 214.181 142.289 213.892 141.567C213.615 140.844 213.22 140.3 212.709 139.933C212.209 139.556 211.62 139.367 210.942 139.367C210.276 139.367 209.687 139.556 209.176 139.933C208.665 140.3 208.27 140.844 207.992 141.567C207.715 142.289 207.576 143.156 207.576 144.167C207.576 145.178 207.715 146.044 207.992 146.767C208.27 147.489 208.665 148.039 209.176 148.417C209.687 148.783 210.276 148.967 210.942 148.967ZM222.097 150H220.814V139.433H218.081V138.333H222.097V150ZM230.469 138.217C232.013 138.217 233.202 138.728 234.035 139.75C234.869 140.772 235.285 142.211 235.285 144.067C235.285 145.367 235.063 146.472 234.619 147.383C234.174 148.283 233.547 148.967 232.735 149.433C231.935 149.889 230.997 150.117 229.919 150.117C228.763 150.117 227.83 149.894 227.119 149.45L227.635 148.45C228.18 148.806 228.935 148.983 229.902 148.983C231.102 148.983 232.058 148.622 232.769 147.9C233.48 147.167 233.869 146.1 233.935 144.7L233.952 144.15C233.952 143.817 233.93 143.5 233.885 143.2C233.63 143.878 233.191 144.406 232.569 144.783C231.947 145.15 231.219 145.333 230.385 145.333C229.619 145.333 228.935 145.189 228.335 144.9C227.747 144.611 227.285 144.206 226.952 143.683C226.619 143.15 226.452 142.533 226.452 141.833C226.452 141.111 226.624 140.478 226.969 139.933C227.324 139.389 227.808 138.967 228.419 138.667C229.03 138.367 229.713 138.217 230.469 138.217ZM230.619 144.3C231.185 144.3 231.691 144.189 232.135 143.967C232.591 143.744 232.941 143.439 233.185 143.05C233.43 142.661 233.552 142.233 233.552 141.767C233.552 141.333 233.435 140.928 233.202 140.55C232.969 140.161 232.619 139.85 232.152 139.617C231.697 139.383 231.152 139.267 230.519 139.267C229.685 139.267 229.013 139.494 228.502 139.95C227.991 140.406 227.735 141.011 227.735 141.767C227.735 142.544 227.991 143.161 228.502 143.617C229.024 144.072 229.73 144.3 230.619 144.3ZM240.474 138.217C242.018 138.217 243.207 138.728 244.04 139.75C244.874 140.772 245.29 142.211 245.29 144.067C245.29 145.367 245.068 146.472 244.624 147.383C244.179 148.283 243.551 148.967 242.74 149.433C241.94 149.889 241.001 150.117 239.924 150.117C238.768 150.117 237.835 149.894 237.124 149.45L237.64 148.45C238.185 148.806 238.94 148.983 239.907 148.983C241.107 148.983 242.063 148.622 242.774 147.9C243.485 147.167 243.874 146.1 243.94 144.7L243.957 144.15C243.957 143.817 243.935 143.5 243.89 143.2C243.635 143.878 243.196 144.406 242.574 144.783C241.951 145.15 241.224 145.333 240.39 145.333C239.624 145.333 238.94 145.189 238.34 144.9C237.751 144.611 237.29 144.206 236.957 143.683C236.624 143.15 236.457 142.533 236.457 141.833C236.457 141.111 236.629 140.478 236.974 139.933C237.329 139.389 237.813 138.967 238.424 138.667C239.035 138.367 239.718 138.217 240.474 138.217ZM240.624 144.3C241.19 144.3 241.696 144.189 242.14 143.967C242.596 143.744 242.946 143.439 243.19 143.05C243.435 142.661 243.557 142.233 243.557 141.767C243.557 141.333 243.44 140.928 243.207 140.55C242.974 140.161 242.624 139.85 242.157 139.617C241.701 139.383 241.157 139.267 240.524 139.267C239.69 139.267 239.018 139.494 238.507 139.95C237.996 140.406 237.74 141.011 237.74 141.767C237.74 142.544 237.996 143.161 238.507 143.617C239.029 144.072 239.735 144.3 240.624 144.3ZM254.629 138.233C256.117 138.233 257.445 138.544 258.612 139.167C259.79 139.789 260.706 140.656 261.362 141.767C262.017 142.878 262.345 144.144 262.345 145.567C262.345 146.511 262.229 147.322 261.995 148C261.762 148.678 261.434 149.194 261.012 149.55C260.601 149.894 260.123 150.067 259.579 150.067C259.079 150.067 258.662 149.933 258.329 149.667C258.006 149.4 257.812 149.033 257.745 148.567C257.745 148.444 257.734 148.261 257.712 148.017C257.401 148.661 256.945 149.167 256.345 149.533C255.745 149.889 255.062 150.067 254.295 150.067C253.54 150.067 252.851 149.883 252.229 149.517C251.606 149.15 251.117 148.639 250.762 147.983C250.406 147.328 250.229 146.583 250.229 145.75C250.229 144.928 250.406 144.194 250.762 143.55C251.117 142.894 251.606 142.383 252.229 142.017C252.851 141.65 253.54 141.467 254.295 141.467C255.04 141.467 255.701 141.639 256.279 141.983C256.856 142.317 257.306 142.789 257.629 143.4V141.55H258.745V147.883C258.745 148.306 258.834 148.617 259.012 148.817C259.201 149.006 259.451 149.1 259.762 149.1C260.273 149.1 260.679 148.794 260.979 148.183C261.29 147.572 261.445 146.706 261.445 145.583C261.445 144.306 261.156 143.178 260.579 142.2C260.001 141.211 259.195 140.45 258.162 139.917C257.129 139.372 255.951 139.1 254.629 139.1C253.284 139.1 252.09 139.383 251.045 139.95C250.012 140.506 249.206 141.289 248.629 142.3C248.051 143.311 247.762 144.461 247.762 145.75C247.762 147.05 248.045 148.211 248.612 149.233C249.19 150.244 249.99 151.033 251.012 151.6C252.045 152.167 253.229 152.45 254.562 152.45C255.095 152.45 255.645 152.389 256.212 152.267C256.779 152.144 257.29 151.961 257.745 151.717L258.079 152.55C257.59 152.806 257.029 153 256.395 153.133C255.762 153.267 255.151 153.333 254.562 153.333C253.051 153.333 251.706 153.011 250.529 152.367C249.351 151.722 248.434 150.828 247.779 149.683C247.123 148.528 246.795 147.217 246.795 145.75C246.795 144.294 247.123 143 247.779 141.867C248.445 140.722 249.373 139.833 250.562 139.2C251.751 138.556 253.106 138.233 254.629 138.233ZM254.495 149.067C255.095 149.067 255.629 148.928 256.095 148.65C256.573 148.372 256.945 147.983 257.212 147.483C257.49 146.983 257.629 146.406 257.629 145.75C257.629 145.106 257.49 144.533 257.212 144.033C256.945 143.533 256.573 143.15 256.095 142.883C255.629 142.606 255.095 142.467 254.495 142.467C253.895 142.467 253.356 142.606 252.879 142.883C252.412 143.15 252.045 143.533 251.779 144.033C251.512 144.533 251.379 145.106 251.379 145.75C251.379 146.406 251.512 146.983 251.779 147.483C252.045 147.983 252.412 148.372 252.879 148.65C253.356 148.928 253.895 149.067 254.495 149.067ZM268.707 141.15C269.752 141.15 270.579 141.472 271.19 142.117C271.802 142.75 272.107 143.678 272.107 144.9V150H270.907V145.05C270.907 144.139 270.69 143.45 270.257 142.983C269.835 142.506 269.229 142.267 268.44 142.267C267.563 142.267 266.863 142.55 266.34 143.117C265.829 143.672 265.574 144.433 265.574 145.4V150H264.374V141.233H265.524V142.933C265.824 142.378 266.246 141.944 266.79 141.633C267.335 141.311 267.974 141.15 268.707 141.15ZM277.292 141.15C278.392 141.15 279.231 141.439 279.809 142.017C280.398 142.583 280.692 143.433 280.692 144.567V150H279.559V148.5C279.303 149 278.926 149.389 278.426 149.667C277.937 149.944 277.353 150.083 276.676 150.083C275.731 150.083 274.987 149.85 274.442 149.383C273.898 148.917 273.626 148.3 273.626 147.533C273.626 146.789 273.887 146.189 274.409 145.733C274.931 145.278 275.748 145.05 276.859 145.05H279.492C279.492 144.717 279.47 144.433 279.426 144.2C279.326 142.867 278.57 142.2 277.159 142.2C276.626 142.2 276.115 142.294 275.626 142.483C275.137 142.672 274.726 142.928 274.392 143.25L273.876 142.367C274.309 141.978 274.826 141.678 275.426 141.467C276.026 141.256 276.648 141.15 277.292 141.15ZM276.892 149.133C278.181 149.133 279.048 148.544 279.492 147.367V145.9H276.942C275.52 145.9 274.809 146.428 274.809 147.483C274.809 147.994 274.992 148.4 275.359 148.7C275.726 148.989 276.237 149.133 276.892 149.133ZM286.379 150H285.179L281.462 141.233H282.712L285.812 148.583L288.912 141.233H290.096L286.379 150ZM298.605 145.933H291.655C291.711 146.856 292.033 147.6 292.622 148.167C293.222 148.722 293.977 149 294.889 149C295.411 149 295.889 148.906 296.322 148.717C296.766 148.528 297.133 148.244 297.422 147.867L298.105 148.633C297.716 149.111 297.244 149.472 296.689 149.717C296.133 149.961 295.527 150.083 294.872 150.083C294.016 150.083 293.25 149.894 292.572 149.517C291.905 149.128 291.383 148.594 291.005 147.917C290.639 147.239 290.455 146.467 290.455 145.6C290.455 144.744 290.633 143.983 290.989 143.317C291.344 142.639 291.833 142.111 292.455 141.733C293.089 141.344 293.789 141.15 294.555 141.15C295.322 141.15 296.011 141.339 296.622 141.717C297.244 142.083 297.733 142.6 298.089 143.267C298.444 143.933 298.622 144.7 298.622 145.567L298.605 145.933ZM294.572 142.167C293.772 142.167 293.1 142.439 292.555 142.983C292.022 143.517 291.722 144.217 291.655 145.083H297.489C297.411 144.228 297.1 143.528 296.555 142.983C296.022 142.439 295.361 142.167 294.572 142.167ZM301.667 142.967C301.934 142.367 302.334 141.911 302.867 141.6C303.4 141.289 304.039 141.139 304.784 141.15V142.35C304.717 142.339 304.617 142.333 304.484 142.333C303.617 142.333 302.939 142.611 302.45 143.167C301.962 143.722 301.717 144.506 301.717 145.517V150H300.517V141.233H301.667V142.967ZM306.295 150.1C306.039 150.1 305.817 150.011 305.628 149.833C305.451 149.656 305.362 149.433 305.362 149.167C305.362 148.9 305.451 148.683 305.628 148.517C305.806 148.339 306.028 148.25 306.295 148.25C306.562 148.25 306.784 148.339 306.962 148.517C307.139 148.683 307.228 148.9 307.228 149.167C307.228 149.433 307.134 149.656 306.945 149.833C306.767 150.011 306.551 150.1 306.295 150.1ZM312.938 150.083C312.116 150.083 311.371 149.894 310.705 149.517C310.049 149.128 309.532 148.594 309.155 147.917C308.788 147.239 308.605 146.467 308.605 145.6C308.605 144.744 308.788 143.978 309.155 143.3C309.532 142.622 310.049 142.094 310.705 141.717C311.371 141.339 312.116 141.15 312.938 141.15C313.66 141.15 314.31 141.3 314.888 141.6C315.466 141.9 315.921 142.339 316.255 142.917L315.321 143.517C315.044 143.094 314.694 142.778 314.271 142.567C313.86 142.344 313.41 142.233 312.921 142.233C312.332 142.233 311.799 142.372 311.321 142.65C310.855 142.928 310.488 143.322 310.221 143.833C309.955 144.344 309.821 144.933 309.821 145.6C309.821 146.278 309.955 146.872 310.221 147.383C310.488 147.894 310.855 148.289 311.321 148.567C311.799 148.844 312.332 148.983 312.921 148.983C313.421 148.983 313.877 148.878 314.288 148.667C314.699 148.456 315.044 148.133 315.321 147.7L316.255 148.317C315.91 148.883 315.449 149.322 314.871 149.633C314.305 149.933 313.66 150.083 312.938 150.083ZM321.472 150.083C320.661 150.083 319.927 149.894 319.272 149.517C318.627 149.128 318.116 148.594 317.739 147.917C317.372 147.239 317.189 146.467 317.189 145.6C317.189 144.744 317.372 143.978 317.739 143.3C318.116 142.622 318.627 142.094 319.272 141.717C319.927 141.339 320.661 141.15 321.472 141.15C322.272 141.15 322.994 141.339 323.639 141.717C324.294 142.094 324.805 142.622 325.172 143.3C325.539 143.978 325.722 144.744 325.722 145.6C325.722 146.467 325.539 147.239 325.172 147.917C324.805 148.594 324.294 149.128 323.639 149.517C322.994 149.894 322.272 150.083 321.472 150.083ZM321.472 148.983C322.05 148.983 322.566 148.844 323.022 148.567C323.489 148.289 323.855 147.894 324.122 147.383C324.389 146.861 324.522 146.267 324.522 145.6C324.522 144.944 324.389 144.361 324.122 143.85C323.855 143.339 323.489 142.944 323.022 142.667C322.566 142.378 322.05 142.233 321.472 142.233C320.883 142.233 320.355 142.378 319.889 142.667C319.433 142.944 319.072 143.339 318.805 143.85C318.539 144.361 318.405 144.944 318.405 145.6C318.405 146.267 318.533 146.861 318.789 147.383C319.055 147.894 319.422 148.289 319.889 148.567C320.355 148.844 320.883 148.983 321.472 148.983ZM337.917 141.15C338.95 141.15 339.761 141.472 340.35 142.117C340.95 142.75 341.25 143.678 341.25 144.9V150H340.067V145.05C340.067 144.139 339.861 143.45 339.45 142.983C339.039 142.506 338.456 142.267 337.7 142.267C336.856 142.267 336.183 142.544 335.683 143.1C335.183 143.656 334.933 144.417 334.933 145.383V150H333.75V145.05C333.75 144.139 333.544 143.45 333.133 142.983C332.733 142.506 332.161 142.267 331.417 142.267C330.561 142.267 329.883 142.544 329.383 143.1C328.894 143.656 328.65 144.417 328.65 145.383V150H327.45V141.233H328.6V142.917C328.889 142.361 329.294 141.928 329.817 141.617C330.35 141.306 330.967 141.15 331.667 141.15C332.389 141.15 333.006 141.322 333.517 141.667C334.039 142.011 334.417 142.511 334.65 143.167C334.928 142.544 335.35 142.056 335.917 141.7C336.494 141.333 337.161 141.15 337.917 141.15ZM342.953 150.817C343.52 149.872 343.931 148.85 344.187 147.75C344.453 146.65 344.587 145.456 344.587 144.167C344.587 142.878 344.453 141.683 344.187 140.583C343.931 139.483 343.52 138.461 342.953 137.517H344.003C344.537 138.361 344.942 139.356 345.22 140.5C345.509 141.633 345.653 142.856 345.653 144.167C345.653 145.467 345.509 146.683 345.22 147.817C344.942 148.95 344.537 149.95 344.003 150.817H342.953ZM1.3 168.433V167.25H11.8167V175.7H10.5833V168.433H1.3ZM12.6667 178.917H0.533333V177.733H5.18333V171.867H6.41667V177.733H12.6667V178.917ZM25.3649 174.667H24.1982V170.95H21.9316V174.533H20.7816V166.833H21.9316V169.767H24.1982V166.767H25.3649V174.667ZM19.2316 169.2C19.2316 170.233 19.0038 171.122 18.5482 171.867C18.1038 172.611 17.4871 173.183 16.6982 173.583C15.9205 173.972 15.0371 174.172 14.0482 174.183V173.067C14.8371 173.056 15.5316 172.9 16.1316 172.6C16.7427 172.3 17.2149 171.867 17.5482 171.3C17.8927 170.722 18.0649 170.039 18.0649 169.25V168.2H14.0482V167.117H19.2316V169.2ZM25.3649 175.417V179.533H24.1649V176.517H14.7316V175.417H25.3649ZM37.4132 176.4V166.767H38.5632V176.4H37.4132ZM32.1465 170.433V169.267H34.4132V166.833H35.5632V176.167H34.4132V170.433H32.1465ZM30.0465 171.65C29.402 173.272 28.3687 174.239 26.9465 174.55V173.367C27.9132 173.067 28.6076 172.344 29.0298 171.2C29.452 170.056 29.6632 168.628 29.6632 166.917L30.8298 166.95C30.8298 168.317 30.7076 169.483 30.4632 170.45L33.4632 173.583L32.6632 174.417L30.0465 171.65ZM38.8965 179.367H28.0298V175.45H29.2632V178.217H38.8965V179.367ZM51.5114 179.567H50.3114V173.267H47.9447V172.083H50.3114V166.767H51.5114V179.567ZM45.4614 177.6C46.0392 177.6 46.6169 177.544 47.1947 177.433C47.7725 177.322 48.2447 177.172 48.6114 176.983V178.15C48.2447 178.35 47.7781 178.506 47.2114 178.617C46.6447 178.717 46.0614 178.767 45.4614 178.767H40.8114V167.267H47.7614V168.433H42.0114V172.333H47.0614V173.483H42.0114V177.6H45.4614ZM57.8722 170.533C57.6055 170.533 57.3833 170.444 57.2055 170.267C57.0278 170.089 56.9389 169.867 56.9389 169.6C56.9389 169.333 57.0278 169.117 57.2055 168.95C57.3833 168.772 57.6055 168.683 57.8722 168.683C58.1389 168.683 58.3611 168.772 58.5389 168.95C58.7166 169.117 58.8055 169.333 58.8055 169.6C58.8055 169.867 58.7166 170.089 58.5389 170.267C58.3611 170.444 58.1389 170.533 57.8722 170.533ZM57.8722 177.65C57.6166 177.65 57.3944 177.561 57.2055 177.383C57.0278 177.206 56.9389 176.983 56.9389 176.717C56.9389 176.45 57.0278 176.228 57.2055 176.05C57.3944 175.872 57.6166 175.783 57.8722 175.783C58.1278 175.783 58.3444 175.872 58.5222 176.05C58.7111 176.228 58.8055 176.45 58.8055 176.717C58.8055 176.983 58.7111 177.206 58.5222 177.383C58.3444 177.561 58.1278 177.65 57.8722 177.65ZM69.0943 179H67.811V168.433H65.0777V167.333H69.0943V179ZM77.1992 172.1C80.4326 172.1 82.0492 173.256 82.0492 175.567C82.0492 176.244 81.8881 176.85 81.5659 177.383C81.2548 177.917 80.777 178.339 80.1326 178.65C79.4992 178.961 78.7159 179.117 77.7826 179.117C76.9381 179.117 76.1381 178.978 75.3826 178.7C74.627 178.422 74.027 178.056 73.5826 177.6L74.1826 176.617C74.5492 177.017 75.0492 177.344 75.6826 177.6C76.327 177.844 77.0214 177.967 77.7659 177.967C78.7214 177.967 79.4548 177.75 79.9659 177.317C80.4881 176.883 80.7492 176.311 80.7492 175.6C80.7492 174.811 80.4603 174.217 79.8826 173.817C79.3048 173.417 78.3159 173.217 76.9159 173.217H74.3992L75.0159 167.333H81.4159V168.433H76.0992L75.6992 172.1H77.1992ZM87.2041 172.1C90.4374 172.1 92.0541 173.256 92.0541 175.567C92.0541 176.244 91.893 176.85 91.5708 177.383C91.2597 177.917 90.7819 178.339 90.1374 178.65C89.5041 178.961 88.7208 179.117 87.7874 179.117C86.943 179.117 86.143 178.978 85.3874 178.7C84.6319 178.422 84.0319 178.056 83.5874 177.6L84.1874 176.617C84.5541 177.017 85.0541 177.344 85.6874 177.6C86.3319 177.844 87.0263 177.967 87.7708 177.967C88.7263 177.967 89.4597 177.75 89.9708 177.317C90.493 176.883 90.7541 176.311 90.7541 175.6C90.7541 174.811 90.4652 174.217 89.8874 173.817C89.3097 173.417 88.3208 173.217 86.9208 173.217H84.4041L85.0208 167.333H91.4208V168.433H86.1041L85.7041 172.1H87.2041ZM99.109 179H97.8257V168.433H95.0923V167.333H99.109V179ZM108.364 172.633V173.7H103.947V172.633H108.364ZM115.208 179H113.924V168.433H111.191V167.333H115.208V179ZM123.312 172.1C126.546 172.1 128.163 173.256 128.163 175.567C128.163 176.244 128.001 176.85 127.679 177.383C127.368 177.917 126.89 178.339 126.246 178.65C125.613 178.961 124.829 179.117 123.896 179.117C123.051 179.117 122.251 178.978 121.496 178.7C120.74 178.422 120.14 178.056 119.696 177.6L120.296 176.617C120.663 177.017 121.163 177.344 121.796 177.6C122.44 177.844 123.135 177.967 123.879 177.967C124.835 177.967 125.568 177.75 126.079 177.317C126.601 176.883 126.863 176.311 126.863 175.6C126.863 174.811 126.574 174.217 125.996 173.817C125.418 173.417 124.429 173.217 123.029 173.217H120.513L121.129 167.333H127.529V168.433H122.213L121.813 172.1H123.312ZM134.217 172.333C135.44 172.389 136.367 172.717 137.001 173.317C137.645 173.906 137.967 174.683 137.967 175.65C137.967 176.317 137.806 176.911 137.484 177.433C137.162 177.956 136.678 178.367 136.034 178.667C135.401 178.967 134.628 179.117 133.717 179.117C132.862 179.117 132.056 178.983 131.301 178.717C130.556 178.439 129.962 178.067 129.517 177.6L130.084 176.617C130.473 177.017 130.984 177.344 131.617 177.6C132.262 177.844 132.951 177.967 133.684 177.967C134.64 177.967 135.373 177.761 135.884 177.35C136.406 176.939 136.667 176.372 136.667 175.65C136.667 174.917 136.412 174.35 135.901 173.95C135.39 173.55 134.606 173.35 133.551 173.35H132.701V172.45L135.901 168.433H129.984V167.333H137.501V168.2L134.217 172.333ZM145.222 179H143.939V168.433H141.206V167.333H145.222V179ZM12.6667 203.417H0.533333V202.433H6V201.15H1.46667V195.95H11.85V196.85H2.65V198.133H11.6333V198.967H2.65V200.267H11.95V201.15H7.2V202.433H12.6667V203.417ZM6.6 204.417C8.15556 204.417 9.42778 204.583 10.4167 204.917C11.4056 205.25 11.9 205.778 11.9 206.5C11.9 207.211 11.4056 207.733 10.4167 208.067C9.42778 208.411 8.15556 208.583 6.6 208.583C5.04444 208.583 3.77222 208.411 2.78333 208.067C1.79444 207.733 1.3 207.211 1.3 206.5C1.3 205.778 1.79444 205.25 2.78333 204.917C3.77222 204.583 5.04444 204.417 6.6 204.417ZM6.6 207.617C7.72222 207.617 8.67222 207.528 9.45 207.35C10.2389 207.161 10.6333 206.878 10.6333 206.5C10.6333 206.122 10.2389 205.839 9.45 205.65C8.66111 205.461 7.71111 205.367 6.6 205.367C5.47778 205.367 4.52222 205.461 3.73333 205.65C2.94444 205.839 2.55 206.122 2.55 206.5C2.55 206.878 2.94444 207.161 3.73333 207.35C4.52222 207.528 5.47778 207.617 6.6 207.617ZM23.8149 205.283V195.767H25.0316V205.283H23.8149ZM17.9816 200.183C17.526 201.028 16.9538 201.728 16.2649 202.283C15.576 202.828 14.7982 203.167 13.9316 203.3V202.117C14.7094 201.961 15.3871 201.583 15.9649 200.983C16.5538 200.383 17.0038 199.639 17.3149 198.75C17.626 197.861 17.7816 196.911 17.7816 195.9L18.9816 195.967C18.9816 197.111 18.8094 198.161 18.4649 199.117L22.4482 202.25L21.7149 203.183L17.9816 200.183ZM25.3816 208.367H14.8149V204.383H16.0316V207.217H25.3816V208.367ZM39.6465 200.167H37.8798V205.283H36.6798V195.767H37.8798V198.95H39.6465V200.167ZM35.7132 202.5C35.302 202.689 34.7298 202.839 33.9965 202.95C33.2743 203.061 32.452 203.117 31.5298 203.117H26.9632V202.033H28.5798V197.2H26.9798V196.117H35.1632V197.2H33.5632V201.933C34.4298 201.833 35.1465 201.661 35.7132 201.417V202.5ZM32.3965 202.017V197.2H29.7465V202.033H31.1465L32.3965 202.017ZM38.2465 207.217V208.367H27.7965V204.35H29.0132V207.217H38.2465ZM51.7614 208.567H50.6114V202.217H48.4114V208.35H47.2781V195.833H48.4114V201.017H50.6114V195.767H51.7614V208.567ZM45.6947 196.267V207.767H40.5447V196.267H45.6947ZM44.5447 206.617V197.417H41.6781V206.617H44.5447ZM64.7096 202.433H63.5096V199.6H60.8596C60.7374 200.389 60.3541 201.022 59.7096 201.5C59.0652 201.978 58.2319 202.217 57.2096 202.217C56.4541 202.217 55.793 202.083 55.2263 201.817C54.6707 201.55 54.2374 201.178 53.9263 200.7C53.6263 200.222 53.4763 199.678 53.4763 199.067C53.4763 198.467 53.6263 197.928 53.9263 197.45C54.2374 196.972 54.6707 196.6 55.2263 196.333C55.793 196.067 56.4541 195.933 57.2096 195.933C58.1985 195.933 59.0152 196.161 59.6596 196.617C60.3041 197.072 60.6985 197.678 60.843 198.433H63.5096V195.767H64.7096V202.433ZM57.2096 201.15C57.9652 201.15 58.5763 200.967 59.043 200.6C59.5096 200.222 59.743 199.711 59.743 199.067C59.743 198.433 59.5096 197.933 59.043 197.567C58.5763 197.189 57.9652 197 57.2096 197C56.4541 197 55.843 197.189 55.3763 197.567C54.9096 197.933 54.6763 198.433 54.6763 199.067C54.6763 199.711 54.9096 200.222 55.3763 200.6C55.843 200.967 56.4541 201.15 57.2096 201.15ZM64.7096 203.017V208.367H54.6096V203.017H55.793V204.533H63.5263V203.017H64.7096ZM63.5263 205.567H55.793V207.317H63.5263V205.567ZM76.6079 205.283V195.767H77.8245V205.283H76.6079ZM70.7745 200.183C70.319 201.028 69.7468 201.728 69.0579 202.283C68.369 202.828 67.5912 203.167 66.7245 203.3V202.117C67.5023 201.961 68.1801 201.583 68.7579 200.983C69.3468 200.383 69.7968 199.639 70.1079 198.75C70.419 197.861 70.5745 196.911 70.5745 195.9L71.7745 195.967C71.7745 197.111 71.6023 198.161 71.2579 199.117L75.2412 202.25L74.5079 203.183L70.7745 200.183ZM78.1745 208.367H67.6079V204.383H68.8245V207.217H78.1745V208.367ZM80.4895 197.433V196.25H91.0061V204.7H89.7728V197.433H80.4895ZM91.8561 207.917H79.7228V206.733H84.3728V200.867H85.6061V206.733H91.8561V207.917ZM93.471 203.15V196.017H94.6377V198.333H99.321V196.017H100.521V198.967H103.104V195.767H104.304V205.283H103.104V200.15H100.521V203.15H93.471ZM99.321 199.417H94.6377V202.067H99.321V199.417ZM104.588 208.367H94.0544V204.35H95.271V207.217H104.588V208.367ZM106.553 198.667V197.517H111.553V195.6H112.769V197.517H117.803V198.667H106.553ZM118.253 207.917H106.119V206.783H111.586V204.633C110.23 204.578 109.147 204.35 108.336 203.95C107.536 203.539 107.136 202.939 107.136 202.15C107.136 201.294 107.597 200.661 108.519 200.25C109.441 199.839 110.664 199.633 112.186 199.633C113.697 199.633 114.914 199.839 115.836 200.25C116.758 200.661 117.219 201.294 117.219 202.15C117.219 202.939 116.814 203.539 116.003 203.95C115.203 204.35 114.13 204.578 112.786 204.633V206.783H118.253V207.917ZM108.369 202.15C108.369 202.639 108.714 203 109.403 203.233C110.103 203.467 111.03 203.583 112.186 203.583C113.33 203.583 114.247 203.467 114.936 203.233C115.636 203 115.986 202.639 115.986 202.15C115.986 201.65 115.636 201.283 114.936 201.05C114.247 200.817 113.33 200.7 112.186 200.7C111.03 200.7 110.103 200.817 109.403 201.05C108.714 201.283 108.369 201.65 108.369 202.15ZM131.213 208H122.98V207.117L127.813 202.35C128.425 201.75 128.836 201.239 129.047 200.817C129.269 200.394 129.38 199.961 129.38 199.517C129.38 198.839 129.147 198.311 128.68 197.933C128.213 197.544 127.547 197.35 126.68 197.35C125.313 197.35 124.269 197.794 123.547 198.683L122.613 197.983C123.058 197.417 123.636 196.983 124.347 196.683C125.058 196.372 125.869 196.217 126.78 196.217C127.958 196.217 128.897 196.506 129.597 197.083C130.308 197.65 130.663 198.422 130.663 199.4C130.663 200.011 130.53 200.589 130.263 201.133C129.997 201.678 129.497 202.311 128.763 203.033L124.863 206.883H131.213V208ZM137.085 208.117C136.185 208.117 135.379 207.878 134.668 207.4C133.957 206.911 133.402 206.217 133.002 205.317C132.602 204.417 132.402 203.367 132.402 202.167C132.402 200.967 132.602 199.917 133.002 199.017C133.402 198.117 133.957 197.428 134.668 196.95C135.379 196.461 136.185 196.217 137.085 196.217C137.996 196.217 138.802 196.461 139.502 196.95C140.213 197.428 140.768 198.117 141.168 199.017C141.568 199.906 141.768 200.956 141.768 202.167C141.768 203.378 141.568 204.433 141.168 205.333C140.768 206.222 140.213 206.911 139.502 207.4C138.802 207.878 137.996 208.117 137.085 208.117ZM137.085 206.967C137.763 206.967 138.352 206.783 138.852 206.417C139.363 206.039 139.757 205.489 140.035 204.767C140.324 204.044 140.468 203.178 140.468 202.167C140.468 201.156 140.324 200.289 140.035 199.567C139.757 198.844 139.363 198.3 138.852 197.933C138.352 197.556 137.763 197.367 137.085 197.367C136.418 197.367 135.829 197.556 135.318 197.933C134.807 198.3 134.413 198.844 134.135 199.567C133.857 200.289 133.718 201.156 133.718 202.167C133.718 203.178 133.857 204.044 134.135 204.767C134.413 205.489 134.807 206.039 135.318 206.417C135.829 206.783 136.418 206.967 137.085 206.967ZM151.223 208H142.99V207.117L147.823 202.35C148.434 201.75 148.845 201.239 149.057 200.817C149.279 200.394 149.39 199.961 149.39 199.517C149.39 198.839 149.157 198.311 148.69 197.933C148.223 197.544 147.557 197.35 146.69 197.35C145.323 197.35 144.279 197.794 143.557 198.683L142.623 197.983C143.068 197.417 143.645 196.983 144.357 196.683C145.068 196.372 145.879 196.217 146.79 196.217C147.968 196.217 148.907 196.506 149.607 197.083C150.318 197.65 150.673 198.422 150.673 199.4C150.673 200.011 150.54 200.589 150.273 201.133C150.007 201.678 149.507 202.311 148.773 203.033L144.873 206.883H151.223V208ZM156.345 201.1C159.578 201.1 161.195 202.256 161.195 204.567C161.195 205.244 161.034 205.85 160.711 206.383C160.4 206.917 159.923 207.339 159.278 207.65C158.645 207.961 157.861 208.117 156.928 208.117C156.084 208.117 155.284 207.978 154.528 207.7C153.773 207.422 153.173 207.056 152.728 206.6L153.328 205.617C153.695 206.017 154.195 206.344 154.828 206.6C155.473 206.844 156.167 206.967 156.911 206.967C157.867 206.967 158.6 206.75 159.111 206.317C159.634 205.883 159.895 205.311 159.895 204.6C159.895 203.811 159.606 203.217 159.028 202.817C158.45 202.417 157.461 202.217 156.061 202.217H153.545L154.161 196.333H160.561V197.433H155.245L154.845 201.1H156.345ZM167.5 201.633V202.7H163.083V201.633H167.5ZM169.903 202.533V196.017H171.086V197.95H179.086V196.017H180.27V202.533H169.903ZM179.086 199.067H171.086V201.4H179.086V199.067ZM175.703 205.15V208.867H174.47V205.15H169.02V203.983H181.153V205.15H175.703ZM194.935 199.983H193.168V205.283H191.968V195.767H193.168V198.767H194.935V199.983ZM186.251 200.2C185.818 201.044 185.262 201.739 184.585 202.283C183.907 202.828 183.135 203.167 182.268 203.3V202.117C183.035 201.961 183.701 201.583 184.268 200.983C184.846 200.383 185.285 199.639 185.585 198.75C185.885 197.861 186.035 196.911 186.035 195.9L187.251 195.967C187.251 197.111 187.085 198.161 186.751 199.117L190.668 202.267L189.935 203.183L186.251 200.2ZM193.535 207.217V208.367H183.085V204.383H184.301V207.217H193.535ZM207.549 202.783H195.416V201.75H200.883V200.283H196.333V195.95H206.649V196.983H197.533V199.25H206.783V200.283H202.083V201.75H207.549V202.783ZM201.483 203.967C203.061 203.967 204.338 204.15 205.316 204.517C206.305 204.872 206.799 205.456 206.799 206.267C206.799 207.078 206.305 207.667 205.316 208.033C204.338 208.4 203.061 208.583 201.483 208.583C199.905 208.583 198.622 208.4 197.633 208.033C196.655 207.667 196.166 207.078 196.166 206.267C196.166 205.456 196.655 204.872 197.633 204.517C198.622 204.15 199.905 203.967 201.483 203.967ZM201.483 207.567C202.627 207.567 203.588 207.467 204.366 207.267C205.144 207.056 205.533 206.722 205.533 206.267C205.533 205.822 205.144 205.5 204.366 205.3C203.588 205.089 202.627 204.983 201.483 204.983C200.338 204.983 199.372 205.089 198.583 205.3C197.805 205.5 197.416 205.822 197.416 206.267C197.416 206.722 197.805 207.056 198.583 207.267C199.361 207.467 200.327 207.567 201.483 207.567ZM209.448 197.283V196.1H219.848V201.883H218.598V197.283H209.448ZM215.214 204.25V208.867H213.998V204.25H208.614V203.033H220.748V204.25H215.214ZM226.679 201.633V202.7H222.263V201.633H226.679ZM233.523 208H232.24V197.433H229.506V196.333H233.523V208ZM242.378 208.117C241.478 208.117 240.672 207.878 239.961 207.4C239.25 206.911 238.695 206.217 238.295 205.317C237.895 204.417 237.695 203.367 237.695 202.167C237.695 200.967 237.895 199.917 238.295 199.017C238.695 198.117 239.25 197.428 239.961 196.95C240.672 196.461 241.478 196.217 242.378 196.217C243.289 196.217 244.095 196.461 244.795 196.95C245.506 197.428 246.061 198.117 246.461 199.017C246.861 199.906 247.061 200.956 247.061 202.167C247.061 203.378 246.861 204.433 246.461 205.333C246.061 206.222 245.506 206.911 244.795 207.4C244.095 207.878 243.289 208.117 242.378 208.117ZM242.378 206.967C243.056 206.967 243.645 206.783 244.145 206.417C244.656 206.039 245.05 205.489 245.328 204.767C245.617 204.044 245.761 203.178 245.761 202.167C245.761 201.156 245.617 200.289 245.328 199.567C245.05 198.844 244.656 198.3 244.145 197.933C243.645 197.556 243.056 197.367 242.378 197.367C241.711 197.367 241.122 197.556 240.611 197.933C240.1 198.3 239.706 198.844 239.428 199.567C239.15 200.289 239.011 201.156 239.011 202.167C239.011 203.178 239.15 204.044 239.428 204.767C239.706 205.489 240.1 206.039 240.611 206.417C241.122 206.783 241.711 206.967 242.378 206.967ZM251.633 201.1C254.866 201.1 256.483 202.256 256.483 204.567C256.483 205.244 256.322 205.85 255.999 206.383C255.688 206.917 255.211 207.339 254.566 207.65C253.933 207.961 253.149 208.117 252.216 208.117C251.372 208.117 250.572 207.978 249.816 207.7C249.061 207.422 248.461 207.056 248.016 206.6L248.616 205.617C248.983 206.017 249.483 206.344 250.116 206.6C250.761 206.844 251.455 206.967 252.199 206.967C253.155 206.967 253.888 206.75 254.399 206.317C254.922 205.883 255.183 205.311 255.183 204.6C255.183 203.811 254.894 203.217 254.316 202.817C253.738 202.417 252.749 202.217 251.349 202.217H248.833L249.449 196.333H255.849V197.433H250.533L250.133 201.1H251.633ZM261.904 196.217C263.449 196.217 264.638 196.728 265.471 197.75C266.304 198.772 266.721 200.211 266.721 202.067C266.721 203.367 266.499 204.472 266.054 205.383C265.61 206.283 264.982 206.967 264.171 207.433C263.371 207.889 262.432 208.117 261.354 208.117C260.199 208.117 259.265 207.894 258.554 207.45L259.071 206.45C259.615 206.806 260.371 206.983 261.338 206.983C262.538 206.983 263.493 206.622 264.204 205.9C264.915 205.167 265.304 204.1 265.371 202.7L265.388 202.15C265.388 201.817 265.365 201.5 265.321 201.2C265.065 201.878 264.627 202.406 264.004 202.783C263.382 203.15 262.654 203.333 261.821 203.333C261.054 203.333 260.371 203.189 259.771 202.9C259.182 202.611 258.721 202.206 258.388 201.683C258.054 201.15 257.888 200.533 257.888 199.833C257.888 199.111 258.06 198.478 258.404 197.933C258.76 197.389 259.243 196.967 259.854 196.667C260.465 196.367 261.149 196.217 261.904 196.217ZM262.054 202.3C262.621 202.3 263.127 202.189 263.571 201.967C264.027 201.744 264.377 201.439 264.621 201.05C264.865 200.661 264.988 200.233 264.988 199.767C264.988 199.333 264.871 198.928 264.638 198.55C264.404 198.161 264.054 197.85 263.588 197.617C263.132 197.383 262.588 197.267 261.954 197.267C261.121 197.267 260.449 197.494 259.938 197.95C259.427 198.406 259.171 199.011 259.171 199.767C259.171 200.544 259.427 201.161 259.938 201.617C260.46 202.072 261.165 202.3 262.054 202.3ZM268.359 198.667V197.517H273.359V195.6H274.576V197.517H279.609V198.667H268.359ZM280.059 207.917H267.926V206.783H273.393V204.633C272.037 204.578 270.954 204.35 270.143 203.95C269.343 203.539 268.943 202.939 268.943 202.15C268.943 201.294 269.404 200.661 270.326 200.25C271.248 199.839 272.47 199.633 273.993 199.633C275.504 199.633 276.72 199.839 277.643 200.25C278.565 200.661 279.026 201.294 279.026 202.15C279.026 202.939 278.62 203.539 277.809 203.95C277.009 204.35 275.937 204.578 274.593 204.633V206.783H280.059V207.917ZM270.176 202.15C270.176 202.639 270.52 203 271.209 203.233C271.909 203.467 272.837 203.583 273.993 203.583C275.137 203.583 276.054 203.467 276.743 203.233C277.443 203 277.793 202.639 277.793 202.15C277.793 201.65 277.443 201.283 276.743 201.05C276.054 200.817 275.137 200.7 273.993 200.7C272.837 200.7 271.909 200.817 271.209 201.05C270.52 201.283 270.176 201.65 270.176 202.15Z" fill="white"/>
<path d="M3.84444 27.0667C3.08889 25.9111 2.51111 24.5778 2.11111 23.0667C1.71111 21.5556 1.51111 19.9407 1.51111 18.2222C1.51111 16.5037 1.71111 14.8815 2.11111 13.3556C2.52593 11.8296 3.1037 10.5037 3.84444 9.37778H6.31111C5.52593 10.7407 4.94815 12.1481 4.57778 13.6C4.22222 15.037 4.04444 16.5778 4.04444 18.2222C4.04444 19.8667 4.22222 21.4148 4.57778 22.8667C4.94815 24.3037 5.52593 25.7037 6.31111 27.0667H3.84444ZM15.1571 15.8444C14.283 16.7778 13.2016 17.5111 11.9127 18.0444C10.6386 18.563 9.27564 18.837 7.82378 18.8667V16.1778C9.20156 16.1185 10.4534 15.7704 11.5793 15.1333C12.7201 14.4963 13.5053 13.6593 13.9349 12.6222H8.11267V9.95555H22.6682V12.6222H17.046C16.9867 12.9185 16.8756 13.2593 16.7127 13.6444L23.2905 16.4222L22.2016 18.8667L15.1571 15.8444ZM16.8238 23.0444V27.1556H13.9793V23.0444H7.22378V20.3111H23.5793V23.0444H16.8238ZM24.5326 27.0667C25.3177 25.7037 25.8881 24.3037 26.2437 22.8667C26.5992 21.4148 26.777 19.8667 26.777 18.2222C26.777 16.5778 26.5992 15.037 26.2437 13.6C25.8881 12.1481 25.3177 10.7407 24.5326 9.37778H26.977C27.7326 10.5037 28.3103 11.8296 28.7103 13.3556C29.1103 14.8667 29.3103 16.4889 29.3103 18.2222C29.3103 19.9556 29.1103 21.5778 28.7103 23.0889C28.3103 24.6 27.7326 25.9259 26.977 27.0667H24.5326ZM47.4203 26.7556H44.7981V9.68889H47.4203V26.7556ZM43.3759 9.75556V26.4667H40.7536V19.2H39.3092C39.2203 21.5852 38.8499 23.3333 38.1981 24.4444C37.5462 25.5407 36.6203 26.0889 35.4203 26.0889C34.1166 26.0889 33.1388 25.4519 32.487 24.1778C31.8351 22.8889 31.5092 20.837 31.5092 18.0222C31.5092 15.2222 31.8351 13.1778 32.487 11.8889C33.1388 10.6 34.1166 9.95555 35.4203 9.95555C36.5759 9.95555 37.4796 10.4741 38.1314 11.5111C38.7833 12.5333 39.1685 14.1481 39.287 16.3556H40.7536V9.75556H43.3759ZM35.4203 23.4222C35.8648 23.4222 36.1907 22.9926 36.3981 22.1333C36.6055 21.2593 36.7092 19.8889 36.7092 18.0222C36.7092 16.1556 36.6055 14.7926 36.3981 13.9333C36.1907 13.0593 35.8648 12.6222 35.4203 12.6222C34.9611 12.6222 34.6277 13.0593 34.4203 13.9333C34.2129 14.7926 34.1092 16.1556 34.1092 18.0222C34.1092 19.8889 34.2129 21.2593 34.4203 22.1333C34.6277 22.9926 34.9611 23.4222 35.4203 23.4222ZM57.0846 15.9333C56.1217 17.3556 54.9661 18.4741 53.618 19.2889C52.2698 20.1037 50.8476 20.5185 49.3513 20.5333V17.7333C50.4476 17.7333 51.4995 17.3852 52.5069 16.6889C53.5143 15.9778 54.3661 15.0148 55.0624 13.8C55.7587 12.5704 56.2106 11.1926 56.418 9.66667L59.2846 10.1333C59.1069 11.3333 58.7809 12.4963 58.3069 13.6222L65.3069 18.2222L63.818 20.6L57.0846 15.9333ZM65.3957 23.3333V26.0889H49.0402V23.3333H65.3957ZM82.6156 26.7556H79.9934V9.68889H82.6156V26.7556ZM78.5712 9.75556V26.4667H75.949V19.2H74.5045C74.4156 21.5852 74.0453 23.3333 73.3934 24.4444C72.7416 25.5407 71.8156 26.0889 70.6156 26.0889C69.3119 26.0889 68.3341 25.4519 67.6823 24.1778C67.0304 22.8889 66.7045 20.837 66.7045 18.0222C66.7045 15.2222 67.0304 13.1778 67.6823 11.8889C68.3341 10.6 69.3119 9.95555 70.6156 9.95555C71.7712 9.95555 72.6749 10.4741 73.3267 11.5111C73.9786 12.5333 74.3638 14.1481 74.4823 16.3556H75.949V9.75556H78.5712ZM70.6156 23.4222C71.0601 23.4222 71.386 22.9926 71.5934 22.1333C71.8008 21.2593 71.9045 19.8889 71.9045 18.0222C71.9045 16.1556 71.8008 14.7926 71.5934 13.9333C71.386 13.0593 71.0601 12.6222 70.6156 12.6222C70.1564 12.6222 69.823 13.0593 69.6156 13.9333C69.4082 14.7926 69.3045 16.1556 69.3045 18.0222C69.3045 19.8889 69.4082 21.2593 69.6156 22.1333C69.823 22.9926 70.1564 23.4222 70.6156 23.4222ZM96.9466 26.7556V9.68889H99.7688V26.7556H96.9466ZM89.8355 9.95555C91.3911 9.95555 92.6133 10.6296 93.5022 11.9778C94.4059 13.3111 94.8577 15.3259 94.8577 18.0222C94.8577 20.7185 94.4059 22.7407 93.5022 24.0889C92.6133 25.4222 91.3911 26.0889 89.8355 26.0889C88.2651 26.0889 87.0281 25.4222 86.1244 24.0889C85.2355 22.7407 84.7911 20.7185 84.7911 18.0222C84.7911 15.3259 85.2355 13.3111 86.1244 11.9778C87.0281 10.6296 88.2651 9.95555 89.8355 9.95555ZM89.8355 12.6444C89.1392 12.6444 88.5837 13.0741 88.1688 13.9333C87.7688 14.7778 87.5688 16.1407 87.5688 18.0222C87.5688 19.9185 87.7688 21.2889 88.1688 22.1333C88.5837 22.9778 89.1392 23.4 89.8355 23.4C90.517 23.4 91.0651 22.9778 91.4799 22.1333C91.8948 21.2741 92.1022 19.9037 92.1022 18.0222C92.1022 16.1556 91.8948 14.7926 91.4799 13.9333C91.0651 13.0741 90.517 12.6444 89.8355 12.6444ZM102.766 18.4667V15.7111H114.366V12.8667H102.766V10.1111H117.189V21.8222H114.366V18.4667H102.766ZM118.189 26.0889H101.833V23.3333H107.478V20.2222H110.322V23.3333H118.189V26.0889ZM135.053 26.7556H132.253V18.9111H129.92V16.1333H132.253V9.68889H135.053V26.7556ZM128.809 23C129.712 22.8222 130.394 22.6148 130.853 22.3778V25.0222C130.379 25.2889 129.72 25.5037 128.875 25.6667C128.031 25.8148 127.149 25.8889 126.231 25.8889H119.675V23.2222H121.164V12.8222H119.764V10.1556H130.209V12.8222H128.809V23ZM124.92 23.2222C125.423 23.2222 125.801 23.2148 126.053 23.2V12.8222H123.92V23.2222H124.92ZM153.006 26.7556H150.384V9.68889H153.006V26.7556ZM148.962 9.75556V26.4667H146.34V19.0889H144.806V16.2889H146.34V9.75556H148.962ZM141.295 23.3778C142.051 23.3778 142.784 23.3259 143.495 23.2222C144.206 23.1037 144.821 22.9407 145.34 22.7333V25.2222C144.866 25.4296 144.236 25.5926 143.451 25.7111C142.666 25.8296 141.866 25.8889 141.051 25.8889H137.384V16.7333H141.473V12.6667H137.384V10.1556H144.073V19.2222H140.006V23.3778H141.295ZM167.337 26.7556V9.68889H170.159V26.7556H167.337ZM160.226 9.95555C161.782 9.95555 163.004 10.6296 163.893 11.9778C164.796 13.3111 165.248 15.3259 165.248 18.0222C165.248 20.7185 164.796 22.7407 163.893 24.0889C163.004 25.4222 161.782 26.0889 160.226 26.0889C158.656 26.0889 157.419 25.4222 156.515 24.0889C155.626 22.7407 155.182 20.7185 155.182 18.0222C155.182 15.3259 155.626 13.3111 156.515 11.9778C157.419 10.6296 158.656 9.95555 160.226 9.95555ZM160.226 12.6444C159.53 12.6444 158.974 13.0741 158.559 13.9333C158.159 14.7778 157.959 16.1407 157.959 18.0222C157.959 19.9185 158.159 21.2889 158.559 22.1333C158.974 22.9778 159.53 23.4 160.226 23.4C160.908 23.4 161.456 22.9778 161.871 22.1333C162.285 21.2741 162.493 19.9037 162.493 18.0222C162.493 16.1556 162.285 14.7926 161.871 13.9333C161.456 13.0741 160.908 12.6444 160.226 12.6444ZM182.202 17.0889V14.6667H185.09V13.3556H182.202V10.9333H185.09V9.68889H187.846V22.3556H185.09V17.0889H182.202ZM177.668 16.5778C177.002 17.6593 176.202 18.5259 175.268 19.1778C174.35 19.8148 173.327 20.1852 172.202 20.2889V17.5333C173.076 17.4148 173.846 16.9926 174.513 16.2667C175.179 15.5259 175.69 14.5926 176.046 13.4667C176.416 12.3259 176.609 11.0963 176.624 9.77778L179.468 9.95555C179.468 11.3926 179.239 12.8 178.779 14.1778L183.468 18.1333L181.735 20.1556L177.668 16.5778ZM188.113 26.6889H173.535V21H176.402V24.0444H188.113V26.6889Z" fill="white"/>
</svg>
