<svg width="307" height="37" viewBox="0 0 307 37" fill="none" xmlns="http://www.w3.org/2000/svg">
<path d="M1.66667 17.3667V10.2556H15.9333V17.3667H1.66667ZM4.44444 12.5889V15.0111H13.1333V12.5889H4.44444ZM16.9778 21.0333H10.2V23.5222H7.37778V21.0333H0.622222V18.5889H16.9778V21.0333ZM16.2 24.7222V27.1889H1.62222V22.1667H4.48889V24.7222H16.2ZM30.9977 27.2556V10.1889H33.7754V27.2556H30.9977ZM23.8421 10.3667C24.8199 10.3667 25.694 10.5963 26.4643 11.0556C27.2495 11.5148 27.8569 12.1593 28.2865 12.9889C28.731 13.8185 28.9532 14.7741 28.9532 15.8556C28.9532 16.937 28.731 17.9 28.2865 18.7444C27.8569 19.5741 27.2495 20.2185 26.4643 20.6778C25.694 21.137 24.8199 21.3667 23.8421 21.3667C22.8495 21.3667 21.9606 21.137 21.1754 20.6778C20.3902 20.2185 19.7754 19.5741 19.331 18.7444C18.9014 17.9 18.6865 16.937 18.6865 15.8556C18.6865 14.7741 18.9014 13.8185 19.331 12.9889C19.7754 12.1593 20.3902 11.5148 21.1754 11.0556C21.9606 10.5963 22.8495 10.3667 23.8421 10.3667ZM23.8421 13.0111C23.1014 13.0111 22.5088 13.2852 22.0643 13.8333C21.6347 14.3667 21.4199 15.0407 21.4199 15.8556C21.4199 16.7 21.6347 17.3889 22.0643 17.9222C22.5088 18.4407 23.1014 18.7 23.8421 18.7C24.568 18.7 25.1532 18.4333 25.5977 17.9C26.0421 17.3667 26.2643 16.6852 26.2643 15.8556C26.2643 15.0407 26.0421 14.3667 25.5977 13.8333C25.1532 13.2852 24.568 13.0111 23.8421 13.0111ZM29.931 25.6556C29.4273 25.8926 28.7606 26.0778 27.931 26.2111C27.1014 26.3296 26.2125 26.3889 25.2643 26.3889H18.2199V23.6333H25.3754C26.2791 23.6333 27.131 23.5741 27.931 23.4556C28.7458 23.337 29.4125 23.1593 29.931 22.9222V25.6556ZM46.7064 12.4111V15.1222H36.1731V12.4111H39.9953V10.1222H42.862V12.4111H46.7064ZM50.8842 19.4778V27.2556H48.0842V10.1889H50.8842V16.6333H52.9064V19.4778H50.8842ZM41.4398 16.0333C42.3583 16.0333 43.1657 16.263 43.862 16.7222C44.5731 17.1667 45.1212 17.7889 45.5064 18.5889C45.8916 19.3889 46.0842 20.2926 46.0842 21.3C46.0842 22.3222 45.8916 23.2333 45.5064 24.0333C45.1212 24.8333 44.5731 25.463 43.862 25.9222C43.1657 26.3667 42.3583 26.5889 41.4398 26.5889C40.5064 26.5889 39.6842 26.3667 38.9731 25.9222C38.2768 25.463 37.7361 24.8333 37.3509 24.0333C36.9657 23.2333 36.7731 22.3222 36.7731 21.3C36.7731 20.2926 36.9657 19.3889 37.3509 18.5889C37.7361 17.7889 38.2768 17.1667 38.9731 16.7222C39.6842 16.263 40.5064 16.0333 41.4398 16.0333ZM41.4398 24.0556C42.0323 24.0556 42.5064 23.8037 42.862 23.3C43.2175 22.7963 43.3953 22.1296 43.3953 21.3C43.3953 20.4704 43.2175 19.8111 42.862 19.3222C42.5064 18.8185 42.0323 18.5667 41.4398 18.5667C40.8323 18.5667 40.3509 18.8185 39.9953 19.3222C39.6398 19.8111 39.462 20.4704 39.462 21.3C39.462 22.1296 39.6398 22.7963 39.9953 23.3C40.3657 23.8037 40.8472 24.0556 41.4398 24.0556ZM66.1263 27.2556V10.1889H68.9485V27.2556H66.1263ZM63.3485 15.1222C63.3485 17.4037 62.9707 19.3963 62.2152 21.1C61.4596 22.7889 60.3782 24.0926 58.9707 25.0111C57.5782 25.9148 55.9485 26.3667 54.0819 26.3667V23.5667C55.43 23.5667 56.5782 23.2259 57.5263 22.5444C58.4745 21.863 59.193 20.8926 59.6819 19.6333C60.1856 18.3593 60.4374 16.863 60.4374 15.1444V13.3444H54.0819V10.6556H63.3485V15.1222Z" fill="white"/>
</svg>
