<svg width="169" height="41" viewBox="0 0 169 41" fill="none" xmlns="http://www.w3.org/2000/svg">
<path d="M14.6008 26.221L19.2777 20.5727H13.8044C11.7743 20.5727 9.79111 21.0243 8.34665 22.2718L7.93283 22.7693V4.40843H2.3658C1.06188 4.40843 0 5.44931 0 6.73511V41H5.56704C6.87096 41 7.93283 39.9591 7.93283 38.6733V29.558L12.438 34.9843L16.2717 39.6071C17.0447 40.5561 18.0597 41 19.1059 41H26.867L21.8465 34.9614L14.6086 26.221H14.6008ZM36.8065 32.4357V20.5727H28.8658V33.8975C28.8658 38.0993 31.825 40.9924 36.1116 40.9924H42.2174C43.5291 40.9924 44.591 39.9515 44.591 38.6657V34.5251H38.9302C37.759 34.5251 36.8065 33.5914 36.8065 32.4357ZM45.9183 16.3862V11.2201L45.4264 11.7329C45.4108 11.7482 43.9195 13.2406 39.6407 13.2406H36.8065V4.40843H31.2394C29.9277 4.40843 28.8658 5.44931 28.8658 6.72745V13.233H19.4183C16.2248 13.233 14.7257 14.5035 13.5779 15.8811L8.93225 21.4911C8.93225 21.4911 11.1263 19.4553 14.3509 19.4553H39.6486C42.4204 19.4553 44.3177 18.9195 45.2937 17.871C45.9886 17.121 45.9261 16.3862 45.9261 16.3786L45.9183 16.3862Z" fill="black"/>
<path d="M45.9183 16.4016V11.2354L45.4264 11.7482C45.4108 11.7635 43.9195 13.2559 39.6407 13.2559H19.4183C16.2248 13.2559 14.7257 14.5264 13.578 15.9041L8.93225 21.5141C8.93225 21.5141 11.1263 19.4783 14.3509 19.4783H39.6486C42.4204 19.4783 44.3177 18.9425 45.2937 17.894C45.9886 17.1439 45.9261 16.4092 45.9261 16.4016H45.9183Z" fill="#E61F19"/>
<path d="M72.8468 4.49263V38.0611H52.5853V4.49263H58.613V15.7433H66.8113V4.49263H72.839H72.8468ZM66.8191 21.4682H58.6208V32.2979H66.8191V21.4682ZM83.9419 23.3586V39.9056H77.8673V3.59717H83.9419V17.3123H88.3299V23.3663H83.9419V23.3586Z" fill="black"/>
<path d="M164.738 38.4897H89.4464V32.7648H104.11V27.7977H91.5233V13.5162H116.844V10.1103H91.4765V4.57683H122.927V18.8048H97.6057V22.3024H123.317V27.79H110.247V32.7572H164.754V38.482L164.738 38.4897Z" fill="#FF0000"/>
<path d="M135.794 27.989H154.416V31.1576H160.35V20.19H154.416V23.0754H135.794V20.19H129.72V31.1576H135.794V27.989Z" fill="black"/>
<path d="M139.8 12.0543L149.302 18.2919L152.441 13.7993L142.407 7.41626C143.149 5.24266 143.516 2.95425 143.516 0.558693L137.387 0.18367C137.387 2.48739 136.981 4.56149 136.185 6.4213C135.38 8.28111 134.248 9.80417 132.788 10.9828C131.328 12.1615 129.61 12.8809 127.651 13.1335V18.7588C130.157 18.5675 132.452 17.894 134.521 16.723C136.598 15.5596 138.355 13.9983 139.8 12.039V12.0543Z" fill="black"/>
<path d="M164.738 7.75303V2.50271H160.35V0H154.268V18.8201H160.35V16.1719H164.738V10.9216H160.35V7.75303H164.738Z" fill="black"/>
<path d="M163.278 40.602V30.6524L168.353 35.6272L163.278 40.602Z" fill="#FF0000"/>
</svg>
