<svg width="111" height="27" viewBox="0 0 111 27" fill="none" xmlns="http://www.w3.org/2000/svg">
<path d="M9.61634 17.2646L12.6966 13.5445H9.09181C7.75478 13.5445 6.4486 13.8419 5.49725 14.6636L5.2247 14.9912V2.89844H1.55815C0.69937 2.89844 0 3.58398 0 4.43083V26.9983H3.66655C4.52533 26.9983 5.2247 26.3127 5.2247 25.4659V19.4624L8.19188 23.0363L10.7168 26.0809C11.2259 26.7059 11.8944 26.9983 12.5835 26.9983H17.6951L14.3885 23.0211L9.62148 17.2646H9.61634ZM24.2414 21.3577V13.5445H19.0115V22.3205C19.0115 25.0878 20.9605 26.9933 23.7837 26.9933H27.8051C28.669 26.9933 29.3684 26.3077 29.3684 25.4609V22.7338H25.6401C24.8688 22.7338 24.2414 22.1188 24.2414 21.3577ZM30.2426 10.7872V7.38471L29.9186 7.72244C29.9083 7.73252 28.9261 8.71547 26.1081 8.71547H24.2414V2.89844H20.5748C19.7109 2.89844 19.0115 3.58398 19.0115 4.42579V8.71043H12.7892C10.686 8.71043 9.69861 9.54719 8.94268 10.4545L5.88293 14.1494C5.88293 14.1494 7.32796 12.8086 9.45178 12.8086H26.1132C27.9388 12.8086 29.1884 12.4557 29.8312 11.7651C30.2889 11.2711 30.2477 10.7872 30.2477 10.7822L30.2426 10.7872Z" fill="white"/>
<path d="M30.2425 10.797V7.39453L29.9185 7.73226C29.9082 7.74234 28.926 8.72529 26.108 8.72529H12.7891C10.6858 8.72529 9.69849 9.56206 8.94256 10.4694L5.88281 14.1643C5.88281 14.1643 7.32783 12.8234 9.45166 12.8234H26.1131C27.9387 12.8234 29.1883 12.4706 29.8311 11.78C30.2888 11.286 30.2476 10.8021 30.2476 10.797H30.2425Z" fill="#FD3941"/>
<path d="M47.9781 2.95696V25.0657H34.6335V2.95696H38.6035V10.3669H44.003V2.95696H47.973H47.9781ZM44.0082 14.1374H38.6086V21.27H44.0082V14.1374ZM55.2855 15.3824V26.2805H51.2847V2.36719H55.2855V11.4002H58.1756V15.3875H55.2855V15.3824Z" fill="white"/>
<path d="M108.499 25.3473H58.9106V21.5768H68.5681V18.3054H60.2785V8.89932H76.9554V6.65618H60.2477V3.01172H80.9614V12.3825H64.2845V14.6861H81.2185V18.3003H72.6101V21.5718H108.509V25.3423L108.499 25.3473Z" fill="#FD3941"/>
<path d="M89.4361 18.4373H101.701V20.5242H105.609V13.3008H101.701V15.2011H89.4361V13.3008H85.4353V20.5242H89.4361V18.4373Z" fill="white"/>
<path d="M92.0741 7.93931L98.3325 12.0475L100.4 9.0886L93.7917 4.88461C94.2802 3.45303 94.5219 1.94585 94.5219 0.368091L90.4851 0.121094C90.4851 1.63836 90.2177 3.00441 89.6932 4.22931C89.1635 5.45421 88.4179 6.45732 87.4562 7.2336C86.4946 8.00988 85.3633 8.48371 84.0725 8.65005V12.355C85.7232 12.229 87.2351 11.7854 88.5978 11.0142C89.9657 10.248 91.1228 9.21966 92.0741 7.92922V7.93931Z" fill="white"/>
<path d="M108.5 5.10629V1.64833H105.61V0H101.604V12.3952H105.61V10.6511H108.5V7.19316H105.61V5.10629H108.5Z" fill="white"/>
<path d="M107.537 26.7405V20.1875L110.879 23.464L107.537 26.7405Z" fill="#FD3941"/>
</svg>
