<svg width="136" height="34" viewBox="0 0 136 34" fill="none" xmlns="http://www.w3.org/2000/svg">
<path d="M11.795 21.7537L15.5732 17.1908H11.1516C9.51167 17.1908 7.90957 17.5556 6.74269 18.5634L6.4084 18.9653V4.13281H1.91117C0.857817 4.13281 0 4.97367 0 6.01238V33.6926H4.49723C5.55058 33.6926 6.4084 32.8518 6.4084 31.8131V24.4494L10.0478 28.833L13.1448 32.5674C13.7692 33.334 14.5892 33.6926 15.4344 33.6926H21.704L17.6483 28.8144L11.8013 21.7537H11.795ZM29.7334 26.7741V17.1908H23.3187V27.955C23.3187 31.3494 25.7093 33.6865 29.1721 33.6865H34.1045C35.1642 33.6865 36.022 32.8456 36.022 31.8069V28.462H31.4491C30.503 28.462 29.7334 27.7077 29.7334 26.7741ZM37.0943 13.8089V9.63548L36.6969 10.0497C36.6843 10.0621 35.4796 11.2677 32.0231 11.2677H29.7334V4.13281H25.2362C24.1766 4.13281 23.3187 4.97367 23.3187 6.00619V11.2616H15.6867C13.1069 11.2616 11.8959 12.2879 10.9687 13.4008L7.21575 17.9328C7.21575 17.9328 8.98815 16.2881 11.5931 16.2881H32.0294C34.2685 16.2881 35.8012 15.8554 36.5897 15.0083C37.151 14.4024 37.1006 13.8089 37.1006 13.8027L37.0943 13.8089Z" fill="black"/>
<path d="M37.0941 13.8179V9.64453L36.6967 10.0588C36.6841 10.0711 35.4794 11.2768 32.0229 11.2768H15.6865C13.1068 11.2768 11.8957 12.3031 10.9685 13.416L7.21558 17.948C7.21558 17.948 8.98798 16.3034 11.593 16.3034H32.0292C34.2683 16.3034 35.8011 15.8706 36.5895 15.0235C37.1509 14.4176 37.1004 13.8241 37.1004 13.8179H37.0941Z" fill="#E61F19"/>
<path d="M58.8481 4.20385V31.3215H42.4802V4.20385H47.3496V13.2925H53.9724V4.20385H58.8418H58.8481ZM53.9788 17.9172H47.3559V26.6659H53.9788V17.9172ZM67.811 19.4444V32.8115H62.9038V3.48047H67.811V14.56H71.3559V19.4506H67.811V19.4444Z" fill="black"/>
<path d="M133.081 31.6615H72.2576V27.0368H84.103V23.0242H73.9354V11.4871H94.3905V8.73577H73.8975V4.26562H99.304V15.7594H78.8489V18.5849H99.6194V23.018H89.0607V27.0306H133.093V31.6553L133.081 31.6615Z" fill="#FF0000"/>
<path d="M109.698 23.187H124.742V25.7466H129.535V16.8867H124.742V19.2176H109.698V16.8867H104.791V25.7466H109.698V23.187Z" fill="black"/>
<path d="M112.934 10.3121L120.611 15.3511L123.146 11.7218L115.041 6.56538C115.64 4.80947 115.937 2.96082 115.937 1.02561L110.985 0.722656C110.985 2.58367 110.657 4.2592 110.014 5.76162C109.364 7.26403 108.45 8.4944 107.27 9.44655C106.091 10.3987 104.703 10.9799 103.12 11.1839V15.7282C105.145 15.5737 106.999 15.0296 108.67 14.0836C110.348 13.1438 111.767 11.8826 112.934 10.2998V10.3121Z" fill="black"/>
<path d="M133.081 6.83737V2.59599H129.537V0.574219H124.623V15.7777H129.537V13.6384H133.081V9.39704H129.537V6.83737H133.081Z" fill="black"/>
<path d="M131.9 33.3735V25.3359L136 29.3547L131.9 33.3735Z" fill="#FF0000"/>
</svg>
