<svg width="230" height="80" viewBox="0 0 230 80" fill="none" xmlns="http://www.w3.org/2000/svg">
<path d="M37.2337 26.1111C36.9671 27.2667 36.3893 28.1852 35.5004 28.8667C34.6115 29.5481 33.5078 29.8889 32.1893 29.8889C31.1671 29.8889 30.2634 29.6815 29.4782 29.2667C28.693 28.837 28.0782 28.2444 27.6337 27.4889C27.2041 26.7185 26.9893 25.8296 26.9893 24.8222C26.9893 23.8296 27.2041 22.9481 27.6337 22.1778C28.0782 21.4074 28.693 20.8148 29.4782 20.4C30.2634 19.9704 31.1671 19.7556 32.1893 19.7556C33.4782 19.7556 34.5596 20.0815 35.4337 20.7333C36.3226 21.3704 36.9152 22.237 37.2115 23.3333H39.8559V19.6889H42.6559V32.3556H39.8559V26.1111H37.2337ZM29.7893 24.8222C29.7893 25.637 30.0041 26.2741 30.4337 26.7333C30.8782 27.1926 31.4634 27.4222 32.1893 27.4222C32.9152 27.4222 33.493 27.1926 33.9226 26.7333C34.3671 26.2741 34.5893 25.637 34.5893 24.8222C34.5893 24.0074 34.3671 23.3704 33.9226 22.9111C33.493 22.4519 32.9152 22.2222 32.1893 22.2222C31.4634 22.2222 30.8782 22.4519 30.4337 22.9111C30.0041 23.3704 29.7893 24.0074 29.7893 24.8222ZM42.9226 36.6889H28.5448V30.8222H31.3893V34.0444H42.9226V36.6889ZM60.6092 36.7556H57.9869V19.6889H60.6092V36.7556ZM56.4758 19.7556V36.4667H53.8536V28.6667H51.6314V25.8889H53.8536V19.7556H56.4758ZM50.2092 22.8222C50.1795 24.4815 50.0906 25.9778 49.9425 27.3111L53.7203 34.3333L51.498 35.6444L49.1425 31.1778C48.698 32.6593 48.098 33.8 47.3425 34.6C46.6017 35.3852 45.7129 35.8148 44.6758 35.8889V33C45.5499 32.8222 46.2388 31.837 46.7425 30.0444C47.2462 28.237 47.5129 25.8296 47.5425 22.8222H44.9869V20.1556H52.6536V22.8222H50.2092ZM66.0957 22.1111V24.4889H77.7179V26.8444H63.2735V19.7556H77.5401V22.1111H66.0957ZM62.229 30.6V28.1556H78.5846V30.6H62.229ZM77.8068 34.2V36.6889H63.229V31.6444H66.0957V34.2H77.8068ZM95.3323 27.9556V25.5111H97.0879V23.9778H95.3323V21.5333H97.0879V19.6889H99.8434V32.3778H97.0879V27.9556H95.3323ZM94.999 29.5111C94.5546 29.6741 93.9397 29.8 93.1546 29.8889C92.3842 29.9778 91.5546 30.0222 90.6657 30.0222H84.3546V27.5778H85.8434V22.4H84.4434V19.9556H94.6879V22.4H93.2657V27.4667C93.9768 27.3926 94.5546 27.2741 94.999 27.1111V29.5111ZM90.5768 27.5556V22.4H88.5101V27.5778H89.4434L90.5768 27.5556ZM100.11 36.6889H85.5323V31.2H88.399V34.0667H100.11V36.6889ZM112.708 21.9111V24.6222H102.174V21.9111H105.997V19.6222H108.863V21.9111H112.708ZM116.886 28.9778V36.7556H114.086V19.6889H116.886V26.1333H118.908V28.9778H116.886ZM107.441 25.5333C108.36 25.5333 109.167 25.763 109.863 26.2222C110.574 26.6667 111.123 27.2889 111.508 28.0889C111.893 28.8889 112.086 29.7926 112.086 30.8C112.086 31.8222 111.893 32.7333 111.508 33.5333C111.123 34.3333 110.574 34.963 109.863 35.4222C109.167 35.8667 108.36 36.0889 107.441 36.0889C106.508 36.0889 105.686 35.8667 104.974 35.4222C104.278 34.963 103.737 34.3333 103.352 33.5333C102.967 32.7333 102.774 31.8222 102.774 30.8C102.774 29.7926 102.967 28.8889 103.352 28.0889C103.737 27.2889 104.278 26.6667 104.974 26.2222C105.686 25.763 106.508 25.5333 107.441 25.5333ZM107.441 33.5556C108.034 33.5556 108.508 33.3037 108.863 32.8C109.219 32.2963 109.397 31.6296 109.397 30.8C109.397 29.9704 109.219 29.3111 108.863 28.8222C108.508 28.3185 108.034 28.0667 107.441 28.0667C106.834 28.0667 106.352 28.3185 105.997 28.8222C105.641 29.3111 105.463 29.9704 105.463 30.8C105.463 31.6296 105.641 32.2963 105.997 32.8C106.367 33.3037 106.849 33.5556 107.441 33.5556ZM135.394 36.7556H132.728V19.6889H135.394V36.7556ZM131.217 19.7556V36.4667H128.55V28.9333H126.35C125.891 31.1556 125.068 32.8667 123.883 34.0667C122.698 35.2667 121.305 35.8667 119.705 35.8667V33.1111C120.579 33.0519 121.335 32.7111 121.972 32.0889C122.624 31.4667 123.128 30.5704 123.483 29.4C123.839 28.2296 124.017 26.837 124.017 25.2222V22.8222H119.705V20.1556H126.705V25.0889L126.683 26.1333H128.55V19.7556H131.217ZM158.498 25.3111H156.475V29.0889H153.675V19.6889H156.475V22.5111H158.498V25.3111ZM147.075 25.5111C146.409 26.5037 145.594 27.2963 144.631 27.8889C143.668 28.4815 142.594 28.8296 141.409 28.9333V26.2889C142.312 26.1556 143.098 25.7926 143.764 25.2C144.446 24.6074 144.972 23.8444 145.342 22.9111C145.712 21.9778 145.898 20.9333 145.898 19.7778L148.72 19.9556C148.72 21.1556 148.549 22.2593 148.209 23.2667L152.809 26.3778L151.386 28.4889L147.075 25.5111ZM149.453 29.4444C151.646 29.4444 153.394 29.7407 154.698 30.3333C156.001 30.9259 156.653 31.8667 156.653 33.1556C156.653 34.4593 156.001 35.4074 154.698 36C153.394 36.5926 151.646 36.8889 149.453 36.8889C147.275 36.8889 145.527 36.5926 144.209 36C142.905 35.4074 142.253 34.4593 142.253 33.1556C142.253 31.8667 142.905 30.9259 144.209 30.3333C145.527 29.7407 147.275 29.4444 149.453 29.4444ZM149.453 34.5333C150.698 34.5333 151.705 34.4222 152.475 34.2C153.246 33.963 153.631 33.6148 153.631 33.1556C153.631 32.6963 153.246 32.3556 152.475 32.1333C151.705 31.9111 150.698 31.8 149.453 31.8C148.209 31.8 147.201 31.9111 146.431 32.1333C145.661 32.3556 145.275 32.6963 145.275 33.1556C145.275 33.6148 145.661 33.963 146.431 34.2C147.201 34.4222 148.209 34.5333 149.453 34.5333ZM174.073 25.5778V28.9333H171.273V19.6889H174.073V22.7333H176.095V25.5778H174.073ZM170.384 27.6667C169.94 27.8593 169.332 28.0148 168.562 28.1333C167.792 28.2519 166.969 28.3111 166.095 28.3111H159.429V19.9556H169.384V22.4H162.229V25.8667H166.229C167.073 25.8667 167.858 25.8148 168.584 25.7111C169.325 25.6074 169.925 25.4593 170.384 25.2667V27.6667ZM174.073 29.6444V36.6889H159.962V29.6444H174.073ZM171.273 34.2444V32.0889H162.784V34.2444H171.273ZM192.582 36.7556H189.982V19.6889H192.582V36.7556ZM188.582 19.7556V36.4667H186.004V32.3111H184.048C183.782 33.6148 183.352 34.5704 182.76 35.1778C182.182 35.7852 181.441 36.0889 180.537 36.0889C179.248 36.0889 178.278 35.4519 177.626 34.1778C176.989 32.8889 176.671 30.837 176.671 28.0222C176.671 25.2074 176.989 23.163 177.626 21.8889C178.278 20.6 179.248 19.9556 180.537 19.9556C182.226 19.9556 183.36 21.0444 183.937 23.2222H186.004V19.7556H188.582ZM180.537 33.4444C180.997 33.4444 181.323 33.0148 181.515 32.1556C181.723 31.2815 181.826 29.9037 181.826 28.0222C181.826 26.1407 181.723 24.7704 181.515 23.9111C181.323 23.0519 180.997 22.6222 180.537 22.6222C180.078 22.6222 179.745 23.0519 179.537 23.9111C179.345 24.7704 179.248 26.1407 179.248 28.0222C179.248 29.9037 179.345 31.2815 179.537 32.1556C179.745 33.0148 180.078 33.4444 180.537 33.4444ZM186.004 25.9556H184.337C184.397 26.5037 184.426 27.1926 184.426 28.0222C184.426 28.7333 184.411 29.2519 184.382 29.5778H186.004V25.9556ZM209.268 25.3556H211.291V27.8667H209.268V29.8444H206.468V19.6889H209.268V21.2H211.291V23.7333H209.268V25.3556ZM199.246 29.4667C198.224 29.4667 197.32 29.2593 196.535 28.8444C195.75 28.4296 195.142 27.8593 194.713 27.1333C194.283 26.3926 194.068 25.5481 194.068 24.6C194.068 23.6667 194.283 22.837 194.713 22.1111C195.142 21.3704 195.75 20.7926 196.535 20.3778C197.32 19.963 198.224 19.7556 199.246 19.7556C200.254 19.7556 201.15 19.963 201.935 20.3778C202.72 20.7926 203.328 21.3704 203.757 22.1111C204.187 22.837 204.402 23.6667 204.402 24.6C204.402 25.5481 204.187 26.3926 203.757 27.1333C203.328 27.8593 202.72 28.4296 201.935 28.8444C201.15 29.2593 200.254 29.4667 199.246 29.4667ZM199.246 22.2C198.535 22.2 197.957 22.4148 197.513 22.8444C197.083 23.2741 196.868 23.8593 196.868 24.6C196.868 25.3407 197.083 25.9333 197.513 26.3778C197.957 26.8074 198.535 27.0222 199.246 27.0222C199.957 27.0222 200.528 26.8074 200.957 26.3778C201.402 25.9333 201.624 25.3407 201.624 24.6C201.624 23.8593 201.402 23.2741 200.957 22.8444C200.528 22.4148 199.957 22.2 199.246 22.2ZM209.268 30.5556V36.8889H206.424V33.0889H195.268V30.5556H209.268Z" fill="white"/>
<path d="M35.7782 58.3478H27.1115V56.8145L31.6948 52.4312C32.2059 51.9423 32.5504 51.5256 32.7282 51.1812C32.9059 50.8256 32.9948 50.4701 32.9948 50.1145C32.9948 49.6034 32.8171 49.2034 32.4615 48.9145C32.1171 48.6256 31.6059 48.4812 30.9282 48.4812C29.8059 48.4812 28.9393 48.8867 28.3282 49.6978L26.6282 48.5645C27.0837 47.9201 27.7004 47.4145 28.4782 47.0478C29.2559 46.6812 30.1448 46.4978 31.1448 46.4978C31.9893 46.4978 32.7282 46.6367 33.3615 46.9145C33.9948 47.1812 34.4837 47.5701 34.8282 48.0812C35.1837 48.5923 35.3615 49.1923 35.3615 49.8812C35.3615 50.5034 35.2282 51.0923 34.9615 51.6478C34.6948 52.2034 34.1837 52.8367 33.4282 53.5478L30.4282 56.4145H35.7782V58.3478ZM44.933 55.7478V58.3478H42.6497V55.7478H36.2997V54.1645L41.9497 46.6812H44.433L39.1164 53.8145H42.7164V51.5145H44.933V53.8145H46.9497V55.7478H44.933ZM58.5379 58.9145H56.4213V46.1145H58.5379V58.9145ZM52.6546 46.4478C52.6546 48.2812 52.4935 50.0034 52.1713 51.6145L55.8879 56.9645L54.1713 58.2478L51.4379 54.1812C50.949 55.4701 50.3268 56.4645 49.5713 57.1645C48.8157 57.8645 47.9713 58.2312 47.0379 58.2645V55.9978C47.7268 55.8978 48.3324 55.4256 48.8546 54.5812C49.3768 53.7367 49.7824 52.6034 50.0713 51.1812C50.3602 49.759 50.5046 48.159 50.5046 46.3812L52.6546 46.4478ZM72.9028 50.9478H71.3862V55.5978H69.2862V46.1145H71.3862V48.8145H72.9028V50.9478ZM67.5195 48.2645C67.5195 49.4645 67.214 50.4756 66.6028 51.2978C65.9917 52.1201 65.1473 52.7367 64.0695 53.1478C62.9917 53.5478 61.7473 53.7478 60.3362 53.7478V51.7812C61.3473 51.7701 62.2306 51.6423 62.9862 51.3978C63.7417 51.1423 64.3251 50.7812 64.7362 50.3145C65.1584 49.8367 65.3695 49.2701 65.3695 48.6145V48.2312H60.3362V46.3145H67.5195V48.2645ZM71.6195 56.8812V58.8645H60.8028V54.5478H62.9528V56.8812H71.6195ZM86.1136 58.9145V46.1145H88.2303V58.9145H86.1136ZM80.7803 46.3145C81.947 46.3145 82.8636 46.8201 83.5303 47.8312C84.2081 48.8312 84.547 50.3423 84.547 52.3645C84.547 54.3867 84.2081 55.9034 83.5303 56.9145C82.8636 57.9145 81.947 58.4145 80.7803 58.4145C79.6025 58.4145 78.6748 57.9145 77.997 56.9145C77.3303 55.9034 76.997 54.3867 76.997 52.3645C76.997 50.3423 77.3303 48.8312 77.997 47.8312C78.6748 46.8201 79.6025 46.3145 80.7803 46.3145ZM80.7803 48.3312C80.2581 48.3312 79.8414 48.6534 79.5303 49.2978C79.2303 49.9312 79.0803 50.9534 79.0803 52.3645C79.0803 53.7867 79.2303 54.8145 79.5303 55.4478C79.8414 56.0812 80.2581 56.3978 80.7803 56.3978C81.2914 56.3978 81.7025 56.0812 82.0136 55.4478C82.3248 54.8034 82.4803 53.7756 82.4803 52.3645C82.4803 50.9645 82.3248 49.9423 82.0136 49.2978C81.7025 48.6534 81.2914 48.3312 80.7803 48.3312ZM102.045 53.5312H89.7786V51.8145H92.1619V50.4978C90.9952 50.0645 90.4119 49.3978 90.4119 48.4978C90.4119 47.6312 90.9119 46.9867 91.9119 46.5645C92.9119 46.1423 94.2452 45.9312 95.9119 45.9312C97.5674 45.9312 98.8952 46.1423 99.8952 46.5645C100.906 46.9867 101.412 47.6312 101.412 48.4978C101.412 49.3978 100.829 50.0645 99.6619 50.4978V51.8145H102.045V53.5312ZM95.9119 47.6145C94.9119 47.6145 94.1174 47.6867 93.5286 47.8312C92.9397 47.9756 92.6452 48.1978 92.6452 48.4978C92.6452 48.7978 92.9397 49.0201 93.5286 49.1645C94.1174 49.2978 94.9119 49.3645 95.9119 49.3645C96.9119 49.3645 97.7008 49.2978 98.2786 49.1645C98.8674 49.0201 99.1619 48.7978 99.1619 48.4978C99.1619 48.1978 98.8674 47.9756 98.2786 47.8312C97.7008 47.6867 96.9119 47.6145 95.9119 47.6145ZM97.5619 51.8145V50.9645C97.1508 51.0201 96.6008 51.0478 95.9119 51.0478C95.2341 51.0478 94.6841 51.0201 94.2619 50.9645V51.8145H97.5619ZM95.9119 54.1312C99.5674 54.1312 101.395 54.9478 101.395 56.5812C101.395 57.4478 100.906 58.0701 99.9286 58.4478C98.9508 58.8367 97.6119 59.0312 95.9119 59.0312C94.2119 59.0312 92.8674 58.8367 91.8786 58.4478C90.9008 58.059 90.4119 57.4367 90.4119 56.5812C90.4119 54.9478 92.2452 54.1312 95.9119 54.1312ZM95.9119 57.3645C98.0786 57.3645 99.1619 57.1034 99.1619 56.5812C99.1619 56.059 98.0786 55.7978 95.9119 55.7978C94.9119 55.7978 94.1174 55.859 93.5286 55.9812C92.9397 56.1034 92.6452 56.3034 92.6452 56.5812C92.6452 56.859 92.9397 57.059 93.5286 57.1812C94.1174 57.3034 94.9119 57.3645 95.9119 57.3645ZM117.573 53.0812V58.9145H115.473V46.1145H117.573V50.9478H119.089V53.0812H117.573ZM113.456 46.4645V49.8145C113.456 51.5256 113.178 53.0145 112.623 54.2812C112.078 55.5478 111.289 56.5256 110.256 57.2145C109.234 57.9034 108.028 58.2478 106.639 58.2478V56.1478C108.139 56.1478 109.289 55.5923 110.089 54.4812C110.9 53.359 111.306 51.809 111.306 49.8312V48.4812H106.639V46.4645H113.456ZM131.088 49.0312V50.7478H120.254V46.0478H122.354V49.0312H131.088ZM119.471 53.3645V51.6478H131.738V53.3645H119.471ZM125.604 54.0978C127.304 54.0978 128.643 54.2923 129.621 54.6812C130.599 55.0701 131.088 55.6978 131.088 56.5645C131.088 57.4312 130.599 58.059 129.621 58.4478C128.643 58.8367 127.304 59.0312 125.604 59.0312C123.904 59.0312 122.56 58.8367 121.571 58.4478C120.593 58.059 120.104 57.4312 120.104 56.5645C120.104 55.6978 120.593 55.0701 121.571 54.6812C122.56 54.2923 123.904 54.0978 125.604 54.0978ZM125.604 55.7645C124.615 55.7645 123.821 55.8312 123.221 55.9645C122.632 56.0867 122.338 56.2867 122.338 56.5645C122.338 56.8423 122.632 57.0478 123.221 57.1812C123.821 57.3034 124.615 57.3645 125.604 57.3645C126.593 57.3645 127.382 57.3034 127.971 57.1812C128.56 57.0478 128.854 56.8423 128.854 56.5645C128.854 56.2867 128.56 56.0867 127.971 55.9645C127.382 55.8312 126.593 55.7645 125.604 55.7645Z" fill="white" fill-opacity="0.8"/>
<line x1="0.5" y1="11.5942" x2="0.499997" y2="69.5652" stroke="#5DDFDE"/>
</svg>
