<svg width="48" height="48" viewBox="0 0 48 48" fill="none" xmlns="http://www.w3.org/2000/svg">
<path d="M24 48C37.2548 48 48 37.2548 48 24C48 10.7452 37.2548 0 24 0C10.7452 0 0 10.7452 0 24C0 37.2548 10.7452 48 24 48Z" fill="#5DDFDE"/>
<path d="M17.7175 20.4066C17.7175 20.4066 18.8345 26.2901 26.6539 30.9814C26.6539 30.9814 28.3666 28.3003 31.1221 29.1942L36.3347 30.9814C36.3347 30.9814 39.3133 32.0984 37.6005 35.2265C35.8878 38.3545 34.3238 38.7263 34.3238 38.7263C34.3238 38.7263 30.4513 41.1092 23.5258 37.088C17.1063 33.3605 7.80689 21.9544 10.2781 13.4274C10.6529 12.1351 11.4622 11.0217 12.5343 10.2095C13.9775 9.11532 16.2183 7.87604 17.9016 9.04463C18.4789 9.44521 18.8412 10.0888 18.9929 10.7751L20.2491 16.4597C20.2491 16.4597 21.143 18.6194 17.7168 20.4066H17.7175Z" fill="#3E3E3E"/>
</svg>
