<svg width="163" height="25" viewBox="0 0 163 25" fill="none" xmlns="http://www.w3.org/2000/svg">
<path d="M10.4 24H5.7V4.46667H0.833334V0.666666H10.4V24ZM26.1764 9.63333C29.5098 9.63333 31.9542 10.2778 33.5098 11.5667C35.0653 12.8333 35.8431 14.5667 35.8431 16.7667C35.8431 18.1889 35.4987 19.4778 34.8098 20.6333C34.1209 21.7667 33.0653 22.6778 31.6431 23.3667C30.2431 24.0333 28.5098 24.3667 26.4431 24.3667C24.7987 24.3667 23.1875 24.1333 21.6098 23.6667C20.0542 23.2 18.732 22.5556 17.6431 21.7333L19.5431 18.1333C20.3875 18.8444 21.3987 19.4 22.5764 19.8C23.7764 20.1778 25.0209 20.3667 26.3098 20.3667C27.8209 20.3667 28.9875 20.0667 29.8098 19.4667C30.6542 18.8444 31.0764 18 31.0764 16.9333C31.0764 15.8 30.632 14.9444 29.7431 14.3667C28.8542 13.7667 27.3098 13.4667 25.1098 13.4667H19.3764L20.5764 0.666666H34.4431V4.46667H24.4764L24.0098 9.63333H26.1764ZM46.1862 9.63333C49.5195 9.63333 51.964 10.2778 53.5195 11.5667C55.0751 12.8333 55.8529 14.5667 55.8529 16.7667C55.8529 18.1889 55.5084 19.4778 54.8195 20.6333C54.1306 21.7667 53.0751 22.6778 51.6529 23.3667C50.2529 24.0333 48.5195 24.3667 46.4529 24.3667C44.8084 24.3667 43.1973 24.1333 41.6195 23.6667C40.064 23.2 38.7418 22.5556 37.6529 21.7333L39.5529 18.1333C40.3973 18.8444 41.4084 19.4 42.5862 19.8C43.7862 20.1778 45.0306 20.3667 46.3195 20.3667C47.8306 20.3667 48.9973 20.0667 49.8195 19.4667C50.664 18.8444 51.0862 18 51.0862 16.9333C51.0862 15.8 50.6418 14.9444 49.7529 14.3667C48.864 13.7667 47.3195 13.4667 45.1195 13.4667H39.3862L40.5862 0.666666H54.4529V4.46667H44.4862L44.0195 9.63333H46.1862ZM70.4293 24H65.7293V4.46667H60.8626V0.666666H70.4293V24ZM88.1057 10.5V14.1333H78.8391V10.5H88.1057ZM102.597 24H97.8973V4.46667H93.0306V0.666666H102.597V24ZM118.374 9.63333C121.707 9.63333 124.151 10.2778 125.707 11.5667C127.263 12.8333 128.04 14.5667 128.04 16.7667C128.04 18.1889 127.696 19.4778 127.007 20.6333C126.318 21.7667 125.263 22.6778 123.84 23.3667C122.44 24.0333 120.707 24.3667 118.64 24.3667C116.996 24.3667 115.385 24.1333 113.807 23.6667C112.251 23.2 110.929 22.5556 109.84 21.7333L111.74 18.1333C112.585 18.8444 113.596 19.4 114.774 19.8C115.974 20.1778 117.218 20.3667 118.507 20.3667C120.018 20.3667 121.185 20.0667 122.007 19.4667C122.851 18.8444 123.274 18 123.274 16.9333C123.274 15.8 122.829 14.9444 121.94 14.3667C121.051 13.7667 119.507 13.4667 117.307 13.4667H111.574L112.774 0.666666H126.64V4.46667H116.674L116.207 9.63333H118.374ZM141.05 10.3C143.206 10.5667 144.85 11.3 145.983 12.5C147.117 13.6778 147.683 15.1667 147.683 16.9667C147.683 18.3222 147.328 19.5667 146.617 20.7C145.928 21.8111 144.872 22.7 143.45 23.3667C142.05 24.0333 140.328 24.3667 138.283 24.3667C136.639 24.3667 135.028 24.1333 133.45 23.6667C131.895 23.2 130.583 22.5556 129.517 21.7333L131.383 18.1333C132.228 18.8444 133.25 19.4 134.45 19.8C135.65 20.1778 136.895 20.3667 138.183 20.3667C139.672 20.3667 140.839 20.0667 141.683 19.4667C142.528 18.8667 142.95 18.0333 142.95 16.9667C142.95 15.9222 142.55 15.1111 141.75 14.5333C140.972 13.9556 139.761 13.6667 138.117 13.6667H135.85V10.5333L141.05 4.46667H130.617V0.666666H146.65V3.73333L141.05 10.3ZM162.627 24H157.927V4.46667H153.06V0.666666H162.627V24Z" fill="white"/>
</svg>
