<svg width="201" height="52" viewBox="0 0 201 52" fill="none" xmlns="http://www.w3.org/2000/svg">
<rect width="201" height="52" rx="26" fill="white"/>
<path d="M89.4444 19.6889H92.2444V32.3556H89.4444V26.0222H86.9778V23.4444H89.4444V19.6889ZM82.4 26.7556C81.763 27.7333 80.9704 28.5185 80.0222 29.1111C79.0889 29.7037 78.0593 30.0296 76.9333 30.0889V27.4222C78.0593 27.3037 78.9778 26.7852 79.6889 25.8667C80.4148 24.9333 80.8444 23.8 80.9778 22.4667H77.1333V19.9556H87.4889V22.4667H83.8C83.7852 23.1037 83.6815 23.7407 83.4889 24.3778L88.1111 27.8444L86.5333 29.9556L82.4 26.7556ZM92.5111 36.6889H77.9333V30.8667H80.8V34.0444H92.5111V36.6889ZM94.1532 23.8444V21.3111H98.1754V19.5333H101.042V21.3111H105.109V23.8444H94.1532ZM109.331 28.8222V36.7556H106.531V19.6889H109.331V25.9556H111.309V28.8222H109.331ZM100.998 33.2889C103.012 33.2593 104.501 33.0222 105.464 32.5778V35.2C104.975 35.4222 104.324 35.5926 103.509 35.7111C102.709 35.8296 101.835 35.8889 100.887 35.8889H94.2199V33.2889H98.1977V31.4889C97.1458 31.3259 96.3162 30.9481 95.7088 30.3556C95.1014 29.763 94.7977 29.0074 94.7977 28.0889C94.7977 26.963 95.2421 26.0889 96.131 25.4667C97.0199 24.8296 98.1902 24.5111 99.6421 24.5111C101.094 24.5111 102.257 24.8296 103.131 25.4667C104.02 26.0889 104.464 26.963 104.464 28.0889C104.464 29.0222 104.153 29.7852 103.531 30.3778C102.924 30.9704 102.079 31.3481 100.998 31.5111V33.2889ZM97.4421 28.0889C97.4421 28.4593 97.6347 28.7556 98.0199 28.9778C98.4199 29.1852 98.9606 29.2889 99.6421 29.2889C100.324 29.2889 100.857 29.1852 101.242 28.9778C101.642 28.7556 101.842 28.4593 101.842 28.0889C101.842 27.7037 101.642 27.4074 101.242 27.2C100.857 26.9778 100.324 26.8667 99.6421 26.8667C98.9606 26.8667 98.4199 26.9778 98.0199 27.2C97.6347 27.4074 97.4421 27.7037 97.4421 28.0889ZM133.301 25.3111H131.279V29.0889H128.479V19.6889H131.279V22.5111H133.301V25.3111ZM121.879 25.5111C121.212 26.5037 120.397 27.2963 119.434 27.8889C118.471 28.4815 117.397 28.8296 116.212 28.9333V26.2889C117.116 26.1556 117.901 25.7926 118.568 25.2C119.249 24.6074 119.775 23.8444 120.145 22.9111C120.516 21.9778 120.701 20.9333 120.701 19.7778L123.523 19.9556C123.523 21.1556 123.353 22.2593 123.012 23.2667L127.612 26.3778L126.19 28.4889L121.879 25.5111ZM124.257 29.4444C126.449 29.4444 128.197 29.7407 129.501 30.3333C130.805 30.9259 131.457 31.8667 131.457 33.1556C131.457 34.4593 130.805 35.4074 129.501 36C128.197 36.5926 126.449 36.8889 124.257 36.8889C122.079 36.8889 120.331 36.5926 119.012 36C117.708 35.4074 117.057 34.4593 117.057 33.1556C117.057 31.8667 117.708 30.9259 119.012 30.3333C120.331 29.7407 122.079 29.4444 124.257 29.4444ZM124.257 34.5333C125.501 34.5333 126.508 34.4222 127.279 34.2C128.049 33.963 128.434 33.6148 128.434 33.1556C128.434 32.6963 128.049 32.3556 127.279 32.1333C126.508 31.9111 125.501 31.8 124.257 31.8C123.012 31.8 122.005 31.9111 121.234 32.1333C120.464 32.3556 120.079 32.6963 120.079 33.1556C120.079 33.6148 120.464 33.963 121.234 34.2C122.005 34.4222 123.012 34.5333 124.257 34.5333ZM148.876 25.5778V28.9333H146.076V19.6889H148.876V22.7333H150.899V25.5778H148.876ZM145.188 27.6667C144.743 27.8593 144.136 28.0148 143.365 28.1333C142.595 28.2519 141.773 28.3111 140.899 28.3111H134.232V19.9556H144.188V22.4H137.032V25.8667H141.032C141.876 25.8667 142.662 25.8148 143.387 25.7111C144.128 25.6074 144.728 25.4593 145.188 25.2667V27.6667ZM148.876 29.6444V36.6889H134.765V29.6444H148.876ZM146.076 34.2444V32.0889H137.587V34.2444H146.076Z" fill="black"/>
<path d="M71.8947 30.1056H71.2109C70.8324 30.1056 70.5265 29.799 70.5265 29.4212C70.5265 29.0434 70.8324 28.7368 71.2109 28.7368H71.8947C72.6497 28.7368 73.2635 28.1229 73.2635 27.3685V26.0003C73.2635 25.2453 72.6497 24.6315 71.8947 24.6315H71.2109C70.8324 24.6315 70.5265 24.3248 70.5265 23.9477V22.5788C70.5265 18.0514 66.8432 14.3682 62.3159 14.3682C57.7885 14.3682 54.1053 18.0514 54.1053 22.5788V23.9477C54.1053 24.3255 53.7987 24.6315 53.4208 24.6315C53.043 24.6315 52.7371 24.3248 52.7371 23.9477V22.5788C52.7371 17.2971 57.0335 13 62.3159 13C67.5982 13 71.8947 17.2971 71.8947 22.5788V23.2632C73.404 23.2632 74.6318 24.491 74.6318 26.0003V27.3685C74.6318 28.8779 73.404 30.1056 71.8947 30.1056Z" fill="black"/>
<path d="M53.4209 30.1056H52.7371C51.2277 30.1056 50 28.8778 50 27.3685V26.0003C50 24.4909 51.2277 23.2632 52.7371 23.2632H53.4209C53.7987 23.2632 54.1053 23.5698 54.1053 23.9476V29.4211C54.1053 29.7989 53.7987 30.1056 53.4209 30.1056ZM52.7371 24.6314C51.9821 24.6314 51.3682 25.2453 51.3682 26.0003V27.3685C51.3682 28.1235 51.9821 28.7367 52.7371 28.7367V24.6314Z" fill="black"/>
<path d="M62.3158 39C61.1843 39 60.2632 38.0789 60.2632 36.9474C60.2632 35.8159 61.1843 34.8947 62.3158 34.8947C63.2081 34.8947 63.9689 35.4669 64.2517 36.2636H64.3685C67.7643 36.2636 70.5264 33.5015 70.5264 30.1057V26.6842C70.5264 26.3063 70.8324 26.0004 71.2109 26.0004C71.5893 26.0004 71.8946 26.307 71.8946 26.6842V30.1057C71.8946 34.2552 68.518 37.6318 64.3685 37.6318H63.6841C63.3056 37.6318 63.0003 37.3259 63.0003 36.9474C63.0003 36.5689 62.693 36.2636 62.3158 36.2636C61.9387 36.2636 61.6314 36.5702 61.6314 36.9474C61.6314 37.3246 61.9387 37.6318 62.3158 37.6318C62.693 37.6318 63.0003 37.9378 63.0003 38.3163C63.0003 38.6947 62.6936 39 62.3158 39Z" fill="black"/>
<path d="M68.4738 23.2632C68.0954 23.2632 67.7894 22.9566 67.7894 22.5788C67.7894 19.5608 65.3339 17.1053 62.3159 17.1053C59.2979 17.1053 56.8424 19.5608 56.8424 22.5788C56.8424 22.9566 56.5358 23.2632 56.1579 23.2632C55.7801 23.2632 55.4735 22.9566 55.4735 22.5788C55.4735 18.8058 58.5429 15.7371 62.3159 15.7371C66.0889 15.7371 69.1583 18.8064 69.1583 22.5788C69.1583 22.9566 68.8523 23.2632 68.4738 23.2632Z" fill="black"/>
<path d="M58.895 30.7894H60.2632V32.1583H58.895V30.7894Z" fill="black"/>
<path d="M61.6315 30.7894H63.0003V32.1583H61.6315V30.7894Z" fill="black"/>
<path d="M64.3685 30.7894H65.7367V32.1583H64.3685V30.7894Z" fill="black"/>
<path d="M83.5533 14.64V17.2267H83.1933V12.1067H83.5533V14.2867H84.2933V14.64H83.5533ZM82.02 12.3267V13.48C82.02 14.1556 81.9156 14.7489 81.7067 15.26C81.5022 15.7711 81.2044 16.1667 80.8133 16.4467C80.4267 16.7267 79.9644 16.8667 79.4267 16.8667V16.5067C79.8889 16.5067 80.2867 16.3844 80.62 16.14C80.9578 15.8911 81.2156 15.5422 81.3933 15.0933C81.5711 14.64 81.66 14.1089 81.66 13.5V12.6733H79.4267V12.3267H82.02ZM88.9726 14.7733H88.6126V12.1067H88.9726V14.7733ZM87.5993 13.4267C87.5993 13.6711 87.5393 13.8889 87.4193 14.08C87.2993 14.2667 87.126 14.4133 86.8993 14.52C86.6726 14.6267 86.406 14.68 86.0993 14.68C85.7971 14.68 85.5326 14.6267 85.306 14.52C85.0837 14.4133 84.9126 14.2667 84.7926 14.08C84.6726 13.8889 84.6126 13.6711 84.6126 13.4267C84.6126 13.1867 84.6726 12.9733 84.7926 12.7867C84.9126 12.5956 85.0837 12.4467 85.306 12.34C85.5326 12.2333 85.7971 12.18 86.0993 12.18C86.406 12.18 86.6726 12.2333 86.8993 12.34C87.126 12.4467 87.2993 12.5933 87.4193 12.78C87.5393 12.9667 87.5993 13.1822 87.5993 13.4267ZM84.9726 13.4267C84.9726 13.72 85.0749 13.9489 85.2793 14.1133C85.4882 14.2778 85.7615 14.36 86.0993 14.36C86.4415 14.36 86.7149 14.2778 86.9193 14.1133C87.1282 13.9489 87.2326 13.72 87.2326 13.4267C87.2326 13.1378 87.1282 12.9111 86.9193 12.7467C86.7149 12.5778 86.4415 12.4933 86.0993 12.4933C85.7615 12.4933 85.4882 12.5778 85.2793 12.7467C85.0749 12.9111 84.9726 13.1378 84.9726 13.4267ZM88.9726 15.02V17.1267H85.0126V15.02H85.366V15.6933H88.6126V15.02H88.9726ZM88.6126 16.0133H85.366V16.8067H88.6126V16.0133ZM91.4919 14.86L89.9853 17H89.5853L91.2853 14.5933L89.6986 12.3333H90.1053L91.5053 14.3267L92.9053 12.3333H93.2919L91.6986 14.5867L93.4119 17H93.0053L91.4919 14.86ZM99.4892 17.2267H99.1292V14.4133H97.7625V14.06H99.1292V12.1067H99.4892V17.2267ZM96.9225 12.2533C96.9136 12.9822 96.8647 13.6333 96.7759 14.2067L98.3559 16.6867L98.0692 16.9067L96.6759 14.6733C96.5247 15.3356 96.3114 15.8578 96.0359 16.24C95.7603 16.6222 95.4314 16.8378 95.0492 16.8867V16.5133C95.3825 16.4511 95.6603 16.2222 95.8825 15.8267C96.1092 15.4267 96.2759 14.9156 96.3825 14.2933C96.4936 13.6711 96.5514 12.9889 96.5559 12.2467L96.9225 12.2533ZM100.635 12.6333V12.3067H104.735V13.7533H100.995V14.5533H104.815V14.8867H100.635V13.4333H104.375V12.6333H100.635ZM103.802 15.9733V17.3467H103.442V15.9733H101.902V17.3467H101.542V15.9733H100.262V15.6267H105.088V15.9733H103.802ZM109.868 13.6467V15.1667H109.508V12.1067H109.868V13.2933H110.608V13.6467H109.868ZM107.188 13.8C107.032 14.1289 106.821 14.3933 106.554 14.5933C106.288 14.7933 105.974 14.9222 105.614 14.98V14.6267C106.068 14.5467 106.423 14.3333 106.681 13.9867C106.943 13.6356 107.083 13.1756 107.101 12.6067H105.674V12.2733H108.781V12.6067H107.461C107.448 12.9489 107.403 13.2378 107.328 13.4733L108.901 14.6467L108.708 14.94L107.188 13.8ZM109.868 15.5V17.2H109.501V15.84H105.854V15.5H109.868ZM113.647 13.4333V13.0933H114.967V12.1067H115.327V14.9867H114.967V13.4333H113.647ZM112.414 13.66C112.249 13.9711 112.034 14.2311 111.767 14.44C111.5 14.6444 111.194 14.78 110.847 14.8467V14.4933C111.167 14.4222 111.443 14.2756 111.674 14.0533C111.909 13.8311 112.087 13.5556 112.207 13.2267C112.327 12.8978 112.389 12.5444 112.394 12.1667L112.747 12.1867C112.747 12.6133 112.685 12.9978 112.56 13.34L114.127 14.4733L113.92 14.7467L112.414 13.66ZM113.32 15.2C113.934 15.2 114.427 15.2822 114.8 15.4467C115.178 15.6111 115.367 15.8622 115.367 16.2C115.367 16.5378 115.18 16.7889 114.807 16.9533C114.434 17.1178 113.938 17.2 113.32 17.2C112.707 17.2 112.214 17.1178 111.84 16.9533C111.472 16.7889 111.287 16.5378 111.287 16.2C111.287 15.8622 111.474 15.6111 111.847 15.4467C112.22 15.2822 112.712 15.2 113.32 15.2ZM113.32 16.8733C113.814 16.8733 114.214 16.8156 114.52 16.7C114.832 16.5844 114.987 16.4178 114.987 16.2C114.987 15.9822 114.832 15.8156 114.52 15.7C114.214 15.5844 113.814 15.5267 113.32 15.5267C112.832 15.5267 112.432 15.5844 112.12 15.7C111.814 15.8156 111.66 15.9822 111.66 16.2C111.66 16.4178 111.814 16.5844 112.12 16.7C112.432 16.8156 112.832 16.8733 113.32 16.8733ZM119.106 13.5733C119.071 13.8978 118.924 14.1622 118.666 14.3667C118.409 14.5667 118.071 14.6667 117.653 14.6667C117.355 14.6667 117.095 14.6133 116.873 14.5067C116.651 14.4 116.48 14.2533 116.36 14.0667C116.24 13.88 116.18 13.6667 116.18 13.4267C116.18 13.1911 116.24 12.98 116.36 12.7933C116.48 12.6067 116.651 12.46 116.873 12.3533C117.095 12.2467 117.355 12.1933 117.653 12.1933C118.057 12.1933 118.389 12.2889 118.646 12.48C118.904 12.6667 119.055 12.9156 119.1 13.2267H120.246V12.1067H120.606V14.7733H120.246V13.5733H119.106ZM116.54 13.4267C116.54 13.7111 116.642 13.9356 116.846 14.1C117.051 14.26 117.32 14.34 117.653 14.34C117.986 14.34 118.255 14.26 118.46 14.1C118.664 13.9356 118.766 13.7111 118.766 13.4267C118.766 13.1467 118.664 12.9267 118.46 12.7667C118.255 12.6022 117.986 12.52 117.653 12.52C117.32 12.52 117.051 12.6022 116.846 12.7667C116.642 12.9267 116.54 13.1467 116.54 13.4267ZM119.92 16.1933C119.786 16.4733 119.617 16.6933 119.413 16.8533C119.213 17.0133 118.995 17.1044 118.76 17.1267V16.7933C118.942 16.7667 119.111 16.6822 119.266 16.54C119.426 16.3933 119.557 16.1889 119.66 15.9267C119.766 15.66 119.833 15.3489 119.86 14.9933L120.206 15.02C120.184 15.3444 120.131 15.6289 120.046 15.8733L121.12 16.88L120.893 17.1333L119.92 16.1933ZM118.526 15.02V17.1267H116.593V15.02H116.926V15.7133H118.186V15.02H118.526ZM118.186 16.0133H116.926V16.8133H118.186V16.0133ZM125.886 13.7067V14.0467H121.759V12.12H122.119V13.7067H125.886ZM121.379 15.0867V14.7533H126.206V15.0867H121.379ZM125.946 16.7933V17.1333H121.746V15.64H122.112V16.7933H125.946ZM132.417 14.64V17.2267H132.083V12.1067H132.417V14.2867H133.043V14.64H132.417ZM129.637 12.2733V16.8867H128.137V12.2733H128.457V14.1867H129.33V12.2733H129.637ZM131.477 12.2733V16.8867H129.983V12.2733H130.29V14.1867H131.163V12.2733H131.477ZM129.33 14.52H128.457V16.5533H129.33V14.52ZM131.163 14.52H130.29V16.5533H131.163V14.52ZM133.996 13.4933V14.2067H137.789V14.5133H133.643V13.2H137.369V12.5067H133.643V12.2H137.716V13.4933H133.996ZM133.256 15.4067V15.0867H138.083V15.4067H133.256ZM137.823 16.8067V17.1333H133.623V15.8933H133.989V16.8067H137.823ZM143.602 13.54H142.862V14.94H142.502V12.1067H142.862V13.18H143.602V13.54ZM140.155 13.6C139.986 13.92 139.766 14.1844 139.495 14.3933C139.229 14.5978 138.915 14.7333 138.555 14.8V14.4467C138.88 14.3756 139.16 14.2311 139.395 14.0133C139.631 13.7956 139.809 13.5267 139.929 13.2067C140.053 12.8867 140.117 12.54 140.122 12.1667L140.482 12.1867C140.482 12.5733 140.42 12.94 140.295 13.2867L141.902 14.3933L141.715 14.68L140.155 13.6ZM140.915 15.1533C141.524 15.1533 142.013 15.2378 142.382 15.4067C142.755 15.5756 142.942 15.8333 142.942 16.18C142.942 16.5267 142.755 16.7844 142.382 16.9533C142.013 17.1178 141.524 17.2 140.915 17.2C140.306 17.2 139.815 17.1178 139.442 16.9533C139.073 16.7844 138.889 16.5267 138.889 16.18C138.889 15.8333 139.073 15.5756 139.442 15.4067C139.815 15.2378 140.306 15.1533 140.915 15.1533ZM140.915 16.8667C141.4 16.8667 141.795 16.8089 142.102 16.6933C142.413 16.5733 142.569 16.4022 142.569 16.18C142.569 15.9533 142.413 15.7822 142.102 15.6667C141.795 15.5467 141.4 15.4867 140.915 15.4867C140.431 15.4867 140.035 15.5467 139.729 15.6667C139.422 15.7822 139.269 15.9533 139.269 16.18C139.269 16.4022 139.422 16.5733 139.729 16.6933C140.035 16.8089 140.431 16.8667 140.915 16.8667ZM148.141 13.6133V14.8933H147.781V12.1067H148.141V13.2533H148.881V13.6133H148.141ZM147.361 14.3467C147.197 14.4267 146.959 14.4889 146.648 14.5333C146.337 14.5778 145.983 14.6 145.588 14.6H144.021V12.2667H146.981V12.6H144.381V14.2667H145.615C146.006 14.2667 146.352 14.2444 146.655 14.2C146.957 14.1556 147.192 14.0911 147.361 14.0067V14.3467ZM148.141 15.2267V17.1267H144.181V15.2267H148.141ZM147.781 16.7933V15.56H144.541V16.7933H147.781Z" fill="black"/>
</svg>
