<svg width="209" height="78" viewBox="0 0 209 78" fill="none" xmlns="http://www.w3.org/2000/svg">
<path d="M34.8222 22.1111C34.5556 23.2667 33.9778 24.1852 33.0889 24.8667C32.2 25.5481 31.0963 25.8889 29.7778 25.8889C28.7556 25.8889 27.8519 25.6815 27.0667 25.2667C26.2815 24.837 25.6667 24.2444 25.2222 23.4889C24.7926 22.7185 24.5778 21.8296 24.5778 20.8222C24.5778 19.8296 24.7926 18.9481 25.2222 18.1778C25.6667 17.4074 26.2815 16.8148 27.0667 16.4C27.8519 15.9704 28.7556 15.7556 29.7778 15.7556C31.0667 15.7556 32.1481 16.0815 33.0222 16.7333C33.9111 17.3704 34.5037 18.237 34.8 19.3333H37.4444V15.6889H40.2444V28.3556H37.4444V22.1111H34.8222ZM27.3778 20.8222C27.3778 21.637 27.5926 22.2741 28.0222 22.7333C28.4667 23.1926 29.0519 23.4222 29.7778 23.4222C30.5037 23.4222 31.0815 23.1926 31.5111 22.7333C31.9556 22.2741 32.1778 21.637 32.1778 20.8222C32.1778 20.0074 31.9556 19.3704 31.5111 18.9111C31.0815 18.4519 30.5037 18.2222 29.7778 18.2222C29.0519 18.2222 28.4667 18.4519 28.0222 18.9111C27.5926 19.3704 27.3778 20.0074 27.3778 20.8222ZM40.5111 32.6889H26.1333V26.8222H28.9778V30.0444H40.5111V32.6889ZM58.1977 32.7556H55.5754V15.6889H58.1977V32.7556ZM54.0643 15.7556V32.4667H51.4421V24.6667H49.2199V21.8889H51.4421V15.7556H54.0643ZM47.7977 18.8222C47.768 20.4815 47.6791 21.9778 47.531 23.3111L51.3088 30.3333L49.0865 31.6444L46.731 27.1778C46.2865 28.6593 45.6865 29.8 44.931 30.6C44.1902 31.3852 43.3014 31.8148 42.2643 31.8889V29C43.1384 28.8222 43.8273 27.837 44.331 26.0444C44.8347 24.237 45.1014 21.8296 45.131 18.8222H42.5754V16.1556H50.2421V18.8222H47.7977ZM63.6842 18.1111V20.4889H75.3064V22.8444H60.862V15.7556H75.1286V18.1111H63.6842ZM59.8175 26.6V24.1556H76.1731V26.6H59.8175ZM75.3953 30.2V32.6889H60.8175V27.6444H63.6842V30.2H75.3953ZM92.9208 23.9556V21.5111H94.6764V19.9778H92.9208V17.5333H94.6764V15.6889H97.4319V28.3778H94.6764V23.9556H92.9208ZM92.5875 25.5111C92.1431 25.6741 91.5282 25.8 90.7431 25.8889C89.9727 25.9778 89.1431 26.0222 88.2542 26.0222H81.9431V23.5778H83.4319V18.4H82.0319V15.9556H92.2764V18.4H90.8542V23.4667C91.5653 23.3926 92.1431 23.2741 92.5875 23.1111V25.5111ZM88.1653 23.5556V18.4H86.0986V23.5778H87.0319L88.1653 23.5556ZM97.6986 32.6889H83.1208V27.2H85.9875V30.0667H97.6986V32.6889ZM110.296 17.9111V20.6222H99.7629V17.9111H103.585V15.6222H106.452V17.9111H110.296ZM114.474 24.9778V32.7556H111.674V15.6889H114.474V22.1333H116.496V24.9778H114.474ZM105.03 21.5333C105.948 21.5333 106.756 21.763 107.452 22.2222C108.163 22.6667 108.711 23.2889 109.096 24.0889C109.481 24.8889 109.674 25.7926 109.674 26.8C109.674 27.8222 109.481 28.7333 109.096 29.5333C108.711 30.3333 108.163 30.963 107.452 31.4222C106.756 31.8667 105.948 32.0889 105.03 32.0889C104.096 32.0889 103.274 31.8667 102.563 31.4222C101.867 30.963 101.326 30.3333 100.941 29.5333C100.556 28.7333 100.363 27.8222 100.363 26.8C100.363 25.7926 100.556 24.8889 100.941 24.0889C101.326 23.2889 101.867 22.6667 102.563 22.2222C103.274 21.763 104.096 21.5333 105.03 21.5333ZM105.03 29.5556C105.622 29.5556 106.096 29.3037 106.452 28.8C106.807 28.2963 106.985 27.6296 106.985 26.8C106.985 25.9704 106.807 25.3111 106.452 24.8222C106.096 24.3185 105.622 24.0667 105.03 24.0667C104.422 24.0667 103.941 24.3185 103.585 24.8222C103.23 25.3111 103.052 25.9704 103.052 26.8C103.052 27.6296 103.23 28.2963 103.585 28.8C103.956 29.3037 104.437 29.5556 105.03 29.5556ZM132.983 32.7556H130.316V15.6889H132.983V32.7556ZM128.805 15.7556V32.4667H126.138V24.9333H123.938C123.479 27.1556 122.657 28.8667 121.472 30.0667C120.287 31.2667 118.894 31.8667 117.294 31.8667V29.1111C118.168 29.0519 118.924 28.7111 119.561 28.0889C120.212 27.4667 120.716 26.5704 121.072 25.4C121.427 24.2296 121.605 22.837 121.605 21.2222V18.8222H117.294V16.1556H124.294V21.0889L124.272 22.1333H126.138V15.7556H128.805ZM156.086 21.3111H154.064V25.0889H151.264V15.6889H154.064V18.5111H156.086V21.3111ZM144.664 21.5111C143.997 22.5037 143.182 23.2963 142.219 23.8889C141.256 24.4815 140.182 24.8296 138.997 24.9333V22.2889C139.901 22.1556 140.686 21.7926 141.353 21.2C142.034 20.6074 142.56 19.8444 142.931 18.9111C143.301 17.9778 143.486 16.9333 143.486 15.7778L146.308 15.9556C146.308 17.1556 146.138 18.2593 145.797 19.2667L150.397 22.3778L148.975 24.4889L144.664 21.5111ZM147.042 25.4444C149.234 25.4444 150.982 25.7407 152.286 26.3333C153.59 26.9259 154.242 27.8667 154.242 29.1556C154.242 30.4593 153.59 31.4074 152.286 32C150.982 32.5926 149.234 32.8889 147.042 32.8889C144.864 32.8889 143.116 32.5926 141.797 32C140.494 31.4074 139.842 30.4593 139.842 29.1556C139.842 27.8667 140.494 26.9259 141.797 26.3333C143.116 25.7407 144.864 25.4444 147.042 25.4444ZM147.042 30.5333C148.286 30.5333 149.294 30.4222 150.064 30.2C150.834 29.963 151.219 29.6148 151.219 29.1556C151.219 28.6963 150.834 28.3556 150.064 28.1333C149.294 27.9111 148.286 27.8 147.042 27.8C145.797 27.8 144.79 27.9111 144.019 28.1333C143.249 28.3556 142.864 28.6963 142.864 29.1556C142.864 29.6148 143.249 29.963 144.019 30.2C144.79 30.4222 145.797 30.5333 147.042 30.5333ZM171.662 21.5778V24.9333H168.862V15.6889H171.662V18.7333H173.684V21.5778H171.662ZM167.973 23.6667C167.528 23.8593 166.921 24.0148 166.15 24.1333C165.38 24.2519 164.558 24.3111 163.684 24.3111H157.017V15.9556H166.973V18.4H159.817V21.8667H163.817C164.662 21.8667 165.447 21.8148 166.173 21.7111C166.913 21.6074 167.513 21.4593 167.973 21.2667V23.6667ZM171.662 25.6444V32.6889H157.55V25.6444H171.662ZM168.862 30.2444V28.0889H160.373V30.2444H168.862ZM190.17 32.7556H187.57V15.6889H190.17V32.7556ZM186.17 15.7556V32.4667H183.593V28.3111H181.637C181.37 29.6148 180.941 30.5704 180.348 31.1778C179.77 31.7852 179.03 32.0889 178.126 32.0889C176.837 32.0889 175.867 31.4519 175.215 30.1778C174.578 28.8889 174.259 26.837 174.259 24.0222C174.259 21.2074 174.578 19.163 175.215 17.8889C175.867 16.6 176.837 15.9556 178.126 15.9556C179.815 15.9556 180.948 17.0444 181.526 19.2222H183.593V15.7556H186.17ZM178.126 29.4444C178.585 29.4444 178.911 29.0148 179.104 28.1556C179.311 27.2815 179.415 25.9037 179.415 24.0222C179.415 22.1407 179.311 20.7704 179.104 19.9111C178.911 19.0519 178.585 18.6222 178.126 18.6222C177.667 18.6222 177.333 19.0519 177.126 19.9111C176.933 20.7704 176.837 22.1407 176.837 24.0222C176.837 25.9037 176.933 27.2815 177.126 28.1556C177.333 29.0148 177.667 29.4444 178.126 29.4444ZM183.593 21.9556H181.926C181.985 22.5037 182.015 23.1926 182.015 24.0222C182.015 24.7333 182 25.2519 181.97 25.5778H183.593V21.9556ZM206.857 21.3556H208.879V23.8667H206.857V25.8444H204.057V15.6889H206.857V17.2H208.879V19.7333H206.857V21.3556ZM196.835 25.4667C195.812 25.4667 194.909 25.2593 194.124 24.8444C193.338 24.4296 192.731 23.8593 192.301 23.1333C191.872 22.3926 191.657 21.5481 191.657 20.6C191.657 19.6667 191.872 18.837 192.301 18.1111C192.731 17.3704 193.338 16.7926 194.124 16.3778C194.909 15.963 195.812 15.7556 196.835 15.7556C197.842 15.7556 198.738 15.963 199.524 16.3778C200.309 16.7926 200.916 17.3704 201.346 18.1111C201.775 18.837 201.99 19.6667 201.99 20.6C201.99 21.5481 201.775 22.3926 201.346 23.1333C200.916 23.8593 200.309 24.4296 199.524 24.8444C198.738 25.2593 197.842 25.4667 196.835 25.4667ZM196.835 18.2C196.124 18.2 195.546 18.4148 195.101 18.8444C194.672 19.2741 194.457 19.8593 194.457 20.6C194.457 21.3407 194.672 21.9333 195.101 22.3778C195.546 22.8074 196.124 23.0222 196.835 23.0222C197.546 23.0222 198.116 22.8074 198.546 22.3778C198.99 21.9333 199.212 21.3407 199.212 20.6C199.212 19.8593 198.99 19.2741 198.546 18.8444C198.116 18.4148 197.546 18.2 196.835 18.2ZM206.857 26.5556V32.8889H204.012V29.0889H192.857V26.5556H206.857Z" fill="white"/>
<path d="M33.3667 60H24.7V58.4667L29.2833 54.1C29.7944 53.6 30.1389 53.1778 30.3167 52.8333C30.4944 52.4778 30.5833 52.1222 30.5833 51.7667C30.5833 51.2444 30.4056 50.8444 30.05 50.5667C29.7056 50.2778 29.1944 50.1333 28.5167 50.1333C27.3833 50.1333 26.5167 50.5333 25.9167 51.3333L24.2167 50.2167C24.6722 49.5722 25.2889 49.0667 26.0667 48.7C26.8444 48.3333 27.7333 48.15 28.7333 48.15C29.5778 48.15 30.3167 48.2889 30.95 48.5667C31.5833 48.8333 32.0722 49.2222 32.4167 49.7333C32.7722 50.2444 32.95 50.8444 32.95 51.5333C32.95 52.1556 32.8111 52.7444 32.5333 53.3C32.2667 53.8556 31.7556 54.4889 31 55.2L28.0167 58.0833H33.3667V60ZM42.5215 57.4V60H40.2382V57.4H33.8882V55.8167L39.5382 48.3333H42.0049L36.7049 55.4833H40.3049V53.1667H42.5215V55.4833H44.5215V57.4H42.5215ZM56.1264 60.5667H54.0098V47.7667H56.1264V60.5667ZM50.2431 48.1C50.2431 49.9333 50.082 51.6556 49.7598 53.2667L53.4764 58.6167L51.7598 59.9L49.0264 55.8333C48.5375 57.1222 47.9153 58.1167 47.1598 58.8167C46.4042 59.5167 45.5598 59.8833 44.6264 59.9167V57.65C45.3153 57.55 45.9209 57.0778 46.4431 56.2333C46.9653 55.3889 47.3709 54.2556 47.6598 52.8333C47.9487 51.4111 48.0931 49.8111 48.0931 48.0333L50.2431 48.1ZM70.4913 52.6H68.9747V57.25H66.8747V47.7667H68.9747V50.4667H70.4913V52.6ZM65.108 49.9167C65.108 51.1167 64.8025 52.1278 64.1913 52.95C63.5802 53.7722 62.7358 54.3889 61.658 54.8C60.5802 55.2 59.3358 55.4 57.9247 55.4V53.4333C58.9358 53.4222 59.8191 53.2944 60.5747 53.05C61.3302 52.7944 61.9136 52.4333 62.3247 51.9667C62.7469 51.4889 62.958 50.9222 62.958 50.2667V49.8833H57.9247V47.9667H65.108V49.9167ZM69.208 58.5333V60.5167H58.3913V56.2H60.5413V58.5333H69.208ZM83.7021 60.5667V47.7667H85.8188V60.5667H83.7021ZM78.3688 47.9667C79.5355 47.9667 80.4521 48.4722 81.1188 49.4833C81.7966 50.4833 82.1355 51.9944 82.1355 54.0167C82.1355 56.0389 81.7966 57.5556 81.1188 58.5667C80.4521 59.5667 79.5355 60.0667 78.3688 60.0667C77.191 60.0667 76.2633 59.5667 75.5855 58.5667C74.9188 57.5556 74.5855 56.0389 74.5855 54.0167C74.5855 51.9944 74.9188 50.4833 75.5855 49.4833C76.2633 48.4722 77.191 47.9667 78.3688 47.9667ZM78.3688 49.9833C77.8466 49.9833 77.4299 50.3056 77.1188 50.95C76.8188 51.5833 76.6688 52.6056 76.6688 54.0167C76.6688 55.4389 76.8188 56.4667 77.1188 57.1C77.4299 57.7333 77.8466 58.05 78.3688 58.05C78.8799 58.05 79.291 57.7333 79.6021 57.1C79.9133 56.4556 80.0688 55.4278 80.0688 54.0167C80.0688 52.6167 79.9133 51.5944 79.6021 50.95C79.291 50.3056 78.8799 49.9833 78.3688 49.9833ZM99.6337 55.1833H87.3671V53.4667H89.7504V52.15C88.5837 51.7167 88.0004 51.05 88.0004 50.15C88.0004 49.2833 88.5004 48.6389 89.5004 48.2167C90.5004 47.7944 91.8337 47.5833 93.5004 47.5833C95.1559 47.5833 96.4837 47.7944 97.4837 48.2167C98.4948 48.6389 99.0004 49.2833 99.0004 50.15C99.0004 51.05 98.4171 51.7167 97.2504 52.15V53.4667H99.6337V55.1833ZM93.5004 49.2667C92.5004 49.2667 91.7059 49.3389 91.1171 49.4833C90.5282 49.6278 90.2337 49.85 90.2337 50.15C90.2337 50.45 90.5282 50.6722 91.1171 50.8167C91.7059 50.95 92.5004 51.0167 93.5004 51.0167C94.5004 51.0167 95.2893 50.95 95.8671 50.8167C96.4559 50.6722 96.7504 50.45 96.7504 50.15C96.7504 49.85 96.4559 49.6278 95.8671 49.4833C95.2893 49.3389 94.5004 49.2667 93.5004 49.2667ZM95.1504 53.4667V52.6167C94.7393 52.6722 94.1893 52.7 93.5004 52.7C92.8226 52.7 92.2726 52.6722 91.8504 52.6167V53.4667H95.1504ZM93.5004 55.7833C97.1559 55.7833 98.9837 56.6 98.9837 58.2333C98.9837 59.1 98.4948 59.7222 97.5171 60.1C96.5393 60.4889 95.2004 60.6833 93.5004 60.6833C91.8004 60.6833 90.4559 60.4889 89.4671 60.1C88.4893 59.7111 88.0004 59.0889 88.0004 58.2333C88.0004 56.6 89.8337 55.7833 93.5004 55.7833ZM93.5004 59.0167C95.6671 59.0167 96.7504 58.7556 96.7504 58.2333C96.7504 57.7111 95.6671 57.45 93.5004 57.45C92.5004 57.45 91.7059 57.5111 91.1171 57.6333C90.5282 57.7556 90.2337 57.9556 90.2337 58.2333C90.2337 58.5111 90.5282 58.7111 91.1171 58.8333C91.7059 58.9556 92.5004 59.0167 93.5004 59.0167ZM115.161 54.7333V60.5667H113.061V47.7667H115.161V52.6H116.678V54.7333H115.161ZM111.045 48.1167V51.4667C111.045 53.1778 110.767 54.6667 110.211 55.9333C109.667 57.2 108.878 58.1778 107.845 58.8667C106.822 59.5556 105.617 59.9 104.228 59.9V57.8C105.728 57.8 106.878 57.2444 107.678 56.1333C108.489 55.0111 108.895 53.4611 108.895 51.4833V50.1333H104.228V48.1167H111.045ZM128.676 50.6833V52.4H117.843V47.7H119.943V50.6833H128.676ZM117.059 55.0167V53.3H129.326V55.0167H117.059ZM123.193 55.75C124.893 55.75 126.232 55.9444 127.209 56.3333C128.187 56.7222 128.676 57.35 128.676 58.2167C128.676 59.0833 128.187 59.7111 127.209 60.1C126.232 60.4889 124.893 60.6833 123.193 60.6833C121.493 60.6833 120.148 60.4889 119.159 60.1C118.182 59.7111 117.693 59.0833 117.693 58.2167C117.693 57.35 118.182 56.7222 119.159 56.3333C120.148 55.9444 121.493 55.75 123.193 55.75ZM123.193 57.4167C122.204 57.4167 121.409 57.4833 120.809 57.6167C120.221 57.7389 119.926 57.9389 119.926 58.2167C119.926 58.4944 120.221 58.7 120.809 58.8333C121.409 58.9556 122.204 59.0167 123.193 59.0167C124.182 59.0167 124.971 58.9556 125.559 58.8333C126.148 58.7 126.443 58.4944 126.443 58.2167C126.443 57.9389 126.148 57.7389 125.559 57.6167C124.971 57.4833 124.182 57.4167 123.193 57.4167Z" fill="white" fill-opacity="0.8"/>
<line x1="0.5" y1="14" x2="0.499998" y2="64" stroke="#5DDFDE"/>
</svg>
