<svg width="157" height="63" viewBox="0 0 157 63" fill="none" xmlns="http://www.w3.org/2000/svg">
<rect x="0.782227" y="0.741943" width="155.645" height="62.2581" rx="15.5645" fill="#D9D9D9"/>
<path d="M37.6785 28.6528H35.4476V32.8034H31.7121V21.8304H35.4476V24.8914H37.6785V28.6528ZM24.3709 28.8863C23.558 30.0104 22.5723 30.9097 21.4136 31.5841C20.2722 32.2586 19.0184 32.6304 17.6522 32.6996V29.1716C18.6379 29.0506 19.5026 28.6701 20.2463 28.0302C21.0072 27.3731 21.5952 26.517 22.0102 25.4621C22.4426 24.4072 22.6674 23.2225 22.6847 21.9082L26.4461 22.1417C26.4461 23.4906 26.2559 24.7444 25.8754 25.9031L31.0117 29.3532L29.118 32.1808L24.3709 28.8863ZM27.0946 33.0887C29.6887 33.0887 31.7554 33.4432 33.2945 34.1523C34.851 34.844 35.6292 35.9681 35.6292 37.5246C35.6292 39.0811 34.851 40.2138 33.2945 40.9229C31.7554 41.6319 29.6887 41.9864 27.0946 41.9864C24.5006 41.9864 22.4253 41.6319 20.8688 40.9229C19.3297 40.2138 18.5601 39.0811 18.5601 37.5246C18.5601 35.9681 19.3297 34.844 20.8688 34.1523C22.4253 33.4432 24.5006 33.0887 27.0946 33.0887ZM27.0946 38.8476C28.4436 38.8476 29.5244 38.7438 30.3372 38.5363C31.1674 38.3115 31.5824 37.9742 31.5824 37.5246C31.5824 37.075 31.1674 36.7464 30.3372 36.5388C29.5244 36.3313 28.4436 36.2276 27.0946 36.2276C25.7457 36.2276 24.6562 36.3313 23.8261 36.5388C22.996 36.7464 22.5809 37.075 22.5809 37.5246C22.5809 37.9742 22.996 38.3115 23.8261 38.5363C24.6562 38.7438 25.7457 38.8476 27.0946 38.8476ZM55.99 28.9641V32.6218H52.2545V21.8304H55.99V25.1508H58.2209V28.9641H55.99ZM51.3726 31.2988C50.8883 31.5236 50.2312 31.6966 49.401 31.8176C48.5882 31.9387 47.7322 31.9992 46.8329 31.9992H38.6096V22.0638H50.283V25.3065H42.3711V28.7566H46.9885C47.8532 28.7566 48.6747 28.7047 49.4529 28.6009C50.2312 28.4799 50.871 28.3156 51.3726 28.1081V31.2988ZM55.99 33.3222V41.753H39.2582V33.3222H55.99ZM52.2545 38.5104V36.5648H43.0196V38.5104H52.2545ZM77.9073 41.0526H58.737V37.4468H62.4466V33.1147C61.4954 32.544 60.7604 31.8436 60.2416 31.0134C59.7401 30.166 59.4893 29.2235 59.4893 28.1859C59.4893 26.958 59.8525 25.8685 60.5788 24.9173C61.3225 23.9489 62.3601 23.1966 63.6917 22.6605C65.0406 22.1244 66.5885 21.8563 68.3351 21.8563C70.0818 21.8563 71.621 22.1244 72.9526 22.6605C74.3015 23.1966 75.3392 23.9489 76.0655 24.9173C76.8092 25.8685 77.181 26.958 77.181 28.1859C77.181 29.2235 76.9216 30.166 76.4027 31.0134C75.8839 31.8436 75.1489 32.544 74.1978 33.1147V37.4468H77.9073V41.0526ZM68.3351 25.3843C66.8997 25.3843 65.7238 25.6437 64.8072 26.1625C63.9079 26.6813 63.4583 27.3558 63.4583 28.1859C63.4583 29.016 63.9079 29.6905 64.8072 30.2093C65.7238 30.7281 66.8997 30.9875 68.3351 30.9875C69.7705 30.9875 70.9379 30.7281 71.8372 30.2093C72.7537 29.6905 73.212 29.016 73.212 28.1859C73.212 27.3558 72.7537 26.6813 71.8372 26.1625C70.9379 25.6437 69.7705 25.3843 68.3351 25.3843ZM70.4623 37.4468V34.3858C69.9089 34.4722 69.1998 34.5155 68.3351 34.5155C67.4877 34.5155 66.7787 34.4722 66.208 34.3858V37.4468H70.4623ZM85.8165 30.4427C85.0383 31.3593 84.1217 32.0943 83.0668 32.6477C82.0119 33.2011 80.8705 33.4951 79.6426 33.5297V30.2093C80.7148 30.1228 81.6228 29.7337 82.3664 29.0419C83.1273 28.3329 83.6462 27.4855 83.9229 26.4997H79.8501V23.309H84.0266V21.4672H87.8399V23.309H92.0164V26.4997H87.7621C87.7102 26.69 87.6583 26.8802 87.6065 27.0704C87.5719 27.2434 87.52 27.4163 87.4508 27.5893L92.5352 30.4946L90.875 33.3741L85.8165 30.4427ZM93.962 21.8304H97.6975V33.6594H93.962V29.1198H91.4716V25.6177H93.962V21.8304ZM89.2148 33.9188C91.8608 33.9188 93.962 34.2388 95.5184 34.8786C97.0922 35.5012 97.879 36.5302 97.879 37.9656C97.879 40.6462 94.991 41.9864 89.2148 41.9864C83.4559 41.9864 80.5765 40.6462 80.5765 37.9656C80.5765 36.5302 81.3547 35.5012 82.9112 34.8786C84.4676 34.2388 86.5688 33.9188 89.2148 33.9188ZM89.2148 38.9773C90.6675 38.9773 91.8002 38.9081 92.613 38.7698C93.4432 38.6141 93.8582 38.3461 93.8582 37.9656C93.8582 37.2738 92.3104 36.928 89.2148 36.928C86.1365 36.928 84.5973 37.2738 84.5973 37.9656C84.5973 38.3461 85.0037 38.6141 85.8165 38.7698C86.6466 38.9081 87.7794 38.9773 89.2148 38.9773ZM112.533 24.2169V27.8227H100.237V24.2169H104.465V21.7526H108.305V24.2169H112.533ZM117.617 32.9331V41.753H113.882V21.8304H117.617V29.1198H119.848V32.9331H117.617ZM106.385 28.6528C107.492 28.6528 108.46 28.9209 109.29 29.457C110.12 29.9931 110.76 30.7367 111.21 31.6879C111.66 32.6218 111.884 33.6767 111.884 34.8527C111.884 36.046 111.66 37.1095 111.21 38.0434C110.76 38.9773 110.12 39.7123 109.29 40.2484C108.46 40.7845 107.492 41.0526 106.385 41.0526C105.261 41.0526 104.284 40.7845 103.454 40.2484C102.623 39.7123 101.984 38.9773 101.534 38.0434C101.084 37.1095 100.86 36.046 100.86 34.8527C100.86 33.6767 101.084 32.6218 101.534 31.6879C101.984 30.7367 102.623 29.9931 103.454 29.457C104.284 28.9209 105.261 28.6528 106.385 28.6528ZM106.385 37.6802C106.99 37.6802 107.457 37.4295 107.786 36.928C108.132 36.4091 108.305 35.7174 108.305 34.8527C108.305 33.988 108.132 33.3049 107.786 32.8034C107.457 32.2845 106.99 32.0251 106.385 32.0251C105.78 32.0251 105.304 32.2845 104.958 32.8034C104.612 33.3049 104.439 33.988 104.439 34.8527C104.439 35.7174 104.612 36.4091 104.958 36.928C105.304 37.4295 105.78 37.6802 106.385 37.6802ZM134.943 41.753V21.8304H138.704V41.753H134.943ZM132.038 27.693C132.038 30.3563 131.588 32.6823 130.689 34.6711C129.789 36.6426 128.518 38.1645 126.875 39.2367C125.233 40.2916 123.313 40.8191 121.117 40.8191V37.0836C123.382 37.0663 125.12 36.2276 126.331 34.5673C127.559 32.9071 128.172 30.6157 128.172 27.693V25.8772H121.117V22.2973H132.038V27.693Z" fill="black"/>
</svg>
