<svg width="201" height="52" viewBox="0 0 201 52" fill="none" xmlns="http://www.w3.org/2000/svg">
<rect width="201" height="52" rx="26" fill="#FAE100"/>
<path d="M42.1508 13C34.3352 13 28 18.0073 28 24.1876C28 28.2089 30.6827 31.7332 34.712 33.7051C34.4154 34.8086 33.6405 37.7077 33.4856 38.3276C33.2932 39.0972 33.7661 39.0865 34.0787 38.8807C34.3219 38.7177 37.9558 36.2462 39.5242 35.18C40.3766 35.3056 41.253 35.3724 42.1508 35.3724C49.9663 35.3724 56.3015 30.3652 56.3015 24.1876C56.3015 18.0099 49.9663 13 42.1508 13ZM50.9255 27.4687L49.0044 24.8502L48.5662 25.2029C48.5662 25.2029 48.5662 26.4961 48.5662 27.1802C48.5662 27.768 47.0699 27.768 47.0699 27.1802C47.0699 26.8088 47.1019 21.7854 47.0886 21.2297C47.0806 20.9224 47.4733 20.7648 47.8581 20.7648C48.2161 20.7648 48.5688 20.9037 48.5769 21.1896C48.5982 21.9431 48.5769 23.3058 48.5769 23.3058C48.5769 23.3058 50.7438 21.1362 51.0538 20.8289C51.3717 20.5109 52.3577 21.5049 52.0397 21.8202C51.4947 22.3626 50.1106 23.8589 50.1106 23.8589L52.1493 26.5442C52.5367 27.0573 51.3156 27.9818 50.9282 27.4687H50.9255ZM40.1174 21.1976C40.3766 21.748 41.7901 25.6384 42.2015 26.7179C42.4874 27.4741 41.106 27.9978 40.8175 27.2416C40.4648 26.3064 40.5556 26.2663 40.5556 26.2663H37.8916L37.6004 27.2844C37.2904 27.9978 35.9491 27.4153 36.2617 26.7019C36.6919 25.7132 37.9852 21.9858 38.3432 21.1976C38.4848 20.885 38.8188 20.7594 39.1608 20.7594C39.575 20.7594 39.9998 20.9411 40.1201 21.1976H40.1174ZM36.7053 20.7594C37.6111 20.7594 37.6111 22.1836 36.7053 22.1836C35.7434 22.1836 35.2571 22.1809 35.2571 22.1809L35.2517 27.0706C35.2517 27.7493 33.7394 27.7413 33.7394 27.0599C33.7474 26.1274 33.7394 22.1275 33.7394 22.1275H32.2832C31.4281 22.1275 31.4255 20.7327 32.2832 20.73C32.2832 20.73 35.6926 20.7594 36.7133 20.7594H36.7053ZM42.7172 26.7794C42.7172 26.7794 42.7119 22.6966 42.7092 21.4301C42.7092 20.9839 43.102 20.7621 43.4974 20.7621C43.8929 20.7621 44.283 20.9839 44.2857 21.4274C44.2857 22.3439 44.283 26.1221 44.283 26.1221C44.283 26.1221 45.5308 26.1301 46.2175 26.1301C46.9042 26.1301 46.9042 27.5863 46.2202 27.5863C45.5362 27.5863 43.9918 27.5943 43.297 27.5943C42.6023 27.5943 42.7172 26.782 42.7172 26.782V26.7794Z" fill="#371D1E"/>
<path d="M40.0586 24.925L39.249 22.3866L38.3699 24.925H40.0586Z" fill="#371D1E"/>
<path d="M32.2778 22.1274H33.734C33.734 22.1274 33.742 26.1274 33.734 27.0599C33.734 27.7412 35.249 27.7493 35.2464 27.0706L35.2517 22.1809C35.2517 22.1809 35.7407 22.1835 36.6999 22.1835C37.6057 22.1835 37.6057 20.7594 36.6999 20.7594C35.6792 20.7594 32.2698 20.73 32.2698 20.73C31.4148 20.73 31.4174 22.1274 32.2698 22.1274H32.2778Z" fill="#FAE100"/>
<path d="M38.3406 21.1976C37.9825 21.9858 36.6866 25.7132 36.2591 26.7019C35.9492 27.4153 37.2878 28.0004 37.5978 27.2844L37.889 26.2663H40.553C40.553 26.2663 40.4621 26.3091 40.8148 27.2416C41.1007 27.9978 42.4848 27.4741 42.1989 26.7179C41.7901 25.6384 40.374 21.748 40.1148 21.1976C39.9945 20.9438 39.5697 20.7594 39.1555 20.7594C38.8135 20.7594 38.4795 20.885 38.3379 21.1976H38.3406ZM39.2491 22.3866L40.0587 24.925H38.37L39.2491 22.3866Z" fill="#FAE100"/>
<path d="M46.2175 26.1274C45.5335 26.1274 44.283 26.1194 44.283 26.1194C44.283 26.1194 44.2884 22.3439 44.2857 21.4247C44.2857 20.9812 43.8903 20.7594 43.4975 20.7594C43.1047 20.7594 42.7066 20.9838 42.7092 21.4274C42.7092 22.6939 42.7173 26.7767 42.7173 26.7767C42.7173 26.7767 42.5997 27.589 43.2971 27.589C43.9945 27.589 45.5362 27.5809 46.2202 27.5809C46.9042 27.5809 46.9016 26.1247 46.2175 26.1247V26.1274Z" fill="#FAE100"/>
<path d="M50.1078 23.8589C50.1078 23.8589 51.4919 22.3626 52.037 21.8202C52.355 21.5049 51.369 20.5109 51.051 20.8289C50.7438 21.1335 48.5741 23.3058 48.5741 23.3058C48.5741 23.3058 48.5928 21.9431 48.5741 21.1896C48.5661 20.9037 48.2161 20.7648 47.8554 20.7648C47.4706 20.7648 47.0778 20.9224 47.0858 21.2297C47.1019 21.7855 47.0671 26.8088 47.0671 27.1802C47.0671 27.768 48.5634 27.7653 48.5634 27.1802C48.5634 26.4988 48.5634 25.2029 48.5634 25.2029L49.0016 24.8502L50.9228 27.4688C51.3102 27.9818 52.5313 27.0546 52.1439 26.5442L50.1052 23.8589H50.1078Z" fill="#FAE100"/>
<path d="M78.6889 26.9778V34.7556H75.8889V17.6889H78.6889V24.1333H80.7111V26.9778H78.6889ZM73.3556 18.1556V23.1556C73.3556 25.3778 72.963 27.2963 72.1778 28.9111C71.3926 30.5259 70.3037 31.7556 68.9111 32.6C67.5185 33.4444 65.9185 33.8667 64.1111 33.8667V31.1111C65.5778 31.0963 66.8222 30.7259 67.8444 30C68.8815 29.2741 69.6222 28.2 70.0667 26.7778H64.1111V24.1111H70.5333C70.5481 23.9481 70.5556 23.7037 70.5556 23.3778V20.8222H64.1111V18.1556H73.3556ZM96.2865 26.9778V34.7556H93.4865V17.6889H96.2865V24.1333H98.3088V26.9778H96.2865ZM90.9532 18.1556V23.1556C90.9532 25.3778 90.5606 27.2963 89.7754 28.9111C88.9902 30.5259 87.9014 31.7556 86.5088 32.6C85.1162 33.4444 83.5162 33.8667 81.7088 33.8667V31.1111C83.1754 31.0963 84.4199 30.7259 85.4421 30C86.4791 29.2741 87.2199 28.2 87.6643 26.7778H81.7088V24.1111H88.131C88.1458 23.9481 88.1532 23.7037 88.1532 23.3778V20.8222H81.7088V18.1556H90.9532ZM115.173 34.0889H98.8175V31.3333H105.573V28.5556C104.358 28.4222 103.292 28.1111 102.373 27.6222C101.455 27.1333 100.743 26.5111 100.24 25.7556C99.7509 25 99.5064 24.1481 99.5064 23.2C99.5064 22.1481 99.8175 21.2148 100.44 20.4C101.077 19.5704 101.958 18.9333 103.084 18.4889C104.225 18.0296 105.529 17.8 106.995 17.8C108.477 17.8 109.78 18.0296 110.906 18.4889C112.047 18.9333 112.929 19.5704 113.551 20.4C114.173 21.2148 114.484 22.1481 114.484 23.2C114.484 24.1481 114.232 25 113.729 25.7556C113.24 26.5111 112.536 27.1333 111.618 27.6222C110.699 28.1111 109.632 28.4222 108.418 28.5556V31.3333H115.173V34.0889ZM102.462 23.2C102.462 24.0296 102.877 24.7037 103.706 25.2222C104.551 25.7259 105.647 25.9778 106.995 25.9778C108.343 25.9778 109.432 25.7259 110.262 25.2222C111.106 24.7037 111.529 24.0296 111.529 23.2C111.529 22.3852 111.106 21.7259 110.262 21.2222C109.432 20.7037 108.343 20.4444 106.995 20.4444C105.647 20.4444 104.551 20.7037 103.706 21.2222C102.877 21.7259 102.462 22.3852 102.462 23.2ZM132.771 28.9556H116.415V26.6667H123.193V25.5333H117.482V17.7556H131.771V19.7333H120.237V20.7556H131.482V22.5333H120.237V23.5556H131.926V25.5333H125.993V26.6667H132.771V28.9556ZM131.771 29.9556V34.8889H128.926V32.2444H117.326V29.9556H131.771ZM155.496 23.3111H153.474V27.0889H150.674V17.6889H153.474V20.5111H155.496V23.3111ZM144.074 23.5111C143.407 24.5037 142.593 25.2963 141.63 25.8889C140.667 26.4815 139.593 26.8296 138.407 26.9333V24.2889C139.311 24.1556 140.096 23.7926 140.763 23.2C141.444 22.6074 141.97 21.8444 142.341 20.9111C142.711 19.9778 142.896 18.9333 142.896 17.7778L145.718 17.9556C145.718 19.1556 145.548 20.2593 145.207 21.2667L149.807 24.3778L148.385 26.4889L144.074 23.5111ZM146.452 27.4444C148.644 27.4444 150.393 27.7407 151.696 28.3333C153 28.9259 153.652 29.8667 153.652 31.1556C153.652 32.4593 153 33.4074 151.696 34C150.393 34.5926 148.644 34.8889 146.452 34.8889C144.274 34.8889 142.526 34.5926 141.207 34C139.904 33.4074 139.252 32.4593 139.252 31.1556C139.252 29.8667 139.904 28.9259 141.207 28.3333C142.526 27.7407 144.274 27.4444 146.452 27.4444ZM146.452 32.5333C147.696 32.5333 148.704 32.4222 149.474 32.2C150.244 31.963 150.63 31.6148 150.63 31.1556C150.63 30.6963 150.244 30.3556 149.474 30.1333C148.704 29.9111 147.696 29.8 146.452 29.8C145.207 29.8 144.2 29.9111 143.43 30.1333C142.659 30.3556 142.274 30.6963 142.274 31.1556C142.274 31.6148 142.659 31.963 143.43 32.2C144.2 32.4222 145.207 32.5333 146.452 32.5333ZM171.072 23.5778V26.9333H168.272V17.6889H171.072V20.7333H173.094V23.5778H171.072ZM167.383 25.6667C166.938 25.8593 166.331 26.0148 165.561 26.1333C164.79 26.2519 163.968 26.3111 163.094 26.3111H156.427V17.9556H166.383V20.4H159.227V23.8667H163.227C164.072 23.8667 164.857 23.8148 165.583 23.7111C166.324 23.6074 166.924 23.4593 167.383 23.2667V25.6667ZM171.072 27.6444V34.6889H156.961V27.6444H171.072ZM168.272 32.2444V30.0889H159.783V32.2444H168.272Z" fill="#371D1E"/>
</svg>
