<svg width="201" height="52" viewBox="0 0 201 52" fill="none" xmlns="http://www.w3.org/2000/svg">
<rect width="201" height="52" rx="26" fill="#5DDFDE"/>
<path d="M65.7054 27.0613H55.1595C54.5734 27.0613 54.0983 26.5861 54.0983 26.0001C54.0983 25.414 54.5734 24.9388 55.1595 24.9388H65.7054C66.2915 24.9388 66.7666 25.414 66.7666 26.0001C66.7666 26.5861 66.2915 27.0613 65.7054 27.0613Z" fill="black"/>
<path d="M65.7054 21.7551H55.1595C54.5734 21.7551 54.0983 21.28 54.0983 20.6939C54.0983 20.1079 54.5734 19.6327 55.1595 19.6327H65.7054C66.2915 19.6327 66.7666 20.1079 66.7666 20.6939C66.7666 21.28 66.2915 21.7551 65.7054 21.7551Z" fill="black"/>
<path d="M60.7641 32.3673H55.1595C54.5734 32.3673 54.0983 31.8922 54.0983 31.3061C54.0983 30.72 54.5734 30.2449 55.1595 30.2449H60.7641C61.3501 30.2449 61.8253 30.72 61.8253 31.3061C61.8253 31.8922 61.3501 32.3673 60.7641 32.3673Z" fill="black"/>
<path d="M62.1901 39H53.7143C51.6659 39 50 37.3341 50 35.2857V16.7143C50 14.6659 51.6659 13 53.7143 13H67.1511C69.1995 13 70.8654 14.6659 70.8654 16.7143V30.3247C70.8654 30.6061 70.7535 30.876 70.5545 31.075L62.9409 38.6891C62.7419 38.8881 62.472 39 62.1906 39H62.1901ZM53.7143 15.1224C52.8365 15.1224 52.1224 15.8365 52.1224 16.7143V35.2857C52.1224 36.1635 52.8365 36.8776 53.7143 36.8776H61.7507L68.7429 29.8853V16.7143C68.7429 15.8365 68.0289 15.1224 67.1511 15.1224H53.7143Z" fill="black"/>
<path d="M93.5765 23.3111H91.5542V27.0889H88.7542V17.6889H91.5542V20.5111H93.5765V23.3111ZM82.1542 23.5111C81.4876 24.5037 80.6728 25.2963 79.7098 25.8889C78.7468 26.4815 77.6728 26.8296 76.4876 26.9333V24.2889C77.3913 24.1556 78.1765 23.7926 78.8431 23.2C79.5246 22.6074 80.0505 21.8444 80.4209 20.9111C80.7913 19.9778 80.9765 18.9333 80.9765 17.7778L83.7987 17.9556C83.7987 19.1556 83.6283 20.2593 83.2876 21.2667L87.8876 24.3778L86.4654 26.4889L82.1542 23.5111ZM84.532 27.4444C86.7246 27.4444 88.4728 27.7407 89.7765 28.3333C91.0802 28.9259 91.732 29.8667 91.732 31.1556C91.732 32.4593 91.0802 33.4074 89.7765 34C88.4728 34.5926 86.7246 34.8889 84.532 34.8889C82.3542 34.8889 80.6061 34.5926 79.2876 34C77.9839 33.4074 77.332 32.4593 77.332 31.1556C77.332 29.8667 77.9839 28.9259 79.2876 28.3333C80.6061 27.7407 82.3542 27.4444 84.532 27.4444ZM84.532 32.5333C85.7765 32.5333 86.7839 32.4222 87.5542 32.2C88.3246 31.963 88.7098 31.6148 88.7098 31.1556C88.7098 30.6963 88.3246 30.3556 87.5542 30.1333C86.7839 29.9111 85.7765 29.8 84.532 29.8C83.2876 29.8 82.2802 29.9111 81.5098 30.1333C80.7394 30.3556 80.3542 30.6963 80.3542 31.1556C80.3542 31.6148 80.7394 31.963 81.5098 32.2C82.2802 32.4222 83.2876 32.5333 84.532 32.5333ZM109.152 23.5778V26.9333H106.352V17.6889H109.152V20.7333H111.174V23.5778H109.152ZM105.463 25.6667C105.019 25.8593 104.411 26.0148 103.641 26.1333C102.87 26.2519 102.048 26.3111 101.174 26.3111H94.5075V17.9556H104.463V20.4H97.3075V23.8667H101.307C102.152 23.8667 102.937 23.8148 103.663 23.7111C104.404 23.6074 105.004 23.4593 105.463 23.2667V25.6667ZM109.152 27.6444V34.6889H95.0408V27.6444H109.152ZM106.352 32.2444V30.0889H97.863V32.2444H106.352ZM128.789 30.3333V17.6889H131.611V30.3333H128.789ZM121.877 24.2889C121.196 25.3407 120.374 26.1926 119.411 26.8444C118.463 27.4815 117.426 27.8444 116.3 27.9333V25.1778C117.189 25.0444 117.981 24.637 118.677 23.9556C119.374 23.2741 119.914 22.3926 120.3 21.3111C120.685 20.2296 120.877 19.0519 120.877 17.7778L123.722 17.9556C123.722 19.3185 123.5 20.6519 123.055 21.9556L127.9 25.6L126.255 27.7111L121.877 24.2889ZM131.9 34.6889H117.322V28.8667H120.189V32.0444H131.9V34.6889ZM139.231 24.7778C138.608 25.5926 137.845 26.2593 136.942 26.7778C136.038 27.2963 135.053 27.5852 133.986 27.6444V25.1333C134.979 25.0296 135.816 24.637 136.497 23.9556C137.194 23.2741 137.653 22.4444 137.875 21.4667H134.164V19.0444H137.964V17.3778H140.808V19.0444H144.586V21.4667H140.764C140.631 22.0444 140.527 22.4222 140.453 22.6L144.986 25.3333L143.72 27.5111L139.231 24.7778ZM146.497 17.6889H149.297V27.8222H146.497V23.8222H144.075V21.2H146.497V17.6889ZM142.142 28.1556C144.379 28.1556 146.157 28.4222 147.475 28.9556C148.794 29.4741 149.453 30.3333 149.453 31.5333C149.453 32.7185 148.794 33.5704 147.475 34.0889C146.157 34.6222 144.379 34.8889 142.142 34.8889C139.92 34.8889 138.149 34.6222 136.831 34.0889C135.512 33.5704 134.853 32.7185 134.853 31.5333C134.853 30.3333 135.512 29.4741 136.831 28.9556C138.149 28.4222 139.92 28.1556 142.142 28.1556ZM142.142 32.6222C145.016 32.6222 146.453 32.2593 146.453 31.5333C146.453 30.7926 145.016 30.4222 142.142 30.4222C139.297 30.4222 137.875 30.7926 137.875 31.5333C137.875 32.2593 139.297 32.6222 142.142 32.6222Z" fill="black"/>
</svg>
