<svg width="227" height="27" viewBox="0 0 227 27" fill="none" xmlns="http://www.w3.org/2000/svg">
<path d="M19.9304 0.533333H22.3304V19.6H19.9304V8.96667H14.9304V6.73333H19.9304V0.533333ZM8.09707 9.8C7.29707 11.5111 6.20818 12.8889 4.8304 13.9333C3.45263 14.9778 1.86374 15.6111 0.063737 15.8333V13.5C2.17485 13.1667 3.85263 12.1111 5.09707 10.3333C6.36374 8.55556 7.06374 6.26667 7.19707 3.46667H0.363737V1.26667H15.9304V3.46667H9.59707C9.5304 5.06667 9.31929 6.45555 8.96374 7.63333L16.5637 13.7667L15.1971 15.6333L8.09707 9.8ZM22.8971 25.7333H1.8304V17.7667H4.26374V23.4333H22.8971V25.7333ZM27.6936 3.1V0.9H48.3936V9.6H45.9602V3.1H27.6936ZM39.2936 17.8H48.4602V26.1H46.0269V19.9667H27.4936V17.8H36.8936V13.3667H25.9602V11.1667H50.2269V13.3667H39.2936V17.8ZM70.1485 25H67.6152V3.8H62.1485V1.66667H70.1485V25ZM83.1916 2.96667V7.5H101.692V9.56667H80.7916V0.9H101.425V2.96667H83.1916ZM78.9583 14.4V12.3333H103.225V14.4H78.9583ZM91.0916 16.9333C94.2472 16.9333 96.8027 17.3 98.7583 18.0333C100.736 18.7444 101.725 19.9111 101.725 21.5333C101.725 23.1556 100.736 24.3333 98.7583 25.0667C96.8027 25.8 94.2472 26.1667 91.0916 26.1667C87.936 26.1667 85.3694 25.8 83.3916 25.0667C81.436 24.3333 80.4583 23.1556 80.4583 21.5333C80.4583 19.9111 81.436 18.7444 83.3916 18.0333C85.3694 17.3 87.936 16.9333 91.0916 16.9333ZM91.0916 18.9667C88.8027 18.9667 86.8694 19.1778 85.2916 19.6C83.736 20 82.9583 20.6444 82.9583 21.5333C82.9583 22.4444 83.736 23.1111 85.2916 23.5333C86.8472 23.9333 88.7805 24.1333 91.0916 24.1333C93.3805 24.1333 95.3027 23.9333 96.8583 23.5333C98.4138 23.1111 99.1916 22.4444 99.1916 21.5333C99.1916 20.6444 98.4138 20 96.8583 19.6C95.3027 19.1778 93.3805 18.9667 91.0916 18.9667ZM116.38 18.9333V25H113.98V1.66667H116.38V15.7667L129.313 1.66667H132.113L122.48 12.2333L132.747 25H129.88L120.913 14L116.38 18.9333ZM132.72 3.83333V1.66667H150.687V3.83333H142.92V25H140.52V3.83333H132.72ZM173.98 15.8333H171.547V0.533333H173.98V15.8333ZM160.013 9.4C159.213 10.9556 158.125 12.2222 156.747 13.2C155.369 14.1778 153.791 14.7778 152.013 15V12.6667C154.125 12.3333 155.813 11.3556 157.08 9.73333C158.369 8.11111 159.08 6.02222 159.213 3.46667H152.313V1.26667H168.047V3.46667H161.647C161.58 4.73333 161.369 6.02222 161.013 7.33333L168.78 12.9L167.48 14.8L160.013 9.4ZM173.98 17.3333V26.0667H171.547V19.5667H153.313V17.3333H173.98ZM198.177 5.16667H193.81L193.677 3H198.177V0.533333H200.543V14.7H198.177V11.5333H193.677L193.81 9.33333H198.177V5.16667ZM192.943 7.3C192.943 8.56667 192.643 9.68889 192.043 10.6667C191.443 11.6444 190.577 12.4111 189.443 12.9667C188.332 13.5 187.032 13.7667 185.543 13.7667C184.032 13.7667 182.71 13.5 181.577 12.9667C180.466 12.4111 179.599 11.6444 178.977 10.6667C178.377 9.68889 178.077 8.56667 178.077 7.3C178.077 6.03333 178.377 4.91111 178.977 3.93333C179.599 2.95555 180.466 2.2 181.577 1.66667C182.71 1.11111 184.032 0.833333 185.543 0.833333C187.032 0.833333 188.332 1.11111 189.443 1.66667C190.577 2.2 191.443 2.95555 192.043 3.93333C192.643 4.91111 192.943 6.03333 192.943 7.3ZM180.51 7.3C180.51 8.65556 180.966 9.72222 181.877 10.5C182.788 11.2556 184.01 11.6333 185.543 11.6333C187.054 11.6333 188.266 11.2556 189.177 10.5C190.11 9.72222 190.577 8.65556 190.577 7.3C190.577 5.94444 190.11 4.88889 189.177 4.13333C188.266 3.35556 187.054 2.96667 185.543 2.96667C184.01 2.96667 182.788 3.35556 181.877 4.13333C180.966 4.88889 180.51 5.94444 180.51 7.3ZM190.51 15.6333C193.577 15.6333 196.054 16.0667 197.943 16.9333C199.832 17.7778 200.777 19.0889 200.777 20.8667C200.777 22.6222 199.832 23.9333 197.943 24.8C196.054 25.6444 193.577 26.0667 190.51 26.0667C187.421 26.0667 184.943 25.6444 183.077 24.8C181.21 23.9333 180.277 22.6222 180.277 20.8667C180.277 19.0889 181.21 17.7778 183.077 16.9333C184.943 16.0667 187.421 15.6333 190.51 15.6333ZM190.51 23.9667C192.777 23.9667 194.621 23.7 196.043 23.1667C197.488 22.6333 198.21 21.8667 198.21 20.8667C198.21 19.8444 197.488 19.0667 196.043 18.5333C194.621 18 192.777 17.7333 190.51 17.7333C188.243 17.7333 186.388 18 184.943 18.5333C183.521 19.0667 182.81 19.8444 182.81 20.8667C182.81 21.8667 183.521 22.6333 184.943 23.1667C186.388 23.7 188.243 23.9667 190.51 23.9667ZM226.94 14.7H224.54V7.73333H219.54V5.53333H224.54V0.533333H226.94V14.7ZM212.673 8.8C211.851 10.2667 210.751 11.4667 209.373 12.4C208.018 13.3111 206.451 13.8778 204.673 14.1V11.8333C206.762 11.5 208.418 10.6 209.64 9.13333C210.884 7.64444 211.595 5.74444 211.773 3.43333H204.973V1.26667H220.54V3.43333H214.206C214.14 4.65556 213.94 5.76667 213.606 6.76667L221.34 11.9667L220.106 13.8667L212.673 8.8ZM226.94 16.2V25.7333H206.44V16.2H226.94ZM224.54 23.5667V18.3667H208.873V23.5667H224.54Z" fill="#333333"/>
</svg>
