<svg width="677" height="334" viewBox="0 0 677 334" fill="none" xmlns="http://www.w3.org/2000/svg">
<path d="M663.229 0H14.5205C6.93467 0 0.785156 6.14977 0.785156 13.7359V320.264C0.785156 327.85 6.93467 334 14.5205 334H663.229C670.814 334 676.964 327.85 676.964 320.264V13.7359C676.964 6.14977 670.814 0 663.229 0Z" fill="white"/>
<path d="M48.2633 150.11C48.9958 151.243 49.3621 152.925 49.3621 155.135C49.3621 157.344 48.9958 159.026 48.2633 160.159C47.5307 161.293 46.5463 161.865 45.2987 161.865C44.4975 161.865 43.7878 161.613 43.1812 161.121C42.5745 160.629 42.0938 159.873 41.7504 158.866C41.407 157.859 41.2354 156.611 41.2354 155.123C41.2354 153.635 41.407 152.387 41.7504 151.38C42.0938 150.373 42.5745 149.629 43.1812 149.125C43.7878 148.633 44.4975 148.381 45.2987 148.381C46.5463 148.381 47.5307 148.954 48.2633 150.087V150.11ZM47.5078 159.415C48.0572 158.454 48.3319 157.023 48.3319 155.146C48.3319 153.269 48.0572 151.838 47.5078 150.877C46.9584 149.915 46.2259 149.423 45.3102 149.423C44.3945 149.423 43.6619 149.904 43.1011 150.877C42.5402 151.85 42.2769 153.269 42.2769 155.146C42.2769 157.023 42.5517 158.454 43.1011 159.415C43.6505 160.377 44.383 160.869 45.3102 160.869C46.2373 160.869 46.9584 160.388 47.5078 159.415ZM53.0821 155.238V162.643H52.0519V147.992H53.0821V154.23H55.1996V155.238H53.0821Z" fill="black"/>
<path d="M62.4443 149.148C63.0624 149.64 63.5432 150.396 63.898 151.403C64.2528 152.41 64.4245 153.658 64.4245 155.146C64.4245 156.634 64.2528 157.881 63.898 158.889C63.5432 159.896 63.0624 160.64 62.4443 161.143C61.8262 161.636 61.1166 161.887 60.2925 161.887C59.0448 161.887 58.049 161.315 57.2936 160.182C56.5381 159.049 56.1719 157.366 56.1719 155.157C56.1719 152.948 56.5496 151.266 57.2936 150.132C58.049 148.988 59.0448 148.427 60.2925 148.427C61.1051 148.427 61.8262 148.679 62.4443 149.171V149.148ZM58.049 150.865C57.4767 151.826 57.1906 153.257 57.1906 155.134C57.1906 157.011 57.4767 158.442 58.049 159.404C58.6213 160.365 59.3768 160.857 60.3039 160.857C61.2311 160.857 61.9636 160.377 62.5245 159.404C63.0853 158.431 63.3715 157.011 63.3715 155.134C63.3715 153.257 63.0853 151.826 62.5245 150.865C61.9636 149.903 61.2196 149.411 60.3039 149.411C59.3882 149.411 58.6213 149.892 58.049 150.865ZM67.2174 162.631V147.98H68.2704V162.631H67.2174Z" fill="black"/>
<path d="M84.043 157.243H70.2275V156.293H76.6145V154.233H71.0631V153.294H73.7186V149.174H71.2234V148.258H83.0472V149.174H80.5519V153.294H83.1845V154.233H77.6561V156.293H84.043V157.243ZM83.299 161.432V162.371H71.2806V158.536H72.3336V161.432H83.299ZM79.5218 153.294V149.174H74.7488V153.294H79.5218Z" fill="black"/>
<path d="M91.1629 161.991H90.1328V149.537H86.8936V148.645H91.1629V162.002V161.991Z" fill="black"/>
<path d="M104.429 155.237C105.299 155.912 105.734 156.885 105.734 158.121C105.734 158.877 105.562 159.552 105.207 160.147C104.853 160.743 104.326 161.212 103.628 161.555C102.918 161.899 102.06 162.07 101.041 162.07C100.022 162.07 99.164 161.91 98.317 161.59C97.4586 161.269 96.8062 160.834 96.3369 160.308L96.852 159.529C97.2755 160.01 97.8592 160.411 98.5917 160.708C99.3357 161.017 100.148 161.166 101.018 161.166C102.197 161.166 103.113 160.891 103.742 160.33C104.372 159.781 104.692 159.048 104.692 158.144C104.692 157.148 104.337 156.404 103.616 155.889C102.895 155.386 101.682 155.122 99.9881 155.122H97.2411L97.9508 148.621H105.047V149.514H98.8321L98.317 154.207H100.228C102.174 154.207 103.582 154.55 104.452 155.225L104.429 155.237Z" fill="black"/>
<path d="M118.061 157.127H123.44V160.103H112.658V161.557H123.704V162.381H111.662V159.348H122.422V157.94H111.628V157.139H117.03V155.502H110.644V154.609H124.459V155.502H118.072V157.139L118.061 157.127ZM114.627 152.892C113.551 153.213 112.418 153.396 111.227 153.442V152.549C112.578 152.515 113.826 152.263 114.982 151.793C116.126 151.336 116.836 150.66 117.111 149.779H111.525V148.898H117.053V147.387H118.084V148.898H123.578V149.779H118.198C118.164 150.042 118.049 150.363 117.855 150.729L123.887 152.56L123.578 153.419L117.191 151.45C116.573 152.091 115.714 152.56 114.638 152.892H114.627Z" fill="black"/>
<path d="M130.79 154.551L135.506 160.995L134.682 161.624L130.481 155.81C130.011 157.549 129.37 158.934 128.569 159.953C127.768 160.972 126.818 161.544 125.73 161.67V160.617C126.715 160.434 127.539 159.781 128.226 158.637C128.913 157.492 129.428 156.027 129.782 154.241C130.137 152.456 130.309 150.51 130.32 148.393L131.374 148.415C131.351 150.739 131.156 152.788 130.778 154.562L130.79 154.551ZM138.184 162.631H137.154V147.98H138.184V162.631Z" fill="black"/>
<path d="M149.516 150.525V151.52H140.496V150.525H144.479V147.949H145.532V150.525H149.516ZM146.929 153.523C147.501 153.89 147.959 154.416 148.291 155.092C148.623 155.767 148.783 156.545 148.783 157.415C148.783 158.285 148.623 159.063 148.291 159.727C147.959 160.391 147.501 160.918 146.929 161.284C146.345 161.65 145.704 161.833 144.994 161.833C144.285 161.833 143.644 161.65 143.071 161.284C142.499 160.918 142.053 160.403 141.721 159.727C141.389 159.063 141.229 158.285 141.229 157.415C141.229 156.545 141.389 155.767 141.721 155.092C142.053 154.416 142.499 153.901 143.071 153.523C143.644 153.146 144.285 152.974 144.994 152.974C145.704 152.974 146.357 153.157 146.929 153.523ZM146.391 160.437C146.814 160.151 147.146 159.75 147.398 159.224C147.65 158.697 147.776 158.102 147.776 157.415C147.776 156.728 147.65 156.122 147.398 155.595C147.146 155.069 146.814 154.657 146.391 154.37C145.967 154.084 145.509 153.936 144.994 153.936C144.479 153.936 144.021 154.073 143.598 154.37C143.174 154.657 142.843 155.069 142.591 155.595C142.339 156.122 142.213 156.728 142.213 157.415C142.213 158.102 142.339 158.709 142.591 159.224C142.843 159.75 143.174 160.151 143.598 160.437C144.021 160.723 144.479 160.872 144.994 160.872C145.509 160.872 145.967 160.735 146.391 160.437ZM152.549 155.24V162.646H151.519V147.995H152.549V154.233H154.666V155.24H152.549Z" fill="black"/>
<path d="M159.896 154.791L164.624 160.881L163.799 161.51L159.599 156.039C159.164 157.676 158.569 158.98 157.813 159.942C157.058 160.903 156.165 161.476 155.135 161.67V160.606C156.005 160.4 156.749 159.805 157.367 158.809C157.985 157.813 158.466 156.531 158.786 154.94C159.107 153.36 159.29 151.575 159.313 149.606H155.421V148.61H164.154V149.606H160.343C160.32 151.563 160.16 153.292 159.885 154.791H159.896ZM167.313 155.238V162.643H166.283V147.992H167.313V154.23H169.431V155.238H167.313Z" fill="black"/>
<path d="M178.016 148.61V161.659H170.462V148.61H178.016ZM176.986 160.652V149.629H171.492V160.652H176.986ZM182.08 155.238V162.643H181.05V147.992H182.08V154.23H184.197V155.238H182.08Z" fill="black"/>
<path d="M189.428 154.791L194.155 160.881L193.331 161.51L189.13 156.039C188.695 157.676 188.1 158.98 187.344 159.942C186.589 160.903 185.696 161.476 184.666 161.67V160.606C185.536 160.4 186.28 159.805 186.898 158.809C187.516 157.813 187.997 156.531 188.317 154.94C188.638 153.36 188.821 151.575 188.844 149.606H184.952V148.61H193.686V149.606H189.874C189.851 151.563 189.691 153.292 189.416 154.791H189.428ZM196.845 155.238V162.643H195.815V147.992H196.845V154.23H198.962V155.238H196.845Z" fill="black"/>
<path d="M207.855 154.619L212.434 160.995L211.61 161.624L207.524 155.879C207.066 157.595 206.436 158.958 205.658 159.965C204.868 160.972 203.929 161.533 202.854 161.659V160.606C203.838 160.423 204.662 159.77 205.337 158.626C206.013 157.481 206.516 156.016 206.848 154.242C207.18 152.468 207.352 150.51 207.363 148.381L208.416 148.404C208.393 150.808 208.21 152.88 207.867 154.619H207.855ZM215.044 155.238V162.643H214.013V147.992H215.044V154.23H217.161V155.238H215.044Z" fill="black"/>
<path d="M231.24 161.833H217.425V160.826H222.942V153.844H223.995V160.826H231.24V161.833ZM218.34 149.609V148.602H230.222V158.274H229.168V149.609H218.329H218.34Z" fill="black"/>
<path d="M238.565 154.207C237.776 154.768 236.871 155.146 235.853 155.329V154.322C236.78 154.116 237.592 153.715 238.279 153.131C238.966 152.547 239.504 151.815 239.87 150.945C240.237 150.087 240.42 149.148 240.42 148.164L241.427 148.221C241.427 149.343 241.244 150.338 240.889 151.22L245.548 154.367L245.033 155.169L240.454 152.101C239.973 152.96 239.332 153.658 238.542 154.219L238.565 154.207ZM248.753 162.425H236.677V161.487H239.39V157.71H236.837V156.771H248.592V157.71H246.051V161.487H248.764V162.425H248.753ZM244.998 161.487V157.71H240.397V161.487H244.998ZM247.379 155.764V147.98H248.409V155.764H247.379Z" fill="black"/>
<path d="M257.761 154.726C257.017 155.344 256.044 155.653 254.83 155.653C253.972 155.653 253.239 155.492 252.598 155.172C251.957 154.851 251.477 154.417 251.133 153.844C250.79 153.283 250.618 152.642 250.618 151.921C250.618 151.2 250.79 150.571 251.133 150.01C251.477 149.449 251.969 149.014 252.598 148.693C253.239 148.373 253.983 148.213 254.83 148.213C255.986 148.213 256.936 148.499 257.669 149.071C258.401 149.644 258.836 150.388 258.962 151.303H262.247V147.961H263.278V156.122H262.247V152.288H259.008C258.917 153.283 258.505 154.085 257.761 154.703V154.726ZM252.53 153.959C253.113 154.451 253.88 154.703 254.842 154.703C255.803 154.703 256.559 154.451 257.154 153.959C257.738 153.467 258.035 152.791 258.035 151.933C258.035 151.074 257.738 150.41 257.154 149.907C256.57 149.415 255.803 149.163 254.842 149.163C253.88 149.163 253.113 149.415 252.53 149.907C251.946 150.399 251.648 151.074 251.648 151.933C251.648 152.791 251.946 153.455 252.53 153.959ZM259.466 161.547C258.882 162.005 258.264 162.269 257.589 162.349L255.048 159.865C254.659 160.563 254.166 161.135 253.594 161.57C253.01 162.005 252.392 162.269 251.74 162.337V161.341C252.289 161.261 252.804 160.998 253.285 160.552C253.766 160.105 254.166 159.522 254.475 158.823C254.785 158.125 254.968 157.37 255.013 156.568L256.009 156.683C255.963 157.473 255.78 158.24 255.494 158.972L257.875 161.284C258.367 161.158 258.836 160.861 259.26 160.403C259.683 159.945 260.038 159.384 260.302 158.72C260.565 158.056 260.725 157.335 260.759 156.568L261.767 156.706C261.698 157.541 261.549 158.274 261.309 158.881L264.479 161.605L263.85 162.349L260.908 159.739C260.53 160.472 260.05 161.078 259.466 161.536V161.547Z" fill="black"/>
<path d="M265.155 156.509V155.559H278.971V156.509H265.155ZM278.227 161.396V162.369H266.208V158.1H267.261V161.396H278.227ZM278.055 152.56V153.533H266.243V148.016H267.273V152.56H278.055Z" fill="black"/>
<path d="M285.689 160.503C286.25 160.377 286.765 160.205 287.211 160.01V160.983C286.788 161.201 286.284 161.372 285.678 161.487C285.071 161.613 284.453 161.67 283.823 161.67H280.47V148.621H286.616V149.594H281.466V160.697H283.984C284.567 160.697 285.14 160.64 285.712 160.503H285.689ZM289.787 148.083V162.391H288.779V155.157H284.808V154.15H288.779V148.083H289.787ZM293.083 162.631H292.076V147.98H293.083V162.631Z" fill="black"/>
<path d="M296.563 160.631C296.723 160.791 296.803 160.997 296.803 161.226C296.803 161.352 296.792 161.489 296.757 161.638C296.723 161.787 296.677 161.947 296.62 162.119L295.876 164.717H295.155L295.785 162.027C295.59 161.981 295.441 161.878 295.327 161.741C295.212 161.604 295.155 161.432 295.155 161.226C295.155 160.986 295.235 160.78 295.384 160.619C295.533 160.459 295.739 160.379 295.979 160.379C296.22 160.379 296.426 160.459 296.586 160.631H296.563Z" fill="black"/>
<path d="M301.634 150.523V149.584H305.812V147.719H306.865V149.584H311.065V150.523H301.645H301.634ZM303.431 156.727C302.675 156.189 302.298 155.456 302.298 154.529C302.298 153.602 302.675 152.892 303.419 152.354C304.163 151.816 305.148 151.553 306.338 151.553C307.529 151.553 308.49 151.816 309.245 152.354C310.001 152.892 310.379 153.613 310.379 154.529C310.379 155.445 310.001 156.189 309.245 156.727C308.49 157.265 307.517 157.54 306.338 157.54C305.159 157.54 304.186 157.265 303.431 156.727ZM314.488 161.374V162.347H302.675V158.593H303.706V161.374H314.488ZM304.118 153.03C303.568 153.419 303.293 153.923 303.293 154.529C303.293 155.136 303.568 155.662 304.118 156.052C304.667 156.441 305.411 156.647 306.338 156.647C307.265 156.647 308.009 156.452 308.547 156.052C309.085 155.651 309.371 155.147 309.371 154.529C309.371 153.911 309.097 153.407 308.547 153.018C307.998 152.641 307.265 152.446 306.338 152.446C305.411 152.446 304.667 152.641 304.118 153.03ZM316.136 153.327H314.018V158.993H312.988V147.982H314.018V152.297H316.136V153.327Z" fill="black"/>
<path d="M319.192 155.044C318.448 155.582 317.59 155.926 316.605 156.097V155.124C317.762 154.907 318.7 154.38 319.421 153.545C320.142 152.709 320.566 151.668 320.703 150.42H316.731V149.47H320.737V147.719H321.768V149.47H325.694V150.42H321.768C321.722 151.004 321.596 151.565 321.401 152.103L325.888 155.079L325.35 155.914L320.966 152.995C320.52 153.82 319.925 154.506 319.181 155.033L319.192 155.044ZM328.784 157.448V162.347H317.452V157.448H328.784ZM327.743 161.42V158.387H318.471V161.42H327.743ZM328.784 152.549V156.498H327.754V147.993H328.784V151.519H330.902V152.549H328.784Z" fill="black"/>
<path d="M339.76 154.779L344.568 160.88L343.744 161.51L339.474 155.993C339.028 157.63 338.421 158.934 337.654 159.907C336.887 160.88 335.983 161.464 334.953 161.647V160.583C335.834 160.377 336.578 159.781 337.208 158.786C337.838 157.79 338.318 156.508 338.662 154.917C338.994 153.326 339.177 151.552 339.211 149.594H335.239V148.599H344.133V149.594H340.241C340.218 151.563 340.058 153.291 339.76 154.768V154.779ZM347.372 162.631H346.342V147.98H347.372V162.631Z" fill="black"/>
<path d="M357.616 160.457C358.269 160.331 358.807 160.159 359.23 159.942V160.949C358.818 161.178 358.292 161.35 357.628 161.476C356.964 161.602 356.289 161.659 355.602 161.659H350.131V148.519H351.161V160.652H355.625C356.3 160.652 356.964 160.583 357.616 160.457ZM361.737 155.238V162.643H360.707V147.992H361.737V154.23H363.854V155.238H361.737Z" fill="black"/>
<path d="M369.257 153.99L373.778 161.087L372.954 161.716L368.971 155.329C368.536 157.229 367.929 158.717 367.14 159.816C366.35 160.915 365.411 161.533 364.312 161.67V160.606C365.263 160.423 366.064 159.77 366.705 158.626C367.346 157.492 367.826 156.027 368.135 154.253C368.445 152.468 368.605 150.522 368.616 148.393L369.669 148.416C369.646 150.499 369.509 152.365 369.246 154.001L369.257 153.99ZM377.018 162.632H375.988V154.585H372.073V153.578H375.988V147.992H377.018V162.643V162.632Z" fill="black"/>
<path d="M390.318 148.61V151.907C390.318 153.841 390.021 155.535 389.426 157C388.83 158.465 387.983 159.599 386.873 160.4C385.763 161.201 384.435 161.602 382.901 161.602V160.571C384.229 160.571 385.362 160.217 386.324 159.507C387.285 158.797 388.018 157.801 388.533 156.508C389.036 155.215 389.3 153.704 389.3 151.964V149.595H382.913V148.599H390.33L390.318 148.61ZM394.702 155.238V162.643H393.672V147.992H394.702V154.23H396.82V155.238H394.702Z" fill="black"/>
<path d="M403.355 154.573C402.004 155.592 400.081 156.107 397.598 156.107V155.1C399.761 155.1 401.421 154.688 402.6 153.852C403.767 153.017 404.351 151.758 404.351 150.087V149.423H397.598V148.45H405.381V149.972C405.381 152.021 404.706 153.555 403.344 154.573H403.355ZM409.925 157.698V162.563H408.872V158.671H398.284V157.698H409.925ZM409.982 156.737H408.952V154.676H405.553V153.681H408.952V150.956H406.091V149.984H408.952V147.98H409.982V156.737Z" fill="black"/>
<path d="M420.903 160.514C421.464 160.411 421.967 160.262 422.402 160.079V161.075C421.979 161.27 421.475 161.407 420.891 161.51C420.308 161.613 419.678 161.659 419.014 161.659H415.832V148.576H416.828V160.674H419.174C419.77 160.674 420.353 160.629 420.926 160.526L420.903 160.514ZM428.458 162.632H427.45V155.157H424.611V162.391H423.616V148.084H424.611V154.173H427.45V147.992H428.458V162.643V162.632Z" fill="black"/>
<path d="M436.904 149.354H430.7V148.439H437.911V152.674H431.753V155.157H434.924C436.034 155.157 437.03 155.1 437.911 154.974C438.793 154.848 439.456 154.7 439.903 154.505V155.421C439.468 155.615 438.804 155.764 437.911 155.89C437.018 156.016 435.977 156.073 434.809 156.073H430.746V151.804H436.904V149.366V149.354ZM438.918 161.693C438.358 162.059 437.74 162.277 437.076 162.357L434.42 160.217C434.008 160.812 433.516 161.304 432.944 161.67C432.36 162.048 431.742 162.277 431.089 162.346V161.396C431.639 161.315 432.154 161.087 432.646 160.709C433.138 160.331 433.539 159.827 433.859 159.209C434.18 158.591 434.363 157.927 434.409 157.195L435.405 157.309C435.324 158.03 435.153 158.717 434.889 159.37L437.385 161.338C437.877 161.212 438.346 160.961 438.781 160.571C439.216 160.194 439.571 159.702 439.846 159.118C440.12 158.534 440.281 157.893 440.326 157.195L441.322 157.332C441.276 158.111 441.105 158.809 440.83 159.427L443.978 161.602L443.463 162.437L440.372 160.24C439.983 160.835 439.502 161.315 438.93 161.682L438.918 161.693ZM438.999 153.555V152.616H441.94V150.693H438.999V149.743H441.94V147.992H442.948V156.771H441.94V153.566H438.999V153.555Z" fill="black"/>
<path d="M444.824 155.296V154.38H458.64V155.296H444.824ZM456.041 148.657C457.152 149.08 457.713 149.733 457.713 150.626C457.713 151.518 457.152 152.171 456.03 152.594C454.908 153.018 453.477 153.224 451.715 153.224C449.952 153.224 448.498 153.018 447.377 152.594C446.255 152.171 445.694 151.518 445.694 150.626C445.694 149.733 446.255 149.08 447.377 148.657C448.498 148.233 449.952 148.027 451.715 148.027C453.477 148.027 454.92 148.233 456.041 148.657ZM446.862 159.966V161.511H457.884V162.369H445.843V159.187H456.579V157.699H445.797V156.841H457.609V159.966H446.85H446.862ZM448.178 149.321C447.239 149.607 446.77 150.03 446.77 150.614C446.77 151.198 447.239 151.633 448.166 151.896C449.094 152.159 450.284 152.308 451.726 152.308C453.168 152.308 454.336 152.171 455.263 151.896C456.19 151.621 456.659 151.198 456.659 150.614C456.659 150.03 456.19 149.595 455.263 149.321C454.324 149.046 453.146 148.897 451.726 148.897C450.307 148.897 449.116 149.035 448.178 149.321Z" fill="black"/>
<path d="M475.912 162.631H474.882V155.226H470.761C470.303 157.229 469.468 158.785 468.243 159.907C467.018 161.029 465.507 161.601 463.688 161.601V160.571C465.015 160.571 466.148 160.216 467.098 159.506C468.048 158.797 468.781 157.801 469.296 156.508C469.811 155.214 470.063 153.703 470.063 151.963V149.594H463.688V148.598H471.093V151.895C471.093 152.707 471.036 153.474 470.921 154.207H474.893V147.969H475.923V162.62L475.912 162.631Z" fill="black"/>
<path d="M487.473 153.601C486.111 154.413 484.176 154.814 481.658 154.814V153.875C483.856 153.864 485.55 153.532 486.729 152.891C487.908 152.25 488.503 151.22 488.503 149.812V149.377H481.658V148.439H489.522V149.721C489.522 151.506 488.846 152.8 487.484 153.601H487.473ZM493.745 161.453V162.346H482.276V156.142H493.585V157.023H483.306V158.797H493.402V159.633H483.306V161.441H493.745V161.453ZM495.714 151.975H493.596V155.203H492.566V147.992H493.596V150.945H495.714V151.975Z" fill="black"/>
<path d="M503.543 150.11C504.276 151.243 504.642 152.925 504.642 155.135C504.642 157.344 504.276 159.026 503.543 160.159C502.811 161.293 501.826 161.865 500.579 161.865C499.778 161.865 499.068 161.613 498.461 161.121C497.855 160.629 497.374 159.873 497.031 158.866C496.687 157.859 496.516 156.611 496.516 155.123C496.516 153.635 496.687 152.387 497.031 151.38C497.374 150.373 497.855 149.629 498.461 149.125C499.068 148.633 499.778 148.381 500.579 148.381C501.826 148.381 502.811 148.954 503.543 150.087V150.11ZM502.788 159.415C503.337 158.454 503.612 157.023 503.612 155.146C503.612 153.269 503.337 151.838 502.788 150.877C502.239 149.915 501.506 149.423 500.59 149.423C499.675 149.423 498.942 149.904 498.381 150.877C497.82 151.85 497.557 153.269 497.557 155.146C497.557 157.023 497.832 158.454 498.381 159.415C498.931 160.377 499.663 160.869 500.59 160.869C501.517 160.869 502.239 160.388 502.788 159.415ZM508.362 155.238V162.643H507.332V147.992H508.362V154.23H510.479V155.238H508.362Z" fill="black"/>
<path d="M521.777 150.109C522.498 151.243 522.864 152.925 522.864 155.134C522.864 157.343 522.498 159.026 521.777 160.159C521.055 161.292 520.071 161.865 518.835 161.865C517.599 161.865 516.626 161.292 515.893 160.159C515.161 159.026 514.806 157.343 514.806 155.134C514.806 152.925 515.172 151.243 515.893 150.109C516.614 148.965 517.599 148.404 518.835 148.404C520.071 148.404 521.044 148.976 521.777 150.109ZM520.998 159.415C521.536 158.454 521.811 157.023 521.811 155.134C521.811 153.246 521.536 151.815 520.998 150.853C520.46 149.892 519.739 149.411 518.835 149.411C517.931 149.411 517.209 149.892 516.66 150.853C516.111 151.815 515.836 153.246 515.836 155.134C515.836 157.023 516.111 158.454 516.66 159.415C517.209 160.377 517.931 160.857 518.835 160.857C519.739 160.857 520.46 160.377 520.998 159.415ZM527.076 162.631H526.069V158.259H523.322L523.402 157.252H526.069V152.96H523.402L523.322 151.929H526.069V147.98H527.076V162.631Z" fill="black"/>
<path d="M536.325 157.011C535.719 158.477 534.837 159.61 533.693 160.411C532.548 161.212 531.209 161.613 529.664 161.613V160.583C530.992 160.583 532.136 160.228 533.121 159.53C534.105 158.831 534.86 157.836 535.387 156.531C535.913 155.237 536.177 153.715 536.177 151.975V149.606H529.652V148.61H537.23V151.906C537.23 153.841 536.921 155.535 536.314 157L536.325 157.011ZM540.698 162.631V147.98H541.728V162.631H540.698Z" fill="black"/>
<path d="M548.687 154.7L553.494 160.88L552.67 161.51L548.401 155.936C547.966 157.595 547.371 158.912 546.604 159.885C545.837 160.869 544.944 161.453 543.914 161.659V160.594C544.784 160.388 545.528 159.793 546.146 158.797C546.764 157.801 547.245 156.52 547.565 154.929C547.886 153.349 548.069 151.563 548.092 149.595H544.2V148.599H552.991V149.595H549.122C549.11 151.46 548.962 153.166 548.687 154.688V154.7ZM556.607 162.632H555.577V154.757H551.823V153.75H555.577V147.992H556.607V162.643V162.632Z" fill="black"/>
<path d="M565.856 157.011C565.249 158.477 564.368 159.61 563.223 160.411C562.079 161.212 560.74 161.613 559.194 161.613V160.583C560.522 160.583 561.667 160.228 562.663 159.53C563.647 158.831 564.402 157.836 564.929 156.531C565.455 155.237 565.719 153.715 565.719 151.975V149.606H559.194V148.61H566.772V151.906C566.772 153.841 566.463 155.535 565.856 157V157.011ZM570.229 162.631V147.98H571.259V162.631H570.229Z" fill="black"/>
<path d="M54.5127 188.845H40.6973V187.838H46.2143V180.856H47.2673V187.838H54.5127V188.845ZM41.6244 176.621V175.613H53.5055V185.285H52.4524V176.621H41.613H41.6244Z" fill="black"/>
<path d="M56.2178 183.146V175.454H64.3102V183.146H56.2178ZM68.7055 188.377V189.372H56.7443V184.817H57.7744V188.388H68.7055V188.377ZM63.2915 176.415H57.2479V182.173H63.2915V176.415ZM67.2175 185.893V174.996H68.2476V185.893H67.2175Z" fill="black"/>
<path d="M79.5791 177.536V178.532H70.5596V177.536H74.5428V174.961H75.5959V177.536H79.5791ZM76.9923 180.535C77.576 180.901 78.0224 181.428 78.3544 182.103C78.6863 182.779 78.8465 183.557 78.8465 184.427C78.8465 185.297 78.6863 186.075 78.3544 186.75C78.0224 187.426 77.5646 187.941 76.9923 188.307C76.42 188.673 75.7675 188.857 75.0579 188.857C74.3482 188.857 73.7072 188.673 73.1349 188.307C72.5626 187.941 72.1162 187.414 71.7843 186.75C71.4524 186.087 71.2921 185.308 71.2921 184.427C71.2921 183.546 71.4524 182.779 71.7843 182.103C72.1162 181.428 72.5626 180.913 73.1349 180.535C73.7072 180.157 74.3482 179.986 75.0579 179.986C75.7675 179.986 76.42 180.169 76.9923 180.535ZM76.4543 187.449C76.8778 187.162 77.2098 186.762 77.4616 186.235C77.7134 185.709 77.8393 185.114 77.8393 184.427C77.8393 183.74 77.7134 183.133 77.4616 182.607C77.2098 182.08 76.8778 181.668 76.4543 181.382C76.0308 181.096 75.573 180.947 75.0579 180.947C74.5428 180.947 74.085 181.085 73.6615 181.382C73.238 181.68 72.906 182.08 72.6542 182.607C72.4024 183.133 72.2765 183.74 72.2765 184.427C72.2765 185.114 72.4024 185.72 72.6542 186.235C72.906 186.762 73.238 187.162 73.6615 187.449C74.085 187.735 74.5428 187.884 75.0579 187.884C75.573 187.884 76.0308 187.746 76.4543 187.449ZM82.6123 182.252V189.658H81.5822V175.007H82.6123V181.245H84.7298V182.252H82.6123Z" fill="black"/>
<path d="M98.8096 188.845H84.9941V187.838H90.5112V180.856H91.5642V187.838H98.8096V188.845ZM85.9213 176.621V175.613H97.8023V185.285H96.7493V176.621H85.9098H85.9213Z" fill="black"/>
<path d="M111.434 187.484C112.098 187.347 112.648 187.175 113.06 186.958V187.965C112.636 188.182 112.098 188.354 111.434 188.48C110.77 188.606 110.095 188.674 109.42 188.674H103.96V175.626H111.972V176.622H104.99V187.69H109.454C110.107 187.69 110.759 187.621 111.434 187.484ZM115.578 182.253V189.659H114.548V175.008H115.578V181.246H117.695V182.253H115.578Z" fill="black"/>
<path d="M126.097 187.496C126.761 187.37 127.299 187.198 127.722 186.98V187.976C127.299 188.205 126.761 188.377 126.108 188.503C125.456 188.629 124.781 188.686 124.094 188.686H118.806V175.546H119.836V187.702H124.105C124.769 187.702 125.433 187.633 126.085 187.507L126.097 187.496ZM130.858 189.647H129.828V183.673H124.529V182.665H129.828V179.426H124.529V178.419H129.828V175.008H130.858V189.659V189.647Z" fill="black"/>
<path d="M140.77 183.238C139.877 183.341 138.836 183.386 137.645 183.386H132.724V182.471H136.878V180.674C135.814 180.616 134.944 180.33 134.28 179.85C133.616 179.357 133.284 178.705 133.284 177.892C133.284 176.999 133.662 176.313 134.429 175.809C135.196 175.305 136.18 175.065 137.405 175.065C138.63 175.065 139.614 175.317 140.381 175.82C141.148 176.324 141.526 177.011 141.526 177.892C141.526 178.705 141.194 179.357 140.53 179.85C139.866 180.342 138.996 180.616 137.897 180.674V182.471C140.278 182.448 141.892 182.242 142.739 181.864V182.803C142.304 182.997 141.64 183.135 140.747 183.238H140.77ZM143.265 186.202L146.356 188.583L145.806 189.361L142.807 187.015C142.418 187.69 141.926 188.228 141.331 188.652C140.736 189.064 140.095 189.304 139.408 189.361L136.856 187.072C136.444 187.702 135.951 188.228 135.356 188.64C134.761 189.052 134.131 189.293 133.456 189.361V188.388C134.006 188.32 134.532 188.102 135.036 187.713C135.539 187.324 135.951 186.832 136.26 186.225C136.581 185.618 136.753 184.977 136.798 184.291L137.771 184.405C137.76 184.989 137.611 185.618 137.336 186.271L139.717 188.354C140.209 188.24 140.679 187.988 141.125 187.599C141.56 187.209 141.926 186.729 142.212 186.133C142.498 185.55 142.659 184.932 142.693 184.279L143.689 184.417C143.62 185.08 143.483 185.664 143.265 186.191V186.202ZM135.162 179.3C135.711 179.621 136.466 179.781 137.416 179.781C138.366 179.781 139.11 179.621 139.683 179.3C140.244 178.98 140.53 178.51 140.53 177.892C140.53 177.274 140.244 176.816 139.683 176.484C139.11 176.152 138.366 175.992 137.416 175.992C136.466 175.992 135.711 176.152 135.162 176.484C134.612 176.816 134.338 177.286 134.338 177.892C134.338 178.499 134.612 178.968 135.162 179.3ZM147.226 179.85H145.142V183.879H144.089V175.008H145.142V178.842H147.226V179.85Z" fill="black"/>
<path d="M147.501 183.524V182.574H161.316V183.524H147.501ZM160.561 188.412V189.385H148.543V185.115H149.596V188.412H160.561ZM160.389 179.575V180.548H148.577V175.031H149.607V179.575H160.389Z" fill="black"/>
<path d="M168.035 187.518C168.596 187.392 169.111 187.221 169.557 187.026V187.999C169.134 188.216 168.63 188.388 168.023 188.502C167.417 188.617 166.799 188.686 166.169 188.686H162.815V175.637H168.962V176.61H163.811V187.713H166.329C166.913 187.713 167.485 187.644 168.058 187.518H168.035ZM172.121 175.099V189.407H171.114V182.173H167.142V181.166H171.114V175.099H172.121ZM175.418 189.647H174.41V174.996H175.418V189.647Z" fill="black"/>
<path d="M48.6976 202.638V205.934C48.6976 207.868 48.4 209.563 47.8163 211.028C47.2211 212.493 46.3741 213.626 45.2638 214.427C44.1535 215.228 42.8258 215.629 41.292 215.629V214.599C42.6197 214.599 43.7529 214.244 44.7144 213.546C45.6759 212.836 46.4084 211.84 46.912 210.547C47.4157 209.253 47.6789 207.743 47.6789 206.003V203.633H41.292V202.638H48.7091H48.6976ZM53.0815 209.265V216.671H52.0513V202.02H53.0815V208.258H55.199V209.265H53.0815Z" fill="black"/>
<path d="M61.7344 208.605C60.3837 209.623 58.4607 210.138 55.9883 210.138V209.131C58.1516 209.131 59.8114 208.719 60.9903 207.884C62.1579 207.048 62.7416 205.8 62.7416 204.118V203.454H55.9883V202.481H63.7718V204.003C63.7718 206.052 63.0965 207.586 61.7344 208.605ZM68.3046 211.729V216.594H67.2515V212.702H56.6636V211.729H68.3046ZM68.3618 210.768H67.3316V208.708H63.9321V207.712H67.3316V204.988H64.47V204.015H67.3316V202.012H68.3618V210.768Z" fill="black"/>
<path d="M77.21 203.179C77.828 203.671 78.3088 204.427 78.6636 205.434C79.0184 206.441 79.1901 207.689 79.1901 209.177C79.1901 210.665 79.0184 211.913 78.6636 212.92C78.3088 213.927 77.828 214.671 77.21 215.175C76.5919 215.667 75.8822 215.919 75.0581 215.919C73.8105 215.919 72.8147 215.346 72.0592 214.213C71.3038 213.08 70.9375 211.398 70.9375 209.188C70.9375 206.979 71.3152 205.297 72.0592 204.164C72.8147 203.019 73.8105 202.458 75.0581 202.458C75.8708 202.458 76.5919 202.71 77.21 203.202V203.179ZM72.8147 204.896C72.2424 205.858 71.9562 207.288 71.9562 209.166C71.9562 211.043 72.2424 212.473 72.8147 213.435C73.387 214.396 74.1424 214.889 75.0695 214.889C75.9967 214.889 76.7292 214.408 77.2901 213.435C77.8509 212.473 78.1371 211.043 78.1371 209.166C78.1371 207.288 77.8509 205.858 77.2901 204.896C76.7292 203.935 75.9852 203.442 75.0695 203.442C74.1539 203.442 73.387 203.923 72.8147 204.896ZM81.983 216.663V202.012H83.036V216.663H81.983Z" fill="black"/>
<path d="M89.0225 209.154V202.481H96.9545V209.154H89.0225ZM100.812 210.94V216.377H89.4803V210.94H100.812ZM90.0526 203.431V208.204H95.9472V203.431H90.0526ZM99.7816 215.449V211.901H90.5104V215.449H99.7816ZM100.812 206.327V209.99H99.7816V202.012H100.812V205.297H102.929V206.327H100.812Z" fill="black"/>
<path d="M113.059 202.115V216.422H112.052V209.417H109.786C109.763 211.604 109.488 213.229 108.95 214.305C108.424 215.369 107.645 215.907 106.615 215.907C104.532 215.907 103.49 213.664 103.49 209.177C103.49 204.69 104.532 202.447 106.615 202.447C108.698 202.447 109.66 204.427 109.786 208.399H112.052V202.126H113.059V202.115ZM108.24 213.492C108.607 212.542 108.778 211.1 108.778 209.166C108.778 207.231 108.595 205.789 108.24 204.85C107.874 203.9 107.336 203.431 106.604 203.431C105.184 203.431 104.463 205.343 104.463 209.177C104.463 213.011 105.173 214.923 106.604 214.923C107.325 214.923 107.874 214.454 108.24 213.504V213.492ZM116.367 216.663H115.36V202.012H116.367V216.663Z" fill="black"/>
<path d="M121.403 215.861V214.854H135.219V215.861H121.403ZM123.441 203.659V210.069H134.395V211.076H122.411V202.641H134.234V203.648H123.441V203.659Z" fill="black"/>
<path d="M136.157 210.536V209.586H149.973V210.536H136.157ZM149.229 215.423V216.396H137.21V212.127H138.263V215.423H149.229ZM149.057 206.587V207.56H137.245V202.043H138.275V206.587H149.057Z" fill="black"/>
<path d="M168.172 210.08H154.356V209.13H159.908V205.582H160.938V209.13H168.172V210.08ZM161.556 212.941L167.657 215.654L167.233 216.547L160.995 213.708C160.308 214.544 159.439 215.208 158.374 215.677C157.31 216.146 156.211 216.387 155.078 216.387V215.391C155.993 215.391 156.886 215.208 157.756 214.853C158.626 214.498 159.37 213.995 159.965 213.342C160.56 212.69 160.961 211.934 161.144 211.099L162.174 211.247C162.025 211.923 161.808 212.484 161.545 212.941H161.556ZM155.387 203.235V202.285H167.096V207.871H166.043V203.235H155.375H155.387Z" fill="black"/>
<path d="M176.104 203.179C176.723 203.671 177.203 204.427 177.558 205.434C177.913 206.441 178.085 207.689 178.085 209.177C178.085 210.665 177.913 211.913 177.558 212.92C177.203 213.927 176.723 214.671 176.104 215.175C175.486 215.667 174.777 215.919 173.953 215.919C172.705 215.919 171.709 215.346 170.954 214.213C170.198 213.08 169.832 211.398 169.832 209.188C169.832 206.979 170.21 205.297 170.954 204.164C171.709 203.019 172.705 202.458 173.953 202.458C174.765 202.458 175.486 202.71 176.104 203.202V203.179ZM171.698 204.896C171.125 205.858 170.839 207.288 170.839 209.166C170.839 211.043 171.125 212.473 171.698 213.435C172.27 214.396 173.025 214.889 173.953 214.889C174.88 214.889 175.612 214.408 176.173 213.435C176.734 212.473 177.02 211.043 177.02 209.166C177.02 207.288 176.734 205.858 176.173 204.896C175.601 203.935 174.868 203.442 173.953 203.442C173.037 203.442 172.27 203.923 171.698 204.896ZM180.878 216.663V202.012H181.931V216.663H180.878Z" fill="black"/>
<path d="M194.671 208.464C193.938 209.047 192.965 209.334 191.775 209.334C190.928 209.334 190.184 209.185 189.543 208.876C188.902 208.567 188.421 208.155 188.078 207.617C187.734 207.079 187.562 206.472 187.562 205.785C187.562 205.099 187.734 204.503 188.078 203.977C188.421 203.45 188.913 203.027 189.543 202.718C190.172 202.409 190.928 202.26 191.775 202.26C192.931 202.26 193.881 202.535 194.613 203.073C195.346 203.611 195.781 204.332 195.907 205.224H199.192V202.02H200.222V209.654H199.192V206.22H195.93C195.827 207.147 195.403 207.903 194.671 208.487V208.464ZM189.463 207.708C190.046 208.178 190.813 208.406 191.775 208.406C192.736 208.406 193.503 208.178 194.087 207.708C194.671 207.239 194.968 206.609 194.968 205.797C194.968 204.984 194.671 204.366 194.087 203.897C193.503 203.427 192.736 203.198 191.775 203.198C190.813 203.198 190.046 203.427 189.463 203.897C188.879 204.366 188.581 204.996 188.581 205.797C188.581 206.598 188.879 207.25 189.463 207.708ZM194.27 210.352V216.384H188.741V210.352H189.691V212.332H193.297V210.352H194.27ZM193.297 213.191H189.691V215.48H193.297V213.191ZM196.822 215.595C196.239 216.052 195.621 216.316 194.945 216.373V215.423C195.472 215.343 195.953 215.102 196.41 214.69C196.857 214.278 197.234 213.695 197.532 212.939C197.83 212.184 198.013 211.291 198.093 210.272L199.089 210.352C199.02 211.279 198.871 212.092 198.631 212.79L201.698 215.675L201.046 216.396L198.265 213.706C197.887 214.507 197.406 215.137 196.822 215.595Z" fill="black"/>
<path d="M209.459 208.753C208.715 209.371 207.742 209.68 206.529 209.68C205.682 209.68 204.938 209.52 204.297 209.2C203.656 208.879 203.175 208.444 202.831 207.872C202.488 207.311 202.316 206.67 202.316 205.96C202.316 205.251 202.488 204.61 202.831 204.049C203.175 203.488 203.667 203.053 204.297 202.733C204.938 202.412 205.682 202.252 206.529 202.252C207.685 202.252 208.635 202.538 209.367 203.11C210.1 203.683 210.535 204.427 210.661 205.342H213.946V202H214.976V210.161H213.946V206.327H210.706C210.615 207.322 210.203 208.124 209.459 208.742V208.753ZM204.228 207.986C204.812 208.478 205.579 208.73 206.54 208.73C207.501 208.73 208.268 208.478 208.852 207.986C209.436 207.494 209.733 206.819 209.733 205.96C209.733 205.102 209.436 204.438 208.852 203.934C208.268 203.431 207.501 203.19 206.54 203.19C205.579 203.19 204.812 203.442 204.228 203.934C203.644 204.427 203.347 205.102 203.347 205.96C203.347 206.819 203.644 207.483 204.228 207.986ZM211.164 215.575C210.58 216.033 209.962 216.296 209.287 216.376L206.746 213.892C206.357 214.591 205.865 215.163 205.281 215.598C204.697 216.033 204.079 216.296 203.427 216.376V215.38C203.976 215.3 204.491 215.037 204.972 214.591C205.453 214.144 205.853 213.561 206.162 212.862C206.471 212.164 206.654 211.409 206.712 210.607L207.708 210.722C207.662 211.512 207.49 212.279 207.192 213.011L209.573 215.323C210.065 215.197 210.535 214.9 210.958 214.442C211.382 213.984 211.725 213.423 212 212.759C212.263 212.095 212.423 211.374 212.458 210.607L213.465 210.745C213.396 211.58 213.247 212.313 213.007 212.92L216.178 215.644L215.548 216.388L212.606 213.778C212.229 214.511 211.748 215.117 211.164 215.575Z" fill="black"/>
<path d="M216.853 210.536V209.586H230.668V210.536H216.853ZM229.924 215.423V216.396H217.906V212.127H218.959V215.423H229.924ZM229.752 206.587V207.56H217.94V202.043H218.97V206.587H229.752Z" fill="black"/>
<path d="M237.386 214.534C237.947 214.408 238.462 214.248 238.909 214.042V215.014C238.485 215.232 237.982 215.404 237.375 215.518C236.768 215.644 236.15 215.701 235.521 215.701H232.167V202.653H238.314V203.626H233.163V214.728H235.681C236.265 214.728 236.837 214.66 237.409 214.534H237.386ZM241.484 202.115V216.422H240.477V209.188H236.505V208.181H240.477V202.115H241.484ZM244.781 216.663H243.773V202.012H244.781V216.663Z" fill="black"/>
<path d="M262.716 216.662H261.686V209.394H258.573C258.562 210.825 258.378 212.015 258.035 212.988C257.68 213.961 257.2 214.694 256.593 215.174C255.986 215.655 255.288 215.896 254.498 215.896C253.709 215.896 252.999 215.644 252.392 215.152C251.786 214.659 251.316 213.904 250.973 212.897C250.63 211.889 250.458 210.642 250.458 209.154C250.458 207.666 250.63 206.418 250.973 205.411C251.316 204.404 251.786 203.66 252.392 203.156C252.999 202.664 253.697 202.412 254.498 202.412C255.654 202.412 256.604 202.916 257.325 203.923C258.058 204.93 258.47 206.407 258.562 208.353H261.686V202H262.716V216.651V216.662ZM256.696 213.446C257.245 212.485 257.52 211.054 257.52 209.165C257.52 207.277 257.245 205.846 256.696 204.884C256.147 203.923 255.414 203.442 254.498 203.442C253.583 203.442 252.873 203.923 252.312 204.896C251.763 205.857 251.477 207.288 251.477 209.165C251.477 211.042 251.751 212.473 252.312 213.435C252.862 214.396 253.594 214.888 254.498 214.888C255.403 214.888 256.147 214.408 256.696 213.446Z" fill="black"/>
<path d="M272 210.868H277.379V213.993H266.62V215.538H277.643V216.396H265.601V213.214H276.338V211.726H265.556V210.868H270.958V209.185H264.571V208.304H278.387V209.185H272V210.868ZM267.147 206.61C266.025 206.186 265.464 205.534 265.464 204.641C265.464 203.748 266.025 203.096 267.147 202.673C268.268 202.249 269.722 202.043 271.485 202.043C273.247 202.043 274.678 202.249 275.8 202.673C276.922 203.096 277.482 203.748 277.482 204.641C277.482 205.534 276.922 206.186 275.811 206.61C274.701 207.033 273.259 207.24 271.496 207.24C269.733 207.24 268.28 207.033 267.158 206.61H267.147ZM267.936 203.371C266.998 203.657 266.529 204.08 266.529 204.653C266.529 205.225 266.998 205.649 267.936 205.935C268.875 206.221 270.065 206.358 271.485 206.358C272.904 206.358 274.083 206.221 275.022 205.935C275.96 205.66 276.418 205.225 276.418 204.653C276.418 204.08 275.949 203.657 275.022 203.371C274.083 203.096 272.904 202.947 271.485 202.947C270.065 202.947 268.875 203.085 267.936 203.371Z" fill="black"/>
<path d="M281.123 206.636V209.04H284.808C285.93 209.04 286.926 208.971 287.796 208.845C288.666 208.719 289.341 208.536 289.81 208.296V209.234C289.341 209.463 288.666 209.646 287.784 209.772C286.903 209.898 285.896 209.967 284.751 209.967H280.093V205.766H287.166V203.385H280.047V202.492H288.174V206.647H281.111L281.123 206.636ZM280.631 216.377V211.546H292.134V216.377H280.631ZM291.104 212.485H281.661V215.438H291.104V212.485ZM291.104 210.596V202.012H292.134V210.596H291.104Z" fill="black"/>
<path d="M303.98 202.115V216.422H302.973V209.417H300.707C300.684 211.604 300.409 213.229 299.871 214.305C299.345 215.369 298.566 215.907 297.536 215.907C295.453 215.907 294.411 213.664 294.411 209.177C294.411 204.69 295.453 202.447 297.536 202.447C299.619 202.447 300.581 204.427 300.707 208.399H302.973V202.126H303.98V202.115ZM299.161 213.492C299.528 212.542 299.699 211.1 299.699 209.166C299.699 207.231 299.516 205.789 299.161 204.85C298.795 203.9 298.257 203.431 297.525 203.431C296.105 203.431 295.384 205.343 295.384 209.177C295.384 213.011 296.094 214.923 297.525 214.923C298.246 214.923 298.795 214.454 299.161 213.504V213.492ZM307.277 216.663H306.27V202.012H307.277V216.663Z" fill="black"/>
<path d="M314.007 208.017L318.528 215.114L317.704 215.743L313.721 209.356C313.286 211.257 312.679 212.745 311.89 213.843C311.1 214.942 310.161 215.549 309.062 215.698V214.633C310.013 214.45 310.814 213.798 311.455 212.653C312.096 211.52 312.576 210.055 312.886 208.269C313.195 206.495 313.355 204.538 313.366 202.409L314.419 202.432C314.396 204.515 314.259 206.38 313.996 208.017H314.007ZM321.779 216.659H320.749V208.612H316.834V207.605H320.749V202.02H321.779V216.671V216.659Z" fill="black"/>
<path d="M335.068 202.638V205.934C335.068 207.868 334.77 209.563 334.186 211.028C333.591 212.493 332.744 213.626 331.634 214.427C330.524 215.228 329.196 215.629 327.662 215.629V214.599C328.99 214.599 330.123 214.244 331.085 213.546C332.046 212.836 332.779 211.84 333.282 210.547C333.786 209.253 334.049 207.743 334.049 206.003V203.633H327.662V202.638H335.079H335.068ZM339.463 209.265V216.671H338.433V202.02H339.463V208.258H341.581V209.265H339.463Z" fill="black"/>
<path d="M348.105 208.605C346.755 209.623 344.832 210.138 342.359 210.138V209.131C344.523 209.131 346.182 208.719 347.361 207.884C348.529 207.048 349.112 205.8 349.112 204.118V203.454H342.359V202.481H350.142V204.003C350.142 206.052 349.467 207.586 348.105 208.605ZM354.686 211.729V216.594H353.633V212.702H343.046V211.729H354.686ZM354.744 210.768H353.714V208.708H350.314V207.712H353.714V204.988H350.852V204.015H353.714V202.012H354.744V210.768Z" fill="black"/>
<path d="M363.58 203.179C364.198 203.671 364.679 204.427 365.034 205.434C365.389 206.441 365.56 207.689 365.56 209.177C365.56 210.665 365.389 211.913 365.034 212.92C364.679 213.927 364.198 214.671 363.58 215.175C362.962 215.667 362.252 215.919 361.428 215.919C360.181 215.919 359.185 215.346 358.429 214.213C357.674 213.08 357.308 211.398 357.308 209.188C357.308 206.979 357.685 205.297 358.429 204.164C359.185 203.019 360.181 202.458 361.428 202.458C362.241 202.458 362.962 202.71 363.58 203.202V203.179ZM359.185 204.896C358.612 205.858 358.326 207.288 358.326 209.166C358.326 211.043 358.612 212.473 359.185 213.435C359.757 214.396 360.513 214.889 361.44 214.889C362.367 214.889 363.099 214.408 363.66 213.435C364.221 212.473 364.507 211.043 364.507 209.166C364.507 207.288 364.221 205.858 363.66 204.896C363.088 203.935 362.355 203.442 361.44 203.442C360.524 203.442 359.757 203.923 359.185 204.896ZM368.365 216.663V202.012H369.418V216.663H368.365Z" fill="black"/>
<path d="M375.404 209.154V202.481H383.336V209.154H375.404ZM387.194 210.94V216.377H375.862V210.94H387.194ZM376.434 203.431V208.204H382.329V203.431H376.434ZM386.163 215.449V211.901H376.892V215.449H386.163ZM387.194 206.327V209.99H386.163V202.012H387.194V205.297H389.311V206.327H387.194Z" fill="black"/>
<path d="M399.441 202.115V216.422H398.434V209.417H396.167C396.145 211.604 395.87 213.229 395.332 214.305C394.805 215.369 394.027 215.907 392.997 215.907C390.914 215.907 389.872 213.664 389.872 209.177C389.872 204.69 390.914 202.447 392.997 202.447C395.08 202.447 396.042 204.427 396.167 208.399H398.434V202.126H399.441V202.115ZM394.622 213.492C394.988 212.542 395.16 211.1 395.16 209.166C395.16 207.231 394.977 205.789 394.622 204.85C394.256 203.9 393.718 203.431 392.985 203.431C391.566 203.431 390.845 205.343 390.845 209.177C390.845 213.011 391.555 214.923 392.985 214.923C393.707 214.923 394.256 214.454 394.622 213.504V213.492ZM402.738 216.663H401.73V202.012H402.738V216.663Z" fill="black"/>
<path d="M421.589 210.526H407.773V209.576H414.161V208.008H415.191V209.576H421.578V210.526H421.589ZM410.108 206.978C409.513 207.402 408.849 207.676 408.094 207.802V206.829C409.078 206.635 409.868 206.108 410.475 205.227C411.081 204.345 411.436 203.201 411.528 201.793L412.558 201.885C412.478 202.903 412.295 203.773 411.986 204.494L414.584 206.761C415.488 206.509 416.221 205.948 416.782 205.101C417.343 204.254 417.675 203.144 417.789 201.804L418.785 201.896C418.705 202.915 418.522 203.773 418.236 204.471L421.349 207.012L420.719 207.756L417.823 205.33C417.022 206.68 415.9 207.516 414.47 207.848L411.585 205.307C411.207 205.994 410.715 206.543 410.131 206.967L410.108 206.978ZM420.536 212.312V216.581H419.506V213.239H408.666V212.3H420.536V212.312Z" fill="black"/>
<path d="M425.973 209.267V208.351H439.788V209.267H425.973ZM427.987 213.971V215.539H439.033V216.398H426.991V213.193H437.751V211.682H426.957V210.847H438.769V213.971H427.987ZM428.09 203.178V205.845H438.884V206.737H427.06V202.273H438.735V203.166H428.09V203.178Z" fill="black"/>
<path d="M453.627 216.662H452.597V209.394H449.483C449.472 210.825 449.289 212.015 448.934 212.988C448.579 213.961 448.11 214.694 447.492 215.174C446.885 215.655 446.187 215.896 445.397 215.896C444.607 215.896 443.898 215.644 443.291 215.152C442.684 214.659 442.215 213.904 441.872 212.897C441.528 211.889 441.356 210.642 441.356 209.154C441.356 207.666 441.528 206.418 441.872 205.411C442.215 204.404 442.684 203.66 443.291 203.156C443.898 202.664 444.596 202.412 445.397 202.412C446.553 202.412 447.503 202.916 448.236 203.923C448.968 204.93 449.38 206.407 449.472 208.353H452.597V202H453.627V216.651V216.662ZM447.618 213.446C448.167 212.485 448.442 211.054 448.442 209.165C448.442 207.277 448.167 205.846 447.618 204.884C447.068 203.923 446.336 203.442 445.408 203.442C444.481 203.442 443.783 203.923 443.222 204.896C442.673 205.857 442.398 207.288 442.398 209.165C442.398 211.042 442.673 212.473 443.222 213.435C443.772 214.396 444.504 214.888 445.408 214.888C446.313 214.888 447.057 214.408 447.618 213.446Z" fill="black"/>
<path d="M460.631 208.017L465.152 215.114L464.328 215.743L460.345 209.356C459.91 211.257 459.303 212.745 458.514 213.843C457.724 214.942 456.785 215.549 455.687 215.698V214.633C456.637 214.45 457.438 213.798 458.079 212.653C458.72 211.52 459.2 210.055 459.51 208.269C459.819 206.495 459.979 204.538 459.99 202.409L461.043 202.432C461.02 204.515 460.883 206.38 460.62 208.017H460.631ZM468.392 216.659H467.362V208.612H463.447V207.605H467.362V202.02H468.392V216.671V216.659Z" fill="black"/>
<path d="M482.013 202.489V215.686H474.459V202.489H475.466V207.926H480.995V202.489H482.002H482.013ZM481.006 208.922H475.478V214.702H481.006V208.922ZM486.077 209.265V216.671H485.047V202.02H486.077V208.258H488.194V209.265H486.077Z" fill="black"/>
<path d="M502.272 215.861H488.457V214.865H494.787V211.511H489.487V206.59H500.281V203.614H489.487V202.641H501.311V207.54H490.494V210.516H501.517V211.511H495.828V214.865H502.261V215.861H502.272Z" fill="black"/>
<path d="M514.005 211.477V217.005H512.952V211.477H506.656V210.412H520.472V211.477H514.005ZM507.652 203.464V202.457H519.384V209.004H518.331V203.476H507.652V203.464Z" fill="black"/>
<path d="M527.74 202.641V215.69H521.96V202.641H527.74ZM526.733 214.705V203.637H522.933V214.705H526.733ZM534.596 216.663H533.589V209.2H530.75V216.411H529.755V202.103H530.75V208.193H533.589V202.012H534.596V216.663Z" fill="black"/>
<path d="M535.981 204.529V203.613H539.221V201.805H540.251V203.613H543.364V204.529H535.981ZM537.469 210.149C536.863 209.657 536.554 209.004 536.554 208.169C536.554 207.333 536.863 206.681 537.469 206.189C538.076 205.696 538.843 205.445 539.759 205.445C540.674 205.445 541.441 205.696 542.048 206.189C542.655 206.681 542.964 207.345 542.964 208.169C542.964 208.993 542.655 209.657 542.048 210.149C541.441 210.641 540.674 210.881 539.759 210.881C538.843 210.881 538.076 210.641 537.469 210.149ZM545.138 215.677C544.543 216.055 543.914 216.295 543.25 216.387L540.56 214.327C540.125 214.899 539.61 215.368 539.026 215.735C538.442 216.101 537.824 216.318 537.183 216.398V215.426C537.721 215.345 538.236 215.128 538.763 214.75C539.278 214.373 539.713 213.903 540.056 213.342C540.4 212.782 540.606 212.186 540.651 211.557L541.647 211.694C541.567 212.347 541.373 212.965 541.052 213.56L543.479 215.391C543.982 215.277 544.474 215.025 544.944 214.647C545.413 214.269 545.791 213.8 546.111 213.262C546.42 212.724 546.615 212.152 546.672 211.557L547.668 211.694C547.588 212.301 547.416 212.873 547.153 213.411L550.381 215.609L549.831 216.444L546.661 214.212C546.249 214.819 545.756 215.323 545.15 215.7L545.138 215.677ZM538.145 206.864C537.733 207.207 537.538 207.642 537.538 208.18C537.538 208.718 537.744 209.142 538.145 209.485C538.545 209.828 539.095 210.012 539.77 210.012C540.445 210.012 540.983 209.84 541.395 209.485C541.808 209.13 542.002 208.695 542.002 208.18C542.002 207.665 541.808 207.207 541.395 206.864C540.995 206.52 540.445 206.349 539.77 206.349C539.095 206.349 538.557 206.52 538.145 206.864ZM544.623 211.019V202.114H545.573V205.719H548.355V202.022H549.351V211.213H548.355V206.727H545.573V211.019H544.623Z" fill="black"/>
<path d="M550.964 210.536V209.586H564.779V210.536H550.964ZM564.024 215.423V216.396H552.005V212.127H553.058V215.423H564.024ZM563.852 206.587V207.56H552.04V202.043H553.07V206.587H563.852Z" fill="black"/>
<path d="M571.498 214.534C572.059 214.408 572.574 214.248 573.009 214.042V215.014C572.586 215.232 572.082 215.404 571.476 215.518C570.869 215.644 570.251 215.701 569.621 215.701H566.268V202.653H572.414V203.626H567.263V214.728H569.782C570.365 214.728 570.938 214.66 571.51 214.534H571.498ZM575.585 202.115V216.422H574.577V209.188H570.606V208.181H574.577V202.115H575.585ZM578.881 216.663H577.874V202.012H578.881V216.663Z" fill="black"/>
<path d="M590.236 202.489V215.686H584.456V202.489H585.429V207.949H589.229V202.489H590.236ZM589.229 208.933H585.429V214.69H589.229V208.933ZM597.093 216.659H596.085V209.185H593.247V216.419H592.251V202.111H593.247V208.2H596.085V202.02H597.093V216.671V216.659Z" fill="black"/>
<path d="M612.5 209.986H598.684V209.048H605.071V206.564H606.101V209.048H612.488V209.986H612.5ZM602.644 206.598C601.499 207.125 600.366 207.399 599.233 207.434V206.484C600.149 206.449 601.076 206.22 602.015 205.808C602.953 205.396 603.754 204.824 604.441 204.114C605.128 203.393 605.563 202.592 605.735 201.699L606.742 201.894C606.605 202.569 606.353 203.176 605.998 203.725L611.973 206.621L611.549 207.479L605.449 204.504C604.716 205.385 603.777 206.083 602.633 206.61L602.644 206.598ZM609.924 212.104C611.046 212.493 611.607 213.145 611.607 214.05C611.607 214.954 611.046 215.629 609.913 216.018C608.779 216.407 607.349 216.625 605.597 216.625C603.846 216.625 602.404 216.419 601.271 216.018C600.137 215.618 599.588 214.965 599.588 214.05C599.588 213.134 600.149 212.493 601.271 212.104C602.392 211.715 603.835 211.509 605.597 211.509C607.36 211.509 608.802 211.703 609.924 212.104ZM609.077 215.32C610.039 215.057 610.519 214.633 610.519 214.05C610.519 213.466 610.05 213.065 609.1 212.813C608.15 212.562 606.982 212.436 605.597 212.436C604.212 212.436 603.045 212.562 602.083 212.813C601.133 213.065 600.652 213.477 600.652 214.05C600.652 214.622 601.133 215.045 602.095 215.309C603.056 215.572 604.224 215.709 605.597 215.709C606.971 215.709 608.116 215.583 609.077 215.32Z" fill="black"/>
<path d="M627.264 215.861H613.448V214.854H619.801V210.71H614.456V202.641H626.279V203.648H615.486V209.714H626.44V210.71H620.854V214.854H627.264V215.861Z" fill="black"/>
<path d="M53.5969 237.002H52.5667V233.316H49.3046C49.2016 234.266 48.7781 235.044 48.0455 235.64C47.313 236.235 46.3401 236.521 45.1497 236.521C44.3026 236.521 43.5587 236.361 42.9177 236.052C42.2767 235.743 41.796 235.308 41.4526 234.77C41.1092 234.22 40.9375 233.602 40.9375 232.904C40.9375 232.206 41.1092 231.576 41.4526 231.038C41.796 230.5 42.2881 230.065 42.9177 229.756C43.5472 229.447 44.3026 229.287 45.1497 229.287C46.3057 229.287 47.2557 229.562 47.9997 230.123C48.7437 230.683 49.1672 231.416 49.2817 232.32H52.5667V229.035H53.5969V237.013V237.002ZM47.4503 234.85C48.0455 234.358 48.3317 233.705 48.3317 232.893C48.3317 232.08 48.0341 231.427 47.4503 230.935C46.8666 230.443 46.0882 230.203 45.1497 230.203C44.2111 230.203 43.4213 230.443 42.8376 230.924C42.2538 231.405 41.9562 232.057 41.9562 232.893C41.9562 233.728 42.2538 234.369 42.8376 234.861C43.4213 235.342 44.1882 235.582 45.1497 235.582C46.1111 235.582 46.8551 235.342 47.4503 234.85ZM53.5969 237.952V243.389H42.2309V237.952H53.5969ZM52.5667 242.439V238.913H43.2611V242.439H52.5667Z" fill="black"/>
<path d="M58.3587 236.236C57.6033 236.797 56.7334 237.163 55.749 237.323V236.35C56.9165 236.122 57.8666 235.572 58.5762 234.714C59.2859 233.855 59.7208 232.779 59.8582 231.486H55.8749V230.536H59.904V228.762H60.9341V230.536H64.8487V231.486H60.9341C60.8425 232.218 60.7281 232.791 60.5678 233.203L65.0089 236.385L64.4938 237.186L60.1443 234.073C59.6979 234.954 59.1027 235.664 58.3473 236.225L58.3587 236.236ZM66.9433 239.006C68.0192 239.429 68.5572 240.082 68.5572 240.986C68.5572 241.89 68.0192 242.554 66.9433 242.966C65.8674 243.39 64.4366 243.596 62.6625 243.596C60.8883 243.596 59.469 243.39 58.4045 242.966C57.3286 242.543 56.7906 241.89 56.7906 240.986C56.7906 240.082 57.3286 239.407 58.3931 238.995C59.4576 238.582 60.8883 238.376 62.6625 238.376C64.4366 238.376 65.8674 238.582 66.9433 239.006ZM66.1421 242.268C67.0234 241.993 67.4698 241.558 67.4698 240.986C67.4698 240.414 67.0349 239.967 66.1535 239.704C65.2722 239.441 64.1161 239.292 62.6625 239.292C61.2088 239.292 60.0642 239.429 59.1829 239.716C58.3015 240.002 57.8551 240.425 57.8551 240.998C57.8551 241.57 58.3015 241.993 59.1943 242.28C60.0871 242.566 61.2432 242.703 62.6625 242.703C64.0818 242.703 65.2607 242.566 66.1421 242.28V242.268ZM67.3325 229.025H68.3626V237.758H67.3325V233.947H64.242V232.974H67.3325V229.025Z" fill="black"/>
<path d="M78.4231 229.504V242.702H74.1309V229.504H75.0465V234.976H77.5418V229.504H78.4231ZM77.5418 235.937H75.0465V241.752H77.5418V235.937ZM83.6884 229.504V242.702H79.419V229.504H80.3003V234.976H82.7956V229.504H83.6884ZM82.7841 235.937H80.2889V241.752H82.7841V235.937ZM86.3782 236.281V243.686H85.4282V229.035H86.3782V235.273H88.1752V236.281H86.3782Z" fill="black"/>
<path d="M88.4385 242.873V241.877H102.254V242.873H88.4385ZM90.4759 234.689V237.813H101.498V238.809H89.4572V233.716H100.251V230.625H89.4572V229.652H101.281V234.689H90.4644H90.4759Z" fill="black"/>
<path d="M111.319 241.511C111.971 241.374 112.521 241.202 112.956 240.985V241.992C112.532 242.209 111.994 242.381 111.319 242.507C110.655 242.633 109.98 242.702 109.304 242.702H104.039V229.653H112.086V230.649H105.069V241.717H109.339C110.002 241.717 110.655 241.648 111.307 241.523L111.319 241.511ZM116.092 243.674H115.062V236.269H109.476V235.262H115.062V229.023H116.092V243.674Z" fill="black"/>
<path d="M126.211 241.523C126.863 241.397 127.401 241.225 127.825 241.008V242.004C127.413 242.233 126.886 242.404 126.222 242.53C125.559 242.656 124.883 242.713 124.196 242.713H118.702V235.559H125.249V230.661H118.668V229.665H126.28V236.532H119.732V241.717H124.219C124.895 241.717 125.559 241.66 126.211 241.523ZM130.343 236.281V243.686H129.313V229.035H130.343V235.273H132.461V236.281H130.343Z" fill="black"/>
<path d="M146.539 242.872H132.724V241.865H138.241V234.883H139.294V241.865H146.539V242.872ZM133.639 230.648V229.641H145.52V239.313H144.467V230.648H133.628H133.639Z" fill="black"/>
<path d="M161.304 242.874H147.488V241.878H150.922V237.449C150.052 237.082 149.388 236.579 148.93 235.949C148.473 235.32 148.232 234.576 148.232 233.729C148.232 232.882 148.484 232.092 148.999 231.439C149.503 230.787 150.224 230.295 151.151 229.929C152.078 229.574 153.166 229.391 154.39 229.391C155.615 229.391 156.702 229.574 157.63 229.929C158.557 230.283 159.278 230.787 159.781 231.439C160.285 232.092 160.548 232.847 160.548 233.729C160.548 234.61 160.319 235.32 159.85 235.949C159.381 236.579 158.728 237.082 157.881 237.449V241.878H161.292V242.874H161.304ZM151.723 230.81C150.956 231.085 150.373 231.474 149.949 231.977C149.526 232.493 149.32 233.076 149.32 233.729C149.32 234.381 149.526 234.999 149.949 235.503C150.373 236.006 150.956 236.407 151.723 236.67C152.49 236.945 153.372 237.082 154.39 237.082C155.409 237.082 156.302 236.945 157.057 236.67C157.824 236.396 158.408 236.006 158.831 235.503C159.255 234.999 159.461 234.404 159.461 233.729C159.461 233.053 159.255 232.481 158.831 231.977C158.408 231.474 157.824 231.073 157.057 230.81C156.29 230.547 155.409 230.398 154.39 230.398C153.372 230.398 152.479 230.535 151.723 230.81ZM156.863 241.89V237.804C156.142 237.998 155.317 238.09 154.402 238.09C153.486 238.09 152.685 237.998 151.964 237.804V241.89H156.863Z" fill="black"/>
<path d="M162.941 242.864C162.781 242.704 162.689 242.509 162.689 242.257C162.689 242.006 162.77 241.811 162.941 241.662C163.113 241.513 163.308 241.422 163.537 241.422C163.766 241.422 163.96 241.502 164.132 241.662C164.304 241.822 164.384 242.017 164.384 242.257C164.384 242.498 164.304 242.704 164.132 242.864C163.96 243.024 163.766 243.104 163.537 243.104C163.308 243.104 163.113 243.024 162.941 242.864Z" fill="black"/>
<path d="M177.432 241.511C178.096 241.374 178.646 241.202 179.058 240.985V241.992C178.634 242.21 178.096 242.381 177.432 242.507C176.768 242.633 176.093 242.702 175.418 242.702H169.958V229.653H177.97V230.649H170.988V241.717H175.452C176.105 241.717 176.757 241.649 177.421 241.523L177.432 241.511ZM181.587 236.281V243.686H180.557V229.035H181.587V235.273H183.705V236.281H181.587Z" fill="black"/>
<path d="M183.968 236.887V235.948H197.783V236.887H183.968ZM195.196 229.698C196.33 230.156 196.902 230.843 196.902 231.759C196.902 232.674 196.33 233.361 195.196 233.819C194.052 234.277 192.621 234.506 190.87 234.506C189.119 234.506 187.688 234.277 186.555 233.819C185.41 233.361 184.849 232.674 184.849 231.759C184.849 230.843 185.421 230.156 186.555 229.698C187.688 229.241 189.13 229.012 190.87 229.012C192.61 229.012 194.052 229.241 195.196 229.698ZM185.021 243.411V238.684H196.73V243.411H185.021ZM187.333 230.385C186.371 230.694 185.891 231.152 185.891 231.747C185.891 232.343 186.371 232.8 187.321 233.098C188.272 233.407 189.462 233.556 190.87 233.556C192.278 233.556 193.457 233.407 194.407 233.098C195.357 232.789 195.826 232.343 195.826 231.747C195.826 231.152 195.345 230.694 194.395 230.385C193.445 230.076 192.266 229.916 190.87 229.916C189.473 229.916 188.294 230.076 187.333 230.385ZM195.723 239.599H186.051V242.495H195.723V239.599Z" fill="black"/>
<path d="M208.6 229.126V243.434H207.593V236.429H205.327C205.304 238.615 205.029 240.241 204.491 241.317C203.953 242.392 203.186 242.919 202.156 242.919C200.073 242.919 199.031 240.676 199.031 236.189C199.031 231.702 200.073 229.458 202.156 229.458C204.239 229.458 205.201 231.439 205.327 235.41H207.593V229.138H208.6V229.126ZM203.781 240.504C204.148 239.554 204.319 238.112 204.319 236.177C204.319 234.243 204.136 232.801 203.781 231.862C203.415 230.912 202.877 230.443 202.145 230.443C200.725 230.443 200.004 232.354 200.004 236.189C200.004 240.023 200.714 241.935 202.145 241.935C202.866 241.935 203.415 241.465 203.781 240.515V240.504ZM211.897 243.674H210.889V229.023H211.897V243.674Z" fill="black"/>
<path d="M227.314 242.873H213.499V241.865H219.852V237.722H214.506V229.652H226.33V230.66H215.536V236.726H226.49V237.722H220.905V241.865H227.314V242.873Z" fill="black"/>
<path d="M238.669 230.191C239.287 230.683 239.768 231.439 240.123 232.446C240.477 233.453 240.649 234.701 240.649 236.189C240.649 237.677 240.477 238.924 240.123 239.932C239.768 240.939 239.287 241.683 238.669 242.186C238.051 242.69 237.341 242.93 236.517 242.93C235.269 242.93 234.274 242.358 233.518 241.225C232.763 240.092 232.396 238.409 232.396 236.2C232.396 233.991 232.774 232.308 233.518 231.175C234.274 230.042 235.269 229.47 236.517 229.47C237.33 229.47 238.051 229.722 238.669 230.214V230.191ZM234.274 231.908C233.701 232.869 233.415 234.3 233.415 236.177C233.415 238.054 233.701 239.485 234.274 240.447C234.846 241.408 235.601 241.9 236.529 241.9C237.456 241.9 238.188 241.42 238.749 240.447C239.31 239.485 239.596 238.054 239.596 236.177C239.596 234.3 239.31 232.869 238.749 231.908C238.188 230.946 237.444 230.454 236.529 230.454C235.613 230.454 234.846 230.935 234.274 231.908ZM243.453 243.674V229.023H244.506V243.674H243.453Z" fill="black"/>
<path d="M260.279 237.058H246.464V236.119H249.749V234.002C248.993 233.796 248.41 233.51 247.986 233.121C247.563 232.743 247.345 232.274 247.345 231.724C247.345 230.808 247.906 230.122 249.039 229.675C250.172 229.229 251.615 229 253.366 229C255.117 229 256.559 229.229 257.692 229.675C258.826 230.122 259.387 230.808 259.387 231.724C259.387 232.274 259.169 232.731 258.746 233.121C258.322 233.498 257.727 233.796 256.96 234.002V236.119H260.256V237.058H260.279ZM257.704 239.13C258.826 239.519 259.387 240.16 259.387 241.064C259.387 241.968 258.826 242.644 257.704 243.033C256.582 243.434 255.14 243.64 253.377 243.64C251.615 243.64 250.184 243.445 249.062 243.033C247.94 242.632 247.368 241.98 247.368 241.064C247.368 240.149 247.929 239.519 249.051 239.13C250.172 238.741 251.615 238.546 253.377 238.546C255.14 238.546 256.594 238.741 257.704 239.13ZM249.818 230.385C248.868 230.694 248.387 231.14 248.387 231.736C248.387 232.331 248.868 232.789 249.818 233.086C250.768 233.395 251.958 233.544 253.366 233.544C254.774 233.544 255.953 233.395 256.903 233.086C257.853 232.777 258.322 232.331 258.322 231.736C258.322 231.14 257.853 230.683 256.903 230.385C255.953 230.076 254.774 229.927 253.366 229.927C251.958 229.927 250.768 230.076 249.818 230.385ZM256.845 242.335C257.796 242.071 258.276 241.648 258.276 241.064C258.276 240.48 257.807 240.08 256.868 239.828C255.93 239.576 254.762 239.45 253.377 239.45C251.992 239.45 250.825 239.576 249.875 239.828C248.925 240.08 248.455 240.492 248.455 241.064C248.455 241.637 248.936 242.071 249.898 242.335C250.859 242.598 252.015 242.724 253.377 242.724C254.739 242.724 255.895 242.598 256.845 242.335ZM255.941 236.119V234.254C255.243 234.391 254.385 234.46 253.366 234.46C252.347 234.46 251.489 234.391 250.768 234.254V236.119H255.941Z" fill="black"/>
<path d="M261.229 231.131V230.25H265.407V228.762H266.46V230.25H270.661V231.131H261.241H261.229ZM263.049 235.973C262.305 235.584 261.939 235.023 261.939 234.29C261.939 233.558 262.317 233.008 263.061 232.596C263.816 232.196 264.766 232.001 265.945 232.001C267.124 232.001 268.074 232.196 268.818 232.596C269.562 232.997 269.928 233.558 269.928 234.29C269.928 235.023 269.551 235.572 268.818 235.973C268.074 236.362 267.113 236.568 265.945 236.568C264.778 236.568 263.793 236.373 263.049 235.973ZM274.049 242.531V243.39H262.294V240.093H272.572V238.491H262.248V237.632H273.603V240.917H263.324V242.543H274.049V242.531ZM263.759 233.249C263.221 233.512 262.946 233.855 262.946 234.29C262.946 234.725 263.221 235.057 263.759 235.32C264.297 235.584 265.03 235.721 265.945 235.721C266.861 235.721 267.593 235.584 268.131 235.32C268.669 235.057 268.944 234.714 268.944 234.29C268.944 233.867 268.669 233.512 268.131 233.249C267.593 232.985 266.861 232.859 265.945 232.859C265.03 232.859 264.297 232.985 263.759 233.249ZM275.731 233.306H273.614V236.717H272.584V229.025H273.614V232.321H275.731V233.294V233.306Z" fill="black"/>
<path d="M285.747 229.126V243.434H284.74V236.223H281.821C281.489 238.18 280.848 239.748 279.91 240.904C278.96 242.072 277.792 242.656 276.407 242.656V241.648C277.334 241.637 278.147 241.282 278.845 240.584C279.543 239.886 280.081 238.913 280.459 237.688C280.837 236.452 281.02 235.044 281.02 233.453V230.672H276.407V229.676H282.039V233.396C282.039 234.117 282.004 234.735 281.947 235.227H284.751V229.138H285.759L285.747 229.126ZM289.158 243.674H288.151V229.023H289.158V243.674Z" fill="black"/>
<path d="M304.564 242.874H290.749V241.878H294.183V237.449C293.313 237.082 292.649 236.579 292.191 235.949C291.722 235.32 291.493 234.576 291.493 233.729C291.493 232.882 291.745 232.092 292.26 231.439C292.764 230.787 293.485 230.295 294.412 229.929C295.339 229.574 296.415 229.391 297.651 229.391C298.887 229.391 299.963 229.574 300.89 229.929C301.817 230.283 302.539 230.787 303.042 231.439C303.546 232.092 303.809 232.847 303.809 233.729C303.809 234.61 303.58 235.32 303.111 235.949C302.642 236.579 301.989 237.082 301.131 237.449V241.878H304.542V242.874H304.564ZM294.996 230.81C294.229 231.085 293.645 231.474 293.221 231.977C292.798 232.493 292.592 233.076 292.592 233.729C292.592 234.381 292.798 234.999 293.221 235.503C293.645 236.006 294.229 236.407 294.996 236.67C295.762 236.945 296.644 237.082 297.662 237.082C298.681 237.082 299.574 236.945 300.329 236.67C301.096 236.396 301.68 236.006 302.104 235.503C302.527 234.999 302.733 234.404 302.733 233.729C302.733 233.053 302.527 232.481 302.104 231.977C301.68 231.474 301.096 231.073 300.329 230.81C299.563 230.535 298.681 230.398 297.662 230.398C296.644 230.398 295.751 230.535 294.996 230.81ZM300.123 241.89V237.804C299.402 237.998 298.578 238.09 297.662 238.09C296.747 238.09 295.946 237.998 295.224 237.804V241.89H300.123Z" fill="black"/>
<path d="M311.145 237.471C310.825 237.288 310.47 237.013 310.081 236.659C309.738 236.35 309.451 236.132 309.211 235.983C308.971 235.834 308.707 235.766 308.421 235.766C307.952 235.766 307.574 235.937 307.288 236.281C307.002 236.624 306.842 237.082 306.819 237.654H306.098C306.132 236.807 306.361 236.132 306.773 235.663C307.185 235.182 307.723 234.953 308.364 234.953C308.799 234.953 309.177 235.045 309.486 235.239C309.806 235.434 310.15 235.709 310.539 236.063C310.905 236.384 311.203 236.613 311.432 236.75C311.649 236.888 311.912 236.956 312.198 236.956C312.679 236.956 313.057 236.785 313.343 236.441C313.618 236.098 313.778 235.628 313.801 235.045H314.522C314.488 235.903 314.259 236.567 313.847 237.036C313.435 237.517 312.897 237.746 312.256 237.746C311.832 237.746 311.466 237.654 311.145 237.471Z" fill="black"/>
<path d="M317.246 242.862C317.086 242.701 317.006 242.518 317.006 242.301C317.006 242.072 317.086 241.877 317.235 241.729C317.384 241.58 317.59 241.5 317.83 241.5C318.07 241.5 318.253 241.58 318.414 241.729C318.574 241.877 318.654 242.072 318.654 242.301C318.654 242.518 318.574 242.701 318.414 242.862C318.253 243.022 318.059 243.102 317.83 243.102C317.601 243.102 317.406 243.022 317.246 242.862ZM318.414 229.676L318.219 239.176H317.418L317.223 229.676H318.402H318.414Z" fill="black"/>
<path d="M97.0816 28.4805H45.7344C43.0857 28.4805 40.9385 30.6278 40.9385 33.2766V84.626C40.9385 87.2748 43.0857 89.4221 45.7344 89.4221H97.0816C99.7303 89.4221 101.878 87.2748 101.878 84.626V33.2766C101.878 30.6278 99.7303 28.4805 97.0816 28.4805Z" fill="#4AB65B"/>
<path d="M76.6838 59.9921L65.6954 44.2188H56.5957V73.6823H66.1304V57.9203L77.1073 73.6823H86.207V44.2188H76.6838V59.9921Z" fill="white"/>
<path d="M123.11 52.7326V53.7513C122.698 53.9459 122.183 54.0947 121.565 54.1977C120.946 54.3007 120.305 54.358 119.63 54.358H116.196V40.9775H117.215V53.3393H119.79C121.141 53.3393 122.251 53.1332 123.11 52.7326ZM125.742 40.4624V55.0905H124.712V47.1698H120.534V46.1397H124.712V40.4624H125.742ZM129.107 55.3423H128.077V40.3594H129.107V55.3423Z" fill="black"/>
<path d="M138.229 41.5498C138.859 42.0534 139.351 42.8203 139.706 43.8504C140.061 44.8806 140.244 46.1511 140.244 47.6734C140.244 49.1958 140.061 50.4663 139.706 51.4964C139.351 52.5266 138.859 53.2935 138.229 53.7971C137.6 54.3007 136.867 54.564 136.032 54.564C134.761 54.564 133.743 53.9802 132.976 52.8127C132.209 51.6452 131.831 49.9398 131.831 47.6734C131.831 45.4071 132.209 43.7016 132.976 42.5341C133.743 41.3666 134.761 40.7829 136.032 40.7829C136.867 40.7829 137.6 41.0347 138.229 41.5498ZM133.731 43.3125C133.147 44.2968 132.85 45.7619 132.85 47.6849C132.85 49.6078 133.136 51.0615 133.731 52.0573C134.315 53.0417 135.082 53.5338 136.032 53.5338C136.982 53.5338 137.726 53.0417 138.31 52.0573C138.882 51.0729 139.179 49.6078 139.179 47.6849C139.179 45.7619 138.893 44.3083 138.31 43.3125C137.726 42.3281 136.97 41.8359 136.032 41.8359C135.093 41.8359 134.315 42.3281 133.731 43.3125ZM143.117 55.3423V40.3594H144.193V55.3423H143.117Z" fill="black"/>
<path d="M159.726 55.3423H158.65V47.8566H155.101V54.3465H147.375V40.8516H148.428V46.4144H154.048V40.8516H155.101V46.815H158.65V40.3594H159.726V55.3423ZM154.06 47.4216H148.44V53.3278H154.06V47.4216Z" fill="black"/>
<path d="M174.182 41.0118V45.0523C174.182 46.9523 173.85 48.5891 173.198 49.9855C172.545 51.3705 171.629 52.4465 170.462 53.179C169.294 53.9116 167.955 54.2893 166.444 54.2893V53.2591C168.104 53.2591 169.5 52.767 170.634 51.7826C171.767 50.7982 172.511 49.4018 172.877 47.5933H166.444V46.5746H173.037C173.083 46.2656 173.117 45.7619 173.117 45.0752V42.0191H166.444V41.0004H174.182V41.0118ZM178.509 47.7765V55.3423H177.455V40.3594H178.509V46.7349H180.672V47.765H178.509V47.7765Z" fill="black"/>
<path d="M189.348 52.5266V53.5567C188.398 54.0718 186.693 54.3351 184.243 54.3351H181.222V53.3393H182.767V41.9847H181.325V40.9889H188.696V41.9847H187.219V53.1561C188.044 53.0417 188.753 52.8242 189.36 52.5151L189.348 52.5266ZM186.235 53.2706V41.9962H183.74V53.3507C184.873 53.3507 185.697 53.3278 186.235 53.2706ZM191.58 40.4624V55.0905H190.562V47.7765H188.49V46.7463H190.562V40.4624H191.58ZM194.751 55.3423H193.732V40.3594H194.751V55.3423Z" fill="black"/>
<path d="M201.309 44.1372C201.138 43.977 201.058 43.771 201.058 43.5192C201.058 43.2902 201.138 43.0842 201.309 42.924C201.481 42.7637 201.676 42.6836 201.916 42.6836C202.156 42.6836 202.351 42.7637 202.523 42.924C202.694 43.0842 202.775 43.2902 202.775 43.5192C202.775 43.771 202.694 43.9656 202.523 44.1372C202.351 44.2975 202.156 44.3776 201.916 44.3776C201.676 44.3776 201.481 44.2975 201.309 44.1372ZM201.309 52.7791C201.138 52.6188 201.058 52.4128 201.058 52.161C201.058 51.9092 201.138 51.726 201.309 51.5658C201.481 51.4055 201.676 51.3254 201.916 51.3254C202.156 51.3254 202.351 51.4055 202.523 51.5658C202.694 51.726 202.775 51.9206 202.775 52.161C202.775 52.4128 202.694 52.6074 202.523 52.7791C202.351 52.9393 202.156 53.0194 201.916 53.0194C201.676 53.0194 201.481 52.9393 201.309 52.7791Z" fill="black"/>
<path d="M216.567 48.6807C215.663 48.7952 214.622 48.8409 213.454 48.8409H209.104V40.8287H217.552V41.7787H210.146V47.868H213.58C215.938 47.868 217.632 47.6505 218.673 47.2041V48.1771C218.181 48.3945 217.483 48.5662 216.579 48.6807H216.567ZM221.592 50.6265V55.2622H220.539V51.5995H209.642V50.6265H221.592ZM221.592 49.6422H220.539V45.1553H215.331V44.2053H220.539V40.3594H221.592V49.6422Z" fill="black"/>
<path d="M230.085 45.0638L229.719 45.7048L227.201 44.2626L227.224 47.1127H226.502V44.2855L224.007 45.7048L223.652 45.0638L226.125 43.6559L223.652 42.2481L224.007 41.6071L226.502 43.0493V40.1992H227.224L227.201 43.0493L229.719 41.6071L230.085 42.2481L227.59 43.6559L230.085 45.0638Z" fill="black"/>
<path d="M237.445 45.0638L237.079 45.7048L234.56 44.2626L234.583 47.1127H233.862V44.2855L231.367 45.7048L231.012 45.0638L233.484 43.6559L231.012 42.2481L231.367 41.6071L233.862 43.0493V40.1992H234.583L234.56 43.0493L237.079 41.6071L237.445 42.2481L234.949 43.6559L237.445 45.0638Z" fill="black"/>
<path d="M246.876 41.0118V45.0523C246.876 46.9523 246.544 48.5891 245.892 49.9855C245.239 51.3705 244.324 52.4465 243.156 53.179C241.989 53.923 240.65 54.2893 239.139 54.2893V53.2591C240.798 53.2591 242.195 52.767 243.328 51.7826C244.461 50.7982 245.205 49.4018 245.571 47.5933H239.139V46.5746H245.732C245.789 46.2656 245.812 45.7619 245.812 45.0752V42.0191H239.139V41.0004H246.876V41.0118ZM251.214 47.7765V55.3423H250.161V40.3594H251.214V46.7349H253.378V47.765H251.214V47.7765Z" fill="black"/>
<path d="M262.053 52.5266V53.5567C261.103 54.0718 259.398 54.3351 256.949 54.3351H253.927V53.3393H255.472V41.9847H254.03V40.9889H261.401V41.9847H259.925V53.1561C260.749 53.0417 261.458 52.8242 262.065 52.5151L262.053 52.5266ZM258.929 53.2706V41.9962H256.433V53.3507C257.567 53.3507 258.391 53.3278 258.929 53.2706ZM264.274 40.4624V55.0905H263.255V47.7765H261.184V46.7463H263.255V40.4624H264.274ZM267.456 55.3423H266.437V40.3594H267.456V55.3423Z" fill="black"/>
<path d="M126.348 78.5462H124.574V76.4515C124.174 77.1497 123.647 77.6992 122.995 78.0769C122.331 78.466 121.587 78.6492 120.751 78.6492C119.79 78.6492 118.92 78.4203 118.141 77.951C117.363 77.4817 116.745 76.8293 116.299 75.9822C115.852 75.1352 115.635 74.1738 115.635 73.0864C115.635 71.999 115.864 71.0375 116.299 70.1905C116.734 69.3435 117.363 68.6911 118.141 68.2218C118.92 67.7525 119.79 67.5236 120.751 67.5236C121.564 67.5236 122.296 67.7067 122.949 68.0844C123.601 68.4507 124.116 68.9887 124.505 69.664V63.2656H126.36V78.5347L126.348 78.5462ZM122.811 76.5431C123.349 76.2226 123.773 75.7648 124.082 75.1581C124.391 74.5515 124.54 73.8762 124.54 73.0864C124.54 72.2966 124.391 71.6327 124.082 71.0375C123.773 70.4423 123.349 69.9845 122.811 69.6525C122.274 69.3321 121.678 69.1718 121.026 69.1718C120.373 69.1718 119.755 69.3321 119.217 69.6525C118.679 69.973 118.267 70.4309 117.958 71.0375C117.649 71.6442 117.5 72.3195 117.5 73.0864C117.5 73.8533 117.649 74.5629 117.958 75.1581C118.267 75.7533 118.679 76.2112 119.217 76.5431C119.755 76.8636 120.362 77.0238 121.026 77.0238C121.69 77.0238 122.285 76.8636 122.811 76.5431Z" fill="black"/>
<path d="M131.35 63.2773V78.5464H129.496V63.2773H131.35Z" fill="black"/>
<path d="M140.782 68.4624L140.141 69.5498L137.646 68.0847L137.668 70.889H136.432L136.455 68.0847L133.96 69.5498L133.342 68.4624L135.814 67.0889L133.342 65.7039L133.96 64.6165L136.455 66.0816L136.432 63.2773H137.668L137.646 66.0816L140.141 64.6165L140.782 65.7039L138.309 67.0889L140.782 68.4624Z" fill="black"/>
<path d="M149.607 68.6454C150.363 69.3894 150.74 70.4768 150.74 71.919V78.5463H149.012V76.7722C148.714 77.3788 148.256 77.8366 147.661 78.1571C147.066 78.4776 146.345 78.6379 145.509 78.6379C144.33 78.6379 143.403 78.3517 142.728 77.768C142.053 77.1842 141.721 76.4173 141.721 75.4788C141.721 74.5402 142.053 73.7733 142.717 73.201C143.38 72.6287 144.422 72.3425 145.83 72.3425H148.875C148.875 71.8732 148.829 71.507 148.749 71.2551C148.668 70.5569 148.405 70.019 147.97 69.6641C147.535 69.2979 146.917 69.1147 146.116 69.1147C145.486 69.1147 144.88 69.2292 144.285 69.4467C143.689 69.6641 143.197 69.9732 142.785 70.3509L142.064 68.9888C142.602 68.5195 143.243 68.1647 143.987 67.9129C144.731 67.6611 145.509 67.5352 146.322 67.5352C147.753 67.5352 148.84 67.9014 149.596 68.6454H149.607ZM147.776 76.7607C148.279 76.4059 148.657 75.9023 148.886 75.2498V73.5672H146.002C145.143 73.5672 144.514 73.7275 144.113 74.048C143.724 74.3685 143.529 74.8149 143.529 75.3757C143.529 75.9709 143.747 76.4288 144.17 76.7722C144.594 77.1155 145.177 77.2872 145.921 77.2872C146.665 77.2872 147.261 77.1155 147.776 76.7607Z" fill="black"/>
<path d="M161.935 68.7367C162.702 69.5379 163.091 70.7055 163.091 72.2278V78.546H161.236V72.491C161.236 71.4151 160.996 70.6139 160.504 70.0645C160.012 69.5151 159.325 69.2404 158.409 69.2404C157.391 69.2404 156.589 69.5608 156.006 70.2018C155.41 70.8428 155.124 71.747 155.124 72.9146V78.5346H153.247V67.6493H155.033V69.6066C155.399 68.9428 155.914 68.4391 156.578 68.0728C157.242 67.7066 157.986 67.5234 158.844 67.5234C160.138 67.5234 161.168 67.9241 161.935 68.7253V68.7367Z" fill="black"/>
<path d="M172.304 68.4624L171.663 69.5498L169.168 68.0847L169.191 70.889H167.955L167.978 68.0847L165.482 69.5498L164.864 68.4624L167.337 67.0889L164.864 65.7039L165.482 64.6165L167.978 66.0816L167.955 63.2773H169.191L169.168 66.0816L171.663 64.6165L172.304 65.7039L169.832 67.0889L172.304 68.4624Z" fill="black"/>
<path d="M180.535 68.4624L179.894 69.5498L177.398 68.0847L177.421 70.889H176.185L176.208 68.0847L173.713 69.5498L173.095 68.4624L175.567 67.0889L173.095 65.7039L173.713 64.6165L176.208 66.0816L176.185 63.2773H177.421L177.398 66.0816L179.894 64.6165L180.535 65.7039L178.062 67.0889L180.535 68.4624Z" fill="black"/>
<path d="M184.369 63.2773V78.5464H182.515V63.2773H184.369Z" fill="black"/>
<path d="M193.789 68.4624L193.148 69.5498L190.652 68.0847L190.675 70.889H189.439L189.462 68.0847L186.967 69.5498L186.349 68.4624L188.821 67.0889L186.349 65.7039L186.967 64.6165L189.462 66.0816L189.439 63.2773H190.675L190.652 66.0816L193.148 64.6165L193.789 65.7039L191.316 67.0889L193.789 68.4624Z" fill="black"/>
<path d="M208.154 69.2181C208.967 69.0921 209.596 68.9205 210.065 68.703V70.3856C209.608 70.603 208.967 70.7747 208.142 70.9006C207.307 71.0265 206.391 71.0838 205.373 71.0838H199.569V63.6896H201.446V69.3897H205.441C206.448 69.3897 207.353 69.3325 208.154 69.2066V69.2181ZM200.176 79.0617V72.7663H212.996V79.0617H200.176ZM211.118 74.426H202.019V77.3906H211.118V74.426ZM211.118 71.8392V63.4492H212.996V71.8392H211.118Z" fill="black"/>
<path d="M227.726 76.3819V79.6097H225.838V76.3819H219.268V74.6306H234.296V76.3819H227.726ZM219.828 66.6298V64.9472H225.815V63.0586H227.703V64.9472H233.735V66.6298H219.828ZM222.244 68.3467C223.388 67.8431 224.899 67.5912 226.776 67.5912C228.653 67.5912 230.176 67.8431 231.32 68.3467C232.465 68.8503 233.049 69.5943 233.049 70.5787C233.049 71.563 232.476 72.307 231.32 72.8107C230.164 73.3143 228.653 73.5661 226.776 73.5661C224.899 73.5661 223.388 73.3143 222.244 72.8107C221.099 72.307 220.527 71.563 220.527 70.5787C220.527 69.5943 221.099 68.8503 222.244 68.3467ZM229.947 69.5371C229.134 69.2967 228.081 69.1823 226.776 69.1823C225.471 69.1823 224.418 69.2967 223.617 69.5371C222.816 69.7775 222.415 70.1208 222.415 70.5787C222.415 71.0365 222.816 71.3914 223.606 71.6317C224.407 71.8606 225.46 71.9866 226.776 71.9866C228.093 71.9866 229.157 71.8721 229.958 71.6317C230.759 71.4028 231.16 71.048 231.16 70.5787C231.16 70.1094 230.759 69.7775 229.947 69.5371Z" fill="black"/>
<path d="M243.626 73.3498C242.95 74.9179 241.977 76.1312 240.718 76.9897C239.459 77.8481 237.971 78.2716 236.277 78.2716V76.4174C237.605 76.4174 238.761 76.074 239.734 75.3758C240.707 74.689 241.451 73.6932 241.966 72.4112C242.481 71.1293 242.733 69.6184 242.733 67.8786V65.7611H236.266V63.9869H244.644V67.8328C244.644 69.9274 244.301 71.7703 243.626 73.3384V73.3498ZM247.792 79.2446V63.4375H249.669V79.2446H247.792Z" fill="black"/>
<path d="M49.6819 121.667V128.329H48.4229V121.667H40.8457V120.385H57.4766V121.667H49.6934H49.6819ZM42.0361 112.018V110.805H56.1717V118.691H54.9127V112.029H42.0475L42.0361 112.018Z" fill="#17544F"/>
<path d="M66.6448 111.021V126.737H59.6855V111.021H66.6448ZM65.42 125.546V112.223H60.8416V125.546H65.42ZM74.886 127.916H73.6727V118.93H70.2503V127.618H69.0599V110.38H70.2503V117.706H73.6727V110.266H74.886V127.916Z" fill="#17544F"/>
<path d="M93.9792 124.105V128.329H92.743V124.105H87.432V128.329H86.1958V124.105H81.7891V122.938H98.4203V124.105H93.9906H93.9792ZM82.4301 113.552V112.385H89.4351V109.832H90.6941V112.385H97.7449V113.552H82.4186H82.4301ZM85.1886 115.83C86.4362 115.292 88.073 115.029 90.0989 115.029C92.1249 115.029 93.7617 115.292 95.0208 115.83C96.2798 116.368 96.9094 117.158 96.9094 118.222C96.9094 119.287 96.2798 120.076 95.0208 120.614C93.7617 121.152 92.1249 121.415 90.0989 121.415C88.073 121.415 86.4362 121.152 85.1886 120.614C83.9409 120.076 83.3114 119.287 83.3114 118.222C83.3114 117.158 83.9295 116.368 85.1886 115.83ZM94.0822 116.654C93.0635 116.299 91.7357 116.127 90.0989 116.127C88.4621 116.127 87.1115 116.299 86.1042 116.654C85.097 117.009 84.5819 117.524 84.5819 118.222C84.5819 118.92 85.0855 119.424 86.1042 119.779C87.1115 120.122 88.4507 120.294 90.0989 120.294C91.7472 120.294 93.0864 120.122 94.0936 119.779C95.1009 119.435 95.616 118.92 95.616 118.222C95.616 117.524 95.1009 117.009 94.0936 116.654H94.0822Z" fill="#17544F"/>
<path d="M106.718 125.374C107.393 125.249 108.011 125.077 108.549 124.859V126.027C108.046 126.244 107.428 126.416 106.695 126.542C105.963 126.668 105.219 126.737 104.452 126.737H100.617V111.021H107.828V112.189H101.808V125.558H104.635C105.344 125.558 106.031 125.489 106.718 125.363V125.374ZM115.829 127.916H114.616V118.907H111.193V127.618H110.003V110.38H111.193V117.706H114.616V110.266H115.829V127.916Z" fill="#17544F"/>
<path d="M134.807 121.414H118.176V120.27H125.868V117.786H119.183V116.664H122.377V111.696H119.366V110.598H133.617V111.696H130.606V116.664H133.777V117.786H127.115V120.27H134.807V121.414ZM133.914 126.462V127.584H119.435V122.971H120.694V126.462H133.903H133.914ZM129.37 116.653V111.685H123.624V116.653H129.37Z" fill="#17544F"/>
<path d="M141.755 114.717C141.56 114.523 141.457 114.282 141.457 113.996C141.457 113.71 141.56 113.481 141.755 113.298C141.949 113.115 142.19 113.012 142.464 113.012C142.739 113.012 142.979 113.103 143.174 113.298C143.369 113.492 143.472 113.721 143.472 113.996C143.472 114.282 143.369 114.523 143.174 114.717C142.979 114.912 142.739 115.003 142.464 115.003C142.19 115.003 141.949 114.912 141.755 114.717ZM141.755 124.893C141.56 124.698 141.457 124.458 141.457 124.172C141.457 123.886 141.56 123.657 141.755 123.473C141.949 123.29 142.19 123.187 142.464 123.187C142.739 123.187 142.979 123.279 143.174 123.473C143.369 123.668 143.472 123.897 143.472 124.172C143.472 124.458 143.369 124.698 143.174 124.893C142.979 125.087 142.739 125.179 142.464 125.179C142.19 125.179 141.949 125.087 141.755 124.893Z" fill="#17544F"/>
<path d="M159.22 112.83C160.102 114.203 160.537 116.218 160.537 118.885C160.537 121.551 160.102 123.566 159.22 124.94C158.339 126.313 157.149 127 155.649 127C154.688 127 153.829 126.702 153.097 126.107C152.364 125.512 151.792 124.608 151.38 123.394C150.968 122.181 150.762 120.682 150.762 118.896C150.762 117.11 150.968 115.6 151.38 114.398C151.792 113.184 152.364 112.28 153.097 111.685C153.829 111.09 154.688 110.792 155.649 110.792C157.149 110.792 158.339 111.479 159.22 112.852V112.83ZM158.305 124.024C158.969 122.856 159.301 121.139 159.301 118.873C159.301 116.607 158.969 114.89 158.305 113.722C157.641 112.555 156.759 111.971 155.649 111.971C154.539 111.971 153.658 112.555 152.994 113.722C152.33 114.89 151.998 116.607 151.998 118.873C151.998 121.139 152.33 122.856 152.994 124.024C153.658 125.191 154.539 125.775 155.649 125.775C156.759 125.775 157.641 125.191 158.305 124.024ZM165.024 118.999V127.916H163.787V110.266H165.024V117.774H167.576V118.988H165.024V118.999Z" fill="#17544F"/>
<path d="M176.711 111.673C177.455 112.269 178.039 113.173 178.462 114.386C178.886 115.6 179.092 117.099 179.092 118.885C179.092 120.67 178.886 122.181 178.462 123.383C178.039 124.585 177.455 125.5 176.711 126.096C175.967 126.691 175.108 126.988 174.124 126.988C172.625 126.988 171.423 126.302 170.519 124.928C169.614 123.555 169.168 121.54 169.168 118.873C169.168 116.206 169.614 114.192 170.519 112.818C171.423 111.445 172.625 110.758 174.124 110.758C175.108 110.758 175.967 111.055 176.711 111.651V111.673ZM171.411 113.734C170.725 114.901 170.381 116.618 170.381 118.885C170.381 121.151 170.725 122.868 171.411 124.035C172.098 125.203 173.002 125.787 174.124 125.787C175.246 125.787 176.116 125.203 176.803 124.035C177.489 122.868 177.821 121.151 177.821 118.885C177.821 116.618 177.478 114.901 176.803 113.734C176.127 112.566 175.223 111.983 174.124 111.983C173.025 111.983 172.098 112.566 171.411 113.734ZM182.468 127.916V110.266H183.727V127.916H182.468Z" fill="#17544F"/>
<path d="M203.14 121.414H186.509V120.27H194.201V117.786H187.516V116.664H190.71V111.696H187.699V110.598H201.95V111.696H198.939V116.664H202.11V117.786H195.448V120.27H203.14V121.414ZM202.247 126.462V127.584H187.768V122.971H189.027V126.462H202.236H202.247ZM197.692 116.653V111.685H191.946V116.653H197.692Z" fill="#17544F"/>
<path d="M212.124 127.136H210.888V112.131H206.985V111.055H212.136V127.136H212.124Z" fill="#17544F"/>
<path d="M228.516 119.013C229.569 119.837 230.096 120.994 230.096 122.493C230.096 123.397 229.89 124.21 229.466 124.931C229.043 125.652 228.413 126.213 227.555 126.636C226.708 127.049 225.666 127.255 224.441 127.255C223.216 127.255 222.186 127.06 221.156 126.671C220.126 126.282 219.336 125.767 218.764 125.114L219.382 124.176C219.885 124.759 220.584 125.229 221.488 125.595C222.381 125.961 223.365 126.144 224.418 126.144C225.838 126.144 226.936 125.812 227.692 125.148C228.447 124.485 228.825 123.603 228.825 122.516C228.825 121.325 228.39 120.421 227.532 119.803C226.662 119.185 225.208 118.887 223.159 118.887H219.851L220.698 111.047H229.249V112.123H221.763L221.145 117.777H223.445C225.792 117.777 227.486 118.189 228.539 119.002L228.516 119.013Z" fill="#17544F"/>
<path d="M435.405 288.008H40.0566V289.152H435.405V288.008Z" fill="#CBCBCB"/>
<path d="M466.755 296.386H450.982V295.23H457.278V287.252H458.479V295.23H466.755V296.386ZM452.035 282.422V281.266H465.61V292.311H464.408V282.422H452.035Z" fill="#989898"/>
<path d="M474.504 287.148C473.932 288.133 473.142 288.888 472.146 289.403C471.151 289.918 469.995 290.181 468.701 290.181V289.071C469.777 289.06 470.727 288.842 471.563 288.419C472.398 287.995 473.051 287.377 473.509 286.564C473.966 285.752 474.207 284.79 474.207 283.669V282.192H468.701V281.105H475.363V283.634C475.363 284.996 475.077 286.175 474.504 287.16V287.148ZM483.272 291.99V297.221H482.093V293.077H469.594V291.99H483.272ZM483.272 290.903H482.116V285.832H478.762V290.731H477.629V280.693H478.762V284.676H482.116V280.578H483.272V290.903Z" fill="#989898"/>
<path d="M495.209 287.171C496.194 287.022 496.972 286.828 497.544 286.564V287.698C497.006 287.961 496.228 288.167 495.209 288.304C494.191 288.442 493.035 288.522 491.741 288.522H486.339V280.99H487.518V287.4H491.833C493.092 287.4 494.225 287.331 495.209 287.183V287.171ZM486.957 296.98V290.731H500.097V296.98H486.957ZM498.906 291.841H488.124V295.893H498.906V291.841ZM498.906 289.483V280.578H500.085V289.483H498.906Z" fill="#989898"/>
<path d="M512.311 295.977C511.292 296.126 510.113 296.194 508.785 296.194H502.753V295.038H508.9C510.193 295.038 511.338 294.97 512.345 294.821C513.352 294.672 514.119 294.466 514.68 294.191V295.347C514.131 295.622 513.341 295.839 512.322 295.977H512.311ZM510.662 281.726C511.395 282.173 511.967 282.779 512.379 283.569C512.791 284.348 512.997 285.24 512.997 286.248C512.997 287.255 512.791 288.125 512.379 288.903C511.967 289.693 511.395 290.3 510.662 290.746C509.93 291.192 509.094 291.41 508.167 291.41C507.24 291.41 506.404 291.192 505.672 290.746C504.939 290.3 504.367 289.693 503.955 288.903C503.543 288.113 503.337 287.232 503.337 286.248C503.337 285.263 503.543 284.348 503.955 283.569C504.367 282.779 504.939 282.173 505.672 281.726C506.404 281.28 507.24 281.062 508.167 281.062C509.094 281.062 509.93 281.28 510.662 281.726ZM506.256 282.699C505.706 283.054 505.271 283.546 504.962 284.164C504.653 284.782 504.493 285.469 504.493 286.248C504.493 287.026 504.653 287.69 504.962 288.308C505.271 288.926 505.706 289.407 506.256 289.762C506.805 290.105 507.446 290.288 508.167 290.288C508.888 290.288 509.541 290.116 510.09 289.762C510.639 289.407 511.086 288.926 511.383 288.308C511.693 287.69 511.841 287.003 511.841 286.248C511.841 285.492 511.693 284.782 511.383 284.164C511.074 283.546 510.651 283.066 510.09 282.699C509.529 282.333 508.888 282.161 508.167 282.161C507.446 282.161 506.805 282.344 506.256 282.699ZM516.225 297.305V280.57H517.381V297.305H516.225Z" fill="#989898"/>
<path d="M527.637 287.263C526.733 287.858 525.714 288.27 524.569 288.487V287.354C525.634 287.125 526.55 286.69 527.351 286.049C528.141 285.408 528.747 284.63 529.159 283.703C529.571 282.776 529.789 281.803 529.8 280.773L530.956 280.841C530.956 282.02 530.75 283.085 530.35 284.046L535.729 287.228L535.146 288.213L529.835 285.031C529.285 285.935 528.553 286.679 527.66 287.274L527.637 287.263ZM539.404 296.98H525.794V292.974H537.709V290.925H525.748V289.907H538.9V293.913H526.962V295.985H539.404V296.992V296.98ZM537.732 288.808V280.578H538.911V288.808H537.732Z" fill="#989898"/>
<path d="M546.065 288.01L550.025 295.393L549.064 295.977L545.756 289.727C545.057 293.493 543.73 295.645 541.772 296.194V294.97C542.917 294.569 543.776 293.253 544.348 291.043C544.909 288.834 545.206 285.961 545.218 282.413H541.99V281.28H549.464V282.413H546.374C546.339 284.634 546.248 286.499 546.065 287.987V288.01ZM552.406 280.685V297.018H551.273V288.308H548.503V287.152H551.273V280.685H552.406ZM556.595 297.305H555.439V280.57H556.595V297.305Z" fill="#989898"/>
<path d="M571.602 293.754V297.692H570.4V293.754H563.12V292.621H578.893V293.754H571.59H571.602ZM563.738 283.693V282.583H570.377V280.168H571.579V282.583H578.263V283.693H563.738ZM566.359 285.857C567.538 285.342 569.095 285.078 571.006 285.078C572.918 285.078 574.474 285.33 575.665 285.857C576.855 286.372 577.45 287.139 577.45 288.157C577.45 289.176 576.855 289.92 575.665 290.435C574.474 290.95 572.918 291.213 571.006 291.213C569.095 291.213 567.538 290.95 566.359 290.435C565.18 289.92 564.585 289.165 564.585 288.157C564.585 287.15 565.18 286.372 566.359 285.857ZM574.795 286.669C573.833 286.326 572.574 286.154 571.018 286.154C569.461 286.154 568.202 286.326 567.241 286.669C566.279 287.013 565.787 287.505 565.787 288.157C565.787 288.81 566.268 289.302 567.229 289.634C568.191 289.966 569.45 290.138 571.018 290.138C572.586 290.138 573.833 289.966 574.795 289.634C575.756 289.302 576.249 288.81 576.249 288.157C576.249 287.505 575.768 287.001 574.795 286.669Z" fill="#989898"/>
<path d="M588.805 290.883C588.107 292.554 587.111 293.848 585.794 294.763C584.49 295.679 582.956 296.137 581.193 296.137V294.958C582.704 294.958 584.02 294.557 585.142 293.756C586.264 292.955 587.134 291.822 587.729 290.334C588.335 288.857 588.633 287.117 588.633 285.126V282.425H581.182V281.291H589.835V285.057C589.835 287.266 589.491 289.201 588.793 290.872L588.805 290.883ZM593.795 297.305V280.57H594.974V297.305H593.795Z" fill="#989898"/>
<path d="M607.862 288.159L613.093 295.439L612.154 296.16L607.496 289.601C606.969 291.559 606.259 293.115 605.355 294.26C604.451 295.404 603.387 296.057 602.15 296.194V294.992C603.272 294.786 604.211 294.031 604.977 292.726C605.744 291.421 606.317 289.75 606.694 287.713C607.072 285.675 607.267 283.455 607.278 281.028L608.48 281.051C608.446 283.798 608.24 286.167 607.85 288.159H607.862ZM616.08 288.857V297.305H614.901V280.57H616.08V287.69H618.495V288.846H616.08V288.857Z" fill="#989898"/>
<path d="M625.352 294.878C626.153 294.741 626.874 294.512 627.515 294.191V295.37C626.336 295.92 624.642 296.194 622.445 296.194H619.789V288.045H624.665V282.402H619.789V281.291H625.775V289.155H620.899V295.084H622.445C623.578 295.084 624.551 295.015 625.352 294.878ZM630.503 280.685V297.018H629.369V290.826H626.863V289.647H629.369V286.03H626.863V284.851H629.369V280.673H630.503V280.685ZM634.223 297.305H633.089V280.57H634.223V297.305Z" fill="#989898"/>
</svg>
