<svg width="678" height="334" viewBox="0 0 678 334" fill="none" xmlns="http://www.w3.org/2000/svg">
<path d="M663.336 0H14.6279C7.04209 0 0.892578 6.14977 0.892578 13.7359V320.264C0.892578 327.85 7.04209 334 14.6279 334H663.336C670.922 334 677.071 327.85 677.071 320.264V13.7359C677.071 6.14977 670.922 0 663.336 0Z" fill="white"/>
<path d="M46.0019 154.623L50.5804 160.999L49.7563 161.628L45.67 155.882C45.2122 157.599 44.5826 158.961 43.8043 159.969C43.0145 160.976 42.0874 161.537 41 161.663V160.61C41.9844 160.427 42.8085 159.774 43.4838 158.63C44.1591 157.485 44.6628 156.02 44.9947 154.246C45.3266 152.472 45.4983 150.514 45.5098 148.385L46.5628 148.408C46.5399 150.812 46.3568 152.884 46.0134 154.623H46.0019ZM53.1901 155.241V162.647H52.1599V147.996H53.1901V154.234H55.3076V155.241H53.1901Z" fill="black"/>
<path d="M58.5247 154.578C57.7463 155.161 56.8307 155.528 55.7891 155.688V154.692C57.0481 154.463 58.0554 153.879 58.7994 152.941C59.5434 152.002 59.9669 150.823 60.0356 149.404H55.9493V148.454H64.8429V149.404H61.0657C61.0314 150.171 60.9169 150.858 60.7223 151.464L65.2779 154.52L64.7285 155.356L60.3561 152.323C59.9097 153.238 59.303 153.982 58.5132 154.566L58.5247 154.578ZM66.5942 157.428C67.6587 157.908 68.1852 158.652 68.1852 159.637C68.1852 160.621 67.6587 161.365 66.5942 161.834C65.5297 162.315 64.1333 162.544 62.382 162.544C60.6308 162.544 59.2343 162.304 58.1813 161.834C57.1168 161.354 56.5903 160.621 56.5903 159.637C56.5903 158.652 57.1168 157.908 58.1813 157.428C59.2458 156.947 60.6422 156.707 62.382 156.707C64.1218 156.707 65.5297 156.947 66.5942 157.428ZM65.793 161.102C66.6743 160.77 67.1207 160.278 67.1207 159.637C67.1207 158.996 66.6743 158.492 65.793 158.16C64.9116 157.828 63.7784 157.657 62.3935 157.657C61.0085 157.657 59.8753 157.828 58.994 158.16C58.1126 158.492 57.6777 158.984 57.6777 159.637C57.6777 160.289 58.1126 160.759 58.994 161.102C59.8753 161.434 61.0085 161.606 62.3935 161.606C63.7784 161.606 64.9116 161.434 65.793 161.102ZM70.0738 152.094H67.9563V156.1H66.9261V147.996H67.9563V151.064H70.0738V152.094Z" fill="black"/>
<path d="M78.8523 153.765C79.7222 153.639 80.3975 153.456 80.8897 153.227V154.222C80.4204 154.451 79.7336 154.635 78.8523 154.76C77.9595 154.886 76.9522 154.955 75.819 154.955H71.0918V148.351H72.1219V153.959H75.8992C77.0094 153.959 77.9938 153.902 78.8523 153.765ZM71.6183 162.349V156.878H83.1216V162.349H71.6183ZM82.0915 157.851H72.6485V161.399H82.0915V157.851ZM82.0915 155.791V147.984H83.1216V155.791H82.0915Z" fill="black"/>
<path d="M92.084 149.152C92.7021 149.644 93.1828 150.4 93.5376 151.407C93.8925 152.414 94.0642 153.662 94.0642 155.15C94.0642 156.638 93.8925 157.885 93.5376 158.893C93.1943 159.9 92.7021 160.644 92.084 161.147C91.4659 161.64 90.7562 161.891 89.9321 161.891C88.6845 161.891 87.6887 161.319 86.9332 160.186C86.1778 159.041 85.8115 157.37 85.8115 155.161C85.8115 152.952 86.1892 151.269 86.9332 150.136C87.6887 149.003 88.6845 148.431 89.9321 148.431C90.7448 148.431 91.4659 148.683 92.084 149.175V149.152ZM87.6887 150.869C87.1164 151.83 86.8302 153.261 86.8302 155.138C86.8302 157.015 87.1164 158.446 87.6887 159.408C88.261 160.369 89.0164 160.861 89.9436 160.861C90.8707 160.861 91.6032 160.38 92.1641 159.408C92.725 158.446 93.0111 157.015 93.0111 155.138C93.0111 153.261 92.725 151.83 92.1641 150.869C91.6032 149.907 90.8593 149.415 89.9436 149.415C89.0279 149.415 88.261 149.896 87.6887 150.869ZM96.857 162.635V147.984H97.9101V162.635H96.857Z" fill="black"/>
<path d="M111.428 160.461C112.092 160.335 112.63 160.163 113.053 159.946V160.953C112.63 161.182 112.092 161.353 111.439 161.479C110.787 161.605 110.112 161.662 109.425 161.662H104.137V148.522H105.167V160.655H109.436C110.1 160.655 110.764 160.598 111.416 160.461H111.428ZM116.201 162.635H115.171V154.486H109.585V153.479H115.171V147.984H116.201V162.635Z" fill="black"/>
<path d="M125.495 158.501V162.988H124.465V158.501H118.078V157.437H131.894V158.501H125.507H125.495ZM119.12 155.365V148.555H130.829V155.365H119.12ZM120.15 149.55V154.381H129.799V149.55H120.15Z" fill="black"/>
<path d="M139.127 153.948C138.372 154.429 137.491 154.749 136.483 154.909V153.936C137.731 153.719 138.727 153.227 139.459 152.437C140.192 151.659 140.627 150.64 140.741 149.392H136.655V148.454H145.549V149.392H141.749C141.714 150.113 141.577 150.731 141.348 151.247L146.041 153.902L145.526 154.738L140.924 152.105C140.478 152.86 139.883 153.467 139.116 153.948H139.127ZM149.086 161.479V162.361H137.33V158.847H147.598V157.05H137.296V156.157H148.651V159.671H138.383V161.479H149.086ZM150.768 151.67H148.651V155.195H147.62V147.984H148.651V150.651H150.768V151.659V151.67Z" fill="black"/>
<path d="M158.174 150.502V151.498H150.757V150.502H153.939V147.961H154.969V150.502H158.174ZM156.171 153.455C156.652 153.81 157.029 154.314 157.293 154.989C157.556 155.664 157.693 156.465 157.693 157.393C157.693 158.32 157.556 159.121 157.293 159.785C157.029 160.449 156.652 160.964 156.171 161.307C155.69 161.65 155.141 161.834 154.534 161.834C153.595 161.834 152.84 161.444 152.268 160.655C151.695 159.876 151.409 158.778 151.409 157.381C151.409 155.985 151.695 154.886 152.268 154.096C152.84 153.306 153.595 152.917 154.534 152.917C155.141 152.917 155.69 153.089 156.171 153.444V153.455ZM156.091 159.934C156.503 159.315 156.697 158.468 156.697 157.393C156.697 156.317 156.491 155.458 156.091 154.84C155.679 154.222 155.164 153.901 154.523 153.901C153.882 153.901 153.367 154.211 152.966 154.84C152.565 155.458 152.371 156.317 152.371 157.393C152.371 158.468 152.565 159.327 152.966 159.934C153.367 160.552 153.882 160.861 154.523 160.861C155.164 160.861 155.679 160.552 156.091 159.934ZM164.195 162.635H163.199V155.161H160.394V162.394H159.422V148.087H160.394V154.176H163.199V147.995H164.195V162.646V162.635Z" fill="black"/>
<path d="M176.636 158.457V162.978H175.583V158.457H169.23V157.45H183.046V158.457H176.636ZM173.191 154.531C172.126 155.103 170.959 155.458 169.665 155.595V154.588C171.256 154.405 172.607 153.867 173.706 152.951C174.816 152.047 175.491 150.88 175.732 149.449H170.043V148.453H182.21V149.449H176.808C176.716 150.147 176.533 150.8 176.235 151.395L182.588 154.6L182.107 155.515L175.72 152.23C175.079 153.18 174.232 153.947 173.168 154.52L173.191 154.531Z" fill="black"/>
<path d="M189.136 153.994L193.657 161.09L192.833 161.72L188.85 155.333C188.415 157.233 187.808 158.721 187.019 159.82C186.229 160.919 185.29 161.525 184.191 161.674V160.61C185.141 160.427 185.943 159.774 186.584 158.63C187.225 157.496 187.705 156.031 188.014 154.246C188.323 152.472 188.484 150.514 188.495 148.385L189.548 148.408C189.525 150.491 189.388 152.357 189.125 153.994H189.136ZM196.897 162.636H195.866V156.306H192.696V155.299H195.866V152.094H192.696V151.087H195.866V147.996H196.897V162.647V162.636Z" fill="black"/>
<path d="M203.901 153.994L208.422 161.09L207.598 161.72L203.615 155.333C203.18 157.233 202.573 158.721 201.783 159.82C200.993 160.919 200.055 161.525 198.956 161.674V160.61C199.906 160.427 200.707 159.774 201.348 158.63C201.989 157.496 202.47 156.031 202.779 154.246C203.088 152.472 203.248 150.514 203.26 148.385L204.313 148.408C204.29 150.491 204.153 152.357 203.889 153.994H203.901ZM211.661 162.636H210.631V154.589H206.717V153.582H210.631V147.996H211.661V162.647V162.636Z" fill="black"/>
<path d="M224.389 159.533V162.99H223.336V159.533H216.961V158.537H230.776V159.533H224.389ZM217.499 150.719V149.746H223.314V147.629H224.367V149.746H230.227V150.719H217.499ZM219.8 152.608C220.841 152.162 222.192 151.933 223.874 151.933C225.557 151.933 226.908 152.162 227.961 152.608C229.002 153.054 229.529 153.73 229.529 154.622C229.529 155.515 229.002 156.168 227.961 156.614C226.919 157.061 225.557 157.289 223.874 157.289C222.192 157.289 220.841 157.061 219.8 156.614C218.758 156.168 218.243 155.492 218.243 154.622C218.243 153.753 218.758 153.066 219.8 152.608ZM227.182 153.318C226.335 153.02 225.236 152.871 223.874 152.871C222.512 152.871 221.413 153.02 220.566 153.318C219.719 153.615 219.296 154.05 219.296 154.622C219.296 155.195 219.719 155.63 220.555 155.916C221.391 156.213 222.501 156.351 223.874 156.351C225.248 156.351 226.335 156.202 227.182 155.916C228.029 155.618 228.453 155.195 228.453 154.622C228.453 154.05 228.029 153.615 227.182 153.318Z" fill="black"/>
<path d="M239.11 157.015C238.503 158.48 237.622 159.614 236.477 160.415C235.332 161.216 233.993 161.617 232.448 161.617V160.587C233.764 160.587 234.92 160.243 235.905 159.533C236.889 158.835 237.645 157.839 238.171 156.535C238.698 155.241 238.961 153.719 238.961 151.979V149.61H232.437V148.614H240.014V151.91C240.014 153.845 239.705 155.539 239.098 157.004L239.11 157.015ZM243.482 162.635V147.984H244.512V162.635H243.482Z" fill="black"/>
<path d="M252.833 155.104C252.067 155.676 251.174 156.042 250.144 156.214V155.207C251.437 154.978 252.456 154.36 253.2 153.364C253.944 152.368 254.344 151.052 254.39 149.427H250.304V148.477H259.197V149.427H255.42C255.386 150.411 255.26 151.235 255.042 151.91L259.541 155.264L258.991 156.1L254.642 152.838C254.195 153.776 253.589 154.532 252.833 155.104ZM262.311 157.702V162.567H261.258V158.675H250.819V157.702H262.299H262.311ZM262.311 152.391V156.741H261.281V147.984H262.311V151.384H264.428V152.391H262.311Z" fill="black"/>
<path d="M267.404 154.657C266.637 155.253 265.767 155.642 264.771 155.836V154.829C265.687 154.623 266.477 154.211 267.152 153.57C267.816 152.929 268.331 152.151 268.663 151.201C269.007 150.262 269.19 149.243 269.201 148.168L270.208 148.225C270.208 149.449 270.025 150.548 269.67 151.521L274.157 154.76L273.562 155.539L269.247 152.425C268.778 153.318 268.16 154.051 267.393 154.646L267.404 154.657ZM276.092 157.542C277.168 158.011 277.706 158.732 277.706 159.694C277.706 160.655 277.168 161.376 276.103 161.846C275.039 162.315 273.619 162.555 271.845 162.555C270.071 162.555 268.686 162.315 267.622 161.846C266.557 161.376 266.031 160.655 266.031 159.694C266.031 158.732 266.569 158.011 267.633 157.542C268.697 157.073 270.105 156.832 271.845 156.832C273.585 156.832 275.016 157.073 276.092 157.542ZM275.29 161.136C276.172 160.804 276.618 160.323 276.618 159.705C276.618 159.087 276.172 158.606 275.29 158.274C274.409 157.942 273.253 157.782 271.845 157.782C270.437 157.782 269.304 157.942 268.423 158.274C267.541 158.606 267.095 159.087 267.095 159.705C267.095 160.323 267.541 160.804 268.423 161.136C269.304 161.468 270.449 161.628 271.845 161.628C273.242 161.628 274.409 161.468 275.29 161.136ZM272.784 151.784V150.812H276.561V147.984H277.591V156.226H276.561V151.784H272.784Z" fill="black"/>
<path d="M279.457 150.523V149.584H283.635V147.719H284.688V149.584H288.889V150.523H279.468H279.457ZM281.266 156.727C280.51 156.189 280.132 155.456 280.132 154.518C280.132 153.579 280.51 152.881 281.254 152.343C282.01 151.805 282.982 151.542 284.173 151.542C285.363 151.542 286.325 151.805 287.08 152.343C287.836 152.881 288.213 153.602 288.213 154.518C288.213 155.433 287.836 156.177 287.08 156.727C286.325 157.265 285.352 157.54 284.173 157.54C282.994 157.54 282.021 157.265 281.266 156.727ZM292.311 161.374V162.347H280.499V158.593H281.529V161.374H292.311ZM281.952 153.03C281.403 153.419 281.117 153.923 281.117 154.529C281.117 155.136 281.391 155.662 281.952 156.052C282.502 156.441 283.246 156.647 284.173 156.647C285.1 156.647 285.844 156.452 286.382 156.052C286.931 155.662 287.206 155.147 287.206 154.529C287.206 153.911 286.931 153.407 286.382 153.018C285.833 152.641 285.1 152.446 284.173 152.446C283.246 152.446 282.502 152.641 281.952 153.03ZM293.959 153.327H291.842V158.993H290.812V147.982H291.842V152.297H293.959V153.327Z" fill="black"/>
<path d="M302.452 160.472C303.116 160.335 303.665 160.163 304.077 159.946V160.953C303.654 161.171 303.116 161.342 302.452 161.468C301.788 161.594 301.113 161.663 300.437 161.663H294.978V148.614H302.99V149.61H296.008V160.678H300.472C301.124 160.678 301.777 160.61 302.44 160.472H302.452ZM306.607 155.241V162.647H305.577V147.996H306.607V154.234H308.724V155.241H306.607Z" fill="black"/>
<path d="M322.804 161.833H308.988V160.826H314.505V153.844H315.558V160.826H322.804V161.833ZM309.904 149.609V148.602H321.785V158.274H320.732V149.609H309.892H309.904Z" fill="black"/>
<path d="M334.317 150.502V151.498H326.9V150.502H330.082V147.961H331.113V150.502H334.317ZM332.314 153.455C332.795 153.81 333.173 154.314 333.436 154.989C333.699 155.664 333.837 156.465 333.837 157.393C333.837 158.32 333.699 159.121 333.436 159.785C333.173 160.449 332.795 160.964 332.314 161.307C331.834 161.65 331.284 161.834 330.678 161.834C329.739 161.834 328.984 161.444 328.411 160.655C327.839 159.876 327.553 158.778 327.553 157.381C327.553 155.985 327.839 154.886 328.411 154.096C328.984 153.306 329.739 152.917 330.678 152.917C331.284 152.917 331.834 153.089 332.314 153.444V153.455ZM332.246 159.934C332.658 159.315 332.852 158.468 332.852 157.393C332.852 156.317 332.646 155.458 332.246 154.84C331.834 154.222 331.319 153.901 330.678 153.901C330.037 153.901 329.522 154.211 329.121 154.84C328.72 155.458 328.514 156.317 328.514 157.393C328.514 158.468 328.72 159.327 329.121 159.934C329.522 160.552 330.037 160.861 330.678 160.861C331.319 160.861 331.834 160.552 332.246 159.934ZM340.35 162.635H339.354V155.161H336.549V162.394H335.577V148.087H336.549V154.176H339.354V147.995H340.35V162.646V162.635Z" fill="black"/>
<path d="M355.769 155.105H341.953V154.212H348.363V152.518H343.041V148.031H344.071V151.602H354.864V152.518H349.37V154.212H355.757V155.105H355.769ZM355.002 157.051V157.909H342.674V157.051H348.317V155.792H349.37V157.051H355.002ZM354.292 160.691C354.292 161.343 353.846 161.824 352.964 162.156C352.083 162.488 350.698 162.648 348.832 162.648C346.967 162.648 345.582 162.488 344.7 162.156C343.819 161.824 343.372 161.332 343.372 160.691C343.372 159.386 345.192 158.722 348.832 158.722C352.472 158.722 354.292 159.374 354.292 160.691ZM352.106 161.526C352.884 161.332 353.273 161.057 353.273 160.702C353.273 160.347 352.884 160.073 352.094 159.867C351.316 159.672 350.229 159.569 348.844 159.569C347.459 159.569 346.371 159.672 345.604 159.867C344.826 160.061 344.437 160.336 344.437 160.702C344.437 161.068 344.826 161.332 345.604 161.526C346.383 161.721 347.459 161.824 348.844 161.824C350.229 161.824 351.327 161.721 352.106 161.526Z" fill="black"/>
<path d="M370.533 161.833H356.718V160.826H362.235V153.844H363.288V160.826H370.533V161.833ZM357.633 149.609V148.602H369.515V158.274H368.461V149.609H357.622H357.633Z" fill="black"/>
<path d="M371.483 156.513V155.563H385.299V156.513H371.483ZM384.555 161.4V162.373H372.536V158.104H373.589V161.4H384.555ZM384.383 152.564V153.537H372.571V148.02H373.601V152.564H384.383Z" fill="black"/>
<path d="M397.81 160.461C398.474 160.335 399.012 160.163 399.435 159.946V160.953C399.012 161.182 398.474 161.353 397.821 161.479C397.169 161.605 396.493 161.662 395.807 161.662H390.519V148.522H391.549V160.655H395.818C396.482 160.655 397.146 160.598 397.798 160.461H397.81ZM402.583 162.635H401.553V154.486H395.967V153.479H401.553V147.984H402.583V162.635Z" fill="black"/>
<path d="M411.865 158.501V162.988H410.835V158.501H404.448V157.437H418.264V158.501H411.877H411.865ZM405.501 155.365V148.555H417.211V155.365H405.501ZM406.52 149.55V154.381H416.169V149.55H406.52Z" fill="black"/>
<path d="M436.452 155.757H422.637V154.819H436.452V155.757ZM429.894 159.763L435.811 161.629L435.491 162.522L429.275 160.484C428.612 161.125 427.765 161.595 426.723 161.892C425.681 162.201 424.571 162.35 423.404 162.35V161.411C424.834 161.411 426.105 161.171 427.215 160.702C428.325 160.233 429.035 159.466 429.378 158.447H423.541V157.531H435.559V158.447H430.5C430.374 158.928 430.18 159.374 429.905 159.763H429.894ZM423.736 153.021V148.02H424.766V152.106H435.559V153.021H423.736Z" fill="black"/>
<path d="M444.785 154.726C444.041 155.344 443.068 155.653 441.855 155.653C440.996 155.653 440.264 155.493 439.623 155.172C438.982 154.852 438.501 154.417 438.158 153.844C437.814 153.284 437.643 152.643 437.643 151.933C437.643 151.223 437.814 150.582 438.158 150.022C438.501 149.461 438.993 149.026 439.623 148.705C440.264 148.385 441.008 148.224 441.855 148.224C443.011 148.224 443.961 148.511 444.693 149.083C445.426 149.655 445.861 150.399 445.987 151.315H449.272V147.973H450.302V156.134H449.272V152.299H446.033C445.941 153.295 445.529 154.096 444.785 154.714V154.726ZM439.543 153.959C440.126 154.451 440.893 154.703 441.855 154.703C442.816 154.703 443.572 154.451 444.167 153.959C444.751 153.467 445.048 152.791 445.048 151.933C445.048 151.075 444.751 150.411 444.167 149.907C443.583 149.415 442.816 149.163 441.855 149.163C440.893 149.163 440.126 149.415 439.543 149.907C438.959 150.399 438.661 151.075 438.661 151.933C438.661 152.791 438.959 153.455 439.543 153.959ZM446.479 161.548C445.895 162.006 445.277 162.269 444.602 162.349L442.061 159.865C441.672 160.563 441.179 161.136 440.607 161.571C440.023 162.006 439.405 162.269 438.753 162.349V161.353C439.302 161.273 439.817 161.01 440.298 160.563C440.779 160.117 441.179 159.533 441.488 158.835C441.797 158.137 441.981 157.381 442.038 156.58L443.034 156.695C442.988 157.484 442.816 158.251 442.519 158.984L444.899 161.296C445.392 161.17 445.861 160.872 446.284 160.415C446.708 159.957 447.063 159.396 447.326 158.732C447.589 158.068 447.749 157.347 447.784 156.58L448.791 156.717C448.734 157.553 448.574 158.286 448.333 158.892L451.504 161.616L450.874 162.36L447.933 159.751C447.555 160.483 447.074 161.09 446.49 161.548H446.479Z" fill="black"/>
<path d="M459.458 160.083V161.079C459.046 161.273 458.554 161.411 457.947 161.514C457.352 161.617 456.723 161.662 456.059 161.662H452.705V148.58H453.701V160.678H456.219C457.547 160.678 458.623 160.484 459.458 160.083ZM462.034 148.087V162.395H461.026V154.646H456.94V153.639H461.026V148.087H462.034ZM465.342 162.635H464.334V147.984H465.342V162.635Z" fill="black"/>
<path d="M480.748 161.835H466.933V160.839H470.366V156.41C469.497 156.043 468.833 155.54 468.375 154.91C467.906 154.281 467.677 153.537 467.677 152.69C467.677 151.843 467.928 151.053 468.444 150.4C468.947 149.748 469.668 149.244 470.595 148.89C471.522 148.535 472.61 148.352 473.835 148.352C475.059 148.352 476.147 148.535 477.074 148.89C478.001 149.244 478.722 149.748 479.226 150.4C479.729 151.053 479.993 151.808 479.993 152.69C479.993 153.571 479.764 154.281 479.294 154.91C478.825 155.54 478.173 156.043 477.314 156.41V160.839H480.725V161.835H480.748ZM471.179 149.771C470.412 150.046 469.828 150.435 469.405 150.95C468.981 151.465 468.775 152.049 468.775 152.701C468.775 153.353 468.981 153.972 469.405 154.475C469.828 154.979 470.412 155.379 471.179 155.643C471.946 155.917 472.827 156.055 473.846 156.055C474.865 156.055 475.758 155.917 476.513 155.643C477.28 155.368 477.864 154.979 478.287 154.475C478.711 153.972 478.917 153.376 478.917 152.701C478.917 152.026 478.711 151.453 478.287 150.95C477.864 150.446 477.28 150.046 476.513 149.771C475.746 149.496 474.865 149.359 473.846 149.359C472.827 149.359 471.935 149.496 471.179 149.771ZM476.307 160.851V156.764C475.586 156.959 474.762 157.051 473.846 157.051C472.93 157.051 472.129 156.959 471.408 156.764V160.851H476.307Z" fill="black"/>
<path d="M489.951 152.275L487.067 159.235H486.186L489.482 151.371H490.398L493.694 159.235H492.801L489.94 152.275H489.951Z" fill="black"/>
<path d="M500.516 152.275L497.631 159.235H496.75L500.046 151.371H500.962L504.259 159.235H503.366L500.504 152.275H500.516Z" fill="black"/>
<path d="M506.96 151.716C506.8 151.555 506.708 151.361 506.708 151.109C506.708 150.857 506.788 150.663 506.96 150.514C507.132 150.365 507.326 150.273 507.555 150.273C507.784 150.273 507.979 150.354 508.15 150.514C508.322 150.674 508.402 150.869 508.402 151.109C508.402 151.349 508.322 151.555 508.15 151.716C507.979 151.876 507.784 151.956 507.555 151.956C507.326 151.956 507.132 151.876 506.96 151.716ZM508.15 158.972C508.31 159.133 508.391 159.339 508.391 159.568C508.391 159.694 508.379 159.831 508.345 159.98C508.31 160.129 508.265 160.289 508.207 160.46L507.463 163.059H506.742L507.372 160.369C507.177 160.323 507.028 160.22 506.914 160.083C506.8 159.945 506.742 159.774 506.742 159.568C506.742 159.327 506.822 159.121 506.971 158.961C507.12 158.801 507.326 158.721 507.566 158.721C507.807 158.721 508.013 158.801 508.173 158.972H508.15Z" fill="black"/>
<path d="M510.474 151.716C510.313 151.555 510.222 151.361 510.222 151.109C510.222 150.857 510.302 150.663 510.474 150.514C510.645 150.365 510.84 150.273 511.069 150.273C511.298 150.273 511.492 150.354 511.664 150.514C511.824 150.674 511.916 150.869 511.916 151.109C511.916 151.349 511.836 151.555 511.664 151.716C511.504 151.876 511.298 151.956 511.069 151.956C510.84 151.956 510.645 151.876 510.474 151.716ZM511.664 158.972C511.824 159.133 511.905 159.339 511.905 159.568C511.905 159.694 511.893 159.831 511.859 159.98C511.824 160.129 511.779 160.289 511.721 160.46L510.977 163.059H510.256L510.886 160.369C510.691 160.323 510.542 160.22 510.428 160.083C510.313 159.945 510.256 159.774 510.256 159.568C510.256 159.327 510.336 159.121 510.485 158.961C510.634 158.801 510.84 158.721 511.08 158.721C511.321 158.721 511.527 158.801 511.687 158.972H511.664Z" fill="black"/>
<path d="M521.714 154.704L526.521 160.884L525.697 161.514L521.427 155.94C520.992 157.588 520.397 158.904 519.63 159.889C518.863 160.873 517.971 161.457 516.94 161.663V160.598C517.81 160.392 518.554 159.797 519.172 158.801C519.791 157.805 520.271 156.523 520.592 154.932C520.912 153.341 521.095 151.567 521.118 149.599H517.227V148.603H526.017V149.599H522.149C522.137 151.464 521.988 153.17 521.714 154.692V154.704ZM529.623 162.636H528.593V154.761H524.838V153.753H528.593V147.996H529.623V162.647V162.636Z" fill="black"/>
<path d="M545.304 161.834H531.488V160.826H537.841V156.683H532.496V148.613H544.319V149.621H533.526V155.687H544.48V156.683H538.894V160.826H545.304V161.834Z" fill="black"/>
<path d="M554.678 154.704L559.486 160.884L558.662 161.514L554.392 155.94C553.957 157.588 553.362 158.904 552.595 159.889C551.828 160.873 550.935 161.457 549.905 161.663V160.598C550.775 160.392 551.519 159.797 552.137 158.801C552.755 157.805 553.236 156.523 553.557 154.932C553.877 153.353 554.06 151.567 554.083 149.599H550.191V148.603H558.982V149.599H555.113C555.102 151.464 554.953 153.17 554.678 154.692V154.704ZM562.588 162.636H561.558V154.761H557.803V153.753H561.558V147.996H562.588V162.647V162.636Z" fill="black"/>
<path d="M569.627 154.783L574.434 160.884L573.61 161.514L569.341 155.997C568.894 157.633 568.288 158.95 567.521 159.923C566.754 160.896 565.849 161.479 564.819 161.662V160.598C565.701 160.392 566.456 159.797 567.086 158.801C567.715 157.805 568.196 156.523 568.539 154.932C568.871 153.341 569.054 151.567 569.077 149.61H565.105V148.614H573.999V149.61H570.107C570.085 151.578 569.924 153.307 569.627 154.783ZM577.238 162.635H576.208V147.984H577.238V162.635Z" fill="black"/>
<path d="M579.814 156.134V148.442H587.746V156.134H579.814ZM592.084 161.365V162.361H580.272V157.805H581.302V161.376H592.084V161.365ZM580.845 149.404V155.161H586.739V149.404H580.845ZM593.721 152.792H591.604V158.881H590.574V147.984H591.604V151.762H593.721V152.792Z" fill="black"/>
<path d="M48.2345 185.496V189.994H47.2043V185.496H40.8174V184.488H54.6328V185.496H48.2459H48.2345ZM41.859 182.714V175.309H42.8891V177.747H52.5382V175.309H53.5683V182.714H41.859ZM52.5496 178.72H42.9006V181.73H52.5496V178.72Z" fill="black"/>
<path d="M69.3867 188.849H55.5713V187.842H61.9468V183.721H56.59V175.629H68.3795V183.721H62.9769V187.842H69.3867V188.849ZM67.3493 182.714V176.648H57.5972V182.714H67.3493Z" fill="black"/>
<path d="M78.8523 180.78C79.7222 180.654 80.3975 180.471 80.8897 180.242V181.238C80.4204 181.467 79.7336 181.65 78.8523 181.776C77.9595 181.902 76.9522 181.971 75.819 181.971H71.0918V175.366H72.1219V180.975H75.8992C77.0094 180.975 77.9938 180.906 78.8523 180.78ZM71.6183 189.365V183.894H83.1216V189.365H71.6183ZM82.0915 184.867H72.6485V188.415H82.0915V184.867ZM82.0915 182.806V175H83.1216V182.806H82.0915Z" fill="black"/>
<path d="M92.084 176.167C92.7021 176.66 93.1828 177.415 93.5376 178.422C93.8925 179.43 94.0642 180.677 94.0642 182.165C94.0642 183.653 93.8925 184.901 93.5376 185.908C93.1943 186.915 92.7021 187.659 92.084 188.163C91.4659 188.667 90.7562 188.907 89.9321 188.907C88.6845 188.907 87.6887 188.335 86.9332 187.202C86.1778 186.068 85.8115 184.386 85.8115 182.177C85.8115 179.968 86.1892 178.285 86.9332 177.152C87.6772 176.019 88.6845 175.446 89.9321 175.446C90.7448 175.446 91.4659 175.698 92.084 176.19V176.167ZM87.6887 177.884C87.1164 178.846 86.8302 180.277 86.8302 182.154C86.8302 184.031 87.1164 185.462 87.6887 186.423C88.261 187.385 89.0164 187.877 89.9436 187.877C90.8707 187.877 91.6032 187.396 92.1641 186.423C92.725 185.462 93.0111 184.031 93.0111 182.154C93.0111 180.277 92.725 178.846 92.1641 177.884C91.6032 176.923 90.8593 176.431 89.9436 176.431C89.0279 176.431 88.261 176.911 87.6887 177.884ZM96.857 189.651V175H97.9101V189.651H96.857Z" fill="black"/>
<path d="M111.428 187.476C112.092 187.35 112.63 187.179 113.053 186.961V187.968C112.63 188.197 112.092 188.369 111.439 188.495C110.787 188.621 110.112 188.678 109.425 188.678H104.137V175.538H105.167V187.671H109.436C110.1 187.671 110.764 187.602 111.416 187.476H111.428ZM116.201 189.651H115.171V181.501H109.585V180.494H115.171V175H116.201V189.651Z" fill="black"/>
<path d="M125.495 185.517V190.004H124.465V185.517H118.078V184.452H131.894V185.517H125.507H125.495ZM119.12 182.381V175.57H130.829V182.381H119.12ZM120.15 176.566V181.396H129.799V176.566H120.15Z" fill="black"/>
<path d="M136.861 183.15V175.458H144.793V183.15H136.861ZM149.132 188.38V189.376H137.319V184.821H138.349V188.392H149.132V188.38ZM137.891 176.419V182.177H143.786V176.419H137.891ZM150.768 179.807H148.651V185.897H147.621V175H148.651V178.777H150.768V179.807Z" fill="black"/>
<path d="M164.848 183.515H151.032V182.565H157.419V180.39H158.449V182.565H164.836V183.515H164.848ZM155.027 180.287C153.985 180.699 152.909 180.905 151.799 180.94V179.99C152.658 179.967 153.527 179.795 154.386 179.497C155.244 179.188 155.977 178.753 156.584 178.192C157.19 177.632 157.557 176.968 157.682 176.224H152.074V175.285H163.829V176.224H158.758C158.678 176.807 158.507 177.334 158.243 177.792L164.195 180.081L163.852 180.974L157.591 178.593C156.927 179.326 156.08 179.898 155.038 180.31L155.027 180.287ZM163.795 185.3V189.57H162.764V186.228H151.925V185.289H163.795V185.3Z" fill="black"/>
<path d="M175.148 177.54V178.536H166.129V177.54H170.112V174.965H171.165V177.54H175.148ZM172.562 180.539C173.145 180.905 173.592 181.432 173.924 182.107C174.256 182.783 174.416 183.561 174.416 184.431C174.416 185.301 174.256 186.079 173.924 186.743C173.592 187.407 173.134 187.933 172.562 188.3C171.989 188.666 171.337 188.849 170.627 188.849C169.918 188.849 169.277 188.666 168.704 188.3C168.132 187.933 167.686 187.418 167.354 186.743C167.022 186.079 166.861 185.301 166.861 184.431C166.861 183.561 167.022 182.783 167.354 182.107C167.686 181.432 168.132 180.917 168.704 180.539C169.277 180.161 169.918 179.99 170.627 179.99C171.337 179.99 171.989 180.173 172.562 180.539ZM172.024 187.453C172.447 187.166 172.779 186.766 173.031 186.239C173.283 185.713 173.397 185.118 173.397 184.431C173.397 183.744 173.271 183.137 173.031 182.611C172.791 182.084 172.447 181.672 172.024 181.386C171.6 181.1 171.142 180.951 170.627 180.951C170.112 180.951 169.654 181.089 169.231 181.386C168.807 181.672 168.475 182.084 168.224 182.611C167.972 183.137 167.846 183.744 167.846 184.431C167.846 185.118 167.972 185.724 168.224 186.239C168.475 186.766 168.807 187.166 169.231 187.453C169.654 187.739 170.112 187.887 170.627 187.887C171.142 187.887 171.6 187.75 172.024 187.453ZM178.182 182.256V189.662H177.152V175.011H178.182V181.249H180.299V182.256H178.182Z" fill="black"/>
<path d="M183.459 182.314C182.681 182.966 181.788 183.379 180.792 183.573V182.543C181.719 182.337 182.532 181.879 183.219 181.169C183.905 180.46 184.432 179.578 184.798 178.525C185.164 177.472 185.359 176.362 185.37 175.172L186.378 175.229C186.378 176.58 186.183 177.793 185.782 178.892L190.475 182.635L189.823 183.459L185.359 179.853C184.867 180.849 184.226 181.662 183.447 182.314H183.459ZM193.806 189.365H181.845V184.935H182.875V188.369H193.806V189.365ZM192.318 185.897V175H193.348V185.897H192.318Z" fill="black"/>
<path d="M203.557 187.484C204.221 187.347 204.771 187.175 205.194 186.958V187.965C204.771 188.182 204.233 188.354 203.557 188.48C202.893 188.606 202.218 188.674 201.543 188.674H196.083V175.626H204.095V176.622H197.113V187.69H201.577C202.23 187.69 202.882 187.621 203.546 187.496L203.557 187.484ZM207.712 182.253V189.659H206.682V175.008H207.712V181.246H209.83V182.253H207.712Z" fill="black"/>
<path d="M223.909 188.849H210.094V187.842H215.611V180.86H216.664V187.842H223.909V188.849ZM211.009 176.624V175.617H222.89V185.289H221.837V176.624H210.998H211.009Z" fill="black"/>
<path d="M235.699 185.473V189.994H234.646V185.473H228.293V184.466H242.108V185.473H235.699ZM232.253 181.547C231.189 182.119 230.021 182.474 228.739 182.611V181.604C230.33 181.421 231.681 180.883 232.78 179.979C233.89 179.075 234.554 177.907 234.806 176.476H229.117V175.48H241.284V176.476H235.882C235.79 177.174 235.596 177.827 235.309 178.422L241.662 181.627L241.181 182.543L234.794 179.258C234.165 180.208 233.306 180.975 232.253 181.547Z" fill="black"/>
<path d="M243.745 183.398V175.305H244.741V178.167H250.487V175.305H251.494V183.398H243.745ZM256.324 189.361H244.42V184.874H245.451V188.365H256.324V189.361ZM250.487 179.117H244.741V182.413H250.487V179.117ZM252.238 181.681V180.708H254.951V177.927H252.238V176.954H254.951V175.008H255.958V185.905H254.951V181.692H252.238V181.681Z" fill="black"/>
<path d="M275.074 183.95H268.687V186.503H267.656V183.95H261.27V183H275.085V183.95H275.074ZM274.33 188.437V189.387H262.311V185.53H263.364V188.426H274.33V188.437ZM262.345 181.237V175.137H263.376V177.231H272.967V175.137H273.998V181.237H262.345ZM272.967 178.113H263.376V180.322H272.967V178.113Z" fill="black"/>
<path d="M276.023 182.255V181.34H289.839V182.255H276.023ZM278.049 186.96V188.528H289.095V189.386H277.054V186.181H287.813V184.67H277.019V183.835H288.832V186.96H278.049ZM278.141 176.166V178.833H288.935V179.726H277.111V175.262H288.786V176.155H278.141V176.166Z" fill="black"/>
<path d="M54.6211 214.853V215.861H40.8057V214.853H47.1811V210.298H48.2113V214.853H54.6211ZM44.6058 209.703C43.4726 210.515 42.2937 210.927 41.0804 210.927V209.897C42.1105 209.897 43.1063 209.542 44.0564 208.833C45.0064 208.123 45.8305 207.184 46.5173 206.006C47.204 204.827 47.6848 203.533 47.948 202.137L49.0125 202.366C48.7493 203.556 48.3944 204.621 47.9595 205.548L54.1404 210.126L53.5681 210.95L47.4787 206.429C46.689 207.803 45.7275 208.901 44.5943 209.714L44.6058 209.703Z" fill="black"/>
<path d="M61.6032 202.642V206.362C61.6032 208.159 61.3742 209.75 60.9164 211.157C60.4586 212.565 59.8061 213.664 58.9477 214.454C58.1007 215.244 57.1048 215.633 55.9717 215.633V214.626C56.8988 214.614 57.7115 214.259 58.4097 213.561C59.1079 212.863 59.6459 211.89 60.0236 210.665C60.4013 209.429 60.5845 208.021 60.5845 206.43V203.649H55.9717V202.653H61.6032V202.642ZM68.7455 216.663H67.7383V209.189H64.7623V216.423H63.7665V202.115H64.7623V208.204H67.7383V202.023H68.7455V216.674V216.663Z" fill="black"/>
<path d="M77.4786 204.529V205.525H70.0615V204.529H73.2435V201.988H74.2737V204.529H77.4786ZM75.4755 207.482C75.9563 207.837 76.334 208.341 76.5972 209.016C76.8605 209.692 76.9979 210.493 76.9979 211.42C76.9979 212.347 76.8605 213.148 76.5972 213.812C76.334 214.476 75.9563 214.991 75.4755 215.334C74.9948 215.678 74.4454 215.861 73.8387 215.861C72.9002 215.861 72.1447 215.472 71.5724 214.682C71.0001 213.892 70.714 212.805 70.714 211.408C70.714 210.012 71.0001 208.913 71.5724 208.123C72.1447 207.334 72.9002 206.944 73.8387 206.944C74.4454 206.944 74.9948 207.116 75.4755 207.471V207.482ZM75.3954 213.961C75.8075 213.343 76.0021 212.496 76.0021 211.42C76.0021 210.344 75.796 209.485 75.3954 208.867C74.9833 208.249 74.4683 207.929 73.8273 207.929C73.1863 207.929 72.6712 208.238 72.2706 208.867C71.87 209.485 71.6754 210.344 71.6754 211.42C71.6754 212.496 71.87 213.354 72.2706 213.961C72.6712 214.579 73.1863 214.888 73.8273 214.888C74.4683 214.888 74.9833 214.579 75.3954 213.961ZM83.5107 216.662H82.5149V209.188H79.7106V216.422H78.7377V202.114H79.7106V208.204H82.5149V202.023H83.5107V216.674V216.662Z" fill="black"/>
<path d="M95.9418 212.485V217.006H94.8887V212.485H88.5361V211.477H102.352V212.485H95.9418ZM92.4965 208.559C91.432 209.131 90.2645 209.486 88.9825 209.623V208.616C90.5735 208.433 91.9242 207.895 93.023 206.991C94.1218 206.086 94.7972 204.919 95.049 203.488H89.3603V202.492H101.527V203.488H96.1249C96.0333 204.186 95.8502 204.839 95.5526 205.434L101.905 208.639L101.424 209.554L95.0375 206.269C94.3965 207.219 93.5495 207.986 92.485 208.559H92.4965Z" fill="black"/>
<path d="M106.197 209.326C105.419 209.978 104.526 210.39 103.542 210.585V209.555C104.469 209.349 105.282 208.891 105.969 208.181C106.655 207.472 107.182 206.59 107.548 205.537C107.914 204.484 108.109 203.374 108.12 202.195L109.128 202.252C109.128 203.603 108.933 204.816 108.532 205.915L113.225 209.658L112.573 210.482L108.109 206.876C107.617 207.872 106.976 208.685 106.186 209.337L106.197 209.326ZM116.545 216.377H104.584V211.947H105.614V215.381H116.545V216.377ZM115.057 212.908V202.012H116.087V212.908H115.057Z" fill="black"/>
<path d="M126.308 214.5C126.972 214.362 127.522 214.191 127.945 213.973V214.98C127.522 215.198 126.984 215.37 126.308 215.495C125.644 215.621 124.969 215.69 124.294 215.69H118.834V202.642H126.846V203.637H119.864V214.706H124.328C124.981 214.706 125.633 214.637 126.297 214.511L126.308 214.5ZM130.452 209.269V216.674H129.422V202.023H130.452V208.262H132.569V209.269H130.452Z" fill="black"/>
<path d="M146.647 215.861H132.832V214.853H138.349V207.871H139.402V214.853H146.647V215.861ZM133.748 203.636V202.629H145.629V212.301H144.576V203.636H133.736H133.748Z" fill="black"/>
<path d="M162.592 214.499C163.245 214.362 163.794 214.19 164.229 213.973V214.98C163.806 215.198 163.268 215.369 162.592 215.495C161.928 215.621 161.253 215.69 160.578 215.69H155.312V202.641H163.359V203.637H156.343V214.705H160.612C161.276 214.705 161.928 214.637 162.581 214.511L162.592 214.499ZM167.365 216.663H166.335V209.257H160.749V208.25H166.335V202.012H167.365V216.663Z" fill="black"/>
<path d="M172.665 215.861V214.853H186.48V215.861H172.665ZM184.42 212.77V203.636H173.581V202.629H185.462V212.782H184.409L184.42 212.77Z" fill="black"/>
<path d="M195.557 214.511C196.221 214.385 196.759 214.213 197.182 213.996V214.992C196.759 215.221 196.221 215.392 195.557 215.518C194.893 215.644 194.218 215.701 193.531 215.701H188.243V208.582H194.161V203.637H188.231V202.641H195.191V209.566H189.296V214.694H193.565C194.229 214.694 194.893 214.637 195.546 214.499L195.557 214.511ZM200.33 216.663H199.277V209.314H196.278V208.284H199.277V202.012H200.33V216.663Z" fill="black"/>
<path d="M207.576 208.582L212.292 215.026L211.467 215.655L207.267 209.841C206.797 211.581 206.156 212.966 205.355 213.984C204.554 215.003 203.604 215.575 202.517 215.701V214.648C203.501 214.465 204.325 213.813 205.012 212.668C205.699 211.523 206.214 210.058 206.569 208.273C206.923 206.487 207.095 204.541 207.118 202.424L208.171 202.447C208.148 204.77 207.942 206.819 207.576 208.593V208.582ZM214.981 216.663H213.951V202.012H214.981V216.663Z" fill="black"/>
<path d="M224.252 214.11V215.106C223.84 215.301 223.348 215.438 222.741 215.541C222.146 215.644 221.517 215.69 220.853 215.69H217.499V202.607H218.495V214.705H221.013C222.329 214.705 223.417 214.511 224.252 214.11ZM226.828 202.115V216.422H225.82V208.673H221.734V207.666H225.82V202.115H226.828ZM230.124 216.663H229.117V202.012H230.124V216.663Z" fill="black"/>
<path d="M245.542 215.862H231.727V214.867H235.16V210.437C234.29 210.071 233.627 209.567 233.169 208.938C232.699 208.308 232.471 207.564 232.471 206.717C232.471 205.87 232.722 205.08 233.237 204.428C233.741 203.775 234.462 203.283 235.389 202.917C236.316 202.562 237.392 202.379 238.629 202.379C239.865 202.379 240.941 202.562 241.868 202.917C242.795 203.272 243.516 203.775 244.02 204.428C244.523 205.08 244.787 205.836 244.787 206.717C244.787 207.598 244.558 208.308 244.088 208.938C243.619 209.567 242.967 210.071 242.12 210.437V214.867H245.531V215.862H245.542ZM235.962 203.798C235.195 204.073 234.611 204.462 234.187 204.966C233.764 205.481 233.558 206.065 233.558 206.717C233.558 207.369 233.764 207.987 234.187 208.491C234.611 208.995 235.195 209.395 235.962 209.659C236.729 209.933 237.61 210.071 238.629 210.071C239.647 210.071 240.54 209.933 241.296 209.659C242.062 209.384 242.646 208.995 243.07 208.491C243.493 207.987 243.699 207.392 243.699 206.717C243.699 206.042 243.493 205.469 243.07 204.966C242.646 204.462 242.062 204.061 241.296 203.798C240.529 203.524 239.647 203.386 238.629 203.386C237.61 203.386 236.717 203.524 235.962 203.798ZM241.101 214.878V210.792C240.38 210.986 239.556 211.078 238.64 211.078C237.724 211.078 236.923 210.986 236.202 210.792V214.878H241.101Z" fill="black"/>
<path d="M257.343 212.427V217.005H256.29V212.427H249.914V211.374H263.73V212.427H257.343ZM250.979 209.394V202.469H262.825V203.465H252.032V208.386H262.997V209.394H250.979Z" fill="black"/>
<path d="M281.941 210.962H275.554V213.514H274.524V210.962H268.137V210.012H281.952V210.962H281.941ZM281.197 215.449V216.399H269.178V212.541H270.231V215.437H281.197V215.449ZM269.213 208.249V202.148H270.243V204.243H279.835V202.148H280.865V208.249H269.213ZM279.835 205.124H270.243V207.334H279.835V205.124Z" fill="black"/>
<path d="M300.14 215.861H286.324V214.854H292.7V210.733H287.343V202.641H299.132V210.733H293.73V214.854H300.14V215.861ZM298.091 209.726V203.659H288.339V209.726H298.091Z" fill="black"/>
<path d="M308.508 212.427V217.005H307.455V212.427H301.079V211.374H314.895V212.427H308.508ZM302.144 209.394V202.469H313.99V203.465H303.197V208.386H314.162V209.394H302.144Z" fill="black"/>
<path d="M336.539 209.988H322.724V209.05H329.111V207.184H323.811V202.285H335.463V207.184H330.141V209.05H336.528V209.988H336.539ZM335.486 211.671V216.398H323.777V211.671H335.486ZM334.479 215.483V212.587H324.807V215.483H334.479ZM334.433 206.245V203.189H324.841V206.245H334.433Z" fill="black"/>
<path d="M344.459 203.179C345.077 203.671 345.558 204.427 345.913 205.434C346.267 206.441 346.439 207.689 346.439 209.177C346.439 210.665 346.267 211.913 345.913 212.92C345.558 213.927 345.077 214.671 344.459 215.175C343.841 215.678 343.131 215.919 342.307 215.919C341.06 215.919 340.064 215.346 339.308 214.213C338.553 213.08 338.187 211.398 338.187 209.188C338.187 206.979 338.564 205.297 339.308 204.164C340.064 203.03 341.06 202.458 342.307 202.458C343.12 202.458 343.841 202.71 344.459 203.202V203.179ZM340.064 204.896C339.491 205.858 339.205 207.288 339.205 209.166C339.205 211.043 339.491 212.473 340.064 213.435C340.636 214.396 341.38 214.889 342.319 214.889C343.257 214.889 343.978 214.408 344.539 213.435C345.1 212.473 345.386 211.043 345.386 209.166C345.386 207.288 345.1 205.858 344.539 204.896C343.967 203.935 343.234 203.442 342.319 203.442C341.403 203.442 340.636 203.923 340.064 204.896ZM349.243 216.663V202.012H350.297V216.663H349.243Z" fill="black"/>
<path d="M363.106 211.042H368.485V214.098H357.703V215.586H368.748V216.41H356.707V213.32H367.467V211.866H356.673V211.042H362.075V209.405H355.688V208.524H369.504V209.405H363.117V211.042H363.106ZM356.776 207.127V202.148H357.806V203.728H367.398V202.148H368.428V207.127H356.776ZM367.398 204.609H357.806V206.246H367.398V204.609Z" fill="black"/>
<path d="M377.928 210.367C377.058 210.482 376.051 210.539 374.872 210.539H370.557V209.589H372.422V203.431H370.557V202.481H379.508V203.431H377.596V209.475C378.535 209.36 379.313 209.188 379.92 208.96V209.91C379.45 210.104 378.786 210.253 377.917 210.367H377.928ZM383.754 216.377H371.816V212.107H372.823V215.392H383.754V216.388V216.377ZM376.6 209.555V203.431H373.453V209.589H374.746C375.238 209.589 375.856 209.578 376.6 209.555ZM379.862 208.078V207.128H382.346V205.045H379.862V204.106H382.346V202.012H383.353V212.943H382.346V208.078H379.862Z" fill="black"/>
<path d="M394.57 204.552V205.548H385.551V204.552H389.534V201.977H390.587V204.552H394.57ZM391.983 207.551C392.556 207.917 393.014 208.444 393.346 209.119C393.678 209.794 393.838 210.573 393.838 211.442C393.838 212.312 393.678 213.091 393.346 213.766C393.014 214.43 392.556 214.956 391.983 215.323C391.4 215.689 390.759 215.872 390.049 215.872C389.339 215.872 388.698 215.689 388.126 215.323C387.554 214.956 387.107 214.441 386.776 213.766C386.444 213.102 386.283 212.324 386.283 211.442C386.283 210.561 386.444 209.794 386.776 209.119C387.107 208.444 387.554 207.929 388.126 207.551C388.698 207.173 389.339 207.001 390.049 207.001C390.759 207.001 391.411 207.185 391.983 207.551ZM391.434 214.464C391.858 214.178 392.19 213.778 392.441 213.251C392.693 212.724 392.819 212.129 392.819 211.442C392.819 210.756 392.693 210.149 392.441 209.623C392.19 209.096 391.858 208.684 391.434 208.398C391.011 208.112 390.553 207.963 390.038 207.963C389.523 207.963 389.065 208.1 388.641 208.398C388.218 208.684 387.886 209.096 387.634 209.623C387.382 210.149 387.256 210.756 387.256 211.442C387.256 212.129 387.382 212.736 387.634 213.251C387.886 213.778 388.218 214.178 388.641 214.464C389.065 214.75 389.523 214.899 390.038 214.899C390.553 214.899 391.011 214.762 391.434 214.464ZM397.604 209.268V216.673H396.573V202.022H397.604V208.26H399.721V209.268H397.604Z" fill="black"/>
<path d="M405.113 208.021L409.634 215.118L408.81 215.747L404.827 209.36C404.392 211.26 403.785 212.748 402.995 213.847C402.205 214.946 401.267 215.564 400.168 215.702V214.637C401.118 214.454 401.919 213.801 402.56 212.668C403.201 211.535 403.682 210.07 403.991 208.284C404.3 206.499 404.46 204.553 404.472 202.424L405.525 202.447C405.502 204.53 405.365 206.396 405.101 208.033L405.113 208.021ZM412.885 216.663H411.854V210.333H408.684V209.326H411.854V206.121H408.684V205.114H411.854V202.023H412.885V216.674V216.663Z" fill="black"/>
<path d="M419.878 208.021L424.4 215.118L423.575 215.747L419.592 209.36C419.157 211.26 418.551 212.748 417.761 213.847C416.971 214.946 416.032 215.564 414.934 215.702V214.637C415.884 214.454 416.685 213.801 417.326 212.668C417.967 211.535 418.448 210.07 418.757 208.284C419.066 206.499 419.226 204.553 419.249 202.424L420.302 202.447C420.279 204.53 420.142 206.396 419.878 208.033V208.021ZM427.639 216.663H426.609V208.616H422.694V207.609H426.609V202.023H427.639V216.674V216.663Z" fill="black"/>
<path d="M439.245 207.632C437.906 208.444 435.983 208.845 433.465 208.845V207.906C435.662 207.895 437.345 207.563 438.501 206.922C439.657 206.281 440.241 205.251 440.241 203.843V203.408H433.465V202.47H441.248V203.752C441.248 205.537 440.584 206.831 439.245 207.632ZM446.262 216.377H434.358V212.863H444.808V211.066H434.312V210.173H445.838V213.698H435.422V215.472H446.262V216.365V216.377ZM441.42 207.792V206.853H444.831V204.656H441.946V203.706H444.831V202.012H445.838V209.223H444.831V207.792H441.42Z" fill="black"/>
<path d="M447.715 204.325V203.41H451.893V201.75H452.946V203.41H457.146V204.325H447.726H447.715ZM450.347 210.071C449.741 209.865 449.26 209.568 448.917 209.179C448.573 208.789 448.402 208.343 448.402 207.828C448.402 207.313 448.573 206.866 448.917 206.489C449.26 206.1 449.741 205.802 450.347 205.584C450.954 205.367 451.652 205.264 452.431 205.264C453.209 205.264 453.884 205.367 454.491 205.584C455.098 205.802 455.578 206.1 455.922 206.489C456.265 206.878 456.437 207.324 456.437 207.828C456.437 208.332 456.265 208.789 455.922 209.179C455.578 209.568 455.098 209.865 454.491 210.071C453.884 210.277 453.198 210.38 452.431 210.38C451.664 210.38 450.966 210.277 450.347 210.071ZM460.088 211.056V216.378H448.756V211.056H449.764V212.738H459.069V211.056H460.077H460.088ZM450.244 206.626C449.695 206.947 449.409 207.359 449.409 207.839C449.409 208.32 449.684 208.732 450.244 209.053C450.794 209.373 451.526 209.533 452.431 209.533C453.335 209.533 454.056 209.373 454.617 209.053C455.178 208.732 455.441 208.32 455.441 207.839C455.441 207.359 455.166 206.958 454.617 206.626C454.067 206.306 453.335 206.145 452.431 206.145C451.526 206.145 450.794 206.306 450.244 206.626ZM459.081 213.597H449.775V215.485H459.081V213.597ZM460.088 206.386V210.392H459.058V202.013H460.088V205.367H462.206V206.374H460.088V206.386Z" fill="black"/>
<path d="M469.451 203.179C470.069 203.671 470.55 204.427 470.905 205.434C471.26 206.441 471.431 207.689 471.431 209.177C471.431 210.665 471.26 211.913 470.905 212.92C470.55 213.927 470.069 214.671 469.451 215.175C468.833 215.678 468.123 215.919 467.299 215.919C466.052 215.919 465.056 215.346 464.3 214.213C463.545 213.08 463.179 211.398 463.179 209.188C463.179 206.979 463.556 205.297 464.3 204.164C465.056 203.03 466.052 202.458 467.299 202.458C468.112 202.458 468.833 202.71 469.451 203.202V203.179ZM465.056 204.896C464.484 205.858 464.197 207.288 464.197 209.166C464.197 211.043 464.484 212.473 465.056 213.435C465.628 214.396 466.372 214.889 467.311 214.889C468.249 214.889 468.97 214.408 469.531 213.435C470.092 212.473 470.378 211.043 470.378 209.166C470.378 207.288 470.092 205.858 469.531 204.896C468.959 203.935 468.226 203.442 467.311 203.442C466.395 203.442 465.628 203.923 465.056 204.896ZM474.224 216.663V202.012H475.277V216.663H474.224Z" fill="black"/>
<path d="M485.487 202.641V215.69H478.07V202.641H485.487ZM484.457 214.683V203.66H479.1V214.683H484.457ZM490.134 216.663H489.104V211.89H486.323V210.882H489.104V206.911H486.323V205.903H489.104V202.012H490.134V216.663Z" fill="black"/>
<path d="M509.249 210.825H495.434V209.886H501.821V208.02H496.521V202.148H497.551V204.152H507.143V202.148H508.173V208.02H502.851V209.886H509.238V210.825H509.249ZM508.207 212.564V216.593H507.177V213.503H496.338V212.564H508.207ZM507.154 207.105V205.021H497.563V207.105H507.154Z" fill="black"/>
<path d="M515.373 208.811L520.18 214.911L519.356 215.541L515.087 210.024C514.64 211.661 514.034 212.977 513.267 213.939C512.5 214.911 511.596 215.495 510.565 215.69V214.625C511.447 214.419 512.191 213.824 512.82 212.828C513.45 211.832 513.931 210.551 514.274 208.96C514.606 207.369 514.789 205.594 514.823 203.637H510.852V202.641H519.745V203.637H515.854C515.831 205.606 515.67 207.334 515.373 208.811ZM522.984 216.663H521.954V202.012H522.984V216.663Z" fill="black"/>
<path d="M528.398 204.119V203.238H532.576V201.75H533.629V203.238H537.83V204.119H528.41H528.398ZM530.23 208.961C529.486 208.572 529.12 208.011 529.12 207.278C529.12 206.546 529.497 205.997 530.241 205.584C530.997 205.184 531.958 204.989 533.126 204.989C534.293 204.989 535.255 205.184 535.999 205.584C536.743 205.985 537.109 206.546 537.109 207.278C537.109 208.011 536.743 208.56 535.999 208.961C535.255 209.35 534.293 209.556 533.126 209.556C531.958 209.556 530.974 209.362 530.23 208.961ZM541.23 215.52V216.378H529.474V213.082H539.753V211.479H529.429V210.621H540.783V213.906H530.505V215.531H541.23V215.52ZM530.928 206.237C530.39 206.5 530.115 206.844 530.115 207.278C530.115 207.713 530.39 208.045 530.928 208.309C531.466 208.572 532.199 208.709 533.114 208.709C534.03 208.709 534.763 208.572 535.3 208.309C535.838 208.045 536.113 207.702 536.113 207.278C536.113 206.855 535.838 206.5 535.3 206.237C534.763 205.974 534.03 205.848 533.114 205.848C532.199 205.848 531.466 205.974 530.928 206.237ZM542.901 206.294H540.783V209.705H539.753V202.013H540.783V205.31H542.901V206.283V206.294Z" fill="black"/>
<path d="M550.031 202.779C550.684 203.145 551.187 203.649 551.531 204.289C551.874 204.93 552.046 205.64 552.046 206.43C552.046 207.22 551.874 207.929 551.519 208.57C551.164 209.211 550.672 209.704 550.02 210.081C549.367 210.459 548.601 210.631 547.708 210.631C546.815 210.631 546.06 210.447 545.407 210.081C544.755 209.715 544.251 209.211 543.908 208.57C543.564 207.929 543.393 207.22 543.393 206.43C543.393 205.64 543.564 204.93 543.908 204.289C544.251 203.649 544.755 203.156 545.407 202.779C546.06 202.401 546.826 202.229 547.708 202.229C548.589 202.229 549.367 202.412 550.02 202.779H550.031ZM545.338 204.049C544.743 204.644 544.446 205.434 544.446 206.43C544.446 207.426 544.743 208.216 545.338 208.799C545.934 209.383 546.723 209.692 547.708 209.692C548.692 209.692 549.493 209.394 550.089 208.799C550.684 208.204 550.981 207.414 550.981 206.43C550.981 205.446 550.684 204.644 550.089 204.049C549.493 203.454 548.692 203.156 547.708 203.156C546.723 203.156 545.945 203.454 545.338 204.049ZM556.407 215.392V216.388H544.617V211.775H545.647V215.404H556.407V215.392ZM554.919 212.908V202.012H555.949V212.908H554.919Z" fill="black"/>
<path d="M564.911 203.179C565.529 203.671 566.01 204.427 566.365 205.434C566.708 206.441 566.891 207.689 566.891 209.177C566.891 210.665 566.72 211.913 566.365 212.92C566.01 213.927 565.529 214.671 564.911 215.175C564.293 215.678 563.583 215.919 562.759 215.919C561.512 215.919 560.516 215.346 559.76 214.213C559.005 213.08 558.639 211.398 558.639 209.188C558.639 206.979 559.016 205.297 559.76 204.164C560.504 203.03 561.512 202.458 562.759 202.458C563.572 202.458 564.293 202.71 564.911 203.202V203.179ZM560.504 204.896C559.932 205.858 559.646 207.288 559.646 209.166C559.646 211.043 559.932 212.473 560.504 213.435C561.077 214.396 561.832 214.889 562.759 214.889C563.686 214.889 564.419 214.408 564.98 213.435C565.541 212.473 565.827 211.043 565.827 209.166C565.827 207.288 565.541 205.858 564.98 204.896C564.408 203.935 563.675 203.442 562.759 203.442C561.844 203.442 561.077 203.923 560.504 204.896ZM569.684 216.663V202.012H570.737V216.663H569.684Z" fill="black"/>
<path d="M580.936 202.641V215.69H573.519V202.641H580.936ZM579.905 214.683V203.66H574.549V214.683H579.905ZM585.594 216.663H584.564V211.89H581.783V210.882H584.564V206.911H581.783V205.903H584.564V202.012H585.594V216.663Z" fill="black"/>
<path d="M54.6211 236.431H40.8057V235.493H48.0968V232.311H49.127V235.493H54.6211V236.431ZM41.7099 230.228V229.289H46.4829V234.119H45.4757V230.228H41.7214H41.7099ZM53.6139 238.183V243.414H41.8473V238.183H53.6139ZM52.5837 242.475V239.121H42.8545V242.475H52.5837ZM47.4101 230.228V229.289H53.591V234.291H52.5837V230.228H47.4101Z" fill="black"/>
<path d="M69.3867 236.431H55.5713V235.493H62.8625V232.311H63.8926V235.493H69.3867V236.431ZM56.4755 230.228V229.289H61.2486V234.119H60.2413V230.228H56.487H56.4755ZM68.3795 238.183V243.414H56.6129V238.183H68.3795ZM67.3493 242.475V239.121H57.6201V242.475H67.3493ZM62.1757 230.228V229.289H68.3566V234.291H67.3493V230.228H62.1757Z" fill="black"/>
<path d="M79.6885 231.568V232.563H70.6689V231.568H74.6522V228.992H75.7052V231.568H79.6885ZM77.1017 234.566C77.6854 234.933 78.1318 235.459 78.4637 236.135C78.7957 236.81 78.9559 237.588 78.9559 238.458C78.9559 239.328 78.7957 240.106 78.4637 240.782C78.1318 241.446 77.674 241.972 77.1017 242.338C76.5294 242.705 75.8769 242.888 75.1673 242.888C74.4576 242.888 73.8166 242.705 73.2443 242.338C72.672 241.972 72.2256 241.457 71.8937 240.782C71.5617 240.118 71.4015 239.339 71.4015 238.458C71.4015 237.577 71.5617 236.81 71.8937 236.135C72.2256 235.459 72.672 234.944 73.2443 234.566C73.8166 234.189 74.4576 234.017 75.1673 234.017C75.8769 234.017 76.5294 234.2 77.1017 234.566ZM76.5637 241.48C76.9872 241.194 77.3191 240.793 77.5709 240.267C77.8228 239.74 77.9487 239.145 77.9487 238.458C77.9487 237.771 77.8228 237.165 77.5709 236.638C77.3191 236.112 76.9872 235.7 76.5637 235.413C76.1402 235.127 75.6823 234.978 75.1673 234.978C74.6522 234.978 74.1943 235.116 73.7708 235.413C73.3473 235.7 73.0154 236.112 72.7636 236.638C72.5118 237.165 72.3973 237.771 72.3973 238.458C72.3973 239.145 72.5232 239.752 72.7636 240.267C73.004 240.782 73.3473 241.194 73.7708 241.48C74.1943 241.766 74.6522 241.915 75.1673 241.915C75.6823 241.915 76.1402 241.777 76.5637 241.48ZM82.7217 236.283V243.689H81.6915V229.038H82.7217V235.276H84.8392V236.283H82.7217Z" fill="black"/>
<path d="M94.8547 229.126V243.434H93.8474V236.223H90.9287C90.5967 238.18 89.9557 239.737 89.0172 240.904C88.0671 242.072 86.8996 242.644 85.5146 242.644V241.637C86.4418 241.626 87.2545 241.271 87.9527 240.573C88.6509 239.874 89.1888 238.901 89.5666 237.677C89.9443 236.441 90.1274 235.033 90.1274 233.442V230.66H85.5146V229.664H91.1461V233.384C91.1461 234.106 91.1118 234.724 91.0546 235.216H93.8589V229.126H94.8661H94.8547ZM98.2771 243.674H97.2698V229.023H98.2771V243.674Z" fill="black"/>
<path d="M108.441 235.037L112.962 242.133L112.138 242.763L108.155 236.376C107.72 238.276 107.113 239.764 106.323 240.863C105.534 241.962 104.595 242.568 103.496 242.717V241.653C104.446 241.47 105.247 240.817 105.888 239.673C106.529 238.539 107.01 237.074 107.319 235.3C107.628 233.514 107.788 231.569 107.8 229.44L108.853 229.463C108.83 231.546 108.693 233.411 108.429 235.048L108.441 235.037ZM116.201 243.679H115.171V235.632H111.257V234.625H115.171V229.039H116.201V243.69V243.679Z" fill="black"/>
<path d="M128.197 240.094V244.02H127.167V240.094H122.76V244.02H121.73V240.094H118.067V239.098H131.883V240.094H128.197ZM119.143 230.536V229.598H130.876V233.741H120.173V236.03H131.104V236.98H119.143V232.825H129.845V230.536H119.143Z" fill="black"/>
<path d="M137.055 229.657V232.839C137.055 235.666 136.758 237.898 136.174 239.547C135.59 241.195 134.606 242.053 133.232 242.133V241.126C134.251 241.035 134.972 240.279 135.407 238.837C135.842 237.395 136.06 235.437 136.06 232.965V230.653H133.232V229.657H137.044H137.055ZM141.725 229.657V233.125C141.725 236.09 141.382 238.402 140.695 240.05C140.009 241.698 138.955 242.568 137.525 242.648V241.641C138.589 241.55 139.39 240.783 139.905 239.341C140.432 237.898 140.684 235.861 140.684 233.228V230.653H137.902V229.657H141.714H141.725ZM145.308 236.284V243.69H144.301V229.039H145.308V235.277H147.334V236.284H145.308Z" fill="black"/>
<path d="M152.771 235.822L157.579 241.923L156.754 242.553L152.485 237.036C152.039 238.673 151.432 239.977 150.665 240.95C149.898 241.923 148.994 242.507 147.964 242.69V241.626C148.845 241.42 149.589 240.824 150.23 239.829C150.86 238.833 151.34 237.551 151.684 235.96C152.016 234.369 152.199 232.595 152.233 230.637H148.261V229.642H157.155V230.637H153.263C153.241 232.606 153.08 234.334 152.783 235.811L152.771 235.822ZM160.383 243.674H159.353V229.023H160.383V243.674Z" fill="black"/>
<path d="M169.654 235.952L173.111 242.041L172.287 242.579L169.403 237.429C168.819 240.553 167.651 242.316 165.889 242.717V241.686C166.873 241.412 167.594 240.462 168.086 238.848C168.567 237.234 168.819 235.105 168.853 232.472H166.026V231.477H168.853V229.016H169.86V231.477H172.665V232.472H169.86C169.849 233.709 169.78 234.865 169.654 235.963V235.952ZM175.297 229.13V243.438H174.302V236.169H172.127V235.162H174.302V229.13H175.297ZM178.96 243.678H177.953V229.027H178.96V243.678Z" fill="black"/>
<path d="M194.378 242.877H180.562V241.87H194.378V242.877ZM181.535 236.181V235.174H192.18V230.675H181.535V229.668H193.21V240.256H192.18V236.192H181.535V236.181Z" fill="black"/>
<path d="M202.471 231.545V232.541H195.054V231.545H198.236V229.004H199.266V231.545H202.471ZM200.468 234.498C200.948 234.853 201.326 235.356 201.589 236.032C201.853 236.707 201.99 237.508 201.99 238.436C201.99 239.363 201.853 240.164 201.589 240.828C201.326 241.492 200.948 242.007 200.468 242.35C199.987 242.693 199.438 242.877 198.831 242.877C197.892 242.877 197.137 242.487 196.565 241.698C195.992 240.919 195.706 239.82 195.706 238.424C195.706 237.028 195.992 235.929 196.565 235.139C197.137 234.349 197.892 233.96 198.831 233.96C199.438 233.96 199.987 234.132 200.468 234.487V234.498ZM200.388 240.977C200.8 240.358 200.994 239.511 200.994 238.436C200.994 237.36 200.788 236.501 200.388 235.883C199.976 235.265 199.46 234.944 198.819 234.944C198.178 234.944 197.663 235.253 197.263 235.883C196.862 236.501 196.668 237.36 196.668 238.436C196.668 239.511 196.862 240.37 197.263 240.977C197.663 241.595 198.178 241.904 198.819 241.904C199.46 241.904 199.976 241.595 200.388 240.977ZM208.491 243.678H207.496V236.204H204.691V243.437H203.718V229.13H204.691V235.219H207.496V229.038H208.491V243.689V243.678Z" fill="black"/>
<path d="M217.499 239.5V244.021H216.446V239.5H210.094V238.493H223.909V239.5H217.499ZM214.054 235.574C212.99 236.147 211.822 236.501 210.529 236.639V235.631C212.12 235.448 213.47 234.91 214.569 234.006C215.679 233.102 216.355 231.934 216.595 230.504H210.906V229.508H223.074V230.504H217.671C217.579 231.202 217.396 231.854 217.099 232.449L223.451 235.654L222.971 236.57L216.584 233.285C215.943 234.235 215.096 235.002 214.031 235.574H214.054Z" fill="black"/>
<path d="M230.239 235.594L234.955 242.038L234.131 242.667L229.93 236.853C229.461 238.592 228.82 239.977 228.018 240.996C227.217 242.015 226.267 242.587 225.18 242.713V241.66C226.164 241.477 226.988 240.824 227.675 239.68C228.362 238.535 228.877 237.07 229.232 235.284C229.575 233.499 229.758 231.553 229.77 229.435L230.823 229.458C230.8 231.782 230.605 233.831 230.227 235.605L230.239 235.594ZM237.644 243.674H236.614V229.023H237.644V243.674Z" fill="black"/>
<path d="M253.439 242.876H239.624V241.869H245.141V234.887H246.194V241.869H253.439V242.876ZM240.54 230.652V229.645H252.421V239.317H251.368V230.652H240.528H240.54Z" fill="black"/>
<path d="M264.794 230.191C265.412 230.683 265.893 231.439 266.248 232.446C266.602 233.453 266.774 234.701 266.774 236.189C266.774 237.677 266.602 238.924 266.248 239.932C265.893 240.939 265.412 241.683 264.794 242.186C264.176 242.679 263.466 242.93 262.642 242.93C261.394 242.93 260.399 242.358 259.643 241.225C258.888 240.08 258.521 238.409 258.521 236.2C258.521 233.991 258.899 232.308 259.643 231.175C260.399 230.042 261.394 229.47 262.642 229.47C263.455 229.47 264.176 229.722 264.794 230.214V230.191ZM260.399 231.908C259.826 232.869 259.54 234.3 259.54 236.177C259.54 238.054 259.826 239.485 260.399 240.447C260.971 241.408 261.715 241.9 262.654 241.9C263.592 241.9 264.313 241.42 264.874 240.447C265.435 239.485 265.721 238.054 265.721 236.177C265.721 234.3 265.435 232.869 264.874 231.908C264.302 230.946 263.569 230.454 262.654 230.454C261.738 230.454 260.971 230.935 260.399 231.908ZM269.578 243.674V229.023H270.631V243.674H269.578Z" fill="black"/>
<path d="M275.348 235.563C274.581 236.159 273.677 236.548 272.646 236.731V235.724C273.574 235.518 274.375 235.106 275.05 234.487C275.725 233.869 276.241 233.091 276.584 232.175C276.939 231.26 277.11 230.264 277.122 229.199L278.152 229.257C278.152 230.367 277.969 231.408 277.614 232.404L282.215 235.575L281.677 236.399L277.213 233.308C276.733 234.224 276.103 234.98 275.336 235.575L275.348 235.563ZM283.612 238.471C284.676 238.951 285.203 239.695 285.203 240.68C285.203 241.664 284.676 242.408 283.612 242.877C282.547 243.358 281.151 243.587 279.411 243.587C277.671 243.587 276.263 243.347 275.199 242.877C274.134 242.397 273.608 241.664 273.608 240.68C273.608 239.695 274.134 238.951 275.199 238.471C276.263 237.99 277.66 237.75 279.411 237.75C281.162 237.75 282.559 237.99 283.612 238.471ZM282.811 242.145C283.692 241.813 284.138 241.321 284.138 240.68C284.138 240.039 283.692 239.535 282.811 239.203C281.929 238.871 280.796 238.7 279.411 238.7C278.026 238.7 276.893 238.871 276.012 239.203C275.13 239.535 274.695 240.027 274.695 240.68C274.695 241.332 275.13 241.801 276.012 242.145C276.893 242.477 278.026 242.648 279.411 242.648C280.796 242.648 281.929 242.477 282.811 242.145ZM287.091 233.137H284.974V237.143H283.944V229.039H284.974V232.107H287.091V233.137Z" fill="black"/>
<path d="M298.137 235.483C297.405 236.056 296.432 236.353 295.241 236.353C294.394 236.353 293.65 236.204 293.009 235.895C292.369 235.586 291.888 235.174 291.544 234.636C291.201 234.098 291.029 233.492 291.029 232.805C291.029 232.118 291.201 231.523 291.544 230.996C291.888 230.458 292.38 230.046 293.009 229.737C293.639 229.428 294.394 229.279 295.241 229.279C296.398 229.279 297.348 229.554 298.08 230.092C298.813 230.63 299.248 231.351 299.373 232.244H302.659V229.039H303.689V236.674H302.659V233.24H299.396C299.293 234.167 298.87 234.922 298.137 235.506V235.483ZM292.929 234.728C293.513 235.197 294.28 235.426 295.241 235.426C296.203 235.426 296.97 235.197 297.554 234.728C298.137 234.258 298.435 233.629 298.435 232.816C298.435 232.004 298.137 231.386 297.554 230.916C296.97 230.447 296.203 230.218 295.241 230.218C294.28 230.218 293.513 230.447 292.929 230.916C292.346 231.386 292.048 232.015 292.048 232.816C292.048 233.618 292.346 234.27 292.929 234.728ZM297.737 237.372V243.404H292.208V237.372H293.158V239.352H296.764V237.372H297.737ZM296.764 240.21H293.158V242.5H296.764V240.21ZM300.278 242.614C299.694 243.072 299.076 243.335 298.401 243.392V242.442C298.927 242.362 299.408 242.122 299.854 241.71C300.301 241.298 300.678 240.714 300.976 239.959C301.274 239.203 301.457 238.31 301.537 237.303L302.533 237.383C302.464 238.31 302.315 239.123 302.075 239.821L305.142 242.706L304.49 243.427L301.709 240.737C301.331 241.538 300.85 242.168 300.266 242.626L300.278 242.614Z" fill="black"/>
<path d="M312.524 230.191C313.143 230.683 313.623 231.439 313.978 232.446C314.333 233.453 314.505 234.701 314.505 236.189C314.505 237.677 314.333 238.924 313.978 239.932C313.623 240.939 313.143 241.683 312.524 242.186C311.906 242.679 311.197 242.93 310.373 242.93C309.125 242.93 308.129 242.358 307.374 241.225C306.618 240.08 306.252 238.409 306.252 236.2C306.252 233.991 306.63 232.308 307.374 231.175C308.129 230.042 309.125 229.47 310.373 229.47C311.185 229.47 311.906 229.722 312.524 230.214V230.191ZM308.129 231.908C307.557 232.869 307.271 234.3 307.271 236.177C307.271 238.054 307.557 239.485 308.129 240.447C308.701 241.408 309.445 241.9 310.384 241.9C311.323 241.9 312.044 241.42 312.605 240.447C313.165 239.485 313.452 238.054 313.452 236.177C313.452 234.3 313.165 232.869 312.605 231.908C312.032 230.946 311.3 230.454 310.384 230.454C309.468 230.454 308.701 230.935 308.129 231.908ZM317.309 243.674V229.023H318.362V243.674H317.309Z" fill="black"/>
<path d="M335.509 229.657V242.706H327.954V229.657H335.509ZM334.478 241.698V230.676H328.984V241.698H334.478ZM339.572 236.284V243.69H338.542V229.039H339.572V235.277H341.689V236.284H339.572Z" fill="black"/>
<path d="M349.37 239.544V244.031H348.34V239.544H341.953V238.48H355.769V239.544H349.382H349.37ZM343.006 236.408V229.598H354.716V236.408H343.006ZM344.036 230.593V235.424H353.685V230.593H344.036Z" fill="black"/>
<path d="M358.641 236.521V241.706H363.299C363.963 241.706 364.627 241.637 365.279 241.511C365.943 241.385 366.481 241.214 366.905 240.996V241.992C366.481 242.221 365.943 242.392 365.279 242.518C364.616 242.644 363.952 242.702 363.276 242.702H357.588V235.548H364.306V230.649H357.576V229.653H365.325V236.521H358.652H358.641ZM368.473 243.674V229.023H369.503V243.674H368.473Z" fill="black"/>
<path d="M382.048 231.545V232.541H374.631V231.545H377.813V229.004H378.843V231.545H382.048ZM380.045 234.498C380.526 234.853 380.903 235.356 381.167 236.032C381.43 236.707 381.567 237.508 381.567 238.436C381.567 239.363 381.43 240.164 381.167 240.828C380.903 241.492 380.526 242.007 380.045 242.35C379.564 242.705 379.015 242.877 378.408 242.877C377.47 242.877 376.714 242.487 376.142 241.698C375.569 240.919 375.283 239.82 375.283 238.424C375.283 237.028 375.569 235.929 376.142 235.139C376.714 234.349 377.47 233.96 378.408 233.96C379.015 233.96 379.564 234.132 380.045 234.487V234.498ZM379.976 240.977C380.388 240.358 380.583 239.511 380.583 238.436C380.583 237.36 380.377 236.501 379.976 235.883C379.564 235.265 379.049 234.944 378.408 234.944C377.767 234.944 377.252 235.253 376.851 235.883C376.451 236.501 376.245 237.36 376.245 238.436C376.245 239.511 376.451 240.37 376.851 240.977C377.252 241.583 377.767 241.904 378.408 241.904C379.049 241.904 379.564 241.595 379.976 240.977ZM388.08 243.678H387.084V236.204H384.28V243.437H383.307V229.13H384.28V235.219H387.084V229.038H388.08V243.689V243.678Z" fill="black"/>
<path d="M397.078 239.5V244.021H396.024V239.5H389.672V238.493H403.487V239.5H397.078ZM393.644 235.574C392.579 236.147 391.412 236.501 390.13 236.639V235.631C391.721 235.448 393.071 234.91 394.17 234.006C395.28 233.102 395.944 231.934 396.196 230.504H390.507V229.508H402.675V230.504H397.272C397.18 231.202 396.986 231.854 396.7 232.449L403.052 235.654L402.572 236.57L396.185 233.285C395.555 234.235 394.697 235.002 393.644 235.574Z" fill="black"/>
<path d="M409.577 235.037L414.098 242.133L413.274 242.763L409.29 236.376C408.855 238.276 408.249 239.764 407.459 240.863C406.669 241.962 405.731 242.568 404.632 242.717V241.653C405.582 241.47 406.383 240.817 407.024 239.673C407.665 238.539 408.146 237.074 408.455 235.3C408.764 233.514 408.924 231.569 408.936 229.44L409.989 229.463C409.966 231.546 409.828 233.411 409.565 235.048L409.577 235.037ZM417.348 243.679H416.318V237.349H413.148V236.342H416.318V233.137H413.148V232.13H416.318V229.039H417.348V243.69V243.679Z" fill="black"/>
<path d="M424.342 235.037L428.863 242.133L428.039 242.763L424.056 236.376C423.621 238.276 423.014 239.764 422.225 240.863C421.435 241.962 420.496 242.568 419.397 242.717V241.653C420.347 241.47 421.149 240.817 421.79 239.673C422.431 238.539 422.911 237.074 423.22 235.3C423.529 233.514 423.69 231.569 423.713 229.44L424.766 229.463C424.743 231.546 424.605 233.411 424.342 235.048V235.037ZM432.114 243.679H431.084V235.632H427.169V234.625H431.084V229.039H432.114V243.69V243.679Z" fill="black"/>
<path d="M445.54 241.5C446.204 241.374 446.742 241.202 447.166 240.985V241.992C446.742 242.221 446.204 242.392 445.552 242.518C444.899 242.644 444.224 242.702 443.537 242.702H438.249V229.561H439.279V241.694H443.549C444.212 241.694 444.876 241.626 445.529 241.5H445.54ZM450.302 243.674H449.272V235.525H443.686V234.518H449.272V229.023H450.302V243.674Z" fill="black"/>
<path d="M459.596 239.544V244.031H458.566V239.544H452.179V238.48H465.994V239.544H459.607H459.596ZM453.22 236.408V229.598H464.929V236.408H453.22ZM454.25 230.593V235.424H463.899V230.593H454.25Z" fill="black"/>
<path d="M476.616 235.113C475.254 236.017 473.308 236.463 470.812 236.463V235.49C472.999 235.49 474.681 235.124 475.872 234.392C477.062 233.659 477.646 232.526 477.646 230.992V230.443H470.812V229.493H478.676V230.889C478.676 232.812 477.989 234.22 476.627 235.124L476.616 235.113ZM482.751 237.951V243.388H471.419V237.951H482.751ZM481.721 242.438V238.913H472.449V242.438H481.721ZM482.751 233.339V237.001H481.721V229.023H482.751V232.308H484.869V233.339H482.751Z" fill="black"/>
<path d="M490.328 235.666L494.907 242.042L494.082 242.671L489.996 236.925C489.538 238.642 488.92 240.004 488.13 241.012C487.341 242.019 486.402 242.58 485.326 242.706V241.653C486.311 241.47 487.135 240.817 487.81 239.673C488.485 238.528 488.989 237.063 489.321 235.289C489.653 233.503 489.824 231.557 489.836 229.428L490.889 229.451C490.866 231.855 490.683 233.927 490.34 235.666H490.328ZM497.516 236.284V243.69H496.486V229.039H497.516V235.277H499.634V236.284H497.516Z" fill="black"/>
<path d="M499.691 231.544V230.629H502.931V228.82H503.961V230.629H507.074V231.544H499.691ZM501.179 237.165C500.573 236.672 500.264 236.02 500.264 235.196C500.264 234.372 500.573 233.708 501.179 233.216C501.786 232.723 502.553 232.472 503.469 232.472C504.384 232.472 505.151 232.723 505.758 233.216C506.364 233.708 506.674 234.372 506.674 235.196C506.674 236.02 506.364 236.684 505.758 237.165C505.151 237.657 504.384 237.897 503.469 237.897C502.553 237.897 501.786 237.657 501.179 237.165ZM508.848 242.693C508.253 243.071 507.624 243.311 506.96 243.403L504.27 241.342C503.835 241.915 503.32 242.384 502.736 242.739C502.152 243.094 501.534 243.323 500.893 243.403V242.43C501.431 242.35 501.946 242.132 502.473 241.754C502.988 241.377 503.423 240.907 503.766 240.347C504.11 239.786 504.316 239.19 504.373 238.561L505.369 238.698C505.289 239.351 505.094 239.969 504.773 240.564L507.2 242.395C507.704 242.281 508.196 242.029 508.665 241.651C509.134 241.274 509.512 240.804 509.833 240.266C510.142 239.728 510.336 239.156 510.394 238.561L511.389 238.698C511.309 239.305 511.137 239.877 510.874 240.415L514.102 242.613L513.553 243.448L510.382 241.216C509.97 241.823 509.478 242.327 508.871 242.704L508.848 242.693ZM501.855 233.88C501.443 234.223 501.248 234.658 501.248 235.196C501.248 235.734 501.454 236.157 501.855 236.501C502.255 236.844 502.805 237.027 503.48 237.027C504.155 237.027 504.693 236.855 505.105 236.501C505.517 236.146 505.712 235.711 505.712 235.196C505.712 234.681 505.517 234.223 505.105 233.88C504.705 233.536 504.167 233.364 503.48 233.364C502.793 233.364 502.267 233.536 501.855 233.88ZM508.333 238.034V229.129H509.283V232.735H512.065V229.038H513.06V238.229H512.065V233.742H509.283V238.034H508.333Z" fill="black"/>
<path d="M528.479 236.628H514.663V235.712H528.479V236.628ZM518.612 233.48C517.49 233.972 516.357 234.235 515.224 234.258V233.308C516.14 233.285 517.067 233.068 518.005 232.679C518.944 232.29 519.757 231.74 520.432 231.053C521.107 230.367 521.542 229.588 521.714 228.707L522.721 228.902C522.584 229.565 522.332 230.161 521.977 230.699L527.929 233.446L527.529 234.281L521.382 231.454C520.649 232.313 519.711 232.976 518.589 233.48H518.612ZM527.437 237.944V243.415H515.728V237.944H516.758V239.684H526.43V237.944H527.437ZM526.418 240.577H516.746V242.5H526.418V240.577Z" fill="black"/>
<path d="M537.989 241.488C538.642 241.351 539.191 241.179 539.626 240.962V241.969C539.203 242.198 538.665 242.381 538.012 242.507C537.36 242.633 536.696 242.702 536.021 242.702H530.332V229.561H531.385V241.694H536.021C536.685 241.694 537.337 241.626 537.989 241.5V241.488ZM541.171 243.697V229.023H542.225V243.674L541.171 243.697Z" fill="black"/>
<path d="M552.435 241.515C553.099 241.378 553.649 241.206 554.061 240.989V241.996C553.637 242.214 553.099 242.385 552.435 242.511C551.771 242.637 551.096 242.706 550.421 242.706H544.961V229.657H552.973V230.653H545.991V241.721H550.455C551.108 241.721 551.76 241.653 552.424 241.527L552.435 241.515ZM556.579 236.284V243.69H555.549V229.039H556.579V235.277H558.696V236.284H556.579Z" fill="black"/>
<path d="M564.591 237.471C564.27 237.288 563.915 237.013 563.526 236.659C563.183 236.35 562.897 236.132 562.656 235.983C562.416 235.834 562.153 235.766 561.866 235.766C561.397 235.766 561.019 235.937 560.733 236.281C560.447 236.624 560.287 237.082 560.264 237.654H559.543C559.577 236.807 559.806 236.132 560.218 235.663C560.63 235.182 561.168 234.953 561.809 234.953C562.244 234.953 562.622 235.045 562.931 235.239C563.251 235.434 563.595 235.709 563.984 236.063C564.35 236.384 564.648 236.613 564.865 236.75C565.083 236.888 565.346 236.956 565.632 236.956C566.113 236.956 566.502 236.785 566.777 236.441C567.051 236.098 567.212 235.628 567.234 235.045H567.956C567.921 235.892 567.692 236.556 567.28 237.036C566.868 237.517 566.342 237.746 565.689 237.746C565.266 237.746 564.9 237.654 564.579 237.471H564.591Z" fill="black"/>
<path d="M97.189 28.4805H45.8418C43.1931 28.4805 41.0459 30.6278 41.0459 33.2766V84.626C41.0459 87.2748 43.1931 89.4221 45.8418 89.4221H97.189C99.8377 89.4221 101.985 87.2748 101.985 84.626V33.2766C101.985 30.6278 99.8377 28.4805 97.189 28.4805Z" fill="#4AB65B"/>
<path d="M76.792 59.9921L65.8038 44.2188H56.7041V73.6823H66.2387V57.9203L77.2155 73.6823H86.3152V44.2188H76.792V59.9921Z" fill="white"/>
<path d="M123.217 52.7368V53.7555C122.805 53.9501 122.29 54.0989 121.672 54.2019C121.065 54.3049 120.413 54.3621 119.738 54.3621H116.304V40.9816H117.322V53.3434H119.898C121.248 53.3434 122.359 53.1374 123.217 52.7368ZM125.85 40.4666V55.0947H124.82V47.174H120.642V46.1438H124.82V40.4666H125.85ZM129.215 55.3465H128.185V40.375H129.215V55.3465Z" fill="black"/>
<path d="M138.338 41.5539C138.967 42.0576 139.459 42.8245 139.814 43.8546C140.169 44.8848 140.352 46.1553 140.352 47.6776C140.352 49.1999 140.169 50.4705 139.814 51.5006C139.459 52.5308 138.967 53.2976 138.338 53.8013C137.708 54.3049 136.975 54.5567 136.14 54.5567C134.869 54.5567 133.851 53.973 133.084 52.8055C132.317 51.638 131.928 49.9325 131.928 47.6662C131.928 45.3998 132.317 43.6944 133.084 42.5269C133.851 41.3594 134.869 40.7871 136.14 40.7871C136.975 40.7871 137.708 41.0389 138.338 41.5425V41.5539ZM133.839 43.3166C133.255 44.301 132.958 45.7547 132.958 47.6891C132.958 49.6234 133.244 51.0657 133.839 52.0615C134.423 53.0458 135.19 53.538 136.14 53.538C137.09 53.538 137.834 53.0458 138.418 52.0615C138.99 51.0771 139.288 49.612 139.288 47.6891C139.288 45.7661 139.001 44.3125 138.418 43.3166C137.834 42.3323 137.078 41.8401 136.14 41.8401C135.201 41.8401 134.423 42.3323 133.839 43.3166ZM143.225 55.3465V40.375H144.301V55.3465H143.225Z" fill="black"/>
<path d="M159.834 55.3462H158.758V47.8605H155.21V54.3504H147.483V40.8555H148.536V46.4183H154.156V40.8555H155.21V46.8189H158.758V40.3633H159.834V55.3348V55.3462ZM154.168 47.4255H148.548V53.3317H154.168V47.4255Z" fill="black"/>
<path d="M174.289 41.016V45.0565C174.289 46.9565 173.957 48.6047 173.305 49.9897C172.653 51.3861 171.737 52.4506 170.569 53.1832C169.402 53.9272 168.063 54.2935 166.552 54.2935V53.2633C168.211 53.2633 169.608 52.7711 170.741 51.7868C171.874 50.8024 172.618 49.406 172.984 47.6089H166.552V46.5902H173.145C173.202 46.2812 173.225 45.7776 173.225 45.0908V42.0347H166.552V41.016H174.289ZM178.616 47.7806V55.3465H177.563V40.375H178.616V46.7505H180.779V47.7806H178.616Z" fill="black"/>
<path d="M189.456 52.5422V53.5724C188.506 54.0989 186.8 54.3507 184.351 54.3507H181.329V53.3549H182.874V42.0003H181.432V41.0045H188.803V42.0003H187.327V53.1717C188.14 53.0573 188.861 52.8398 189.467 52.5308L189.456 52.5422ZM186.342 53.2748V42.0003H183.847V53.3549C184.98 53.3549 185.805 53.332 186.342 53.2748ZM191.688 40.4666V55.0947H190.669V47.7806H188.597V46.7505H190.669V40.4666H191.688ZM194.858 55.3465H193.84V40.375H194.858V55.3465Z" fill="black"/>
<path d="M201.417 44.1412C201.245 43.9809 201.165 43.7749 201.165 43.5231C201.165 43.2941 201.245 43.0881 201.417 42.9279C201.589 42.7676 201.783 42.6875 202.023 42.6875C202.264 42.6875 202.458 42.7676 202.63 42.9279C202.802 43.0881 202.882 43.2941 202.882 43.5231C202.882 43.7749 202.802 43.9809 202.63 44.1412C202.458 44.3014 202.264 44.3815 202.023 44.3815C201.783 44.3815 201.589 44.3014 201.417 44.1412ZM201.417 52.783C201.245 52.6227 201.165 52.4167 201.165 52.1649C201.165 51.9359 201.245 51.7299 201.417 51.5697C201.589 51.4094 201.783 51.3293 202.023 51.3293C202.264 51.3293 202.458 51.4094 202.63 51.5697C202.802 51.7299 202.882 51.9359 202.882 52.1649C202.882 52.4167 202.802 52.6113 202.63 52.783C202.458 52.9432 202.264 53.0233 202.023 53.0233C201.783 53.0233 201.589 52.9432 201.417 52.783Z" fill="black"/>
<path d="M218.872 52.1061V55.6887H217.819V52.1061H213.31V55.6887H212.257V52.1061H208.514V51.1103H222.627V52.1061H218.861H218.872ZM209.052 43.1552V42.1594H215.004V39.9961H216.08V42.1594H222.066V43.1552H209.063H209.052ZM211.41 45.0896C212.474 44.6318 213.859 44.4028 215.576 44.4028C217.293 44.4028 218.678 44.6318 219.754 45.0896C220.818 45.5475 221.356 46.2228 221.356 47.1156C221.356 48.0084 220.818 48.6837 219.754 49.1415C218.689 49.5994 217.293 49.8283 215.576 49.8283C213.859 49.8283 212.474 49.5994 211.41 49.1415C210.345 48.6837 209.819 48.0084 209.819 47.1156C209.819 46.2228 210.345 45.536 211.41 45.0896ZM218.953 45.7878C218.083 45.4902 216.961 45.3414 215.564 45.3414C214.168 45.3414 213.035 45.4902 212.176 45.7878C211.318 46.0854 210.894 46.5318 210.894 47.1156C210.894 47.6993 211.329 48.1343 212.176 48.4319C213.035 48.7295 214.168 48.8668 215.564 48.8668C216.961 48.8668 218.094 48.718 218.953 48.4319C219.811 48.1457 220.234 47.6993 220.234 47.1156C220.234 46.5318 219.8 46.0854 218.941 45.7878H218.953Z" fill="black"/>
<path d="M229.678 53.1946C230.25 53.0802 230.776 52.9428 231.223 52.7597V53.7555C230.799 53.9386 230.273 54.0874 229.655 54.1904C229.037 54.2935 228.407 54.3507 227.755 54.3507H224.504V41.016H230.628V42.0118H225.523V53.3663H227.926C228.521 53.3663 229.117 53.3091 229.689 53.2061L229.678 53.1946ZM237.415 55.3465H236.385V47.7005H233.478V55.0947H232.459V40.4666H233.478V46.6932H236.385V40.375H237.415V55.3465Z" fill="black"/>
<path d="M245.645 45.0677L245.278 45.7087L242.76 44.2665L242.783 47.1166H242.062V44.2894L239.567 45.7087L239.212 45.0677L241.684 43.6598L239.212 42.252L239.567 41.611L242.062 43.0532V40.2031H242.783L242.76 43.0532L245.278 41.611L245.645 42.252L243.149 43.6598L245.645 45.0677Z" fill="black"/>
<path d="M252.993 45.0677L252.627 45.7087L250.109 44.2665L250.132 47.1166H249.411V44.2894L246.915 45.7087L246.561 45.0677L249.033 43.6598L246.561 42.252L246.915 41.611L249.411 43.0532V40.2031H250.132L250.109 43.0532L252.627 41.611L252.993 42.252L250.498 43.6598L252.993 45.0677Z" fill="black"/>
<path d="M260.341 45.0677L259.975 45.7087L257.456 44.2665L257.479 47.1166H256.758V44.2894L254.263 45.7087L253.908 45.0677L256.381 43.6598L253.908 42.252L254.263 41.611L256.758 43.0532V40.2031H257.479L257.456 43.0532L259.975 41.611L260.341 42.252L257.846 43.6598L260.341 45.0677Z" fill="black"/>
<path d="M269.784 41.016V45.0565C269.784 46.9565 269.452 48.6047 268.8 49.9897C268.148 51.3861 267.232 52.4506 266.064 53.1832C264.897 53.9272 263.558 54.2935 262.047 54.2935V53.2633C263.707 53.2633 265.103 52.7711 266.236 51.7868C267.369 50.8024 268.113 49.406 268.48 47.6089H262.047V46.5902H268.64C268.697 46.2812 268.72 45.7776 268.72 45.0908V42.0347H262.047V41.016H269.784ZM274.111 47.7806V55.3465H273.058V40.375H274.111V46.7505H276.274V47.7806H274.111Z" fill="black"/>
<path d="M284.95 52.5422V53.5724C284 54.0989 282.294 54.3507 279.845 54.3507H276.823V53.3549H278.368V42.0003H276.926V41.0045H284.298V42.0003H282.821V53.1717C283.634 53.0573 284.355 52.8398 284.961 52.5308L284.95 52.5422ZM281.837 53.2748V42.0003H279.341V53.3549C280.475 53.3549 281.299 53.332 281.837 53.2748ZM287.182 40.4666V55.0947H286.163V47.7806H284.092V46.7505H286.163V40.4666H287.182ZM290.353 55.3465H289.334V40.375H290.353V55.3465Z" fill="black"/>
<path d="M126.457 78.5462H124.683V76.4515C124.282 77.1497 123.755 77.6877 123.103 78.0769C122.451 78.4546 121.695 78.6492 120.86 78.6492C119.898 78.6492 119.028 78.4203 118.25 77.951C117.472 77.4817 116.853 76.8293 116.407 75.9822C115.961 75.1352 115.743 74.1738 115.743 73.0864C115.743 71.999 115.961 71.0375 116.407 70.1905C116.853 69.3435 117.472 68.6911 118.25 68.2218C119.028 67.7525 119.898 67.5236 120.86 67.5236C121.672 67.5236 122.405 67.7067 123.046 68.0844C123.698 68.4507 124.213 68.9887 124.602 69.664V63.2656H126.457V78.5347V78.5462ZM122.92 76.5431C123.458 76.2226 123.881 75.7648 124.19 75.1581C124.499 74.5515 124.648 73.8762 124.648 73.0864C124.648 72.2966 124.499 71.6327 124.19 71.0375C123.881 70.4423 123.458 69.9845 122.92 69.6525C122.382 69.3321 121.787 69.1718 121.134 69.1718C120.482 69.1718 119.864 69.3321 119.326 69.6525C118.788 69.973 118.376 70.4309 118.067 71.0375C117.758 71.6442 117.609 72.3195 117.609 73.0864C117.609 73.8533 117.758 74.5629 118.067 75.1581C118.376 75.7533 118.788 76.2112 119.326 76.5431C119.864 76.875 120.47 77.0238 121.134 77.0238C121.798 77.0238 122.393 76.8636 122.92 76.5431Z" fill="black"/>
<path d="M138.91 73.6016H130.498C130.578 74.6432 130.967 75.4787 131.654 76.1083C132.34 76.7378 133.21 77.0583 134.263 77.0583C135.511 77.0583 136.518 76.6119 137.262 75.7191L138.269 76.8752C137.8 77.4475 137.228 77.8939 136.53 78.1915C135.831 78.4891 135.065 78.6493 134.218 78.6493C133.13 78.6493 132.169 78.4089 131.31 77.9397C130.463 77.4704 129.799 76.8065 129.33 75.9595C128.861 75.1125 128.632 74.1624 128.632 73.0865C128.632 72.0106 128.861 71.0834 129.307 70.2364C129.765 69.3894 130.383 68.7256 131.173 68.2563C131.963 67.7755 132.844 67.5352 133.817 67.5352C134.79 67.5352 135.648 67.7641 136.427 68.2219C137.205 68.6798 137.823 69.3322 138.269 70.1792C138.716 71.0262 138.933 71.9877 138.933 73.0751C138.933 73.2124 138.922 73.3956 138.888 73.613L138.91 73.6016ZM131.551 69.9846C130.933 70.6027 130.589 71.4039 130.498 72.3883H137.205C137.113 71.4039 136.747 70.6027 136.129 69.9846C135.511 69.3665 134.756 69.0575 133.84 69.0575C132.924 69.0575 132.157 69.3665 131.539 69.9846H131.551Z" fill="black"/>
<path d="M147.391 68.4622L146.75 69.5495L144.255 68.0844L144.278 70.8887H143.042L143.065 68.0844L140.569 69.5495L139.951 68.4622L142.424 67.0772L139.951 65.6922L140.569 64.6048L143.065 66.0699L143.042 63.2656H144.278L144.255 66.0699L146.75 64.6048L147.391 65.6922L144.919 67.0772L147.391 68.4622Z" fill="black"/>
<path d="M155.622 68.4622L154.981 69.5495L152.485 68.0844L152.508 70.8887H151.272L151.295 68.0844L148.8 69.5495L148.182 68.4622L150.654 67.0772L148.182 65.6922L148.8 64.6048L151.295 66.0699L151.272 63.2656H152.508L152.485 66.0699L154.981 64.6048L155.622 65.6922L153.149 67.0772L155.622 68.4622Z" fill="black"/>
<path d="M163.851 68.4622L163.21 69.5495L160.715 68.0844L160.738 70.8887H159.502L159.524 68.0844L157.029 69.5495L156.411 68.4622L158.883 67.0772L156.411 65.6922L157.029 64.6048L159.524 66.0699L159.502 63.2656H160.738L160.715 66.0699L163.21 64.6048L163.851 65.6922L161.379 67.0772L163.851 68.4622Z" fill="black"/>
<path d="M174.931 73.6016H166.518C166.598 74.6432 166.988 75.4787 167.674 76.1083C168.361 76.7378 169.231 77.0583 170.284 77.0583C171.532 77.0583 172.539 76.6119 173.283 75.7191L174.29 76.8752C173.821 77.4475 173.249 77.8939 172.55 78.1915C171.852 78.4891 171.085 78.6493 170.238 78.6493C169.151 78.6493 168.189 78.4089 167.342 77.9397C166.495 77.4704 165.832 76.8065 165.362 75.9595C164.893 75.1125 164.664 74.1624 164.664 73.0865C164.664 72.0106 164.893 71.0834 165.339 70.2364C165.786 69.3894 166.415 68.7256 167.205 68.2563C167.995 67.7755 168.876 67.5352 169.849 67.5352C170.822 67.5352 171.681 67.7641 172.459 68.2219C173.237 68.6798 173.855 69.3322 174.302 70.1792C174.748 71.0262 174.966 71.9877 174.966 73.0751C174.966 73.2124 174.954 73.3956 174.92 73.613L174.931 73.6016ZM167.56 69.9846C166.942 70.6027 166.587 71.4039 166.507 72.3883H173.214C173.123 71.4039 172.756 70.6027 172.15 69.9846C171.532 69.3665 170.765 69.0575 169.861 69.0575C168.956 69.0575 168.178 69.3665 167.56 69.9846Z" fill="black"/>
<path d="M179.716 81.9672C179.12 82.4136 178.411 82.6311 177.587 82.6311C177.083 82.6311 176.591 82.551 176.133 82.3793C175.675 82.2191 175.297 81.9787 174.988 81.6582L175.732 80.2389C176.224 80.7768 176.831 81.0401 177.541 81.0401C178.102 81.0401 178.548 80.857 178.857 80.4792C179.178 80.113 179.532 79.4605 179.922 78.5449L175.332 67.6367H177.243L180.872 76.3472L184.477 67.6367H186.286L181.261 79.6551C180.826 80.7425 180.299 81.5094 179.704 81.9443L179.716 81.9672Z" fill="black"/>
<path d="M193.897 68.4622L193.256 69.5495L190.761 68.0844L190.784 70.8887H189.547L189.57 68.0844L187.075 69.5495L186.457 68.4622L188.929 67.0772L186.457 65.6922L187.075 64.6048L189.57 66.0699L189.547 63.2656H190.784L190.761 66.0699L193.256 64.6048L193.897 65.6922L191.425 67.0772L193.897 68.4622Z" fill="black"/>
<path d="M202.127 68.4622L201.486 69.5495L198.991 68.0844L199.014 70.8887H197.778L197.801 68.0844L195.306 69.5495L194.688 68.4622L197.16 67.0772L194.688 65.6922L195.306 64.6048L197.801 66.0699L197.778 63.2656H199.014L198.991 66.0699L201.486 64.6048L202.127 65.6922L199.655 67.0772L202.127 68.4622Z" fill="black"/>
<path d="M212.588 74.9379V78.5435H210.631V74.9379H202.607V73.5758L209.99 64.1328H212.131L205.045 73.2668H210.665V70.0962H212.577V73.2668H215.313V74.9379H212.577H212.588Z" fill="black"/>
<path d="M222.696 78.5435H220.681V65.7811H217.431V64.1328H222.696V78.5435Z" fill="black"/>
<path d="M237.118 69.2178C237.93 69.0919 238.571 68.9202 239.029 68.7027V70.3853C238.571 70.6028 237.93 70.7745 237.106 70.9004C236.271 71.0263 235.355 71.0835 234.336 71.0835H228.533V63.6893H230.399V69.3895H234.394C235.401 69.3895 236.305 69.3322 237.106 69.2063L237.118 69.2178ZM229.128 79.0614V72.7661H241.948V79.0614H229.128ZM240.082 74.4258H230.983V77.3903H240.082V74.4258ZM240.082 71.8389V63.4375H241.959V71.8389H240.082Z" fill="black"/>
<path d="M256.691 76.3819V79.6097H254.802V76.3819H248.232V74.6306H263.25V76.3819H256.68H256.691ZM248.782 66.6298V64.9472H254.768V63.0586H256.657V64.9472H262.689V66.6298H248.782ZM251.208 68.3467C252.353 67.8431 253.864 67.5912 255.741 67.5912C257.618 67.5912 259.141 67.8431 260.285 68.3467C261.43 68.8503 262.014 69.5943 262.014 70.5787C262.014 71.563 261.441 72.307 260.285 72.8107C259.129 73.3143 257.618 73.5661 255.741 73.5661C253.864 73.5661 252.353 73.3143 251.208 72.8107C250.064 72.307 249.492 71.563 249.492 70.5787C249.492 69.5943 250.064 68.8503 251.208 68.3467ZM258.912 69.5371C258.099 69.2967 257.046 69.1823 255.741 69.1823C254.436 69.1823 253.383 69.3082 252.582 69.5371C251.781 69.7775 251.38 70.1208 251.38 70.5787C251.38 71.0365 251.781 71.3914 252.571 71.6317C253.36 71.8606 254.425 71.9866 255.741 71.9866C257.057 71.9866 258.122 71.8721 258.923 71.6317C259.724 71.3914 260.125 71.048 260.125 70.5787C260.125 70.1094 259.724 69.7775 258.912 69.5371Z" fill="black"/>
<path d="M272.589 73.3498C271.914 74.9179 270.941 76.1312 269.682 76.9897C268.423 77.8481 266.935 78.2716 265.241 78.2716V76.4174C266.569 76.4174 267.725 76.074 268.698 75.3758C269.671 74.6776 270.415 73.6932 270.93 72.4112C271.445 71.1293 271.697 69.6184 271.697 67.8786V65.7611H265.229V63.9869H273.608V67.8328C273.608 69.9274 273.265 71.7703 272.589 73.3384V73.3498ZM276.756 79.2446V63.4375H278.633V79.2446H276.756Z" fill="black"/>
<path d="M49.7905 121.667V128.329H48.5314V121.667H40.9541V120.385H57.5853V121.667H49.8019H49.7905ZM42.1445 112.018V110.805H56.2804V118.691H55.0214V112.029H42.1559L42.1445 112.018Z" fill="#17544F"/>
<path d="M66.7532 111.021V126.737H59.7939V111.021H66.7532ZM65.5284 125.546V112.223H60.95V125.546H65.5284ZM74.9944 127.916H73.7811V118.93H70.3587V127.618H69.1683V110.38H70.3587V117.706H73.7811V110.266H74.9944V127.916Z" fill="#17544F"/>
<path d="M94.0866 124.105V128.329H92.8504V124.105H87.5394V128.329H86.3032V124.105H81.8965V122.938H98.5277V124.105H94.098H94.0866ZM82.5375 113.552V112.385H89.5425V109.832H90.8016V112.385H97.8524V113.552H82.526H82.5375ZM85.296 115.83C86.5436 115.292 88.1804 115.029 90.2064 115.029C92.2323 115.029 93.8691 115.292 95.1167 115.83C96.3758 116.368 97.0053 117.169 97.0053 118.222C97.0053 119.275 96.3758 120.076 95.1167 120.614C93.8577 121.152 92.2209 121.415 90.2064 121.415C88.1918 121.415 86.5436 121.152 85.296 120.614C84.0484 120.076 83.4188 119.287 83.4188 118.222C83.4188 117.158 84.0369 116.368 85.296 115.83ZM94.1896 116.654C93.1709 116.299 91.8431 116.127 90.2064 116.127C88.5696 116.127 87.2189 116.299 86.2117 116.654C85.2044 117.009 84.6893 117.524 84.6893 118.222C84.6893 118.92 85.193 119.424 86.2117 119.779C87.2304 120.134 88.5581 120.294 90.2064 120.294C91.8546 120.294 93.1938 120.122 94.201 119.779C95.2083 119.435 95.7234 118.92 95.7234 118.222C95.7234 117.524 95.2083 117.009 94.201 116.654H94.1896Z" fill="#17544F"/>
<path d="M106.826 125.374C107.502 125.249 108.12 125.077 108.658 124.859V126.027C108.154 126.244 107.536 126.416 106.803 126.542C106.071 126.668 105.327 126.737 104.56 126.737H100.726V111.021H107.937V112.189H101.916V125.558H104.743C105.453 125.558 106.14 125.489 106.826 125.363V125.374ZM115.937 127.916H114.724V118.907H111.302V127.618H110.111V110.38H111.302V117.706H114.724V110.266H115.937V127.916Z" fill="#17544F"/>
<path d="M134.915 121.414H118.284V120.27H125.976V117.786H119.291V116.664H122.485V111.696H119.475V110.598H133.725V111.696H130.715V116.664H133.885V117.786H127.224V120.27H134.915V121.414ZM134.023 126.462V127.584H119.543V122.971H120.802V126.462H134.011H134.023ZM129.478 116.653V111.685H123.733V116.653H129.478Z" fill="#17544F"/>
<path d="M141.863 114.717C141.668 114.523 141.565 114.282 141.565 113.996C141.565 113.721 141.668 113.492 141.863 113.298C142.058 113.103 142.298 113.012 142.573 113.012C142.847 113.012 143.088 113.103 143.282 113.298C143.477 113.492 143.58 113.721 143.58 113.996C143.58 114.282 143.477 114.523 143.282 114.717C143.088 114.912 142.847 115.003 142.573 115.003C142.298 115.003 142.058 114.912 141.863 114.717ZM141.863 124.893C141.668 124.698 141.565 124.458 141.565 124.172C141.565 123.897 141.668 123.668 141.863 123.473C142.058 123.279 142.298 123.187 142.573 123.187C142.847 123.187 143.088 123.279 143.282 123.473C143.477 123.668 143.58 123.897 143.58 124.172C143.58 124.458 143.477 124.71 143.282 124.893C143.088 125.076 142.847 125.179 142.573 125.179C142.298 125.179 142.058 125.087 141.863 124.893Z" fill="#17544F"/>
<path d="M171.406 119.297H154.774V118.221H171.406V119.297ZM155.782 116.332V115.279H158.975V111.651H155.965V110.598H170.215V111.651H167.205V115.279H170.375V116.332H155.782ZM170.513 126.599V127.584H156.011V123.864H168.968V122.112H155.965V121.128H170.192V124.802H157.212V126.599H170.513ZM165.957 115.279V111.651H160.211V115.279H165.957Z" fill="#17544F"/>
<path d="M182.393 111.902H173.82V110.826H183.607V115.737H175.102V118.518H179.532C180.86 118.518 182.062 118.438 183.103 118.289C184.156 118.141 184.969 117.923 185.553 117.648V118.747C184.98 119.022 184.168 119.239 183.115 119.388C182.062 119.537 180.837 119.617 179.463 119.617H173.855V114.672H182.382V111.891L182.393 111.902ZM188.357 120.979V127.572H174.496V120.979H175.732V123.12H187.109V120.979H188.345H188.357ZM187.121 124.173H175.743V126.473H187.121V124.173ZM188.357 120.144H187.121V110.266H188.357V120.144Z" fill="#17544F"/>
<path d="M201.199 119.01C202.252 119.834 202.779 120.99 202.779 122.49C202.779 123.394 202.573 124.207 202.149 124.928C201.726 125.649 201.096 126.21 200.238 126.633C199.391 127.045 198.349 127.251 197.125 127.251C195.9 127.251 194.87 127.057 193.84 126.668C192.809 126.279 192.02 125.763 191.447 125.122L192.065 124.184C192.569 124.768 193.267 125.237 194.171 125.615C195.076 125.992 196.049 126.164 197.102 126.164C198.521 126.164 199.62 125.832 200.375 125.168C201.131 124.504 201.508 123.623 201.508 122.536C201.508 121.345 201.073 120.441 200.215 119.823C199.357 119.205 197.891 118.907 195.843 118.907H192.535L193.382 111.078H201.932V112.154H194.446L193.828 117.808H196.129C198.475 117.808 200.169 118.22 201.222 119.033L201.199 119.01Z" fill="#17544F"/>
<path d="M226.129 121.3H209.498V120.201H226.129V121.3ZM224.87 123.314V127.813H223.634V124.413H210.585V123.314H224.882H224.87ZM210.837 118.175V110.598H225.019V111.605H212.085V113.906H224.721V114.844H212.085V117.168H225.133V118.175H210.837Z" fill="#17544F"/>
<path d="M237.323 111.021V114.993C237.323 117.328 236.968 119.365 236.259 121.128C235.549 122.891 234.519 124.253 233.18 125.214C231.841 126.176 230.238 126.656 228.384 126.656V125.42C229.975 125.42 231.348 124.997 232.504 124.15C233.66 123.303 234.542 122.101 235.16 120.544C235.778 118.988 236.076 117.168 236.076 115.062V112.211H228.384V111.021H237.323ZM242.611 118.999V127.916H241.375V110.266H242.611V117.774H245.164V118.988H242.611V118.999Z" fill="#17544F"/>
<path d="M267.083 126.957H250.452V125.698H267.083V126.957ZM251.368 121.142V119.929H254.561V112.42H251.528V111.207H265.985V112.42H262.974V119.929H266.168V121.142H251.368ZM261.727 119.918V112.409H255.797V119.918H261.727Z" fill="#17544F"/>
<path d="M285.271 126.957H268.64V125.767H276.263V121.726H269.876V115.797H282.879V112.214H269.876V111.047H284.126V116.953H271.101V120.536H284.378V121.726H277.533V125.767H285.271V126.957Z" fill="#17544F"/>
<path d="M303.471 126.957H286.84V125.743H294.509V120.776H288.053V111.035H302.258V120.776H295.756V125.743H303.482V126.957H303.471ZM301.01 119.551V112.248H289.266V119.551H301.01Z" fill="#17544F"/>
<path d="M308.197 119.457C307.305 120.235 306.274 120.739 305.13 120.945V119.709C306.217 119.48 307.156 118.907 307.957 118.015C308.758 117.11 309.353 116 309.777 114.672C310.189 113.345 310.407 111.948 310.418 110.483L311.654 110.552C311.654 112.28 311.402 113.86 310.899 115.279L316.347 119.972L315.523 120.933L310.395 116.504C309.823 117.694 309.102 118.69 308.197 119.468V119.457ZM321.006 127.572H306.664V122.238H307.9V126.37H320.994V127.561L321.006 127.572ZM315.26 117.316V116.195H319.346V113.551H315.26V112.429H319.346V110.266H320.559V123.406H319.346V117.316H315.26Z" fill="#17544F"/>
<path d="M336.63 121.667V128.329H335.371V121.667H327.794V120.385H344.425V121.667H336.642H336.63ZM328.973 112.018V110.805H343.109V118.691H341.85V112.029H328.984L328.973 112.018Z" fill="#17544F"/>
<path d="M353.581 111.021V126.737H346.622V111.021H353.581ZM352.368 125.546V112.223H347.79V125.546H352.368ZM361.834 127.916H360.621V118.93H357.198V127.618H356.008V110.38H357.198V117.706H360.621V110.266H361.834V127.916Z" fill="#17544F"/>
<path d="M435.512 288.008H40.1641V289.152H435.512V288.008Z" fill="#CBCBCB"/>
<path d="M466.863 296.386H451.091V295.23H457.386V287.252H458.588V295.23H466.863V296.386ZM452.144 282.422V281.266H465.719V292.311H464.517V282.422H452.144Z" fill="#989898"/>
<path d="M474.613 287.148C474.04 288.133 473.251 288.888 472.255 289.403C471.248 289.918 470.103 290.181 468.81 290.181V289.071C469.886 289.06 470.836 288.842 471.671 288.419C472.507 287.995 473.159 287.377 473.617 286.564C474.086 285.752 474.315 284.79 474.315 283.669V282.192H468.81V281.105H475.471V283.634C475.471 284.996 475.185 286.175 474.613 287.16V287.148ZM483.38 291.99V297.221H482.202V293.077H469.702V291.99H483.38ZM483.38 290.903H482.224V285.832H478.871V290.731H477.738V280.693H478.871V284.676H482.224V280.578H483.38V290.903Z" fill="#989898"/>
<path d="M495.319 287.171C496.303 287.022 497.082 286.828 497.654 286.564V287.698C497.116 287.961 496.338 288.167 495.319 288.304C494.3 288.453 493.144 288.522 491.851 288.522H486.448V280.99H487.627V287.4H491.942C493.201 287.4 494.335 287.331 495.319 287.183V287.171ZM487.055 296.98V290.731H500.195V296.98H487.055ZM499.016 291.841H488.234V295.893H499.016V291.841ZM499.016 289.483V280.578H500.195V289.483H499.016Z" fill="#989898"/>
<path d="M512.419 295.977C511.4 296.126 510.221 296.194 508.893 296.194H502.861V295.038H509.008C510.301 295.038 511.446 294.97 512.453 294.821C513.46 294.672 514.227 294.466 514.788 294.191V295.347C514.239 295.622 513.449 295.828 512.43 295.977H512.419ZM510.771 281.726C511.503 282.173 512.075 282.779 512.488 283.569C512.9 284.359 513.106 285.24 513.106 286.248C513.106 287.255 512.9 288.125 512.488 288.903C512.075 289.693 511.503 290.299 510.771 290.746C510.038 291.192 509.202 291.41 508.275 291.41C507.348 291.41 506.513 291.192 505.78 290.746C505.048 290.299 504.475 289.693 504.063 288.903C503.651 288.125 503.445 287.232 503.445 286.248C503.445 285.263 503.651 284.348 504.063 283.569C504.475 282.779 505.048 282.173 505.78 281.726C506.513 281.28 507.348 281.062 508.275 281.062C509.202 281.062 510.038 281.28 510.771 281.726ZM506.364 282.699C505.814 283.054 505.379 283.546 505.07 284.164C504.761 284.782 504.601 285.469 504.601 286.248C504.601 287.026 504.761 287.69 505.07 288.308C505.379 288.926 505.814 289.407 506.364 289.75C506.913 290.093 507.554 290.277 508.275 290.277C508.996 290.277 509.649 290.105 510.198 289.75C510.759 289.407 511.194 288.915 511.492 288.308C511.801 287.69 511.95 287.003 511.95 286.248C511.95 285.492 511.801 284.782 511.492 284.164C511.183 283.546 510.759 283.066 510.198 282.699C509.637 282.344 508.996 282.161 508.275 282.161C507.554 282.161 506.913 282.344 506.364 282.699ZM516.333 297.305V280.57H517.489V297.305H516.333Z" fill="#989898"/>
<path d="M527.745 287.263C526.841 287.858 525.822 288.27 524.678 288.487V287.354C525.742 287.125 526.658 286.69 527.459 286.049C528.26 285.408 528.855 284.63 529.268 283.703C529.68 282.776 529.897 281.803 529.908 280.773L531.065 280.841C531.065 282.02 530.858 283.085 530.458 284.046L535.837 287.228L535.254 288.213L529.943 285.031C529.393 285.935 528.661 286.679 527.768 287.274L527.745 287.263ZM539.512 296.98H525.902V292.974H537.818V290.925H525.857V289.907H539.019V293.913H527.081V295.985H539.523V296.992L539.512 296.98ZM537.84 288.808V280.578H539.019V288.808H537.84Z" fill="#989898"/>
<path d="M546.174 288.01L550.134 295.393L549.173 295.977L545.865 289.727C545.167 293.493 543.839 295.645 541.882 296.194V294.97C543.026 294.557 543.885 293.253 544.457 291.043C545.029 288.834 545.316 285.961 545.327 282.413H542.099V281.28H549.573V282.413H546.483C546.449 284.634 546.357 286.499 546.174 287.987V288.01ZM552.515 280.685V297.018H551.382V288.308H548.612V287.152H551.382V280.685H552.515ZM556.704 297.305H555.548V280.57H556.704V297.305Z" fill="#989898"/>
<path d="M571.71 293.755V297.703H570.508V293.755H563.229V292.621H579.001V293.755H571.699H571.71ZM563.847 283.693V282.583H570.485V280.168H571.687V282.583H578.372V283.693H563.847ZM566.468 285.857C567.658 285.342 569.203 285.078 571.115 285.078C573.026 285.078 574.583 285.342 575.773 285.857C576.964 286.372 577.559 287.139 577.559 288.157C577.559 289.176 576.964 289.92 575.773 290.435C574.583 290.95 573.026 291.213 571.115 291.213C569.203 291.213 567.647 290.962 566.468 290.435C565.289 289.92 564.694 289.165 564.694 288.157C564.694 287.15 565.289 286.372 566.468 285.857ZM574.904 286.669C573.942 286.326 572.683 286.154 571.126 286.154C569.57 286.154 568.311 286.326 567.349 286.669C566.388 287.013 565.895 287.505 565.895 288.157C565.895 288.81 566.376 289.302 567.338 289.634C568.299 289.966 569.558 290.138 571.126 290.138C572.694 290.138 573.942 289.966 574.904 289.634C575.865 289.302 576.357 288.81 576.357 288.157C576.357 287.505 575.876 287.001 574.904 286.669Z" fill="#989898"/>
<path d="M588.913 290.883C588.215 292.554 587.219 293.848 585.903 294.763C584.598 295.679 583.064 296.137 581.301 296.137V294.958C582.812 294.958 584.129 294.557 585.25 293.756C586.372 292.955 587.242 291.822 587.837 290.334C588.432 288.846 588.741 287.117 588.741 285.126V282.425H581.29V281.291H589.943V285.057C589.943 287.266 589.6 289.201 588.902 290.872L588.913 290.883ZM593.904 297.305V280.57H595.083V297.305H593.904Z" fill="#989898"/>
<path d="M607.971 288.159L613.202 295.439L612.264 296.16L607.605 289.601C607.079 291.559 606.369 293.115 605.465 294.26C604.56 295.404 603.496 296.057 602.26 296.194V294.992C603.381 294.786 604.32 294.031 605.087 292.726C605.854 291.421 606.426 289.75 606.804 287.713C607.182 285.675 607.376 283.455 607.388 281.028L608.589 281.051C608.555 283.798 608.349 286.167 607.96 288.148L607.971 288.159ZM616.19 288.857V297.305H615.011V280.57H616.19V287.69H618.605V288.846H616.19V288.857Z" fill="#989898"/>
<path d="M625.461 294.878C626.274 294.741 626.995 294.512 627.624 294.191V295.37C626.445 295.92 624.751 296.194 622.554 296.194H619.898V288.045H624.774V282.402H619.898V281.291H625.885V289.155H621.009V295.084H622.554C623.687 295.084 624.66 295.015 625.461 294.878ZM630.612 280.685V297.018H629.479V290.826H626.972V289.647H629.479V286.03H626.972V284.851H629.479V280.673H630.612V280.685ZM634.332 297.305H633.198V280.57H634.332V297.305Z" fill="#989898"/>
</svg>
