<svg width="677" height="334" viewBox="0 0 677 334" fill="none" xmlns="http://www.w3.org/2000/svg">
<path d="M662.514 0H13.8056C6.21983 0 0.0703125 6.14977 0.0703125 13.7359V320.264C0.0703125 327.85 6.21983 334 13.8056 334H662.514C670.1 334 676.249 327.85 676.249 320.264V13.7359C676.249 6.14977 670.1 0 662.514 0Z" fill="white"/>
<path d="M43.0169 155.501C42.2385 156.119 41.3228 156.519 40.2812 156.68V155.672C41.5747 155.443 42.6048 154.791 43.3488 153.704C44.0928 152.616 44.4934 151.185 44.5506 149.423H40.4529V148.473H49.358V149.423H45.5808C45.5465 150.464 45.4205 151.346 45.2031 152.078L49.6671 155.764L49.0719 156.588L44.8368 153.04C44.4018 154.07 43.7952 154.894 43.0169 155.523V155.501ZM53.2497 162.345H41.3457V157.916H42.3759V161.35H53.2497V162.345ZM51.8533 147.98H52.8834V158.889H51.8533V152.593H48.7285V151.62H51.8533V147.98Z" fill="black"/>
<path d="M64.6158 148.083V162.391H63.6086V155.386H61.3422C61.3193 157.572 61.0446 159.198 60.5067 160.274C59.9687 161.35 59.2018 161.876 58.1717 161.876C56.0885 161.876 55.0469 159.633 55.0469 155.146C55.0469 150.659 56.0885 148.415 58.1717 148.415C60.2549 148.415 61.2163 150.396 61.3422 154.367H63.6086V148.095H64.6158V148.083ZM59.797 159.461C60.1633 158.511 60.3464 157.069 60.3464 155.134C60.3464 153.2 60.1633 151.758 59.797 150.819C59.4307 149.869 58.8928 149.4 58.1717 149.4C56.7523 149.4 56.0312 151.311 56.0312 155.146C56.0312 158.98 56.7409 160.892 58.1717 160.892C58.8928 160.892 59.4422 160.422 59.797 159.472V159.461ZM67.9237 162.631H66.9165V147.98H67.9237V162.631Z" fill="black"/>
<path d="M69.5254 156.509V155.559H83.3408V156.509H69.5254ZM82.5854 161.396V162.369H70.567V158.1H71.62V161.396H82.5854ZM82.4137 152.56V153.533H70.6013V148.016H71.6315V152.56H82.4137Z" fill="black"/>
<path d="M100.613 162.631H99.5831V155.363H96.4698C96.4583 156.782 96.2752 157.984 95.9318 158.957C95.577 159.93 95.1077 160.662 94.4896 161.143C93.883 161.624 93.1848 161.864 92.395 161.864C91.6052 161.864 90.8955 161.612 90.2889 161.12C89.6822 160.628 89.213 159.873 88.8696 158.865C88.5262 157.858 88.3545 156.611 88.3545 155.123C88.3545 153.635 88.5262 152.387 88.8696 151.38C89.213 150.372 89.6822 149.628 90.2889 149.125C90.8955 148.633 91.5937 148.381 92.395 148.381C93.551 148.381 94.501 148.884 95.2222 149.892C95.9433 150.899 96.3668 152.376 96.4583 154.321H99.5831V147.969H100.613V162.62V162.631ZM94.5926 159.415C95.142 158.453 95.4167 157.023 95.4167 155.134C95.4167 153.245 95.142 151.815 94.5926 150.853C94.0432 149.892 93.3107 149.411 92.3835 149.411C91.4564 149.411 90.7582 149.892 90.1973 150.865C89.6479 151.826 89.3732 153.257 89.3732 155.134C89.3732 157.011 89.6479 158.442 90.1973 159.403C90.7467 160.365 91.4793 160.857 92.3835 160.857C93.2878 160.857 94.0318 160.376 94.5926 159.415Z" fill="black"/>
<path d="M115.379 162.631H114.349V155.226H110.801V161.659H103.304V148.61H110.801V154.219H114.349V147.98H115.379V162.631ZM104.357 149.629V160.651H109.771V149.629H104.357Z" fill="black"/>
<path d="M125.806 160.445C126.458 160.308 127.008 160.136 127.443 159.919V160.926C127.019 161.155 126.481 161.338 125.829 161.464C125.176 161.59 124.512 161.659 123.837 161.659H118.148V148.518H119.201V160.651H123.837C124.501 160.651 125.153 160.583 125.806 160.445ZM128.976 162.654V147.98H130.029V162.631L128.976 162.654Z" fill="black"/>
<path d="M143.01 150.11C143.743 151.254 144.109 152.925 144.109 155.135C144.109 157.344 143.743 159.026 143.01 160.159C142.278 161.304 141.293 161.865 140.046 161.865C139.245 161.865 138.535 161.613 137.928 161.121C137.322 160.629 136.841 159.873 136.498 158.866C136.154 157.859 135.982 156.611 135.982 155.123C135.982 153.635 136.154 152.387 136.498 151.38C136.841 150.373 137.322 149.629 137.928 149.125C138.535 148.633 139.245 148.381 140.046 148.381C141.293 148.381 142.278 148.954 143.01 150.087V150.11ZM142.255 159.415C142.804 158.454 143.09 157.023 143.09 155.146C143.09 153.269 142.816 151.838 142.255 150.877C141.705 149.915 140.973 149.423 140.057 149.423C139.142 149.423 138.409 149.904 137.848 150.877C137.299 151.838 137.024 153.269 137.024 155.146C137.024 157.023 137.299 158.454 137.848 159.415C138.398 160.377 139.13 160.869 140.057 160.869C140.984 160.869 141.705 160.388 142.255 159.415ZM147.829 155.238V162.643H146.799V147.992H147.829V154.23H149.947V155.238H147.829Z" fill="black"/>
<path d="M163.109 162.631H162.056V155.306H158.588V161.659H151.033V148.461H152.063V153.898H157.557V148.461H158.588V154.299H162.056V147.98H163.109V162.631ZM157.557 154.894H152.063V160.674H157.557V154.894Z" fill="black"/>
<path d="M170.148 154.779L174.956 160.88L174.131 161.51L169.862 155.993C169.416 157.63 168.809 158.946 168.042 159.907C167.275 160.88 166.371 161.464 165.341 161.659V160.594C166.222 160.388 166.966 159.793 167.596 158.797C168.225 157.801 168.706 156.519 169.049 154.928C169.393 153.337 169.564 151.563 169.599 149.606H165.627V148.61H174.521V149.606H170.629C170.606 151.575 170.446 153.303 170.148 154.779ZM177.76 162.631H176.73V147.98H177.76V162.631Z" fill="black"/>
<path d="M190.145 149.148C190.763 149.64 191.243 150.396 191.598 151.403C191.953 152.41 192.125 153.658 192.125 155.146C192.125 156.634 191.953 157.881 191.598 158.889C191.243 159.896 190.763 160.64 190.145 161.143C189.526 161.647 188.817 161.887 187.993 161.887C186.745 161.887 185.749 161.315 184.994 160.182C184.238 159.049 183.872 157.366 183.872 155.157C183.872 152.948 184.25 151.266 184.994 150.132C185.749 148.999 186.745 148.427 187.993 148.427C188.805 148.427 189.526 148.679 190.145 149.171V149.148ZM185.749 150.865C185.177 151.826 184.891 153.257 184.891 155.134C184.891 157.011 185.177 158.442 185.749 159.404C186.322 160.365 187.077 160.857 188.004 160.857C188.931 160.857 189.664 160.377 190.225 159.404C190.786 158.442 191.072 157.011 191.072 155.134C191.072 153.257 190.786 151.826 190.225 150.865C189.664 149.903 188.92 149.411 188.004 149.411C187.088 149.411 186.322 149.892 185.749 150.865ZM194.929 162.631V147.98H195.982V162.631H194.929Z" fill="black"/>
<path d="M198.627 156.382V148.29H199.623V151.151H205.552V148.29H206.559V151.804H209.798V147.992H210.829V158.889H209.798V152.822H206.559V156.394H198.627V156.382ZM211.206 162.346H199.302V157.859H200.332V161.35H211.206V162.346ZM205.552 152.101H199.623V155.398H205.552V152.101Z" fill="black"/>
<path d="M218.428 155.798C217.879 156.542 217.124 156.908 216.139 156.908C215.155 156.908 214.376 156.508 213.827 155.718C213.278 154.928 213.003 153.864 213.003 152.525C213.003 151.185 213.278 150.121 213.827 149.331C214.376 148.541 215.143 148.141 216.139 148.141C217.055 148.141 217.776 148.473 218.314 149.125C218.852 149.778 219.161 150.67 219.264 151.803H221.553V148.083H222.56V158.786H221.553V152.799H219.287C219.264 154.058 218.978 155.054 218.428 155.798ZM214.571 155.066C214.949 155.661 215.475 155.958 216.151 155.958C216.826 155.958 217.375 155.661 217.753 155.066C218.131 154.47 218.325 153.623 218.325 152.525C218.325 151.426 218.131 150.59 217.753 149.984C217.375 149.388 216.837 149.091 216.151 149.091C215.464 149.091 214.949 149.388 214.571 149.984C214.193 150.579 214.01 151.426 214.01 152.525C214.01 153.623 214.193 154.459 214.571 155.066ZM226.315 162.345H214.205V157.961H215.235V161.361H226.315V162.357V162.345ZM224.861 159.049V147.98H225.868V159.049H224.861Z" fill="black"/>
<path d="M235.883 154.7L240.691 160.881L239.867 161.51L235.597 155.936C235.162 157.584 234.567 158.9 233.8 159.885C233.033 160.869 232.141 161.453 231.11 161.659V160.594C231.98 160.388 232.724 159.793 233.342 158.797C233.96 157.801 234.441 156.52 234.762 154.929C235.082 153.349 235.265 151.563 235.288 149.595H231.397V148.599H240.187V149.595H236.318C236.307 151.46 236.158 153.166 235.883 154.688V154.7ZM243.804 162.632H242.774V154.757H239.02V153.75H242.774V147.992H243.804V162.643V162.632Z" fill="black"/>
<path d="M253.202 149.343H246.22V148.45H254.209V152.605H247.284V155.009H250.81C251.92 155.009 252.904 154.94 253.774 154.814C254.644 154.688 255.319 154.505 255.8 154.276V155.192C255.331 155.421 254.655 155.604 253.774 155.73C252.893 155.856 251.874 155.924 250.729 155.924H246.243V151.724H253.19V149.343H253.202ZM256.704 157.95C257.757 158.362 258.284 159.026 258.284 159.942C258.284 160.858 257.757 161.51 256.704 161.922C255.651 162.334 254.243 162.552 252.492 162.552C250.741 162.552 249.333 162.346 248.28 161.922C247.227 161.499 246.7 160.846 246.7 159.942C246.7 159.038 247.227 158.362 248.28 157.95C249.333 157.538 250.741 157.332 252.492 157.332C254.243 157.332 255.674 157.538 256.716 157.95H256.704ZM255.903 161.224C256.773 160.949 257.208 160.514 257.208 159.942C257.208 159.37 256.773 158.923 255.915 158.66C255.045 158.385 253.9 158.248 252.481 158.248C251.061 158.248 249.928 158.385 249.058 158.671C248.188 158.946 247.753 159.381 247.753 159.953C247.753 160.526 248.188 160.949 249.058 161.235C249.928 161.51 251.073 161.659 252.481 161.659C253.889 161.659 255.033 161.521 255.903 161.235V161.224ZM260.173 152.525H258.055V156.726H257.025V147.992H258.055V151.506H260.173V152.536V152.525Z" fill="black"/>
<path d="M273.908 159.999V161.029C272.866 161.453 271.195 161.659 268.894 161.659H263.881V160.651H267.91V157.366C267.2 157.286 266.571 157.046 266.021 156.657C265.472 156.256 265.048 155.729 264.739 155.077C264.43 154.425 264.281 153.704 264.281 152.902C264.281 152.044 264.465 151.266 264.819 150.579C265.174 149.892 265.666 149.354 266.296 148.976C266.926 148.599 267.635 148.404 268.425 148.404C269.215 148.404 269.947 148.599 270.577 148.976C271.218 149.354 271.71 149.892 272.065 150.579C272.42 151.266 272.603 152.044 272.603 152.902C272.603 153.704 272.443 154.425 272.134 155.077C271.824 155.729 271.39 156.256 270.84 156.657C270.291 157.057 269.65 157.298 268.94 157.366V160.651C271.309 160.651 272.969 160.434 273.919 159.999H273.908ZM266.765 149.835C266.296 150.144 265.93 150.567 265.666 151.105C265.403 151.643 265.277 152.25 265.277 152.902C265.277 153.555 265.403 154.161 265.666 154.711C265.93 155.249 266.296 155.672 266.765 155.981C267.235 156.29 267.784 156.439 268.402 156.439C269.02 156.439 269.581 156.29 270.062 155.981C270.543 155.672 270.92 155.249 271.183 154.711C271.447 154.173 271.573 153.566 271.573 152.902C271.573 152.238 271.447 151.643 271.183 151.105C270.92 150.567 270.554 150.144 270.062 149.835C269.581 149.526 269.02 149.377 268.402 149.377C267.784 149.377 267.235 149.526 266.765 149.835ZM276.288 155.1V162.631H275.258V147.98H276.288V154.081H278.372V155.089H276.288V155.1Z" fill="black"/>
<path d="M285.605 149.148C286.224 149.64 286.704 150.396 287.059 151.403C287.414 152.41 287.586 153.658 287.586 155.146C287.586 156.634 287.414 157.881 287.059 158.889C286.716 159.896 286.224 160.64 285.605 161.143C284.987 161.647 284.278 161.887 283.454 161.887C282.206 161.887 281.21 161.315 280.455 160.182C279.699 159.049 279.333 157.366 279.333 155.157C279.333 152.948 279.711 151.266 280.455 150.132C281.21 148.999 282.206 148.427 283.454 148.427C284.266 148.427 284.987 148.679 285.605 149.171V149.148ZM281.21 150.865C280.638 151.826 280.352 153.257 280.352 155.134C280.352 157.011 280.638 158.442 281.21 159.404C281.782 160.365 282.538 160.857 283.465 160.857C284.392 160.857 285.125 160.377 285.686 159.404C286.246 158.442 286.533 157.011 286.533 155.134C286.533 153.257 286.246 151.826 285.686 150.865C285.125 149.903 284.381 149.411 283.465 149.411C282.549 149.411 281.782 149.892 281.21 150.865ZM290.39 162.631V147.98H291.443V162.631H290.39Z" fill="black"/>
<path d="M307.216 161.829H293.4V160.776H307.216V161.829ZM294.167 157.01V156.003H296.823V149.765H294.305V148.758H306.3V149.765H303.805V156.003H306.46V157.01H294.179H294.167ZM302.763 155.992V149.754H297.841V155.992H302.763Z" fill="black"/>
<path d="M318.948 157.445V162.974H317.895V157.445H311.6V156.381H325.415V157.445H318.948ZM312.595 149.433V148.426H324.328V154.973H323.275V149.444H312.595V149.433Z" fill="black"/>
<path d="M334.698 153.623C334.354 154.161 333.862 154.585 333.21 154.894C332.557 155.203 331.802 155.352 330.92 155.352C330.039 155.352 329.306 155.203 328.665 154.894C328.024 154.585 327.532 154.161 327.189 153.623C326.846 153.085 326.674 152.467 326.674 151.769C326.674 151.071 326.846 150.464 327.189 149.926C327.532 149.388 328.024 148.965 328.665 148.656C329.306 148.347 330.062 148.198 330.92 148.198C331.779 148.198 332.557 148.347 333.21 148.656C333.862 148.965 334.354 149.377 334.698 149.915C335.041 150.453 335.213 151.071 335.213 151.769C335.213 152.467 335.041 153.085 334.698 153.623ZM328.585 153.726C329.181 154.196 329.959 154.436 330.92 154.436C331.882 154.436 332.683 154.196 333.278 153.726C333.873 153.257 334.171 152.605 334.171 151.758C334.171 150.911 333.873 150.281 333.278 149.8C332.683 149.32 331.905 149.091 330.92 149.091C329.936 149.091 329.169 149.331 328.585 149.8C327.99 150.281 327.693 150.934 327.693 151.758C327.693 152.582 327.99 153.257 328.585 153.726ZM339.15 156.325V162.357H327.818V156.325H328.826V158.248H338.12V156.325H339.15ZM338.12 159.163H328.826V161.43H338.12V159.163ZM339.15 155.615H338.12V147.98H339.15V155.615Z" fill="black"/>
<path d="M340.925 150.498V149.582H344.164V147.773H345.194V149.582H348.308V150.498H340.925ZM342.413 156.118C341.806 155.625 341.497 154.973 341.497 154.149C341.497 153.325 341.806 152.661 342.413 152.169C343.019 151.677 343.786 151.425 344.702 151.425C345.618 151.425 346.385 151.677 346.991 152.169C347.598 152.661 347.907 153.325 347.907 154.149C347.907 154.973 347.598 155.637 346.991 156.118C346.385 156.598 345.618 156.85 344.702 156.85C343.786 156.85 343.019 156.61 342.413 156.118ZM350.082 161.646C349.486 162.024 348.857 162.264 348.193 162.356L345.503 160.295C345.068 160.868 344.553 161.337 343.969 161.703C343.386 162.07 342.768 162.287 342.127 162.356V161.383C342.665 161.303 343.191 161.085 343.706 160.708C344.221 160.33 344.656 159.861 345 159.3C345.354 158.739 345.549 158.144 345.595 157.514L346.591 157.651C346.51 158.304 346.316 158.922 345.995 159.517L348.422 161.349C348.926 161.234 349.418 160.982 349.887 160.605C350.356 160.227 350.734 159.758 351.055 159.22C351.364 158.682 351.558 158.109 351.615 157.514L352.611 157.651C352.531 158.258 352.359 158.83 352.096 159.368L355.324 161.566L354.775 162.402L351.604 160.17C351.192 160.776 350.7 161.28 350.093 161.658L350.082 161.646ZM343.077 152.833C342.665 153.176 342.47 153.611 342.47 154.149C342.47 154.687 342.676 155.11 343.077 155.454C343.477 155.797 344.027 155.98 344.702 155.98C345.377 155.98 345.915 155.809 346.327 155.454C346.739 155.099 346.934 154.664 346.934 154.149C346.934 153.634 346.739 153.176 346.339 152.833C345.938 152.489 345.389 152.318 344.702 152.318C344.015 152.318 343.489 152.489 343.077 152.833ZM349.567 156.988V148.082H350.517V151.688H353.298V147.991H354.294V157.182H353.298V152.695H350.517V156.988H349.567Z" fill="black"/>
<path d="M369.712 155.581H355.896V154.665H369.712V155.581ZM359.834 152.433C358.712 152.925 357.579 153.189 356.446 153.212V152.261C357.362 152.239 358.289 152.021 359.227 151.632C360.166 151.243 360.979 150.693 361.654 150.007C362.329 149.32 362.764 148.542 362.936 147.66L363.943 147.855C363.806 148.519 363.554 149.114 363.199 149.652L369.151 152.399L368.75 153.234L362.604 150.407C361.871 151.254 360.933 151.93 359.811 152.433H359.834ZM368.659 156.897V162.368H356.95V156.897H357.98V158.637H367.652V156.897H368.659ZM367.652 159.53H357.98V161.453H367.652V159.53Z" fill="black"/>
<path d="M379.212 160.445C379.864 160.308 380.414 160.136 380.837 159.919V160.926C380.414 161.155 379.876 161.338 379.223 161.464C378.571 161.59 377.907 161.659 377.232 161.659H371.543V148.518H372.596V160.651H377.232C377.896 160.651 378.548 160.583 379.2 160.445H379.212ZM382.394 162.654V147.98H383.447V162.631L382.394 162.654Z" fill="black"/>
<path d="M393.657 160.468C394.321 160.331 394.87 160.159 395.282 159.942V160.949C394.859 161.167 394.321 161.338 393.657 161.464C392.993 161.59 392.318 161.659 391.643 161.659H386.183V148.61H394.195V149.606H387.213V160.674H391.677C392.329 160.674 392.982 160.606 393.657 160.48V160.468ZM397.812 155.238V162.643H396.782V147.992H397.812V154.23H399.93V155.238H397.812Z" fill="black"/>
<path d="M400.879 161.821C400.719 161.661 400.627 161.466 400.627 161.226C400.627 160.986 400.707 160.78 400.879 160.619C401.05 160.459 401.245 160.379 401.474 160.379C401.703 160.379 401.897 160.459 402.069 160.619C402.241 160.78 402.321 160.974 402.321 161.226C402.321 161.478 402.241 161.672 402.069 161.821C401.909 161.981 401.703 162.061 401.474 162.061C401.245 162.061 401.05 161.981 400.879 161.821Z" fill="black"/>
<path d="M420.944 161.829H407.129V160.822H412.646V153.84H413.699V160.822H420.944V161.829ZM408.056 149.605V148.598H419.937V158.27H418.884V149.605H408.045H408.056Z" fill="black"/>
<path d="M422.638 156.13V148.438H430.73V156.13H422.638ZM435.137 161.361V162.357H423.176V157.801H424.206V161.372H435.137V161.361ZM429.723 149.4H423.679V155.157H429.723V149.4ZM433.649 158.877V147.98H434.679V158.877H433.649Z" fill="black"/>
<path d="M446.011 150.521V151.516H436.991V150.521H440.974V147.945H442.027V150.521H446.011ZM443.424 153.52C443.996 153.886 444.454 154.412 444.786 155.088C445.118 155.763 445.278 156.541 445.278 157.411C445.278 158.281 445.118 159.059 444.786 159.735C444.454 160.399 443.996 160.925 443.424 161.291C442.84 161.658 442.199 161.841 441.49 161.841C440.78 161.841 440.139 161.658 439.567 161.291C438.994 160.925 438.548 160.399 438.216 159.735C437.884 159.071 437.724 158.293 437.724 157.411C437.724 156.53 437.884 155.763 438.216 155.088C438.548 154.412 438.994 153.897 439.567 153.52C440.139 153.142 440.78 152.97 441.49 152.97C442.199 152.97 442.852 153.153 443.424 153.52ZM442.886 160.433C443.309 160.147 443.641 159.746 443.893 159.22C444.145 158.693 444.271 158.098 444.271 157.411C444.271 156.724 444.145 156.118 443.893 155.591C443.641 155.065 443.309 154.653 442.886 154.367C442.462 154.08 442.005 153.932 441.49 153.932C440.974 153.932 440.517 154.069 440.093 154.367C439.67 154.664 439.338 155.065 439.086 155.591C438.834 156.118 438.708 156.724 438.708 157.411C438.708 158.098 438.834 158.705 439.086 159.22C439.338 159.746 439.67 160.147 440.093 160.433C440.517 160.719 440.974 160.868 441.49 160.868C442.005 160.868 442.462 160.731 442.886 160.433ZM449.044 155.236V162.642H448.014V147.991H449.044V154.229H451.161V155.236H449.044Z" fill="black"/>
<path d="M455.546 156.153V148.45H463.135V156.153H455.546ZM468.125 162.345H456.221V157.79H457.251V161.361H468.125V162.357V162.345ZM456.565 149.4V155.18H462.116V149.4H456.565ZM464.039 154.585V153.612H466.752V150.888H464.039V149.892H466.752V147.98H467.759V158.889H466.752V154.573H464.039V154.585Z" fill="black"/>
<path d="M474.763 153.99L479.284 161.087L478.46 161.716L474.477 155.329C474.042 157.229 473.435 158.717 472.646 159.816C471.856 160.915 470.917 161.521 469.818 161.67V160.606C470.768 160.423 471.57 159.77 472.211 158.637C472.852 157.504 473.332 156.039 473.641 154.253C473.95 152.468 474.111 150.522 474.122 148.393L475.175 148.416C475.152 150.499 475.015 152.365 474.752 154.001L474.763 153.99ZM482.524 162.632H481.493V154.585H477.579V153.578H481.493V147.992H482.524V162.643V162.632Z" fill="black"/>
<path d="M492.791 154.791L497.518 160.881L496.694 161.51L492.493 156.039C492.058 157.676 491.463 158.98 490.708 159.942C489.952 160.903 489.059 161.476 488.029 161.67V160.606C488.899 160.4 489.643 159.805 490.261 158.809C490.879 157.813 491.36 156.531 491.681 154.94C492.001 153.36 492.184 151.575 492.207 149.606H488.315V148.61H497.049V149.606H493.237C493.214 151.563 493.054 153.292 492.779 154.791H492.791ZM500.208 155.238V162.643H499.178V147.992H500.208V154.23H502.325V155.238H500.208Z" fill="black"/>
<path d="M513.428 158.453V162.975H512.375V158.453H506.022V157.446H519.838V158.453H513.428ZM509.983 154.527C508.918 155.1 507.751 155.455 506.469 155.592V154.585C508.06 154.401 509.411 153.864 510.509 152.959C511.62 152.055 512.283 150.888 512.535 149.457H506.847V148.461H519.014V149.457H513.611C513.52 150.155 513.337 150.807 513.039 151.403L519.391 154.608L518.911 155.523L512.524 152.238C511.883 153.188 511.036 153.955 509.971 154.527H509.983Z" fill="black"/>
<path d="M528.195 158.453V162.975H527.142V158.453H520.789V157.446H534.605V158.453H528.195ZM524.749 154.527C523.685 155.1 522.517 155.455 521.235 155.592V154.585C522.826 154.401 524.177 153.864 525.276 152.959C526.386 152.055 527.05 150.888 527.302 149.457H521.613V148.461H533.78V149.457H528.378C528.286 150.155 528.092 150.807 527.806 151.403L534.158 154.608L533.677 155.523L527.29 152.238C526.661 153.188 525.802 153.955 524.749 154.527Z" fill="black"/>
<path d="M552.803 156.678H546.416V159.46H545.386V156.678H538.999V155.728H552.814V156.678H552.803ZM552.082 161.417V162.367H540.064V158.155H541.094V161.417H552.082ZM540.075 153.92V148.254H551.727V153.92H540.075ZM541.105 149.181V152.981H550.697V149.181H541.105Z" fill="black"/>
<path d="M562.132 161.475C561.24 161.601 560.21 161.67 559.042 161.67H553.754V160.663H559.134C560.267 160.663 561.274 160.594 562.144 160.468C563.014 160.342 563.701 160.159 564.181 159.919V160.926C563.701 161.166 563.014 161.35 562.121 161.475H562.132ZM560.69 148.988C561.331 149.377 561.835 149.915 562.201 150.602C562.567 151.288 562.739 152.067 562.739 152.948C562.739 153.829 562.556 154.585 562.201 155.272C561.835 155.958 561.331 156.496 560.69 156.886C560.049 157.275 559.317 157.469 558.504 157.469C557.691 157.469 556.959 157.275 556.318 156.886C555.677 156.496 555.173 155.958 554.807 155.272C554.441 154.585 554.269 153.807 554.269 152.948C554.269 152.09 554.452 151.288 554.807 150.602C555.173 149.915 555.677 149.377 556.318 148.988C556.959 148.599 557.691 148.404 558.504 148.404C559.317 148.404 560.049 148.599 560.69 148.988ZM556.821 149.846C556.341 150.155 555.963 150.579 555.688 151.128C555.414 151.666 555.276 152.273 555.276 152.948C555.276 153.623 555.414 154.207 555.688 154.757C555.963 155.295 556.341 155.718 556.821 156.027C557.302 156.336 557.863 156.485 558.504 156.485C559.145 156.485 559.706 156.336 560.198 156.027C560.69 155.718 561.068 155.295 561.331 154.757C561.594 154.219 561.732 153.612 561.732 152.948C561.732 152.284 561.594 151.666 561.331 151.128C561.068 150.59 560.69 150.167 560.198 149.846C559.706 149.537 559.145 149.377 558.504 149.377C557.863 149.377 557.314 149.537 556.821 149.846ZM565.566 162.631V147.98H566.574V162.631H565.566Z" fill="black"/>
<path d="M569.113 156.13V148.438H577.045V156.13H569.113ZM581.372 161.361V162.357H569.56V157.801H570.59V161.372H581.372V161.361ZM570.143 149.4V155.157H576.038V149.4H570.143ZM583.02 152.788H580.903V158.877H579.873V147.98H580.903V151.758H583.02V152.788Z" fill="black"/>
<path d="M39.9951 188.845V187.838H53.8106V188.845H39.9951ZM42.0325 176.644V183.054H52.9864V184.061H41.0024V175.625H52.8262V176.632H42.0325V176.644Z" fill="black"/>
<path d="M61.6052 176.37H55.4014V175.454H62.6124V179.689H56.4544V182.173H59.625C60.7352 182.173 61.7311 182.116 62.6124 181.99C63.4938 181.864 64.1576 181.715 64.604 181.521V182.436C64.1691 182.631 63.5052 182.78 62.6124 182.906C61.7196 183.032 60.678 183.089 59.5105 183.089H55.4472V178.819H61.6052V176.381V176.37ZM63.6197 188.709C63.0588 189.075 62.4407 189.293 61.7768 189.373L59.1214 187.232C58.7093 187.827 58.2171 188.32 57.6448 188.686C57.0725 189.052 56.443 189.293 55.7905 189.361V188.411C56.3399 188.331 56.855 188.102 57.3472 187.724C57.8394 187.347 58.24 186.843 58.5605 186.225C58.881 185.607 59.0641 184.943 59.1099 184.21L60.1057 184.325C60.0256 185.046 59.8539 185.733 59.5906 186.385L62.0859 188.354C62.5781 188.228 63.0474 187.976 63.4823 187.587C63.9173 187.209 64.2721 186.717 64.5468 186.133C64.8215 185.55 64.9818 184.909 65.0275 184.21L66.0233 184.348C65.9776 185.126 65.8059 185.824 65.5312 186.442L68.6788 188.617L68.1638 189.453L65.0733 187.255C64.6842 187.85 64.2034 188.331 63.6311 188.697L63.6197 188.709ZM63.6998 180.571V179.632H66.6414V177.709H63.6998V176.759H66.6414V175.008H67.6487V183.787H66.6414V180.582H63.6998V180.571Z" fill="black"/>
<path d="M69.5254 183.52V182.57H83.3408V183.52H69.5254ZM82.5854 188.408V189.381H70.567V185.111H71.62V188.408H82.5854ZM82.4137 179.571V180.544H70.6013V175.027H71.6315V179.571H82.4137Z" fill="black"/>
<path d="M90.06 187.518C90.6208 187.392 91.1359 187.221 91.5709 187.026V187.999C91.1473 188.216 90.6437 188.388 90.0371 188.502C89.4304 188.628 88.8123 188.686 88.1828 188.686H84.8291V175.637H90.9757V176.61H85.8249V187.713H88.3431C88.9268 187.713 89.4991 187.655 90.0714 187.518H90.06ZM94.1462 175.099V189.407H93.139V182.173H89.1672V181.166H93.139V175.099H94.1462ZM97.4542 189.647H96.4469V174.996H97.4542V189.647Z" fill="black"/>
<path d="M112.861 188.845H99.0459V187.838H105.398V183.695H100.053V175.625H111.877V176.632H101.083V182.699H112.037V183.695H106.452V187.838H112.861V188.845Z" fill="black"/>
<path d="M125.692 182.791C126.516 182.699 127.18 182.528 127.683 182.287V183.34C126.848 183.729 125.165 183.935 122.647 183.935H122.441V189.659H121.411V183.935H117.256V182.94H122.636C123.86 182.94 124.879 182.894 125.703 182.802L125.692 182.791ZM118.24 176.621V175.626H125.932V181.829H124.902V176.621H118.24ZM130.064 189.647H129.057V174.996H130.064V189.647Z" fill="black"/>
<path d="M134.803 181.907C134.07 182.422 133.212 182.765 132.228 182.926V181.953C133.372 181.735 134.299 181.232 135.02 180.43C135.741 179.641 136.176 178.633 136.325 177.409H132.353V176.459H136.36V174.719H137.39V176.459H141.316V177.409H137.39C137.344 177.969 137.218 178.53 137.023 179.091L141.316 181.918L140.778 182.742L136.566 179.938C136.119 180.739 135.524 181.403 134.791 181.907H134.803ZM138.157 188.431V189.37H133.04V183.99H134.047V188.431H138.145H138.157ZM145.333 184.631V185.49H138.008V184.631H141.156V183.143H142.186V184.631H145.333ZM143.914 186.623C144.475 186.932 144.761 187.355 144.761 187.893C144.761 188.431 144.475 188.866 143.925 189.175C143.365 189.484 142.621 189.633 141.693 189.633C140.766 189.633 140.022 189.484 139.461 189.175C138.901 188.866 138.626 188.443 138.626 187.893C138.626 187.344 138.901 186.932 139.461 186.623C140.022 186.314 140.766 186.153 141.693 186.153C142.621 186.153 143.353 186.314 143.914 186.623ZM143.227 188.569C143.628 188.408 143.822 188.179 143.822 187.893C143.822 187.607 143.628 187.378 143.227 187.218C142.827 187.058 142.312 186.978 141.693 186.978C141.075 186.978 140.56 187.058 140.16 187.218C139.759 187.378 139.553 187.607 139.553 187.893C139.553 188.179 139.759 188.408 140.16 188.569C140.56 188.729 141.075 188.809 141.693 188.809C142.312 188.809 142.827 188.729 143.227 188.569ZM146.512 179.343H144.395V182.628H143.365V174.993H144.395V178.347H146.512V179.343Z" fill="black"/>
<path d="M146.775 183.798V182.848H160.591V183.798H146.775ZM156.733 175.327C157.661 175.568 158.393 175.911 158.943 176.381C159.492 176.85 159.767 177.411 159.767 178.086C159.767 178.761 159.492 179.334 158.943 179.814C158.393 180.295 157.661 180.65 156.733 180.879C155.818 181.119 154.799 181.234 153.689 181.234C152.579 181.234 151.571 181.119 150.644 180.879C149.717 180.638 148.984 180.284 148.447 179.814C147.909 179.345 147.622 178.761 147.622 178.086C147.622 177.411 147.897 176.838 148.447 176.381C148.996 175.923 149.728 175.568 150.644 175.327C151.571 175.087 152.579 174.973 153.689 174.973C154.799 174.973 155.806 175.087 156.733 175.327ZM159.847 188.41V189.383H147.828V185.297H148.881V188.41H159.847ZM151.228 176.152C150.461 176.323 149.854 176.575 149.385 176.907C148.916 177.239 148.687 177.628 148.687 178.086C148.687 178.773 149.168 179.311 150.141 179.7C151.113 180.089 152.292 180.284 153.677 180.284C155.062 180.284 156.241 180.089 157.203 179.7C158.164 179.311 158.656 178.773 158.656 178.086C158.656 177.628 158.428 177.239 157.97 176.907C157.512 176.575 156.905 176.323 156.138 176.152C155.371 175.98 154.559 175.9 153.677 175.9C152.796 175.9 151.983 175.991 151.216 176.152H151.228Z" fill="black"/>
<path d="M172.358 184.027C171.751 185.492 170.87 186.625 169.725 187.427C168.581 188.228 167.242 188.628 165.696 188.628V187.598C167.024 187.598 168.169 187.243 169.165 186.545C170.149 185.847 170.904 184.851 171.431 183.546C171.957 182.253 172.221 180.731 172.221 178.991V176.621H165.696V175.626H173.274V178.922C173.274 180.856 172.965 182.551 172.358 184.016V184.027ZM176.731 189.647V174.996H177.761V189.647H176.731Z" fill="black"/>
<path d="M179.764 183.512V182.505C180.954 182.138 181.801 181.314 182.293 180.032C182.785 178.75 183.026 177.137 183.026 175.179L184.022 175.214C184.022 176.656 183.919 177.846 183.713 178.819L187.112 182.654L186.402 183.34L183.392 179.929C182.694 181.887 181.481 183.088 179.764 183.512ZM192.904 185V189.578H191.874V185.95H180.92V185H192.904ZM192.904 184.039H191.897V179.552H188.955V183.878H187.959V175.088H188.955V178.544H191.897V174.996H192.904V184.039Z" fill="black"/>
<path d="M205.289 181.452C204.556 182.036 203.583 182.322 202.393 182.322C201.546 182.322 200.802 182.173 200.161 181.864C199.52 181.555 199.039 181.143 198.696 180.605C198.352 180.067 198.181 179.46 198.181 178.774C198.181 178.087 198.352 177.492 198.696 176.965C199.039 176.427 199.531 176.015 200.161 175.706C200.79 175.397 201.546 175.248 202.393 175.248C203.549 175.248 204.499 175.523 205.231 176.061C205.964 176.599 206.399 177.32 206.525 178.213H209.81V175.008H210.84V182.642H209.81V179.209H206.548C206.445 180.136 206.021 180.891 205.289 181.475V181.452ZM200.081 180.697C200.664 181.166 201.431 181.395 202.393 181.395C203.354 181.395 204.121 181.166 204.705 180.697C205.289 180.227 205.586 179.598 205.586 178.785C205.586 177.972 205.289 177.354 204.705 176.885C204.121 176.416 203.354 176.187 202.393 176.187C201.431 176.187 200.664 176.416 200.081 176.885C199.497 177.354 199.199 177.984 199.199 178.785C199.199 179.586 199.497 180.239 200.081 180.697ZM204.888 183.341V189.373H199.36V183.341H200.31V185.321H203.915V183.341H204.888ZM203.915 186.179H200.31V188.468H203.915V186.179ZM207.429 188.583C206.845 189.041 206.227 189.304 205.552 189.361V188.411C206.078 188.331 206.559 188.091 207.006 187.679C207.452 187.267 207.83 186.683 208.127 185.927C208.425 185.172 208.608 184.279 208.688 183.272L209.684 183.352C209.615 184.279 209.467 185.092 209.226 185.79L212.294 188.674L211.641 189.396L208.86 186.706C208.482 187.507 208.001 188.136 207.418 188.594L207.429 188.583Z" fill="black"/>
<path d="M219.676 176.164C220.294 176.656 220.775 177.411 221.129 178.418C221.473 179.426 221.656 180.673 221.656 182.161C221.656 183.649 221.484 184.897 221.129 185.904C220.775 186.911 220.294 187.655 219.676 188.159C219.058 188.651 218.348 188.903 217.524 188.903C216.276 188.903 215.28 188.331 214.525 187.198C213.77 186.064 213.403 184.382 213.403 182.173C213.403 179.964 213.781 178.281 214.525 177.148C215.28 176.003 216.276 175.442 217.524 175.442C218.337 175.442 219.058 175.694 219.676 176.186V176.164ZM215.28 177.88C214.708 178.842 214.422 180.273 214.422 182.15C214.422 184.027 214.708 185.458 215.28 186.419C215.853 187.381 216.608 187.873 217.535 187.873C218.462 187.873 219.195 187.392 219.756 186.419C220.317 185.458 220.603 184.027 220.603 182.15C220.603 180.273 220.317 178.842 219.756 177.88C219.184 176.919 218.451 176.427 217.535 176.427C216.62 176.427 215.853 176.908 215.28 177.88ZM224.46 189.647V174.996H225.513V189.647H224.46Z" fill="black"/>
<path d="M239.225 175.477V188.674H231.671V175.477H232.678V180.914H238.207V175.477H239.214H239.225ZM238.218 181.91H232.69V187.69H238.218V181.91ZM243.289 182.253V189.659H242.259V175.008H243.289V181.246H245.406V182.253H243.289Z" fill="black"/>
<path d="M259.485 188.845H245.67V187.849H252V184.496H246.7V179.574H257.494V176.598H246.7V175.625H258.524V180.524H247.707V183.5H258.73V184.496H253.041V187.849H259.474V188.845H259.485Z" fill="black"/>
<path d="M268.757 175.477V188.674H261.202V175.477H262.209V180.914H267.738V175.477H268.745H268.757ZM267.749 181.91H262.221V187.69H267.749V181.91ZM272.82 182.253V189.659H271.79V175.008H272.82V181.246H274.937V182.253H272.82Z" fill="black"/>
<path d="M289.017 188.845H275.201V187.849H281.531V184.496H276.231V179.574H287.025V176.598H276.231V175.625H288.055V180.524H277.239V183.5H288.261V184.496H282.572V187.849H289.005V188.845H289.017Z" fill="black"/>
<path d="M50.4218 213.74V214.793C49.9296 215.056 49.2314 215.274 48.35 215.446C47.4687 215.617 46.4614 215.697 45.3512 215.697H40.292V214.702H42.1806V203.633H40.3721V202.637H49.5633V203.633H47.7549V214.541C48.7736 214.415 49.6664 214.152 50.4218 213.74ZM46.7247 214.644V203.633H43.2107V214.702H45.065C45.6717 214.702 46.2325 214.679 46.7247 214.644ZM52.7568 216.659H51.7266V202.008H52.7568V216.659Z" fill="black"/>
<path d="M54.7607 215.857V214.85H68.5762V215.857H54.7607ZM56.7982 203.655V210.065H67.7521V211.072H55.768V202.637H67.5918V203.644H56.7982V203.655Z" fill="black"/>
<path d="M70.0527 210.295V202.317H71.0028V205.202H74.9173V202.317H75.8674V210.295H70.0527ZM82.6892 212.184V216.59H81.6591V213.134H70.7052V212.184H82.6892ZM74.9173 206.117H71.0028V209.356H74.9173V206.117ZM82.6892 211.222H81.682V206.667H78.8433V211.073H77.8475V202.111H78.8433V205.682H81.682V202.02H82.6892V211.234V211.222Z" fill="black"/>
<path d="M95.1195 212.481V217.002H94.0665V212.481H87.7139V211.473H101.529V212.481H95.1195ZM91.6742 208.555C90.6097 209.127 89.4422 209.482 88.1603 209.619V208.612C89.7513 208.429 91.1019 207.891 92.2007 206.987C93.2996 206.082 93.9749 204.915 94.2267 203.484H88.538V202.488H100.705V203.484H95.3026C95.2111 204.182 95.0165 204.835 94.7303 205.43L101.083 208.635L100.602 209.551L94.2153 206.265C93.5857 207.216 92.7273 207.982 91.6742 208.555Z" fill="black"/>
<path d="M107.859 208.578L112.575 215.022L111.751 215.652L107.55 209.837C107.081 211.577 106.44 212.962 105.638 213.98C104.837 214.999 103.887 215.571 102.8 215.697V214.644C103.784 214.461 104.608 213.809 105.295 212.664C105.982 211.52 106.497 210.054 106.852 208.269C107.207 206.483 107.378 204.537 107.401 202.42L108.454 202.443C108.431 204.766 108.237 206.815 107.859 208.589V208.578ZM115.265 216.659H114.234V202.008H115.265V216.659Z" fill="black"/>
<path d="M117.245 210.536V209.586H131.061V210.536H117.245ZM130.317 215.423V216.396H118.298V212.127H119.351V215.423H130.317ZM130.145 206.587V207.56H118.332V202.043H119.363V206.587H130.145Z" fill="black"/>
<path d="M148.344 216.659H147.313V209.253H143.193C142.735 211.245 141.899 212.813 140.675 213.934C139.45 215.056 137.939 215.628 136.119 215.628V214.598C137.447 214.598 138.58 214.243 139.53 213.545C140.48 212.847 141.213 211.84 141.728 210.546C142.231 209.253 142.495 207.742 142.495 205.991V203.621H136.119V202.626H143.525V205.922C143.525 206.735 143.468 207.502 143.353 208.234H147.325V201.996H148.355V216.647L148.344 216.659Z" fill="black"/>
<path d="M156.448 209.072C155.704 209.61 154.846 209.953 153.861 210.125V209.152C155.017 208.934 155.956 208.408 156.677 207.572C157.398 206.737 157.822 205.695 157.959 204.447H153.987V203.497H157.993V201.746H159.024V203.497H162.95V204.447H159.024C158.978 205.031 158.852 205.592 158.657 206.13L163.144 209.106L162.606 209.942L158.222 207.023C157.776 207.847 157.181 208.534 156.437 209.06L156.448 209.072ZM166.029 211.475V216.374H154.697V211.475H166.029ZM164.999 215.447V212.414H155.727V215.447H164.999ZM166.029 206.576V210.525H164.999V202.021H166.029V205.546H168.146V206.576H166.029Z" fill="black"/>
<path d="M185.658 215.857H171.843V214.849H177.36V207.867H178.413V214.849H185.658V215.857ZM172.758 203.632V202.625H184.64V212.297H183.586V203.632H172.747H172.758Z" fill="black"/>
<path d="M194.929 202.638V215.686H187.375V202.638H194.929ZM193.899 214.679V203.656H188.405V214.679H193.899ZM198.993 209.265V216.671H197.963V202.02H198.993V208.258H201.11V209.265H198.993Z" fill="black"/>
<path d="M210.371 215.663C209.764 216.075 209.123 216.315 208.436 216.373L205.838 214.141C205.426 214.747 204.922 215.262 204.316 215.663C203.709 216.064 203.068 216.304 202.404 216.373V215.4C203.183 215.308 203.881 214.942 204.51 214.289C205.14 213.637 205.54 212.859 205.701 211.943H205.208V209.94H201.374V209.024H206.811C209.272 209.024 210.966 208.818 211.87 208.418V209.333C211.435 209.539 210.771 209.688 209.878 209.791C208.986 209.894 207.944 209.94 206.765 209.94H206.227V211.508L206.765 211.542C206.731 212.126 206.582 212.721 206.33 213.317L208.757 215.354C209.249 215.24 209.718 214.999 210.165 214.633C210.611 214.267 210.977 213.809 211.263 213.248C211.55 212.687 211.721 212.092 211.767 211.439L212.763 211.554C212.694 212.172 212.557 212.733 212.339 213.236L215.464 215.583L214.926 216.361L211.893 214.049C211.481 214.702 210.977 215.228 210.371 215.64V215.663ZM203.263 206.941C202.542 206.426 202.175 205.751 202.175 204.904C202.175 204.354 202.336 203.874 202.667 203.45C202.999 203.027 203.457 202.706 204.064 202.466C204.659 202.225 205.357 202.111 206.159 202.111C206.96 202.111 207.658 202.225 208.265 202.466C208.871 202.706 209.341 203.027 209.672 203.45C210.004 203.874 210.165 204.354 210.165 204.904C210.165 205.453 210.004 205.934 209.672 206.369C209.341 206.792 208.871 207.124 208.265 207.365C207.658 207.605 206.96 207.719 206.159 207.719C204.945 207.719 203.984 207.456 203.263 206.953V206.941ZM204.007 203.542C203.457 203.896 203.183 204.343 203.183 204.904C203.183 205.465 203.457 205.934 204.007 206.289C204.556 206.632 205.277 206.815 206.159 206.815C207.04 206.815 207.772 206.643 208.322 206.289C208.871 205.934 209.146 205.476 209.146 204.904C209.146 204.331 208.871 203.885 208.322 203.542C207.772 203.198 207.051 203.015 206.159 203.015C205.266 203.015 204.545 203.187 204.007 203.542ZM211.046 205.499V204.526H213.244V202.008H214.274V211.188H213.244V205.499H211.046Z" fill="black"/>
<path d="M229.039 216.659H228.009V209.39H224.896C224.884 210.81 224.701 212.011 224.358 212.984C224.014 213.957 223.533 214.69 222.915 215.171C222.297 215.651 221.611 215.892 220.821 215.892C220.031 215.892 219.321 215.64 218.715 215.148C218.108 214.655 217.639 213.9 217.295 212.893C216.952 211.886 216.78 210.638 216.78 209.15C216.78 207.662 216.952 206.414 217.295 205.407C217.639 204.4 218.108 203.656 218.715 203.152C219.321 202.66 220.02 202.408 220.821 202.408C221.977 202.408 222.927 202.912 223.648 203.919C224.369 204.926 224.793 206.403 224.884 208.349H228.009V201.996H229.039V216.647V216.659ZM223.018 213.442C223.568 212.481 223.843 211.05 223.843 209.161C223.843 207.273 223.568 205.842 223.018 204.881C222.469 203.919 221.736 203.438 220.809 203.438C219.882 203.438 219.184 203.919 218.623 204.892C218.062 205.865 217.799 207.284 217.799 209.161C217.799 211.039 218.074 212.469 218.623 213.431C219.173 214.392 219.905 214.884 220.809 214.884C221.714 214.884 222.458 214.404 223.018 213.442Z" fill="black"/>
<path d="M244.72 215.859H230.904V214.863H234.338V210.433C233.468 210.067 232.804 209.563 232.346 208.934C231.877 208.304 231.648 207.56 231.648 206.713C231.648 205.866 231.9 205.076 232.415 204.424C232.93 203.771 233.64 203.268 234.567 202.913C235.494 202.558 236.57 202.375 237.806 202.375C239.042 202.375 240.118 202.558 241.046 202.913C241.973 203.268 242.694 203.771 243.197 204.424C243.701 205.076 243.964 205.832 243.964 206.713C243.964 207.594 243.735 208.304 243.266 208.934C242.797 209.563 242.144 210.067 241.297 210.433V214.863H244.708V215.859H244.72ZM235.139 203.794C234.372 204.069 233.789 204.458 233.365 204.973C232.942 205.477 232.736 206.072 232.736 206.725C232.736 207.377 232.942 207.995 233.365 208.499C233.789 209.002 234.372 209.403 235.139 209.666C235.906 209.941 236.788 210.078 237.806 210.078C238.825 210.078 239.718 209.941 240.473 209.666C241.24 209.391 241.824 209.002 242.247 208.499C242.671 207.995 242.877 207.4 242.877 206.725C242.877 206.049 242.671 205.477 242.247 204.973C241.824 204.458 241.24 204.069 240.473 203.794C239.706 203.52 238.814 203.382 237.806 203.382C236.799 203.382 235.895 203.52 235.139 203.794ZM240.279 214.874V210.788C239.558 210.982 238.733 211.074 237.818 211.074C236.902 211.074 236.101 210.982 235.38 210.788V214.874H240.279Z" fill="black"/>
<path d="M246.357 215.848C246.197 215.688 246.105 215.494 246.105 215.242C246.105 214.99 246.186 214.795 246.357 214.647C246.518 214.486 246.724 214.406 246.952 214.406C247.181 214.406 247.376 214.486 247.548 214.647C247.708 214.807 247.799 215.001 247.799 215.242C247.799 215.482 247.719 215.688 247.548 215.848C247.376 216.009 247.181 216.089 246.952 216.089C246.724 216.089 246.529 216.009 246.357 215.848Z" fill="black"/>
<path d="M258.89 208.131C257.54 209.059 255.617 209.528 253.133 209.528V208.555C255.296 208.555 256.956 208.177 258.135 207.433C259.302 206.678 259.886 205.533 259.886 203.977V203.427H253.133V202.477H260.916V203.874C260.916 205.796 260.241 207.216 258.89 208.143V208.131ZM264.087 211.439C265.186 211.92 265.735 212.653 265.735 213.66C265.735 214.667 265.186 215.388 264.087 215.858C262.988 216.338 261.569 216.567 259.817 216.567C258.066 216.567 256.658 216.327 255.559 215.858C254.461 215.377 253.923 214.644 253.923 213.66C253.923 212.676 254.472 211.909 255.559 211.439C256.658 210.959 258.078 210.73 259.817 210.73C261.557 210.73 262.976 210.97 264.087 211.439ZM263.308 215.136C264.213 214.805 264.67 214.312 264.67 213.671C264.67 213.03 264.213 212.515 263.308 212.183C262.404 211.851 261.237 211.691 259.829 211.691C258.421 211.691 257.276 211.851 256.361 212.183C255.445 212.515 254.987 213.008 254.987 213.671C254.987 214.335 255.445 214.805 256.361 215.136C257.276 215.468 258.432 215.629 259.829 215.629C261.225 215.629 262.404 215.468 263.308 215.136ZM261.088 208.212V207.239H264.487V204.778H261.626V203.805H264.487V202.008H265.518V210.112H264.487V208.2H261.088V208.212Z" fill="black"/>
<path d="M274.766 211.039C274.159 212.504 273.278 213.637 272.133 214.438C270.989 215.24 269.649 215.64 268.104 215.64V214.61C269.421 214.61 270.577 214.255 271.561 213.557C272.545 212.859 273.301 211.863 273.827 210.558C274.354 209.253 274.617 207.742 274.617 206.003V203.633H268.093V202.637H275.67V205.934C275.67 207.868 275.361 209.562 274.755 211.027L274.766 211.039ZM279.127 216.659V202.008H280.157V216.659H279.127Z" fill="black"/>
<path d="M290.138 202.638V205.934C290.138 207.868 289.84 209.563 289.257 211.028C288.661 212.493 287.814 213.626 286.704 214.427C285.594 215.228 284.266 215.629 282.732 215.629V214.599C284.06 214.599 285.193 214.244 286.155 213.546C287.116 212.836 287.849 211.84 288.352 210.547C288.856 209.253 289.119 207.743 289.119 205.991V203.622H282.732V202.626H290.149L290.138 202.638ZM294.522 209.265V216.671H293.492V202.02H294.522V208.258H296.639V209.265H294.522Z" fill="black"/>
<path d="M306.621 208.131C305.27 209.059 303.347 209.528 300.863 209.528V208.555C303.027 208.555 304.686 208.177 305.865 207.433C307.033 206.678 307.616 205.533 307.616 203.977V203.427H300.863V202.477H308.647V203.874C308.647 205.796 307.971 207.216 306.621 208.143V208.131ZM311.817 211.439C312.916 211.92 313.465 212.653 313.465 213.66C313.465 214.667 312.916 215.388 311.817 215.858C310.718 216.338 309.299 216.567 307.548 216.567C305.797 216.567 304.389 216.327 303.29 215.858C302.191 215.377 301.653 214.644 301.653 213.66C301.653 212.676 302.202 211.909 303.29 211.439C304.389 210.959 305.808 210.73 307.548 210.73C309.288 210.73 310.707 210.97 311.817 211.439ZM311.039 215.136C311.943 214.805 312.401 214.312 312.401 213.671C312.401 213.03 311.943 212.515 311.039 212.183C310.135 211.851 308.967 211.691 307.559 211.691C306.151 211.691 305.007 211.851 304.091 212.183C303.175 212.515 302.718 213.008 302.718 213.671C302.718 214.335 303.175 214.805 304.091 215.136C305.007 215.468 306.163 215.629 307.559 215.629C308.956 215.629 310.135 215.468 311.039 215.136ZM308.818 208.212V207.239H312.218V204.778H309.356V203.805H312.218V202.008H313.248V210.112H312.218V208.2H308.818V208.212Z" fill="black"/>
<path d="M322.496 211.039C321.89 212.504 321.008 213.637 319.864 214.438C318.719 215.24 317.38 215.64 315.835 215.64V214.61C317.162 214.61 318.307 214.255 319.291 213.557C320.276 212.859 321.031 211.863 321.558 210.558C322.084 209.265 322.348 207.742 322.348 206.003V203.633H315.823V202.637H323.401V205.934C323.401 207.868 323.092 209.562 322.485 211.027L322.496 211.039ZM326.857 216.659V202.008H327.887V216.659H326.857Z" fill="black"/>
<path d="M336.734 202.775C337.387 203.141 337.891 203.645 338.234 204.286C338.577 204.927 338.749 205.636 338.749 206.426C338.749 207.216 338.577 207.925 338.222 208.566C337.879 209.207 337.375 209.7 336.723 210.077C336.071 210.444 335.304 210.627 334.411 210.627C333.518 210.627 332.763 210.444 332.11 210.077C331.458 209.711 330.954 209.207 330.611 208.566C330.267 207.925 330.096 207.216 330.096 206.426C330.096 205.636 330.267 204.927 330.611 204.286C330.954 203.645 331.458 203.152 332.11 202.775C332.763 202.397 333.53 202.225 334.411 202.225C335.292 202.225 336.071 202.408 336.723 202.775H336.734ZM332.053 204.045C331.458 204.64 331.16 205.43 331.16 206.415C331.16 207.399 331.458 208.2 332.053 208.795C332.648 209.391 333.438 209.688 334.422 209.688C335.407 209.688 336.208 209.391 336.803 208.795C337.398 208.2 337.696 207.41 337.696 206.415C337.696 205.419 337.398 204.629 336.803 204.045C336.208 203.45 335.407 203.152 334.422 203.152C333.438 203.152 332.66 203.45 332.053 204.045ZM343.11 215.388V216.384H331.32V211.771H332.351V215.4H343.11V215.388ZM341.622 212.905V202.008H342.652V212.905H341.622Z" fill="black"/>
<path d="M349.806 208.807L354.614 214.908L353.79 215.537L349.52 210.02C349.074 211.657 348.467 212.973 347.7 213.935C346.933 214.908 346.029 215.491 344.999 215.686V214.621C345.88 214.415 346.624 213.82 347.254 212.824C347.883 211.829 348.364 210.547 348.708 208.956C349.039 207.365 349.223 205.59 349.257 203.633H345.285V202.637H354.179V203.633H350.287C350.264 205.602 350.104 207.33 349.806 208.807ZM357.418 216.659H356.388V202.008H357.418V216.659Z" fill="black"/>
<path d="M367.652 214.507C368.304 214.381 368.842 214.21 369.266 213.992V214.988C368.853 215.217 368.327 215.389 367.663 215.514C366.999 215.64 366.324 215.698 365.637 215.698H360.143V208.544H366.69V203.645H360.108V202.649H367.72V209.517H361.173V214.702H365.66C366.335 214.702 366.999 214.633 367.652 214.507ZM371.784 209.265V216.671H370.754V202.02H371.784V208.258H373.901V209.265H371.784Z" fill="black"/>
<path d="M391.413 209.164H377.598V208.283H383.985V206.6H385.015V208.283H391.402V209.164H391.413ZM390.658 211.075V211.934H378.33V211.075H383.973V209.874H385.026V211.075H390.658ZM381.65 206.383C380.597 206.726 379.498 206.921 378.365 206.955V206.039C379.234 206.016 380.07 205.89 380.906 205.661C381.73 205.444 382.439 205.112 383.046 204.689C383.641 204.265 384.03 203.761 384.191 203.166H378.639V202.273H390.394V203.166H385.301C385.221 203.521 385.095 203.864 384.9 204.196L390.818 206.108L390.497 207.024L384.225 204.94C383.573 205.547 382.726 206.028 381.673 206.371L381.65 206.383ZM389.948 214.715C389.948 215.368 389.502 215.86 388.62 216.18C387.739 216.512 386.354 216.673 384.488 216.673C382.623 216.673 381.238 216.512 380.356 216.18C379.475 215.849 379.028 215.356 379.028 214.715C379.028 213.41 380.848 212.747 384.488 212.747C388.128 212.747 389.948 213.399 389.948 214.715ZM387.75 215.551C388.529 215.356 388.918 215.082 388.918 214.715C388.918 214.349 388.529 214.086 387.739 213.891C386.949 213.697 385.873 213.594 384.488 213.594C383.103 213.594 382.016 213.697 381.249 213.891C380.482 214.086 380.081 214.361 380.081 214.715C380.081 215.07 380.471 215.345 381.249 215.551C382.027 215.757 383.103 215.849 384.488 215.849C385.873 215.849 386.972 215.745 387.75 215.551Z" fill="black"/>
<path d="M392.375 210.809V209.859H406.19V210.809H392.375ZM402.322 202.339C403.249 202.58 403.981 202.923 404.519 203.392C405.069 203.862 405.343 204.422 405.343 205.098C405.343 205.773 405.069 206.345 404.519 206.826C403.97 207.307 403.237 207.662 402.322 207.891C401.395 208.131 400.387 208.245 399.277 208.245C398.167 208.245 397.159 208.131 396.232 207.891C395.305 207.65 394.573 207.295 394.035 206.826C393.485 206.345 393.211 205.773 393.211 205.098C393.211 204.422 393.485 203.85 394.035 203.392C394.584 202.923 395.317 202.58 396.232 202.339C397.148 202.099 398.167 201.984 399.277 201.984C400.387 201.984 401.395 202.099 402.322 202.339ZM405.435 215.422V216.395H393.417V212.309H394.47V215.422H405.435ZM396.816 203.163C396.049 203.335 395.443 203.587 394.973 203.919C394.504 204.251 394.275 204.64 394.275 205.098C394.275 205.784 394.756 206.322 395.729 206.712C396.702 207.101 397.881 207.295 399.266 207.295C400.651 207.295 401.829 207.101 402.791 206.712C403.752 206.322 404.245 205.784 404.245 205.098C404.245 204.64 404.016 204.251 403.558 203.919C403.1 203.587 402.493 203.335 401.726 203.163C400.96 202.992 400.147 202.912 399.266 202.912C398.384 202.912 397.572 203.003 396.805 203.163H396.816Z" fill="black"/>
<path d="M419.17 202.489V215.686H411.467V202.489H412.497V207.925H418.163V202.489H419.17ZM418.163 208.921H412.497V214.702H418.163V208.921ZM423.348 216.659H422.318V202.008H423.348V216.659Z" fill="black"/>
<path d="M426.644 209.539C426.152 210.089 425.591 210.466 424.938 210.673V209.619C425.797 209.31 426.461 208.486 426.919 207.124C427.365 205.774 427.605 204.114 427.628 202.157L428.636 202.191C428.613 203.793 428.464 205.144 428.201 206.231L430.009 209.402C430.742 208.956 431.314 208.086 431.703 206.792C432.092 205.499 432.298 203.954 432.321 202.157L433.328 202.191C433.305 203.702 433.18 204.949 432.962 205.911L435.675 210.009L434.873 210.547L432.642 207.033C432.046 209.013 431.039 210.226 429.631 210.661L427.834 207.376C427.525 208.257 427.136 208.967 426.644 209.528V209.539ZM438.25 215.388V216.384H426.381V211.954H427.411V215.388H438.25ZM439.83 206.815H437.804V212.905H436.774V202.008H437.804V205.785H439.83V206.815Z" fill="black"/>
<path d="M443.321 204.572V203.633H446.561V201.836H447.591V203.633H450.704V204.572H443.321ZM449.388 210.752C448.781 211.302 448.014 211.577 447.098 211.577C446.183 211.577 445.416 211.302 444.809 210.752C444.203 210.203 443.894 209.482 443.894 208.578C443.894 207.673 444.203 206.907 444.809 206.369C445.416 205.831 446.183 205.544 447.098 205.544C448.014 205.544 448.781 205.819 449.388 206.369C449.994 206.918 450.303 207.651 450.303 208.578C450.303 209.505 449.994 210.203 449.388 210.752ZM457.137 216.372H444.809V212.538H445.862V215.4H457.137V216.372ZM445.462 210.077C445.862 210.466 446.412 210.672 447.098 210.672C447.785 210.672 448.323 210.478 448.724 210.077C449.124 209.688 449.319 209.184 449.319 208.566C449.319 207.948 449.124 207.422 448.724 207.021C448.323 206.632 447.774 206.426 447.098 206.426C446.423 206.426 445.862 206.62 445.462 207.021C445.061 207.422 444.867 207.925 444.867 208.566C444.867 209.207 445.061 209.677 445.462 210.077ZM451.929 213.053V202.099H452.925V206.472H455.706V202.008H456.702V213.305H455.706V207.467H452.925V213.053H451.929Z" fill="black"/>
<path d="M458.293 215.857V214.85H472.108V215.857H458.293ZM460.342 203.655V210.065H471.296V211.072H459.312V202.637H471.135V203.644H460.342V203.655Z" fill="black"/>
<path d="M486.874 211.27H473.059V210.32H479.446V208.26H473.894V207.321H476.55V203.201H474.054V202.285H485.878V203.201H483.383V207.321H486.016V208.26H480.487V210.32H486.874V211.27ZM486.13 215.46V216.398H474.112V212.564H475.165V215.46H486.13ZM482.353 207.321V203.201H477.58V207.321H482.353Z" fill="black"/>
<path d="M487.824 210.809V209.859H501.64V210.809H487.824ZM497.771 202.339C498.698 202.58 499.431 202.923 499.98 203.392C500.529 203.862 500.804 204.422 500.804 205.098C500.804 205.773 500.529 206.345 499.98 206.826C499.431 207.307 498.698 207.662 497.771 207.891C496.855 208.131 495.836 208.245 494.726 208.245C493.616 208.245 492.609 208.131 491.682 207.891C490.754 207.65 490.022 207.295 489.484 206.826C488.934 206.345 488.66 205.773 488.66 205.098C488.66 204.422 488.934 203.85 489.484 203.392C490.033 202.923 490.766 202.58 491.682 202.339C492.597 202.099 493.616 201.984 494.726 201.984C495.836 201.984 496.844 202.099 497.771 202.339ZM500.896 215.422V216.395H488.877V212.309H489.93V215.422H500.896ZM492.277 203.163C491.51 203.335 490.903 203.587 490.434 203.919C489.965 204.251 489.736 204.64 489.736 205.098C489.736 205.784 490.216 206.322 491.189 206.712C492.162 207.101 493.341 207.295 494.726 207.295C496.111 207.295 497.29 207.101 498.252 206.712C499.213 206.322 499.705 205.784 499.705 205.098C499.705 204.64 499.476 204.251 499.019 203.919C498.561 203.587 497.954 203.335 497.187 203.163C496.42 202.992 495.608 202.912 494.726 202.912C493.845 202.912 493.032 203.003 492.265 203.163H492.277Z" fill="black"/>
<path d="M519.838 210.595H506.022V209.645H512.409V207.619H507.11V202.273H518.762V207.619H513.44V209.645H519.826V210.595H519.838ZM513.256 213.193L519.288 215.62L518.911 216.558L512.696 213.983C512.02 214.75 511.15 215.333 510.086 215.757C509.021 216.18 507.911 216.386 506.766 216.386V215.391C507.694 215.391 508.586 215.23 509.456 214.921C510.326 214.612 511.059 214.154 511.665 213.571C512.272 212.987 512.661 212.289 512.833 211.476L513.863 211.648C513.749 212.197 513.554 212.712 513.268 213.193H513.256ZM517.743 206.692V203.223H508.151V206.692H517.743Z" fill="black"/>
<path d="M524.016 204.525V203.609H527.255V201.801H528.285V203.609H531.398V204.525H524.016ZM525.504 210.145C524.897 209.653 524.588 209 524.588 208.165C524.588 207.329 524.897 206.677 525.504 206.185C526.11 205.692 526.877 205.441 527.793 205.441C528.709 205.441 529.475 205.692 530.082 206.185C530.689 206.677 530.998 207.341 530.998 208.165C530.998 208.989 530.689 209.653 530.082 210.145C529.475 210.637 528.709 210.878 527.793 210.878C526.877 210.878 526.11 210.637 525.504 210.145ZM533.173 215.673C532.577 216.051 531.948 216.292 531.284 216.383L528.594 214.323C528.159 214.895 527.655 215.364 527.06 215.719C526.465 216.086 525.858 216.303 525.217 216.383V215.41C525.755 215.33 526.27 215.113 526.797 214.735C527.312 214.357 527.747 213.888 528.09 213.327C528.434 212.766 528.64 212.171 528.697 211.541L529.693 211.679C529.613 212.331 529.418 212.949 529.098 213.544L531.524 215.376C532.028 215.261 532.52 215.01 532.989 214.632C533.447 214.254 533.836 213.785 534.157 213.247C534.466 212.709 534.661 212.137 534.718 211.541L535.714 211.679C535.633 212.285 535.462 212.858 535.198 213.396L538.426 215.593L537.877 216.429L534.706 214.197C534.294 214.804 533.802 215.307 533.195 215.685L533.173 215.673ZM526.167 206.86C525.755 207.203 525.561 207.638 525.561 208.176C525.561 208.714 525.767 209.138 526.167 209.481C526.568 209.824 527.118 210.008 527.793 210.008C528.468 210.008 529.006 209.836 529.418 209.481C529.83 209.126 530.025 208.691 530.025 208.176C530.025 207.661 529.83 207.203 529.43 206.86C529.029 206.517 528.48 206.345 527.804 206.345C527.129 206.345 526.591 206.517 526.179 206.86H526.167ZM532.657 211.015V202.11H533.607V205.715H536.389V202.018H537.385V211.209H536.389V206.723H533.607V211.015H532.657Z" fill="black"/>
<path d="M544.162 208.807L548.969 214.908L548.145 215.537L543.876 210.02C543.429 211.657 542.823 212.973 542.056 213.935C541.289 214.908 540.385 215.491 539.354 215.686V214.621C540.236 214.415 540.98 213.82 541.609 212.824C542.239 211.829 542.72 210.547 543.063 208.956C543.395 207.365 543.578 205.59 543.601 203.633H539.629V202.637H548.523V203.633H544.631C544.608 205.602 544.448 207.33 544.15 208.807H544.162ZM551.774 216.659H550.743V202.008H551.774V216.659Z" fill="black"/>
<path d="M554.349 210.157V202.466H562.281V210.157H554.349ZM566.607 215.388V216.384H554.795V211.829H555.825V215.4H566.607V215.388ZM555.379 203.427V209.185H561.274V203.427H555.379ZM568.256 206.815H566.138V212.905H565.108V202.008H566.138V205.785H568.256V206.815Z" fill="black"/>
<path d="M53.7988 237.606H39.9834V236.656H46.3703V234.63H41.0708V229.285H52.7229V234.63H47.4005V236.656H53.7874V237.606H53.7988ZM47.2173 240.205L53.2494 242.631L52.8717 243.57L46.6565 240.995C45.9812 241.761 45.1113 242.345 44.0468 242.769C42.9823 243.192 41.872 243.398 40.7274 243.398V242.402C41.6545 242.402 42.5473 242.242 43.4172 241.933C44.2871 241.624 45.0197 241.166 45.6263 240.582C46.233 239.987 46.6221 239.3 46.7938 238.499L47.824 238.671C47.7095 239.22 47.5149 239.735 47.2288 240.216L47.2173 240.205ZM51.7042 233.703V230.235H42.1124V233.703H51.7042Z" fill="black"/>
<path d="M54.543 231.541V230.625H57.7822V228.816H58.8123V230.625H61.9256V231.541H54.543ZM56.0309 237.161C55.4243 236.668 55.1153 236.016 55.1153 235.18C55.1153 234.345 55.4243 233.692 56.0309 233.2C56.6376 232.708 57.4044 232.456 58.3201 232.456C59.2358 232.456 60.0027 232.708 60.6093 233.2C61.2159 233.692 61.525 234.356 61.525 235.18C61.525 236.005 61.2159 236.668 60.6093 237.161C60.0027 237.653 59.2358 237.893 58.3201 237.893C57.4044 237.893 56.6376 237.653 56.0309 237.161ZM63.6997 242.689C63.1045 243.067 62.475 243.307 61.8111 243.399L59.1213 241.338C58.6864 241.911 58.1713 242.38 57.5876 242.746C57.0038 243.113 56.3858 243.33 55.7448 243.41V242.437C56.2827 242.357 56.8093 242.14 57.3243 241.762C57.8394 241.384 58.2743 240.915 58.6177 240.354C58.9725 239.793 59.1671 239.198 59.2129 238.568L60.2087 238.706C60.1286 239.358 59.934 239.976 59.6135 240.572L62.04 242.403C62.5436 242.288 63.0358 242.037 63.5051 241.659C63.9744 241.281 64.3521 240.812 64.6726 240.274C64.9816 239.736 65.1762 239.164 65.2334 238.568L66.2292 238.706C66.1491 239.312 65.9774 239.885 65.7142 240.423L68.9419 242.62L68.3925 243.456L65.222 241.224C64.8099 241.831 64.3178 242.334 63.7111 242.712L63.6997 242.689ZM56.7062 233.876C56.2942 234.219 56.0996 234.654 56.0996 235.192C56.0996 235.73 56.3056 236.153 56.7062 236.497C57.1068 236.84 57.6563 237.023 58.3316 237.023C59.0069 237.023 59.5448 236.852 59.9569 236.497C60.3689 236.142 60.5635 235.707 60.5635 235.192C60.5635 234.677 60.3689 234.219 59.9683 233.876C59.5677 233.532 59.0183 233.361 58.3316 233.361C57.6448 233.361 57.1183 233.532 56.7062 233.876ZM63.1846 238.031V229.125H64.1346V232.731H66.916V229.034H67.9118V238.225H66.916V233.738H64.1346V238.031H63.1846Z" fill="black"/>
<path d="M74.6884 235.822L79.4959 241.923L78.6718 242.553L74.4022 237.036C73.9558 238.673 73.3491 239.989 72.5822 240.962C71.8153 241.935 70.911 242.518 69.8809 242.702V241.637C70.7622 241.431 71.5063 240.836 72.1358 239.84C72.7654 238.844 73.2461 237.562 73.5895 235.971C73.9215 234.38 74.1046 232.606 74.1275 230.649H70.1556V229.653H79.0495V230.649H75.1577C75.1348 232.618 74.9745 234.346 74.6769 235.822H74.6884ZM82.3003 243.674H81.2701V229.023H82.3003V243.674Z" fill="black"/>
<path d="M84.875 237.173V229.481H92.8071V237.173H84.875ZM97.1452 242.404V243.4H85.3328V238.844H86.363V242.415H97.1452V242.404ZM85.9052 230.443V236.2H91.7999V230.443H85.9052ZM98.782 233.831H96.6645V239.92H95.6343V229.023H96.6645V232.801H98.782V233.831Z" fill="black"/>
<path d="M116.295 242.873H102.479V241.865H108.832V237.722H103.487V229.652H115.311V230.66H104.517V236.726H115.471V237.722H109.885V241.865H116.295V242.873Z" fill="black"/>
<path d="M124.673 238.684H130.019V243.411H118.309V238.684H123.655V236.795H117.268V235.856H131.083V236.795H124.696V238.684H124.673ZM119.832 233.819C118.698 233.361 118.126 232.674 118.126 231.759C118.126 230.843 118.698 230.156 119.832 229.698C120.965 229.241 122.407 229.012 124.158 229.012C125.909 229.012 127.34 229.241 128.485 229.698C129.618 230.156 130.19 230.843 130.19 231.759C130.19 232.674 129.618 233.361 128.485 233.819C127.34 234.277 125.909 234.506 124.158 234.506C122.407 234.506 120.976 234.277 119.832 233.819ZM120.621 230.385C119.66 230.694 119.179 231.152 119.179 231.747C119.179 232.343 119.66 232.8 120.61 233.098C121.56 233.407 122.75 233.556 124.158 233.556C125.566 233.556 126.745 233.407 127.695 233.098C128.645 232.789 129.114 232.343 129.114 231.747C129.114 231.152 128.634 230.694 127.684 230.385C126.734 230.076 125.555 229.916 124.158 229.916C122.762 229.916 121.583 230.076 120.621 230.385ZM119.328 239.599V242.495H129V239.599H119.328Z" fill="black"/>
<path d="M138.249 237.539H135.444V236.624H138.672V234.506H136.074V229.493H142.232V230.408H137.058V233.613H142.404V234.506H139.679V236.601C141.328 236.566 142.541 236.383 143.308 236.051V236.967C142.495 237.345 140.813 237.539 138.249 237.539ZM144.304 242.702C143.708 243.091 143.067 243.32 142.392 243.388L139.645 241.236C139.222 241.843 138.718 242.347 138.123 242.724C137.528 243.102 136.898 243.331 136.223 243.388V242.415C136.795 242.347 137.333 242.141 137.837 241.774C138.34 241.408 138.752 240.939 139.084 240.355C139.416 239.771 139.611 239.142 139.657 238.466L140.607 238.558C140.572 239.199 140.412 239.829 140.126 240.447L142.621 242.392C143.148 242.289 143.628 242.049 144.075 241.683C144.521 241.305 144.899 240.836 145.196 240.286C145.483 239.726 145.654 239.119 145.689 238.478L146.684 238.592C146.639 239.21 146.49 239.817 146.261 240.389L149.466 242.702L148.951 243.48L145.78 241.168C145.368 241.809 144.876 242.324 144.269 242.713L144.304 242.702ZM144.132 237.974V229.081H145.128V232.4H147.623V229.023H148.619V238.26H147.623V233.373H145.128V237.974H144.132Z" fill="black"/>
<path d="M150.21 242.871V241.864H164.025V242.871H150.21ZM160.363 229.983C161.29 230.36 162.011 230.887 162.515 231.574C163.018 232.261 163.27 233.062 163.27 233.977C163.27 234.893 163.018 235.694 162.515 236.381C162.011 237.068 161.301 237.594 160.363 237.961C159.424 238.327 158.36 238.51 157.123 238.51C155.887 238.51 154.811 238.327 153.884 237.961C152.957 237.594 152.236 237.068 151.732 236.381C151.229 235.694 150.977 234.893 150.977 233.977C150.977 233.062 151.229 232.261 151.732 231.574C152.236 230.887 152.946 230.36 153.884 229.983C154.811 229.605 155.899 229.422 157.123 229.422C158.348 229.422 159.436 229.605 160.363 229.983ZM154.445 230.864C153.678 231.162 153.094 231.574 152.671 232.112C152.247 232.65 152.041 233.268 152.041 233.977C152.041 234.687 152.247 235.294 152.671 235.832C153.094 236.37 153.678 236.782 154.445 237.079C155.212 237.377 156.105 237.526 157.112 237.526C158.119 237.526 159.023 237.377 159.779 237.079C160.546 236.782 161.13 236.37 161.553 235.832C161.977 235.294 162.183 234.687 162.183 233.977C162.183 233.268 161.977 232.638 161.553 232.112C161.13 231.574 160.546 231.162 159.779 230.864C159.012 230.566 158.131 230.418 157.112 230.418C156.093 230.418 155.2 230.566 154.445 230.864Z" fill="black"/>
<path d="M166.909 236.521V241.706H171.568C172.232 241.706 172.884 241.637 173.548 241.511C174.212 241.385 174.75 241.214 175.173 240.996V241.992C174.75 242.221 174.212 242.392 173.548 242.518C172.884 242.644 172.22 242.702 171.545 242.702H165.856V235.548H172.575V230.649H165.845V229.653H173.594V236.521H166.921H166.909ZM176.73 243.674V229.023H177.76V243.674H176.73Z" fill="black"/>
<path d="M187.993 241.523C188.646 241.397 189.184 241.225 189.607 241.008V242.004C189.195 242.233 188.669 242.404 188.005 242.53C187.341 242.656 186.666 242.713 185.979 242.713H180.485V235.559H187.032V230.66H180.45V229.665H188.062V236.532H181.515V241.717H186.002C186.677 241.717 187.341 241.649 187.993 241.523ZM192.126 236.281V243.686H191.095V229.035H192.126V235.273H194.243V236.281H192.126Z" fill="black"/>
<path d="M197.963 237.059V236.051C199.176 235.662 200.012 234.872 200.504 233.682C200.985 232.503 201.225 231.004 201.225 229.195L202.221 229.229C202.221 230.5 202.129 231.587 201.935 232.469L205.391 235.88L204.704 236.624L201.637 233.533C200.95 235.41 199.726 236.589 197.974 237.047L197.963 237.059ZM209.649 238.695C210.782 239.142 211.354 239.851 211.354 240.813C211.354 241.774 210.782 242.484 209.649 242.93C208.516 243.377 207.062 243.594 205.288 243.594C203.514 243.594 202.072 243.365 200.927 242.93C199.794 242.484 199.222 241.774 199.222 240.813C199.222 239.851 199.794 239.142 200.916 238.695C202.049 238.249 203.503 238.032 205.288 238.032C207.074 238.032 208.504 238.249 209.649 238.695ZM208.814 242.209C209.775 241.9 210.267 241.442 210.267 240.813C210.267 240.183 209.786 239.714 208.825 239.405C207.864 239.107 206.685 238.959 205.288 238.959C203.892 238.959 202.701 239.107 201.74 239.405C200.779 239.703 200.286 240.172 200.286 240.813C200.286 241.454 200.767 241.9 201.74 242.209C202.701 242.518 203.892 242.667 205.288 242.667C206.685 242.667 207.852 242.518 208.814 242.209ZM206.17 237.116V229.126H207.165V232.022H210.107V229.023H211.114V237.585H210.107V233.03H207.165V237.116H206.17Z" fill="black"/>
<path d="M218.944 235.628C217.57 236.647 215.636 237.15 213.141 237.15V236.143C215.315 236.143 216.998 235.731 218.188 234.907C219.379 234.083 219.974 232.824 219.974 231.13V230.466H213.141V229.493H221.004V231.015C221.004 233.076 220.317 234.609 218.944 235.628ZM225.09 238.741V243.606H224.037V239.714H213.598V238.741H225.079H225.09ZM225.09 233.591V237.791H224.06V229.035H225.09V232.561H227.208V233.591H225.09Z" fill="black"/>
<path d="M227.471 231.333V230.417H231.649V228.758H232.702V230.417H236.902V231.333H227.482H227.471ZM230.103 237.079C229.497 236.873 229.016 236.575 228.673 236.186C228.329 235.797 228.157 235.351 228.157 234.847C228.157 234.344 228.329 233.886 228.673 233.508C229.016 233.119 229.497 232.821 230.103 232.604C230.71 232.386 231.408 232.283 232.186 232.283C232.965 232.283 233.64 232.386 234.247 232.604C234.853 232.821 235.334 233.119 235.678 233.508C236.021 233.897 236.193 234.344 236.193 234.847C236.193 235.351 236.021 235.809 235.678 236.186C235.334 236.564 234.853 236.873 234.247 237.079C233.64 237.285 232.953 237.4 232.186 237.4C231.42 237.4 230.721 237.297 230.103 237.079ZM239.855 238.063V243.386H228.524V238.063H229.531V239.746H238.837V238.063H239.844H239.855ZM230 233.634C229.451 233.954 229.165 234.366 229.165 234.847C229.165 235.328 229.439 235.74 230 236.06C230.55 236.381 231.282 236.541 232.186 236.541C233.091 236.541 233.812 236.381 234.373 236.06C234.934 235.74 235.197 235.328 235.197 234.847C235.197 234.366 234.922 233.954 234.373 233.634C233.823 233.313 233.091 233.153 232.186 233.153C231.282 233.153 230.55 233.313 230 233.634ZM238.848 240.605H229.542V242.493H238.848V240.605ZM239.855 233.393V237.4H238.825V229.021H239.855V232.375H241.973V233.382H239.855V233.393Z" fill="black"/>
<path d="M250.798 241.488C251.45 241.351 252 241.179 252.435 240.962V241.969C252.011 242.198 251.473 242.381 250.821 242.507C250.169 242.633 249.505 242.702 248.829 242.702H243.141V229.561H244.194V241.694H248.829C249.493 241.694 250.146 241.626 250.798 241.5V241.488ZM253.969 243.697V229.023H255.022V243.674L253.969 243.697Z" fill="black"/>
<path d="M265.231 241.511C265.895 241.374 266.444 241.202 266.856 240.985V241.992C266.433 242.21 265.895 242.381 265.231 242.507C264.567 242.633 263.892 242.702 263.217 242.702H257.757V229.653H265.769V230.649H258.787V241.717H263.251C263.903 241.717 264.556 241.649 265.231 241.523V241.511ZM269.386 236.281V243.686H268.356V229.035H269.386V235.273H271.504V236.281H269.386Z" fill="black"/>
<path d="M272.454 242.86C272.294 242.7 272.202 242.505 272.202 242.265C272.202 242.025 272.282 241.819 272.454 241.658C272.614 241.498 272.82 241.418 273.049 241.418C273.278 241.418 273.473 241.498 273.645 241.658C273.805 241.819 273.896 242.013 273.896 242.265C273.896 242.517 273.816 242.711 273.645 242.86C273.484 243.02 273.278 243.101 273.049 243.101C272.82 243.101 272.626 243.02 272.454 242.86Z" fill="black"/>
<path d="M286.132 239.496V244.017H285.079V239.496H278.703V238.488H292.519V239.496H286.132ZM282.56 235.638C281.427 236.348 280.248 236.703 279.035 236.714V235.684C280.054 235.684 281.038 235.386 282 234.78C282.961 234.173 283.785 233.36 284.461 232.33C285.136 231.3 285.594 230.178 285.8 228.977L286.887 229.183C286.693 230.11 286.361 231.037 285.891 231.964L292.015 235.798L291.523 236.68L285.376 232.822C284.621 233.99 283.682 234.929 282.538 235.638H282.56Z" fill="black"/>
<path d="M307.284 242.872H293.469V241.865H298.986V234.883H300.039V241.865H307.284V242.872ZM294.396 230.648V229.641H306.277V239.313H305.224V230.648H294.384H294.396Z" fill="black"/>
<path d="M317.586 231.564V232.559H308.566V231.564H312.55V228.988H313.603V231.564H317.586ZM315.011 234.563C315.583 234.929 316.041 235.455 316.373 236.131C316.705 236.806 316.865 237.584 316.865 238.454C316.865 239.324 316.705 240.102 316.373 240.766C316.041 241.43 315.583 241.957 315.011 242.323C314.427 242.689 313.786 242.872 313.076 242.872C312.367 242.872 311.726 242.689 311.153 242.323C310.581 241.957 310.135 241.43 309.803 240.766C309.471 240.102 309.31 239.324 309.31 238.454C309.31 237.584 309.471 236.795 309.803 236.131C310.135 235.467 310.581 234.94 311.153 234.563C311.726 234.185 312.367 234.013 313.076 234.013C313.786 234.013 314.438 234.196 315.011 234.563ZM314.461 241.476C314.885 241.19 315.217 240.789 315.468 240.263C315.72 239.736 315.846 239.141 315.846 238.454C315.846 237.767 315.72 237.161 315.468 236.634C315.217 236.108 314.885 235.696 314.461 235.41C314.038 235.123 313.58 234.975 313.065 234.975C312.55 234.975 312.092 235.112 311.668 235.41C311.245 235.707 310.913 236.108 310.661 236.634C310.409 237.161 310.283 237.767 310.283 238.454C310.283 239.141 310.409 239.748 310.661 240.263C310.913 240.789 311.245 241.19 311.668 241.476C312.092 241.762 312.55 241.911 313.065 241.911C313.58 241.911 314.038 241.774 314.461 241.476ZM320.619 236.279V243.685H319.589V229.034H320.619V235.272H322.737V236.279H320.619Z" fill="black"/>
<path d="M327.109 235.571L330.566 241.958L329.73 242.496L326.834 237.116C326.537 238.718 326.102 239.977 325.507 240.882C324.912 241.786 324.145 242.392 323.206 242.702V241.614C324.396 241.145 325.232 239.897 325.69 237.871C326.159 235.845 326.4 233.03 326.422 229.424L327.418 229.447C327.418 231.851 327.315 233.888 327.109 235.571ZM332.741 229.126V243.434H331.733V235.33H329.192V234.323H331.733V229.138H332.741V229.126ZM336.175 243.674H335.167V229.023H336.175V243.674Z" fill="black"/>
<path d="M351.581 242.87H337.766V241.874H341.199V237.445C340.33 237.079 339.666 236.575 339.208 235.945C338.739 235.316 338.51 234.572 338.51 233.725C338.51 232.878 338.761 232.088 339.277 231.436C339.78 230.783 340.501 230.28 341.428 229.925C342.356 229.57 343.443 229.387 344.668 229.387C345.892 229.387 346.98 229.57 347.907 229.925C348.834 230.28 349.555 230.783 350.059 231.436C350.562 232.088 350.826 232.843 350.826 233.725C350.826 234.606 350.597 235.316 350.127 235.945C349.658 236.575 349.006 237.079 348.147 237.445V241.874H351.558V242.87H351.581ZM342.012 230.806C341.245 231.081 340.661 231.47 340.238 231.985C339.814 232.5 339.608 233.084 339.608 233.736C339.608 234.389 339.814 235.007 340.238 235.51C340.661 236.014 341.245 236.415 342.012 236.689C342.779 236.964 343.66 237.101 344.679 237.101C345.698 237.101 346.591 236.964 347.346 236.689C348.113 236.415 348.697 236.025 349.12 235.51C349.544 234.995 349.75 234.412 349.75 233.736C349.75 233.061 349.544 232.489 349.12 231.985C348.697 231.481 348.113 231.081 347.346 230.806C346.579 230.531 345.698 230.394 344.679 230.394C343.66 230.394 342.768 230.531 342.012 230.806ZM347.14 241.886V237.8C346.419 237.994 345.595 238.086 344.679 238.086C343.763 238.086 342.962 237.994 342.241 237.8V241.886H347.14Z" fill="black"/>
<path d="M96.3658 28.4805H45.0186C42.3699 28.4805 40.2227 30.6278 40.2227 33.2766V84.626C40.2227 87.2748 42.3699 89.4221 45.0186 89.4221H96.3658C99.0145 89.4221 101.162 87.2748 101.162 84.626V33.2766C101.162 30.6278 99.0145 28.4805 96.3658 28.4805Z" fill="#4AB65B"/>
<path d="M75.9688 59.9921L64.9805 44.2188H55.8809V73.6823H65.4155V57.9203L76.3923 73.6823H85.4919V44.2188H75.9688V59.9921Z" fill="white"/>
<path d="M122.395 52.7368V53.7555C121.983 53.9501 121.468 54.0989 120.85 54.2019C120.231 54.3049 119.591 54.3621 118.915 54.3621H115.481V40.9816H116.5V53.3434H119.075C120.426 53.3434 121.536 53.1374 122.395 52.7368ZM125.027 40.4666V55.0947H123.997V47.174H119.819V46.1438H123.997V40.4666H125.027ZM128.404 55.3465H127.374V40.375H128.404V55.3465Z" fill="black"/>
<path d="M137.515 41.5539C138.145 42.0576 138.637 42.8245 138.992 43.8546C139.347 44.8848 139.53 46.1553 139.53 47.6776C139.53 49.1999 139.347 50.4705 138.992 51.5006C138.637 52.5308 138.145 53.2976 137.515 53.8013C136.886 54.3049 136.153 54.5567 135.318 54.5567C134.047 54.5567 133.028 53.973 132.262 52.8169C131.495 51.6494 131.105 49.9439 131.105 47.6776C131.105 45.4113 131.483 43.7058 132.262 42.5383C133.028 41.3708 134.047 40.7985 135.318 40.7985C136.153 40.7985 136.886 41.0503 137.515 41.5539ZM133.017 43.3166C132.433 44.301 132.136 45.7661 132.136 47.6891C132.136 49.612 132.422 51.0657 133.017 52.0615C133.601 53.0458 134.368 53.538 135.318 53.538C136.268 53.538 137.012 53.0458 137.596 52.0615C138.168 51.0771 138.465 49.6235 138.465 47.6891C138.465 45.7547 138.179 44.3125 137.596 43.3166C137.023 42.3323 136.256 41.8401 135.318 41.8401C134.379 41.8401 133.601 42.3323 133.017 43.3166ZM142.403 55.3465V40.375H143.479V55.3465H142.403Z" fill="black"/>
<path d="M159.011 55.3462H157.936V47.8605H154.387V54.3504H146.661V40.8555H147.714V46.4183H153.334V40.8555H154.387V46.8189H157.936V40.3633H159.011V55.3348V55.3462ZM153.346 47.4255H147.726V53.3317H153.346V47.4255Z" fill="black"/>
<path d="M173.467 41.016V45.0565C173.467 46.9565 173.135 48.6047 172.483 49.9897C171.83 51.3861 170.915 52.4506 169.747 53.1832C168.58 53.9272 167.24 54.2935 165.729 54.2935V53.2633C167.389 53.2633 168.786 52.7711 169.919 51.7868C171.052 50.8024 171.796 49.406 172.162 47.6089H165.729V46.5902H172.322C172.368 46.2812 172.403 45.7776 172.403 45.0908V42.0347H165.729V41.016H173.467ZM177.794 47.7806V55.3465H176.741V40.375H177.794V46.7505H179.957V47.7806H177.794Z" fill="black"/>
<path d="M188.634 52.5422V53.5724C187.684 54.0989 185.978 54.3507 183.529 54.3507H180.507V53.3549H182.052V42.0003H180.61V41.0045H187.981V42.0003H186.505V53.1717C187.317 53.0573 188.038 52.8398 188.645 52.5308L188.634 52.5422ZM185.52 53.2748V42.0003H183.025V53.3549C184.158 53.3549 184.982 53.332 185.52 53.2748ZM190.866 40.4666V55.0947H189.847V47.7806H187.775V46.7505H189.847V40.4666H190.866ZM194.036 55.3465H193.017V40.375H194.036V55.3465Z" fill="black"/>
<path d="M200.595 44.1412C200.423 43.9809 200.343 43.7749 200.343 43.5231C200.343 43.2941 200.423 43.0881 200.595 42.9279C200.766 42.7676 200.961 42.6875 201.201 42.6875C201.442 42.6875 201.636 42.7676 201.808 42.9279C201.98 43.0881 202.06 43.2941 202.06 43.5231C202.06 43.7749 201.98 43.9809 201.808 44.1412C201.636 44.3014 201.442 44.3815 201.201 44.3815C200.961 44.3815 200.766 44.3014 200.595 44.1412ZM200.595 52.783C200.423 52.6227 200.343 52.4167 200.343 52.1649C200.343 51.9359 200.423 51.7299 200.595 51.5697C200.766 51.4094 200.961 51.3293 201.201 51.3293C201.442 51.3293 201.636 51.4094 201.808 51.5697C201.98 51.7299 202.06 51.9359 202.06 52.1649C202.06 52.4167 201.98 52.6227 201.808 52.783C201.636 52.9432 201.442 53.0233 201.201 53.0233C200.961 53.0233 200.766 52.9432 200.595 52.783Z" fill="black"/>
<path d="M218.05 52.1061V55.6887H216.997V52.1061H212.487V55.6887H211.434V52.1061H207.691V51.1103H221.804V52.1061H218.038H218.05ZM208.241 43.1552V42.1594H214.193V39.9961H215.269V42.1594H221.255V43.1552H208.252H208.241ZM210.587 45.0896C211.652 44.6318 213.037 44.4028 214.754 44.4028C216.47 44.4028 217.855 44.6318 218.931 45.0896C220.007 45.5475 220.534 46.2228 220.534 47.1156C220.534 48.0084 219.996 48.6951 218.931 49.1415C217.867 49.5879 216.47 49.8283 214.754 49.8283C213.037 49.8283 211.652 49.5994 210.587 49.1415C209.523 48.6837 208.996 48.0084 208.996 47.1156C208.996 46.2228 209.523 45.5475 210.587 45.0896ZM218.13 45.7878C217.26 45.4902 216.138 45.3414 214.742 45.3414C213.346 45.3414 212.213 45.4902 211.354 45.7878C210.496 46.0854 210.072 46.5318 210.072 47.1156C210.072 47.6993 210.507 48.1343 211.354 48.4319C212.213 48.7295 213.346 48.8668 214.742 48.8668C216.138 48.8668 217.272 48.718 218.13 48.4319C218.989 48.1343 219.412 47.6993 219.412 47.1156C219.412 46.5318 218.977 46.0854 218.119 45.7878H218.13Z" fill="black"/>
<path d="M228.855 53.1946C229.428 53.0802 229.954 52.9428 230.4 52.7597V53.7555C229.966 53.9386 229.45 54.0874 228.832 54.1904C228.214 54.3049 227.585 54.3507 226.932 54.3507H223.682V41.016H229.805V42.0118H224.7V53.3663H227.104C227.699 53.3663 228.294 53.3091 228.867 53.1946H228.855ZM236.593 55.3465H235.563V47.7005H232.655V55.0947H231.648V40.4666H232.655V46.6932H235.563V40.375H236.593V55.3465Z" fill="black"/>
<path d="M244.822 45.0677L244.456 45.7087L241.938 44.2665L241.961 47.1166H241.24V44.2894L238.744 45.7087L238.39 45.0677L240.862 43.6598L238.39 42.252L238.744 41.611L241.24 43.0532V40.2031H241.961L241.938 43.0532L244.456 41.611L244.822 42.252L242.327 43.6598L244.822 45.0677Z" fill="black"/>
<path d="M252.171 45.0677L251.805 45.7087L249.287 44.2665L249.309 47.1166H248.588V44.2894L246.093 45.7087L245.738 45.0677L248.211 43.6598L245.738 42.252L246.093 41.611L248.588 43.0532V40.2031H249.309L249.287 43.0532L251.805 41.611L252.171 42.252L249.676 43.6598L252.171 45.0677Z" fill="black"/>
<path d="M259.519 45.0677L259.152 45.7087L256.634 44.2665L256.657 47.1166H255.936V44.2894L253.441 45.7087L253.086 45.0677L255.558 43.6598L253.086 42.252L253.441 41.611L255.936 43.0532V40.2031H256.657L256.634 43.0532L259.152 41.611L259.519 42.252L257.023 43.6598L259.519 45.0677Z" fill="black"/>
<path d="M268.962 41.016V45.0565C268.962 46.9565 268.63 48.6047 267.978 49.9897C267.325 51.3861 266.41 52.4506 265.242 53.1832C264.075 53.9272 262.735 54.2935 261.225 54.2935V53.2633C262.884 53.2633 264.281 52.7711 265.414 51.7868C266.547 50.8024 267.291 49.406 267.657 47.6089H261.225V46.5902H267.818C267.863 46.2812 267.898 45.7776 267.898 45.0908V42.0347H261.225V41.016H268.962ZM273.289 47.7806V55.3465H272.236V40.375H273.289V46.7505H275.452V47.7806H273.289Z" fill="black"/>
<path d="M284.129 52.5422V53.5724C283.179 54.0989 281.473 54.3507 279.024 54.3507H276.002V53.3549H277.547V42.0003H276.105V41.0045H283.476V42.0003H282V53.1717C282.812 53.0573 283.533 52.8398 284.14 52.5308L284.129 52.5422ZM281.015 53.2748V42.0003H278.52V53.3549C279.653 53.3549 280.477 53.332 281.015 53.2748ZM286.361 40.4666V55.0947H285.342V47.7806H283.27V46.7505H285.342V40.4666H286.361ZM289.531 55.3465H288.513V40.375H289.531V55.3465Z" fill="black"/>
<path d="M125.164 73.6013H116.751C116.832 74.6429 117.221 75.4785 117.908 76.108C118.594 76.7375 119.464 77.058 120.517 77.058C121.765 77.058 122.772 76.6116 123.516 75.7188L124.523 76.8749C124.054 77.4472 123.482 77.8936 122.784 78.1912C122.085 78.4888 121.318 78.649 120.471 78.649C119.384 78.649 118.423 78.4087 117.564 77.9394C116.717 77.4701 116.053 76.8062 115.584 75.9592C115.115 75.1122 114.886 74.1622 114.886 73.0862C114.886 72.0103 115.115 71.0832 115.561 70.2362C116.007 69.3892 116.637 68.7253 117.427 68.2445C118.217 67.7638 119.098 67.5234 120.071 67.5234C121.044 67.5234 121.902 67.7524 122.681 68.2102C123.459 68.668 124.077 69.3205 124.523 70.1675C124.97 71.0145 125.187 71.976 125.187 73.0634C125.187 73.2007 125.176 73.3838 125.141 73.6013H125.164ZM117.793 69.9843C117.175 70.6024 116.832 71.4037 116.74 72.388H123.447C123.356 71.4037 122.99 70.6024 122.371 69.9843C121.753 69.3663 120.987 69.0572 120.082 69.0572C119.178 69.0572 118.4 69.3663 117.782 69.9843H117.793Z" fill="black"/>
<path d="M133.646 68.4627L133.005 69.5501L130.51 68.085L130.533 70.8893H129.297L129.319 68.085L126.824 69.5501L126.206 68.4627L128.678 67.0892L126.206 65.7156L126.824 64.6283L129.319 66.0934L129.297 63.2891H130.533L130.51 66.0934L133.005 64.6283L133.646 65.7156L131.174 67.0892L133.646 68.4627Z" fill="black"/>
<path d="M141.876 68.4627L141.236 69.5501L138.74 68.085L138.763 70.8893H137.527L137.55 68.085L135.055 69.5501L134.437 68.4627L136.909 67.0892L134.437 65.7156L135.055 64.6283L137.55 66.0934L137.527 63.2891H138.763L138.74 66.0934L141.236 64.6283L141.876 65.7156L139.404 67.0892L141.876 68.4627Z" fill="black"/>
<path d="M153.424 78.5462H151.65V76.4515C151.25 77.1497 150.723 77.6877 150.071 78.0769C149.418 78.466 148.663 78.6492 147.827 78.6492C146.866 78.6492 145.996 78.4203 145.218 77.951C144.439 77.4817 143.821 76.8293 143.375 75.9822C142.928 75.1352 142.711 74.1738 142.711 73.0864C142.711 71.999 142.928 71.0375 143.375 70.1905C143.821 69.3435 144.439 68.6911 145.218 68.2218C145.996 67.7525 146.866 67.5236 147.827 67.5236C148.64 67.5236 149.373 67.7067 150.014 68.0844C150.666 68.4507 151.181 68.9887 151.57 69.664V63.2656H153.424V78.5347V78.5462ZM149.876 76.5431C150.414 76.2226 150.838 75.7648 151.147 75.1696C151.456 74.5744 151.605 73.8876 151.605 73.0978C151.605 72.308 151.456 71.6442 151.147 71.049C150.838 70.4538 150.414 69.9959 149.876 69.6754C149.338 69.3549 148.743 69.1947 148.091 69.1947C147.438 69.1947 146.82 69.3549 146.282 69.6754C145.744 69.9959 145.332 70.4538 145.023 71.049C144.714 71.6442 144.565 72.3309 144.565 73.0978C144.565 73.8647 144.714 74.5744 145.023 75.1696C145.321 75.7648 145.744 76.2226 146.282 76.5431C146.82 76.8636 147.427 77.0238 148.091 77.0238C148.754 77.0238 149.35 76.8636 149.876 76.5431Z" fill="black"/>
<path d="M166.096 78.5454H164.344V76.5881C163.978 77.252 163.475 77.7556 162.868 78.1104C162.25 78.4653 161.54 78.6484 160.727 78.6484C159.4 78.6484 158.347 78.2478 157.557 77.4466C156.767 76.6454 156.378 75.4778 156.378 73.9326V67.6602H158.232V73.6694C158.232 74.7567 158.473 75.5694 158.976 76.1303C159.48 76.6911 160.167 76.9658 161.071 76.9658C162.044 76.9658 162.822 76.6453 163.394 76.0044C163.967 75.3634 164.264 74.4591 164.264 73.2916V67.6716H166.096V78.5568V78.5454Z" fill="black"/>
<path d="M175.378 68.4627L174.737 69.5501L172.242 68.085L172.265 70.8893H171.029L171.052 68.085L168.557 69.5501L167.938 68.4627L170.411 67.0892L167.938 65.7156L168.557 64.6283L171.052 66.0934L171.029 63.2891H172.265L172.242 66.0934L174.737 64.6283L175.378 65.7156L172.906 67.0892L175.378 68.4627Z" fill="black"/>
<path d="M183.608 68.4627L182.967 69.5501L180.472 68.085L180.495 70.8893H179.258L179.281 68.085L176.786 69.5501L176.168 68.4627L178.64 67.0892L176.168 65.7156L176.786 64.6283L179.281 66.0934L179.258 63.2891H180.495L180.472 66.0934L182.967 64.6283L183.608 65.7156L181.136 67.0892L183.608 68.4627Z" fill="black"/>
<path d="M191.827 78.5435H189.812V65.7811H186.562V64.1328H191.827V78.5435Z" fill="black"/>
<path d="M206.249 69.2178C207.061 69.0919 207.691 68.9202 208.16 68.7027V70.3853C207.714 70.6028 207.061 70.7745 206.237 70.9004C205.402 71.0263 204.486 71.0835 203.467 71.0835H197.664V63.7008H199.541V69.4009H203.536C204.543 69.4009 205.447 69.3437 206.249 69.2178ZM198.259 79.0614V72.7661H211.079V79.0614H198.259ZM209.213 74.4258H200.114V77.3903H209.213V74.4258ZM209.213 71.8389V63.4375H211.09V71.8389H209.213Z" fill="black"/>
<path d="M225.822 76.3819V79.6097H223.933V76.3819H217.363V74.6306H232.381V76.3819H225.811H225.822ZM217.913 66.6298V64.9472H223.899V63.0586H225.788V64.9472H231.82V66.6298H217.913ZM220.339 68.3467C221.484 67.8431 222.995 67.5913 224.872 67.5913C226.749 67.5913 228.272 67.8431 229.416 68.3467C230.572 68.8503 231.145 69.5943 231.145 70.5787C231.145 71.563 230.572 72.307 229.416 72.8107C228.26 73.3143 226.749 73.5661 224.872 73.5661C222.995 73.5661 221.484 73.3143 220.339 72.8107C219.195 72.307 218.622 71.563 218.622 70.5787C218.622 69.5943 219.195 68.8503 220.339 68.3467ZM228.043 69.5371C227.23 69.2967 226.177 69.1823 224.872 69.1823C223.567 69.1823 222.514 69.2967 221.713 69.5371C220.912 69.7775 220.511 70.1208 220.511 70.5787C220.511 71.0365 220.912 71.3914 221.701 71.6317C222.491 71.8721 223.556 71.9866 224.872 71.9866C226.188 71.9866 227.253 71.8721 228.054 71.6317C228.855 71.3914 229.256 71.048 229.256 70.5787C229.256 70.1094 228.855 69.7775 228.043 69.5371Z" fill="black"/>
<path d="M241.72 73.3498C241.045 74.9179 240.072 76.1312 238.813 76.9897C237.554 77.8481 236.066 78.2716 234.372 78.2716V76.4174C235.7 76.4174 236.856 76.074 237.829 75.3758C238.801 74.6776 239.545 73.6932 240.061 72.4112C240.576 71.1293 240.827 69.6184 240.827 67.8786V65.7611H234.36V63.9869H242.739V67.8328C242.739 69.9274 242.396 71.7703 241.72 73.3384V73.3498ZM245.887 79.2446V63.4375H247.764V79.2446H245.887Z" fill="black"/>
<path d="M48.9681 121.667V128.329H47.709V121.667H40.1318V120.385H56.7627V121.667H48.9795H48.9681ZM41.3222 112.018V110.805H55.4464V118.68H54.1874V112.018H41.3222Z" fill="#17544F"/>
<path d="M65.9319 111.021V126.737H58.9727V111.021H65.9319ZM64.7072 125.546V112.223H60.1287V125.546H64.7072ZM74.1731 127.916H72.9598V118.93H69.5374V127.618H68.347V110.38H69.5374V117.706H72.9598V110.266H74.1731V127.916Z" fill="#17544F"/>
<path d="M93.2643 124.105V128.329H92.0281V124.105H86.7171V128.329H85.481V124.105H81.0742V122.938H97.7054V124.105H93.2758H93.2643ZM81.7152 113.552V112.385H88.7202V109.832H89.9793V112.385H97.0301V113.552H81.7038H81.7152ZM84.4737 115.83C85.7213 115.292 87.3581 115.029 89.3841 115.029C91.4101 115.029 93.0468 115.292 94.3059 115.83C95.565 116.368 96.1945 117.158 96.1945 118.222C96.1945 119.287 95.565 120.076 94.3059 120.614C93.0468 121.152 91.4101 121.415 89.3841 121.415C87.3581 121.415 85.7213 121.152 84.4737 120.614C83.2261 120.076 82.5966 119.287 82.5966 118.222C82.5966 117.158 83.2261 116.368 84.4737 115.83ZM93.3673 116.654C92.3486 116.299 91.0209 116.127 89.3841 116.127C87.7473 116.127 86.3967 116.299 85.3894 116.654C84.3821 117.009 83.8785 117.524 83.8785 118.222C83.8785 118.92 84.3821 119.424 85.3894 119.767C86.3967 120.111 87.7359 120.282 89.3841 120.282C91.0323 120.282 92.3715 120.111 93.3788 119.767C94.386 119.424 94.8897 118.909 94.8897 118.222C94.8897 117.535 94.3746 117.009 93.3673 116.654Z" fill="#17544F"/>
<path d="M106.004 125.374C106.679 125.249 107.298 125.077 107.835 124.859V126.027C107.332 126.244 106.714 126.416 105.981 126.542C105.26 126.668 104.505 126.737 103.738 126.737H99.9033V111.021H107.114V112.189H101.094V125.558H103.921C104.631 125.558 105.317 125.489 106.004 125.363V125.374ZM115.115 127.916H113.902V118.907H110.48V127.618H109.289V110.38H110.48V117.706H113.902V110.266H115.115V127.916Z" fill="#17544F"/>
<path d="M134.093 121.414H117.462V120.27H125.154V117.786H118.469V116.664H121.663V111.696H118.652V110.598H132.903V111.696H129.892V116.664H133.063V117.786H126.401V120.27H134.093V121.414ZM133.2 126.462V127.584H118.721V122.959H119.98V126.451H133.189L133.2 126.462ZM128.656 116.653V111.685H122.91V116.653H128.656Z" fill="#17544F"/>
<path d="M141.041 114.717C140.846 114.523 140.743 114.282 140.743 113.996C140.743 113.721 140.846 113.492 141.041 113.298C141.235 113.103 141.476 113.012 141.75 113.012C142.025 113.012 142.265 113.103 142.46 113.298C142.655 113.492 142.758 113.721 142.758 113.996C142.758 114.282 142.655 114.534 142.46 114.717C142.265 114.9 142.025 115.003 141.75 115.003C141.476 115.003 141.235 114.912 141.041 114.717ZM141.041 124.893C140.846 124.698 140.743 124.458 140.743 124.172C140.743 123.897 140.846 123.668 141.041 123.473C141.235 123.279 141.476 123.187 141.75 123.187C142.025 123.187 142.265 123.279 142.46 123.473C142.655 123.668 142.758 123.897 142.758 124.172C142.758 124.458 142.655 124.71 142.46 124.893C142.265 125.076 142.025 125.179 141.75 125.179C141.476 125.179 141.235 125.087 141.041 124.893Z" fill="#17544F"/>
<path d="M160.556 116C159.95 116.927 159.126 117.625 158.061 118.106C157.008 118.587 155.795 118.816 154.433 118.816V117.671C156.184 117.66 157.58 117.225 158.645 116.366C159.709 115.508 160.247 114.295 160.247 112.738V111.96H154.433V110.838H161.461V112.704C161.461 113.986 161.163 115.096 160.556 116.023V116ZM170.331 127.572H155.531V123.463H168.557V121.483H155.486V120.43H169.805V124.424H156.756V126.519H170.331V127.572ZM163.853 119.113V110.38H165.043V113.825H168.58V110.266H169.793V119.297H168.58V115.027H165.043V119.113H163.853Z" fill="#17544F"/>
<path d="M180.598 111.926H172.918V110.827H181.834V116.161H174.177V119.331H178.218C179.534 119.331 180.713 119.251 181.754 119.091C182.796 118.931 183.609 118.702 184.215 118.416V119.537C183.666 119.812 182.853 120.029 181.766 120.19C180.678 120.35 179.454 120.43 178.08 120.43H172.952V115.073H180.587V111.926H180.598ZM187.672 122.467V127.824H186.436V123.624H173.593V122.479H187.672V122.467ZM187.672 121.323H186.436V115.348H183.128V114.18H186.436V110.277H187.672V121.334V121.323Z" fill="#17544F"/>
<path d="M196.818 118.175L202.495 125.947L201.511 126.702L196.452 119.697C195.891 121.792 195.124 123.463 194.151 124.688C193.189 125.912 192.045 126.599 190.729 126.759V125.5C191.907 125.283 192.915 124.493 193.739 123.108C194.563 121.723 195.192 119.96 195.616 117.809C196.039 115.657 196.257 113.31 196.268 110.769L197.527 110.792C197.493 113.596 197.264 116.057 196.818 118.186V118.175ZM205.734 127.916H204.498V110.266H205.734V127.916Z" fill="#17544F"/>
<path d="M210.896 126.645C209.878 126.245 209.088 125.73 208.516 125.089L209.042 124.173C209.58 124.757 210.301 125.238 211.228 125.615C212.144 125.993 213.105 126.188 214.101 126.188C215.52 126.188 216.608 125.89 217.34 125.306C218.073 124.723 218.439 123.967 218.439 123.063C218.439 122.353 218.244 121.792 217.855 121.357C217.466 120.922 216.985 120.602 216.413 120.384C215.841 120.167 215.063 119.927 214.078 119.663C212.957 119.377 212.064 119.091 211.377 118.816C210.69 118.542 210.118 118.107 209.637 117.534C209.157 116.951 208.928 116.184 208.928 115.211C208.928 114.432 209.122 113.723 209.523 113.07C209.923 112.429 210.53 111.914 211.331 111.525C212.144 111.136 213.151 110.941 214.341 110.941C215.2 110.941 216.035 111.067 216.871 111.331C217.707 111.594 218.405 111.949 218.988 112.384L218.553 113.368C217.935 112.922 217.26 112.578 216.516 112.349C215.772 112.109 215.051 111.994 214.341 111.994C212.945 111.994 211.892 112.292 211.182 112.887C210.473 113.482 210.118 114.249 210.118 115.188C210.118 115.898 210.313 116.458 210.702 116.893C211.091 117.328 211.572 117.649 212.144 117.878C212.716 118.107 213.517 118.358 214.525 118.61C215.646 118.896 216.539 119.183 217.214 119.457C217.89 119.732 218.462 120.156 218.931 120.716C219.4 121.277 219.629 122.044 219.629 122.994C219.629 123.772 219.423 124.482 219.023 125.135C218.622 125.776 217.993 126.291 217.169 126.668C216.333 127.046 215.314 127.241 214.101 127.241C212.979 127.241 211.915 127.046 210.896 126.645Z" fill="#17544F"/>
<path d="M232.827 127.138H221.724V126.268L228.5 119.515C229.393 118.645 229.988 117.889 230.309 117.248C230.618 116.607 230.778 115.967 230.778 115.303C230.778 114.295 230.434 113.494 229.736 112.91C229.038 112.327 228.042 112.041 226.76 112.041C224.769 112.041 223.246 112.67 222.182 113.929L221.289 113.219C221.907 112.487 222.674 111.926 223.624 111.537C224.563 111.148 225.639 110.953 226.852 110.953C228.431 110.953 229.69 111.331 230.618 112.086C231.556 112.842 232.014 113.895 232.014 115.223C232.014 116.047 231.831 116.836 231.476 117.592C231.121 118.347 230.434 119.217 229.416 120.213L223.555 126.051H232.815V127.149L232.827 127.138Z" fill="#17544F"/>
<path d="M244.88 119.33C245.807 120.154 246.265 121.242 246.265 122.604C246.265 123.508 246.048 124.309 245.624 125.007C245.189 125.706 244.56 126.255 243.701 126.644C242.854 127.045 241.824 127.239 240.633 127.239C239.443 127.239 238.356 127.045 237.337 126.656C236.318 126.267 235.528 125.751 234.956 125.099L235.528 124.16C236.032 124.744 236.742 125.214 237.646 125.591C238.55 125.958 239.535 126.141 240.588 126.141C241.996 126.141 243.083 125.82 243.85 125.191C244.617 124.561 244.995 123.691 244.995 122.604C244.995 121.516 244.605 120.612 243.838 119.994C243.06 119.376 241.904 119.067 240.359 119.067H239.329V118.197L244.067 112.131H235.54V111.055H245.647V111.902L240.84 118.06C242.602 118.094 243.942 118.518 244.869 119.33H244.88Z" fill="#17544F"/>
<path d="M255.479 118.979H263.571V120.055H255.479V127.129H254.266V111.047H264.533V112.123H255.479V118.968V118.979Z" fill="#17544F"/>
<path d="M277.467 127.136H266.902V111.055H277.169V112.131H268.116V118.426H276.208V119.502H268.116V126.026H277.467V127.125V127.136Z" fill="#17544F"/>
<path d="M434.69 288.008H39.3418V289.152H434.69V288.008Z" fill="#CBCBCB"/>
<path d="M466.041 296.386H450.269V295.23H456.564V287.263H457.766V295.23H466.041V296.386ZM451.322 282.422V281.266H464.896V292.311H463.695V282.422H451.322Z" fill="#989898"/>
<path d="M473.79 287.148C473.218 288.133 472.428 288.888 471.421 289.403C470.414 289.918 469.269 290.17 467.976 290.17V289.06C469.051 289.048 470.002 288.831 470.837 288.407C471.673 287.984 472.325 287.366 472.783 286.553C473.252 285.74 473.481 284.779 473.481 283.657V282.181H467.976V281.093H474.637V283.623C474.637 284.985 474.351 286.164 473.779 287.148H473.79ZM482.558 291.99V297.221H481.379V293.077H468.88V291.99H482.558ZM482.558 290.903H481.402V285.832H478.048V290.731H476.915V280.693H478.048V284.676H481.402V280.578H482.558V290.903Z" fill="#989898"/>
<path d="M494.497 287.171C495.481 287.022 496.259 286.828 496.832 286.564V287.698C496.294 287.961 495.515 288.167 494.497 288.304C493.478 288.442 492.322 288.522 491.029 288.522H485.626V280.99H486.805V287.389H491.12C492.379 287.389 493.512 287.32 494.497 287.171ZM486.233 296.98V290.731H499.373V296.98H486.233ZM498.194 291.841H487.412V295.893H498.194V291.841ZM498.194 289.483V280.578H499.373V289.483H498.194Z" fill="#989898"/>
<path d="M511.597 295.977C510.578 296.126 509.399 296.194 508.071 296.194H502.039V295.038H508.186C509.479 295.038 510.624 294.97 511.631 294.821C512.638 294.672 513.405 294.466 513.966 294.191V295.347C513.417 295.622 512.627 295.828 511.608 295.977H511.597ZM509.948 281.726C510.681 282.173 511.253 282.779 511.665 283.569C512.078 284.359 512.284 285.252 512.284 286.248C512.284 287.243 512.078 288.125 511.665 288.903C511.253 289.681 510.681 290.3 509.948 290.746C509.216 291.192 508.38 291.41 507.453 291.41C506.526 291.41 505.69 291.192 504.958 290.746C504.225 290.3 503.653 289.693 503.241 288.903C502.829 288.113 502.623 287.232 502.623 286.248C502.623 285.263 502.829 284.348 503.241 283.569C503.653 282.791 504.225 282.173 504.958 281.726C505.69 281.28 506.526 281.062 507.453 281.062C508.38 281.062 509.216 281.28 509.948 281.726ZM505.542 282.699C504.992 283.054 504.557 283.546 504.248 284.164C503.939 284.782 503.779 285.481 503.779 286.248C503.779 287.014 503.939 287.69 504.248 288.308C504.557 288.926 504.992 289.407 505.542 289.762C506.091 290.116 506.732 290.288 507.465 290.288C508.197 290.288 508.838 290.116 509.388 289.762C509.937 289.407 510.383 288.926 510.681 288.308C510.99 287.69 511.139 287.003 511.139 286.248C511.139 285.492 510.99 284.782 510.681 284.164C510.372 283.546 509.948 283.066 509.388 282.699C508.827 282.344 508.186 282.161 507.465 282.161C506.744 282.161 506.103 282.344 505.542 282.699ZM515.511 297.305V280.57H516.667V297.305H515.511Z" fill="#989898"/>
<path d="M526.924 287.263C526.02 287.858 525.001 288.27 523.856 288.487V287.354C524.921 287.125 525.837 286.69 526.638 286.049C527.428 285.408 528.034 284.63 528.446 283.703C528.859 282.776 529.076 281.803 529.087 280.773L530.244 280.841C530.244 282.02 530.037 283.085 529.637 284.046L535.017 287.228L534.433 288.213L529.122 285.031C528.572 285.935 527.84 286.679 526.947 287.274L526.924 287.263ZM538.691 296.98H525.081V292.974H536.997V290.925H525.035V289.907H538.187V293.913H526.249V295.985H538.691V296.992V296.98ZM537.02 288.808V280.578H538.199V288.808H537.02Z" fill="#989898"/>
<path d="M545.352 288.01L549.312 295.393L548.351 295.977L545.043 289.727C544.345 293.493 543.017 295.645 541.06 296.194V294.97C542.204 294.557 543.063 293.253 543.635 291.043C544.207 288.834 544.493 285.961 544.505 282.413H541.277V281.28H548.751V282.413H545.661C545.627 284.634 545.535 286.488 545.352 287.987V288.01ZM551.693 280.685V297.018H550.56V288.308H547.79V287.152H550.56V280.685H551.693ZM555.882 297.305H554.726V280.57H555.882V297.305Z" fill="#989898"/>
<path d="M570.888 293.754V297.692H569.686V293.754H562.406V292.621H578.179V293.754H570.876H570.888ZM563.024 283.693V282.583H569.663V280.168H570.865V282.583H577.549V283.693H563.024ZM565.645 285.857C566.824 285.342 568.381 285.078 570.292 285.078C572.204 285.078 573.761 285.342 574.951 285.857C576.141 286.372 576.737 287.139 576.737 288.157C576.737 289.176 576.141 289.92 574.951 290.435C573.761 290.95 572.204 291.202 570.292 291.202C568.381 291.202 566.824 290.95 565.645 290.435C564.466 289.92 563.871 289.165 563.871 288.157C563.871 287.15 564.466 286.372 565.645 285.857ZM574.081 286.669C573.12 286.326 571.849 286.154 570.304 286.154C568.759 286.154 567.488 286.326 566.527 286.669C565.565 287.013 565.073 287.505 565.073 288.157C565.073 288.81 565.554 289.302 566.515 289.634C567.477 289.966 568.736 290.138 570.304 290.138C571.872 290.138 573.12 289.966 574.081 289.634C575.043 289.302 575.535 288.81 575.535 288.157C575.535 287.505 575.054 287.013 574.081 286.669Z" fill="#989898"/>
<path d="M588.091 290.883C587.393 292.554 586.397 293.848 585.081 294.763C583.776 295.679 582.242 296.137 580.479 296.137V294.958C581.99 294.958 583.307 294.557 584.44 293.756C585.561 292.955 586.431 291.822 587.026 290.334C587.633 288.857 587.931 287.117 587.931 285.126V282.425H580.479V281.291H589.133V285.057C589.133 287.266 588.789 289.201 588.091 290.872V290.883ZM593.081 297.305V280.57H594.26V297.305H593.081Z" fill="#989898"/>
<path d="M607.149 288.159L612.38 295.439L611.441 296.16L606.783 289.601C606.256 291.559 605.547 293.115 604.642 294.26C603.738 295.404 602.674 296.057 601.438 296.194V294.992C602.559 294.786 603.498 294.031 604.265 292.726C605.031 291.421 605.604 289.75 605.981 287.713C606.359 285.675 606.554 283.455 606.565 281.028L607.767 281.051C607.733 283.798 607.527 286.167 607.138 288.148L607.149 288.159ZM615.367 288.857V297.305H614.188V280.57H615.367V287.69H617.782V288.846H615.367V288.857Z" fill="#989898"/>
<path d="M624.639 294.878C625.44 294.741 626.161 294.512 626.802 294.191V295.37C625.623 295.92 623.929 296.194 621.732 296.194H619.076V288.045H623.952V282.402H619.076V281.291H625.063V289.155H620.186V295.084H621.732C622.865 295.084 623.838 295.015 624.639 294.878ZM629.79 280.685V297.018H628.657V290.837H626.15V289.659H628.657V286.042H626.15V284.863H628.657V280.685H629.79ZM633.51 297.305H632.377V280.57H633.51V297.305Z" fill="#989898"/>
</svg>
