<svg width="677" height="334" viewBox="0 0 677 334" fill="none" xmlns="http://www.w3.org/2000/svg">
<path d="M662.692 0H13.9844C6.39854 0 0.249023 6.14977 0.249023 13.7359V320.264C0.249023 327.85 6.39854 334 13.9844 334H662.692C670.278 334 676.428 327.85 676.428 320.264V13.7359C676.428 6.14977 670.278 0 662.692 0Z" fill="white"/>
<path d="M53.9766 161.83H40.1611V160.823H53.9766V161.83ZM41.1455 155.134V154.127H51.7904V149.628H41.1455V148.621H52.8205V159.209H51.7904V155.145H41.1455V155.134Z" fill="black"/>
<path d="M62.3205 157.011C61.7139 158.477 60.8325 159.61 59.6879 160.411C58.5433 161.212 57.2041 161.613 55.6589 161.613V160.583C56.9752 160.583 58.1313 160.228 59.1156 159.53C60.1 158.831 60.8554 157.836 61.382 156.531C61.9085 155.237 62.1717 153.715 62.1717 151.975V149.606H55.6475V148.61H63.2248V151.906C63.2248 153.841 62.9157 155.535 62.3091 157L62.3205 157.011ZM66.6815 162.631V147.98H67.7116V162.631H66.6815Z" fill="black"/>
<path d="M83.5069 161.834H69.6914V160.826H76.044V156.683H70.6987V148.613H82.5225V149.621H71.7288V155.687H82.6827V156.683H77.097V160.826H83.5069V161.834Z" fill="black"/>
<path d="M88.4863 156.13V148.438H96.4183V156.13H88.4863ZM100.756 161.361V162.357H88.9442V157.801H89.9743V161.372H100.756V161.361ZM89.5165 149.4V155.157H95.4111V149.4H89.5165ZM102.393 152.788H100.276V158.877H99.2455V147.98H100.276V151.758H102.393V152.788Z" fill="black"/>
<path d="M116.472 156.499H102.656V155.549H109.043V153.374H110.073V155.549H116.46V156.499H116.472ZM106.651 153.271C105.609 153.683 104.533 153.889 103.423 153.924V152.974C104.282 152.951 105.152 152.779 106.01 152.481C106.868 152.184 107.601 151.737 108.208 151.177C108.814 150.616 109.181 149.952 109.306 149.196H103.698V148.258H115.453V149.196H110.382C110.302 149.78 110.131 150.307 109.867 150.765L115.819 153.054L115.476 153.947L109.215 151.566C108.551 152.298 107.704 152.871 106.662 153.283L106.651 153.271ZM115.43 158.285V162.554H114.4V159.212H103.56V158.273H115.43V158.285Z" fill="black"/>
<path d="M118.624 161.819C118.464 161.658 118.384 161.475 118.384 161.258C118.384 161.029 118.464 160.834 118.613 160.686C118.761 160.537 118.956 160.457 119.208 160.457C119.437 160.457 119.631 160.537 119.791 160.686C119.952 160.834 120.032 161.029 120.032 161.258C120.032 161.475 119.952 161.658 119.791 161.819C119.631 161.979 119.437 162.059 119.208 162.059C118.979 162.059 118.784 161.979 118.624 161.819ZM119.791 148.633L119.597 158.133H118.796L118.601 148.633H119.78H119.791Z" fill="black"/>
<path d="M131.375 148.61V152.33C131.375 154.127 131.146 155.718 130.688 157.126C130.23 158.534 129.578 159.633 128.719 160.423C127.861 161.212 126.876 161.602 125.743 161.602V160.594C126.67 160.583 127.483 160.228 128.181 159.53C128.879 158.832 129.417 157.859 129.795 156.634C130.173 155.398 130.356 153.99 130.356 152.399V149.618H125.743V148.622H131.375V148.61ZM138.506 162.632H137.499V155.157H134.523V162.391H133.527V148.084H134.523V154.173H137.499V147.992H138.506V162.643V162.632Z" fill="black"/>
<path d="M153.924 156.648H140.108V155.755H146.495V154.095H141.207V148.258H152.974V149.082H142.237V150.776H152.733V151.554H142.237V153.271H153.077V154.095H147.525V155.755H153.912V156.648H153.924ZM151.303 158.514C152.436 158.891 153.008 159.475 153.008 160.265C153.008 161.055 152.447 161.65 151.314 162.027C150.181 162.405 148.75 162.588 147.022 162.588C145.293 162.588 143.863 162.405 142.73 162.027C141.596 161.65 141.036 161.066 141.036 160.265C141.036 159.464 141.608 158.891 142.741 158.514C143.874 158.136 145.305 157.941 147.022 157.941C148.739 157.941 150.17 158.136 151.303 158.514ZM150.479 161.364C151.451 161.123 151.944 160.757 151.944 160.276C151.944 159.795 151.463 159.429 150.479 159.189C149.506 158.948 148.35 158.823 147.022 158.823C145.694 158.823 144.527 158.948 143.554 159.189C142.569 159.429 142.089 159.795 142.089 160.276C142.089 160.757 142.581 161.123 143.554 161.364C144.538 161.604 145.694 161.73 147.022 161.73C148.35 161.73 149.506 161.604 150.479 161.364Z" fill="black"/>
<path d="M168.689 161.834H154.874V160.826H161.227V156.683H155.881V148.613H167.705V149.621H156.911V155.687H167.865V156.683H162.28V160.826H168.689V161.834Z" fill="black"/>
<path d="M173.668 156.13V148.438H181.6V156.13H173.668ZM185.926 161.361V162.357H174.114V157.801H175.144V161.372H185.926V161.361ZM174.698 149.4V155.157H180.593V149.4H174.698ZM187.575 152.788H185.457V158.877H184.427V147.98H185.457V151.758H187.575V152.788Z" fill="black"/>
<path d="M201.654 156.499H187.839V155.549H194.226V153.374H195.256V155.549H201.643V156.499H201.654ZM191.822 153.271C190.781 153.683 189.705 153.889 188.594 153.924V152.974C189.453 152.951 190.323 152.779 191.181 152.481C192.04 152.184 192.772 151.737 193.379 151.177C193.985 150.616 194.352 149.952 194.478 149.196H188.869V148.258H200.624V149.196H195.554C195.473 149.78 195.302 150.307 195.038 150.765L200.99 153.054L200.647 153.947L194.386 151.566C193.722 152.298 192.875 152.871 191.834 153.283L191.822 153.271ZM200.601 158.285V162.554H199.571V159.212H188.732V158.273H200.601V158.285Z" fill="black"/>
<path d="M203.795 161.819C203.635 161.658 203.555 161.475 203.555 161.258C203.555 161.029 203.635 160.834 203.784 160.686C203.932 160.537 204.127 160.457 204.379 160.457C204.608 160.457 204.802 160.537 204.962 160.686C205.123 160.834 205.203 161.029 205.203 161.258C205.203 161.475 205.123 161.658 204.962 161.819C204.802 161.979 204.608 162.059 204.379 162.059C204.15 162.059 203.955 161.979 203.795 161.819ZM204.974 148.633L204.779 158.133H203.978L203.784 148.633H204.962H204.974Z" fill="black"/>
<path d="M218.514 148.61V151.907C218.514 153.841 218.216 155.535 217.633 157C217.037 158.465 216.19 159.599 215.08 160.4C213.97 161.201 212.642 161.602 211.108 161.602V160.571C212.436 160.571 213.569 160.217 214.531 159.518C215.492 158.809 216.225 157.813 216.728 156.52C217.232 155.226 217.495 153.715 217.495 151.964V149.595H211.108V148.599H218.525L218.514 148.61ZM222.898 155.238V162.643H221.868V147.992H222.898V154.23H225.015V155.238H222.898Z" fill="black"/>
<path d="M231.551 154.573C230.201 155.592 228.278 156.107 225.794 156.107V155.1C227.957 155.1 229.617 154.688 230.796 153.852C231.963 153.017 232.547 151.758 232.547 150.087V149.423H225.794V148.45H233.577V149.972C233.577 152.021 232.902 153.555 231.54 154.585L231.551 154.573ZM238.121 157.698V162.563H237.068V158.671H226.481V157.698H238.121ZM238.179 156.737H237.148V154.676H233.749V153.681H237.148V150.956H234.287V149.984H237.148V147.98H238.179V156.737Z" fill="black"/>
<path d="M253.859 161.834H240.044V160.826H246.397V156.683H241.051V148.613H252.875V149.621H242.081V155.687H253.035V156.683H247.45V160.826H253.859V161.834Z" fill="black"/>
<path d="M258.839 156.13V148.438H266.771V156.13H258.839ZM271.109 161.361V162.357H259.297V157.801H260.327V161.372H271.109V161.361ZM259.869 149.4V155.157H265.764V149.4H259.869ZM272.746 152.788H270.628V158.877H269.598V147.98H270.628V151.758H272.746V152.788Z" fill="black"/>
<path d="M286.824 156.499H273.009V155.549H279.396V153.374H280.426V155.549H286.813V156.499H286.824ZM277.003 153.271C275.962 153.683 274.886 153.889 273.776 153.924V152.974C274.646 152.951 275.504 152.779 276.362 152.481C277.221 152.184 277.953 151.737 278.56 151.177C279.167 150.616 279.533 149.952 279.659 149.196H274.05V148.258H285.806V149.196H280.735C280.655 149.78 280.483 150.307 280.22 150.765L286.172 153.054L285.828 153.947L279.567 151.566C278.904 152.298 278.057 152.871 277.015 153.283L277.003 153.271ZM285.771 158.285V162.554H284.741V159.212H273.902V158.273H285.771V158.285Z" fill="black"/>
<path d="M288.977 161.819C288.816 161.658 288.736 161.475 288.736 161.258C288.736 161.029 288.816 160.834 288.965 160.686C289.114 160.537 289.32 160.457 289.56 160.457C289.789 160.457 289.984 160.537 290.144 160.686C290.304 160.834 290.384 161.029 290.384 161.258C290.384 161.475 290.304 161.658 290.144 161.819C289.984 161.979 289.789 162.059 289.56 162.059C289.331 162.059 289.137 161.979 288.977 161.819ZM290.144 148.633L289.949 158.133H289.148L288.954 148.633H290.133H290.144Z" fill="black"/>
<path d="M307.049 157.815C308.091 158.262 308.617 158.937 308.617 159.807C308.617 160.734 308.045 161.421 306.9 161.879C305.756 162.325 304.325 162.554 302.608 162.554C300.891 162.554 299.46 162.325 298.316 161.879C297.171 161.432 296.599 160.734 296.599 159.807C296.599 158.88 297.114 158.227 298.156 157.792C299.186 157.357 300.502 157.117 302.093 157.083V154.794H295.706V153.843H309.522V154.794H303.135V157.083C304.714 157.117 306.019 157.369 307.061 157.815H307.049ZM296.668 149.208V148.258H308.434V152.985H307.381V149.208H296.656H296.668ZM306.053 158.468C305.069 158.159 303.924 157.998 302.597 157.998C301.269 157.998 300.067 158.147 299.106 158.433C298.144 158.72 297.652 159.189 297.652 159.807C297.652 160.425 298.144 160.86 299.128 161.169C300.113 161.478 301.269 161.638 302.585 161.638C303.901 161.638 305.058 161.478 306.042 161.169C307.026 160.86 307.507 160.402 307.507 159.807C307.507 159.212 307.015 158.777 306.042 158.468H306.053Z" fill="black"/>
<path d="M310.464 155.183V154.233H324.279V155.183H310.464ZM322.162 153.18V149.208H311.483V148.258H323.215V153.18H322.162ZM311.517 162.371V156.991H323.226V162.371H311.517ZM322.219 157.93H312.547V161.444H322.219V157.93Z" fill="black"/>
<path d="M325.229 150.523V149.584H329.407V147.719H330.46V149.584H334.661V150.523H325.241H325.229ZM327.027 156.727C326.271 156.189 325.893 155.456 325.893 154.529C325.893 153.602 326.271 152.892 327.015 152.354C327.759 151.816 328.732 151.553 329.934 151.553C331.136 151.553 332.086 151.816 332.841 152.354C333.597 152.892 333.974 153.613 333.974 154.529C333.974 155.445 333.597 156.189 332.841 156.727C332.086 157.265 331.113 157.54 329.934 157.54C328.755 157.54 327.782 157.265 327.027 156.727ZM338.084 161.374V162.347H326.271V158.593H327.301V161.374H338.084ZM327.713 153.03C327.164 153.419 326.889 153.911 326.889 154.529C326.889 155.147 327.164 155.662 327.713 156.052C328.263 156.441 329.007 156.647 329.934 156.647C330.861 156.647 331.605 156.452 332.143 156.052C332.692 155.662 332.967 155.147 332.967 154.529C332.967 153.911 332.692 153.407 332.143 153.018C331.594 152.641 330.861 152.446 329.934 152.446C329.007 152.446 328.263 152.641 327.713 153.03ZM339.732 153.327H337.614V158.993H336.584V147.982H337.614V152.297H339.732V153.327Z" fill="black"/>
<path d="M353.181 148.083V162.391H352.173V155.18H349.255C348.923 157.137 348.282 158.694 347.332 159.862C346.382 161.029 345.214 161.613 343.829 161.613V160.606C344.756 160.594 345.569 160.239 346.267 159.541C346.965 158.843 347.503 157.87 347.881 156.645C348.259 155.409 348.442 154.001 348.442 152.41V149.629H343.829V148.633H349.461V152.353C349.461 153.074 349.426 153.692 349.369 154.184H352.173V148.095H353.181V148.083ZM356.592 162.631H355.585V147.98H356.592V162.631Z" fill="black"/>
<path d="M362.212 154.951V148.45H370.144V154.951H362.212ZM367.763 161.418V162.357H362.647V156.462H363.654V161.418H367.752H367.763ZM363.254 149.4V154.001H369.148V149.4H363.254ZM374.94 157.275V158.156H367.614V157.275H370.762V155.707H371.792V157.275H374.94ZM373.532 159.415C374.093 159.736 374.368 160.182 374.368 160.766C374.368 161.35 374.093 161.807 373.532 162.116C372.971 162.425 372.227 162.597 371.3 162.597C370.373 162.597 369.618 162.437 369.057 162.116C368.507 161.796 368.233 161.35 368.233 160.766C368.233 160.182 368.507 159.724 369.057 159.415C369.606 159.095 370.362 158.934 371.3 158.934C372.239 158.934 372.971 159.095 373.532 159.415ZM372.857 161.521C373.257 161.35 373.452 161.098 373.452 160.766C373.452 160.434 373.257 160.182 372.857 160.01C372.456 159.839 371.941 159.759 371.3 159.759C370.659 159.759 370.167 159.839 369.766 160.01C369.366 160.182 369.16 160.434 369.16 160.766C369.16 161.098 369.354 161.35 369.755 161.521C370.144 161.693 370.659 161.773 371.3 161.773C371.941 161.773 372.456 161.693 372.857 161.521ZM376.13 152.216H374.013V155.283H372.983V147.98H374.013V151.185H376.13V152.216Z" fill="black"/>
<path d="M383.96 150.11C384.692 151.254 385.058 152.925 385.058 155.135C385.058 157.344 384.692 159.026 383.96 160.159C383.227 161.304 382.243 161.865 380.995 161.865C380.194 161.865 379.484 161.613 378.877 161.121C378.271 160.629 377.79 159.873 377.447 158.866C377.103 157.859 376.932 156.611 376.932 155.123C376.932 153.635 377.103 152.387 377.447 151.38C377.79 150.373 378.271 149.629 378.877 149.125C379.484 148.633 380.194 148.381 380.995 148.381C382.243 148.381 383.227 148.954 383.96 150.087V150.11ZM383.193 159.415C383.742 158.454 384.028 157.023 384.028 155.146C384.028 153.269 383.754 151.838 383.193 150.877C382.643 149.915 381.911 149.423 380.995 149.423C380.079 149.423 379.347 149.904 378.786 150.877C378.236 151.838 377.962 153.269 377.962 155.146C377.962 157.023 378.236 158.454 378.786 159.415C379.335 160.377 380.068 160.869 380.995 160.869C381.922 160.869 382.643 160.388 383.193 159.415ZM388.767 155.238V162.643H387.737V147.992H388.767V154.23H390.884V155.238H388.767Z" fill="black"/>
<path d="M395.177 154.951V148.45H403.109V154.951H395.177ZM400.728 161.418V162.357H395.612V156.462H396.619V161.418H400.717H400.728ZM396.207 149.4V154.001H402.102V149.4H396.207ZM407.905 157.275V158.156H400.579V157.275H403.727V155.707H404.757V157.275H407.905ZM406.497 159.415C407.058 159.736 407.333 160.182 407.333 160.766C407.333 161.35 407.058 161.807 406.497 162.116C405.936 162.437 405.192 162.597 404.265 162.597C403.338 162.597 402.582 162.437 402.022 162.116C401.461 161.796 401.197 161.35 401.197 160.766C401.197 160.182 401.472 159.724 402.022 159.415C402.571 159.095 403.326 158.934 404.265 158.934C405.204 158.934 405.936 159.095 406.497 159.415ZM405.822 161.521C406.222 161.35 406.417 161.098 406.417 160.766C406.417 160.434 406.222 160.182 405.822 160.01C405.421 159.839 404.906 159.759 404.265 159.759C403.624 159.759 403.132 159.839 402.731 160.01C402.331 160.182 402.136 160.434 402.136 160.766C402.136 161.098 402.331 161.35 402.731 161.521C403.132 161.693 403.635 161.773 404.276 161.773C404.917 161.773 405.432 161.693 405.833 161.521H405.822ZM409.084 152.216H406.966V155.283H405.936V147.98H406.966V151.185H409.084V152.216Z" fill="black"/>
<path d="M416.33 149.148C416.948 149.64 417.429 150.396 417.784 151.403C418.127 152.41 418.31 153.658 418.31 155.146C418.31 156.634 418.139 157.881 417.784 158.889C417.429 159.896 416.948 160.64 416.33 161.143C415.712 161.647 415.002 161.887 414.178 161.887C412.931 161.887 411.935 161.315 411.179 160.182C410.424 159.049 410.058 157.366 410.058 155.157C410.058 152.948 410.435 151.266 411.179 150.132C411.935 148.999 412.931 148.427 414.178 148.427C414.991 148.427 415.712 148.679 416.33 149.171V149.148ZM411.935 150.865C411.362 151.826 411.076 153.257 411.076 155.134C411.076 157.011 411.362 158.442 411.935 159.404C412.507 160.365 413.263 160.857 414.19 160.857C415.117 160.857 415.849 160.377 416.41 159.404C416.971 158.442 417.257 157.011 417.257 155.134C417.257 153.257 416.971 151.826 416.41 150.865C415.838 149.903 415.105 149.411 414.19 149.411C413.274 149.411 412.507 149.892 411.935 150.865ZM421.103 162.631V147.98H422.156V162.631H421.103Z" fill="black"/>
<path d="M430.579 153.944C429.812 154.425 428.919 154.745 427.912 154.905V153.932C429.171 153.715 430.178 153.223 430.911 152.433C431.655 151.655 432.09 150.636 432.193 149.388H428.049V148.45H437.069V149.388H433.235C433.189 150.064 433.051 150.682 432.834 151.243L437.561 153.898L437.069 154.734L432.399 152.078C431.941 152.845 431.323 153.463 430.556 153.932L430.579 153.944ZM440.778 162.345H428.851V158.831H439.29V157.034H428.816V156.142H440.343V159.655H429.892V161.453H440.789V162.345H440.778ZM439.301 155.192V147.98H440.331V155.192H439.301Z" fill="black"/>
<path d="M456.127 156.682H449.74V159.464H448.71V156.682H442.323V155.732H456.139V156.682H456.127ZM455.406 161.421V162.371H443.388V158.159H444.418V161.421H455.406ZM443.411 153.924V148.258H455.063V153.924H443.411ZM444.441 149.185V152.985H454.033V149.185H444.441Z" fill="black"/>
<path d="M466.429 150.525V151.52H457.409V150.525H461.392V147.949H462.445V150.525H466.429ZM463.842 153.523C464.414 153.89 464.872 154.416 465.204 155.092C465.536 155.767 465.696 156.545 465.696 157.415C465.696 158.285 465.536 159.063 465.204 159.739C464.872 160.403 464.414 160.929 463.842 161.295C463.258 161.662 462.617 161.845 461.907 161.845C461.198 161.845 460.557 161.662 459.985 161.295C459.412 160.929 458.966 160.403 458.634 159.739C458.302 159.075 458.142 158.296 458.142 157.415C458.142 156.534 458.302 155.767 458.634 155.092C458.966 154.416 459.412 153.901 459.985 153.523C460.557 153.146 461.198 152.974 461.907 152.974C462.617 152.974 463.27 153.157 463.842 153.523ZM463.304 160.437C463.727 160.151 464.059 159.75 464.311 159.224C464.563 158.697 464.689 158.102 464.689 157.415C464.689 156.728 464.563 156.122 464.311 155.595C464.059 155.069 463.727 154.657 463.304 154.37C462.88 154.084 462.423 153.936 461.907 153.936C461.392 153.936 460.935 154.073 460.511 154.37C460.088 154.668 459.756 155.069 459.504 155.595C459.252 156.122 459.126 156.728 459.126 157.415C459.126 158.102 459.252 158.709 459.504 159.224C459.756 159.75 460.088 160.151 460.511 160.437C460.935 160.723 461.392 160.872 461.907 160.872C462.423 160.872 462.88 160.735 463.304 160.437ZM469.462 155.24V162.646H468.432V147.995H469.462V154.233H471.579V155.24H469.462Z" fill="black"/>
<path d="M472.541 156.153V148.45H480.13V156.153H472.541ZM485.109 162.345H473.205V157.79H474.235V161.361H485.109V162.357V162.345ZM473.548 149.4V155.18H479.1V149.4H473.548ZM481.023 154.585V153.612H483.735V150.888H481.023V149.892H483.735V147.98H484.743V158.889H483.735V154.573H481.023V154.585Z" fill="black"/>
<path d="M491.747 153.99L496.269 161.087L495.445 161.716L491.461 155.329C491.026 157.229 490.42 158.717 489.63 159.816C488.84 160.915 487.902 161.521 486.803 161.67V160.606C487.753 160.423 488.554 159.77 489.195 158.637C489.836 157.504 490.317 156.039 490.626 154.253C490.935 152.468 491.095 150.522 491.106 148.393L492.16 148.416C492.137 150.499 491.999 152.365 491.736 154.001L491.747 153.99ZM499.508 162.632H498.478V154.585H494.563V153.578H498.478V147.992H499.508V162.643V162.632Z" fill="black"/>
<path d="M513.255 155.775C514.08 155.684 514.743 155.512 515.247 155.272V156.325C514.411 156.714 512.729 156.92 510.211 156.92H510.005V162.643H508.974V156.92H504.819V155.924H510.199C511.424 155.924 512.443 155.878 513.255 155.787V155.775ZM505.804 149.606V148.61H513.496V154.814H512.466V149.606H505.804ZM517.628 162.631H516.621V147.98H517.628V162.631Z" fill="black"/>
<path d="M522.365 154.895C521.633 155.41 520.774 155.754 519.79 155.914V154.941C520.935 154.724 521.862 154.22 522.583 153.419C523.304 152.629 523.739 151.61 523.888 150.397H519.916V149.447H523.922V147.707H524.952V149.447H528.879V150.397H524.952C524.907 150.958 524.781 151.519 524.586 152.079L528.879 154.907L528.341 155.731L524.128 152.926C523.682 153.728 523.087 154.38 522.354 154.895H522.365ZM525.719 161.419V162.358H520.603V156.978H521.61V161.419H525.708H525.719ZM532.896 157.619V158.478H525.571V157.619H528.718V156.131H529.748V157.619H532.896ZM531.477 159.611C532.038 159.92 532.324 160.344 532.324 160.882C532.324 161.419 532.049 161.854 531.488 162.163C530.927 162.473 530.183 162.621 529.256 162.621C528.329 162.621 527.585 162.473 527.024 162.163C526.463 161.854 526.189 161.431 526.189 160.882C526.189 160.332 526.463 159.92 527.024 159.611C527.585 159.302 528.329 159.142 529.256 159.142C530.183 159.142 530.916 159.302 531.477 159.611ZM530.79 161.557C531.191 161.397 531.397 161.168 531.397 160.882C531.397 160.595 531.202 160.366 530.79 160.206C530.389 160.046 529.874 159.966 529.256 159.966C528.638 159.966 528.123 160.046 527.722 160.206C527.322 160.366 527.127 160.595 527.127 160.882C527.127 161.168 527.322 161.397 527.722 161.557C528.123 161.717 528.638 161.797 529.256 161.797C529.874 161.797 530.389 161.717 530.79 161.557ZM534.075 152.331H531.958V155.616H530.927V147.982H531.958V151.335H534.075V152.331Z" fill="black"/>
<path d="M544.091 148.083V162.391H543.084V155.18H540.165C539.833 157.137 539.192 158.694 538.253 159.862C537.303 161.029 536.136 161.613 534.751 161.613V160.606C535.678 160.594 536.491 160.239 537.189 159.541C537.887 158.843 538.425 157.87 538.803 156.645C539.181 155.409 539.364 154.001 539.364 152.41V149.629H534.751V148.633H540.382V152.353C540.382 153.074 540.348 153.692 540.291 154.184H543.095V148.095H544.102L544.091 148.083ZM547.502 162.631H546.495V147.98H547.502V162.631Z" fill="black"/>
<path d="M559.68 150.502V151.498H552.263V150.502H555.445V147.961H556.475V150.502H559.68ZM557.677 153.455C558.157 153.81 558.535 154.314 558.798 154.989C559.062 155.664 559.199 156.465 559.199 157.393C559.199 158.32 559.062 159.121 558.798 159.785C558.535 160.449 558.157 160.964 557.677 161.307C557.196 161.662 556.647 161.834 556.04 161.834C555.101 161.834 554.346 161.444 553.774 160.655C553.201 159.865 552.915 158.778 552.915 157.381C552.915 155.985 553.201 154.886 553.774 154.096C554.346 153.306 555.101 152.917 556.04 152.917C556.647 152.917 557.196 153.089 557.677 153.444V153.455ZM557.597 159.934C558.009 159.315 558.203 158.468 558.203 157.381C558.203 156.294 557.997 155.447 557.597 154.829C557.185 154.211 556.669 153.89 556.028 153.89C555.387 153.89 554.872 154.199 554.472 154.829C554.071 155.447 553.877 156.305 553.877 157.381C553.877 158.457 554.071 159.315 554.472 159.934C554.872 160.552 555.387 160.861 556.028 160.861C556.669 160.861 557.185 160.552 557.597 159.934ZM565.7 162.635H564.705V155.161H561.9V162.394H560.927V148.087H561.9V154.176H564.705V147.995H565.7V162.646V162.635Z" fill="black"/>
<path d="M567.303 161.834V160.826H581.118V161.834H567.303ZM569.352 149.632V156.042H580.305V157.049H568.321V148.613H580.145V149.621H569.352V149.632Z" fill="black"/>
<path d="M588.924 149.354H582.721V148.439H589.932V152.674H583.774V155.157H586.944C588.055 155.157 589.05 155.1 589.932 154.974C590.813 154.848 591.477 154.7 591.923 154.505V155.421C591.488 155.615 590.825 155.764 589.932 155.89C589.039 156.016 587.997 156.073 586.83 156.073H582.766V151.804H588.924V149.366V149.354ZM590.928 161.693C590.367 162.059 589.749 162.277 589.085 162.346L586.429 160.205C586.017 160.8 585.525 161.293 584.953 161.67C584.369 162.048 583.751 162.265 583.098 162.346V161.396C583.648 161.315 584.163 161.087 584.655 160.709C585.147 160.331 585.548 159.827 585.868 159.209C586.189 158.591 586.372 157.927 586.418 157.195L587.414 157.309C587.333 158.03 587.162 158.717 586.899 159.37L589.394 161.338C589.886 161.212 590.355 160.961 590.79 160.571C591.225 160.194 591.58 159.713 591.855 159.118C592.129 158.534 592.29 157.893 592.335 157.195L593.331 157.332C593.285 158.111 593.114 158.809 592.839 159.427L595.987 161.602L595.472 162.437L592.381 160.24C591.992 160.835 591.511 161.315 590.939 161.682L590.928 161.693ZM591.019 153.555V152.616H593.961V150.693H591.019V149.743H593.961V147.992H594.968V156.771H593.961V153.566H591.019V153.555Z" fill="black"/>
<path d="M602.008 154.779L606.816 160.88L605.992 161.51L601.722 155.993C601.276 157.63 600.669 158.946 599.902 159.907C599.136 160.88 598.231 161.464 597.201 161.659V160.594C598.083 160.388 598.826 159.793 599.456 158.797C600.086 157.801 600.566 156.519 600.91 154.928C601.242 153.337 601.425 151.563 601.448 149.606H597.476V148.61H606.369V149.606H602.478C602.455 151.575 602.295 153.303 601.997 154.779H602.008ZM609.62 162.631H608.59V147.98H609.62V162.631Z" fill="black"/>
<path d="M612.194 156.13V148.438H620.126V156.13H612.194ZM624.465 161.361V162.357H612.652V157.801H613.682V161.372H624.465V161.361ZM613.225 149.4V155.157H619.119V149.4H613.225ZM626.101 152.788H623.984V158.877H622.954V147.98H623.984V151.758H626.101V152.788Z" fill="black"/>
<path d="M49.9702 175.099V189.407H48.9744V184.599H45.3117C44.8309 185.87 44.1785 186.866 43.3773 187.564C42.5646 188.274 41.6375 188.628 40.5615 188.628V187.621C41.4887 187.61 42.3013 187.255 42.9881 186.557C43.6749 185.858 44.2014 184.886 44.5677 183.661C44.9339 182.425 45.1171 181.017 45.1171 179.426V176.644H40.5615V175.649H46.1358V178.968H48.9744V175.111H49.9702V175.099ZM48.9859 179.975H46.1472C46.0785 181.326 45.9069 182.528 45.6093 183.581H48.9859V179.975ZM53.3354 189.647H52.3396V174.996H53.3354V189.647Z" fill="black"/>
<path d="M68.7422 183.512H54.9268V182.562H61.3137V180.067H62.3438V182.562H68.7308V183.512H68.7422ZM58.8642 179.964C57.7425 180.514 56.6208 180.8 55.4876 180.846V179.873C56.4147 179.838 57.3419 179.598 58.2805 179.163C59.219 178.728 60.0203 178.121 60.707 177.343C61.3824 176.565 61.8173 175.683 61.989 174.688L62.9963 174.859C62.8704 175.569 62.6071 176.279 62.195 176.977L68.2042 180.09L67.7693 180.926L61.6227 177.755C60.9016 178.682 59.9745 179.426 58.8528 179.964H58.8642ZM67.7006 185.298V189.567H66.6705V186.225H55.831V185.287H67.7006V185.298Z" fill="black"/>
<path d="M76.1935 182.77C75.4151 183.342 74.5109 183.72 73.4922 183.891V182.895C74.7169 182.667 75.6898 182.094 76.4453 181.201C77.1893 180.297 77.6013 179.107 77.6929 177.63H73.6066V176.657H77.6929V174.734H78.7459V176.657H82.7177V177.63H78.7688C78.7345 178.248 78.62 178.912 78.4255 179.61L82.9123 182.93L82.34 183.765L78.0134 180.538C77.5899 181.442 76.9947 182.174 76.2049 182.747L76.1935 182.77ZM86.369 189.362H74.4079V185.333H75.438V188.367H86.369V189.362ZM84.8811 185.952V174.998H85.9112V185.952H84.8811Z" fill="black"/>
<path d="M90.8447 181.12C90.0778 181.635 89.185 181.955 88.1777 182.093V181.12C89.4368 180.902 90.4326 180.387 91.1766 179.575C91.9206 178.762 92.3327 177.709 92.4357 176.404H88.3494V175.465H97.2545V176.404H93.4544C93.3857 177.171 93.2598 177.8 93.0538 178.293L97.7696 181.131L97.2545 181.932L92.6532 179.151C92.2068 179.952 91.6001 180.605 90.8332 181.12H90.8447ZM101.158 189.361H89.2537V185.893H99.704V184.153H89.2308V183.272H100.734V186.728H90.2953V188.48H101.146V189.361H101.158ZM99.704 174.996H100.734V182.322H99.704V178.773H96.6364V177.835H99.704V174.996Z" fill="black"/>
<path d="M112.008 177.536V178.532H102.988V177.536H106.972V174.961H108.025V177.536H112.008ZM109.421 180.535C110.005 180.901 110.451 181.428 110.783 182.103C111.115 182.779 111.275 183.557 111.275 184.427C111.275 185.297 111.115 186.075 110.783 186.739C110.451 187.403 109.993 187.929 109.421 188.296C108.837 188.662 108.196 188.845 107.487 188.845C106.777 188.845 106.136 188.662 105.564 188.296C104.991 187.929 104.545 187.414 104.213 186.739C103.881 186.075 103.721 185.297 103.721 184.427C103.721 183.557 103.881 182.779 104.213 182.103C104.545 181.428 104.991 180.913 105.564 180.535C106.136 180.157 106.777 179.986 107.487 179.986C108.196 179.986 108.849 180.169 109.421 180.535ZM108.883 187.449C109.307 187.162 109.638 186.762 109.89 186.235C110.142 185.709 110.268 185.114 110.268 184.427C110.268 183.74 110.142 183.133 109.89 182.607C109.638 182.08 109.307 181.668 108.883 181.382C108.46 181.096 108.002 180.947 107.487 180.947C106.972 180.947 106.514 181.085 106.09 181.382C105.667 181.668 105.335 182.08 105.083 182.607C104.831 183.133 104.717 183.74 104.717 184.427C104.717 185.114 104.843 185.72 105.083 186.235C105.335 186.762 105.667 187.162 106.09 187.449C106.514 187.735 106.972 187.884 107.487 187.884C108.002 187.884 108.46 187.746 108.883 187.449ZM115.041 182.252V189.658H114.011V175.007H115.041V181.245H117.159V182.252H115.041Z" fill="black"/>
<path d="M127.174 175.099V189.407H126.167V182.196H123.248C122.916 184.153 122.275 185.721 121.337 186.877C120.398 188.033 119.219 188.628 117.834 188.628V187.621C118.761 187.61 119.574 187.255 120.272 186.557C120.97 185.858 121.508 184.886 121.886 183.661C122.264 182.425 122.447 181.017 122.447 179.426V176.644H117.834V175.649H123.466V179.368C123.466 180.09 123.431 180.708 123.374 181.2H126.178V175.111H127.186L127.174 175.099ZM130.597 189.647H129.589V174.996H130.597V189.647Z" fill="black"/>
<path d="M149.437 182.4H135.621V181.462H142.912V178.28H143.942V181.462H149.437V182.4ZM136.525 176.196V175.258H141.298V180.088H140.291V176.196H136.537H136.525ZM148.429 184.151V189.382H136.663V184.151H148.429ZM147.399 188.444V185.09H137.67V188.444H147.399ZM142.225 176.196V175.258H148.406V180.26H147.399V176.196H142.225Z" fill="black"/>
<path d="M164.202 182.4H150.387V181.462H157.678V178.28H158.708V181.462H164.202V182.4ZM151.291 176.196V175.258H156.064V180.088H155.057V176.196H151.302H151.291ZM163.195 184.151V189.382H151.428V184.151H163.195ZM162.165 188.444V185.09H152.436V188.444H162.165ZM156.991 176.196V175.258H163.172V180.26H162.165V176.196H156.991Z" fill="black"/>
<path d="M174.767 177.536V178.532H165.633V177.536H169.673V174.961H170.726V177.536H174.767ZM172.134 180.535C172.718 180.901 173.176 181.428 173.519 182.103C173.851 182.779 174.023 183.557 174.023 184.427C174.023 185.297 173.851 186.075 173.519 186.739C173.187 187.403 172.718 187.929 172.134 188.296C171.55 188.662 170.898 188.845 170.188 188.845C169.479 188.845 168.826 188.662 168.243 188.296C167.659 187.929 167.201 187.414 166.858 186.739C166.526 186.075 166.354 185.297 166.354 184.427C166.354 183.557 166.526 182.779 166.858 182.103C167.189 181.428 167.659 180.913 168.243 180.535C168.826 180.157 169.479 179.986 170.188 179.986C170.898 179.986 171.55 180.169 172.134 180.535ZM171.619 187.449C172.043 187.162 172.386 186.762 172.626 186.235C172.878 185.709 173.004 185.114 173.004 184.427C173.004 183.74 172.878 183.122 172.626 182.595C172.375 182.069 172.043 181.668 171.619 181.382C171.196 181.096 170.715 180.947 170.2 180.947C169.685 180.947 169.227 181.085 168.792 181.382C168.368 181.668 168.025 182.08 167.773 182.607C167.521 183.133 167.396 183.74 167.396 184.427C167.396 185.114 167.521 185.72 167.773 186.235C168.025 186.762 168.368 187.162 168.792 187.449C169.215 187.735 169.685 187.884 170.2 187.884C170.715 187.884 171.196 187.746 171.619 187.449ZM177.937 189.646H176.907V174.995H177.937V189.646Z" fill="black"/>
<path d="M194.878 181.543C194.534 182.184 194.042 182.676 193.401 183.054C192.76 183.42 192.005 183.604 191.123 183.604C190.242 183.604 189.487 183.42 188.846 183.054C188.205 182.688 187.713 182.184 187.381 181.543C187.049 180.902 186.877 180.193 186.877 179.403C186.877 178.613 187.049 177.903 187.381 177.262C187.713 176.621 188.205 176.118 188.846 175.752C189.487 175.385 190.254 175.202 191.123 175.202C191.993 175.202 192.76 175.385 193.401 175.752C194.042 176.118 194.534 176.621 194.878 177.262C195.221 177.903 195.393 178.613 195.393 179.403C195.393 180.193 195.221 180.902 194.878 181.543ZM188.788 181.784C189.372 182.379 190.151 182.665 191.112 182.665C192.073 182.665 192.875 182.367 193.458 181.784C194.042 181.188 194.34 180.399 194.34 179.403C194.34 178.407 194.054 177.617 193.458 177.033C192.875 176.438 192.085 176.141 191.112 176.141C190.139 176.141 189.372 176.438 188.788 177.033C188.205 177.629 187.907 178.418 187.907 179.403C187.907 180.387 188.205 181.188 188.788 181.784ZM199.651 188.377V189.372H187.999V184.76H189.029V188.388H199.651V188.377ZM201.288 179.803H199.17V185.893H198.14V174.996H199.17V178.773H201.288V179.803Z" fill="black"/>
<path d="M207.171 187.53C207.732 187.427 208.235 187.278 208.67 187.095V188.091C208.247 188.285 207.743 188.423 207.148 188.526C206.553 188.629 205.935 188.674 205.271 188.674H202.089V175.592H203.085V187.69H205.431C206.026 187.69 206.61 187.644 207.182 187.541L207.171 187.53ZM214.714 189.647H213.707V182.173H210.868V189.407H209.872V175.099H210.868V181.189H213.707V175.008H214.714V189.659V189.647Z" fill="black"/>
<path d="M223.459 177.514V178.509H216.042V177.514H219.224V174.973H220.254V177.514H223.459ZM221.456 180.467C221.937 180.81 222.315 181.325 222.578 182.001C222.841 182.676 222.978 183.477 222.978 184.404C222.978 185.331 222.841 186.133 222.578 186.796C222.315 187.46 221.937 187.975 221.456 188.319C220.975 188.674 220.426 188.845 219.819 188.845C218.881 188.845 218.125 188.456 217.553 187.666C216.981 186.888 216.694 185.801 216.694 184.393C216.694 182.985 216.981 181.898 217.553 181.108C218.125 180.318 218.881 179.929 219.819 179.929C220.426 179.929 220.975 180.101 221.456 180.455V180.467ZM221.376 186.945C221.788 186.327 221.983 185.48 221.983 184.404C221.983 183.328 221.777 182.47 221.376 181.852C220.964 181.234 220.449 180.913 219.808 180.913C219.167 180.913 218.652 181.222 218.251 181.852C217.851 182.481 217.656 183.328 217.656 184.404C217.656 185.48 217.851 186.339 218.251 186.945C218.652 187.552 219.167 187.872 219.808 187.872C220.449 187.872 220.964 187.563 221.376 186.945ZM229.48 189.647H228.484V182.172H225.68V189.406H224.707V175.099H225.68V181.188H228.484V175.007H229.48V189.658V189.647Z" fill="black"/>
<path d="M241.921 185.469V189.99H240.868V185.469H234.516V184.462H248.331V185.469H241.921ZM238.476 181.543C237.411 182.115 236.244 182.47 234.951 182.607V181.6C236.542 181.417 237.892 180.879 238.991 179.975C240.101 179.071 240.777 177.903 241.017 176.472H235.328V175.477H247.496V176.472H242.093C242.001 177.171 241.818 177.823 241.521 178.418L247.873 181.623L247.392 182.539L241.006 179.254C240.365 180.204 239.518 180.971 238.453 181.543H238.476Z" fill="black"/>
<path d="M254.661 181.566L259.377 188.01L258.552 188.64L254.352 182.825C253.882 184.565 253.241 185.95 252.44 186.969C251.639 187.987 250.689 188.56 249.602 188.686V187.633C250.586 187.449 251.41 186.797 252.097 185.652C252.784 184.508 253.299 183.043 253.653 181.257C254.008 179.472 254.18 177.526 254.191 175.408L255.244 175.431C255.222 177.755 255.027 179.803 254.649 181.578L254.661 181.566ZM262.066 189.647H261.036V174.996H262.066V189.647Z" fill="black"/>
<path d="M277.862 188.845H264.047V187.838H269.564V180.856H270.617V187.838H277.862V188.845ZM264.963 176.621V175.613H276.844V185.285H275.791V176.621H264.951H264.963Z" fill="black"/>
<path d="M288.278 175.626V179.346C288.278 181.143 288.049 182.734 287.591 184.142C287.133 185.55 286.481 186.648 285.622 187.438C284.775 188.228 283.78 188.617 282.646 188.617V187.61C283.574 187.599 284.386 187.244 285.085 186.545C285.783 185.847 286.321 184.874 286.698 183.65C287.076 182.413 287.259 181.006 287.259 179.415V176.633H282.646V175.637H288.278V175.626ZM295.409 189.647H294.402V182.173H291.426V189.407H290.43V175.099H291.426V181.189H294.402V175.008H295.409V189.659V189.647Z" fill="black"/>
<path d="M310.83 183.66H297.015V182.767H303.402V181.107H298.113V175.27H309.88V176.094H299.144V177.788H309.64V178.566H299.144V180.283H309.983V181.107H304.432V182.767H310.819V183.66H310.83ZM308.209 185.525C309.342 185.903 309.914 186.498 309.914 187.276C309.914 188.055 309.354 188.661 308.22 189.039C307.087 189.417 305.656 189.6 303.928 189.6C302.2 189.6 300.769 189.417 299.636 189.039C298.503 188.661 297.942 188.078 297.942 187.276C297.942 186.475 298.514 185.903 299.647 185.525C300.78 185.148 302.211 184.953 303.928 184.953C305.645 184.953 307.076 185.148 308.209 185.525ZM307.385 188.375C308.358 188.135 308.85 187.769 308.85 187.288C308.85 186.807 308.369 186.441 307.385 186.201C306.412 185.96 305.256 185.834 303.928 185.834C302.6 185.834 301.433 185.96 300.46 186.201C299.476 186.441 298.995 186.807 298.995 187.288C298.995 187.769 299.487 188.135 300.46 188.375C301.444 188.616 302.6 188.742 303.928 188.742C305.256 188.742 306.412 188.616 307.385 188.375Z" fill="black"/>
<path d="M325.596 188.845H311.78V187.838H318.133V183.695H312.788V175.625H324.611V176.632H313.818V182.699H324.772V183.695H319.186V187.838H325.596V188.845Z" fill="black"/>
<path d="M334.73 175.477V188.674H330.438V175.477H331.353V180.948H333.848V175.477H334.73ZM333.848 181.91H331.353V187.724H333.848V181.91ZM339.995 175.477V188.674H335.726V175.477H336.607V180.948H339.102V175.477H339.995ZM339.102 181.91H336.607V187.724H339.102V181.91ZM342.685 182.253V189.659H341.735V175.008H342.685V181.246H344.482V182.253H342.685Z" fill="black"/>
<path d="M344.746 188.845V187.849H358.562V188.845H344.746ZM346.783 180.661V183.786H357.806V184.782H345.765V179.688H356.558V176.598H345.765V175.625H357.589V180.661H346.772H346.783Z" fill="black"/>
<path d="M373.326 188.845H359.511V187.838H365.028V180.856H366.081V187.838H373.326V188.845ZM360.426 176.621V175.613H372.307V185.285H371.254V176.621H360.415H360.426Z" fill="black"/>
<path d="M384.029 175.477V188.674H378.248V175.477H379.221V180.937H383.021V175.477H384.029ZM383.01 181.921H379.21V187.679H383.01V181.921ZM390.874 189.647H389.866V182.173H387.028V189.407H386.032V175.099H387.028V181.189H389.866V175.008H390.874V189.659V189.647Z" fill="black"/>
<path d="M406.279 182.974H392.464V182.036H398.851V179.552H399.881V182.036H406.268V182.974H406.279ZM396.436 179.586C395.291 180.113 394.158 180.388 393.025 180.422V179.472C393.94 179.438 394.868 179.209 395.795 178.797C396.722 178.385 397.546 177.812 398.221 177.103C398.908 176.382 399.343 175.58 399.515 174.688L400.522 174.882C400.385 175.557 400.133 176.164 399.778 176.713L405.753 179.609L405.329 180.468L399.229 177.492C398.496 178.373 397.557 179.071 396.413 179.598L396.436 179.586ZM403.704 185.092C404.826 185.481 405.387 186.134 405.387 187.038C405.387 187.942 404.826 188.617 403.704 189.007C402.582 189.407 401.14 189.613 399.377 189.613C397.615 189.613 396.184 189.419 395.062 189.007C393.94 188.606 393.368 187.954 393.368 187.038C393.368 186.122 393.929 185.481 395.051 185.092C396.172 184.703 397.615 184.497 399.377 184.497C401.14 184.497 402.594 184.691 403.704 185.092ZM402.857 188.308C403.818 188.045 404.299 187.622 404.299 187.038C404.299 186.454 403.83 186.053 402.88 185.802C401.93 185.55 400.762 185.424 399.377 185.424C397.992 185.424 396.825 185.55 395.863 185.802C394.913 186.053 394.433 186.466 394.433 187.038C394.433 187.61 394.913 188.034 395.875 188.297C396.836 188.56 398.004 188.698 399.377 188.698C400.751 188.698 401.895 188.572 402.857 188.308Z" fill="black"/>
<path d="M421.057 188.845H407.241V187.838H413.594V183.695H408.248V175.625H420.072V176.632H409.279V182.699H420.233V183.695H414.647V187.838H421.057V188.845Z" fill="black"/>
<path d="M430.191 175.477V188.674H425.898V175.477H426.814V180.948H429.309V175.477H430.191ZM429.309 181.91H426.814V187.724H429.309V181.91ZM435.456 175.477V188.674H431.187V175.477H432.068V180.948H434.563V175.477H435.456ZM434.552 181.91H432.056V187.724H434.552V181.91ZM438.146 182.253V189.659H437.196V175.008H438.146V181.246H439.943V182.253H438.146Z" fill="black"/>
<path d="M440.206 188.845V187.849H454.022V188.845H440.206ZM442.243 180.661V183.786H453.266V184.782H441.225V179.688H452.018V176.598H441.225V175.625H453.049V180.661H442.232H442.243Z" fill="black"/>
<path d="M464.712 175.099V189.407H463.705V182.196H460.786C460.454 184.153 459.813 185.721 458.875 186.877C457.925 188.045 456.757 188.628 455.372 188.628V187.621C456.299 187.61 457.112 187.255 457.81 186.557C458.508 185.858 459.046 184.886 459.424 183.661C459.802 182.425 459.985 181.017 459.985 179.426V176.644H455.372V175.649H461.004V179.368C461.004 180.09 460.969 180.708 460.912 181.2H463.716V175.111H464.724L464.712 175.099ZM468.134 189.647H467.127V174.996H468.134V189.647Z" fill="black"/>
<path d="M483.598 187.015V188.045C482.534 188.468 480.851 188.674 478.562 188.674H473.159V187.667H477.452V183.398H474.075V175.649H482.065V176.644H475.105V182.402H482.236V183.398H478.459V187.667H478.539C480.943 187.667 482.625 187.449 483.598 187.015ZM485.968 189.647H484.96V174.996H485.968V189.647Z" fill="black"/>
<path d="M500.825 189.647H499.795V182.379H496.681C496.67 183.809 496.487 185 496.132 185.973C495.777 186.946 495.296 187.678 494.69 188.159C494.083 188.64 493.385 188.88 492.595 188.88C491.805 188.88 491.096 188.628 490.489 188.136C489.882 187.644 489.413 186.888 489.07 185.881C488.726 184.874 488.555 183.626 488.555 182.138C488.555 180.65 488.726 179.403 489.07 178.395C489.413 177.388 489.882 176.644 490.489 176.14C491.096 175.648 491.794 175.396 492.595 175.396C493.751 175.396 494.701 175.9 495.434 176.907C496.166 177.915 496.578 179.391 496.659 181.337H499.783V174.984H500.813V189.635L500.825 189.647ZM494.804 186.43C495.354 185.469 495.628 184.038 495.628 182.15C495.628 180.261 495.354 178.83 494.804 177.869C494.255 176.907 493.522 176.427 492.607 176.427C491.691 176.427 490.981 176.907 490.42 177.88C489.86 178.853 489.585 180.272 489.585 182.15C489.585 184.027 489.86 185.458 490.42 186.419C490.981 187.381 491.702 187.873 492.607 187.873C493.511 187.873 494.255 187.392 494.804 186.43Z" fill="black"/>
<path d="M514.262 187.472C514.926 187.346 515.464 187.175 515.887 186.957V187.965C515.464 188.193 514.926 188.365 514.273 188.491C513.621 188.617 512.946 188.674 512.259 188.674H506.971V175.534H508.001V187.667H512.27C512.934 187.667 513.598 187.598 514.25 187.472H514.262ZM519.023 189.647H517.993V181.497H512.408V180.49H517.993V174.996H519.023V189.647Z" fill="black"/>
<path d="M528.317 185.513V190H527.287V185.513H520.9V184.449H534.716V185.513H528.329H528.317ZM521.942 182.377V175.566H533.651V182.377H521.942ZM522.972 176.562V181.392H532.621V176.562H522.972Z" fill="black"/>
<path d="M546.437 184.461V189.989H545.384V184.461H539.089V183.396H552.904V184.461H546.437ZM540.085 176.449V175.441H551.817V181.989H550.764V176.46H540.085V176.449Z" fill="black"/>
<path d="M560.172 175.626V188.674H554.392V175.626H560.172ZM559.165 187.69V176.621H555.365V187.69H559.165ZM567.017 189.647H566.009V182.184H563.171V189.395H562.175V175.088H563.171V181.177H566.009V174.996H567.017V189.647Z" fill="black"/>
<path d="M574.915 180.96C574.159 181.44 573.278 181.761 572.271 181.921V180.948C573.518 180.731 574.514 180.238 575.247 179.449C575.979 178.67 576.414 177.652 576.528 176.404H572.442V175.465H581.336V176.404H577.536C577.501 177.125 577.364 177.743 577.135 178.258L581.828 180.914L581.313 181.749L576.712 179.117C576.265 179.872 575.67 180.479 574.903 180.96H574.915ZM584.873 188.491V189.372H573.118V185.858H583.385V184.061H573.083V183.169H584.438V186.683H574.171V188.491H584.873ZM586.555 178.682H584.438V182.207H583.408V174.996H584.438V177.663H586.555V178.67V178.682Z" fill="black"/>
<path d="M586.818 177.535V176.596H590.996V174.73H592.049V176.596H596.25V177.535H586.83H586.818ZM588.627 183.739C587.871 183.201 587.494 182.468 587.494 181.541C587.494 180.614 587.871 179.904 588.615 179.366C589.359 178.828 590.332 178.565 591.534 178.565C592.736 178.565 593.686 178.828 594.442 179.366C595.197 179.904 595.575 180.625 595.575 181.541C595.575 182.457 595.197 183.201 594.442 183.739C593.686 184.277 592.713 184.551 591.534 184.551C590.355 184.551 589.382 184.277 588.627 183.739ZM599.684 188.386V189.359H587.871V185.604H588.902V188.386H599.684ZM589.314 180.041C588.764 180.431 588.489 180.934 588.489 181.541C588.489 182.148 588.764 182.674 589.314 183.063C589.863 183.452 590.607 183.658 591.534 183.658C592.461 183.658 593.205 183.464 593.743 183.063C594.293 182.674 594.567 182.159 594.567 181.541C594.567 180.923 594.293 180.419 593.743 180.03C593.194 179.652 592.461 179.458 591.534 179.458C590.607 179.458 589.863 179.652 589.314 180.041ZM601.321 180.339H599.203V186.005H598.173V174.994H599.203V179.309H601.321V180.339Z" fill="black"/>
<path d="M610.215 182.562C608.956 183.169 607.399 183.466 605.545 183.466V182.459C607.708 182.459 609.391 182.024 610.581 181.154C611.771 180.284 612.378 178.991 612.378 177.286V176.427H605.545V175.454H613.42V177.194C613.42 177.778 613.351 178.339 613.214 178.877H616.899V175.008H617.929V185.057H616.899V179.872H612.893C612.367 181.063 611.485 181.967 610.226 182.574L610.215 182.562ZM609.471 188.537C608.418 189.075 607.33 189.35 606.209 189.373V188.343C607.102 188.331 607.971 188.125 608.818 187.724C609.665 187.324 610.409 186.763 611.016 186.03C611.634 185.309 612.035 184.474 612.229 183.547L613.294 183.741C613.111 184.474 612.893 185.08 612.63 185.538L618.547 188.629L618.067 189.567L612.081 186.362C611.394 187.278 610.524 188.011 609.471 188.549V188.537Z" fill="black"/>
<path d="M46.422 207.632C45.06 208.445 43.1256 208.845 40.6074 208.845V207.907C42.8051 207.895 44.4991 207.563 45.678 206.922C46.857 206.281 47.4522 205.251 47.4522 203.843V203.408H40.6074V202.47H48.4709V203.752C48.4709 205.537 47.7841 206.831 46.4335 207.632H46.422ZM52.706 215.484V216.377H41.237V210.173H52.5457V211.054H42.2671V212.829H52.3626V213.664H42.2671V215.473H52.706V215.484ZM54.6632 206.007H52.5457V209.234H51.5156V202.023H52.5457V204.977H54.6632V206.007Z" fill="black"/>
<path d="M68.7422 209.612H54.9268V208.696H68.7422V209.612ZM58.8757 206.464C57.7539 206.957 56.6208 207.22 55.4876 207.243V206.293C56.4033 206.27 57.3304 206.052 58.269 205.663C59.2076 205.274 60.0203 204.725 60.6956 204.038C61.3709 203.351 61.8059 202.573 61.9776 201.691L62.9848 201.886C62.8475 202.55 62.5956 203.145 62.2408 203.683L68.1928 206.43L67.7922 207.266L61.6456 204.438C60.9131 205.285 59.9745 205.961 58.8528 206.464H58.8757ZM67.7006 210.928V216.4H55.9912V210.928H57.0214V212.668H66.6933V210.928H67.7006ZM66.6819 213.561H57.0099V215.484H66.6819V213.561Z" fill="black"/>
<path d="M78.2531 214.477C78.9056 214.339 79.455 214.167 79.8899 213.95V214.957C79.4664 215.186 78.9285 215.369 78.276 215.495C77.6236 215.621 76.9597 215.69 76.2844 215.69H70.5957V202.55H71.6487V214.683H76.2844C76.9483 214.683 77.6007 214.614 78.2531 214.488V214.477ZM81.4352 216.686V202.012H82.4882V216.663L81.4352 216.686Z" fill="black"/>
<path d="M92.6989 214.5C93.3628 214.362 93.9122 214.191 94.3243 213.973V214.98C93.9008 215.198 93.3628 215.37 92.6989 215.495C92.035 215.621 91.3597 215.69 90.6844 215.69H85.2246V202.642H93.2369V203.637H86.2548V214.706H90.7187C91.3712 214.706 92.0236 214.637 92.6989 214.5ZM96.8424 209.269V216.674H95.8123V202.023H96.8424V208.262H98.9599V209.269H96.8424Z" fill="black"/>
<path d="M99.91 215.848C99.7498 215.688 99.6582 215.494 99.6582 215.242C99.6582 214.99 99.7383 214.795 99.91 214.647C100.07 214.486 100.276 214.406 100.505 214.406C100.734 214.406 100.929 214.486 101.1 214.647C101.261 214.807 101.352 215.001 101.352 215.242C101.352 215.482 101.272 215.688 101.1 215.848C100.94 216.009 100.734 216.089 100.505 216.089C100.276 216.089 100.082 216.009 99.91 215.848Z" fill="black"/>
<path d="M114.4 214.5C115.064 214.362 115.614 214.191 116.026 213.973V214.98C115.602 215.198 115.064 215.37 114.4 215.495C113.736 215.621 113.061 215.69 112.386 215.69H106.926V202.642H114.938V203.637H107.956V214.706H112.42C113.072 214.706 113.725 214.637 114.4 214.5ZM118.555 209.269V216.674H117.525V202.023H118.555V208.262H120.673V209.269H118.555Z" fill="black"/>
<path d="M120.936 209.875V208.936H134.751V209.875H120.936ZM132.164 202.687C133.297 203.145 133.87 203.831 133.87 204.747C133.87 205.663 133.297 206.35 132.164 206.807C131.02 207.265 129.589 207.494 127.838 207.494C126.086 207.494 124.656 207.265 123.511 206.807C122.366 206.35 121.805 205.663 121.805 204.747C121.805 203.831 122.378 203.145 123.511 202.687C124.644 202.229 126.086 202 127.838 202C129.589 202 131.02 202.229 132.164 202.687ZM121.989 216.399V211.672H133.698V216.399H121.989ZM124.301 203.374C123.339 203.683 122.858 204.14 122.858 204.736C122.858 205.331 123.339 205.789 124.289 206.086C125.239 206.395 126.43 206.544 127.838 206.544C129.245 206.544 130.424 206.395 131.374 206.086C132.324 205.777 132.794 205.331 132.794 204.736C132.794 204.14 132.313 203.683 131.363 203.374C130.413 203.064 129.234 202.904 127.838 202.904C126.441 202.904 125.262 203.064 124.301 203.374ZM132.691 212.588H123.019V215.484H132.691V212.588Z" fill="black"/>
<path d="M145.568 202.115V216.422H144.561V209.417H142.294C142.271 211.604 141.997 213.229 141.459 214.305C140.932 215.369 140.154 215.907 139.124 215.907C137.041 215.907 135.999 213.664 135.999 209.177C135.999 204.69 137.041 202.447 139.124 202.447C141.207 202.447 142.168 204.427 142.294 208.399H144.561V202.126H145.568V202.115ZM140.749 213.492C141.115 212.542 141.287 211.1 141.287 209.166C141.287 207.231 141.104 205.789 140.749 204.839C140.383 203.889 139.845 203.42 139.112 203.42C137.693 203.42 136.972 205.331 136.972 209.166C136.972 213 137.682 214.911 139.112 214.911C139.833 214.911 140.383 214.442 140.749 213.492ZM148.864 216.663H147.857V202.012H148.864V216.663Z" fill="black"/>
<path d="M164.282 215.861H150.467V214.854H156.819V210.71H151.474V202.641H163.298V203.648H152.504V209.714H163.458V210.71H157.872V214.854H164.282V215.861Z" fill="black"/>
<path d="M182.481 215.861H168.666V214.854H175.053V211.534H176.083V214.854H182.47V215.861H182.481ZM169.547 210.733V202.641H175.042V203.648H170.578V209.714H175.019V210.722H169.547V210.733ZM175.969 210.733V202.641H181.497V203.648H176.999V209.714H181.577V210.722H175.969V210.733Z" fill="black"/>
<path d="M193.836 203.179C194.454 203.671 194.935 204.427 195.29 205.434C195.633 206.441 195.816 207.689 195.816 209.177C195.816 210.665 195.644 211.913 195.29 212.92C194.935 213.927 194.454 214.671 193.836 215.175C193.218 215.678 192.508 215.919 191.684 215.919C190.436 215.919 189.441 215.346 188.685 214.213C187.93 213.08 187.563 211.398 187.563 209.188C187.563 206.979 187.941 205.297 188.685 204.164C189.441 203.03 190.436 202.458 191.684 202.458C192.497 202.458 193.218 202.71 193.836 203.202V203.179ZM189.441 204.896C188.868 205.858 188.582 207.288 188.582 209.166C188.582 211.043 188.868 212.473 189.441 213.435C190.013 214.396 190.768 214.889 191.696 214.889C192.623 214.889 193.355 214.408 193.916 213.435C194.477 212.473 194.763 211.043 194.763 209.166C194.763 207.288 194.477 205.858 193.916 204.896C193.344 203.935 192.611 203.442 191.696 203.442C190.78 203.442 190.013 203.923 189.441 204.896ZM198.62 216.663V202.012H199.673V216.663H198.62Z" fill="black"/>
<path d="M215.446 210.046H201.631V209.108H204.916V206.99C204.16 206.784 203.577 206.498 203.153 206.109C202.73 205.731 202.512 205.262 202.512 204.712C202.512 203.797 203.073 203.11 204.206 202.664C205.339 202.217 206.782 201.988 208.533 201.988C210.284 201.988 211.726 202.217 212.859 202.664C213.993 203.11 214.554 203.797 214.554 204.712C214.554 205.262 214.336 205.72 213.913 206.109C213.489 206.487 212.894 206.784 212.127 206.99V209.108H215.423V210.046H215.446ZM212.871 212.118C213.993 212.507 214.554 213.148 214.554 214.052C214.554 214.957 213.993 215.632 212.871 216.033C211.749 216.433 210.307 216.628 208.544 216.628C206.782 216.628 205.351 216.433 204.218 216.033C203.096 215.632 202.535 214.968 202.535 214.052C202.535 213.137 203.096 212.507 204.218 212.118C205.339 211.729 206.782 211.534 208.544 211.534C210.307 211.534 211.749 211.729 212.871 212.118ZM204.985 203.373C204.035 203.682 203.554 204.129 203.554 204.724C203.554 205.319 204.035 205.777 204.985 206.075C205.935 206.384 207.125 206.532 208.533 206.532C209.941 206.532 211.12 206.384 212.07 206.075C213.02 205.765 213.489 205.319 213.489 204.724C213.489 204.129 213.02 203.671 212.07 203.373C211.12 203.064 209.941 202.915 208.533 202.915C207.125 202.915 205.935 203.064 204.985 203.373ZM212.012 215.323C212.962 215.06 213.443 214.636 213.443 214.052C213.443 213.469 212.974 213.068 212.035 212.816C211.097 212.564 209.929 212.45 208.544 212.45C207.159 212.45 205.992 212.576 205.042 212.816C204.092 213.057 203.622 213.48 203.622 214.052C203.622 214.625 204.103 215.06 205.065 215.323C206.026 215.586 207.182 215.712 208.544 215.712C209.906 215.712 211.062 215.586 212.012 215.323ZM211.108 209.108V207.242C210.41 207.379 209.552 207.448 208.533 207.448C207.514 207.448 206.656 207.379 205.935 207.242V209.108H211.108Z" fill="black"/>
<path d="M216.396 204.115V203.234H220.574V201.746H221.627V203.234H225.828V204.115H216.408H216.396ZM218.216 208.957C217.472 208.568 217.095 208.007 217.095 207.275C217.095 206.542 217.472 205.993 218.216 205.592C218.972 205.191 219.922 204.985 221.101 204.985C222.28 204.985 223.23 205.191 223.974 205.592C224.718 205.993 225.084 206.553 225.084 207.275C225.084 207.996 224.706 208.557 223.974 208.957C223.23 209.346 222.268 209.552 221.101 209.552C219.933 209.552 218.949 209.358 218.216 208.957ZM229.216 215.516V216.374H217.461V213.078H227.739V211.475H217.415V210.617H228.769V213.902H218.491V215.527H229.216V215.516ZM218.926 206.233C218.388 206.496 218.113 206.84 218.113 207.275C218.113 207.71 218.388 208.041 218.926 208.305C219.464 208.568 220.197 208.705 221.112 208.705C222.028 208.705 222.76 208.568 223.298 208.305C223.836 208.041 224.111 207.698 224.111 207.275C224.111 206.851 223.836 206.496 223.298 206.233C222.76 205.97 222.028 205.844 221.112 205.844C220.197 205.844 219.464 205.97 218.926 206.233ZM230.898 206.29H228.781V209.701H227.751V202.009H228.781V205.306H230.898V206.279V206.29Z" fill="black"/>
<path d="M240.914 202.115V216.422H239.907V209.211H236.988C236.656 211.169 236.015 212.737 235.077 213.893C234.127 215.06 232.959 215.644 231.574 215.644V214.637C232.501 214.625 233.314 214.271 234.012 213.572C234.71 212.874 235.248 211.901 235.626 210.676C236.004 209.44 236.187 208.032 236.187 206.441V203.66H231.574V202.664H237.206V206.384C237.206 207.105 237.171 207.723 237.114 208.216H239.918V202.126H240.926L240.914 202.115ZM244.325 216.663H243.318V202.012H244.325V216.663Z" fill="black"/>
<path d="M259.743 215.859H245.928V214.863H249.362V210.433C248.492 210.067 247.828 209.563 247.37 208.934C246.901 208.304 246.672 207.56 246.672 206.713C246.672 205.866 246.924 205.076 247.439 204.424C247.942 203.771 248.663 203.268 249.59 202.913C250.518 202.558 251.605 202.375 252.83 202.375C254.054 202.375 255.142 202.558 256.069 202.913C256.996 203.268 257.717 203.771 258.221 204.424C258.724 205.076 258.988 205.832 258.988 206.713C258.988 207.594 258.759 208.304 258.29 208.934C257.82 209.563 257.168 210.067 256.309 210.433V214.863H259.72V215.859H259.743ZM250.163 203.794C249.396 204.069 248.812 204.458 248.389 204.973C247.965 205.477 247.759 206.072 247.759 206.725C247.759 207.377 247.965 207.995 248.389 208.499C248.812 209.002 249.396 209.403 250.163 209.666C250.93 209.941 251.822 210.078 252.83 210.078C253.837 210.078 254.741 209.941 255.497 209.666C256.264 209.391 256.847 209.002 257.271 208.499C257.694 207.995 257.9 207.4 257.9 206.725C257.9 206.049 257.694 205.477 257.271 204.973C256.847 204.458 256.264 204.069 255.497 203.794C254.73 203.52 253.848 203.382 252.83 203.382C251.811 203.382 250.918 203.52 250.163 203.794ZM255.291 214.874V210.788C254.57 210.982 253.745 211.074 252.83 211.074C251.914 211.074 251.113 210.982 250.392 210.788V214.874H255.291Z" fill="black"/>
<path d="M266.324 210.46C266.004 210.276 265.649 210.002 265.26 209.647C264.916 209.338 264.63 209.12 264.39 208.972C264.149 208.823 263.886 208.754 263.6 208.754C263.131 208.754 262.753 208.926 262.467 209.269C262.181 209.613 262.02 210.07 261.997 210.643H261.276C261.311 209.796 261.54 209.132 261.952 208.651C262.364 208.17 262.902 207.941 263.543 207.941C263.978 207.941 264.355 208.033 264.664 208.228C264.973 208.422 265.328 208.697 265.717 209.052C266.084 209.372 266.381 209.601 266.61 209.738C266.828 209.876 267.091 209.944 267.377 209.944C267.858 209.944 268.247 209.773 268.522 209.429C268.796 209.086 268.957 208.617 268.98 208.033H269.701C269.666 208.88 269.437 209.555 269.025 210.025C268.613 210.505 268.075 210.734 267.434 210.734C267.011 210.734 266.645 210.643 266.324 210.46Z" fill="black"/>
<path d="M96.5445 28.4805H45.1973C42.5486 28.4805 40.4014 30.6278 40.4014 33.2766V84.626C40.4014 87.2748 42.5486 89.4221 45.1973 89.4221H96.5445C99.1932 89.4221 101.34 87.2748 101.34 84.626V33.2766C101.34 30.6278 99.1932 28.4805 96.5445 28.4805Z" fill="#4AB65B"/>
<path d="M76.1475 59.9921L65.1592 44.2188H56.0596V73.6823H65.5942V57.9203L76.571 73.6823H85.6706V44.2188H76.1475V59.9921Z" fill="white"/>
<path d="M122.574 52.7329V53.7516C122.162 53.9462 121.646 54.095 121.028 54.198C120.41 54.301 119.769 54.3582 119.094 54.3582H115.66V40.9777H116.679V53.3395H119.254C120.605 53.3395 121.715 53.1335 122.574 52.7329ZM125.206 40.4627V55.0908H124.176V47.1701H119.998V46.1399H124.176V40.4627H125.206ZM128.571 55.3426H127.541V40.3711H128.571V55.3426Z" fill="black"/>
<path d="M137.693 41.55C138.323 42.0537 138.815 42.8206 139.17 43.8507C139.525 44.8809 139.708 46.1514 139.708 47.6737C139.708 49.196 139.525 50.4666 139.17 51.4967C138.815 52.5269 138.323 53.2937 137.693 53.7974C137.064 54.301 136.331 54.5528 135.496 54.5528C134.225 54.5528 133.206 53.9691 132.44 52.813C131.673 51.6455 131.295 49.94 131.295 47.6737C131.295 45.4074 131.673 43.7019 132.44 42.5344C133.206 41.3669 134.225 40.7946 135.496 40.7946C136.331 40.7946 137.064 41.0464 137.693 41.55ZM133.195 43.3127C132.611 44.2971 132.314 45.7622 132.314 47.6852C132.314 49.6081 132.611 51.0618 133.195 52.0576C133.779 53.0419 134.546 53.5341 135.496 53.5341C136.446 53.5341 137.19 53.0419 137.762 52.0576C138.346 51.0732 138.632 49.6195 138.632 47.6852C138.632 45.7508 138.346 44.3086 137.762 43.3127C137.19 42.3284 136.423 41.8362 135.496 41.8362C134.569 41.8362 133.779 42.3284 133.195 43.3127ZM142.581 55.3426V40.3711H143.657V55.3426H142.581Z" fill="black"/>
<path d="M159.189 55.3423H158.113V47.8566H154.565V54.3465H146.839V40.8516H147.892V46.4144H153.512V40.8516H154.565V46.815H158.113V40.3594H159.189V55.3309V55.3423ZM153.512 47.4216H147.892V53.3278H153.512V47.4216Z" fill="black"/>
<path d="M173.646 41.0121V45.0525C173.646 46.9526 173.314 48.6008 172.661 49.9858C172.009 51.3822 171.093 52.4467 169.926 53.1793C168.758 53.9233 167.419 54.2896 165.908 54.2896V53.2594C167.568 53.2594 168.976 52.7672 170.097 51.7829C171.219 50.7985 171.975 49.4021 172.341 47.605H165.908V46.5863H172.501C172.547 46.2773 172.581 45.7737 172.581 45.0869V42.0308H165.908V41.0121H173.646ZM177.972 47.7767V55.3426H176.919V40.3711H177.972V46.7466H180.136V47.7767H177.972Z" fill="black"/>
<path d="M188.812 52.5383V53.5684C187.862 54.095 186.157 54.3468 183.707 54.3468H180.686V53.351H182.231V41.9964H180.789V41.0006H188.16V41.9964H186.683V53.1678C187.507 53.0534 188.217 52.8359 188.824 52.5269L188.812 52.5383ZM185.699 53.2709V41.9964H183.204V53.351C184.337 53.351 185.161 53.3281 185.699 53.2709ZM191.033 40.4627V55.0908H190.014V47.7767H187.942V46.7466H190.014V40.4627H191.033ZM194.215 55.3426H193.196V40.3711H194.215V55.3426Z" fill="black"/>
<path d="M200.773 44.1372C200.602 43.977 200.521 43.771 200.521 43.5192C200.521 43.2902 200.602 43.0842 200.773 42.924C200.945 42.7637 201.14 42.6836 201.38 42.6836C201.62 42.6836 201.815 42.7637 201.987 42.924C202.158 43.0842 202.238 43.2902 202.238 43.5192C202.238 43.771 202.158 43.977 201.987 44.1372C201.815 44.2975 201.62 44.3776 201.38 44.3776C201.14 44.3776 200.945 44.2975 200.773 44.1372ZM200.773 52.7791C200.602 52.6188 200.521 52.4128 200.521 52.161C200.521 51.932 200.602 51.726 200.773 51.5658C200.945 51.4055 201.14 51.3254 201.38 51.3254C201.62 51.3254 201.815 51.4055 201.987 51.5658C202.158 51.726 202.238 51.932 202.238 52.161C202.238 52.4128 202.158 52.6188 201.987 52.7791C201.815 52.9393 201.62 53.0194 201.38 53.0194C201.14 53.0194 200.945 52.9393 200.773 52.7791Z" fill="black"/>
<path d="M221.983 54.5182H207.858V53.4881H213.593V49.5277H214.623V53.4881H221.971V54.5182H221.983ZM208.866 47.1698V46.1511H219.728V41.8817H208.866V40.8516H220.804V51.485H219.728V47.1813H208.866V47.1698Z" fill="black"/>
<path d="M229.549 45.0638L229.183 45.7048L226.664 44.2626L226.687 47.1127H225.966V44.2855L223.471 45.7048L223.116 45.0638L225.589 43.6559L223.116 42.2481L223.471 41.6071L225.966 43.0493V40.1992H226.687L226.664 43.0493L229.183 41.6071L229.549 42.2481L227.054 43.6559L229.549 45.0638Z" fill="black"/>
<path d="M236.908 45.0638L236.542 45.7048L234.024 44.2626L234.047 47.1127H233.326V44.2855L230.83 45.7048L230.476 45.0638L232.948 43.6559L230.476 42.2481L230.83 41.6071L233.326 43.0493V40.1992H234.047L234.024 43.0493L236.542 41.6071L236.908 42.2481L234.413 43.6559L236.908 45.0638Z" fill="black"/>
<path d="M244.257 45.0638L243.891 45.7048L241.373 44.2626L241.396 47.1127H240.674V44.2855L238.179 45.7048L237.824 45.0638L240.297 43.6559L237.824 42.2481L238.179 41.6071L240.674 43.0493V40.1992H241.396L241.373 43.0493L243.891 41.6071L244.257 42.2481L241.762 43.6559L244.257 45.0638Z" fill="black"/>
<path d="M251.605 45.0638L251.238 45.7048L248.72 44.2626L248.743 47.1127H248.022V44.2855L245.527 45.7048L245.172 45.0638L247.644 43.6559L245.172 42.2481L245.527 41.6071L248.022 43.0493V40.1992H248.743L248.72 43.0493L251.238 41.6071L251.605 42.2481L249.109 43.6559L251.605 45.0638Z" fill="black"/>
<path d="M261.048 41.0121V45.0525C261.048 46.9526 260.716 48.6008 260.064 49.9858C259.411 51.3822 258.496 52.4467 257.328 53.1793C256.161 53.9233 254.821 54.2896 253.311 54.2896V53.2594C254.97 53.2594 256.367 52.7672 257.5 51.7829C258.633 50.7985 259.377 49.4021 259.743 47.605H253.311V46.5863H259.904C259.961 46.2773 259.984 45.7737 259.984 45.0869V42.0308H253.311V41.0121H261.048ZM265.375 47.7767V55.3426H264.322V40.3711H265.375V46.7466H267.538V47.7767H265.375Z" fill="black"/>
<path d="M276.214 52.5383V53.5684C275.264 54.095 273.558 54.3468 271.109 54.3468H268.087V53.351H269.632V41.9964H268.19V41.0006H275.561V41.9964H274.085V53.1678C274.909 53.0534 275.618 52.8359 276.237 52.5269L276.214 52.5383ZM273.1 53.2709V41.9964H270.605V53.351C271.738 53.351 272.562 53.3281 273.1 53.2709ZM278.446 40.4627V55.0908H277.438V47.7767H275.367V46.7466H277.438V40.4627H278.446ZM281.616 55.3426H280.597V40.3711H281.616V55.3426Z" fill="black"/>
<path d="M125.344 73.6013H116.93C117.011 74.6429 117.4 75.4785 118.087 76.108C118.773 76.7375 119.643 77.058 120.696 77.058C121.944 77.058 122.951 76.6116 123.695 75.7188L124.703 76.8749C124.233 77.4472 123.661 77.8936 122.963 78.1912C122.265 78.4888 121.498 78.649 120.651 78.649C119.563 78.649 118.602 78.4087 117.755 77.9394C116.908 77.4701 116.244 76.8062 115.774 75.9592C115.305 75.1122 115.076 74.1622 115.076 73.0862C115.076 72.0103 115.305 71.0832 115.752 70.2362C116.198 69.3892 116.827 68.7253 117.617 68.2445C118.407 67.7638 119.288 67.5234 120.261 67.5234C121.234 67.5234 122.093 67.7524 122.871 68.2102C123.65 68.668 124.268 69.3205 124.714 70.1675C125.16 71.0145 125.378 71.976 125.378 73.0634C125.378 73.2007 125.366 73.3838 125.332 73.6013H125.344ZM117.972 69.9843C117.354 70.6024 116.999 71.4037 116.919 72.388H123.627C123.535 71.4037 123.169 70.6024 122.562 69.9843C121.944 69.3663 121.177 69.0572 120.273 69.0572C119.369 69.0572 118.59 69.3663 117.972 69.9843Z" fill="black"/>
<path d="M133.825 68.4627L133.184 69.5501L130.689 68.085L130.711 70.8893H129.475L129.498 68.085L127.003 69.5501L126.385 68.4627L128.857 67.0892L126.385 65.7156L127.003 64.6283L129.498 66.0934L129.475 63.2891H130.711L130.689 66.0934L133.184 64.6283L133.825 65.7156L131.352 67.0892L133.825 68.4627Z" fill="black"/>
<path d="M137.648 63.2773V78.5464H135.794V63.2773H137.648Z" fill="black"/>
<path d="M141.379 78.2828C140.6 78.0424 139.982 77.7334 139.524 77.3442L140.2 75.9249C140.635 76.2797 141.184 76.5773 141.848 76.7948C142.512 77.0237 143.187 77.1382 143.885 77.1382C144.767 77.1382 145.408 76.9894 145.831 76.7032C146.255 76.4171 146.461 76.0164 146.461 75.5128C146.461 75.158 146.346 74.8718 146.117 74.6658C145.877 74.4598 145.591 74.311 145.247 74.208C144.904 74.1164 144.423 74.0019 143.782 73.876C142.935 73.7158 142.249 73.5441 141.734 73.3724C141.218 73.2007 140.772 72.9031 140.406 72.491C140.039 72.0675 139.845 71.4838 139.845 70.7283C139.845 69.7783 140.223 69.0114 140.967 68.4162C141.711 67.821 142.764 67.5234 144.126 67.5234C144.813 67.5234 145.499 67.615 146.175 67.7981C146.85 67.9813 147.411 68.2331 147.846 68.5536L147.17 69.9729C146.312 69.3548 145.293 69.0458 144.126 69.0458C143.29 69.0458 142.661 69.1946 142.249 69.5036C141.837 69.8127 141.63 70.2018 141.63 70.6711C141.63 71.0374 141.756 71.335 141.985 71.5525C142.226 71.7699 142.523 71.9302 142.878 72.0446C143.233 72.1591 143.725 72.2621 144.355 72.3766C145.167 72.5254 145.831 72.6971 146.346 72.8802C146.861 73.0633 147.296 73.3609 147.663 73.7616C148.029 74.1622 148.212 74.7345 148.212 75.4556C148.212 76.4171 147.823 77.1839 147.045 77.7563C146.266 78.3286 145.179 78.6147 143.782 78.6147C142.947 78.6147 142.134 78.5002 141.356 78.2599L141.379 78.2828Z" fill="black"/>
<path d="M156.454 68.4627L155.813 69.5501L153.317 68.085L153.34 70.8893H152.104L152.127 68.085L149.632 69.5501L149.014 68.4627L151.486 67.0892L149.014 65.7156L149.632 64.6283L152.127 66.0934L152.104 63.2891H153.34L153.317 66.0934L155.813 64.6283L156.454 65.7156L153.981 67.0892L156.454 68.4627Z" fill="black"/>
<path d="M164.695 68.4627L164.054 69.5501L161.559 68.085L161.582 70.8893H160.345L160.368 68.085L157.873 69.5501L157.255 68.4627L159.727 67.0892L157.255 65.7156L157.873 64.6283L160.368 66.0934L160.345 63.2891H161.582L161.559 66.0934L164.054 64.6283L164.695 65.7156L162.222 67.0892L164.695 68.4627Z" fill="black"/>
<path d="M168.22 77.811C167.339 77.2158 166.641 76.3573 166.137 75.2471C165.634 74.1368 165.382 72.8319 165.382 71.3325C165.382 69.8331 165.634 68.5168 166.137 67.4065C166.641 66.2962 167.328 65.4492 168.22 64.854C169.102 64.2588 170.121 63.9727 171.254 63.9727C172.387 63.9727 173.428 64.2703 174.31 64.854C175.191 65.4378 175.889 66.2962 176.382 67.4065C176.874 68.5168 177.126 69.8331 177.126 71.3325C177.126 72.8319 176.885 74.1482 176.382 75.2585C175.889 76.3688 175.191 77.2158 174.298 77.811C173.406 78.4062 172.387 78.6923 171.254 78.6923C170.121 78.6923 169.102 78.3947 168.22 77.7995V77.811ZM174.058 75.5218C174.756 74.5489 175.111 73.1524 175.111 71.3439C175.111 69.5355 174.756 68.139 174.058 67.1661C173.36 66.1932 172.421 65.701 171.265 65.701C170.109 65.701 169.17 66.1818 168.472 67.1661C167.774 68.139 167.431 69.5355 167.431 71.3439C167.431 73.1524 167.774 74.5489 168.472 75.5218C169.17 76.4947 170.098 76.9869 171.265 76.9869C172.433 76.9869 173.36 76.4947 174.058 75.5218Z" fill="black"/>
<path d="M187.324 69.2178C188.137 69.0919 188.766 68.9202 189.235 68.7027V70.3853C188.789 70.6028 188.136 70.7745 187.312 70.9004C186.477 71.0263 185.561 71.0835 184.542 71.0835H178.739V63.7008H180.616V69.4009H184.611C185.618 69.4009 186.523 69.3437 187.324 69.2178ZM179.346 79.0614V72.7661H192.166V79.0614H179.346ZM190.288 74.4258H181.189V77.3903H190.288V74.4258ZM190.288 71.8389V63.4375H192.166V71.8389H190.288Z" fill="black"/>
<path d="M206.896 76.3819V79.6097H205.008V76.3819H198.438V74.6306H213.455V76.3819H206.885H206.896ZM198.998 66.6298V64.9472H204.985V63.0586H206.873V64.9472H212.906V66.6298H198.998ZM201.414 68.3467C202.558 67.8431 204.069 67.5913 205.946 67.5913C207.823 67.5913 209.346 67.8431 210.49 68.3467C211.647 68.8503 212.219 69.5943 212.219 70.5787C212.219 71.563 211.647 72.307 210.49 72.8107C209.334 73.3143 207.823 73.5661 205.946 73.5661C204.069 73.5661 202.558 73.3143 201.414 72.8107C200.269 72.307 199.697 71.563 199.697 70.5787C199.697 69.5943 200.269 68.8503 201.414 68.3467ZM209.117 69.5371C208.304 69.2967 207.251 69.1823 205.946 69.1823C204.641 69.1823 203.588 69.2967 202.787 69.5371C201.986 69.7775 201.585 70.1208 201.585 70.5787C201.585 71.0365 201.986 71.3914 202.776 71.6317C203.565 71.8721 204.63 71.9866 205.946 71.9866C207.263 71.9866 208.327 71.8721 209.128 71.6317C209.93 71.3914 210.33 71.048 210.33 70.5787C210.33 70.1094 209.93 69.7775 209.117 69.5371Z" fill="black"/>
<path d="M222.795 73.3498C222.12 74.9179 221.147 76.1312 219.888 76.9897C218.629 77.8481 217.141 78.2716 215.447 78.2716V76.4174C216.775 76.4174 217.931 76.074 218.904 75.3758C219.877 74.6776 220.621 73.6932 221.136 72.4112C221.651 71.1293 221.903 69.6184 221.903 67.8786V65.7611H215.436V63.9869H223.814V67.8328C223.814 69.9274 223.471 71.7703 222.795 73.3384V73.3498ZM226.962 79.2446V63.4375H228.839V79.2446H226.962Z" fill="black"/>
<path d="M49.1458 121.667V128.329H47.8867V121.667H40.3096V120.385H56.9404V121.667H49.1572H49.1458ZM41.4999 112.018V110.805H55.6242V118.68H54.3651V112.018H41.4999Z" fill="#17544F"/>
<path d="M66.1088 111.021V126.737H59.1494V111.021H66.1088ZM64.884 125.546V112.223H60.3169V125.546H64.884ZM74.3501 127.916H73.1368V118.93H69.7143V127.618H68.5239V110.38H69.7143V117.706H73.1368V110.266H74.3501V127.916Z" fill="#17544F"/>
<path d="M93.4418 124.105V128.329H92.2057V124.105H86.8948V128.329H85.6586V124.105H81.252V122.938H97.8828V124.105H93.4418ZM81.8929 113.552V112.385H88.8978V109.832H90.1568V112.385H97.2075V113.552H81.8815H81.8929ZM84.6514 115.83C85.899 115.292 87.5357 115.029 89.5617 115.029C91.5876 115.029 93.2243 115.292 94.4834 115.83C95.7424 116.368 96.372 117.158 96.372 118.222C96.372 119.287 95.7424 120.076 94.4834 120.614C93.2243 121.152 91.5876 121.415 89.5617 121.415C87.5357 121.415 85.899 121.152 84.6514 120.614C83.4038 120.076 82.7743 119.287 82.7743 118.222C82.7743 117.158 83.4038 116.368 84.6514 115.83ZM93.5448 116.654C92.5261 116.299 91.1984 116.127 89.5617 116.127C87.9249 116.127 86.5743 116.299 85.5671 116.654C84.5598 117.009 84.0447 117.524 84.0447 118.222C84.0447 118.92 84.5484 119.424 85.5671 119.767C86.5743 120.111 87.9135 120.282 89.5617 120.282C91.2099 120.282 92.549 120.111 93.5563 119.767C94.5635 119.424 95.0786 118.909 95.0786 118.222C95.0786 117.535 94.5635 117.009 93.5563 116.654H93.5448Z" fill="#17544F"/>
<path d="M106.182 125.374C106.869 125.249 107.475 125.077 108.013 124.859V126.027C107.51 126.244 106.891 126.416 106.159 126.542C105.426 126.668 104.682 126.737 103.915 126.737H100.081V111.021H107.292V112.189H101.271V125.558H104.099C104.808 125.558 105.495 125.489 106.182 125.363V125.374ZM115.293 127.916H114.08V118.907H110.657V127.618H109.467V110.38H110.657V117.706H114.08V110.266H115.293V127.916Z" fill="#17544F"/>
<path d="M134.271 121.414H117.64V120.27H125.331V117.786H118.647V116.664H121.84V111.696H118.83V110.598H133.08V111.696H130.07V116.664H133.241V117.786H126.579V120.27H134.271V121.414ZM133.378 126.462V127.584H118.899V122.959H120.158V126.451H133.367L133.378 126.462ZM128.834 116.653V111.685H123.088V116.653H128.834Z" fill="#17544F"/>
<path d="M141.218 114.717C141.024 114.523 140.921 114.282 140.921 113.996C140.921 113.721 141.024 113.492 141.218 113.298C141.413 113.103 141.653 113.012 141.928 113.012C142.203 113.012 142.443 113.103 142.638 113.298C142.832 113.492 142.935 113.721 142.935 113.996C142.935 114.282 142.832 114.534 142.638 114.717C142.443 114.912 142.203 115.003 141.928 115.003C141.653 115.003 141.413 114.912 141.218 114.717ZM141.218 124.893C141.024 124.698 140.921 124.458 140.921 124.172C140.921 123.897 141.024 123.668 141.218 123.473C141.413 123.279 141.653 123.187 141.928 123.187C142.203 123.187 142.443 123.279 142.638 123.473C142.832 123.668 142.935 123.897 142.935 124.172C142.935 124.458 142.832 124.71 142.638 124.893C142.443 125.087 142.203 125.179 141.928 125.179C141.653 125.179 141.413 125.087 141.218 124.893Z" fill="#17544F"/>
<path d="M151.933 126.645C150.914 126.245 150.124 125.73 149.552 125.089L150.078 124.173C150.616 124.757 151.337 125.238 152.264 125.615C153.18 125.993 154.142 126.188 155.137 126.188C156.557 126.188 157.644 125.89 158.377 125.306C159.109 124.723 159.476 123.967 159.476 123.063C159.476 122.353 159.281 121.792 158.892 121.357C158.503 120.922 158.022 120.602 157.45 120.384C156.877 120.167 156.099 119.927 155.115 119.663C153.993 119.377 153.1 119.091 152.413 118.816C151.727 118.542 151.154 118.107 150.673 117.534C150.193 116.951 149.964 116.184 149.964 115.211C149.964 114.432 150.158 113.723 150.559 113.07C150.96 112.429 151.566 111.914 152.367 111.525C153.18 111.136 154.187 110.941 155.378 110.941C156.236 110.941 157.072 111.067 157.907 111.331C158.743 111.594 159.441 111.949 160.025 112.384L159.59 113.368C158.972 112.922 158.297 112.578 157.553 112.349C156.809 112.109 156.087 111.994 155.378 111.994C153.981 111.994 152.928 112.292 152.219 112.887C151.509 113.482 151.154 114.249 151.154 115.188C151.154 115.898 151.349 116.458 151.738 116.893C152.127 117.328 152.608 117.649 153.18 117.878C153.752 118.107 154.554 118.358 155.561 118.61C156.683 118.896 157.575 119.183 158.251 119.457C158.926 119.732 159.498 120.156 159.968 120.716C160.437 121.277 160.666 122.044 160.666 122.994C160.666 123.772 160.46 124.482 160.059 125.135C159.659 125.776 159.029 126.291 158.205 126.668C157.369 127.046 156.351 127.241 155.137 127.241C154.016 127.241 152.951 127.046 151.933 126.645Z" fill="#17544F"/>
<path d="M173.863 127.138H162.76V126.268L169.536 119.515C170.429 118.645 171.024 117.889 171.345 117.248C171.654 116.607 171.814 115.967 171.814 115.303C171.814 114.295 171.471 113.494 170.772 112.91C170.074 112.327 169.078 112.041 167.796 112.041C165.805 112.041 164.282 112.67 163.218 113.929L162.325 113.219C162.943 112.487 163.71 111.926 164.66 111.537C165.599 111.148 166.675 110.953 167.888 110.953C169.468 110.953 170.727 111.331 171.654 112.086C172.592 112.842 173.05 113.895 173.05 115.223C173.05 116.047 172.867 116.836 172.512 117.592C172.157 118.347 171.471 119.217 170.452 120.213L164.592 126.051H173.851V127.149L173.863 127.138Z" fill="#17544F"/>
<path d="M185.927 122.699V127.129H184.69V122.699H175.545V121.829L184.233 111.047H185.629L177.124 121.612H184.702V117.709H185.915V121.612H189.269V122.688H185.915L185.927 122.699Z" fill="#17544F"/>
<path d="M196.057 119.62V123.866H194.981V119.62H190.643V118.59H194.981V114.32H196.057V118.59H200.418V119.62H196.057Z" fill="#17544F"/>
<path d="M213.637 118.45L219.429 125.798L218.445 126.553L213.294 119.915C212.756 121.895 212.024 123.463 211.096 124.642C210.169 125.809 209.082 126.519 207.846 126.748V125.466C208.899 125.226 209.814 124.505 210.57 123.303C211.325 122.112 211.909 120.556 212.321 118.644C212.722 116.733 212.939 114.592 212.974 112.234H208.201V111.044H218.903V112.234H214.221C214.187 114.615 214.004 116.687 213.649 118.461L213.637 118.45ZM222.806 127.916H221.57V110.266H222.806V127.916Z" fill="#17544F"/>
<path d="M225.61 119.823V118.724H232.157C235.145 118.724 237.171 118.472 238.247 117.969V119.113C237.205 119.594 235.065 119.823 231.814 119.823V123.291H230.578V119.823H225.61ZM228.048 116.218C227.156 115.622 226.709 114.798 226.709 113.757C226.709 112.715 227.156 111.891 228.06 111.296C228.964 110.701 230.143 110.403 231.597 110.403C233.05 110.403 234.218 110.701 235.11 111.296C236.003 111.891 236.438 112.715 236.438 113.757C236.438 114.798 235.992 115.611 235.11 116.218C234.218 116.813 233.05 117.11 231.597 117.11C230.143 117.11 228.941 116.813 228.048 116.218ZM241.669 127.572H227.259V122.33H228.495V126.416H241.658V127.561L241.669 127.572ZM228.941 112.097C228.266 112.486 227.934 113.047 227.934 113.768C227.934 114.489 228.266 115.062 228.941 115.451C229.616 115.84 230.509 116.034 231.608 116.034C232.707 116.034 233.554 115.84 234.229 115.451C234.904 115.062 235.236 114.501 235.236 113.768C235.236 113.036 234.904 112.498 234.229 112.097C233.554 111.708 232.684 111.513 231.608 111.513C230.532 111.513 229.616 111.708 228.941 112.097ZM239.895 110.266H241.131V124.115H239.895V122.605H234.401V121.551H239.895V110.266Z" fill="#17544F"/>
<path d="M243.798 118.93V117.786H260.429V118.93H243.798ZM257.888 116.515V111.742H245.023V110.598H259.158V116.527H257.899L257.888 116.515ZM245.068 127.595V121.117H259.181V127.595H245.068ZM257.956 122.238H246.305V126.462H257.956V122.238Z" fill="#17544F"/>
<path d="M279.122 124.747V125.983C277.84 126.487 275.814 126.739 273.055 126.739H266.554V125.549H271.659V121.165H272.895V125.549H273.032C275.94 125.549 277.977 125.285 279.122 124.747ZM270.113 120.009C269.209 120.684 268.133 121.13 266.897 121.336V120.123C268.419 119.848 269.598 119.139 270.445 117.983C271.292 116.827 271.762 115.453 271.853 113.851H267.229V112.66H271.853V110.039H273.112V112.66H277.691V113.851H273.112C273.067 114.766 272.918 115.602 272.677 116.357L278.171 120.283L277.508 121.313L272.22 117.433C271.716 118.475 271.006 119.333 270.102 120.009H270.113ZM281.972 127.918H280.758V110.268H281.972V127.918Z" fill="#17544F"/>
<path d="M292.273 117.763C290.625 118.885 288.29 119.457 285.279 119.457V118.289C287.9 118.289 289.926 117.831 291.357 116.904C292.788 115.977 293.509 114.569 293.509 112.692V111.983H285.279V110.838H294.745V112.589C294.745 114.936 293.921 116.664 292.273 117.797V117.763ZM298.019 121.574C299.301 122.158 299.942 123.051 299.942 124.264C299.942 125.477 299.301 126.37 298.019 126.954C296.737 127.538 295.054 127.824 292.948 127.824C290.842 127.824 289.16 127.538 287.878 126.954C286.596 126.37 285.955 125.477 285.955 124.264C285.955 123.051 286.596 122.158 287.878 121.574C289.16 120.991 290.842 120.704 292.948 120.704C295.054 120.704 296.737 120.991 298.019 121.574ZM297.069 126.061C298.133 125.661 298.66 125.054 298.66 124.253C298.66 123.452 298.133 122.856 297.069 122.444C296.004 122.032 294.631 121.838 292.948 121.838C291.266 121.838 289.892 122.044 288.839 122.444C287.786 122.845 287.248 123.452 287.248 124.253C287.248 125.054 287.775 125.649 288.839 126.061C289.892 126.462 291.266 126.668 292.948 126.668C294.631 126.668 296.004 126.462 297.069 126.061ZM302.208 115.462H299.656V119.938H298.419V110.266H299.656V114.215H302.208V115.451V115.462Z" fill="#17544F"/>
<path d="M324.127 126.945H307.496V125.686H324.127V126.945ZM308.412 121.142V119.929H311.605V112.42H308.572V111.207H323.028V112.42H320.018V119.929H323.212V121.142H308.412ZM318.771 119.918V112.409H312.841V119.918H318.771Z" fill="#17544F"/>
<path d="M342.326 126.945H325.695V125.755H333.318V121.714H326.932V115.785H339.934V112.203H326.932V111.035H341.182V116.941H328.156V120.524H341.434V121.714H334.589V125.755H342.338V126.945H342.326Z" fill="#17544F"/>
<path d="M360.526 126.945H343.895V125.732H351.563V120.764H345.108V111.023H359.312V120.764H352.811V125.732H360.537V126.945H360.526ZM358.065 119.551V112.248H346.321V119.551H358.065Z" fill="#17544F"/>
<path d="M365.241 119.457C364.349 120.235 363.318 120.739 362.174 120.945V119.709C363.261 119.48 364.2 118.907 365.001 118.003C365.802 117.099 366.397 115.989 366.821 114.661C367.233 113.333 367.45 111.937 367.462 110.472L368.698 110.54C368.698 112.269 368.446 113.848 367.943 115.268L373.391 119.96L372.567 120.922L367.439 116.492C366.867 117.683 366.146 118.679 365.241 119.457ZM378.049 127.572H363.708V122.238H364.944V126.37H378.038V127.561L378.049 127.572ZM372.303 117.316V116.195H376.39V113.551H372.303V112.429H376.39V110.266H377.603V123.406H376.39V117.316H372.303Z" fill="#17544F"/>
<path d="M393.674 121.667V128.329H392.415V121.667H384.838V120.385H401.469V121.667H393.686H393.674ZM386.028 112.018V110.805H400.152V118.68H398.893V112.018H386.028Z" fill="#17544F"/>
<path d="M410.637 111.021V126.737H403.678V111.021H410.637ZM409.412 125.546V112.223H404.834V125.546H409.412ZM418.878 127.916H417.665V118.93H414.242V127.618H413.052V110.38H414.242V117.706H417.665V110.266H418.878V127.916Z" fill="#17544F"/>
<path d="M434.869 288.008H39.5205V289.152H434.869V288.008Z" fill="#CBCBCB"/>
<path d="M466.219 296.386H450.446V295.23H456.742V287.263H457.943V295.23H466.219V296.386ZM451.499 282.422V281.266H465.074V292.311H463.873V282.422H451.499Z" fill="#989898"/>
<path d="M473.968 287.148C473.396 288.133 472.606 288.888 471.599 289.403C470.591 289.918 469.447 290.17 468.153 290.17V289.06C469.229 289.048 470.179 288.831 471.015 288.407C471.85 287.984 472.503 287.366 472.961 286.553C473.43 285.74 473.659 284.779 473.659 283.657V282.181H468.153V281.093H474.815V283.623C474.815 284.985 474.529 286.164 473.956 287.148H473.968ZM482.736 291.99V297.221H481.557V293.077H469.058V291.99H482.736ZM482.736 290.903H481.58V285.832H478.226V290.731H477.093V280.693H478.226V284.676H481.58V280.578H482.736V290.903Z" fill="#989898"/>
<path d="M494.674 287.171C495.658 287.022 496.436 286.828 497.009 286.564V287.698C496.471 287.961 495.692 288.167 494.674 288.304C493.655 288.442 492.499 288.522 491.205 288.522H485.803V280.99H486.982V287.389H491.297C492.556 287.389 493.689 287.32 494.674 287.171ZM486.409 296.98V290.731H499.55V296.98H486.409ZM498.371 291.841H487.588V295.893H498.371V291.841ZM498.371 289.483V280.578H499.55V289.483H498.371Z" fill="#989898"/>
<path d="M511.774 295.977C510.756 296.126 509.577 296.194 508.249 296.194H502.217V295.038H508.363C509.657 295.038 510.801 294.97 511.809 294.821C512.816 294.672 513.583 294.466 514.144 294.191V295.347C513.594 295.622 512.804 295.828 511.786 295.977H511.774ZM510.126 281.726C510.859 282.173 511.431 282.779 511.843 283.569C512.255 284.359 512.461 285.252 512.461 286.248C512.461 287.243 512.255 288.125 511.843 288.903C511.431 289.681 510.859 290.299 510.126 290.746C509.394 291.192 508.558 291.41 507.631 291.41C506.704 291.41 505.868 291.192 505.136 290.746C504.403 290.299 503.831 289.693 503.419 288.903C503.007 288.113 502.801 287.232 502.801 286.248C502.801 285.263 503.007 284.348 503.419 283.569C503.831 282.791 504.403 282.173 505.136 281.726C505.868 281.28 506.704 281.062 507.631 281.062C508.558 281.062 509.394 281.28 510.126 281.726ZM505.719 282.699C505.17 283.054 504.735 283.546 504.426 284.164C504.117 284.782 503.957 285.481 503.957 286.248C503.957 287.014 504.117 287.69 504.426 288.308C504.735 288.926 505.17 289.407 505.719 289.762C506.269 290.116 506.91 290.288 507.642 290.288C508.375 290.288 509.016 290.116 509.565 289.762C510.115 289.407 510.561 288.926 510.859 288.308C511.168 287.69 511.316 287.003 511.316 286.248C511.316 285.492 511.168 284.782 510.859 284.164C510.55 283.546 510.126 283.066 509.565 282.699C509.004 282.344 508.363 282.161 507.642 282.161C506.921 282.161 506.28 282.344 505.719 282.699ZM515.689 297.305V280.57H516.845V297.305H515.689Z" fill="#989898"/>
<path d="M527.101 287.263C526.197 287.858 525.178 288.27 524.033 288.487V287.354C525.098 287.125 526.013 286.69 526.815 286.049C527.604 285.408 528.211 284.63 528.623 283.703C529.035 282.776 529.253 281.803 529.264 280.773L530.42 280.841C530.42 282.02 530.214 283.085 529.814 284.046L535.193 287.228L534.61 288.213L529.299 285.031C528.749 285.935 528.017 286.679 527.124 287.274L527.101 287.263ZM538.868 296.98H525.258V292.974H537.174V290.925H525.212V289.907H538.364V293.913H526.426V295.985H538.868V296.992V296.98ZM537.196 288.808V280.578H538.375V288.808H537.196Z" fill="#989898"/>
<path d="M545.529 288.01L549.489 295.393L548.527 295.977L545.22 289.727C544.521 293.493 543.194 295.645 541.236 296.194V294.97C542.381 294.557 543.239 293.253 543.812 291.043C544.384 288.834 544.67 285.961 544.682 282.413H541.454V281.28H548.928V282.413H545.838C545.803 284.634 545.712 286.488 545.529 287.987V288.01ZM551.87 280.685V297.018H550.737V288.308H547.967V287.152H550.737V280.685H551.87ZM556.059 297.305H554.903V280.57H556.059V297.305Z" fill="#989898"/>
<path d="M571.066 293.755V297.692H569.864V293.755H562.584V292.621H578.357V293.755H571.054H571.066ZM563.202 283.693V282.583H569.841V280.168H571.043V282.583H577.727V283.693H563.202ZM565.823 285.857C567.002 285.342 568.559 285.078 570.47 285.078C572.382 285.078 573.939 285.342 575.129 285.857C576.319 286.372 576.914 287.139 576.914 288.157C576.914 289.176 576.319 289.92 575.129 290.435C573.939 290.95 572.382 291.202 570.47 291.202C568.559 291.202 567.002 290.95 565.823 290.435C564.644 289.92 564.049 289.165 564.049 288.157C564.049 287.15 564.644 286.372 565.823 285.857ZM574.259 286.669C573.298 286.326 572.027 286.154 570.482 286.154C568.937 286.154 567.666 286.326 566.705 286.669C565.743 287.013 565.251 287.505 565.251 288.157C565.251 288.81 565.732 289.302 566.693 289.634C567.655 289.966 568.914 290.138 570.482 290.138C572.05 290.138 573.298 289.966 574.259 289.634C575.22 289.302 575.713 288.81 575.713 288.157C575.713 287.505 575.232 287.013 574.259 286.669Z" fill="#989898"/>
<path d="M588.269 290.883C587.57 292.554 586.575 293.848 585.258 294.763C583.954 295.679 582.42 296.137 580.657 296.137V294.958C582.168 294.958 583.484 294.557 584.618 293.756C585.739 292.955 586.609 291.822 587.204 290.334C587.811 288.857 588.108 287.117 588.108 285.126V282.425H580.657V281.291H589.31V285.057C589.31 287.266 588.967 289.201 588.269 290.872V290.883ZM593.259 297.305V280.57H594.438V297.305H593.259Z" fill="#989898"/>
<path d="M607.338 288.159L612.568 295.439L611.63 296.16L606.971 289.601C606.445 291.559 605.735 293.115 604.831 294.26C603.927 295.404 602.862 296.057 601.626 296.194V294.992C602.748 294.786 603.686 294.031 604.453 292.726C605.22 291.421 605.792 289.75 606.17 287.713C606.548 285.675 606.742 283.455 606.754 281.028L607.956 281.051C607.921 283.798 607.715 286.167 607.326 288.148L607.338 288.159ZM615.544 288.857V297.305H614.365V280.57H615.544V287.69H617.96V288.846H615.544V288.857Z" fill="#989898"/>
<path d="M624.816 294.878C625.617 294.741 626.338 294.512 626.979 294.191V295.37C625.8 295.92 624.106 296.194 621.908 296.194H619.253V288.045H624.129V282.402H619.253V281.291H625.239V289.155H620.363V295.084H621.908C623.042 295.084 624.014 295.015 624.816 294.878ZM629.966 280.685V297.018H628.833V290.837H626.327V289.659H628.833V286.042H626.327V284.863H628.833V280.685H629.966ZM633.686 297.305H632.553V280.57H633.686V297.305Z" fill="#989898"/>
</svg>
