<svg width="520" height="90" viewBox="0 0 520 90" fill="none" xmlns="http://www.w3.org/2000/svg">
<rect width="520" height="90" rx="45" fill="#FD3941"/>
<path d="M142.563 58.1333H137.73V32.5333H142.563V58.1333ZM130.463 37.7667C130.397 40.2778 130.197 42.4111 129.863 44.1667L136.93 53.8333L133.13 56.8333L128.23 49.8C127.252 52.0889 126.008 53.8444 124.497 55.0667C122.985 56.2889 121.308 56.9111 119.463 56.9333V51.8333C120.641 51.7 121.685 51.0444 122.597 49.8667C123.508 48.6667 124.23 47.0333 124.763 44.9667C125.297 42.8778 125.585 40.4778 125.63 37.7667H120.13V33.1333H135.697V37.7667H130.463ZM163.626 41.0333V36.7H146.826V32.5333H168.493V41.0333H163.626ZM145.393 46.1333V42H170.026V46.1333H145.393ZM146.826 58.1333V47.6667H168.626V58.1333H146.826ZM163.826 51.6333H151.593V54.2H163.826V51.6333ZM201.248 46.8V58.1333H196.448V32.5333H201.248V41.9H204.115V46.8H201.248ZM193.415 33.1333V56.9333H179.215V33.1333H183.981V40.6667H188.648V33.1333H193.415ZM188.648 45.2667H183.981V52.3H188.648V45.2667ZM229.411 57.2333H204.778V52.6333H214.678V49.7333H206.144V39.3H223.311V37.5667H206.111V33.1333H228.078V43.5333H210.944V45.3H228.344V49.7333H219.544V52.6333H229.411V57.2333ZM263.499 41.3H260.633V46.6333H255.833V32.5333H260.633V36.4667H263.499V41.3ZM246.399 41.6C245.355 43.0444 244.088 44.2 242.599 45.0667C241.133 45.9333 239.522 46.4111 237.766 46.5V41.9667C239.033 41.8111 240.144 41.3222 241.099 40.5C242.077 39.6556 242.833 38.5556 243.366 37.2C243.922 35.8444 244.211 34.3222 244.233 32.6333L249.066 32.9333C249.066 34.6667 248.822 36.2778 248.333 37.7667L254.933 42.2L252.499 45.8333L246.399 41.6ZM249.899 47C253.233 47 255.888 47.4556 257.866 48.3667C259.866 49.2556 260.866 50.7 260.866 52.7C260.866 54.7 259.866 56.1556 257.866 57.0667C255.888 57.9778 253.233 58.4333 249.899 58.4333C246.566 58.4333 243.899 57.9778 241.899 57.0667C239.922 56.1556 238.933 54.7 238.933 52.7C238.933 50.7 239.922 49.2556 241.899 48.3667C243.899 47.4556 246.566 47 249.899 47ZM249.899 54.4C251.633 54.4 253.022 54.2667 254.066 54C255.133 53.7111 255.666 53.2778 255.666 52.7C255.666 52.1222 255.133 51.7 254.066 51.4333C253.022 51.1667 251.633 51.0333 249.899 51.0333C248.166 51.0333 246.766 51.1667 245.699 51.4333C244.633 51.7 244.099 52.1222 244.099 52.7C244.099 53.2778 244.633 53.7111 245.699 54C246.766 54.2667 248.166 54.4 249.899 54.4ZM287.029 41.7V46.4H282.229V32.5333H287.029V36.8H289.896V41.7H287.029ZM281.096 44.7C280.474 44.9889 279.629 45.2111 278.563 45.3667C277.518 45.5222 276.418 45.6 275.263 45.6H264.696V32.8333H279.696V37H269.529V41.4333H275.463C276.574 41.4333 277.629 41.3667 278.629 41.2333C279.629 41.0778 280.451 40.8667 281.096 40.6V44.7ZM287.029 47.3V58.1333H265.529V47.3H287.029ZM282.229 53.9667V51.4667H270.363V53.9667H282.229ZM292.059 43.4V32.5333H313.726V43.4H292.059ZM296.826 36.5V39.4H308.926V36.5H296.826ZM315.192 49.0667H305.292V52.5333H300.459V49.0667H290.559V44.9H315.192V49.0667ZM314.059 53.9333V58.1333H291.992V50.5667H296.892V53.9333H314.059ZM335.756 58.1333V32.5333H340.556V58.1333H335.756ZM325.422 32.7C326.911 32.7 328.244 33.0444 329.422 33.7333C330.6 34.4222 331.511 35.4 332.156 36.6667C332.822 37.9111 333.156 39.3556 333.156 41C333.156 42.6444 332.822 44.1 332.156 45.3667C331.511 46.6333 330.6 47.6111 329.422 48.3C328.244 48.9889 326.911 49.3333 325.422 49.3333C323.911 49.3333 322.567 48.9889 321.389 48.3C320.211 47.6111 319.289 46.6333 318.622 45.3667C317.956 44.1 317.622 42.6444 317.622 41C317.622 39.3556 317.956 37.9111 318.622 36.6667C319.289 35.4 320.211 34.4222 321.389 33.7333C322.567 33.0444 323.911 32.7 325.422 32.7ZM325.422 37.2333C324.467 37.2333 323.7 37.5889 323.122 38.3C322.567 39.0111 322.289 39.9111 322.289 41C322.289 42.1333 322.567 43.0556 323.122 43.7667C323.7 44.4556 324.467 44.8 325.422 44.8C326.356 44.8 327.111 44.4444 327.689 43.7333C328.267 43.0222 328.556 42.1111 328.556 41C328.556 39.9111 328.267 39.0111 327.689 38.3C327.111 37.5889 326.356 37.2333 325.422 37.2333ZM334.356 55.8667C333.622 56.2222 332.667 56.4889 331.489 56.6667C330.333 56.8444 329.122 56.9333 327.856 56.9333H316.956V52.2H328.056C329.256 52.2 330.422 52.1222 331.556 51.9667C332.689 51.7889 333.622 51.5333 334.356 51.2V55.8667ZM366.277 35.6V40.2333H350.477V35.6H355.91V32.4333H360.844V35.6H366.277ZM372.81 46.8V58.1333H368.01V32.5333H372.81V41.9H375.677V46.8H372.81ZM358.377 41.3C359.799 41.3 361.044 41.6444 362.11 42.3333C363.177 43.0222 363.999 43.9778 364.577 45.2C365.155 46.4 365.444 47.7556 365.444 49.2667C365.444 50.8 365.155 52.1667 364.577 53.3667C363.999 54.5667 363.177 55.5111 362.11 56.2C361.044 56.8889 359.799 57.2333 358.377 57.2333C356.933 57.2333 355.677 56.8889 354.61 56.2C353.544 55.5111 352.722 54.5667 352.144 53.3667C351.566 52.1667 351.277 50.8 351.277 49.2667C351.277 47.7556 351.566 46.4 352.144 45.2C352.722 43.9778 353.544 43.0222 354.61 42.3333C355.677 41.6444 356.933 41.3 358.377 41.3ZM358.377 52.9C359.155 52.9 359.755 52.5778 360.177 51.9333C360.622 51.2667 360.844 50.3778 360.844 49.2667C360.844 48.1556 360.622 47.2778 360.177 46.6333C359.755 45.9667 359.155 45.6333 358.377 45.6333C357.599 45.6333 356.988 45.9667 356.544 46.6333C356.099 47.2778 355.877 48.1556 355.877 49.2667C355.877 50.3778 356.099 51.2667 356.544 51.9333C356.988 52.5778 357.599 52.9 358.377 52.9ZM395.074 58.1333V32.5333H399.907V58.1333H395.074ZM391.34 40.0667C391.34 43.4889 390.763 46.4778 389.607 49.0333C388.451 51.5667 386.818 53.5222 384.707 54.9C382.596 56.2556 380.129 56.9333 377.307 56.9333V52.1333C380.218 52.1111 382.451 51.0333 384.007 48.9C385.585 46.7667 386.374 43.8222 386.374 40.0667V37.7333H377.307V33.1333H391.34V40.0667Z" fill="white"/>
</svg>
