<svg width="189" height="27" viewBox="0 0 189 27" fill="none" xmlns="http://www.w3.org/2000/svg">
<path d="M23.8497 26.1333H19.0497V14.9333H15.8164C15.6164 18.4 14.8609 20.9889 13.5497 22.7C12.2386 24.3889 10.5053 25.2333 8.34974 25.2333C5.99418 25.2333 4.13863 24.2222 2.78307 22.2C1.44974 20.1778 0.783073 17.1222 0.783073 13.0333C0.783073 8.94444 1.44974 5.88889 2.78307 3.86667C4.13863 1.84444 5.99418 0.833333 8.34974 0.833333C10.4164 0.833333 12.0942 1.61111 13.3831 3.16667C14.672 4.7 15.472 7.04444 15.7831 10.2H19.0497V0.533333H23.8497V26.1333ZM8.34974 20.6C10.1942 20.6 11.1164 18.0778 11.1164 13.0333C11.1164 7.98889 10.1942 5.46667 8.34974 5.46667C6.48307 5.46667 5.54974 7.98889 5.54974 13.0333C5.54974 18.0778 6.48307 20.6 8.34974 20.6ZM38.9129 9.9C35.4907 9.9 32.7907 9.51111 30.8129 8.73333C28.8351 7.93333 27.8462 6.68889 27.8462 5C27.8462 3.31111 28.8351 2.07778 30.8129 1.3C32.7907 0.499999 35.4907 0.0999987 38.9129 0.0999987C42.3351 0.0999987 45.024 0.499999 46.9796 1.3C48.9573 2.07778 49.9462 3.31111 49.9462 5C49.9462 6.68889 48.9573 7.93333 46.9796 8.73333C45.024 9.51111 42.3351 9.9 38.9129 9.9ZM38.9129 3.7C37.0907 3.7 35.6351 3.82222 34.5462 4.06667C33.4796 4.28889 32.9462 4.6 32.9462 5C32.9462 5.42222 33.4796 5.74444 34.5462 5.96667C35.6129 6.18889 37.0684 6.3 38.9129 6.3C40.7573 6.3 42.2018 6.18889 43.2462 5.96667C44.3129 5.74444 44.8462 5.42222 44.8462 5C44.8462 4.57778 44.3129 4.25555 43.2462 4.03333C42.1796 3.81111 40.7351 3.7 38.9129 3.7ZM41.3129 15.3H49.8129V22.0333H32.7796V22.9333H50.0462V26.1333H28.0462V19.3667H45.0796V18.4667H27.9796V15.3H36.5129V14.1667H26.5796V10.5H51.2129V14.1667H41.3129V15.3ZM71.7094 15.4667V0.533333H76.5427V15.4667H71.7094ZM58.576 9.7V11.1667H64.8427C65.9316 11.1667 66.976 11.0889 67.976 10.9333C68.976 10.7778 69.7983 10.5556 70.4427 10.2667V14.1C69.8205 14.3889 69.0094 14.6111 68.0094 14.7667C67.0094 14.9222 65.9316 15 64.776 15H53.776V6.13333H63.8094V4.66667H53.7427V0.833333H68.576V9.7H58.576ZM54.776 26.1333V16.3667H76.5427V26.1333H54.776ZM71.7427 20.3333H59.5427V22.2H71.7427V20.3333ZM108.831 14.8V26.1333H104.031V0.533333H108.831V9.9H111.698V14.8H108.831ZM100.998 1.13333V24.9333H86.7977V1.13333H91.5643V8.66667H96.231V1.13333H100.998ZM96.231 13.2667H91.5643V20.3H96.231V13.2667ZM136.994 25.2333H112.361V20.6333H122.261V17.7333H113.727V7.3H130.894V5.56667H113.694V1.13333H135.661V11.5333H118.527V13.3H135.927V17.7333H127.127V20.6333H136.994V25.2333ZM161.624 14.8V26.1333H156.824V0.533333H161.624V9.9H164.491V14.8H161.624ZM153.224 1.13333V8.06667C153.224 11.5111 152.657 14.5 151.524 17.0333C150.413 19.5667 148.824 21.5222 146.757 22.9C144.691 24.2556 142.257 24.9333 139.457 24.9333V20.1333C142.346 20.1111 144.546 19.0444 146.057 16.9333C147.568 14.8222 148.324 11.8667 148.324 8.06667V5.73333H139.457V1.13333H153.224ZM183.887 26.1333V0.533333H188.72V26.1333H183.887ZM180.154 8.06667C180.154 11.4889 179.576 14.4778 178.42 17.0333C177.265 19.5667 175.632 21.5222 173.52 22.9C171.409 24.2556 168.943 24.9333 166.12 24.9333V20.1333C169.032 20.1111 171.265 19.0333 172.82 16.9C174.398 14.7667 175.187 11.8222 175.187 8.06667V5.73333H166.12V1.13333H180.154V8.06667Z" fill="#01A69F"/>
</svg>
