<svg width="42" height="42" viewBox="0 0 42 42" fill="none" xmlns="http://www.w3.org/2000/svg">
<path d="M0 21C0 9.4028 9.22509 0 20.6031 0C31.9811 0 41.2062 9.4028 41.2062 21C41.2062 32.5972 31.9811 42 20.6031 42C9.22509 42 0 32.6095 0 21Z" fill="#00479D"/>
<path d="M5.62891 21.001C5.62891 12.5667 12.3402 5.73828 20.6152 5.73828C28.8901 5.73828 35.6014 12.5789 35.6014 21.001C35.6014 29.423 28.8901 36.2759 20.6152 36.2759C12.3402 36.2759 5.62891 29.4353 5.62891 21.001Z" fill="white"/>
<path d="M5.90548 28.4535L5.53263 27.6812L5.23194 27.8283L5.6048 28.6006L5.90548 28.4535ZM5.62885 28.9929L4.94328 27.5586L4.63057 27.718L5.31614 29.1523L5.62885 28.9929ZM4.96734 28.9684C4.96734 28.7968 4.94328 28.6374 4.87112 28.478C4.79895 28.3187 4.69071 28.1961 4.54638 28.098C4.41407 27.9999 4.26974 27.9877 4.13744 28.0612C4.00514 28.1225 3.93297 28.2451 3.92095 28.4167C3.90892 28.5884 3.93297 28.7477 4.01717 28.9071C4.08933 29.0665 4.19758 29.1891 4.34191 29.2871C4.47421 29.3852 4.61854 29.3975 4.75084 29.3239C4.88315 29.2626 4.95531 29.14 4.96734 28.9807V28.9684ZM6.41064 29.3117L6.24225 28.9561L3.56012 30.2924L3.72851 30.6479L6.41064 29.3117ZM4.43813 28.9316C4.43813 28.9316 4.34191 28.8335 4.31785 28.76C4.2938 28.6987 4.26974 28.6374 4.26974 28.5638C4.26974 28.4903 4.28177 28.4413 4.32988 28.4167C4.37799 28.3922 4.4261 28.4167 4.47421 28.4535C4.52232 28.5026 4.57043 28.5516 4.59449 28.6129C4.63057 28.6742 4.6426 28.7477 4.65462 28.809C4.65462 28.8826 4.6426 28.9194 4.59449 28.9439C4.54638 28.9684 4.49827 28.9439 4.45016 28.9071L4.43813 28.9316ZM4.39002 29.7775C4.34191 29.704 4.26974 29.6059 4.18555 29.471C4.10136 29.3362 4.02919 29.2136 3.96906 29.1155C3.88486 28.9561 3.78864 28.76 3.6804 28.5271C3.57215 28.2941 3.51201 28.1716 3.49999 28.147L3.13916 28.3309C3.13916 28.3309 3.18727 28.4413 3.28349 28.6251C3.36768 28.809 3.45188 28.9684 3.53607 29.1278C3.63229 29.2994 3.72851 29.4588 3.82473 29.6059C3.92095 29.753 4.00514 29.8756 4.0773 29.9491L4.41407 29.7775H4.39002Z" fill="white"/>
<path d="M5.28025 31.6525C5.37647 31.7015 5.47269 31.8118 5.58094 31.9589C5.68919 32.1061 5.74932 32.2286 5.76135 32.3512C5.78541 32.4616 5.76135 32.5474 5.68919 32.5842C5.62905 32.6209 5.55688 32.6209 5.44864 32.5719C5.35242 32.5229 5.24417 32.4248 5.14795 32.2777C5.0397 32.1306 4.99159 31.9957 4.96754 31.8854C4.95551 31.7751 4.96754 31.6892 5.0397 31.6525C5.09984 31.6034 5.18403 31.6157 5.28025 31.6647V31.6525ZM6.15826 32.4616C6.15826 32.2532 6.06204 32.008 5.8696 31.7383C5.67716 31.4686 5.48472 31.2969 5.29228 31.2234C5.09984 31.1498 4.93145 31.1744 4.7751 31.2724C4.63077 31.3828 4.5586 31.5299 4.57063 31.7505C4.57063 31.9589 4.67888 32.2041 4.85929 32.4738C5.05173 32.7435 5.24417 32.9152 5.43661 32.9887C5.62905 33.0623 5.79743 33.0378 5.94176 32.9397C6.08609 32.8293 6.15826 32.67 6.15826 32.4616ZM7.49331 32.1306L7.30087 31.8486L7.86616 31.4441L7.64967 31.1253L6.23042 32.1551L6.45895 32.4738L7.00018 32.0815L7.19262 32.3635L7.51736 32.1306H7.49331ZM7.28884 30.8801L6.51908 29.7891L5.35242 30.6349L6.12218 31.726L7.28884 30.8801ZM5.89365 30.7208L6.43489 30.3285L6.75963 30.7821L6.2184 31.1744L5.89365 30.7208Z" fill="white"/>
<path d="M8.90013 33.5166C8.80391 33.4675 8.69567 33.3817 8.56336 33.2469C8.43106 33.112 8.34687 33.0017 8.29876 32.9036C8.25065 32.8055 8.25065 32.732 8.29876 32.6952C8.33484 32.6584 8.40701 32.6584 8.51525 32.6952C8.6235 32.732 8.73175 32.8301 8.85202 32.9526C8.9723 33.0752 9.05649 33.1978 9.1046 33.2959C9.15271 33.394 9.15271 33.4675 9.1046 33.5166C9.06852 33.5533 8.99635 33.5533 8.90013 33.5043V33.5166ZM9.48948 33.3695C9.42934 33.1733 9.28501 32.9526 9.06852 32.7197C8.85202 32.4991 8.63553 32.3519 8.44309 32.2906C8.25065 32.2294 8.09429 32.2539 7.98604 32.3642C7.86577 32.4868 7.84171 32.6462 7.90185 32.8423C7.96199 33.0385 8.10632 33.2469 8.33484 33.4798C8.56336 33.7127 8.76783 33.8598 8.96027 33.9211C9.15271 33.9824 9.30907 33.9579 9.42934 33.8353C9.53759 33.725 9.56165 33.5656 9.50151 33.3695H9.48948ZM9.12866 34.4973L7.33656 32.6584L7.08398 32.9159L8.87608 34.7547L9.12866 34.4973ZM7.91388 35.3677L6.81938 34.2521L6.92763 34.1418L7.97402 35.2083L8.53931 34.6444L7.1802 33.2591L6.95168 33.4921L7.99807 34.5586L7.88982 34.6689L6.84343 33.6024L6.26611 34.1786L7.67333 35.6129L7.91388 35.3677Z" fill="white"/>
<path d="M11.0532 37.2918C10.8968 37.2305 10.7405 37.1447 10.5962 37.0589L10.103 36.7524L11.1855 34.9258L11.5102 35.1219L10.6322 36.6053L10.8126 36.7156C10.9209 36.7769 11.0652 36.8505 11.2216 36.924C11.3779 36.9976 11.5102 37.0589 11.6185 37.0957L11.4261 37.4267C11.3419 37.4021 11.2216 37.3531 11.0652 37.2918H11.0532ZM12.2319 37.157L11.4982 38.3951L11.1735 38.199L12.713 35.5878L13.0377 35.7839L12.4364 36.8014L12.737 36.9853L12.5206 37.3531L12.2199 37.1692L12.2319 37.157Z" fill="white"/>
<path d="M15.1067 38.0175L13.2905 37.2819L13.7115 36.2031L14.0723 36.3502L13.7957 37.0613L15.263 37.6497L15.1187 38.0175H15.1067ZM15.0706 38.8879L14.0483 38.4833L13.6874 39.4028L13.3146 39.2557L13.6754 38.3362L12.7012 37.9439L12.8455 37.5762L15.2149 38.5201L15.0706 38.8879Z" fill="white"/>
<path d="M17.8007 38.7893C17.6564 39.1693 17.5842 39.3654 17.5842 39.3654L17.2114 39.2796C17.2114 39.2796 17.2715 39.1203 17.3797 38.8383C17.476 38.5563 17.5601 38.3111 17.6083 38.0905L16.0687 37.7595L16.1529 37.3672L18.1014 37.784C18.0412 38.066 17.945 38.3847 17.8007 38.7647V38.7893ZM15.4193 39.6719L15.5034 39.2796L16.3213 39.4513L16.5258 38.4705L16.9107 38.5563L16.7062 39.5371L17.9811 39.819L17.8969 40.2113L15.4072 39.6719H15.4193Z" fill="white"/>
<path d="M21.1565 39.3502C20.928 39.7425 20.6754 40.0244 20.3747 40.2083L20.062 39.9509C20.3627 39.7793 20.6032 39.5463 20.7716 39.2398C20.94 38.9334 21.0242 38.6391 21.0122 38.3572L20.1703 38.394V38.0017L21.4572 37.9526C21.4813 38.5043 21.373 38.9701 21.1565 39.3624V39.3502ZM22.263 39.2153L22.3112 40.6374H21.9263L21.818 37.6094H22.2029L22.251 38.7985H22.6118L22.6239 39.2031H22.263V39.2153Z" fill="white"/>
<path d="M23.1891 37.9196L23.1169 37.5518L23.9468 37.3802L24.019 37.7479L23.1891 37.9196ZM25.1977 40.1507L24.5963 37.1595L24.9812 37.0859L25.5826 40.0772L25.1977 40.1507ZM24.5963 39.7462C24.5001 39.7094 24.3919 39.6358 24.2595 39.55C24.1272 39.4642 24.007 39.3539 23.8987 39.2068C23.8987 39.3539 23.8386 39.501 23.7424 39.6726C23.6461 39.832 23.562 39.9668 23.4537 40.0527L23.1049 39.8075C23.2733 39.6726 23.4056 39.5133 23.5018 39.3049C23.598 39.0964 23.6101 38.8635 23.562 38.5938V38.508L23.0207 38.6183L22.9365 38.226L24.3798 37.9196L24.464 38.3119L23.9468 38.4222V38.508C24.019 38.7654 24.1272 38.9493 24.2836 39.0842C24.452 39.219 24.6083 39.3171 24.7767 39.3784L24.5963 39.7584V39.7462Z" fill="white"/>
<path d="M27.8556 37.3059L26.0274 38.0292L25.7628 37.3427L27.158 36.791L27.1099 36.6562L25.7147 37.2078L25.6064 36.9259L27.3985 36.2148L27.6631 36.9014L26.268 37.453L26.3161 37.5879L27.7473 37.024L27.8556 37.3059ZM28.5051 38.9732L26.6528 39.6965L26.3882 39.0099L27.7834 38.4583L27.7353 38.3234L26.3401 38.8751L26.2319 38.5931L28.024 37.8821L28.2886 38.5686L26.8934 39.1203L26.9415 39.2551L28.3968 38.6789L28.5051 38.9609V38.9732ZM28.2645 37.6492L25.8951 38.5809L25.7748 38.2744L28.1442 37.3427L28.2645 37.6492Z" fill="white"/>
<path d="M31.6444 36.2401C31.6444 36.2401 31.5482 36.3259 31.3918 36.4853C31.2355 36.6446 31.0671 36.7795 30.8867 36.9143L30.5259 37.1718L29.3472 35.48L30.3454 34.7567L30.574 35.0754L29.8884 35.5658L30.6101 36.6078L30.8145 36.4607C30.9107 36.3872 31.031 36.2891 31.1753 36.142C31.3197 36.0071 31.4039 35.9336 31.4039 35.9213L31.6204 36.2401H31.6444ZM32.6066 36.473L32.2939 36.6937L31.3918 35.3942L30.8626 35.7742L30.6341 35.4432L31.1633 35.0632L30.5619 34.205L30.8747 33.9844L32.6066 36.473Z" fill="white"/>
<path d="M33.5929 35.0505L33.4486 34.9034L34.1943 34.1433L34.3386 34.2904L33.5929 35.0505ZM32.0895 32.7948L31.4761 33.42L31.7046 33.653L32.318 33.04L32.0895 32.8071V32.7948ZM32.6788 32.8561L31.5362 34.0085L31.7647 34.2537L32.9073 33.1013L32.6668 32.8561H32.6788ZM33.5207 32.4148L33.2802 32.6477L32.775 32.1328L32.4984 32.4148L33.6891 33.6407L33.9658 33.3587L33.5448 32.9297L33.7854 32.6967L33.5087 32.4148H33.5207ZM32.8833 33.4445C32.7269 33.4813 32.5826 33.5794 32.4142 33.7388C32.2579 33.8981 32.1616 34.0452 32.1256 34.2169C32.0895 34.3762 32.1135 34.5111 32.1977 34.5969C32.2819 34.695 32.4142 34.7195 32.5706 34.6827C32.739 34.6459 32.8953 34.5479 33.0396 34.4008C33.196 34.2414 33.3043 34.0698 33.3283 33.9227C33.3644 33.7633 33.3283 33.6407 33.2321 33.5426C33.1359 33.4445 33.0156 33.42 32.8713 33.4568L32.8833 33.4445ZM34.086 33.4691L33.8094 33.751L33.9537 33.8981L33.208 34.6582L33.0637 34.5111L32.7871 34.7808L33.5689 35.5776L34.8678 34.2659L34.086 33.4691ZM32.9675 33.9717C32.9675 33.9717 32.8953 34.0943 32.8232 34.1678C32.751 34.2414 32.6788 34.2904 32.6187 34.3149C32.5585 34.3395 32.5104 34.3395 32.4744 34.3027C32.4383 34.2659 32.4383 34.2169 32.4623 34.1556C32.4864 34.0943 32.5345 34.033 32.6067 33.9472C32.6788 33.8736 32.739 33.8246 32.7991 33.8001C32.8592 33.7755 32.9073 33.7755 32.9314 33.8123C32.9675 33.8491 32.9675 33.8981 32.9555 33.9594L32.9675 33.9717Z" fill="white"/>
<path d="M35.914 31.6766C35.8779 31.7624 35.8298 31.8727 35.7576 32.0321C35.6855 32.1914 35.5893 32.3386 35.493 32.4857L35.1202 33.0128L33.4243 31.7624L33.6528 31.4436L35.024 32.4612L35.1803 32.2405C35.2525 32.1302 35.3367 31.9953 35.4209 31.8359C35.5051 31.6766 35.5652 31.5417 35.6133 31.4436L35.926 31.6766H35.914ZM36.8762 31.6766L36.6477 31.9953L34.2302 30.2055L34.4587 29.8867L36.8762 31.6766Z" fill="white"/>
<path d="M37.4176 29.0793C37.4176 29.0793 37.3815 29.1896 37.3214 29.3858C37.2612 29.5819 37.177 29.7903 37.0688 30.011L36.8523 30.4646L35.0361 29.5451L35.5894 28.405L35.9382 28.5766L35.5533 29.3612L36.6719 29.9252L36.8042 29.6432C36.8523 29.5206 36.9124 29.3735 36.9846 29.1773C37.0447 28.9812 37.0808 28.8831 37.0808 28.8831L37.4296 29.0548L37.4176 29.0793ZM37.2251 27.9514L37.0688 28.2702L38.3317 28.9076L38.1633 29.2632L35.4812 27.9024L35.6495 27.5469L36.6959 28.074L36.8523 27.7553L37.2251 27.9392V27.9514Z" fill="white"/>
<path d="M41.146 18.168H39.6065C37.2612 18.168 35.8058 18.8422 34.0618 20.7301C31.8608 23.1084 30.1048 23.7827 27.6271 24.175C25.378 24.5305 23.5258 24.9841 22.5515 25.4009C22.1546 25.5725 21.9502 25.9771 22.0704 26.3571C22.1667 26.6758 22.4914 26.9701 22.9966 26.872H23.0687C24.1151 26.6391 25.2577 26.5042 26.4725 26.4797C26.4966 26.4797 27.8557 26.4184 29.5034 26.4307C39.2698 26.4552 41.8436 19.0874 41.8557 19.0139L42 18.168H41.1581H41.146Z" fill="white"/>
<path d="M39.6068 18.8906C37.4298 18.8906 36.1789 19.4913 34.5793 21.2321C32.3662 23.6227 30.502 24.4563 27.7356 24.8976C25.5105 25.2531 23.7425 25.6822 22.8284 26.0745C22.7202 26.1236 22.6961 26.2094 22.8525 26.1726C23.105 26.1236 24.4281 25.8171 26.4487 25.768C26.4487 25.768 27.8198 25.7067 29.4916 25.719C38.6205 25.7435 41.1583 18.8784 41.1463 18.9029H39.6068V18.8906Z" fill="url(#paint0_linear_366_6017)"/>
<path d="M27.7472 24.4317C24.0548 23.9904 21.8417 24.2723 21.8417 24.2723C18.7386 24.5052 16.2008 25.4615 13.4946 28.183H15.4912C17.7043 28.183 18.7627 27.901 20.0496 27.0552C21.4689 26.1235 23.4534 25.0814 27.0496 24.6278C28.3005 24.4685 27.9396 24.4562 27.7472 24.4317Z" fill="url(#paint1_linear_366_6017)"/>
<path d="M19.5087 16.9414L17.8369 17.1743L17.6925 17.9099H17.1633L16.9829 18.8416H17.5121L17.1032 20.9869C17.0671 21.1953 17.007 21.4896 17.007 21.698C17.007 22.3232 17.452 22.691 18.2097 22.691C18.6547 22.691 19.0516 22.5806 19.4245 22.4826L19.6169 21.4651C19.4606 21.5754 19.2922 21.6612 19.1238 21.6612C18.8712 21.6612 18.751 21.4896 18.751 21.2076C18.751 21.0237 18.763 20.9011 18.7991 20.754L19.1719 18.8416H19.9537L20.1341 17.9099H19.3523L19.5327 16.9414H19.5087Z" fill="#00479D"/>
<path d="M13.2181 17.9102L11.7628 20.8769L11.6305 17.9102H10.2714L8.82809 20.8769L8.71985 17.9102H7.28857L7.46899 22.5809H8.51538C8.91229 22.5564 9.10473 22.3848 9.27311 22.0538L10.3796 19.7613H10.3917L10.5119 22.5809H11.5583C11.9552 22.5564 12.1477 22.3848 12.3161 22.0538L14.3487 17.9102H13.2061H13.2181Z" fill="#00479D"/>
<path d="M13.9878 22.5809H15.0703C15.4792 22.5564 15.6596 22.348 15.7318 22.017L16.5376 17.9102H14.9019L13.9878 22.5809Z" fill="#00479D"/>
<path d="M15.0225 17.2855H16.0207C16.4778 17.2855 16.6943 17.0771 16.7664 16.7215L16.9228 15.9492H15.2871L15.0225 17.2977V17.2855Z" fill="#00479D"/>
<path d="M24.4639 17.8126C23.6581 17.8126 22.8041 18.7688 22.3591 19.5412L23.1048 15.9492H21.4811L20.1821 22.5937H21.2646C21.6735 22.5692 21.8539 22.3608 21.9261 22.0298L22.1065 21.1349C22.2629 20.8039 23.2612 19.296 23.5619 19.296C23.634 19.296 23.6581 19.3818 23.6581 19.4308C23.6581 19.5044 23.622 19.6025 23.622 19.6638L23.0567 22.5937H24.1392C24.5361 22.5692 24.7285 22.3608 24.8007 22.0298L25.3058 19.4676C25.3419 19.2469 25.4021 19.0263 25.4021 18.7934C25.4021 18.2539 25.0653 17.8249 24.488 17.8249L24.4639 17.8126Z" fill="#00479D"/>
<path d="M30.8504 18.5364L31.3556 15.9375H29.7318L29.2267 18.5364H26.7971L26.5205 19.9217H28.9501L28.4329 22.582H29.5154C29.9123 22.5575 30.1047 22.3491 30.1769 22.0181L30.5858 19.9217H33.0635L33.3401 18.5364H30.8504Z" fill="#00479D"/>
<path d="M2.68193 20.6549C2.48949 20.8511 2.48949 21.1575 2.68193 21.3537C2.87437 21.5498 3.17505 21.5498 3.36749 21.3537C3.55993 21.1575 3.55993 20.8511 3.36749 20.6549C3.17505 20.4588 2.87437 20.4588 2.68193 20.6549Z" fill="white"/>
<path d="M4.06097 12.2073L4.83073 12.5873L4.61424 13.0409L2.55754 12.0356L2.77403 11.582L3.5919 11.9866L3.78434 11.582L4.24139 11.8027L4.04895 12.2073H4.06097ZM4.24139 13.5558C4.15719 13.6416 4.02489 13.7274 3.85651 13.8132C3.68812 13.9113 3.51974 13.9603 3.37541 13.9603C3.47163 14.0706 3.54379 14.2423 3.5919 14.4507C3.64001 14.6713 3.66407 14.8552 3.66407 15.0146L3.1108 15.1004C3.14688 14.892 3.12283 14.6713 3.05066 14.4139C2.9785 14.1565 2.83417 13.9848 2.60565 13.8745L2.52145 13.8255L2.25685 14.3894L1.7998 14.1687L2.55754 12.5505L3.01458 12.7712L2.74998 13.3474L2.8462 13.3964C3.05066 13.4945 3.25513 13.5067 3.4596 13.3964C3.66407 13.2983 3.82042 13.188 3.96475 13.0777L4.25341 13.5312L4.24139 13.5558ZM5.98537 13.4332C6.02145 13.7029 5.96132 14.0216 5.7809 14.4016C5.60049 14.7694 5.39602 15.0269 5.1675 15.174C4.93898 15.3211 4.72249 15.3333 4.51802 15.2353C4.31355 15.1372 4.19328 14.9533 4.15719 14.6713C4.12111 14.4016 4.18125 14.0706 4.36166 13.7029C4.54207 13.3351 4.74654 13.0777 4.97506 12.9305C5.20358 12.7957 5.42008 12.7712 5.62455 12.8692C5.82901 12.9673 5.94929 13.1512 5.98537 13.4209V13.4332ZM5.09534 13.4699C4.97506 13.568 4.86682 13.7151 4.78262 13.9113C4.6864 14.1074 4.63829 14.2913 4.63829 14.4384C4.63829 14.5855 4.67438 14.6836 4.75857 14.7326C4.84276 14.7694 4.93898 14.7449 5.05926 14.6591C5.17953 14.561 5.28778 14.4139 5.384 14.2178C5.48022 14.0216 5.52833 13.8377 5.5163 13.6906C5.5163 13.5435 5.46819 13.4454 5.39602 13.4087C5.31183 13.3719 5.21561 13.3964 5.09534 13.4822V13.4699Z" fill="white"/>
<path d="M7.27233 9.53613C7.36855 9.70776 7.38058 9.81809 7.32044 9.87938C7.26031 9.94068 7.14003 9.94068 6.97164 9.84261C6.80326 9.75679 6.62285 9.62194 6.43041 9.42579C6.23797 9.22965 6.09364 9.05802 6.00945 8.89865C5.92525 8.73928 5.91323 8.61669 5.97336 8.55539C6.0335 8.4941 6.14175 8.50636 6.31013 8.59217C6.47852 8.67798 6.6469 8.81284 6.83934 9.00898C7.03178 9.19287 7.17611 9.37676 7.26031 9.53613H7.27233ZM6.26202 8.06502C5.97336 7.97921 5.75687 8.02825 5.58848 8.18762C5.43213 8.35925 5.39604 8.57991 5.48024 8.87413C5.56443 9.16835 5.78092 9.46257 6.09364 9.78131C6.41838 10.1001 6.7311 10.3085 7.01976 10.382C7.30842 10.4556 7.52491 10.4188 7.68127 10.2472C7.83762 10.0755 7.87371 9.85487 7.78951 9.5729C7.70532 9.29094 7.48883 8.98446 7.16409 8.66572C6.83934 8.34699 6.53866 8.15084 6.25 8.06502H6.26202ZM6.91151 6.32422L6.57474 6.67974L7.58505 7.67273L7.40463 7.86888L6.46649 6.93718L6.12972 7.2927L8.71563 9.84261L9.0524 9.48709L7.83762 8.29795L8.01804 8.1018L9.35309 9.41354L9.68986 9.05802L6.91151 6.32422Z" fill="white"/>
<path d="M11.2774 4.16479C11.3977 4.22609 11.4939 4.3119 11.554 4.44676C11.6262 4.58161 11.6382 4.7042 11.6262 4.83905C11.6021 4.9739 11.53 5.07197 11.4097 5.14553C11.2774 5.21909 11.1571 5.21908 11.0368 5.15779C10.9166 5.09649 10.8204 5.01068 10.7602 4.87583C10.6881 4.74098 10.664 4.60613 10.6881 4.48353C10.7121 4.34868 10.7843 4.25061 10.9166 4.17705C11.0489 4.1035 11.1692 4.1035 11.2894 4.16479H11.2774ZM10.207 4.32416C10.1348 4.59387 10.1709 4.85131 10.3032 5.10875C10.4355 5.3662 10.6279 5.53782 10.8805 5.6359C11.1331 5.73397 11.3856 5.70945 11.6262 5.58686C11.8667 5.45201 12.0231 5.25586 12.0953 4.98616C12.1554 4.71646 12.1313 4.45902 11.999 4.20157C11.8667 3.94413 11.6743 3.76024 11.4217 3.67443C11.1692 3.57635 10.9166 3.60087 10.676 3.72346C10.4355 3.85831 10.2791 4.05446 10.207 4.32416ZM12.3719 2.73047L11.9389 2.96339L13.2379 5.47653L13.6829 5.2436L12.3839 2.73047H12.3719ZM13.9595 5.6359L12.1795 6.59211L11.8186 5.89334L11.3736 6.12627L11.975 7.27863L14.2001 6.08949L13.9716 5.6359H13.9595Z" fill="white"/>
<path d="M17.4835 4.37352L17.3753 3.687L17.9406 3.58893L18.0488 4.27544L17.4835 4.37352ZM18.59 1.39453L16.0522 1.81134L16.1364 2.31397L18.6742 1.89716L18.59 1.39453ZM19.3718 4.05478L18.5419 4.18963L18.4337 3.50311L18.987 3.4173L18.9028 2.91467L18.3976 3.00049L18.3254 2.14234L17.8323 2.22816L17.9045 3.0863L17.1949 3.19663L17.0024 2.35075L16.5093 2.43656L16.7138 3.28245L16.2086 3.36826L16.2928 3.87089L16.8821 3.77281L16.9904 4.45933L16.1244 4.60644L16.2086 5.10907L19.444 4.56966L19.3598 4.06704L19.3718 4.05478Z" fill="white"/>
<path d="M24.6643 3.18413C24.4478 3.11057 24.2554 3.0125 24.075 2.88991C23.8945 2.75506 23.7502 2.59569 23.6179 2.38728C23.4976 2.52213 23.3172 2.63246 23.0767 2.70602C22.8361 2.77957 22.6076 2.81635 22.3911 2.81635L22.1866 2.33824C22.343 2.33824 22.5715 2.31372 22.8361 2.25243C23.1128 2.19113 23.2932 2.06854 23.4014 1.88465L22.4392 1.72528L22.5234 1.22266L25.0251 1.63947L24.9409 2.1421L23.9908 1.98273C24.0629 2.22791 24.2313 2.4118 24.4839 2.54665C24.7365 2.6815 24.9049 2.76732 25.0011 2.80409L24.6643 3.18413ZM23.7382 3.74805L23.6299 4.41005L23.1248 4.32423L23.233 3.66224L21.8018 3.42931L21.886 2.92668L25.1213 3.45383L25.0372 3.95646L23.7382 3.74805ZM21.9581 4.91267L22.1265 3.83387L22.6317 3.91968L22.5475 4.4836L24.6162 4.82686L24.532 5.32949L21.9581 4.90041V4.91267Z" fill="white"/>
<path d="M28.7051 6.3827C28.6209 6.23559 28.5488 6.05171 28.4886 5.81878C28.4285 5.58586 28.4044 5.36519 28.4165 5.13227C28.2481 5.29164 28.0556 5.41423 27.8271 5.50004C27.5986 5.58586 27.4062 5.64715 27.2498 5.65941L27.1055 5.14452C27.334 5.13227 27.5986 5.04645 27.8993 4.88708C28.2 4.73997 28.4646 4.44575 28.6811 4.01668L29.102 3.19531L29.5711 3.4405L29.1501 4.26186C28.9336 4.69093 28.8495 5.07097 28.9096 5.40197C28.9697 5.73297 29.0539 5.97815 29.1501 6.16204L28.6931 6.39496L28.7051 6.3827ZM30.1003 5.85556L29.2704 7.47377L28.8254 7.24085L30.6175 3.75924L31.0625 3.99216L30.3529 5.36519L30.7739 5.58586L30.5213 6.08848L30.1003 5.86782V5.85556Z" fill="white"/>
<path d="M33.9976 8.08674C33.8773 8.08674 33.7691 8.0377 33.6969 7.95188C33.6127 7.86607 33.5766 7.768 33.5766 7.63314C33.5766 7.51055 33.6247 7.40022 33.7089 7.31441C33.7931 7.22859 33.9014 7.19181 34.0216 7.19181C34.1419 7.19181 34.2381 7.24085 34.3223 7.32666C34.4065 7.41248 34.4426 7.51055 34.4426 7.63314C34.4426 7.75574 34.3945 7.86607 34.3103 7.95188C34.2141 8.0377 34.1179 8.08674 33.9976 8.08674ZM36.1024 8.38096L35.7536 8.01318L35.2244 8.52807L34.8154 8.08674C34.9117 7.90285 34.9477 7.7067 34.9237 7.49829C34.8996 7.28989 34.8154 7.11826 34.6711 6.97115C34.5027 6.78726 34.2862 6.70145 34.0337 6.67693C33.7811 6.66467 33.5526 6.75048 33.3481 6.94663C33.1436 7.14278 33.0474 7.3757 33.0594 7.63314C33.0594 7.89059 33.1557 8.11125 33.312 8.28288C33.4563 8.42999 33.6368 8.52807 33.8532 8.56484C34.0697 8.60162 34.2742 8.56484 34.4666 8.44225L34.8636 8.87132L34.3103 9.41073L34.6591 9.7785L36.0904 8.3687L36.1024 8.38096ZM34.5388 9.91336L34.19 9.54558L33.9254 9.80302L32.9392 8.76099L33.2038 8.50355L32.855 8.13577L31.6763 9.28814L33.3481 11.0657L34.5268 9.91336H34.5388ZM32.3739 9.32491L32.5904 9.11651L33.5766 10.1585L33.3601 10.3669L32.3739 9.32491Z" fill="white"/>
<path d="M38.1709 14.6575L37.4011 15.0375L37.1847 14.5839L39.2414 13.5787L39.4578 14.0322L38.64 14.4368L38.8324 14.8414L38.3754 15.062L38.1829 14.6575H38.1709ZM37.0283 13.9587C37.0283 13.8361 37.0283 13.689 37.0644 13.4928C37.1005 13.2967 37.1606 13.1373 37.2568 13.027C37.1125 13.027 36.9441 12.9902 36.7396 12.8921C36.5352 12.7941 36.3788 12.696 36.2585 12.5857L36.5352 12.083C36.6675 12.2424 36.8599 12.365 37.1005 12.4631C37.341 12.5611 37.5695 12.5611 37.7981 12.4508L37.8943 12.4018L37.6297 11.8379L38.0867 11.6172L38.8444 13.2354L38.3874 13.4561L38.1108 12.8799L38.0266 12.9289C37.8221 13.027 37.6898 13.1864 37.6417 13.407C37.5936 13.6277 37.5695 13.8238 37.5695 14.0077L37.0403 13.9587H37.0283ZM36.03 15.4175C35.8015 15.2827 35.597 15.0252 35.4166 14.6452C35.2362 14.2774 35.1761 13.9464 35.2121 13.6767C35.2482 13.407 35.3685 13.2231 35.573 13.1251C35.7774 13.027 35.9939 13.0515 36.2225 13.1864C36.451 13.3212 36.6554 13.5787 36.8359 13.9587C37.0163 14.3265 37.0764 14.6575 37.0403 14.9272C37.0042 15.1969 36.884 15.3808 36.6795 15.4788C36.475 15.5769 36.2585 15.5524 36.03 15.4175ZM36.5592 14.6942C36.5592 14.5471 36.5111 14.3632 36.4149 14.1671C36.3187 13.971 36.2104 13.8116 36.1022 13.7135C35.9819 13.6154 35.8857 13.5909 35.8015 13.6277C35.7173 13.6645 35.6812 13.7625 35.6692 13.9219C35.6692 14.0813 35.7053 14.2529 35.8015 14.4613C35.8977 14.6575 36.006 14.8046 36.1262 14.9027C36.2465 15.0007 36.3427 15.0252 36.4269 14.9885C36.5111 14.9517 36.5592 14.8536 36.5592 14.6942Z" fill="white"/>
<defs>
<linearGradient id="paint0_linear_366_6017" x1="31.2409" y1="20.2114" x2="48.8146" y2="13.9427" gradientUnits="userSpaceOnUse">
<stop stop-color="#00479D"/>
<stop offset="0.5" stop-color="#0075C2"/>
<stop offset="1" stop-color="#0097E0"/>
</linearGradient>
<linearGradient id="paint1_linear_366_6017" x1="25.7461" y1="21.6908" x2="32.0251" y2="17.7203" gradientUnits="userSpaceOnUse">
<stop stop-color="#FABE00"/>
<stop offset="1" stop-color="#F39800"/>
</linearGradient>
</defs>
</svg>
