<svg width="469" height="62" viewBox="0 0 469 62" fill="none" xmlns="http://www.w3.org/2000/svg">
<rect width="6" height="62" fill="#01A69F"/>
<path d="M37.1767 18.7556C35.9619 18.7556 34.9693 18.3852 34.199 17.6444C33.4286 16.9037 33.0434 15.9852 33.0434 14.8889C33.0434 13.7926 33.4286 12.8741 34.199 12.1333C34.9693 11.3926 35.9619 11.0222 37.1767 11.0222C38.3916 11.0222 39.3693 11.3778 40.1101 12.0889C40.8804 12.8 41.2656 13.6889 41.2656 14.7556C41.2656 15.9111 40.8804 16.8741 40.1101 17.6444C39.3693 18.3852 38.3916 18.7556 37.1767 18.7556ZM40.4656 22.0889V46H33.8434V22.0889H40.4656ZM58.746 14.8889C61.3534 14.8889 63.6201 15.3481 65.546 16.2667C67.4719 17.1852 68.9534 18.4889 69.9905 20.1778C71.0571 21.8667 71.5905 23.8667 71.5905 26.1778C71.5905 28.4593 71.0571 30.4593 69.9905 32.1778C68.9534 33.8667 67.4719 35.1704 65.546 36.0889C63.6201 36.9778 61.3534 37.4222 58.746 37.4222H52.7905V46H45.946V14.8889H58.746ZM58.346 31.5556C60.4201 31.5556 61.9905 31.0963 63.0571 30.1778C64.1238 29.2296 64.6571 27.8963 64.6571 26.1778C64.6571 24.4593 64.1238 23.1259 63.0571 22.1778C61.9905 21.2296 60.4201 20.7556 58.346 20.7556H52.7905V31.5556H58.346ZM89.0719 21.7333C91.9163 21.7333 94.1978 22.6222 95.9163 24.4C97.6348 26.1778 98.4941 28.8148 98.4941 32.3111V46H91.9163V33.3778C91.9163 31.4815 91.5163 30.0741 90.7163 29.1556C89.9163 28.2074 88.7756 27.7333 87.2941 27.7333C85.6348 27.7333 84.3163 28.2815 83.3385 29.3778C82.3608 30.4444 81.8719 32.0444 81.8719 34.1778V46H75.2497V13.0222H81.8719V24.5778C82.7608 23.6593 83.8126 22.963 85.0274 22.4889C86.2719 21.9852 87.62 21.7333 89.0719 21.7333ZM114.375 46.3556C111.975 46.3556 109.827 45.837 107.931 44.8C106.035 43.7333 104.538 42.2667 103.442 40.4C102.375 38.5333 101.842 36.4148 101.842 34.0444C101.842 31.6741 102.375 29.5556 103.442 27.6889C104.538 25.8222 106.035 24.3704 107.931 23.3333C109.827 22.2667 111.975 21.7333 114.375 21.7333C116.746 21.7333 118.879 22.2667 120.775 23.3333C122.672 24.3704 124.153 25.8222 125.22 27.6889C126.286 29.5556 126.82 31.6741 126.82 34.0444C126.82 36.4148 126.286 38.5333 125.22 40.4C124.153 42.2667 122.672 43.7333 120.775 44.8C118.879 45.837 116.746 46.3556 114.375 46.3556ZM114.375 40.6667C116.064 40.6667 117.442 40.0741 118.509 38.8889C119.605 37.6741 120.153 36.0593 120.153 34.0444C120.153 32.0296 119.605 30.4296 118.509 29.2444C117.442 28.0296 116.064 27.4222 114.375 27.4222C112.686 27.4222 111.294 28.0296 110.198 29.2444C109.101 30.4296 108.553 32.0296 108.553 34.0444C108.553 36.0593 109.101 37.6741 110.198 38.8889C111.294 40.0741 112.686 40.6667 114.375 40.6667ZM144.111 21.7333C146.955 21.7333 149.237 22.6222 150.955 24.4C152.674 26.1778 153.533 28.8148 153.533 32.3111V46H146.955V33.3778C146.955 31.4815 146.555 30.0741 145.755 29.1556C144.955 28.2074 143.815 27.7333 142.333 27.7333C140.674 27.7333 139.355 28.2815 138.378 29.3778C137.4 30.4444 136.911 32.0444 136.911 34.1778V46H130.289V22.0889H136.6V24.8889C137.489 23.8815 138.57 23.1111 139.844 22.5778C141.148 22.0148 142.57 21.7333 144.111 21.7333ZM180.837 34.1333C180.837 34.2222 180.792 34.8444 180.703 36H163.548C163.874 37.4815 164.6 38.6519 165.726 39.5111C166.881 40.3704 168.318 40.8 170.037 40.8C171.222 40.8 172.259 40.6222 173.148 40.2667C174.066 39.8815 174.926 39.2889 175.726 38.4889L179.237 42.4889C177.074 45.0667 173.948 46.3556 169.859 46.3556C167.281 46.3556 165 45.837 163.014 44.8C161.059 43.7333 159.548 42.2667 158.481 40.4C157.414 38.5333 156.881 36.4148 156.881 34.0444C156.881 31.7037 157.4 29.6 158.437 27.7333C159.503 25.837 160.955 24.3704 162.792 23.3333C164.659 22.2667 166.733 21.7333 169.014 21.7333C171.237 21.7333 173.237 22.237 175.014 23.2444C176.822 24.2519 178.244 25.7037 179.281 27.6C180.318 29.4667 180.837 31.6444 180.837 34.1333ZM169.059 26.9778C167.577 26.9778 166.318 27.4222 165.281 28.3111C164.274 29.2 163.666 30.4148 163.459 31.9556H174.614C174.377 30.4444 173.755 29.2444 172.748 28.3556C171.77 27.437 170.54 26.9778 169.059 26.9778Z" fill="black"/>
<path d="M192.364 32.3111V30.7556H195.32V24.0444H192.52V22.4889H206.631V24.0444H203.853V30.7556H206.809V32.3111H192.364ZM202.231 30.7556V24.0444H196.942V30.7556H202.231ZM207.676 37.8889H191.498V36.2889H207.676V37.8889ZM222.54 38.7556V21.6889H224.162V38.7556H222.54ZM211.673 30.6444V36.1556H216.718C217.488 36.1556 218.258 36.0815 219.029 35.9333C219.799 35.7852 220.429 35.5852 220.918 35.3333V36.8667C220.429 37.1333 219.799 37.3407 219.029 37.4889C218.258 37.6222 217.473 37.6889 216.673 37.6889H210.073V29.1333H217.584V23.8889H210.051V22.3556H219.162V30.6444H211.673ZM240.137 38.7556V21.6889H241.76V38.7556H240.137ZM227.671 37.6889V22.3556H236.804V37.6889H227.671ZM235.182 23.9333H229.271V36.1111H235.182V23.9333ZM259.468 30.9778H257.868V26.9111H254.357C254.18 27.9778 253.661 28.8444 252.802 29.5111C251.943 30.163 250.839 30.4889 249.491 30.4889C248.483 30.4889 247.602 30.3111 246.846 29.9556C246.091 29.5852 245.506 29.0741 245.091 28.4222C244.691 27.7704 244.491 27.0296 244.491 26.2C244.491 25.3704 244.691 24.637 245.091 24C245.506 23.3481 246.091 22.837 246.846 22.4667C247.602 22.0963 248.483 21.9111 249.491 21.9111C250.809 21.9111 251.898 22.2296 252.757 22.8667C253.631 23.4889 254.15 24.3111 254.313 25.3333H257.868V21.6889H259.468V30.9778ZM249.491 29.0444C250.498 29.0444 251.306 28.7926 251.913 28.2889C252.535 27.7704 252.846 27.0741 252.846 26.2C252.846 25.3259 252.535 24.637 251.913 24.1333C251.306 23.6148 250.498 23.3556 249.491 23.3556C248.468 23.3556 247.646 23.6148 247.024 24.1333C246.417 24.637 246.113 25.3259 246.113 26.2C246.113 27.0741 246.417 27.7704 247.024 28.2889C247.646 28.7926 248.468 29.0444 249.491 29.0444ZM259.468 31.9778V38.4889H246.002V31.9778H259.468ZM257.868 37.0444V33.4222H247.602V37.0444H257.868ZM280.883 30.3556V38.7556H279.283V21.6889H280.883V28.7556H283.238V30.3556H280.883ZM271.661 22.1333C273.113 22.1333 274.268 22.8 275.127 24.1333C276.001 25.4667 276.438 27.4296 276.438 30.0222C276.438 32.6148 276.001 34.5778 275.127 35.9111C274.268 37.2444 273.113 37.9111 271.661 37.9111C270.194 37.9111 269.024 37.2444 268.15 35.9111C267.29 34.5778 266.861 32.6148 266.861 30.0222C266.861 27.4296 267.29 25.4667 268.15 24.1333C269.024 22.8 270.194 22.1333 271.661 22.1333ZM271.661 36.3778C272.609 36.3778 273.372 35.8519 273.95 34.8C274.542 33.7333 274.838 32.1407 274.838 30.0222C274.838 27.9037 274.542 26.3185 273.95 25.2667C273.372 24.2 272.609 23.6667 271.661 23.6667C270.683 23.6667 269.905 24.2 269.327 25.2667C268.75 26.3185 268.461 27.9037 268.461 30.0222C268.461 32.1556 268.75 33.7481 269.327 34.8C269.905 35.8519 270.683 36.3778 271.661 36.3778ZM297.325 38.7556V21.6889H298.947V38.7556H297.325ZM289.503 22.1333C290.984 22.1333 292.162 22.8 293.036 24.1333C293.925 25.4667 294.369 27.4296 294.369 30.0222C294.369 32.6148 293.925 34.5778 293.036 35.9111C292.162 37.2444 290.984 37.9111 289.503 37.9111C288.021 37.9111 286.836 37.2444 285.947 35.9111C285.073 34.5778 284.636 32.6148 284.636 30.0222C284.636 27.4296 285.073 25.4667 285.947 24.1333C286.836 22.8 288.021 22.1333 289.503 22.1333ZM289.503 23.6667C288.51 23.6667 287.718 24.2 287.125 25.2667C286.532 26.3185 286.236 27.9037 286.236 30.0222C286.236 32.1556 286.532 33.7481 287.125 34.8C287.718 35.8519 288.51 36.3778 289.503 36.3778C290.466 36.3778 291.251 35.8519 291.858 34.8C292.466 33.7333 292.769 32.1407 292.769 30.0222C292.769 27.9185 292.466 26.3333 291.858 25.2667C291.251 24.2 290.466 23.6667 289.503 23.6667ZM317.656 32.6222H301.478V31.2H308.767V29.0444H302.434V27.6444H305.389V23.3333H302.612V21.9333H316.523V23.3333H313.723V27.6444H316.678V29.0444H310.367V31.2H317.656V32.6222ZM312.123 27.6444V23.3333H307.012V27.6444H312.123ZM316.789 37.0667V38.5111H302.656V33.9778H304.278V37.0667H316.789ZM338.537 38.7556H336.915V21.6889H338.537V38.7556ZM330.27 23.9111C330.256 25.9556 330.085 27.8444 329.759 29.5778L335.159 36.5333L333.893 37.5333L329.248 31.4444C328.715 33.2815 327.989 34.7407 327.07 35.8222C326.152 36.8889 325.085 37.5111 323.87 37.6889V36.0222C324.848 35.8148 325.693 35.1704 326.404 34.0889C327.115 32.9926 327.663 31.5704 328.048 29.8222C328.433 28.0593 328.641 26.0889 328.67 23.9111H324.226V22.3556H334.581V23.9111H330.27ZM354.401 27.6667V23.3778H342.201V21.9333H356.024V27.6667H354.401ZM341.068 30.2V28.7778H357.246V30.2H341.068ZM342.246 38.5111V32.1111H356.068V38.5111H342.246ZM354.49 33.5111H343.846V37.1111H354.49V33.5111ZM373.266 30.3556V38.7556H371.666V21.6889H373.266V28.7556H375.621V30.3556H373.266ZM368.421 22.2222V37.6889H359.488V22.2222H361.088V28.2889H366.843V22.2222H368.421ZM366.843 29.8222H361.088V36.1333H366.843V29.8222ZM392.441 37.8889H376.263V36.3556H383.508V32.8444H377.419V26.8444H389.752V23.8667H377.397V22.3556H391.352V28.3111H378.997V31.3333H391.597V32.8444H385.108V36.3556H392.441V37.8889ZM399.367 23.7111V22.1333H413.233V29.8444H411.567V23.7111H399.367ZM407.056 33V39.1556H405.433V33H398.256V31.3778H414.433V33H407.056ZM431.364 38.7556H429.831V30.2889H426.898V38.4667H425.387V21.7778H426.898V28.6889H429.831V21.6889H431.364V38.7556ZM423.275 22.3556V37.6889H416.409V22.3556H423.275ZM421.742 36.1556V23.8889H417.92V36.1556H421.742ZM444.362 24.4667V26H433.829V24.4667H438.273V21.6444H439.895V24.4667H444.362ZM448.051 30.3556V38.7556H446.451V21.6889H448.051V28.7556H450.406V30.3556H448.051ZM439.095 27.5111C439.94 27.5111 440.703 27.7259 441.384 28.1556C442.066 28.5852 442.599 29.1926 442.984 29.9778C443.369 30.763 443.562 31.6667 443.562 32.6889C443.562 33.7111 443.369 34.6222 442.984 35.4222C442.599 36.2074 442.066 36.8148 441.384 37.2444C440.703 37.6741 439.94 37.8889 439.095 37.8889C438.236 37.8889 437.466 37.6741 436.784 37.2444C436.103 36.8148 435.569 36.2074 435.184 35.4222C434.799 34.6222 434.606 33.7111 434.606 32.6889C434.606 31.6667 434.799 30.763 435.184 29.9778C435.569 29.1926 436.103 28.5852 436.784 28.1556C437.466 27.7259 438.236 27.5111 439.095 27.5111ZM439.095 36.4C439.629 36.4 440.11 36.2519 440.54 35.9556C440.984 35.6444 441.332 35.2074 441.584 34.6444C441.851 34.0815 441.984 33.4296 441.984 32.6889C441.984 31.9481 441.851 31.2963 441.584 30.7333C441.332 30.1704 440.984 29.7407 440.54 29.4444C440.11 29.1333 439.629 28.9778 439.095 28.9778C438.547 28.9778 438.051 29.1333 437.606 29.4444C437.177 29.7407 436.829 30.1704 436.562 30.7333C436.31 31.2963 436.184 31.9481 436.184 32.6889C436.184 33.4296 436.31 34.0815 436.562 34.6444C436.829 35.2074 437.177 35.6444 437.606 35.9556C438.051 36.2519 438.547 36.4 439.095 36.4ZM464.493 38.7556V21.6889H466.115V38.7556H464.493ZM460.782 26.3556C460.782 28.6222 460.419 30.6074 459.693 32.3111C458.967 34 457.93 35.3111 456.582 36.2444C455.249 37.1778 453.671 37.6444 451.849 37.6444V36.0444C453.345 36.0444 454.641 35.6519 455.737 34.8667C456.834 34.0815 457.671 32.9704 458.249 31.5333C458.841 30.0815 459.137 28.3778 459.137 26.4222V23.8889H451.849V22.3556H460.782V26.3556Z" fill="black"/>
</svg>
