<svg width="178" height="18" viewBox="0 0 178 18" fill="none" xmlns="http://www.w3.org/2000/svg">
<path d="M1.20334 5.46667V4.17778H13.4033V2.2H1.20334V0.866667H15.0033V7.17778H13.4033V5.46667H1.20334ZM16.2033 9.26667H0.0255643V7.95556H16.2033V9.26667ZM15.3367 16.3111V17.5111H1.20334V13.6222H13.47V12.0667H1.1589V10.8667H15.0478V14.7111H2.7589V16.3111H15.3367ZM31.0677 11.3778V0.688889H32.6899V11.3778H31.0677ZM20.0232 6.51111V9.22222H24.3121C25.4825 9.22222 26.5417 9.14815 27.4899 9C28.438 8.85185 29.1714 8.65185 29.6899 8.4V9.77778C29.1862 10.0296 28.4529 10.2296 27.4899 10.3778C26.5417 10.5111 25.4529 10.5778 24.2232 10.5778H18.4232V5.2H26.3566V2.53333H18.3788V1.15555H27.9566V6.51111H20.0232ZM31.0677 17.5556V13.8222H18.9788V12.3778H32.6899V17.5556H31.0677ZM46.132 3.46667V5H35.5987V3.46667H40.0431V0.644444H41.6653V3.46667H46.132ZM49.8209 9.35556V17.7556H48.2209V0.688889H49.8209V7.75556H52.1764V9.35556H49.8209ZM40.8653 6.51111C41.7098 6.51111 42.4727 6.72593 43.1542 7.15556C43.8357 7.58519 44.369 8.19259 44.7542 8.97778C45.1394 9.76296 45.332 10.6667 45.332 11.6889C45.332 12.7111 45.1394 13.6222 44.7542 14.4222C44.369 15.2074 43.8357 15.8148 43.1542 16.2444C42.4727 16.6741 41.7098 16.8889 40.8653 16.8889C40.0061 16.8889 39.2357 16.6741 38.5542 16.2444C37.8727 15.8148 37.3394 15.2074 36.9542 14.4222C36.569 13.6222 36.3764 12.7111 36.3764 11.6889C36.3764 10.6667 36.569 9.76296 36.9542 8.97778C37.3394 8.19259 37.8727 7.58519 38.5542 7.15556C39.2357 6.72593 40.0061 6.51111 40.8653 6.51111ZM40.8653 15.4C41.3987 15.4 41.8801 15.2519 42.3098 14.9556C42.7542 14.6444 43.1024 14.2074 43.3542 13.6444C43.6209 13.0815 43.7542 12.4296 43.7542 11.6889C43.7542 10.9481 43.6209 10.2963 43.3542 9.73333C43.1024 9.17037 42.7542 8.74074 42.3098 8.44444C41.8801 8.13333 41.3987 7.97778 40.8653 7.97778C40.3172 7.97778 39.8209 8.13333 39.3764 8.44444C38.9468 8.74074 38.5987 9.17037 38.332 9.73333C38.0801 10.2963 37.9542 10.9481 37.9542 11.6889C37.9542 12.4296 38.0801 13.0815 38.332 13.6444C38.5987 14.2074 38.9468 14.6444 39.3764 14.9556C39.8209 15.2519 40.3172 15.4 40.8653 15.4ZM67.9963 17.7556H66.4185V12.8667H63.4852L63.5963 11.2889H66.4185V6.68889H63.5963L63.4852 5.08889H66.4185V0.688889H67.9963V17.7556ZM58.263 1.13333C59.7148 1.13333 60.863 1.8 61.7074 3.13333C62.5667 4.45185 62.9963 6.41481 62.9963 9.02222C62.9963 11.6296 62.5667 13.6 61.7074 14.9333C60.863 16.2519 59.7148 16.9111 58.263 16.9111C56.7963 16.9111 55.6333 16.2519 54.7741 14.9333C53.9148 13.6 53.4852 11.6296 53.4852 9.02222C53.4852 6.41481 53.9148 4.45185 54.7741 3.13333C55.6333 1.8 56.7963 1.13333 58.263 1.13333ZM58.263 15.3778C59.2111 15.3778 59.9667 14.8519 60.5296 13.8C61.1074 12.7481 61.3963 11.1556 61.3963 9.02222C61.3963 6.9037 61.1074 5.31852 60.5296 4.26667C59.9667 3.2 59.2111 2.66667 58.263 2.66667C57.3 2.66667 56.5296 3.2 55.9519 4.26667C55.3741 5.31852 55.0852 6.9037 55.0852 9.02222C55.0852 11.1556 55.3667 12.7481 55.9296 13.8C56.5074 14.8519 57.2852 15.3778 58.263 15.3778ZM91.7663 5.66667H89.4107V10.1333H87.8107V0.688889H89.4107V4.08889H91.7663V5.66667ZM80.2774 5.88889C79.6996 6.94074 78.9515 7.8 78.0329 8.46667C77.1144 9.11852 76.0626 9.54074 74.8774 9.73333V8.2C75.9144 7.99259 76.8107 7.54074 77.5663 6.84444C78.3218 6.14815 78.8996 5.28148 79.2996 4.24444C79.6996 3.20741 79.8996 2.08148 79.8996 0.866667L81.5218 0.955555C81.5218 2.24444 81.3218 3.43704 80.9218 4.53333L86.0774 8.08889L85.2552 9.33333L80.2774 5.88889ZM82.7885 10.7556C84.8478 10.7556 86.507 11.0444 87.7663 11.6222C89.0255 12.1852 89.6552 13.0593 89.6552 14.2444C89.6552 15.4296 89.0255 16.3037 87.7663 16.8667C86.507 17.4296 84.8478 17.7111 82.7885 17.7111C80.7292 17.7111 79.07 17.4296 77.8107 16.8667C76.5515 16.3037 75.9218 15.4296 75.9218 14.2444C75.9218 13.0593 76.5515 12.1852 77.8107 11.6222C79.07 11.0444 80.7292 10.7556 82.7885 10.7556ZM82.7885 16.3111C84.3144 16.3111 85.5589 16.1333 86.5218 15.7778C87.4848 15.4222 87.9663 14.9111 87.9663 14.2444C87.9663 13.563 87.4848 13.0444 86.5218 12.6889C85.5589 12.3333 84.3144 12.1556 82.7885 12.1556C81.2626 12.1556 80.0181 12.3333 79.0552 12.6889C78.0922 13.0444 77.6107 13.563 77.6107 14.2444C77.6107 14.9111 78.0922 15.4222 79.0552 15.7778C80.0181 16.1333 81.2626 16.3111 82.7885 16.3111ZM107.008 5.93333V9.97778H105.408V0.688889H107.008V4.31111H109.364V5.93333H107.008ZM104.119 8.28889C103.601 8.54074 102.86 8.73333 101.897 8.86667C100.934 9 99.8454 9.06667 98.6306 9.06667H93.0306V1.15555H102.919V2.6H94.6306V7.62222H98.7195C99.9047 7.62222 100.964 7.55556 101.897 7.42222C102.845 7.28889 103.586 7.0963 104.119 6.84444V8.28889ZM107.008 10.9778V17.4889H93.5639V10.9778H107.008ZM105.408 16.0444V12.4222H95.1862V16.0444H105.408ZM123.45 13.3778V0.688889H125.073V13.3778H123.45ZM115.673 6.57778C115.065 7.7037 114.302 8.63704 113.384 9.37778C112.465 10.1037 111.428 10.5556 110.273 10.7333V9.15556C111.31 8.94815 112.213 8.44444 112.984 7.64444C113.769 6.84444 114.369 5.85185 114.784 4.66667C115.199 3.48148 115.406 2.21481 115.406 0.866667L117.006 0.955555C117.006 2.48148 116.776 3.88148 116.317 5.15556L121.628 9.33333L120.65 10.5778L115.673 6.57778ZM125.539 17.4889H111.45V12.1778H113.073V15.9556H125.539V17.4889ZM133.093 6.88889C132.559 7.85185 131.848 8.64444 130.959 9.26667C130.07 9.88889 129.063 10.2741 127.937 10.4222V8.95556C129.211 8.71852 130.248 8.14074 131.048 7.22222C131.863 6.28889 132.352 5.14074 132.515 3.77778H128.115V2.35555H132.559V0.377777H134.181V2.35555H138.537V3.77778H134.159C134.085 4.51852 133.959 5.11852 133.781 5.57778L138.804 9.02222L138.026 10.2889L133.093 6.88889ZM141.181 0.688889H142.781V10.8667H141.181V6.51111H137.893V5.02222H141.181V0.688889ZM136.004 11.4667C138.107 11.4667 139.796 11.7185 141.07 12.2222C142.344 12.7111 142.981 13.5037 142.981 14.6C142.981 15.6815 142.344 16.4741 141.07 16.9778C139.811 17.4667 138.122 17.7111 136.004 17.7111C133.9 17.7111 132.211 17.4667 130.937 16.9778C129.678 16.4741 129.048 15.6815 129.048 14.6C129.048 13.5037 129.678 12.7111 130.937 12.2222C132.211 11.7185 133.9 11.4667 136.004 11.4667ZM136.004 16.3556C137.589 16.3556 138.863 16.2148 139.826 15.9333C140.804 15.637 141.293 15.1926 141.293 14.6C141.293 13.9926 140.804 13.5481 139.826 13.2667C138.863 12.9852 137.589 12.8444 136.004 12.8444C134.433 12.8444 133.159 12.9926 132.181 13.2889C131.219 13.5704 130.737 14.0074 130.737 14.6C130.737 15.1926 131.226 15.637 132.204 15.9333C133.181 16.2148 134.448 16.3556 136.004 16.3556ZM156.112 3.46667V5H145.579V3.46667H150.024V0.644444H151.646V3.46667H156.112ZM159.801 9.35556V17.7556H158.201V0.688889H159.801V7.75556H162.157V9.35556H159.801ZM150.846 6.51111C151.69 6.51111 152.453 6.72593 153.135 7.15556C153.816 7.58519 154.349 8.19259 154.735 8.97778C155.12 9.76296 155.312 10.6667 155.312 11.6889C155.312 12.7111 155.12 13.6222 154.735 14.4222C154.349 15.2074 153.816 15.8148 153.135 16.2444C152.453 16.6741 151.69 16.8889 150.846 16.8889C149.987 16.8889 149.216 16.6741 148.535 16.2444C147.853 15.8148 147.32 15.2074 146.935 14.4222C146.549 13.6222 146.357 12.7111 146.357 11.6889C146.357 10.6667 146.549 9.76296 146.935 8.97778C147.32 8.19259 147.853 7.58519 148.535 7.15556C149.216 6.72593 149.987 6.51111 150.846 6.51111ZM150.846 15.4C151.379 15.4 151.861 15.2519 152.29 14.9556C152.735 14.6444 153.083 14.2074 153.335 13.6444C153.601 13.0815 153.735 12.4296 153.735 11.6889C153.735 10.9481 153.601 10.2963 153.335 9.73333C153.083 9.17037 152.735 8.74074 152.29 8.44444C151.861 8.13333 151.379 7.97778 150.846 7.97778C150.298 7.97778 149.801 8.13333 149.357 8.44444C148.927 8.74074 148.579 9.17037 148.312 9.73333C148.061 10.2963 147.935 10.9481 147.935 11.6889C147.935 12.4296 148.061 13.0815 148.312 13.6444C148.579 14.2074 148.927 14.6444 149.357 14.9556C149.801 15.2519 150.298 15.4 150.846 15.4ZM176.243 17.7556V0.688889H177.866V17.7556H176.243ZM172.532 5.35556C172.532 7.62222 172.169 9.60741 171.443 11.3111C170.718 13 169.68 14.3111 168.332 15.2444C166.999 16.1778 165.421 16.6444 163.599 16.6444V15.0444C165.095 15.0444 166.392 14.6519 167.488 13.8667C168.584 13.0815 169.421 11.9704 169.999 10.5333C170.592 9.08148 170.888 7.37778 170.888 5.42222V2.88889H163.599V1.35555H172.532V5.35556Z" fill="black"/>
</svg>
