<svg width="169" height="41" viewBox="0 0 169 41" fill="none" xmlns="http://www.w3.org/2000/svg">
<path d="M14.6008 26.2227L19.2777 20.5744H13.8044C11.7743 20.5744 9.79111 21.026 8.34665 22.2735L7.93283 22.771V4.41016H2.3658C1.06188 4.41016 0 5.45104 0 6.73683V41.0017H5.56704C6.87096 41.0017 7.93283 39.9608 7.93283 38.675V29.5597L12.438 34.986L16.2717 39.6088C17.0447 40.5578 18.0597 41.0017 19.1059 41.0017H26.867L21.8465 34.9631L14.6086 26.2227H14.6008ZM36.8065 32.4374V20.5744H28.8658V33.8992C28.8658 38.101 31.825 40.9941 36.1116 40.9941H42.2174C43.5291 40.9941 44.591 39.9532 44.591 38.6674V34.5268H38.9302C37.759 34.5268 36.8065 33.5931 36.8065 32.4374ZM45.9183 16.3879V11.2218L45.4264 11.7346C45.4108 11.7499 43.9195 13.2423 39.6407 13.2423H36.8065V4.41016H31.2394C29.9277 4.41016 28.8658 5.45104 28.8658 6.72918V13.2347H19.4183C16.2248 13.2347 14.7257 14.5052 13.5779 15.8828L8.93225 21.4929C8.93225 21.4929 11.1263 19.457 14.3509 19.457H39.6486C42.4204 19.457 44.3177 18.9213 45.2937 17.8727C45.9886 17.1227 45.9261 16.3879 45.9261 16.3803L45.9183 16.3879Z" fill="black"/>
<path d="M45.9182 16.4044V11.2383L45.4263 11.7511C45.4107 11.7664 43.9194 13.2588 39.6406 13.2588H19.4181C16.2247 13.2588 14.7256 14.5293 13.5778 15.9069L8.93213 21.517C8.93213 21.517 11.1262 19.4811 14.3508 19.4811H39.6484C42.4202 19.4811 44.3176 18.9454 45.2935 17.8969C45.9885 17.1468 45.926 16.4121 45.926 16.4044H45.9182Z" fill="#E61F19"/>
<path d="M72.847 4.49312V38.0615H52.5854V4.49312H58.6131V15.7438H66.8115V4.49312H72.8392H72.847ZM66.8193 21.4687H58.621V32.2984H66.8193V21.4687ZM83.942 23.3591V39.906H77.8675V3.59766H83.942V17.3128H88.33V23.3667H83.942V23.3591Z" fill="black"/>
<path d="M164.738 38.491H89.4468V32.7661H104.11V27.799H91.5237V13.5175H116.845V10.1116H91.4768V4.57812H122.927V18.8061H97.606V22.3037H123.317V27.7913H110.247V32.7585H164.754V38.4833L164.738 38.491Z" fill="#FF0000"/>
<path d="M135.795 27.9904H154.417V31.1589H160.351V20.1914H154.417V23.0768H135.795V20.1914H129.72V31.1589H135.795V27.9904Z" fill="black"/>
<path d="M139.8 12.0542L149.302 18.2919L152.441 13.7992L142.408 7.41619C143.15 5.24258 143.517 2.95417 143.517 0.558617L137.387 0.183594C137.387 2.48731 136.981 4.56142 136.185 6.42123C135.381 8.28104 134.249 9.80409 132.788 10.9827C131.328 12.1614 129.611 12.8808 127.651 13.1334V18.7587C130.157 18.5674 132.453 17.8939 134.522 16.7229C136.599 15.5596 138.356 13.9982 139.8 12.0389V12.0542Z" fill="black"/>
<path d="M164.738 7.75303V2.50271H160.35V0H154.268V18.8201H160.35V16.1719H164.738V10.9216H160.35V7.75303H164.738Z" fill="black"/>
<path d="M163.278 40.6019V30.6523L168.353 35.6271L163.278 40.6019Z" fill="#FF0000"/>
</svg>
