<svg width="353" height="36" viewBox="0 0 353 36" fill="none" xmlns="http://www.w3.org/2000/svg">
<rect width="352.245" height="35.4923" transform="translate(0.268066 0.351562)" fill="white" fill-opacity="0.2"/>
<path d="M18.9152 23.6111V5.56654H23.5136V23.6111H18.9152ZM8.64025 5.59825C10.1413 5.59825 11.4627 5.90481 12.6044 6.51792C13.7672 7.10989 14.6657 7.95557 15.2999 9.05495C15.9342 10.1543 16.2513 11.4334 16.2513 12.8922C16.2513 14.351 15.9342 15.6301 15.2999 16.7295C14.6657 17.8288 13.7672 18.6851 12.6044 19.2982C11.4627 19.8902 10.1413 20.1861 8.64025 20.1861C7.13918 20.1861 5.80724 19.8902 4.64444 19.2982C3.50277 18.6851 2.60424 17.8288 1.94885 16.7295C1.31459 15.6301 0.997461 14.351 0.997461 12.8922C0.997461 11.4334 1.31459 10.1543 1.94885 9.05495C2.60424 7.95557 3.50277 7.10989 4.64444 6.51792C5.80724 5.90481 7.13918 5.59825 8.64025 5.59825ZM8.64025 9.62578C7.73115 9.62578 6.99119 9.91119 6.42035 10.482C5.87067 11.0529 5.59582 11.8562 5.59582 12.8922C5.59582 13.9282 5.87067 14.7421 6.42035 15.3341C6.99119 15.9049 7.73115 16.1903 8.64025 16.1903C9.54935 16.1903 10.2893 15.9049 10.8602 15.3341C11.431 14.7421 11.7164 13.9282 11.7164 12.8922C11.7164 11.8562 11.431 11.0529 10.8602 10.482C10.2893 9.91119 9.54935 9.62578 8.64025 9.62578ZM23.8307 25.609V29.922H3.0588V21.3912H7.72058V25.609H23.8307ZM44.0284 29.922V5.56654H48.6268V29.922H44.0284ZM40.4766 12.7336C40.4766 15.9895 39.9269 18.8331 38.8275 21.2644C37.7281 23.6746 36.1742 25.535 34.1657 26.8458C32.1573 28.1355 29.8105 28.7803 27.1255 28.7803V24.2137C29.8951 24.1925 32.0198 23.1672 33.4998 21.1375C35.0008 19.1079 35.7514 16.3066 35.7514 12.7336V10.5137H27.1255V6.13737H40.4766V12.7336ZM74.7548 29.0657H51.319V24.5625H60.7377V20.6301H52.5875V6.13737H73.4863V20.6301H65.3678V24.5625H74.7548V29.0657ZM68.9196 16.1586V10.6406H57.1859V16.1586H68.9196ZM95.2062 18.1882V5.56654H99.4875V18.1882H95.2062ZM89.3711 5.66167H93.6206V17.9028H89.3711V13.3045H85.3435V9.94291H89.3711V5.66167ZM88.2611 17.2369C87.6057 17.4694 86.7283 17.6597 85.629 17.8077C84.5507 17.9345 83.4831 17.998 82.426 17.998H76.8762V5.85195H87.1829V9.21351H81.094V14.6998H82.8699C83.8002 14.6998 84.7516 14.6364 85.7241 14.5096C86.7178 14.3827 87.5634 14.203 88.2611 13.9704V17.2369ZM99.7412 29.922H78.1764V23.1354H95.016V22.3426H78.1447V19.0445H99.4875V25.831H82.648V26.6239H99.7412V29.922ZM117.275 24.182V28.8438H112.264V24.182H100.309V20.7253L110.774 6.64477H116.165L106.461 19.9959H112.423V15.8415H117.275V19.9959H120.89V24.182H117.275ZM131.619 12.6385C130.35 13.3785 128.849 13.9599 127.115 14.3827C125.382 14.7844 123.563 15.0064 121.661 15.0487V11.3066C123.331 11.2643 124.917 11.0634 126.418 10.704C127.94 10.3446 129.039 9.85834 129.716 9.24522H121.914V5.56654H142.718V9.24522H134.821C134.716 9.47779 134.642 9.61521 134.6 9.65749L143.289 11.5603L142.242 15.1438L131.619 12.6385ZM144.018 19.7739H120.582V16.0635H130.033V13.9704H134.6V16.0635H144.018V19.7739ZM132.316 20.6301C135.635 20.6301 138.236 21.0213 140.118 21.8035C141.999 22.5646 142.94 23.7803 142.94 25.4505C142.94 27.1207 141.999 28.3363 140.118 29.0975C138.236 29.8797 135.635 30.2708 132.316 30.2708C128.976 30.2708 126.365 29.8797 124.483 29.0975C122.623 28.3363 121.692 27.1207 121.692 25.4505C121.692 23.7803 122.623 22.5646 124.483 21.8035C126.365 21.0213 128.976 20.6301 132.316 20.6301ZM132.316 26.6873C134.092 26.6873 135.487 26.5921 136.502 26.4019C137.538 26.1904 138.056 25.8733 138.056 25.4505C138.056 25.0276 137.538 24.7211 136.502 24.5308C135.466 24.3194 134.071 24.2137 132.316 24.2137C130.54 24.2137 129.134 24.3194 128.098 24.5308C127.062 24.7211 126.544 25.0276 126.544 25.4505C126.544 25.8733 127.052 26.1904 128.067 26.4019C129.103 26.5921 130.519 26.6873 132.316 26.6873Z" fill="black"/>
<path d="M162.771 23.8907H161.614V11.713H162.771V23.8907ZM156.873 13.2986C156.862 14.7574 156.741 16.1052 156.508 17.342L160.361 22.305L159.457 23.0186L156.143 18.6739C155.763 19.9847 155.245 21.026 154.589 21.7976C153.934 22.5587 153.173 23.0027 152.306 23.1296V21.9403C153.004 21.7923 153.606 21.3325 154.114 20.5608C154.621 19.7786 155.012 18.7638 155.287 17.5164C155.562 16.2585 155.71 14.8525 155.731 13.2986H152.56V12.1886H159.949V13.2986H156.873ZM174.091 15.9783V12.918H165.386V11.8874H175.249V15.9783H174.091ZM164.577 17.786V16.7712H176.121V17.786H164.577ZM165.418 23.7163V19.1496H175.28V23.7163H165.418ZM174.154 20.1486H166.559V22.7173H174.154V20.1486ZM180.254 13.8694V12.8863H183.599V11.491H184.757V12.8863H188.103V13.8694H180.254ZM192.368 16.0893H190.687V20.2596H189.545V11.713H190.687V14.9318H192.368V16.0893ZM184.186 19.3082C183.541 19.3082 182.96 19.213 182.442 19.0228C181.924 18.8325 181.517 18.5576 181.221 18.1982C180.925 17.8388 180.777 17.4213 180.777 16.9456C180.777 16.2267 181.094 15.6559 181.728 15.2331C182.373 14.8102 183.192 14.5988 184.186 14.5988C184.82 14.5988 185.396 14.694 185.914 14.8842C186.432 15.0745 186.839 15.3494 187.135 15.7088C187.431 16.0576 187.579 16.4699 187.579 16.9456C187.579 17.4213 187.431 17.8388 187.135 18.1982C186.839 18.5576 186.432 18.8325 185.914 19.0228C185.407 19.213 184.831 19.3082 184.186 19.3082ZM184.186 15.5344C183.488 15.5344 182.928 15.6665 182.505 15.9308C182.093 16.195 181.887 16.5333 181.887 16.9456C181.887 17.3578 182.093 17.7014 182.505 17.9762C182.928 18.2405 183.488 18.3726 184.186 18.3726C184.873 18.3726 185.423 18.2405 185.835 17.9762C186.258 17.7014 186.469 17.3578 186.469 16.9456C186.469 16.5333 186.258 16.195 185.835 15.9308C185.423 15.6665 184.873 15.5344 184.186 15.5344ZM186.913 19.8156C186.786 20.3018 186.633 20.6824 186.453 20.9572L191.131 22.8442L190.735 23.8748L185.772 21.8135C185.211 22.416 184.503 22.8812 183.647 23.2089C182.791 23.526 181.892 23.6898 180.951 23.7004V22.6222C181.691 22.6116 182.4 22.49 183.076 22.2575C183.753 22.0249 184.334 21.6814 184.82 21.2268C185.307 20.7723 185.629 20.2278 185.788 19.5936L186.913 19.8156ZM192.81 13.9329V12.9339H196.156V11.491H197.313V12.9339H200.659V13.9329H192.81ZM204.925 16.2955H203.244V20.8462H202.102V11.713H203.244V15.1538H204.925V16.2955ZM196.743 19.6729C195.749 19.6729 194.93 19.4509 194.285 19.0069C193.651 18.5629 193.333 17.9551 193.333 17.1834C193.333 16.4117 193.651 15.8039 194.285 15.3599C194.93 14.916 195.749 14.694 196.743 14.694C197.736 14.694 198.55 14.916 199.184 15.3599C199.819 15.8039 200.136 16.4117 200.136 17.1834C200.136 17.9551 199.819 18.5629 199.184 19.0069C198.55 19.4509 197.736 19.6729 196.743 19.6729ZM196.743 15.6295C196.045 15.6295 195.485 15.7775 195.062 16.0735C194.65 16.3589 194.443 16.7289 194.443 17.1834C194.443 17.638 194.65 18.0132 195.062 18.3092C195.485 18.5946 196.045 18.7373 196.743 18.7373C197.43 18.7373 197.979 18.5946 198.392 18.3092C198.815 18.0132 199.026 17.638 199.026 17.1834C199.026 16.7289 198.815 16.3589 198.392 16.0735C197.979 15.7775 197.43 15.6295 196.743 15.6295ZM203.593 22.638V23.7004H193.651V20.4498H194.808V22.638H203.593ZM215.717 17.6274C216.468 17.7754 217.039 18.0872 217.43 18.5629C217.831 19.028 218.032 19.6412 218.032 20.4023C218.032 21.3537 217.694 22.083 217.017 22.5905C216.351 23.0979 215.363 23.3516 214.052 23.3516H209.2V12.2521H213.751C214.924 12.2521 215.839 12.5005 216.494 12.9973C217.15 13.4942 217.477 14.1918 217.477 15.0904C217.477 15.7246 217.319 16.2585 217.002 16.6919C216.695 17.1147 216.267 17.4265 215.717 17.6274ZM210.342 17.2627H213.672C214.517 17.2627 215.167 17.0883 215.622 16.7394C216.087 16.3906 216.32 15.8885 216.32 15.2331C216.32 14.5777 216.087 14.0808 215.622 13.7426C215.167 13.3937 214.517 13.2193 213.672 13.2193H210.342V17.2627ZM214.021 22.3843C214.961 22.3843 215.67 22.2152 216.145 21.8769C216.621 21.5386 216.859 21.0101 216.859 20.2913C216.859 18.8853 215.913 18.1824 214.021 18.1824H210.342V22.3843H214.021ZM227.288 23.3516H219.82V12.2521H227.082V13.2669H220.961V17.2151H226.416V18.2141H220.961V22.3368H227.288V23.3516ZM232.346 23.4626C231.564 23.4626 230.813 23.3304 230.094 23.0661C229.386 22.7913 228.826 22.4372 228.414 22.0038L228.858 21.1C229.249 21.5016 229.756 21.8293 230.38 22.083C231.014 22.3262 231.669 22.4477 232.346 22.4477C233.276 22.4477 233.974 22.268 234.439 21.9086C234.915 21.5386 235.153 21.0682 235.153 20.4974C235.153 20.0534 235.026 19.6993 234.772 19.435C234.518 19.1602 234.201 18.9541 233.821 18.8166C233.44 18.6686 232.922 18.5101 232.267 18.3409C231.484 18.1295 230.856 17.9287 230.38 17.7384C229.915 17.5375 229.513 17.2363 229.175 16.8346C228.847 16.4329 228.683 15.8885 228.683 15.2014C228.683 14.6411 228.826 14.1284 229.111 13.6633C229.397 13.1982 229.825 12.8282 230.396 12.5533C230.977 12.2785 231.696 12.1411 232.552 12.1411C233.165 12.1411 233.763 12.2309 234.344 12.4106C234.925 12.5903 235.433 12.8388 235.866 13.1559L235.47 14.0914C235.036 13.7849 234.566 13.5523 234.059 13.3937C233.551 13.2352 233.054 13.1559 232.568 13.1559C231.659 13.1559 230.972 13.3462 230.507 13.7267C230.052 14.0967 229.825 14.5724 229.825 15.1538C229.825 15.5978 229.952 15.9572 230.205 16.232C230.459 16.5069 230.776 16.7183 231.157 16.8663C231.548 17.0037 232.071 17.157 232.727 17.3261C233.498 17.527 234.117 17.7278 234.582 17.9287C235.057 18.1189 235.459 18.4149 235.787 18.8166C236.125 19.2183 236.294 19.7522 236.294 20.4181C236.294 20.9784 236.146 21.4911 235.85 21.9562C235.565 22.4107 235.126 22.7754 234.534 23.0503C233.942 23.3251 233.213 23.4626 232.346 23.4626ZM236.573 13.2827V12.2521H245.12V13.2827H241.425V23.3516H240.284V13.2827H236.573ZM249.81 17.0249C250.973 17.0777 251.861 17.3896 252.474 17.9604C253.087 18.5206 253.394 19.2553 253.394 20.1644C253.394 20.7987 253.24 21.3642 252.934 21.8611C252.627 22.3579 252.173 22.749 251.57 23.0344C250.968 23.3198 250.233 23.4626 249.366 23.4626C248.563 23.4626 247.802 23.3357 247.083 23.082C246.375 22.8177 245.809 22.4689 245.386 22.0355L245.909 21.1317C246.279 21.5122 246.766 21.8241 247.368 22.0672C247.981 22.2998 248.637 22.416 249.334 22.416C250.254 22.416 250.957 22.2152 251.443 21.8135C251.94 21.4118 252.189 20.8621 252.189 20.1644C252.189 19.4667 251.94 18.9223 251.443 18.5312C250.957 18.1401 250.212 17.9445 249.208 17.9445H248.415V17.1358L251.475 13.2669H245.814V12.2521H252.95V13.0608L249.81 17.0249Z" fill="black"/>
<path d="M262.084 16.8504C261.703 17.5375 261.196 18.1031 260.561 18.5471C259.927 18.991 259.187 19.2712 258.342 19.3875V18.2934C259.304 18.1348 260.065 17.6961 260.625 16.9773C261.185 16.2479 261.513 15.3705 261.608 14.3451H258.579V13.251H261.624V11.5544H262.781V13.251H265.794V14.3451H262.765C262.734 14.9265 262.644 15.4339 262.496 15.8673L266.175 18.4678L265.54 19.3716L262.084 16.8504ZM268.87 23.8907H267.729V11.713H268.87V23.8907ZM262.734 22.0196C264.594 22.0196 265.916 21.8452 266.698 21.4964V22.6063C265.884 22.9552 264.568 23.1296 262.75 23.1296H258.104V22.0196H261.497V19.2448H262.639V22.0196H262.734ZM281.49 23.8907H280.349V17.4847H277.383V16.3747H280.349V11.713H281.49V23.8907ZM275.322 13.2986C275.301 14.7785 275.19 16.1052 274.989 17.2786L278.842 22.3209L277.938 23.0027L274.624 18.6422C274.254 19.9636 273.742 21.0101 273.086 21.7818C272.442 22.5429 271.686 22.9922 270.819 23.1296V21.9403C271.506 21.7923 272.098 21.3325 272.595 20.5608C273.092 19.7786 273.472 18.7638 273.736 17.5164C274.011 16.269 274.159 14.8631 274.18 13.2986H271.073V12.1886H278.398V13.2986H275.322ZM293.635 17.897V23.8907H292.493V11.713H293.635V16.7553H295.315V17.897H293.635ZM289.908 12.1886V15.0428C289.908 16.6496 289.66 18.0608 289.163 19.2765C288.666 20.4921 287.947 21.4329 287.007 22.0989C286.066 22.7649 284.951 23.0979 283.661 23.0979V21.9562C284.729 21.9562 285.643 21.6761 286.404 21.1158C287.176 20.5555 287.762 19.7574 288.164 18.7215C288.566 17.6855 288.767 16.4752 288.767 15.0904V13.2827H283.661V12.1886H289.908ZM299.702 13.1559V12.0301H309.596V17.5323H308.407V13.1559H299.702ZM305.188 19.7839V24.1761H304.031V19.7839H298.909V18.6264H310.453V19.7839H305.188ZM322.534 23.8907H321.439V17.8494H319.346V23.6845H318.268V11.7764H319.346V16.7077H321.439V11.713H322.534V23.8907ZM316.762 12.1886V23.1296H311.862V12.1886H316.762ZM315.668 22.0355V13.2827H312.94V22.0355H315.668ZM337.909 23.8907H336.751V11.713H337.909V23.8907ZM332.01 13.2986C332 14.7574 331.878 16.1052 331.645 17.342L335.499 22.305L334.595 23.0186L331.281 18.6739C330.9 19.9847 330.382 21.026 329.727 21.7976C329.071 22.5587 328.31 23.0027 327.443 23.1296V21.9403C328.141 21.7923 328.744 21.3325 329.251 20.5608C329.759 19.7786 330.15 18.7638 330.424 17.5164C330.699 16.2585 330.847 14.8525 330.868 13.2986H327.697V12.1886H335.086V13.2986H332.01ZM349.403 11.713H350.545V21.2585H349.403V20.3547H345.772V19.435H349.403V11.713ZM343.853 16.4699C342.828 16.4699 342.003 16.2637 341.38 15.8515C340.756 15.4286 340.444 14.8472 340.444 14.1073C340.444 13.3779 340.756 12.807 341.38 12.3948C342.014 11.9719 342.838 11.7605 343.853 11.7605C344.868 11.7605 345.687 11.9719 346.311 12.3948C346.935 12.807 347.246 13.3779 347.246 14.1073C347.246 14.8578 346.935 15.4392 346.311 15.8515C345.698 16.2637 344.879 16.4699 343.853 16.4699ZM343.853 12.7278C343.166 12.7278 342.611 12.8493 342.188 13.0925C341.776 13.325 341.57 13.6633 341.57 14.1073C341.57 14.5618 341.776 14.9107 342.188 15.1538C342.611 15.3969 343.166 15.5185 343.853 15.5185C344.53 15.5185 345.074 15.3969 345.486 15.1538C345.909 14.9107 346.121 14.5618 346.121 14.1073C346.121 13.6633 345.909 13.325 345.486 13.0925C345.074 12.8493 344.53 12.7278 343.853 12.7278ZM339.731 18.4202V17.4213H344.408C346.343 17.4213 347.659 17.2574 348.356 16.9297V17.9287C347.659 18.2564 346.258 18.4202 344.154 18.4202V20.7035H343.013V18.4202H339.731ZM350.878 23.7004H340.809V20.0376H341.966V22.6539H350.878V23.7004Z" fill="#E61F19"/>
</svg>
