<svg width="229" height="56" viewBox="0 0 229 56" fill="none" xmlns="http://www.w3.org/2000/svg">
<path d="M19.794 35.5474L26.1344 27.8901H18.7143C15.9622 27.8901 13.2736 28.5023 11.3154 30.1936L10.7544 30.868V5.97656H3.20726C1.43956 5.97656 0 7.38766 0 9.13079V55.583H7.54711C9.3148 55.583 10.7544 54.1719 10.7544 52.4288V40.0713L16.8619 47.4277L22.0591 53.6946C23.1071 54.9812 24.4831 55.583 25.9015 55.583H36.423L29.6168 47.3965L19.8045 35.5474H19.794ZM49.8977 43.9726V27.8901H39.1327V45.9543C39.1327 51.6506 43.1445 55.5726 48.9556 55.5726H57.2331C59.0114 55.5726 60.4509 54.1615 60.4509 52.4184V46.8051H52.7768C51.1891 46.8051 49.8977 45.5393 49.8977 43.9726ZM62.2504 22.2146V15.211L61.5835 15.9062C61.5624 15.9269 59.5406 17.9502 53.74 17.9502H49.8977V5.97656H42.3506C40.5723 5.97656 39.1327 7.38766 39.1327 9.12041V17.9398H26.3249C21.9956 17.9398 19.9633 19.6622 18.4073 21.5298L12.1092 29.1352C12.1092 29.1352 15.0836 26.3753 19.4552 26.3753H53.7506C57.5083 26.3753 60.0805 25.649 61.4036 24.2275C62.3456 23.2107 62.261 22.2146 62.261 22.2042L62.2504 22.2146Z" fill="white"/>
<path d="M62.2505 22.238V15.2344L61.5837 15.9296C61.5625 15.9503 59.5408 17.9736 53.7402 17.9736H26.325C21.9958 17.9736 19.9634 19.6959 18.4075 21.5636L12.1094 29.169C12.1094 29.169 15.0838 26.4091 19.4554 26.4091H53.7508C57.5084 26.4091 60.0806 25.6828 61.4037 24.2613C62.3458 23.2445 62.2611 22.2484 62.2611 22.238H62.2505Z" fill="white"/>
<path d="M98.7566 6.09287V51.6009H71.2886V6.09287H79.4602V21.3452H90.5744V6.09287H98.7461H98.7566ZM90.585 29.1063H79.4708V43.788H90.585V29.1063ZM113.798 31.6691V54.1015H105.563V4.87891H113.798V23.4722H119.747V31.6795H113.798V31.6691Z" fill="white"/>
<path d="M223.331 52.1781H121.26V44.417H141.139V37.6831H124.076V18.322H158.403V13.7048H124.012V6.20312H166.649V25.4916H132.322V30.2334H167.178V37.6728H149.459V44.4066H223.353V52.1677L223.331 52.1781Z" fill="white"/>
<path d="M184.093 37.944H209.338V42.2395H217.383V27.3711H209.338V31.2828H184.093V27.3711H175.858V42.2395H184.093V37.944Z" fill="white"/>
<path d="M189.523 16.3428L202.405 24.799L206.66 18.7085L193.058 10.0551C194.064 7.10837 194.561 4.00602 194.561 0.758412L186.252 0.25C186.252 3.3731 185.702 6.18493 184.622 8.70624C183.532 11.2275 181.997 13.2923 180.018 14.8902C178.038 16.488 175.71 17.4634 173.053 17.8058V25.4319C176.451 25.1726 179.563 24.2595 182.368 22.672C185.183 21.0949 187.565 18.9782 189.523 16.322V16.3428Z" fill="white"/>
<path d="M223.332 10.5106V3.39287H217.383V0H209.137V25.514H217.383V21.924H223.332V14.8062H217.383V10.5106H223.332Z" fill="white"/>
<path d="M221.352 55.0432V41.5547L228.232 48.2989L221.352 55.0432Z" fill="white"/>
</svg>
