<svg width="157" height="234" viewBox="0 0 157 234" fill="none" xmlns="http://www.w3.org/2000/svg">
<rect x="0.782227" width="155.645" height="233.468" rx="15.5645" fill="#FAE100"/>
<path d="M78.5737 80.9355C55.8106 80.9355 37.3589 95.5194 37.3589 113.52C37.3589 125.232 45.1723 135.497 56.9079 141.24C56.0441 144.454 53.7872 152.898 53.3359 154.704C52.7755 156.945 54.153 156.914 55.0635 156.314C55.7717 155.84 66.3556 148.641 70.9238 145.536C73.4063 145.902 75.9589 146.096 78.5737 146.096C101.337 146.096 119.789 131.512 119.789 113.52C119.789 95.5272 101.337 80.9355 78.5737 80.9355ZM104.131 123.076L98.5352 115.45L97.2589 116.477C97.2589 116.477 97.2589 120.244 97.2589 122.236C97.2589 123.948 92.9009 123.948 92.9009 122.236C92.9009 121.154 92.9943 106.524 92.9553 104.905C92.932 104.01 94.076 103.551 95.1966 103.551C96.2394 103.551 97.2667 103.955 97.2901 104.788C97.3523 106.983 97.2901 110.952 97.2901 110.952C97.2901 110.952 103.601 104.632 104.504 103.738C105.43 102.811 108.302 105.706 107.376 106.625C105.788 108.205 101.757 112.563 101.757 112.563L107.695 120.384C108.823 121.878 105.267 124.571 104.138 123.076H104.131ZM72.6514 104.811C73.4063 106.415 77.5231 117.746 78.7216 120.89C79.5543 123.092 75.5309 124.617 74.6904 122.415C73.6631 119.691 73.9277 119.574 73.9277 119.574H66.1688L65.3205 122.539C64.4178 124.617 60.5111 122.921 61.4216 120.843C62.6746 117.963 66.4412 107.107 67.484 104.811C67.8965 103.901 68.8692 103.535 69.8654 103.535C71.0716 103.535 72.309 104.064 72.6592 104.811H72.6514ZM62.7135 103.535C65.3517 103.535 65.3517 107.683 62.7135 107.683C59.9119 107.683 58.4955 107.675 58.4955 107.675L58.4799 121.917C58.4799 123.894 54.0752 123.87 54.0752 121.886C54.0985 119.17 54.0752 107.52 54.0752 107.52H49.8338C47.3435 107.52 47.3357 103.457 49.8338 103.45C49.8338 103.45 59.764 103.535 62.7368 103.535H62.7135ZM80.2236 121.069C80.2236 121.069 80.208 109.177 80.2002 105.489C80.2002 104.189 81.3442 103.543 82.496 103.543C83.6478 103.543 84.784 104.189 84.7917 105.481C84.7917 108.15 84.784 119.154 84.784 119.154C84.784 119.154 88.4183 119.178 90.4183 119.178C92.4184 119.178 92.4184 123.419 90.4261 123.419C88.4338 123.419 83.9357 123.442 81.9123 123.442C79.8889 123.442 80.2236 121.076 80.2236 121.076V121.069Z" fill="#371D1E"/>
<path d="M72.4804 115.668L70.1224 108.275L67.562 115.668H72.4804Z" fill="#371D1E"/>
<path d="M49.8183 107.52H54.0597C54.0597 107.52 54.083 119.17 54.0597 121.886C54.0597 123.87 58.4722 123.894 58.4644 121.917L58.48 107.675C58.48 107.675 59.9042 107.683 62.698 107.683C65.3362 107.683 65.3362 103.535 62.698 103.535C59.7252 103.535 49.795 103.45 49.795 103.45C47.3047 103.45 47.3125 107.52 49.795 107.52H49.8183Z" fill="#FAE100"/>
<path d="M67.4763 104.811C66.4335 107.107 62.6591 117.963 61.4139 120.843C60.5112 122.921 64.4101 124.625 65.3129 122.539L66.1611 119.574H73.92C73.92 119.574 73.6554 119.699 74.6827 122.415C75.5154 124.617 79.5466 123.092 78.7139 120.89C77.5232 117.746 73.3986 106.415 72.6437 104.811C72.2935 104.072 71.0562 103.535 69.8499 103.535C68.8538 103.535 67.881 103.901 67.4685 104.811H67.4763ZM70.1223 108.275L72.4803 115.668H67.5619L70.1223 108.275Z" fill="#FAE100"/>
<path d="M90.4183 119.17C88.4261 119.17 84.784 119.146 84.784 119.146C84.784 119.146 84.7996 108.15 84.7918 105.473C84.7918 104.181 83.64 103.535 82.496 103.535C81.352 103.535 80.1925 104.189 80.2002 105.481C80.2002 109.17 80.2236 121.061 80.2236 121.061C80.2236 121.061 79.8812 123.427 81.9123 123.427C83.9435 123.427 88.4339 123.403 90.4261 123.403C92.4184 123.403 92.4106 119.162 90.4183 119.162V119.17Z" fill="#FAE100"/>
<path d="M101.749 112.563C101.749 112.563 105.78 108.205 107.368 106.625C108.294 105.706 105.422 102.811 104.496 103.737C103.601 104.625 97.2823 110.952 97.2823 110.952C97.2823 110.952 97.3367 106.983 97.2823 104.788C97.2589 103.955 96.2394 103.551 95.1888 103.551C94.0682 103.551 92.9242 104.01 92.9475 104.905C92.9942 106.524 92.8931 121.154 92.8931 122.236C92.8931 123.948 97.2511 123.94 97.2511 122.236C97.2511 120.251 97.2511 116.477 97.2511 116.477L98.5274 115.45L104.123 123.076C105.251 124.571 108.808 121.87 107.679 120.384L101.741 112.563H101.749Z" fill="#FAE100"/>
<path d="M49.6895 37.5106V44.0476H48.4444V30.7659H49.6895V36.2654H51.5227V37.5106H49.6895ZM45.7638 31.2847V34.9511C45.7638 36.6459 45.4698 38.1158 44.8818 39.361C44.2938 40.5946 43.4753 41.54 42.4261 42.1972C41.3769 42.8544 40.1721 43.183 38.8117 43.183V41.9551C40.2182 41.9436 41.3942 41.5458 42.3396 40.7618C43.285 39.9663 43.9249 38.8307 44.2593 37.3549H38.8117V36.1616H44.4495C44.4956 35.8388 44.5187 35.4583 44.5187 35.0202V32.478H38.8117V31.2847H45.7638ZM63.3845 37.5106V44.0476H62.1393V30.7659H63.3845V36.2654H65.2176V37.5106H63.3845ZM59.4588 31.2847V34.9511C59.4588 36.6459 59.1648 38.1158 58.5768 39.361C57.9888 40.5946 57.1702 41.54 56.121 42.1972C55.0719 42.8544 53.8671 43.183 52.5066 43.183V41.9551C53.9132 41.9436 55.0892 41.5458 56.0346 40.7618C56.98 39.9663 57.6199 38.8307 57.9542 37.3549H52.5066V36.1616H58.1444C58.1906 35.8388 58.2136 35.4583 58.2136 35.0202V32.478H52.5066V31.2847H59.4588ZM78.3073 43.3732H65.7173V42.1453H71.3724V39.1016C70.3694 39.0439 69.4874 38.8422 68.7265 38.4963C67.9771 38.1389 67.3949 37.672 66.9798 37.0955C66.5763 36.5075 66.3745 35.8388 66.3745 35.0894C66.3745 34.2824 66.6051 33.5733 67.0663 32.9623C67.539 32.3512 68.1961 31.8785 69.0378 31.5442C69.8909 31.2098 70.8825 31.0426 72.0123 31.0426C73.1422 31.0426 74.1279 31.2098 74.9696 31.5442C75.8227 31.8785 76.4799 32.3512 76.9411 32.9623C77.4138 33.5733 77.6501 34.2824 77.6501 35.0894C77.6501 35.8388 77.4426 36.5075 77.0276 37.0955C76.624 37.672 76.0418 38.1389 75.2809 38.4963C74.5199 38.8422 73.638 39.0439 72.6349 39.1016V42.1453H78.3073V43.3732ZM67.6716 35.0894C67.6716 35.6543 67.8503 36.1501 68.2077 36.5767C68.5651 37.0033 69.0724 37.3376 69.7295 37.5797C70.3867 37.8103 71.1476 37.9256 72.0123 37.9256C72.877 37.9256 73.638 37.8103 74.2951 37.5797C74.9523 37.3376 75.4596 37.0033 75.817 36.5767C76.1744 36.1501 76.3531 35.6543 76.3531 35.0894C76.3531 34.5245 76.1744 34.0287 75.817 33.6021C75.4596 33.164 74.9523 32.8297 74.2951 32.5991C73.638 32.357 72.877 32.2359 72.0123 32.2359C71.1476 32.2359 70.3867 32.357 69.7295 32.5991C69.0724 32.8297 68.5651 33.164 68.2077 33.6021C67.8503 34.0287 67.6716 34.5245 67.6716 35.0894ZM92.0023 39.2054H79.4123V38.1331H85.0847V36.6804H80.3808V30.9562H91.1549V31.9246H81.6086V33.3773H90.93V34.2593H81.6086V35.7293H91.2586V36.6804H86.3299V38.1331H92.0023V39.2054ZM91.0857 40.537V44.0304H89.8405V41.6092H80.2078V40.537H91.0857ZM99.4022 31.0772C100.532 31.0772 101.524 31.2502 102.377 31.596C103.23 31.9419 103.887 32.4319 104.348 33.066C104.809 33.7001 105.04 34.4322 105.04 35.2623C105.04 36.0925 104.809 36.8246 104.348 37.4587C103.887 38.0813 103.23 38.5655 102.377 38.9114C101.524 39.2572 100.532 39.4302 99.4022 39.4302C98.2724 39.4302 97.2808 39.2572 96.4277 38.9114C95.5745 38.5655 94.9173 38.0813 94.4562 37.4587C93.995 36.8246 93.7644 36.0925 93.7644 35.2623C93.7644 34.4322 93.995 33.7001 94.4562 33.066C94.9173 32.4319 95.5745 31.9419 96.4277 31.596C97.2808 31.2502 98.2724 31.0772 99.4022 31.0772ZM99.4022 32.2705C98.5375 32.2705 97.7766 32.3973 97.1194 32.651C96.4738 32.8931 95.9723 33.239 95.6149 33.6886C95.2575 34.1382 95.0787 34.6628 95.0787 35.2623C95.0787 35.8503 95.2575 36.3692 95.6149 36.8188C95.9723 37.2684 96.4738 37.6201 97.1194 37.8737C97.7766 38.1158 98.5375 38.2369 99.4022 38.2369C100.267 38.2369 101.022 38.1158 101.668 37.8737C102.325 37.6201 102.832 37.2684 103.19 36.8188C103.547 36.3692 103.726 35.8503 103.726 35.2623C103.726 34.6628 103.547 34.1382 103.19 33.6886C102.832 33.239 102.325 32.8931 101.668 32.651C101.022 32.3973 100.267 32.2705 99.4022 32.2705ZM93.1072 43.3732V42.1453H105.697V43.3732H93.1072ZM119.392 43.3732H106.802V42.1799H112.44V39.4475H107.701V34.7781H117.3V32.4607H107.684V31.2847H118.545V35.9195H108.929V38.2715H118.735V39.4475H113.685V42.1799H119.392V43.3732ZM63.5077 56.2796H61.6745V61.6407H60.4294V51.7659H61.6745V55.0345H63.5077V56.2796ZM57.8872 53.8585C57.8872 55.6916 57.2358 57.0925 55.9329 58.0609C54.6417 59.0294 52.8892 59.5136 50.6756 59.5136V58.3203C52.5318 58.3203 53.9903 57.9456 55.051 57.1962C56.1116 56.4468 56.642 55.3804 56.642 53.9968V53.2878H50.6756V52.1291H57.8872V53.8585ZM62.055 63.6468V64.8401H51.2117V60.7588H52.4742V63.6468H62.055ZM72.5679 57.4902V56.3834H74.5912V54.6713H72.5679V53.5472H74.5912V51.7659H75.8191V61.6753H74.5912V57.4902H72.5679ZM72.5679 59.0467C72.1528 59.2196 71.5763 59.3522 70.8385 59.4444C70.1006 59.5367 69.2474 59.5828 68.279 59.5828H64.1111V58.4587H65.6849V53.2532H64.1457V52.1291H72.2047V53.2532H70.6482V58.3549C71.4438 58.2742 72.0836 58.1301 72.5679 57.9226V59.0467ZM67.9504 58.4587C68.3308 58.4587 68.8208 58.4471 69.4204 58.4241V53.2532H66.8782V58.4587H67.9504ZM76.1477 64.8401H65.1834V60.8625H66.4458V63.6641H76.1477V64.8401ZM82.0734 57.1962V51.9562H92.7784V57.1962H82.0734ZM83.3186 53.0457V56.1067H91.5332V53.0457H83.3186ZM93.7122 59.7903H88.0398V62.1769H86.7947V59.7903H81.1223V58.6662H93.7122V59.7903ZM93.0551 63.716V64.8574H82.0561V61.0009H83.3186V63.716H93.0551ZM105.332 65.0476V51.7659H106.56V65.0476H105.332ZM99.158 52.0772C99.8959 52.0772 100.559 52.2559 101.147 52.6133C101.735 52.9592 102.19 53.4492 102.513 54.0833C102.847 54.7174 103.015 55.438 103.015 56.245C103.015 57.0406 102.847 57.7554 102.513 58.3895C102.179 59.0236 101.717 59.5194 101.129 59.8768C100.553 60.2226 99.8959 60.3956 99.158 60.3956C98.4086 60.3956 97.7399 60.2226 97.1519 59.8768C96.5639 59.5194 96.1027 59.0294 95.7684 58.4068C95.434 57.7727 95.2669 57.0521 95.2669 56.245C95.2669 55.438 95.434 54.7174 95.7684 54.0833C96.1027 53.4492 96.5639 52.9592 97.1519 52.6133C97.7399 52.2559 98.4086 52.0772 99.158 52.0772ZM99.158 53.2705C98.3625 53.2705 97.7168 53.553 97.2211 54.1179C96.7368 54.6713 96.4947 55.3804 96.4947 56.245C96.4947 57.0982 96.7368 57.8073 97.2211 58.3722C97.7168 58.9256 98.3625 59.2023 99.158 59.2023C99.942 59.2023 100.576 58.9256 101.06 58.3722C101.556 57.8073 101.804 57.0982 101.804 56.245C101.804 55.3919 101.556 54.6828 101.06 54.1179C100.576 53.553 99.942 53.2705 99.158 53.2705ZM104.191 63.5777C103.775 63.7852 103.182 63.9466 102.409 64.0619C101.637 64.1657 100.761 64.2175 99.7806 64.2175H94.8172V62.9897H99.867C100.812 62.9897 101.66 62.9378 102.409 62.834C103.17 62.7187 103.764 62.5573 104.191 62.3498V63.5777Z" fill="black"/>
<path d="M63.3923 181.482V188.019H62.1471V174.738H63.3923V180.237H65.2255V181.482H63.3923ZM59.4666 175.257V178.923C59.4666 180.618 59.1726 182.088 58.5846 183.333C57.9966 184.566 57.178 185.512 56.1289 186.169C55.0797 186.826 53.8749 187.155 52.5144 187.155V185.927C53.921 185.915 55.097 185.518 56.0424 184.734C56.9878 183.938 57.6277 182.802 57.962 181.327H52.5144V180.133H58.1522C58.1984 179.811 58.2214 179.43 58.2214 178.992V176.45H52.5144V175.257H59.4666ZM77.0873 181.482V188.019H75.8421V174.738H77.0873V180.237H78.9204V181.482H77.0873ZM73.1615 175.257V178.923C73.1615 180.618 72.8675 182.088 72.2795 183.333C71.6916 184.566 70.873 185.512 69.8238 186.169C68.7746 186.826 67.5698 187.155 66.2094 187.155V185.927C67.616 185.915 68.7919 185.518 69.7373 184.734C70.6827 183.938 71.3226 182.802 71.657 181.327H66.2094V180.133H71.8472C71.8933 179.811 71.9164 179.43 71.9164 178.992V176.45H66.2094V175.257H73.1615ZM92.0101 187.345H79.4201V186.117H85.0752V183.073C84.0722 183.016 83.1902 182.814 82.4292 182.468C81.6798 182.111 81.0976 181.644 80.6826 181.067C80.279 180.479 80.0773 179.811 80.0773 179.061C80.0773 178.254 80.3079 177.545 80.769 176.934C81.2417 176.323 81.8989 175.85 82.7405 175.516C83.5937 175.182 84.5852 175.014 85.7151 175.014C86.845 175.014 87.8307 175.182 88.6723 175.516C89.5255 175.85 90.1827 176.323 90.6438 176.934C91.1166 177.545 91.3529 178.254 91.3529 179.061C91.3529 179.811 91.1454 180.479 90.7303 181.067C90.3268 181.644 89.7446 182.111 88.9836 182.468C88.2227 182.814 87.3407 183.016 86.3377 183.073V186.117H92.0101V187.345ZM81.3743 179.061C81.3743 179.626 81.553 180.122 81.9104 180.548C82.2678 180.975 82.7751 181.309 83.4323 181.552C84.0895 181.782 84.8504 181.897 85.7151 181.897C86.5798 181.897 87.3407 181.782 87.9979 181.552C88.6551 181.309 89.1623 180.975 89.5197 180.548C89.8772 180.122 90.0559 179.626 90.0559 179.061C90.0559 178.496 89.8772 178.001 89.5197 177.574C89.1623 177.136 88.6551 176.801 87.9979 176.571C87.3407 176.329 86.5798 176.208 85.7151 176.208C84.8504 176.208 84.0895 176.329 83.4323 176.571C82.7751 176.801 82.2678 177.136 81.9104 177.574C81.553 178.001 81.3743 178.496 81.3743 179.061ZM105.705 183.177H93.1151V182.105H98.7875V180.652H94.0835V174.928H104.858V175.896H95.3114V177.349H104.633V178.231H95.3114V179.701H104.961V180.652H100.033V182.105H105.705V183.177ZM104.788 184.509V188.002H103.543V185.581H93.9106V184.509H104.788Z" fill="black"/>
<path d="M45.6742 213.774H40.6106V198.445H36.9027V194.405H45.6742V213.774ZM54.3431 202.319C53.513 202.319 52.812 202.033 52.2402 201.461C51.6683 200.889 51.3824 200.17 51.3824 199.303C51.3824 198.436 51.6591 197.735 52.2125 197.2C52.7844 196.646 53.4946 196.37 54.3431 196.37C55.1917 196.37 55.8926 196.646 56.4461 197.2C57.0179 197.735 57.3038 198.436 57.3038 199.303C57.3038 200.17 57.0179 200.889 56.4461 201.461C55.8742 202.033 55.1732 202.319 54.3431 202.319ZM54.3431 211.782C53.513 211.782 52.812 211.496 52.2402 210.924C51.6683 210.352 51.3824 209.633 51.3824 208.766C51.3824 207.899 51.6591 207.198 52.2125 206.663C52.7844 206.11 53.4946 205.833 54.3431 205.833C55.1917 205.833 55.8926 206.11 56.4461 206.663C57.0179 207.198 57.3038 207.899 57.3038 208.766C57.3038 209.633 57.0179 210.352 56.4461 210.924C55.8742 211.496 55.1732 211.782 54.3431 211.782ZM69.8722 213.774H64.8085V198.445H61.1007V194.405H69.8722V213.774ZM102.331 201.018H100.089V205.141H95.6068V193.464H100.089V196.48H102.331V201.018ZM88.1635 201.24C87.2596 202.439 86.1805 203.379 84.9261 204.062C83.6901 204.744 82.3435 205.104 80.8862 205.141V200.908C81.8824 200.815 82.7586 200.446 83.5149 199.801C84.2897 199.155 84.8984 198.288 85.3411 197.2C85.7839 196.111 86.0145 194.885 86.0329 193.52L90.5431 193.796C90.5431 195.143 90.3495 196.443 89.9621 197.698L95.2194 201.184L92.9505 204.56L88.1635 201.24ZM91.0135 205.335C93.8359 205.335 96.0772 205.713 97.7374 206.469C99.4161 207.226 100.255 208.461 100.255 210.177C100.255 211.893 99.4161 213.129 97.7374 213.885C96.0772 214.66 93.8359 215.047 91.0135 215.047C88.1912 215.047 85.9407 214.66 84.262 213.885C82.6018 213.129 81.7717 211.893 81.7717 210.177C81.7717 208.461 82.6018 207.226 84.262 206.469C85.9407 205.713 88.1912 205.335 91.0135 205.335ZM91.0135 211.284C92.3417 211.284 93.4024 211.201 94.1956 211.035C94.9888 210.85 95.3854 210.564 95.3854 210.177C95.3854 209.808 94.9796 209.541 94.168 209.375C93.3747 209.19 92.3233 209.098 91.0135 209.098C88.0805 209.098 86.614 209.458 86.614 210.177C86.614 210.915 88.0805 211.284 91.0135 211.284ZM122.001 201.35V204.947H117.519V193.464H122.001V196.757H124.243V201.35H122.001ZM116.744 203.73C116.246 203.933 115.591 204.099 114.779 204.228C113.986 204.357 113.193 204.422 112.4 204.422H103.186V193.63H115.665V197.504H107.696V200.548H112.566C113.359 200.548 114.125 200.492 114.862 200.382C115.619 200.271 116.246 200.114 116.744 199.911V203.73ZM122.001 205.584V214.798H103.877V205.584H122.001ZM117.519 210.924V209.458H108.388V210.924H117.519Z" fill="black"/>
</svg>
