<svg width="500" height="400" viewBox="0 0 500 400" fill="none" xmlns="http://www.w3.org/2000/svg">
<rect width="500" height="400" fill="#D9D9D9"/>
<path d="M67.4048 235.955C63.4048 235.955 59.8026 235.159 56.598 233.568C53.3935 231.977 50.8253 229.795 48.8935 227.023C46.9616 224.25 45.9048 221.091 45.723 217.545H53.9048C54.223 220.705 55.6548 223.318 58.2003 225.386C60.7685 227.432 63.8366 228.455 67.4048 228.455C70.2685 228.455 72.8139 227.784 75.0412 226.443C77.2912 225.102 79.0526 223.261 80.3253 220.92C81.6207 218.557 82.2685 215.886 82.2685 212.909C82.2685 209.864 81.598 207.148 80.2571 204.761C78.9389 202.352 77.1207 200.455 74.8026 199.068C72.4844 197.682 69.8366 196.977 66.8594 196.955C64.723 196.932 62.5298 197.261 60.2798 197.943C58.0298 198.602 56.1776 199.455 54.723 200.5L46.8139 199.545L51.0412 165.182H87.3139V172.682H58.1321L55.6776 193.273H56.0866C57.5185 192.136 59.3139 191.193 61.473 190.443C63.6321 189.693 65.8821 189.318 68.223 189.318C72.4957 189.318 76.3026 190.341 79.6435 192.386C83.0071 194.409 85.6435 197.182 87.5526 200.705C89.4844 204.227 90.4503 208.25 90.4503 212.773C90.4503 217.227 89.4503 221.205 87.4503 224.705C85.473 228.182 82.7457 230.932 79.2685 232.955C75.7912 234.955 71.8366 235.955 67.4048 235.955ZM126.766 235.955C121.629 235.955 117.254 234.557 113.641 231.761C110.027 228.943 107.266 224.864 105.357 219.523C103.447 214.159 102.493 207.682 102.493 200.091C102.493 192.545 103.447 186.102 105.357 180.761C107.288 175.398 110.061 171.307 113.675 168.489C117.311 165.648 121.675 164.227 126.766 164.227C131.857 164.227 136.209 165.648 139.822 168.489C143.459 171.307 146.232 175.398 148.141 180.761C150.072 186.102 151.038 192.545 151.038 200.091C151.038 207.682 150.084 214.159 148.175 219.523C146.266 224.864 143.504 228.943 139.891 231.761C136.277 234.557 131.902 235.955 126.766 235.955ZM126.766 228.455C131.857 228.455 135.811 226 138.629 221.091C141.447 216.182 142.857 209.182 142.857 200.091C142.857 194.045 142.209 188.898 140.913 184.648C139.641 180.398 137.8 177.159 135.391 174.932C133.004 172.705 130.129 171.591 126.766 171.591C121.72 171.591 117.777 174.08 114.936 179.057C112.095 184.011 110.675 191.023 110.675 200.091C110.675 206.136 111.311 211.273 112.584 215.5C113.857 219.727 115.686 222.943 118.072 225.148C120.482 227.352 123.379 228.455 126.766 228.455ZM186.766 235.955C181.629 235.955 177.254 234.557 173.641 231.761C170.027 228.943 167.266 224.864 165.357 219.523C163.447 214.159 162.493 207.682 162.493 200.091C162.493 192.545 163.447 186.102 165.357 180.761C167.288 175.398 170.061 171.307 173.675 168.489C177.311 165.648 181.675 164.227 186.766 164.227C191.857 164.227 196.209 165.648 199.822 168.489C203.459 171.307 206.232 175.398 208.141 180.761C210.072 186.102 211.038 192.545 211.038 200.091C211.038 207.682 210.084 214.159 208.175 219.523C206.266 224.864 203.504 228.943 199.891 231.761C196.277 234.557 191.902 235.955 186.766 235.955ZM186.766 228.455C191.857 228.455 195.811 226 198.629 221.091C201.447 216.182 202.857 209.182 202.857 200.091C202.857 194.045 202.209 188.898 200.913 184.648C199.641 180.398 197.8 177.159 195.391 174.932C193.004 172.705 190.129 171.591 186.766 171.591C181.72 171.591 177.777 174.08 174.936 179.057C172.095 184.011 170.675 191.023 170.675 200.091C170.675 206.136 171.311 211.273 172.584 215.5C173.857 219.727 175.686 222.943 178.072 225.148C180.482 227.352 183.379 228.455 186.766 228.455ZM265.038 222.455L226.584 184L231.766 178.818L270.22 217.273L265.038 222.455ZM231.766 222.455L226.584 217.273L265.038 178.818L270.22 184L231.766 222.455ZM285.638 220.682V213.727L316.32 165.182H321.365V175.955H317.956L294.774 212.636V213.182H336.092V220.682H285.638ZM318.501 235V218.568V215.33V165.182H326.547V235H318.501ZM371.641 235.955C366.504 235.955 362.129 234.557 358.516 231.761C354.902 228.943 352.141 224.864 350.232 219.523C348.322 214.159 347.368 207.682 347.368 200.091C347.368 192.545 348.322 186.102 350.232 180.761C352.163 175.398 354.936 171.307 358.55 168.489C362.186 165.648 366.55 164.227 371.641 164.227C376.732 164.227 381.084 165.648 384.697 168.489C388.334 171.307 391.107 175.398 393.016 180.761C394.947 186.102 395.913 192.545 395.913 200.091C395.913 207.682 394.959 214.159 393.05 219.523C391.141 224.864 388.379 228.943 384.766 231.761C381.152 234.557 376.777 235.955 371.641 235.955ZM371.641 228.455C376.732 228.455 380.686 226 383.504 221.091C386.322 216.182 387.732 209.182 387.732 200.091C387.732 194.045 387.084 188.898 385.788 184.648C384.516 180.398 382.675 177.159 380.266 174.932C377.879 172.705 375.004 171.591 371.641 171.591C366.595 171.591 362.652 174.08 359.811 179.057C356.97 184.011 355.55 191.023 355.55 200.091C355.55 206.136 356.186 211.273 357.459 215.5C358.732 219.727 360.561 222.943 362.947 225.148C365.357 227.352 368.254 228.455 371.641 228.455ZM431.641 235.955C426.504 235.955 422.129 234.557 418.516 231.761C414.902 228.943 412.141 224.864 410.232 219.523C408.322 214.159 407.368 207.682 407.368 200.091C407.368 192.545 408.322 186.102 410.232 180.761C412.163 175.398 414.936 171.307 418.55 168.489C422.186 165.648 426.55 164.227 431.641 164.227C436.732 164.227 441.084 165.648 444.697 168.489C448.334 171.307 451.107 175.398 453.016 180.761C454.947 186.102 455.913 192.545 455.913 200.091C455.913 207.682 454.959 214.159 453.05 219.523C451.141 224.864 448.379 228.943 444.766 231.761C441.152 234.557 436.777 235.955 431.641 235.955ZM431.641 228.455C436.732 228.455 440.686 226 443.504 221.091C446.322 216.182 447.732 209.182 447.732 200.091C447.732 194.045 447.084 188.898 445.788 184.648C444.516 180.398 442.675 177.159 440.266 174.932C437.879 172.705 435.004 171.591 431.641 171.591C426.595 171.591 422.652 174.08 419.811 179.057C416.97 184.011 415.55 191.023 415.55 200.091C415.55 206.136 416.186 211.273 417.459 215.5C418.732 219.727 420.561 222.943 422.947 225.148C425.357 227.352 428.254 228.455 431.641 228.455Z" fill="#FF0000"/>
</svg>
