<svg width="1000" height="70" viewBox="0 0 1000 70" fill="none" xmlns="http://www.w3.org/2000/svg">
<path d="M0 0H1000V40C1000 56.5685 986.569 70 970 70H30C13.4314 70 0 56.5685 0 40V0Z" fill="#01A69F"/>
<path d="M382.792 24.888H386.184V28.216C386.184 29.9227 386.002 31.5973 385.64 33.24C385.298 34.8827 384.776 36.4293 384.072 37.88C383.389 39.3093 382.525 40.5787 381.48 41.688C380.434 42.776 379.218 43.64 377.832 44.28L375.4 40.92C376.637 40.344 377.714 39.5973 378.632 38.68C379.57 37.7627 380.338 36.7387 380.936 35.608C381.554 34.456 382.013 33.2507 382.312 31.992C382.632 30.712 382.792 29.4533 382.792 28.216V24.888ZM383.72 24.888H387.08V28.216C387.08 29.3893 387.229 30.584 387.528 31.8C387.848 32.9947 388.306 34.136 388.904 35.224C389.501 36.2907 390.258 37.2507 391.176 38.104C392.093 38.9573 393.181 39.64 394.44 40.152L392.104 43.544C390.696 42.9253 389.469 42.0933 388.424 41.048C387.378 40.0027 386.504 38.7973 385.8 37.432C385.096 36.0667 384.573 34.6053 384.232 33.048C383.89 31.4693 383.72 29.8587 383.72 28.216V24.888ZM376.584 23.032H393.224V26.552H376.584V23.032ZM395.976 20.216H400.232V49.848H395.976V20.216ZM408.389 21.528H427.141V24.888H408.389V21.528ZM405.093 32.184H431.941V35.544H405.093V32.184ZM424.581 21.528H428.773V23.896C428.773 25.1547 428.741 26.5093 428.677 27.96C428.613 29.4107 428.357 31.096 427.909 33.016L423.653 32.984C424.123 31.0427 424.389 29.3573 424.453 27.928C424.539 26.4987 424.581 25.1547 424.581 23.896V21.528ZM408.229 38.648H428.645V49.528H408.229V38.648ZM424.485 41.976H412.421V46.168H424.485V41.976ZM460.849 20.216H465.137V49.848H460.849V20.216ZM464.209 31.224H469.425V34.744H464.209V31.224ZM442.833 22.52H447.057V29.752H453.009V22.52H457.233V42.968H442.833V22.52ZM447.057 33.048V39.576H453.009V33.048H447.057ZM471.375 43.128H498.223V46.584H471.375V43.128ZM482.639 37.496H486.863V44.504H482.639V37.496ZM474.415 22.104H495.183V31.992H478.671V36.952H474.447V28.664H490.959V25.496H474.415V22.104ZM474.447 35.288H495.855V38.68H474.447V35.288ZM508.186 34.84H535.034V38.2H508.186V34.84ZM519.834 36.952H524.09V43.192H519.834V36.952ZM511.482 21.432H531.61V32.472H511.482V21.432ZM527.418 24.76H515.674V29.112H527.418V24.76ZM511.29 45.912H532.058V49.336H511.29V45.912ZM511.29 40.696H515.546V47.064H511.29V40.696ZM547.192 22.168C548.728 22.168 550.114 22.4773 551.352 23.096C552.589 23.7147 553.56 24.5787 554.264 25.688C554.968 26.776 555.32 28.0347 555.32 29.464C555.32 30.872 554.968 32.1307 554.264 33.24C553.56 34.3493 552.589 35.2133 551.352 35.832C550.114 36.4507 548.728 36.76 547.192 36.76C545.634 36.76 544.237 36.4507 543 35.832C541.762 35.2133 540.781 34.3493 540.056 33.24C539.352 32.1307 539 30.872 539 29.464C539 28.0347 539.352 26.776 540.056 25.688C540.781 24.5787 541.762 23.7147 543 23.096C544.237 22.4773 545.634 22.168 547.192 22.168ZM547.192 25.816C546.424 25.816 545.73 25.9653 545.112 26.264C544.514 26.5413 544.034 26.9573 543.672 27.512C543.33 28.0453 543.16 28.696 543.16 29.464C543.16 30.232 543.33 30.8933 543.672 31.448C544.034 32.0027 544.514 32.4293 545.112 32.728C545.73 33.0053 546.424 33.144 547.192 33.144C547.938 33.144 548.61 33.0053 549.208 32.728C549.805 32.4293 550.274 32.0027 550.616 31.448C550.978 30.8933 551.16 30.232 551.16 29.464C551.16 28.696 550.978 28.0453 550.616 27.512C550.274 26.9573 549.805 26.5413 549.208 26.264C548.61 25.9653 547.938 25.816 547.192 25.816ZM558.104 20.152H562.36V49.88H558.104V20.152ZM538.264 43.896L537.784 40.44C539.512 40.44 541.421 40.4293 543.512 40.408C545.624 40.3653 547.789 40.28 550.008 40.152C552.248 40.0027 554.413 39.7787 556.504 39.48L556.792 42.552C554.658 42.9787 552.493 43.288 550.296 43.48C548.098 43.6507 545.976 43.768 543.928 43.832C541.88 43.8747 539.992 43.896 538.264 43.896ZM586.069 20.216H590.325V49.848H586.069V20.216ZM589.365 31.768H594.581V35.288H589.365V31.768ZM566.933 24.568H584.213V27.96H566.933V24.568ZM575.637 29.656C577.067 29.656 578.347 29.9653 579.477 30.584C580.608 31.1813 581.493 32.0027 582.133 33.048C582.795 34.0933 583.125 35.3093 583.125 36.696C583.125 38.0827 582.795 39.3093 582.133 40.376C581.493 41.4213 580.608 42.2533 579.477 42.872C578.368 43.4693 577.088 43.768 575.637 43.768C574.208 43.768 572.917 43.4693 571.765 42.872C570.635 42.2533 569.739 41.4213 569.077 40.376C568.437 39.3093 568.117 38.0827 568.117 36.696C568.117 35.3093 568.437 34.0933 569.077 33.048C569.739 32.0027 570.635 31.1813 571.765 30.584C572.917 29.9653 574.208 29.656 575.637 29.656ZM575.637 33.112C574.955 33.112 574.357 33.2507 573.845 33.528C573.333 33.8053 572.928 34.2107 572.629 34.744C572.331 35.2773 572.181 35.928 572.181 36.696C572.181 37.4427 572.331 38.0933 572.629 38.648C572.928 39.1813 573.333 39.5973 573.845 39.896C574.357 40.1733 574.955 40.312 575.637 40.312C576.299 40.312 576.885 40.1733 577.397 39.896C577.909 39.5973 578.315 39.1813 578.613 38.648C578.912 38.0933 579.061 37.4427 579.061 36.696C579.061 35.928 578.912 35.2773 578.613 34.744C578.315 34.2107 577.909 33.8053 577.397 33.528C576.885 33.2507 576.299 33.112 575.637 33.112ZM573.461 20.696H577.749V25.88H573.461V20.696ZM616.947 20.184H621.203V49.816H616.947V20.184ZM608.211 23.256H612.403C612.403 25.5173 612.179 27.6827 611.731 29.752C611.304 31.8 610.579 33.7307 609.555 35.544C608.552 37.3573 607.165 39.0427 605.395 40.6C603.645 42.136 601.459 43.544 598.835 44.824L596.595 41.464C599.453 40.0773 601.725 38.552 603.411 36.888C605.117 35.2027 606.344 33.304 607.091 31.192C607.837 29.0587 608.211 26.6693 608.211 24.024V23.256ZM598.195 23.256H610.195V26.648H598.195V23.256Z" fill="white"/>
</svg>
