<svg width="768" height="160" viewBox="0 0 768 160" fill="none" xmlns="http://www.w3.org/2000/svg">
<path d="M62.9075 137.4V76.7067H78.3742V137.4H62.9075ZM28.3475 76.8133C33.3964 76.8133 37.8408 77.8444 41.6808 79.9067C45.5919 81.8978 48.6142 84.7422 50.7475 88.44C52.8808 92.1378 53.9475 96.44 53.9475 101.347C53.9475 106.253 52.8808 110.556 50.7475 114.253C48.6142 117.951 45.5919 120.831 41.6808 122.893C37.8408 124.884 33.3964 125.88 28.3475 125.88C23.2986 125.88 18.8186 124.884 14.9075 122.893C11.0675 120.831 8.04528 117.951 5.84083 114.253C3.7075 110.556 2.64083 106.253 2.64083 101.347C2.64083 96.44 3.7075 92.1378 5.84083 88.44C8.04528 84.7422 11.0675 81.8978 14.9075 79.9067C18.8186 77.8444 23.2986 76.8133 28.3475 76.8133ZM28.3475 90.36C25.2897 90.36 22.8008 91.32 20.8808 93.24C19.0319 95.16 18.1075 97.8622 18.1075 101.347C18.1075 104.831 19.0319 107.569 20.8808 109.56C22.8008 111.48 25.2897 112.44 28.3475 112.44C31.4053 112.44 33.8942 111.48 35.8142 109.56C37.7342 107.569 38.6942 104.831 38.6942 101.347C38.6942 97.8622 37.7342 95.16 35.8142 93.24C33.8942 91.32 31.4053 90.36 28.3475 90.36ZM79.4408 144.12V158.627H9.57417V129.933H25.2542V144.12H79.4408ZM163.163 158.627H147.803V122.147H136.603V107H147.803V76.7067H163.163V158.627ZM120.816 139.96C124.443 139.96 128.105 139.604 131.803 138.893C135.501 138.182 138.558 137.222 140.976 136.013V150.84C138.63 152.12 135.607 153.116 131.91 153.827C128.283 154.467 124.585 154.787 120.816 154.787H90.6296V78.6267H135.43V93.4533H105.99V109.027H131.696V123.853H105.99V139.96H120.816ZM235.045 133.347V76.7067H249.445V133.347H235.045ZM199.738 100.92V87.2667H215.418V77.0267H229.712V124.6H215.418V100.92H199.738ZM211.685 120.227C209.409 121.08 206.423 121.756 202.725 122.253C199.098 122.751 195.543 123 192.058 123H173.392V77.1333H187.898V109.56H193.552C196.681 109.56 199.881 109.347 203.152 108.92C206.494 108.493 209.338 107.889 211.685 107.107V120.227ZM213.072 147C208.592 150.84 203.223 153.72 196.965 155.64C190.707 157.631 184.094 158.627 177.125 158.627V143.587C182.174 143.587 186.938 142.84 191.418 141.347C195.898 139.853 199.667 137.756 202.725 135.053C205.854 132.351 207.845 129.293 208.698 125.88L224.165 129.507C223.809 130.929 223.063 132.92 221.925 135.48L253.072 145.293L247.952 159.693L213.072 147ZM292.42 124.173V142.307H278.66V124.173H260.207V111.16H278.66V93.0267H292.42V111.16H310.98V124.173H292.42ZM316.358 94.4133V80.3333H378.118V94.4133H355.505V155H339.078V94.4133H316.358ZM423.392 155H407.178L376.565 80.3333H394.378L415.925 133.667L437.792 80.3333H454.112L423.392 155ZM536.714 104.76H527.54V121.827H512.18V76.7067H527.54V89.2933H536.714V104.76ZM481.994 105.72C478.652 110.342 474.598 114.04 469.834 116.813C465.14 119.587 459.985 121.116 454.367 121.4V106.893C458.42 106.396 461.976 104.831 465.034 102.2C468.163 99.4978 470.58 95.9778 472.287 91.64C474.065 87.3022 474.989 82.4311 475.06 77.0267L490.527 77.9867C490.527 83.5333 489.745 88.6889 488.18 93.4533L509.3 107.64L501.514 119.267L481.994 105.72ZM493.194 123C503.86 123 512.358 124.458 518.687 127.373C525.087 130.218 528.287 134.84 528.287 141.24C528.287 147.64 525.087 152.298 518.687 155.213C512.358 158.129 503.86 159.587 493.194 159.587C482.527 159.587 473.994 158.129 467.594 155.213C461.265 152.298 458.1 147.64 458.1 141.24C458.1 134.84 461.265 130.218 467.594 127.373C473.994 124.458 482.527 123 493.194 123ZM493.194 146.68C498.74 146.68 503.185 146.253 506.527 145.4C509.94 144.476 511.647 143.089 511.647 141.24C511.647 139.391 509.94 138.04 506.527 137.187C503.185 136.333 498.74 135.907 493.194 135.907C487.647 135.907 483.167 136.333 479.754 137.187C476.34 138.04 474.634 139.391 474.634 141.24C474.634 143.089 476.34 144.476 479.754 145.4C483.167 146.253 487.647 146.68 493.194 146.68ZM542.889 109.56V97.4H554.836V88.8667H543.742V76.7067H612.863V88.8667H601.663V97.4H613.609V109.56H542.889ZM586.409 97.4V88.8667H570.196V97.4H586.409ZM585.983 129.933H613.183V158.627H543.423V129.933H570.623V125.667H538.836V113.4H617.663V125.667H585.983V129.933ZM558.676 141.88V146.787H597.823V141.88H558.676ZM662.771 75.32C673.509 75.32 682.149 76.92 688.691 80.12C695.233 83.32 698.505 88.0133 698.505 94.2C698.505 100.316 695.233 104.973 688.691 108.173C682.149 111.373 673.509 112.973 662.771 112.973C652.033 112.973 643.393 111.373 636.851 108.173C630.309 104.973 627.038 100.316 627.038 94.2C627.038 88.0133 630.309 83.32 636.851 80.12C643.393 76.92 652.033 75.32 662.771 75.32ZM662.771 87.9067C656.869 87.9067 652.14 88.4756 648.585 89.6133C645.1 90.7511 643.358 92.28 643.358 94.2C643.358 96.12 645.1 97.6489 648.585 98.7867C652.14 99.8533 656.869 100.387 662.771 100.387C668.673 100.387 673.367 99.8533 676.851 98.7867C680.336 97.6489 682.078 96.12 682.078 94.2C682.078 92.28 680.336 90.7511 676.851 89.6133C673.367 88.4756 668.673 87.9067 662.771 87.9067ZM623.305 130.147V116.813H702.131V130.147H623.305ZM698.505 145.08V158.627H627.891V134.413H643.571V145.08H698.505ZM728.147 129.08C728.147 125.382 728.964 122.324 730.6 119.907C732.307 117.489 734.76 114.822 737.96 111.907C740.307 109.773 742.013 107.996 743.08 106.573C744.218 105.08 744.787 103.409 744.787 101.56C744.787 98.9289 743.72 96.8667 741.587 95.3733C739.524 93.8089 736.751 93.0267 733.267 93.0267C729.924 93.0267 726.938 93.7378 724.307 95.16C721.747 96.5111 719.578 98.4311 717.8 100.92L704.893 93.3467C707.88 88.7956 711.898 85.2756 716.947 82.7867C722.067 80.2978 728.111 79.0533 735.08 79.0533C743.258 79.0533 749.8 80.7956 754.707 84.28C759.684 87.7644 762.173 92.6 762.173 98.7867C762.173 101.702 761.676 104.262 760.68 106.467C759.756 108.671 758.582 110.556 757.16 112.12C755.809 113.613 754.031 115.356 751.827 117.347C749.196 119.693 747.276 121.684 746.067 123.32C744.858 124.884 744.253 126.804 744.253 129.08H728.147ZM736.253 155.853C733.338 155.853 730.884 154.929 728.893 153.08C726.973 151.16 726.013 148.849 726.013 146.147C726.013 143.444 726.973 141.204 728.893 139.427C730.813 137.578 733.267 136.653 736.253 136.653C739.24 136.653 741.693 137.578 743.613 139.427C745.533 141.204 746.493 143.444 746.493 146.147C746.493 148.849 745.498 151.16 743.507 153.08C741.587 154.929 739.169 155.853 736.253 155.853Z" fill="#333333"/>
<path d="M263.199 25.1333V44.8133H258.399V3.85333H263.199V20.28H268.586V25.1333H263.199ZM250.453 5.29333V15.2667C250.453 20.7067 249.599 25.4711 247.893 29.56C246.186 33.6133 243.733 36.76 240.533 39C237.333 41.2044 233.546 42.3067 229.173 42.3067V37.5067C232.622 37.5067 235.573 36.6178 238.026 34.84C240.515 33.0267 242.399 30.4667 243.679 27.16C244.959 23.8178 245.599 19.8889 245.599 15.3733V9.88H229.173V5.29333H250.453ZM310.821 16.3333H305.434V26.4667H300.634V3.85333H305.434V11.5333H310.821V16.3333ZM283.621 17.3467C282.234 19.6933 280.421 21.5956 278.181 23.0533C275.941 24.5111 273.398 25.3822 270.554 25.6667V21.1867C273.612 20.76 276.101 19.4622 278.021 17.2933C279.941 15.0889 281.043 12.3689 281.327 9.13333H271.087V4.81333H295.941V9.13333H286.181C286.145 10.5911 285.914 12.0489 285.487 13.5067L297.167 21.0267L294.821 24.8133L283.621 17.3467ZM289.221 27.7467C294.269 27.7467 298.323 28.44 301.381 29.8267C304.438 31.2133 305.967 33.3644 305.967 36.28C305.967 39.2311 304.438 41.4 301.381 42.7867C298.323 44.1733 294.269 44.8667 289.221 44.8667C284.172 44.8667 280.118 44.1733 277.061 42.7867C274.003 41.4 272.474 39.2311 272.474 36.28C272.474 33.3644 274.003 31.2133 277.061 29.8267C280.118 28.44 284.172 27.7467 289.221 27.7467ZM289.221 40.7067C292.634 40.7067 295.425 40.3333 297.594 39.5867C299.763 38.84 300.847 37.7378 300.847 36.28C300.847 34.8222 299.763 33.7378 297.594 33.0267C295.461 32.28 292.669 31.9067 289.221 31.9067C285.772 31.9067 282.963 32.28 280.794 33.0267C278.661 33.7378 277.594 34.8222 277.594 36.28C277.594 37.7378 278.661 38.84 280.794 39.5867C282.963 40.3333 285.772 40.7067 289.221 40.7067ZM358.215 25.1333V44.8133H353.415V3.85333H358.215V20.28H363.602V25.1333H358.215ZM340.082 37.72C341.966 37.72 343.833 37.56 345.682 37.24C347.531 36.8844 349.024 36.4222 350.162 35.8533V40.44C349.024 41.0444 347.513 41.5244 345.628 41.88C343.78 42.2356 341.895 42.4133 339.975 42.4133H324.615V5.02667H329.522V37.72H340.082ZM402.636 44.8133H398.049V3.85333H402.636V44.8133ZM393.143 4.06666V44.12H388.609V25.6133H383.703C383.561 31.5511 382.725 35.9244 381.196 38.7333C379.667 41.5422 377.463 42.9467 374.583 42.9467C371.596 42.9467 369.338 41.4 367.809 38.3067C366.281 35.2133 365.516 30.3956 365.516 23.8533C365.516 17.3111 366.281 12.4933 367.809 9.4C369.338 6.30667 371.596 4.76 374.583 4.76C377.356 4.76 379.489 6.05778 380.983 8.65333C382.512 11.2489 383.401 15.2844 383.649 20.76H388.609V4.06666H393.143ZM374.583 38.36C376.147 38.36 377.303 37.1867 378.049 34.84C378.796 32.4578 379.169 28.7956 379.169 23.8533C379.169 18.9111 378.796 15.2667 378.049 12.92C377.303 10.5378 376.147 9.34667 374.583 9.34667C373.054 9.34667 371.916 10.5378 371.169 12.92C370.423 15.2667 370.049 18.9111 370.049 23.8533C370.049 28.7956 370.423 32.4578 371.169 34.84C371.916 37.1867 373.054 38.36 374.583 38.36ZM444.871 44.8133H440.231V3.85333H444.871V44.8133ZM435.057 4.06666V44.12H430.471V24.9733H423.751C422.755 30.3778 420.871 34.6267 418.097 37.72C415.324 40.7778 412.017 42.3067 408.177 42.3067V37.56C410.524 37.4889 412.568 36.6 414.311 34.8933C416.088 33.1511 417.439 30.7156 418.364 27.5867C419.324 24.4578 419.804 20.8133 419.804 16.6533V9.88H408.177V5.29333H424.444V16.3867C424.444 17.7022 424.391 18.9822 424.284 20.2267H430.471V4.06666H435.057ZM500.852 16.92H495.465V26.0933H490.665V3.85333H495.465V12.0667H500.852V16.92ZM461.385 24.1733V4.81333H484.212V24.1733H461.385ZM466.185 9.08V19.9067H479.465V9.08H466.185ZM482.452 32.4933C482.167 33.56 481.776 34.4844 481.278 35.2667L496.958 40.5467L495.678 44.8133L478.452 38.68C476.532 40.4933 474.132 41.8978 471.252 42.8933C468.372 43.8533 465.35 44.3333 462.185 44.3333V39.96C465.598 39.96 468.692 39.2844 471.465 37.9333C474.274 36.5467 476.158 34.7333 477.118 32.4933H462.665V28.28H495.892V32.4933H482.452ZM538.873 15.4267V19.7467H505.059V3.8H509.913V15.4267H538.873ZM502.286 28.5467V24.2267H541.219V28.5467H502.286ZM539.246 40.0133V44.3333H504.953V32.12H509.859V40.0133H539.246Z" fill="#333333"/>
</svg>
