<svg width="172" height="79" viewBox="0 0 172 79" fill="none" xmlns="http://www.w3.org/2000/svg">
<rect x="7.78223" y="8.25403" width="155.645" height="62.2581" rx="15.5645" fill="#5DDFDE"/>
<path d="M36.0628 48.4879H31.8604V33.7016H28.2287V30.3293H36.0628V48.4879ZM44.3196 37.2555C43.6105 37.2555 43.0139 37.0134 42.5297 36.5292C42.0454 36.0449 41.8033 35.4397 41.8033 34.7133C41.8033 33.9697 42.0454 33.373 42.5297 32.9234C43.0139 32.4565 43.6105 32.223 44.3196 32.223C45.0286 32.223 45.6253 32.4565 46.1095 32.9234C46.5937 33.373 46.8358 33.9697 46.8358 34.7133C46.8358 35.4397 46.5937 36.0449 46.1095 36.5292C45.6253 37.0134 45.0286 37.2555 44.3196 37.2555ZM44.3196 46.5683C43.6105 46.5683 43.0139 46.3262 42.5297 45.8419C42.0454 45.3577 41.8033 44.7524 41.8033 44.0261C41.8033 43.2824 42.0454 42.6858 42.5297 42.2362C43.0139 41.7692 43.6105 41.5358 44.3196 41.5358C45.0286 41.5358 45.6253 41.7692 46.1095 42.2362C46.5937 42.6858 46.8358 43.2824 46.8358 44.0261C46.8358 44.7524 46.5937 45.3577 46.1095 45.8419C45.6253 46.3262 45.0286 46.5683 44.3196 46.5683ZM58.4292 48.4879H54.2268V33.7016H50.595V30.3293H58.4292V48.4879ZM78.6447 29.4473H82.3802V44.2077H78.6447V37.1258H76.1025V33.7016H78.6447V29.4473ZM70.7587 38.0337C69.9805 39.1233 69.0379 39.9966 67.9311 40.6538C66.8243 41.3109 65.6224 41.6482 64.3254 41.6655V38.1116C65.5359 38.0078 66.539 37.4717 67.3345 36.5032C68.13 35.5348 68.6142 34.3761 68.7872 33.0272H64.5588V29.6808H76.6473V33.0272H72.5486C72.5313 33.5633 72.4276 34.1859 72.2373 34.8949L77.4514 38.7082L75.3502 41.5098L70.7587 38.0337ZM82.6396 49.3699H65.4408V42.3918H69.2541V45.8419H82.6396V49.3699ZM84.4268 34.5317V31.1594H88.8627V29.2917H92.7019V31.1594H97.1897V34.5317H84.4268ZM102.352 40.3684V49.3699H98.6164V29.4473H102.352V36.5292H104.531V40.3684H102.352ZM92.65 44.96C93.5839 44.96 94.4832 44.8994 95.3479 44.7784C96.2299 44.64 96.9562 44.4411 97.5269 44.1817V47.6578C96.9562 47.9172 96.2299 48.1161 95.3479 48.2544C94.4659 48.3755 93.532 48.436 92.5463 48.436H84.5046V44.96H88.8886V43.2738C87.7299 43.0317 86.8047 42.5734 86.1129 41.8989C85.4385 41.2072 85.1012 40.3425 85.1012 39.3049C85.1012 37.9732 85.6287 36.9442 86.6836 36.2179C87.7386 35.4915 89.1221 35.1284 90.8342 35.1284C92.529 35.1284 93.9038 35.4915 94.9588 36.2179C96.0137 36.9442 96.5412 37.9732 96.5412 39.3049C96.5412 40.3598 96.1866 41.2331 95.4776 41.9249C94.7858 42.5993 93.8433 43.049 92.65 43.2738V44.96ZM88.6033 39.3049C88.6033 39.6507 88.8021 39.9101 89.1999 40.0831C89.5977 40.256 90.1424 40.3425 90.8342 40.3425C91.5086 40.3425 92.0448 40.256 92.4425 40.0831C92.8403 39.9101 93.0392 39.6507 93.0392 39.3049C93.0392 38.959 92.8403 38.6996 92.4425 38.5266C92.0448 38.3364 91.5086 38.2413 90.8342 38.2413C90.1424 38.2413 89.5977 38.3364 89.1999 38.5266C88.8021 38.6996 88.6033 38.959 88.6033 39.3049ZM125.073 36.2698H122.842V40.4203H119.107V29.4473H122.842V32.5083H125.073V36.2698ZM111.766 36.5032C110.953 37.6273 109.967 38.5266 108.808 39.2011C107.667 39.8755 106.413 40.2474 105.047 40.3165V36.7886C106.033 36.6675 106.897 36.2871 107.641 35.6472C108.402 34.99 108.99 34.134 109.405 33.079C109.837 32.0241 110.062 30.8395 110.08 29.5251L113.841 29.7586C113.841 31.1075 113.651 32.3613 113.27 33.52L118.407 36.9702L116.513 39.7977L111.766 36.5032ZM114.49 40.7057C117.084 40.7057 119.15 41.0602 120.689 41.7692C122.246 42.461 123.024 43.5851 123.024 45.1415C123.024 46.698 122.246 47.8307 120.689 48.5398C119.15 49.2488 117.084 49.6034 114.49 49.6034C111.895 49.6034 109.82 49.2488 108.264 48.5398C106.725 47.8307 105.955 46.698 105.955 45.1415C105.955 43.5851 106.725 42.461 108.264 41.7692C109.82 41.0602 111.895 40.7057 114.49 40.7057ZM114.49 46.4645C115.838 46.4645 116.919 46.3608 117.732 46.1532C118.562 45.9284 118.977 45.5912 118.977 45.1415C118.977 44.6919 118.562 44.3633 117.732 44.1558C116.919 43.9483 115.838 43.8445 114.49 43.8445C113.141 43.8445 112.051 43.9483 111.221 44.1558C110.391 44.3633 109.976 44.6919 109.976 45.1415C109.976 45.5912 110.391 45.9284 111.221 46.1532C112.051 46.3608 113.141 46.4645 114.49 46.4645ZM143.385 36.5811V40.2387H139.649V29.4473H143.385V32.7678H145.616V36.5811H143.385ZM138.767 38.9157C138.283 39.1406 137.626 39.3135 136.796 39.4346C135.983 39.5556 135.127 39.6161 134.228 39.6161H126.005V29.6808H137.678V32.9234H129.766V36.3735H134.383C135.248 36.3735 136.07 36.3217 136.848 36.2179C137.626 36.0968 138.266 35.9325 138.767 35.725V38.9157ZM143.385 40.9391V49.3699H126.653V40.9391H143.385ZM139.649 46.1273V44.1817H130.414V46.1273H139.649Z" fill="black"/>
</svg>
